<?xml version="1.0" encoding="UTF-8" standalone="no"?><!DOCTYPE svg PUBLIC "-//W3C//DTD SVG 1.1//EN" "http://www.w3.org/Graphics/SVG/1.1/DTD/svg11.dtd"><svg width="100%" height="100%" viewBox="0 0 310 255" version="1.1" xmlns="http://www.w3.org/2000/svg" xmlns:xlink="http://www.w3.org/1999/xlink" xml:space="preserve" style="fill-rule:evenodd;clip-rule:evenodd;stroke-linejoin:round;stroke-miterlimit:1.41421;"><path d="M273.506,123.8c0,68.366 -55.428,123.794 -123.797,123.794c-68.372,0 -123.797,-55.428 -123.797,-123.794c0,-68.375 55.425,-123.8 123.797,-123.8c68.369,0 123.797,55.425 123.797,123.8Z" style="fill-rule:nonzero;"/><path d="M279.515,127.119c0,-70.094 -57.018,-127.119 -127.115,-127.119c-70.082,0 -127.107,57.025 -127.107,127.119c0,70.09 57.025,127.112 127.107,127.112c70.097,0 127.115,-57.022 127.115,-127.112Z" style="fill-rule:nonzero;"/><path d="M137.162,124.844c4.166,-10.432 4.897,-21.55 2.025,-31.297c-2.94,-10 -9.265,-17.381 -17.822,-20.8c-3.297,-1.316 -6.803,-1.984 -10.409,-1.984c-15.206,0 -30.047,11.574 -36.953,28.831c-8.697,21.762 -1.619,45.134 15.803,52.094c3.294,1.321 6.803,1.99 10.406,1.99c15.203,0 30.047,-11.584 36.95,-28.834l0,0Z" style="fill-rule:nonzero;"/><path d="M234.472,173.925c0,8.738 -7.082,15.819 -15.825,15.819c-8.741,0 -15.822,-7.081 -15.822,-15.819c0,-8.75 7.081,-15.828 15.822,-15.828c8.743,0 15.825,7.078 15.825,15.828Z" style="fill-rule:nonzero;"/><path d="M98.003,173.925c0,8.738 -7.085,15.819 -15.828,15.819c-8.738,0 -15.822,-7.081 -15.822,-15.819c0,-8.75 7.084,-15.828 15.822,-15.828c8.743,0 15.828,7.078 15.828,15.828Z" style="fill-rule:nonzero;"/><path d="M215.125,112.219c0,9.194 -7.45,16.643 -16.644,16.643c-9.191,0 -16.641,-7.449 -16.641,-16.643c0,-9.191 7.45,-16.644 16.641,-16.644c9.194,0 16.644,7.453 16.644,16.644Z" style="fill-rule:nonzero;"/><path d="M123.665,112.219c0,9.194 -7.45,16.643 -16.64,16.643c-9.191,0 -16.644,-7.449 -16.644,-16.643c0,-9.191 7.453,-16.644 16.644,-16.644c9.19,0 16.64,7.453 16.64,16.644Z" style="fill-rule:nonzero;"/><path d="M207.503,119.841c0,4.981 -4.041,9.021 -9.022,9.021c-4.981,0 -9.019,-4.04 -9.019,-9.021c0,-4.985 4.038,-9.022 9.019,-9.022c4.981,0 9.022,4.037 9.022,9.022Z" style="fill-rule:nonzero;"/><path d="M116.043,119.841c0,4.981 -4.037,9.021 -9.018,9.021c-4.985,0 -9.022,-4.04 -9.022,-9.021c0,-4.985 4.037,-9.022 9.022,-9.022c4.981,0 9.018,4.037 9.018,9.022Z" style="fill-rule:nonzero;"/><path d="M195.278,178.325c-0.86,7.159 -7.013,20.628 -24.135,20.628c-4.49,0 -8.546,-0.944 -12.059,-2.822c-4.728,-2.525 -8.591,-2.525 -13.303,0c-3.513,1.869 -7.575,2.822 -12.053,2.822c-17.131,0 -23.291,-13.469 -24.15,-20.6c-0.175,-1.444 0.222,-2.878 1.137,-4.034c0.9,-1.153 2.197,-1.885 3.653,-2.05c3.141,-0.072 5.76,2.025 6.079,4.781c0.056,0.428 1.553,10.959 13.281,10.959c4.997,0 8.594,-1.731 10.981,-5.278c0.578,-0.875 1.066,-1.84 1.466,-2.869c-2.272,-1.496 -5.35,-3.865 -9.585,-7.69c-5.268,-4.759 -9.803,-9.459 -9.828,-9.5c-0.559,-0.609 -1.006,-2.05 -0.859,-2.863c0.187,-1.087 0.894,-2.021 1.906,-2.471c0.438,-0.216 12.475,-6.082 25.438,-6.082c12.987,0 23.581,5.947 24.025,6.207c0.7,0.403 1.537,1.603 1.662,2.393c0.138,1.085 -0.178,2.082 -0.881,2.832c-0.463,0.487 -4.869,5.003 -9.813,9.484c-4.215,3.797 -7.284,6.181 -9.559,7.666c1.316,3.4 4.512,8.162 12.45,8.162c5.003,0 8.6,-1.731 10.978,-5.281c0.569,-0.835 1.053,-1.778 1.456,-2.788c0.235,-0.584 0.416,-1.275 0.6,-1.953c0.51,-1.837 0.994,-3.575 2.31,-4.597c0.943,-0.74 2.137,-1.153 3.343,-1.153l0.707,0.044c2.953,0.369 5.084,3.084 4.753,6.053l0,0Z" style="fill-rule:nonzero;"/><path d="M237.397,25.719c0,0 32.634,-19.725 60.859,3.165c0,0 31.334,32.091 -10.1,61.679l-5.181,0l-45.578,-61.329" style="fill-rule:nonzero;"/><path d="M17.878,91.85c0,0 -28.991,-28.116 -13.138,-63.191c0,0 24.441,-40.725 65.891,-6.25l1.394,5.31l-50.55,63.184" style="fill-rule:nonzero;"/></svg>