<?xml version="1.0" encoding="UTF-8" standalone="no"?><!DOCTYPE svg PUBLIC "-//W3C//DTD SVG 1.1//EN" "http://www.w3.org/Graphics/SVG/1.1/DTD/svg11.dtd"><svg width="100%" height="100%" viewBox="0 0 386 230" version="1.1" xmlns="http://www.w3.org/2000/svg" xmlns:xlink="http://www.w3.org/1999/xlink" xml:space="preserve" style="fill-rule:evenodd;clip-rule:evenodd;stroke-linejoin:round;stroke-miterlimit:1.41421;"><path d="M243.211,103.326c0,8.726 -7.075,15.797 -15.8,15.797c-8.722,0 -15.794,-7.071 -15.794,-15.797c0,-8.721 7.072,-15.793 15.794,-15.793c8.725,0 15.8,7.072 15.8,15.793Z" style="fill-rule:nonzero;"/><path d="M160.03,103.326c0,8.726 -7.072,15.797 -15.797,15.797c-8.722,0 -15.794,-7.071 -15.794,-15.797c0,-8.721 7.072,-15.793 15.794,-15.793c8.725,0 15.797,7.072 15.797,15.793Z" style="fill-rule:nonzero;"/><path d="M284.92,160.72c0,23.322 -33.118,42.228 -73.972,42.228l-40.118,0c-40.853,0 -73.972,-18.906 -73.972,-42.228c0,-23.325 33.119,-42.231 73.972,-42.231l40.118,0c40.854,0 73.972,18.906 73.972,42.231Z" style="fill-rule:nonzero;"/><path d="M227.264,30.492c38.741,19.11 63.519,45.038 74.506,58.3c3.825,4.625 7.932,3.928 9.291,-1.897c9.434,-40.578 4.137,-65.306 -0.678,-77.584c-2.213,-5.572 -9.91,-9.703 -15.888,-9.281c-29.393,1.975 -54.697,13.403 -67.706,20.4c-5.259,2.834 -4.894,7.396 0.475,10.062l0,0Z" style="fill-rule:nonzero;"/><path d="M254.308,33.923c24.087,8.529 40.447,22.032 47.825,29.06c2.569,2.45 4.934,1.753 5.325,-1.76c2.715,-24.493 -2.119,-38.65 -5.8,-45.528c-1.688,-3.118 -6.494,-5.009 -9.978,-4.344c-17.128,3.204 -31.197,11.679 -38.353,16.694c-2.891,2.031 -2.357,4.688 0.981,5.878l0,0Z" style="fill-rule:nonzero;"/><path d="M74.736,93.467c27.803,-33.062 58.9,-50.934 74.406,-58.434c5.397,-2.616 5.703,-6.769 0.372,-9.478c-37.156,-18.85 -62.431,-19.607 -75.506,-17.86c-5.938,0.819 -11.788,7.303 -12.806,13.213c-5.097,29.015 -0.041,56.315 3.653,70.618c1.493,5.785 6.012,6.516 9.881,1.941l0,0Z" style="fill-rule:nonzero;"/><path d="M86.652,70.736c14.031,-21.356 31.05,-34.019 39.634,-39.506c2.994,-1.907 2.878,-4.372 -0.438,-5.591c-23.137,-8.484 -38.037,-7.169 -45.597,-5.234c-3.431,0.897 -6.415,5.112 -6.6,8.656c-0.974,17.394 3.897,33.078 7.06,41.225c1.281,3.291 3.984,3.409 5.941,0.45l0,0Z" style="fill-rule:nonzero;"/><path d="M230.711,111.111c-5.197,0 -9.419,-4.219 -9.419,-9.422c0,-5.212 4.222,-9.425 9.419,-9.425c5.212,0 9.422,4.213 9.422,9.425c0,5.203 -4.222,9.422 -9.422,9.422Zm-24.447,62.109c-4.719,0.444 -9.553,0.685 -14.356,0.685c-5.519,0 -11.066,-0.316 -16.46,-0.913c-2.015,-0.216 -3.471,-2.047 -3.246,-4.065c0.234,-2.016 2.046,-3.479 4.062,-3.247c3.744,0.409 7.55,0.671 11.378,0.784c-0.003,-0.228 -0.003,-0.578 -0.003,-0.953c0,0 0,-1.416 0,-3.144c0,-1.734 -2.797,-4.762 -5.759,-7.372c-2.416,-2.122 -4.385,-4.209 -5.072,-5.015c-1.425,-1.366 -5.072,-5.475 -3.31,-10.322c2.188,-5.9 10.479,-6.775 16.529,-6.925c0.375,0 0.812,-0.028 1.265,-0.028c8.913,0 14.519,2.106 16.61,6.231c1.071,2.1 1.668,5.534 -1.557,9.966l-0.722,0.965c-1.34,1.738 -3.059,3.656 -4.956,5.403c-3.003,2.731 -5.981,5.575 -5.981,7.235l0,4.028c3.65,-0.081 7.309,-0.281 10.9,-0.635c2.009,-0.203 3.803,1.294 4.006,3.322c0.178,2.016 -1.29,3.807 -3.328,4l0,0Zm-59.078,-62.259c-5.2,0 -9.422,-4.219 -9.422,-9.422c0,-5.2 4.222,-9.419 9.422,-9.419c5.2,0 9.419,4.21 9.419,9.419c0,5.203 -4.219,9.422 -9.419,9.422Zm234.319,-25.472c-27.447,4.753 -50.522,14.506 -68.207,24.338c-20.256,-39.416 -73.081,-80.894 -122.056,-80.894c-47.831,0 -99.334,39.581 -120.569,78.159c-17.437,-9.491 -39.875,-18.744 -66.368,-23.325c-2,-0.35 -3.907,0.994 -4.25,2.994c-0.347,2.003 0.993,3.9 2.997,4.244c25.506,4.422 47.29,13.497 64.25,22.762c-1.26,2.725 -2.338,5.422 -3.254,8.094c-10.668,-3.813 -24.806,-7.735 -40.331,-9.066c-2.031,-0.168 -3.794,1.331 -3.972,3.35c-0.159,2.019 1.332,3.785 3.36,3.972c14.878,1.272 28.628,5.163 38.921,8.856c-0.728,3.232 -1.193,6.375 -1.334,9.45c0,0 -0.397,0.697 -1.009,1.954c-8.778,0.209 -20.213,1.893 -29.86,7.981c-1.718,1.081 -2.221,3.35 -1.143,5.072c0.697,1.1 1.897,1.709 3.115,1.709c0.669,0 1.338,-0.172 1.95,-0.569c7.066,-4.453 15.513,-6.15 22.7,-6.647c-2.403,6.544 -4.725,15.597 -3.647,24.379c0.429,3.506 2.275,3.334 4.804,0.868c1.296,-1.272 3.053,-2.509 5.4,-3.362c3.328,-1.203 4.484,1.137 2.918,4.309c-3.734,7.572 -8.147,22.71 0.653,43.631c1.372,3.269 2.785,2.916 3.21,-0.603c0.594,-4.944 1.912,-11.9 4.809,-17.85c1.553,-3.175 2.628,-2.603 2.531,0.931c-0.056,2.001 0.085,4.276 0.65,6.591c0.832,3.438 3.935,3.344 6.047,0.509c2.128,-2.865 5.072,-6.271 8.403,-8.528c2.929,-1.993 8.16,-0.718 11.088,1.275c24.794,16.935 57.125,28.95 87.931,28.95c31.003,0 63.544,-12.153 88.394,-29.253c2.919,-2.006 8.159,-3.247 10.987,-1.119c3.069,2.291 5.66,5.622 7.554,8.472c1.953,2.96 4.878,3.119 5.712,-0.306c0.578,-2.315 0.7,-4.615 0.663,-6.6c-0.11,-3.54 0.975,-4.119 2.537,-0.934c2.894,5.956 4.209,12.931 4.806,17.862c0.425,3.519 1.841,3.857 3.21,0.575c8.8,-20.906 4.393,-36.05 0.659,-43.603c-1.562,-3.181 -0.406,-5.522 2.906,-4.316c2.353,0.86 4.113,2.088 5.397,3.357c2.541,2.478 4.391,2.637 4.856,-0.869c1.05,-8.1 -0.671,-16.437 -2.693,-22.806c7.772,0.203 17.737,1.659 25.859,6.809c0.616,0.381 1.291,0.578 1.963,0.578c1.218,0 2.415,-0.615 3.1,-1.715c1.09,-1.725 0.575,-3.988 -1.141,-5.075c-10.663,-6.747 -23.525,-8.088 -32.544,-8.007c-0.787,-1.815 -1.415,-3.062 -1.625,-3.478c-0.103,-2.25 -0.372,-4.534 -0.781,-6.878c10.5,-3.965 25.406,-8.469 41.678,-9.869c2.016,-0.162 3.519,-1.946 3.344,-3.971c-0.175,-2.019 -1.969,-3.513 -3.978,-3.347c-16.741,1.45 -31.897,5.9 -42.788,9.978c-0.79,-2.594 -1.737,-5.213 -2.825,-7.866c17.228,-9.659 39.735,-19.303 66.288,-23.897c2.003,-0.347 3.343,-2.253 2.993,-4.243c-0.35,-2.016 -2.265,-3.372 -4.268,-3.013l0,0Z" style="fill-rule:nonzero;"/><path d="M211.364,146.311l1.531,-2.013c0.672,-0.912 3.01,-4.318 2.166,-6.025c-1.144,-2.15 -8.403,-5.496 -23.822,-5.496c-1.275,0 -2.159,0.078 -2.347,0.078c-5.109,0.115 -9.081,0.478 -12.215,0.959c-6.704,1.044 -11.154,6.25 -9.941,8.097c0.697,1.044 1.609,2.144 2.559,3.056c0.294,0.266 0.572,0.603 0.828,0.888c1.463,1.815 5.525,5.9 10.044,9.85c5.866,5.109 16.772,5.575 22.197,0.528c3.091,-2.878 6.228,-6.316 9,-9.922Z" style="fill-rule:nonzero;"/><path d="M269.87,136.911c0,10.175 -8.247,18.422 -18.422,18.422c-10.175,0 -18.422,-8.247 -18.422,-18.422c0,-10.172 8.247,-18.422 18.422,-18.422c10.175,0 18.422,8.25 18.422,18.422Z" style="fill-rule:nonzero;"/><path d="M146.861,136.911c0,10.175 -8.247,18.422 -18.422,18.422c-10.172,0 -18.419,-8.247 -18.419,-18.422c0,-10.172 8.247,-18.422 18.419,-18.422c10.175,0 18.422,8.25 18.422,18.422Z" style="fill-rule:nonzero;"/></svg>