<?xml version="1.0" encoding="UTF-8" standalone="no"?><!DOCTYPE svg PUBLIC "-//W3C//DTD SVG 1.1//EN" "http://www.w3.org/Graphics/SVG/1.1/DTD/svg11.dtd"><svg width="100%" height="100%" viewBox="0 0 65 50" version="1.1" xmlns="http://www.w3.org/2000/svg" xmlns:xlink="http://www.w3.org/1999/xlink" xml:space="preserve" style="fill-rule:evenodd;clip-rule:evenodd;stroke-linejoin:round;stroke-miterlimit:1.41421;"><path d="M15.611,5.395c-0.929,0 -1.682,0.753 -1.682,1.682c0,0.928 0.753,1.682 1.682,1.682c0.929,0 1.682,-0.754 1.682,-1.682c0,-0.929 -0.753,-1.682 -1.682,-1.682" style="fill-rule:nonzero;"/><path d="M14.078,12.456c-2.705,0 -4.898,-2.191 -4.898,-4.896c0,-2.703 2.193,-4.896 4.898,-4.896c2.703,0 4.895,2.193 4.895,4.896c0,2.705 -2.19,4.896 -4.895,4.896m50.244,12.474c-0.375,-8.702 -4.549,-17.706 -15.45,-22.139c0.142,0.407 0.277,0.836 0.399,1.286c0.137,0.488 0.234,1.007 0.342,1.527c0.06,0.531 0.179,1.057 0.188,1.602c0.031,0.538 0.064,1.074 0.019,1.605c-0.014,0.263 -0.027,0.524 -0.04,0.782c-0.04,0.256 -0.078,0.508 -0.117,0.757c-0.043,0.246 -0.066,0.491 -0.123,0.723c-0.065,0.232 -0.127,0.459 -0.188,0.679c-0.061,0.22 -0.12,0.432 -0.177,0.638c-0.073,0.201 -0.159,0.39 -0.233,0.573c-0.157,0.363 -0.28,0.702 -0.424,0.986c-0.159,0.277 -0.298,0.517 -0.412,0.716c-0.227,0.395 -0.356,0.619 -0.356,0.619c0,0 0.098,-0.241 0.27,-0.661c0.084,-0.21 0.188,-0.463 0.306,-0.754c0.104,-0.297 0.178,-0.645 0.282,-1.014c0.046,-0.186 0.104,-0.377 0.147,-0.577c0.028,-0.206 0.057,-0.416 0.087,-0.633c0.029,-0.215 0.059,-0.438 0.09,-0.664c0.024,-0.227 0.014,-0.463 0.022,-0.698c0.005,-0.236 0.009,-0.475 0.014,-0.718c-0.021,-0.242 -0.042,-0.487 -0.063,-0.734c-0.024,-0.492 -0.123,-0.984 -0.219,-1.475c-0.072,-0.492 -0.253,-0.966 -0.37,-1.438c-0.165,-0.463 -0.316,-0.92 -0.502,-1.346c-0.361,-0.859 -0.769,-1.626 -1.152,-2.259c-0.087,-0.144 -0.172,-0.278 -0.255,-0.408c-0.644,-0.203 -1.303,-0.396 -1.99,-0.57c-0.899,-0.227 -1.776,-0.417 -2.64,-0.579c0.192,0.518 0.378,1.075 0.537,1.67c0.138,0.489 0.235,1.008 0.343,1.528c0.06,0.531 0.179,1.057 0.188,1.601c0.032,0.539 0.063,1.075 0.019,1.606c-0.013,0.262 -0.027,0.525 -0.04,0.782c-0.039,0.255 -0.078,0.508 -0.117,0.756c-0.042,0.247 -0.066,0.491 -0.123,0.725c-0.064,0.232 -0.127,0.457 -0.188,0.678c-0.061,0.218 -0.12,0.432 -0.178,0.638c-0.072,0.201 -0.158,0.389 -0.232,0.573c-0.157,0.363 -0.279,0.702 -0.424,0.987c-0.159,0.275 -0.298,0.516 -0.412,0.714c-0.226,0.395 -0.356,0.62 -0.356,0.62c0,0 0.098,-0.24 0.269,-0.662c0.086,-0.21 0.189,-0.463 0.307,-0.753c0.104,-0.296 0.178,-0.645 0.281,-1.014c0.048,-0.186 0.105,-0.376 0.149,-0.577c0.028,-0.205 0.056,-0.416 0.086,-0.634c0.029,-0.215 0.059,-0.436 0.09,-0.664c0.024,-0.225 0.014,-0.461 0.023,-0.697c0.004,-0.236 0.009,-0.476 0.013,-0.718c-0.021,-0.243 -0.042,-0.487 -0.063,-0.734c-0.024,-0.492 -0.123,-0.985 -0.219,-1.475c-0.073,-0.492 -0.253,-0.967 -0.37,-1.438c-0.165,-0.464 -0.315,-0.92 -0.501,-1.346c-0.363,-0.859 -0.77,-1.626 -1.152,-2.259c-0.053,-0.087 -0.104,-0.166 -0.156,-0.248c-1.497,-0.178 -2.963,-0.238 -4.422,-0.169c0.05,0.168 0.101,0.334 0.147,0.507c0.138,0.488 0.236,1.008 0.343,1.527c0.06,0.532 0.179,1.058 0.188,1.602c0.032,0.54 0.063,1.074 0.019,1.605c-0.013,0.264 -0.027,0.525 -0.04,0.783c-0.039,0.255 -0.078,0.507 -0.117,0.756c-0.043,0.246 -0.066,0.491 -0.123,0.724c-0.064,0.233 -0.127,0.458 -0.188,0.68c-0.061,0.218 -0.12,0.43 -0.178,0.636c-0.072,0.201 -0.159,0.39 -0.232,0.573c-0.157,0.364 -0.279,0.704 -0.425,0.987c-0.159,0.276 -0.297,0.518 -0.411,0.716c-0.226,0.394 -0.356,0.619 -0.356,0.619c0,0 0.098,-0.241 0.269,-0.662c0.085,-0.209 0.189,-0.463 0.307,-0.754c0.104,-0.294 0.178,-0.645 0.281,-1.012c0.047,-0.186 0.105,-0.377 0.149,-0.579c0.028,-0.203 0.056,-0.416 0.085,-0.633c0.03,-0.215 0.06,-0.437 0.091,-0.663c0.023,-0.227 0.014,-0.463 0.023,-0.699c0.004,-0.236 0.008,-0.475 0.013,-0.718c-0.021,-0.241 -0.042,-0.486 -0.063,-0.733c-0.024,-0.492 -0.123,-0.986 -0.219,-1.475c-0.073,-0.492 -0.253,-0.967 -0.37,-1.439c-0.165,-0.462 -0.315,-0.919 -0.502,-1.346c-0.127,-0.3 -0.26,-0.585 -0.395,-0.861c-3.866,0.459 -7.775,1.875 -12.254,4.551c-0.197,-1.879 -5.145,-7.519 -11.179,-3.559c-6.43,-0.795 -6.43,5.835 -6.43,5.835c0,0 -3.515,6.18 -3.561,8.508c-0.033,1.557 0.906,1.978 1.805,2.248c4.647,-2.646 8.865,-2.017 12.293,-1.506c1.785,0.267 3.332,0.494 4.49,0.167c0.4,-0.114 0.821,0.122 0.935,0.525c0.113,0.401 -0.121,0.821 -0.523,0.937c-1.473,0.413 -3.165,0.162 -5.127,-0.13c-3.066,-0.458 -6.813,-0.988 -10.836,1.088c3.821,6.655 14.403,8.912 22.091,3.598c1.677,0.105 3.877,0.355 6.251,0.552c0.438,0.037 0.009,1.418 -0.416,2.797c-0.149,0.48 -5.823,1.668 -5.934,2.088c-0.206,0.792 5.158,0.148 5.541,0.695c0.38,0.549 -0.692,3.067 -0.197,4.255c0.329,0.791 3.009,-0.019 3.759,-1.881c0.378,-0.927 -1.205,-2.766 -0.853,-3.501c1.056,-2.205 1.982,-4.215 2.144,-4.213c1.101,0.034 2.197,0.038 3.262,-0.013c2.22,-0.101 4.365,-0.31 6.349,-0.484c0.252,-0.021 0.675,0.865 1.122,1.898c0.202,0.473 -3.718,1.188 -3.516,1.654c0.414,0.947 3.859,0.31 5.145,1.494c1.287,1.188 1.328,4.383 2.276,4.75c0.524,0.2 2.713,-1.372 2.275,-3.364c-0.639,-2.908 -4.14,-6.66 -3.956,-6.667c2.429,-0.113 4.449,0.004 5.835,0.721c5.146,2.663 1.387,22.467 -11.475,23.459c-7.007,0.538 -9.346,-5.067 -8.476,-8.193c0.859,-3.089 4.719,-4.768 7.39,-4.37c2.671,0.392 3.164,2.868 1.98,4.548c-0.159,0.222 -0.338,0.426 -0.532,0.616c-0.457,-0.464 -1.095,-0.754 -1.798,-0.754c-1.396,0 -2.526,1.132 -2.526,2.526c0,1.397 1.13,2.524 2.526,2.524c1.261,0 2.298,-0.925 2.487,-2.138c0.679,-0.169 1.35,-0.498 1.92,-1.09c2.276,-2.376 1.78,-6.63 -2.53,-8.09c-4.822,-1.632 -11.58,1.399 -11.779,6.544c-0.198,5.142 4.522,11.178 12.653,10.713c12.067,-0.696 20.75,-13.227 20.266,-24.795" style="fill-rule:nonzero;"/><path d="M34.322,2.594c0.117,0.472 0.297,0.947 0.37,1.439c0.096,0.489 0.195,0.983 0.219,1.475c0.021,0.247 0.042,0.492 0.063,0.733c-0.005,0.243 -0.01,0.482 -0.013,0.718c-0.009,0.236 0,0.472 -0.023,0.698c-0.031,0.227 -0.061,0.449 -0.091,0.664c-0.029,0.217 -0.057,0.429 -0.086,0.633c-0.043,0.202 -0.101,0.392 -0.148,0.578c-0.104,0.368 -0.177,0.718 -0.281,1.013c-0.118,0.291 -0.222,0.545 -0.307,0.754c-0.171,0.42 -0.269,0.662 -0.269,0.662c0,0 0.129,-0.225 0.356,-0.619c0.114,-0.198 0.252,-0.44 0.411,-0.717c0.145,-0.282 0.267,-0.623 0.425,-0.986c0.073,-0.183 0.16,-0.372 0.232,-0.573c0.058,-0.206 0.117,-0.418 0.178,-0.636c0.061,-0.222 0.123,-0.447 0.188,-0.68c0.057,-0.233 0.08,-0.478 0.123,-0.724c0.039,-0.249 0.077,-0.501 0.117,-0.756c0.013,-0.258 0.027,-0.519 0.039,-0.783c0.045,-0.531 0.013,-1.065 -0.018,-1.605c-0.009,-0.544 -0.128,-1.07 -0.188,-1.602c-0.108,-0.519 -0.205,-1.039 -0.343,-1.527c-0.046,-0.174 -0.097,-0.339 -0.147,-0.507c-0.568,0.027 -1.136,0.073 -1.704,0.141c0.135,0.276 0.268,0.561 0.395,0.861c0.187,0.426 0.337,0.884 0.502,1.346" style="fill-rule:nonzero;"/><path d="M40.858,2.921c0.187,0.427 0.337,0.884 0.502,1.346c0.117,0.472 0.298,0.947 0.37,1.439c0.096,0.49 0.195,0.982 0.219,1.475c0.021,0.246 0.042,0.491 0.063,0.734c-0.005,0.242 -0.009,0.482 -0.013,0.718c-0.009,0.236 0.001,0.472 -0.023,0.697c-0.031,0.227 -0.061,0.448 -0.09,0.664c-0.03,0.218 -0.059,0.429 -0.087,0.634c-0.043,0.2 -0.101,0.391 -0.147,0.577c-0.104,0.37 -0.178,0.718 -0.282,1.014c-0.118,0.29 -0.222,0.544 -0.306,0.753c-0.172,0.421 -0.27,0.662 -0.27,0.662c0,0 0.129,-0.226 0.356,-0.619c0.115,-0.198 0.253,-0.44 0.412,-0.716c0.144,-0.284 0.267,-0.624 0.424,-0.987c0.074,-0.183 0.16,-0.372 0.233,-0.573c0.057,-0.205 0.116,-0.418 0.177,-0.637c0.061,-0.221 0.123,-0.447 0.188,-0.678c0.057,-0.234 0.08,-0.477 0.123,-0.725c0.039,-0.247 0.077,-0.501 0.117,-0.756c0.013,-0.258 0.026,-0.52 0.04,-0.783c0.045,-0.53 0.012,-1.066 -0.019,-1.605c-0.009,-0.544 -0.128,-1.07 -0.188,-1.602c-0.108,-0.519 -0.205,-1.039 -0.342,-1.527c-0.161,-0.595 -0.346,-1.152 -0.538,-1.671c-0.752,-0.14 -1.493,-0.253 -2.225,-0.34c0.051,0.082 0.102,0.16 0.154,0.247c0.383,0.634 0.791,1.4 1.152,2.259" style="fill-rule:nonzero;"/><path d="M47.814,4.571c0.187,0.427 0.337,0.884 0.502,1.347c0.117,0.471 0.298,0.946 0.37,1.437c0.096,0.492 0.195,0.984 0.219,1.476c0.021,0.247 0.042,0.492 0.063,0.734c-0.005,0.243 -0.009,0.481 -0.013,0.718c-0.009,0.235 0.001,0.471 -0.023,0.698c-0.031,0.226 -0.061,0.448 -0.09,0.664c-0.03,0.216 -0.059,0.427 -0.087,0.633c-0.043,0.2 -0.101,0.39 -0.147,0.576c-0.104,0.37 -0.178,0.718 -0.282,1.014c-0.118,0.292 -0.222,0.546 -0.306,0.755c-0.172,0.42 -0.27,0.661 -0.27,0.661c0,0 0.129,-0.225 0.356,-0.619c0.115,-0.199 0.253,-0.439 0.412,-0.716c0.144,-0.284 0.267,-0.623 0.424,-0.986c0.074,-0.183 0.16,-0.372 0.233,-0.573c0.057,-0.206 0.116,-0.418 0.177,-0.638c0.061,-0.22 0.123,-0.447 0.188,-0.679c0.057,-0.232 0.08,-0.477 0.123,-0.723c0.039,-0.249 0.077,-0.501 0.117,-0.757c0.013,-0.258 0.026,-0.519 0.04,-0.783c0.045,-0.53 0.012,-1.066 -0.019,-1.605c-0.009,-0.544 -0.128,-1.07 -0.188,-1.602c-0.108,-0.519 -0.205,-1.038 -0.342,-1.527c-0.122,-0.45 -0.257,-0.878 -0.399,-1.285c-0.786,-0.32 -1.607,-0.615 -2.464,-0.886c0.082,0.13 0.167,0.264 0.254,0.407c0.383,0.634 0.791,1.401 1.152,2.259" style="fill-rule:nonzero;"/></svg>