<?xml version="1.0" encoding="UTF-8" standalone="no"?><!DOCTYPE svg PUBLIC "-//W3C//DTD SVG 1.1//EN" "http://www.w3.org/Graphics/SVG/1.1/DTD/svg11.dtd"><svg width="100%" height="100%" viewBox="0 0 194 285" version="1.1" xmlns="http://www.w3.org/2000/svg" xmlns:xlink="http://www.w3.org/1999/xlink" xml:space="preserve" style="fill-rule:evenodd;clip-rule:evenodd;stroke-linejoin:round;stroke-miterlimit:1.41421;"><path d="M191.962,139.098c3.335,-28.387 9.897,-132.3 -84.618,-138.837c-6.185,-0.432 -16.241,-0.325 -22.403,0.3c-94.344,9.519 -85.379,125.862 -83.057,137.94c7.122,63.525 1.544,115.3 -1.656,137.038c-0.9,6.131 0.928,6.887 4.338,1.709c4.346,-6.606 8.737,-13.259 12.462,-18.512c3.594,-5.044 7.963,-3.863 10.031,1.978c3.15,8.916 7.088,15.397 10.494,19.859c3.763,4.919 9.431,3.288 11.406,-2.584c1.622,-4.822 3.566,-10.669 5.285,-16.159c1.856,-5.91 4.147,-5.763 6.6,-0.082c2.397,5.538 5.787,11.366 10.256,18.531c3.275,5.257 7.509,4.701 9.572,-1.14c3.197,-9.028 6.759,-18.184 10.319,-26.894c2.343,-5.728 2.221,-14.925 -0.357,-20.562l-27.456,-60.057c-2.575,-5.634 -4.603,-10.787 -4.537,-11.509l0.125,-1.319c0.043,-0.459 1.156,-11.556 5.559,-22.762c8.991,-22.935 23.847,-26.35 31.903,-26.35c9.588,0 18.391,4.215 24.794,11.878c7.356,8.8 11.197,21.662 11.425,38.222c0,0 0,0.4 0.012,0.909c0,0.506 -0.131,1.297 -0.318,1.775l-0.329,0.853c-3.915,10.541 -25.734,59 -26.662,61.063c0,0 -1.884,4.19 -4.209,9.362c-2.329,5.166 -1.725,13.719 0.593,19.481c3.016,7.494 5.969,16.851 8.028,25.538c1.425,6.022 6.191,7.859 9.619,2.703c3.403,-5.103 6.116,-11.259 8.266,-17.356c2.053,-5.844 6.353,-6.669 9.125,-1.138c2.806,5.597 3.84,10.066 5.025,15.841c1.269,6.062 6.047,7.353 9.09,1.959c4.113,-7.262 6.654,-15.606 8.132,-22.112c1.397,-6.034 5.387,-7.366 9.515,-2.75c5.313,5.947 12.788,14.531 20.204,23.834c3.865,4.835 5.496,4.035 4.246,-2.034c-8.212,-40.194 -5.628,-97.584 -0.822,-138.616l0,0Z" style="fill-rule:nonzero;"/><path d="M70.753,87.342c-4.266,0 -7.725,-3.462 -7.725,-7.722c0,-4.269 3.459,-7.737 7.725,-7.737c4.259,0 7.722,3.468 7.722,7.737c0,4.26 -3.469,7.722 -7.722,7.722Z" style="fill:#fff;fill-rule:nonzero;"/><path d="M122.134,87.342c-4.262,0 -7.728,-3.462 -7.728,-7.722c0,-4.269 3.466,-7.737 7.728,-7.737c4.257,0 7.728,3.468 7.728,7.737c0,4.26 -3.471,7.722 -7.728,7.722Z" style="fill:#fff;fill-rule:nonzero;"/><path d="M118.372,170.279c2.431,-5.699 4.325,-15.421 3.415,-21.556c-3.34,-22.565 -15.762,-29.247 -25.559,-29.247c-15.616,0 -22.666,17.319 -25.669,29.247c-1.509,6.003 0.05,15.588 2.632,21.228l18.381,40.203c2.575,5.638 6.719,5.622 9.25,-0.031c4.884,-10.925 12.575,-28.218 17.55,-39.844l0,0Z" style="fill-rule:nonzero;"/></svg>