<?xml version="1.0" encoding="UTF-8" standalone="no"?><!DOCTYPE svg PUBLIC "-//W3C//DTD SVG 1.1//EN" "http://www.w3.org/Graphics/SVG/1.1/DTD/svg11.dtd"><svg width="100%" height="100%" viewBox="0 0 293 279" version="1.1" xmlns="http://www.w3.org/2000/svg" xmlns:xlink="http://www.w3.org/1999/xlink" xml:space="preserve" style="fill-rule:evenodd;clip-rule:evenodd;stroke-linejoin:round;stroke-miterlimit:1.41421;"><path d="M291.465,182.622c-1.215,-3.141 -3.568,-5.606 -6.609,-6.953l-22.815,-10.132c-3.441,-1.518 -7.563,-1.365 -10.876,0.394c-3.046,-1.459 -6.593,-1.84 -9.906,-1.031l-26.503,6.619l-4.216,-19.45c0.807,-0.082 1.638,-0.247 2.588,-0.507l28.131,-11.621c1.094,-0.275 2.369,-0.622 3.635,-1.047l0.743,0.347l0.622,0.256l27.475,-2.456c1.235,0.931 2.294,3.028 3.091,4.622c1.119,2.19 2.175,4.243 4.475,4.243c2.353,0 3.359,-2.281 3.793,-3.259c1.357,-3.078 1.435,-6.484 0.229,-9.594c-1.207,-3.122 -3.56,-5.59 -6.619,-6.956l-22.838,-10.128c-3.446,-1.494 -7.537,-1.356 -10.859,0.4c-3.059,-1.481 -6.644,-1.863 -9.891,-1.038l-29.606,7.388c-0.297,0.078 -0.6,0.162 -0.919,0.269l7.691,-5.441c1.822,-1.291 3.284,-3.041 4.241,-5.053c3.053,-2.038 5.159,-5.116 5.937,-8.678l2.678,-12.063c12.128,-23.544 13.113,-43.987 2.925,-60.74c-11.553,-19.022 -35.084,-27.197 -40.978,-27.197c-2.815,0 -3.397,1.887 -3.509,2.462c-0.544,2.819 2.715,4.116 5.097,5.072c5.656,2.272 9.497,5.735 11.415,10.288c3.431,8.221 -0.328,17.725 -0.328,17.725c-1.212,2.112 -2.269,2.112 -2.615,2.112c-3.788,0 -10.078,-7.913 -13.344,-13.541l-2.391,-4.103l-2.353,4.122c-4.844,8.485 -5.937,17.275 -3.269,26.113c4.275,14.137 16.885,24.334 22.691,28.409c-0.416,0.91 -0.731,1.847 -0.941,2.806l-2.762,12.432l-0.081,0.503l-10.479,7.431l-0.228,0.162c-1.818,-0.356 -3.534,-0.528 -5.253,-0.528l-63.009,0c-0.719,0 -1.428,0.032 -2.157,0.103c-0.903,-1.409 -2.021,-2.587 -3.356,-3.521l-10.509,-7.447l-0.091,-0.528l-2.762,-12.413c-0.216,-0.966 -0.535,-1.906 -0.941,-2.809c7.181,-5.113 34.985,-27.328 19.419,-54.529l-2.341,-4.121l-2.397,4.106c-3.262,5.622 -9.568,13.541 -13.356,13.541c-0.353,0 -1.384,0 -2.456,-1.807c-0.4,-1.012 -3.781,-10.096 -0.475,-18.022c1.915,-4.568 5.765,-8.034 11.409,-10.303c2.375,-0.947 5.635,-2.25 5.1,-5.072c-0.118,-0.578 -0.703,-2.459 -3.515,-2.459c-5.894,0 -29.407,8.181 -40.972,27.2c-10.194,16.766 -9.203,37.2 2.937,60.741l2.663,12.068c0.803,3.557 2.915,6.635 5.947,8.672c0.937,2.007 2.4,3.75 4.243,5.066l9.25,6.553l-0.234,0.488c-1.325,-0.86 -2.797,-1.507 -4.391,-1.913l-29.59,-7.362c-3.263,-0.825 -6.825,-0.454 -9.907,1.006c-3.324,-1.76 -7.462,-1.888 -10.881,-0.378l-22.794,10.112c-3.04,1.347 -5.371,3.794 -6.565,6.897c-1.238,3.2 -1.119,6.738 0.309,9.956c0.857,1.966 2.078,2.96 3.65,2.96c2.319,0 3.356,-2.044 4.5,-4.291c0.775,-1.553 1.832,-3.653 3.075,-4.581l27.291,2.459l0.209,0.013l0.647,-0.294l0.669,-0.328c1.075,0.375 2.231,0.709 3.287,0.931l28.872,11.878c1.5,0.385 3.082,0.513 4.703,0.372l-4.928,19.897l-28.281,-7.038c-3.278,-0.843 -6.85,-0.459 -9.919,0.997c-3.337,-1.734 -7.462,-1.872 -10.865,-0.39l-22.807,10.14c-3.087,1.369 -5.428,3.857 -6.609,7.007c-1.187,3.172 -1.056,6.668 0.35,9.853c0.853,1.972 2.072,2.959 3.644,2.959c2.34,0 3.384,-2.084 4.494,-4.306c0.734,-1.456 1.821,-3.625 3.09,-4.578l27.319,2.453l0.206,0.022l0.663,-0.307l0.634,-0.315c1.381,0.472 2.703,0.797 3.281,0.925l28.85,11.875c0.791,0.197 1.616,0.322 2.485,0.375c1.29,3.2 3.265,6.984 5.796,11.003l-17.328,10.409c-2.965,1.8 -5.131,4.466 -6.272,7.728c-3.634,1.138 -6.596,3.885 -7.971,7.422l-8.947,23.275c-1.228,3.132 -1.141,6.541 0.206,9.597c1.384,3.116 3.9,5.456 7.288,6.766c0.749,0.281 1.474,0.431 2.14,0.431c1.763,0 2.635,-1.019 2.86,-1.325c1.184,-1.637 0.571,-3.481 -0.203,-5.812c-0.519,-1.56 -1.291,-3.872 -1.047,-5.428l21.056,-17.597l0.165,-0.141l0.25,-0.703l0.207,-0.634c1.006,-0.491 2.022,-1.063 2.981,-1.651l22.897,-9.525c8.731,8.56 16.125,12.901 21.99,12.901l54.794,0c4.847,0 10.266,-2.985 16.125,-8.866l22.06,9.165c1.278,0.766 2.356,1.366 3.34,1.838l0.231,0.694l0.182,0.478l21.256,17.884c0.237,1.569 -0.528,3.881 -1.05,5.441c-0.763,2.331 -1.363,4.169 -0.188,5.797c0.366,0.525 1.222,1.375 2.788,1.375c0.7,0 1.422,-0.169 2.525,-0.594c6.459,-2.51 9.681,-9.797 7.181,-16.238l-8.95,-23.278c-1.372,-3.528 -4.325,-6.275 -7.969,-7.428c-1.128,-3.244 -3.34,-5.969 -6.268,-7.728l-18.319,-10.997c1.975,-3.65 3.665,-7.128 5.034,-10.381c1.485,0.078 2.869,-0.047 4.594,-0.519l28.144,-11.622c1.169,-0.3 2.428,-0.643 3.634,-1.062l0.653,0.315l0.65,0.297l27.513,-2.459c1.272,0.934 2.359,3.106 3.1,4.572c1.106,2.212 2.153,4.287 4.484,4.287c2.363,0 3.347,-2.268 3.785,-3.253c1.365,-3.069 1.453,-6.484 0.246,-9.606l0,0Z" style="fill-rule:nonzero;"/><path d="M121.325,111.331c3.447,0 6.244,2.794 6.244,6.244c0,3.447 -2.797,6.244 -6.244,6.244c-3.45,0 -6.244,-2.797 -6.244,-6.244c0,-3.45 2.794,-6.244 6.244,-6.244Z" style="fill-rule:nonzero;"/><path d="M121.325,111.331l0,1.563c2.584,0.003 4.675,2.097 4.681,4.681c-0.006,2.584 -2.097,4.675 -4.681,4.681c-2.588,-0.006 -4.678,-2.097 -4.681,-4.681c0.003,-2.584 2.093,-4.678 4.681,-4.681l0,-1.563l0,-1.562c-4.313,0 -7.806,3.494 -7.806,7.806c0,4.313 3.493,7.806 7.806,7.806c4.309,0 7.803,-3.493 7.806,-7.806c-0.003,-4.312 -3.497,-7.806 -7.806,-7.806l0,1.562Z" style="fill-rule:nonzero;"/><path d="M170.662,111.331c3.447,0 6.244,2.794 6.244,6.244c0,3.447 -2.797,6.244 -6.244,6.244c-3.45,0 -6.243,-2.797 -6.243,-6.244c0,-3.45 2.793,-6.244 6.243,-6.244Z" style="fill-rule:nonzero;"/><path d="M170.662,111.331l0,1.563c2.585,0.003 4.675,2.097 4.682,4.681c-0.007,2.584 -2.097,4.675 -4.682,4.681c-2.584,-0.006 -4.678,-2.097 -4.681,-4.681c0.003,-2.584 2.097,-4.678 4.681,-4.681l0,-1.563l0,-1.562c-4.312,0 -7.806,3.494 -7.806,7.806c0,4.313 3.494,7.806 7.806,7.806c4.313,0 7.803,-3.493 7.807,-7.806c-0.004,-4.312 -3.494,-7.806 -7.807,-7.806l0,1.562Z" style="fill-rule:nonzero;"/></svg>