<?xml version="1.0" encoding="UTF-8" standalone="no"?><!DOCTYPE svg PUBLIC "-//W3C//DTD SVG 1.1//EN" "http://www.w3.org/Graphics/SVG/1.1/DTD/svg11.dtd"><svg width="100%" height="100%" viewBox="0 0 233 283" version="1.1" xmlns="http://www.w3.org/2000/svg" xmlns:xlink="http://www.w3.org/1999/xlink" xml:space="preserve" style="fill-rule:evenodd;clip-rule:evenodd;stroke-linejoin:round;stroke-miterlimit:1.41421;"><path d="M176.412,50.894c5.966,6.75 11.156,14.069 15.566,21.957c3.787,6.793 10.519,8.034 15.1,1.75c15.309,-20.929 35.184,-58.322 20.625,-71.366c-12.831,-11.497 -38.45,10.175 -53.756,25.494c-5.504,5.5 -6.754,12.694 -3.394,15.987c1.984,1.96 3.947,4.013 5.859,6.178Z" style="fill-rule:nonzero;"/><path d="M210.456,235.076l-34.728,0.303l0,-0.01l-1.96,0.029l-0.018,0l-0.722,0.009c-0.525,-2.7 -1.113,-5.156 -1.447,-7.356c-0.847,-4.207 -1.409,-7.716 -1.744,-10.747l1.188,-0.503l33.697,-13.863c0.85,-0.347 1.525,-1.012 1.875,-1.859c0.35,-0.85 0.353,-1.794 0.009,-2.641c-0.538,-1.297 -1.794,-2.134 -3.197,-2.134c-0.459,0 -0.9,0.09 -1.316,0.253l-32.118,13.209l-0.003,-0.009l-0.444,0.184c0.194,-4.606 1.237,-8.2 2.903,-12.434c15.709,-28.356 24.866,-52.353 26.019,-70.722c10.631,-87.228 -50.019,-106.422 -83.263,-106.309c-94.594,4.256 -86.306,99.369 -86.306,99.369c2.209,22.409 16.394,50.534 24.066,67.196c6.084,12.791 7.831,19.132 7.175,24.51l-37.891,-13.941c-0.391,-0.147 -0.791,-0.225 -1.203,-0.225c-1.435,0 -2.738,0.909 -3.238,2.259c-0.653,1.782 0.263,3.775 2.047,4.429l38.347,14.109c-0.887,2.097 -1.991,4.384 -3.212,7.169c-1.497,3.353 -2.497,6.712 -3.097,10.003l-36.532,1.059c-1.9,0.056 -3.393,1.641 -3.343,3.544c0.053,1.875 1.565,3.359 3.44,3.359l0.082,0l35.646,-1.034c-0.131,6.278 1.1,12.191 3.11,17.369l-32.685,11.45c-1.793,0.628 -2.74,2.603 -2.115,4.397c0.484,1.381 1.79,2.306 3.256,2.306c0.378,0 0.763,-0.063 1.128,-0.194l33.4,-11.706c2.06,3.55 4.441,6.509 6.856,8.669c19.013,18.037 39.76,1.331 48.575,-7.619c19.719,22.206 38.988,14.472 47.266,8.037c3.416,-3.187 6.041,-6.309 8.072,-9.368l0.337,0.109l0.01,0.006l35.062,10.822c0.328,0.106 0.678,0.153 1.016,0.153c1.525,0 2.844,-0.981 3.291,-2.434c0.278,-0.875 0.184,-1.813 -0.244,-2.622c-0.431,-0.819 -1.156,-1.409 -2.031,-1.688l-33.185,-10.246l0.013,-0.01l-0.907,-0.272c2.647,-6.187 3.029,-11.962 2.6,-17.15l36.482,-0.312c0.928,-0.01 1.787,-0.381 2.431,-1.035c0.641,-0.656 0.981,-1.528 0.981,-2.44c0.031,-1.897 -1.512,-3.428 -3.431,-3.428l0,0Z" style="fill-rule:nonzero;"/><path d="M80.343,118.707c0,-4.256 3.46,-7.725 7.722,-7.725c4.263,0 7.722,3.469 7.722,7.725c0,4.259 -3.459,7.722 -7.722,7.722c-4.256,0 -7.722,-3.463 -7.722,-7.722Z" style="fill-rule:nonzero;"/><path d="M137.784,198.991l-0.116,0.225c-0.284,0.504 -0.581,1.025 -0.9,1.582c-5.368,9.474 -12.05,21.253 -22.7,21.565l-0.343,0c-2.85,0 -10.391,0 -22.978,-21.312c-3.854,-5.007 -6.954,-13.063 -3.657,-20.406c5.019,-11.144 19.803,-11.694 24.807,-11.85c0.309,-0.019 1.012,-0.044 1.975,-0.044c8.487,0 19.675,1.794 24.8,10.353c2.353,3.959 4.112,10.619 -0.888,19.887l0,0Z" style="fill-rule:nonzero;"/><path d="M142.1,126.429c-4.26,0 -7.719,-3.463 -7.719,-7.722c0,-4.256 3.459,-7.725 7.719,-7.725c4.265,0 7.725,3.469 7.725,7.725c0,4.259 -3.46,7.722 -7.725,7.722Z" style="fill-rule:nonzero;"/><path d="M112.281,178.366c-27.247,0.875 -13.619,17.263 -13.619,17.263c0,0 10.106,17.306 15.122,17.159c5.719,-0.156 11.856,-11.853 15.559,-18.319c9.5,-17.656 -17.062,-16.103 -17.062,-16.103l0,0Z" style="fill-rule:nonzero;"/><path d="M184.593,45.913c3.391,3.838 6.344,8 8.85,12.485c2.154,3.862 5.979,4.568 8.585,0.996c8.706,-11.9 20.009,-33.162 11.728,-40.581c-7.297,-6.537 -21.863,5.788 -30.566,14.494c-3.128,3.131 -3.84,7.219 -1.928,9.094c1.125,1.112 2.241,2.281 3.331,3.512Z" style="fill-rule:nonzero;"/><path d="M53.103,50.894c-5.622,6.75 -10.513,14.069 -14.666,21.957c-3.569,6.793 -9.906,8.034 -14.225,1.75c-14.422,-20.929 -33.15,-58.322 -19.431,-71.366c12.087,-11.497 36.222,10.175 50.644,25.494c5.184,5.5 6.362,12.694 3.2,15.987c-1.872,1.96 -3.719,4.013 -5.522,6.178Z" style="fill-rule:nonzero;"/><path d="M45.393,45.913c-3.193,3.838 -5.978,8 -8.337,12.485c-2.025,3.862 -5.634,4.568 -8.088,0.996c-8.203,-11.9 -18.85,-33.162 -11.05,-40.581c6.875,-6.537 20.6,5.788 28.797,14.494c2.947,3.131 3.619,7.219 1.819,9.094c-1.062,1.112 -2.116,2.281 -3.141,3.512Z" style="fill-rule:nonzero;"/></svg>