<?xml version="1.0" encoding="UTF-8" standalone="no"?><!DOCTYPE svg PUBLIC "-//W3C//DTD SVG 1.1//EN" "http://www.w3.org/Graphics/SVG/1.1/DTD/svg11.dtd"><svg width="100%" height="100%" viewBox="0 0 64 57" version="1.1" xmlns="http://www.w3.org/2000/svg" xmlns:xlink="http://www.w3.org/1999/xlink" xml:space="preserve" style="fill-rule:evenodd;clip-rule:evenodd;stroke-linejoin:round;stroke-miterlimit:1.41421;"><path d="M46.716,6.232c-1.195,0 -2.18,0.98 -2.18,2.191c0,1.201 0.985,2.182 2.18,2.182c1.206,0 2.186,-0.981 2.186,-2.182c0,-1.211 -0.98,-2.191 -2.186,-2.191" style="fill-rule:nonzero;"/><path d="M46.716,10.604c-1.195,0 -2.18,-0.98 -2.18,-2.181c0,-1.211 0.985,-2.191 2.18,-2.191c1.206,0 2.186,0.98 2.186,2.191c0,1.201 -0.98,2.181 -2.186,2.181m4.376,7.269c-0.021,-0.033 -1.213,-1.989 0.67,-3.906c2.034,-2.071 2.997,-2.946 3.099,-3.039l0.021,-0.038c-2.932,-3.111 -1.699,-7.771 -6.269,-9.915c-6.584,-3.094 -16.595,1.431 -14.939,9.962c0.384,2.007 3.681,5.961 3.87,6.928c-0.597,2.894 -3.043,4.235 -5.562,4.389c-7.503,0 -20.321,-1.171 -20.321,-1.171c-4.981,-4.981 -8.796,-3.737 -11.099,-3.883c-1.288,-0.076 -0.14,1.684 1.26,3.853c-0.776,0.11 -1.385,0.429 -1.661,0.98c-0.61,1.205 0.567,3.034 2.646,4.269c-0.09,0.089 -0.178,0.187 -0.239,0.298c-0.656,1.313 0.775,3.366 3.196,4.585c0.269,0.137 0.546,0.255 0.814,0.359c3.806,7.048 10.98,8.691 21.243,12.276l0.488,0.207l8.362,3.471c0.006,0.031 0.015,0.055 0.016,0.086l0.012,0.005c0,-0.034 -0.012,-0.058 -0.016,-0.091c7.576,0.989 17.139,-5.161 18.288,-12.205c1.371,-8.35 -5.304,-8.612 -3.879,-17.42" style="fill-rule:nonzero;"/><path d="M27.809,43.82l0.029,9.399c0,0 0.208,0.933 0.34,1.044c0.09,0.095 2.28,2.075 5.911,2.075c0.639,0 1.295,-0.072 1.944,-0.191c0.22,-0.043 0.4,-0.188 0.476,-0.393c0.084,-0.204 0.057,-0.434 -0.068,-0.614c-0.439,-0.616 -0.311,-0.928 -0.273,-1.022c0.273,-0.677 1.696,-1.142 2.327,-1.258c0.315,-0.054 0.54,-0.336 0.528,-0.658c-0.017,-0.318 -0.256,-0.585 -0.579,-0.619c-1.057,-0.097 -2.02,-0.46 -2.109,-0.674c0,0 0.008,-0.08 0.144,-0.241c0.141,-0.17 0.192,-0.411 0.114,-0.624c-0.076,-0.217 -0.25,-0.379 -0.467,-0.425c-0.434,-0.095 -0.989,-0.144 -1.594,-0.144c-0.239,0 -0.468,0.033 -0.708,0.049c0.003,-0.007 0.003,-0.016 0.009,-0.024c0.273,-0.673 1.687,-1.141 2.331,-1.254c0.312,-0.058 0.54,-0.34 0.525,-0.657c0,-0.001 -0.002,-0.003 -0.002,-0.005l-8.378,-3.557l-0.5,-0.207l0,0Z" style="fill-rule:nonzero;"/><path d="M28.309,44.028l8.378,3.556c-0.001,-0.031 -0.01,-0.055 -0.016,-0.087l-8.362,-3.469l0,0Z" style="fill-rule:nonzero;"/><path d="M54.882,10.909c0,0 -0.016,0.013 -0.02,0.019c-0.103,0.092 -1.065,0.968 -3.1,3.04c-1.883,1.917 -0.691,3.872 -0.67,3.906l0.001,0.003c5.021,3.527 13.049,-3.972 12.877,-5.822c-0.169,-1.84 -7.397,-0.992 -9.088,-1.146" style="fill-rule:nonzero;"/></svg>