<?xml version="1.0" encoding="UTF-8" standalone="no"?><!DOCTYPE svg PUBLIC "-//W3C//DTD SVG 1.1//EN" "http://www.w3.org/Graphics/SVG/1.1/DTD/svg11.dtd"><svg width="100%" height="100%" viewBox="0 0 328 301" version="1.1" xmlns="http://www.w3.org/2000/svg" xmlns:xlink="http://www.w3.org/1999/xlink" xml:space="preserve" style="fill-rule:evenodd;clip-rule:evenodd;stroke-linejoin:round;stroke-miterlimit:1.41421;"><path d="M314.367,276.079c-1.279,-5.165 9.043,-6.14 11.131,-22.571c2.1,-16.463 -11.119,-0.638 -11.119,-0.638c0,0 -9.675,11.131 -48.366,8.697c-35.643,-2.222 -78.143,-20.181 -76.709,-83.472c0.103,-4.159 1.416,-7.881 2.681,-8.387c1.269,-0.5 4.772,1.375 6.938,4.9c5.39,8.696 10.181,22.828 12.8,31.39c1.228,3.953 4.187,4.503 5.647,0.616c4.747,-12.928 1.275,-30.6 -2.072,-42.135c-1.134,-3.987 0.075,-9.003 2.753,-11.49c2.675,-2.491 6.769,-2.075 9.481,1.056c18.206,20.906 34.781,31.125 55.425,31.125c24.669,0 47.406,-7.737 41.606,-86.106c-5.815,-78.35 -39.678,-102.544 -65.781,-98.666c-16.834,2.488 -28.487,11 -34.622,16.744c-3.031,2.837 -5.118,5.744 -5.118,6.069c-0.007,0.3 -2.407,-1.813 -5.616,-4.444c-14.075,-11.513 -31.763,-18.366 -50.966,-18.366c-18.956,0 -36.418,6.672 -50.409,17.894c-3.234,2.597 -5.638,4.809 -5.65,4.65c0,-0.162 -2.075,-2.959 -5.097,-5.791c-6.147,-5.746 -17.791,-14.256 -34.619,-16.753c-26.1,-3.918 -59.956,20.275 -65.772,98.638c-5.796,78.359 16.938,86.1 41.607,86.1c20.547,0 37.075,-10.103 55.165,-30.806c2.728,-3.144 5.766,-4.744 6.963,-3.575c1.209,1.162 2.112,2.059 2.009,1.981c-0.097,-0.078 -1.428,2.987 -2.722,6.937c-3.54,10.894 -8.972,32.063 -3.522,46.922c1.435,3.891 4.419,3.36 5.629,-0.6c2.903,-9.456 8.475,-25.753 14.525,-33.94c2.453,-3.347 5.34,-1.454 5.212,2.693c-0.775,25.216 7.525,71.153 45.397,100.363c39.613,30.55 97.353,29.784 128.644,16.731c3.834,-1.606 9.79,-1.512 13.881,-0.775c2.512,0.447 5.719,0.713 9.703,0.5c11.597,-0.659 -7.744,-10.331 -9.037,-15.491l0,0Z" style="fill-rule:nonzero;"/><path d="M181.901,75.542c0,-6.628 5.378,-12.013 12.025,-12.013c6.622,0 12.003,5.385 12.003,12.013c0,6.631 -5.381,12.012 -12.003,12.012c-6.647,0 -12.025,-5.381 -12.025,-12.012l0,0Z" style="fill-rule:nonzero;"/><path d="M120.317,75.542c0,-6.628 5.378,-12.013 12.018,-12.013c6.622,0 12.003,5.385 12.003,12.013c0,6.631 -5.381,12.012 -12.003,12.012c-6.64,0 -12.018,-5.381 -12.018,-12.012l0,0Z" style="fill-rule:nonzero;"/><path d="M132.323,90.183c-4.041,0 -7.319,-3.279 -7.319,-7.322c0,-4.044 3.278,-7.319 7.319,-7.319c4.047,0 7.325,3.275 7.325,7.319c0,4.043 -3.278,7.322 -7.325,7.322Z" style="fill-rule:nonzero;"/><path d="M186.595,82.861c0,-4.044 3.278,-7.319 7.331,-7.319c4.034,0 7.309,3.275 7.309,7.319c0,4.043 -3.275,7.322 -7.309,7.322c-4.053,0 -7.331,-3.279 -7.331,-7.322Z" style="fill-rule:nonzero;"/><path d="M245.535,53.804c0,0 4.11,-33.787 30.8,-18.384c26.697,15.4 47.229,90.35 27.728,106.778c-19.512,16.425 -49.287,10.06 -53.393,-8.831c-4.11,-18.888 -5.135,-79.563 -5.135,-79.563l0,0Z" style="fill-rule:nonzero;"/><path d="M91.045,53.804c0,0 -3.956,-33.787 -29.656,-18.384c-25.704,15.4 -45.472,90.35 -26.691,106.778c18.778,16.425 47.453,10.06 51.403,-8.831c3.953,-18.888 4.944,-79.563 4.944,-79.563l0,0Z" style="fill-rule:nonzero;"/><path d="M104.648,151.173l10.494,-6.922l9.862,28.947c0,0 -9.834,9.075 -13.441,19.716c-3.612,10.64 -5.95,37.784 -13.415,3.925c0,0 -0.916,-19.094 6.5,-45.666l0,0Z" style="fill-rule:nonzero;"/><path d="M214.029,151.173l-12.303,-6.922l-11.556,28.947c0,0 11.525,9.075 15.759,19.716c4.231,10.64 6.966,37.784 15.719,3.925c0,0 1.072,-19.094 -7.619,-45.666l0,0Z" style="fill-rule:nonzero;"/></svg>