<?xml version="1.0" encoding="UTF-8" standalone="no"?><!DOCTYPE svg PUBLIC "-//W3C//DTD SVG 1.1//EN" "http://www.w3.org/Graphics/SVG/1.1/DTD/svg11.dtd"><svg width="100%" height="100%" viewBox="0 0 340 312" version="1.1" xmlns="http://www.w3.org/2000/svg" xmlns:xlink="http://www.w3.org/1999/xlink" xml:space="preserve" style="fill-rule:evenodd;clip-rule:evenodd;stroke-linejoin:round;stroke-miterlimit:1.41421;"><path d="M153.907,219.091c1.44,0 2.603,1.172 2.603,2.615c0,1.444 -1.163,2.607 -2.603,2.607c-1.444,0 -2.619,-1.163 -2.619,-2.607c0,-1.443 1.175,-2.615 2.619,-2.615Z" style="fill-rule:nonzero;"/><path d="M168.894,180.806c1.444,0 2.619,1.163 2.619,2.607c0,1.443 -1.175,2.618 -2.619,2.618c-1.44,0 -2.603,-1.175 -2.603,-2.618c0,-1.444 1.163,-2.607 2.603,-2.607Z" style="fill-rule:nonzero;"/><path d="M130.366,218.906c1.453,0 2.625,1.185 2.625,2.628c0,1.454 -1.172,2.629 -2.625,2.629c-1.444,0 -2.628,-1.175 -2.628,-2.629c0,-1.443 1.184,-2.628 2.628,-2.628Z" style="fill-rule:nonzero;"/><path d="M130.366,195.063c3.413,0 6.181,2.781 6.181,6.184c0,3.403 -2.768,6.178 -6.181,6.178c-3.403,0 -6.172,-2.775 -6.172,-6.178c0,-3.403 2.769,-6.184 6.172,-6.184Z" style="fill-rule:nonzero;"/><path d="M328.507,78.603c19.847,-23.603 -11.735,-7.34 -11.735,-7.34c9.603,-29.319 -10.515,-11.066 -10.515,-11.066c0.328,15.922 -6.407,19.562 -6.407,19.562c-29.353,35.888 -59.846,36.941 -59.846,36.941c0,0 -0.575,-5.634 -1.738,-14.05c18.819,-12.066 26.059,-36.312 26.059,-36.312c6.975,-23.329 19.185,-23.638 19.185,-23.638c48.997,-18.437 1.778,-14.45 1.778,-14.45c25.697,-42.594 -11.425,-9.047 -11.425,-9.047c-12.588,-40.169 -14.394,-4.85 -14.394,-4.85c8.563,40.119 -14.175,66.128 -23.24,74.706c-1.594,-9.34 -3.672,-19.887 -6.266,-29.575c-7.013,-25.806 -29.263,-12.696 -48.706,-4.381c-19.432,8.328 -27.157,23.81 -19.566,28.647c7.628,4.806 10.278,12.919 11.641,34.797c1.397,21.872 -35.763,41.309 -53.875,50.016c-18.135,8.7 -65.825,6.612 -72.719,5.809c-6.9,-0.841 -8.853,-5.044 -8.853,-5.044c-8.95,-12.525 -10.722,1.878 -10.722,1.878l3.928,8.544c-71.822,14.444 3.284,11.713 3.284,11.713c-33.306,27.353 7.413,7.3 7.413,7.3c-0.241,-8.56 32.419,-11.547 32.419,-11.547c51.043,-6.819 45.95,41.412 45.95,41.412c-24.753,62.088 -75.953,43.435 -75.953,43.435c-34.104,1.675 -1.757,14.437 -1.757,14.437c-43.278,22.956 7.088,12.288 7.088,12.288c-19.081,24.237 10.765,5.493 10.765,5.493c6.9,-9.834 21.463,-17.915 21.463,-17.915c163.584,-79.678 164.753,-149.922 164.753,-149.922c45.609,-16.625 48.134,-26.866 55.822,-35.588c7.653,-8.718 22.319,-5.775 22.319,-5.775c32.109,-2.581 3.85,-16.478 3.85,-16.478l0,0Z" style="fill-rule:nonzero;"/><path d="M201.982,106.766c-10.85,1.903 -21.316,-5.882 -23.335,-17.394c-2.022,-11.525 5.166,-22.422 16.013,-24.325c10.85,-1.903 21.331,5.9 23.353,17.419c2.019,11.512 -5.169,22.393 -16.031,24.3Z" style="fill:#1d1818;fill-rule:nonzero;"/><path d="M198.863,69.666c6.847,-1.197 13.384,3.372 14.584,10.218c1.203,6.844 -3.384,13.388 -10.231,14.591c-6.85,1.203 -13.372,-3.387 -14.572,-10.237c-1.2,-6.85 3.369,-13.366 10.219,-14.572Z" style="fill:#756565;fill-rule:nonzero;"/><path d="M226.81,108.45c0.784,4.475 -2.203,8.734 -6.681,9.519c-4.475,0.784 -8.735,-2.2 -9.519,-6.675c-0.788,-4.478 2.2,-8.738 6.678,-9.525c4.475,-0.781 8.734,2.206 9.522,6.681l0,0Z" style="fill-rule:nonzero;"/></svg>