<?xml version="1.0" encoding="UTF-8" standalone="no"?><!DOCTYPE svg PUBLIC "-//W3C//DTD SVG 1.1//EN" "http://www.w3.org/Graphics/SVG/1.1/DTD/svg11.dtd"><svg width="100%" height="100%" viewBox="0 0 236 308" version="1.1" xmlns="http://www.w3.org/2000/svg" xmlns:xlink="http://www.w3.org/1999/xlink" xml:space="preserve" style="fill-rule:evenodd;clip-rule:evenodd;stroke-linejoin:round;stroke-miterlimit:1.41421;"><path d="M199.942,49.79c-15.219,-9.062 -32.222,0.935 -45.063,6.022c-12.831,5.103 -15.168,2.025 -15.168,2.025c0,0 -5.419,-6.694 -8.985,-10.228c2.313,-4.281 4.847,-8.806 7.647,-13.587c3.506,-5.991 6.362,-10.841 6.216,-10.922c-0.154,-0.078 3.165,0.575 6.743,-1.182c2.113,-1.031 3.913,-2.709 5.097,-4.946c2.991,-5.641 0.834,-12.635 -4.803,-15.619c-5.628,-2.997 -12.647,-0.847 -15.625,4.794c-1.178,2.231 -1.55,4.646 -1.247,6.978c0.556,3.947 2.956,6.331 2.778,6.234c-0.172,-0.097 -2.675,4.947 -5.781,11.159c-1.825,3.663 -4.069,8 -6.597,12.716c-2.747,-1.631 -5.603,-2.531 -8.528,-2.531c-3.691,0 -7.275,1.412 -10.697,3.956c-2.856,-5.25 -5.353,-10.1 -7.375,-14.141c-3.106,-6.212 -5.603,-11.256 -5.772,-11.159c-0.178,0.1 2.225,-2.278 2.763,-6.234c0.331,-2.319 -0.053,-4.747 -1.231,-6.978c-2.985,-5.641 -9.988,-7.791 -15.625,-4.794c-5.653,2.984 -7.794,9.978 -4.797,15.619c1.184,2.24 2.984,3.915 5.078,4.946c3.581,1.757 6.919,1.104 6.762,1.182c-0.159,0.081 2.691,4.931 6.2,10.922c3.247,5.528 6.141,10.712 8.71,15.562c-2.247,2.544 -4.388,5.559 -6.431,8.95l0.193,-0.697c0,0 -2.331,3.075 -15.172,-2.025c-12.837,-5.09 -29.84,-15.087 -45.068,-6.009c-13.257,7.903 -27.785,14.175 -33.563,25.606c-1.425,2.813 -0.203,7.284 2.472,8.947c2.481,1.534 5.994,3.112 10.534,3.716c9.966,1.334 16.253,8.45 26.213,9.781c9.962,1.325 26.715,-1.266 31.612,-5.431c3.863,-3.275 8.197,-10.075 13.188,-13.079c-5.785,16.054 -9.703,34.997 -10.969,52.585c-0.219,3.15 1.906,4.437 4.769,3.131c8.287,-3.809 19.603,-7.131 33.922,-7.131c0.312,0 0.612,0 0.922,0.003c17.109,0.162 31.6,5.462 41.737,10.647c2.8,1.437 4.969,0.178 4.809,-2.978c-0.959,-18.797 -5.09,-39.544 -11.403,-56.857c5.457,2.604 10.135,10.157 14.272,13.679c4.906,4.165 21.659,6.756 31.616,5.431c9.953,-1.331 16.253,-8.447 26.215,-9.781c9.947,-1.325 14.954,-7.304 14.954,-7.304c-3.463,-14.987 -20.307,-21.912 -35.522,-30.978l0,0Z" style="fill-rule:nonzero;"/><path d="M128.464,96.125c-4.5,0 -8.15,-3.65 -8.15,-8.153c0,-4.5 3.65,-8.16 8.15,-8.16c4.503,0 8.159,3.66 8.159,8.16c0,4.503 -3.656,8.153 -8.159,8.153Z" style="fill-rule:nonzero;"/><path d="M103.248,96.125c-4.497,0 -8.153,-3.65 -8.153,-8.153c0,-4.5 3.656,-8.16 8.153,-8.16c4.506,0 8.156,3.66 8.156,8.16c0,4.503 -3.65,8.153 -8.156,8.153Z" style="fill-rule:nonzero;"/><path d="M127.576,181.2c-9.928,2.037 -19.078,1.022 -24.616,-0.069c-3.1,-0.603 -5.253,1.166 -5.181,4.322c0.185,7.919 -0.09,22.131 -0.572,38.053l0.072,0.491c0.05,0.275 0,3.043 -0.134,6.19c-0.506,12.26 -1.238,30.563 -1.794,46.094c-0.025,0.131 -0.416,16.503 -0.628,25.453c-0.069,3.153 2.422,5.703 5.578,5.703l26.872,0c3.163,0 5.709,-0.647 5.703,-1.44l-0.012,-1.438c-0.103,-12.512 -0.038,-85.766 -0.013,-111.153c0.006,-3.156 0.031,-5.847 0.084,-6.031l0.057,-0.303c0.012,-0.575 0.018,-1.1 0.018,-1.616c0.047,-3.147 -2.343,-4.894 -5.434,-4.256l0,0Z" style="fill-rule:nonzero;"/><path d="M106.598,272.8c-2.691,1.65 -5.363,-1.36 -5.253,-4.5c0.422,-11.157 0.89,-22.91 1.275,-32.388c0.128,-3.147 2.765,-5.15 5.59,-3.747c6.257,3.103 11.794,9.378 8.576,22.069c-2.563,10.172 -6.219,16.138 -10.188,18.566Z" style="fill-rule:nonzero;"/><path d="M127.388,219.49c-0.006,3.157 -2.446,4.76 -4.781,2.635c-3.709,-3.391 -6.218,-8.782 -5.362,-16.816c0.537,-5.166 2.697,-8.544 5.272,-10.741c2.387,-2.04 4.897,-0.328 4.89,2.832c0,6.14 -0.019,13.768 -0.019,22.09l0,0Z" style="fill-rule:nonzero;"/><path d="M155.61,68.981c0,0 24.532,-17.531 45.901,-2.009l8.696,4.018c0,0 -32.793,24.985 -54.597,-2.009Z" style="fill-rule:nonzero;"/><path d="M27.395,72.662c0,0 21.953,-20.665 45.212,-8.147l9.163,2.81c0,0 -29.144,29.159 -54.375,5.337l0,0Z" style="fill-rule:nonzero;"/><path d="M103.248,96.534c-2.363,0 -4.278,-1.912 -4.278,-4.281c0,-2.36 1.915,-4.281 4.278,-4.281c2.362,0 4.284,1.921 4.284,4.281c0,2.369 -1.922,4.281 -4.284,4.281Z" style="fill-rule:nonzero;"/><path d="M128.464,96.534c-2.363,0 -4.282,-1.912 -4.282,-4.281c0,-2.36 1.919,-4.281 4.282,-4.281c2.365,0 4.284,1.921 4.284,4.281c0,2.369 -1.919,4.281 -4.284,4.281Z" style="fill-rule:nonzero;"/><path d="M155.392,138.818c-8.766,-5.175 -23.675,-11.987 -41.597,-12.159l-0.813,-0.012c-15.806,0 -27.19,4.578 -34.172,8.631c-2.728,1.575 -4.643,5.684 -4.303,8.812c3.594,32.819 21.363,41.675 42.772,41.675c20.606,0 37.819,-8.275 42.275,-38.231c0.463,-3.119 -1.44,-7.122 -4.162,-8.716l0,0Z" style="fill-rule:nonzero;"/><path d="M110.342,162.034l-0.716,0.113c-2.741,0 -4.797,-4.885 -6.059,-8.994c-1.375,-4.578 -2.388,-10.219 0.665,-11.144l0.694,-0.103c2.741,0 4.803,4.887 6.05,8.997c1.391,4.569 2.416,10.209 -0.634,11.131l0,0Z" style="fill-rule:nonzero;"/><path d="M130.848,152.309c-1.147,4.166 -3.088,9.153 -5.866,9.153l-0.634,-0.084c-3.075,-0.85 -2.216,-6.516 -0.953,-11.116c1.156,-4.184 3.109,-9.156 5.872,-9.156l0.634,0.084c3.078,0.85 2.216,6.503 0.947,11.119l0,0Z" style="fill-rule:nonzero;"/></svg>