<?xml version="1.0" encoding="UTF-8" standalone="no"?><!DOCTYPE svg PUBLIC "-//W3C//DTD SVG 1.1//EN" "http://www.w3.org/Graphics/SVG/1.1/DTD/svg11.dtd"><svg width="100%" height="100%" viewBox="0 0 79 62" version="1.1" xmlns="http://www.w3.org/2000/svg" xmlns:xlink="http://www.w3.org/1999/xlink" xml:space="preserve" style="fill-rule:evenodd;clip-rule:evenodd;stroke-linejoin:round;stroke-miterlimit:1.41421;"><path d="M36.369,30.822c0,2.09 -1.694,3.784 -3.783,3.784c-2.091,0 -3.786,-1.694 -3.786,-3.784c0,-2.091 1.695,-3.785 3.786,-3.785c2.089,0 3.783,1.694 3.783,3.785" style="fill-rule:nonzero;"/><path d="M49.646,30.822c0,2.09 -1.694,3.784 -3.784,3.784c-2.09,0 -3.785,-1.694 -3.785,-3.784c0,-2.091 1.695,-3.785 3.785,-3.785c2.09,0 3.784,1.694 3.784,3.785" style="fill-rule:nonzero;"/><path d="M10.554,25.226c-0.904,1.716 -1.152,4.797 0,6.983c0.78,1.487 2.106,2.379 3.818,2.582c0,0 0.073,0.008 0.159,0.019c0.09,0.011 0.175,-0.052 0.191,-0.14l0.026,-0.159c0.408,-2.405 1.348,-4.797 2.792,-7.098l0.091,-0.136c0.934,-1.331 1.857,-2.433 2.808,-3.37c0,0 0.051,-0.048 0.11,-0.109c0.061,-0.057 0.067,-0.16 0.01,-0.227l-0.099,-0.119c-1.175,-1.421 -2.84,-2.268 -4.445,-2.268c-1.457,0.001 -3.59,0.7 -5.461,4.042" style="fill-rule:nonzero;"/><path d="M63.736,33.214c0.085,0.441 0.149,0.909 0.198,1.39c0,0 0.009,0.079 0.019,0.18c0.011,0.097 0.098,0.166 0.194,0.151l0.175,-0.027c1.658,-0.249 2.928,-1.158 3.681,-2.634c1.1,-2.177 0.848,-5.226 -0.044,-6.919c-1.868,-3.334 -4.001,-4.031 -5.46,-4.031c-1.436,0 -2.926,0.681 -4.085,1.868c0,0 -0.051,0.052 -0.117,0.118c-0.066,0.065 -0.066,0.171 0,0.237l0.117,0.117c2.901,2.977 4.695,6.191 5.322,9.55" style="fill-rule:nonzero;"/><path d="M45.943,35.166c-1.128,0 -2.053,-0.919 -2.053,-2.049c0,-1.128 0.925,-2.05 2.053,-2.05c1.128,0 2.052,0.922 2.052,2.05c0,1.13 -0.924,2.049 -2.052,2.049m-6.243,16.136c-3.565,0 -6.345,-2.256 -6.345,-5.144c0,-2.885 2.784,-5.147 6.345,-5.147c3.554,0 6.34,2.262 6.34,5.147c0.003,2.888 -2.786,5.144 -6.34,5.144m-9.142,-17.79c-0.047,-0.179 -0.074,-0.362 -0.074,-0.557c0,-1.146 0.931,-2.077 2.077,-2.077c1.148,0 2.077,0.931 2.077,2.077c0,0.113 -0.01,0.221 -0.025,0.332c-0.09,1.05 -0.975,1.879 -2.043,1.879c-0.993,0 -1.825,-0.713 -2.012,-1.654m24.8,-8.882c-4.419,-4.232 -15.804,-3.198 -15.804,-3.198c-11.755,0.471 -15.33,1.414 -19.609,7.481c-5.715,9.099 -0.742,16.186 2.009,18.939c3.28,3.598 14.955,13.813 18.234,13.791c3.176,-0.141 10.89,-7.666 13.521,-10.582c13.498,-14.44 5.278,-22.956 1.649,-26.431" style="fill-rule:nonzero;"/><path d="M39.696,43.651c2.046,0 3.705,1.122 3.705,2.507c0,1.383 -1.659,2.505 -3.705,2.505c-2.044,0 -3.703,-1.122 -3.703,-2.505c0,-1.385 1.659,-2.507 3.703,-2.507" style="fill-rule:nonzero;"/><path d="M77.332,31.807c-1.014,-0.805 -1.547,-1.386 -1.109,-1.543c0.514,-0.181 0.561,-0.376 0.595,-0.525c0.08,-0.31 0.28,-1.132 -5.426,-3.817c0,0 -0.07,-0.033 -0.159,-0.076c-0.084,-0.041 -0.138,-0.082 -0.116,-0.093l0.043,-0.018c2.958,-1.252 3,-1.727 3.014,-1.981c0.031,-0.346 0.082,-0.928 -4.954,-2.029c0,0 -0.175,-0.038 -0.388,-0.087c-0.213,-0.046 -0.354,-0.122 -0.308,-0.166l0.079,-0.082c2.837,-2.968 2.479,-3.511 2.314,-3.769c-0.195,-0.292 -0.59,-0.328 -0.867,-0.328c-1.235,0 -3.805,0.816 -5.231,1.295c0,0 -0.184,0.064 -0.416,0.142c-0.228,0.078 -0.402,0.115 -0.387,0.087l0.025,-0.056c2.036,-3.776 1.862,-4.311 1.481,-4.563c-0.077,-0.045 -0.159,-0.067 -0.257,-0.067c-0.136,0 -0.423,-0.127 -2.026,0.74c-1.056,0.575 -1.295,0.053 -0.626,-1.285c1.805,-3.612 1.494,-3.925 1.336,-4.075c-0.059,-0.061 -0.17,-0.131 -0.346,-0.131c-0.896,0 -4.478,2.497 -5.551,3.265c0,0 -0.017,0.013 -0.032,0.026c-0.021,0.012 -0.048,0.045 -0.06,0.071c-0.015,0.028 0.179,-0.389 0.362,-0.959c0.247,-0.774 0.128,-0.919 0.031,-1.03c-0.084,-0.103 -0.219,-0.162 -0.373,-0.162c-0.266,0 -0.764,0.262 -1.384,0.678c-0.712,0.478 -0.863,-0.231 -0.415,-1.655c0.697,-2.212 1.374,-4.621 1.098,-4.873c-0.309,-0.283 -2.237,1.425 -3.869,2.971c-1.083,1.029 -1.825,1.336 -1.759,0.646c0.095,-0.998 -0.059,-1.101 -0.185,-1.186c-0.069,-0.045 -0.149,-0.067 -0.231,-0.067c-0.224,0 -0.538,0.001 -2.384,2.486c-0.892,1.2 -1.449,0.995 -1.316,-0.493c0.304,-3.406 0.583,-7.716 0.07,-7.84c-0.521,-0.126 -2.609,3.954 -4.126,7.09c-0.652,1.346 -1.296,1.671 -1.471,0.717c-0.105,-0.582 -0.212,-1.161 -0.319,-1.725c-1.393,-7.34 -1.786,-7.34 -2.174,-7.34c-0.383,0 -0.682,0 -2.298,7.571c-0.108,0.51 -0.221,1.035 -0.329,1.559c-0.179,0.863 -0.847,0.47 -1.515,-0.866c-1.544,-3.068 -3.784,-7.321 -4.323,-7.184c-0.531,0.133 -0.15,4.596 0.207,7.923c0.161,1.486 -0.386,1.696 -1.29,0.506c-1.923,-2.538 -2.241,-2.54 -2.467,-2.54c-0.089,0 -0.166,0.025 -0.238,0.069c-0.121,0.084 -0.364,0.181 -0.397,1.049c-0.025,0.647 -0.807,0.311 -1.896,-0.711c-1.612,-1.513 -3.278,-2.952 -3.549,-2.698c-0.271,0.254 0.495,2.729 1.269,4.978c0.487,1.413 0.333,2.091 -0.426,1.592c-0.658,-0.436 -1.186,-0.711 -1.463,-0.711c-0.206,0 -0.328,0.105 -0.374,0.166c-0.099,0.114 -0.231,0.273 0.118,1.226c0.241,0.664 -0.513,0.513 -1.781,-0.278c-1.723,-1.074 -3.499,-2.096 -3.712,-1.887c-0.227,0.229 1.035,2.697 2.246,4.937c0.715,1.312 0.313,1.683 -0.955,0.889c-1.519,-0.953 -2.451,-1.433 -2.782,-1.433c-0.101,0 -0.19,0.028 -0.262,0.077c-0.371,0.247 -0.542,0.768 1.424,4.351c0,0 0.026,0.044 0.053,0.1c0.03,0.055 0.109,0.092 0.172,0.082l0.115,-0.015c0.321,-0.043 0.644,-0.067 0.953,-0.067c2.336,0 4.713,1.187 6.359,3.172c0,0 0.051,0.059 0.11,0.133c0.059,0.07 0.166,0.09 0.238,0.044l0.129,-0.084c0.379,-0.247 0.721,-0.453 1.038,-0.624l0.478,-0.26l0.764,-0.348l0.277,-0.112c1.083,-0.438 2.29,-0.786 3.688,-1.065l0.934,-0.171c1.224,-0.202 2.615,-0.366 4.253,-0.49c0,0 0.155,-0.016 0.348,-0.035c0.191,-0.019 0.439,-0.027 0.562,-0.031c0.108,-0.006 0.216,-0.011 0.216,-0.011c1.134,-0.076 2.394,-0.137 3.972,-0.2c0.334,-0.028 1.549,-0.119 3.204,-0.119c0.202,0 0.415,0.004 0.62,0.005c0,0 0.052,0 0.119,0.001c0.068,0.003 0.325,0.02 0.581,0.025c0.225,0.005 0.456,0.008 0.456,0.008c1.651,0.063 3.205,0.22 4.626,0.462c0,0 0.072,0.013 0.156,0.029c0.084,0.016 0.291,0.051 0.459,0.082c0.152,0.03 0.306,0.061 0.306,0.061c1.402,0.29 2.681,0.68 3.805,1.149c0,0 0.063,0.027 0.14,0.061c0.081,0.032 0.209,0.089 0.296,0.13c0.076,0.037 0.155,0.075 0.155,0.075c0.082,0.039 0.168,0.082 0.254,0.121c0,0 0.039,0.02 0.084,0.043c0.051,0.025 0.245,0.11 0.421,0.213c0.159,0.092 0.317,0.19 0.317,0.19c0.219,0.126 0.441,0.271 0.708,0.457c0,0 0.053,0.038 0.12,0.084c0.065,0.042 0.185,0.01 0.268,-0.079l0.153,-0.155c1.622,-1.662 3.761,-2.619 5.867,-2.619c0.387,0 0.79,0.035 1.194,0.106c0,0 0.054,0.01 0.121,0.021c0.068,0.014 0.325,0.053 0.569,0.13c0.22,0.07 0.439,0.144 0.439,0.144c1.198,0.417 2.308,1.142 3.3,2.162c0,0 0.053,0.056 0.122,0.125c0.068,0.071 0.247,0.258 0.39,0.432c0.131,0.159 0.254,0.319 0.254,0.319c0.444,0.56 0.862,1.19 1.243,1.866l0.03,0.068c0.207,0.389 0.39,0.835 0.547,1.326c0,0 0.023,0.08 0.054,0.178c0.033,0.099 0.081,0.27 0.11,0.388c0.024,0.105 0.048,0.213 0.048,0.213c0.314,1.333 0.379,2.751 0.204,4.096c0,0 -0.011,0.067 -0.024,0.149c-0.009,0.083 -0.03,0.205 -0.045,0.276c-0.014,0.065 -0.027,0.13 -0.027,0.13c-0.051,0.273 -0.122,0.562 -0.209,0.881c0,0 -0.016,0.048 -0.031,0.106c-0.018,0.06 -0.057,0.196 -0.093,0.3c-0.035,0.093 -0.069,0.189 -0.069,0.189c-0.128,0.36 -0.264,0.68 -0.412,0.966c-0.526,1.041 -1.249,1.909 -2.14,2.58c0,0 -0.067,0.05 -0.148,0.111c-0.078,0.063 -0.393,0.249 -0.702,0.417c-0.31,0.168 -0.56,0.33 -0.564,0.362c-0.007,0.031 -0.036,0.043 -0.071,0.027c-0.031,-0.02 -0.088,-0.02 -0.133,-0.001l-0.072,0.029c-0.536,0.211 -1.116,0.359 -1.701,0.448c0,0 -0.167,0.025 -0.369,0.054c-0.204,0.031 -0.378,0.112 -0.387,0.185l-0.015,0.132c-0.108,1.08 -0.332,2.171 -0.652,3.252c-1.157,3.881 -3.647,7.886 -7.469,11.975c-0.101,0.112 -0.204,0.226 -0.312,0.346c-0.177,0.193 0.888,0.205 2.328,-0.198c7.431,-2.09 12.082,-8.257 12.491,-11.101c0.003,-0.018 0.007,-0.036 0.008,-0.053c0.004,-0.029 0.151,-0.052 0.333,-0.05c0.113,0.001 0.223,0.003 0.329,0.003c0.499,0 0.885,-0.013 1.186,-0.041c0.651,-0.059 1.064,-0.548 1.042,-0.683c-0.02,-0.135 1.037,-0.154 2.432,-0.109c1.447,0.045 2.48,0.03 2.507,-0.102c0.029,-0.151 -0.619,-0.83 -1.499,-1.675c-0.904,-0.868 -1.37,-1.524 -1.033,-1.596c0.264,-0.056 0.429,-0.155 0.521,-0.309c0.133,-0.203 0.285,-0.438 -0.766,-1.511c-0.703,-0.72 -0.255,-1.273 1.055,-1.466c1.112,-0.163 2.019,-0.415 2.197,-0.803c0.079,-0.165 0.269,-0.591 -1.275,-1.814" style="fill-rule:nonzero;"/><path d="M21.797,51.711c-0.767,-0.739 -1.407,-1.39 -1.883,-1.908c-1.036,-1.044 -2.66,-2.942 -3.857,-5.547c-0.626,-1.355 -0.957,-2.619 -0.981,-2.723c-0.026,-0.093 -0.046,-0.188 -0.046,-0.188c-0.322,-1.249 -0.497,-2.525 -0.517,-3.795c0,0 -0.003,-0.067 -0.003,-0.144c-0.002,-0.081 -0.166,-0.152 -0.366,-0.164l-0.365,-0.023c-0.558,-0.085 -1.096,-0.23 -1.598,-0.421c0,0 -0.031,-0.01 -0.072,-0.026c-0.042,-0.015 -0.288,-0.121 -0.544,-0.243c-0.254,-0.126 -0.579,-0.301 -0.716,-0.397c-0.13,-0.087 -0.255,-0.18 -0.255,-0.18c-0.931,-0.658 -1.691,-1.53 -2.245,-2.586c-0.164,-0.308 -0.305,-0.644 -0.451,-1.026c-0.025,-0.099 -0.118,-0.42 -0.208,-0.75c-0.117,-0.416 -0.224,-0.825 -0.238,-0.917l-0.026,-0.169c-0.22,-1.382 -0.172,-2.843 0.137,-4.225l0.061,-0.283l0.081,-0.271c0.174,-0.623 0.395,-1.186 0.642,-1.662l0.035,-0.069c0.35,-0.619 0.73,-1.202 1.127,-1.722c0,0 0.116,-0.144 0.252,-0.325c0.14,-0.179 0.318,-0.37 0.384,-0.44c0.065,-0.064 0.127,-0.128 0.127,-0.128c0.461,-0.488 0.945,-0.914 1.454,-1.272c0.875,-0.616 2.027,-0.997 2.43,-1.093c0.406,-0.094 0.401,-0.237 -0.01,-0.318c-0.41,-0.083 -1.833,-0.516 -3.214,-0.87c-0.963,-0.249 -1.916,-0.441 -2.537,-0.441c-0.294,0 -0.702,0.034 -0.894,0.333c-0.249,0.393 -0.175,1.136 2.28,3.664c0,0 0.038,0.039 0.086,0.087c0.048,0.049 -0.091,0.129 -0.306,0.177l-0.392,0.088c-5.323,1.204 -5.265,1.825 -5.234,2.161c0.023,0.195 0.055,0.522 1.413,1.212c0.949,0.48 0.662,1.291 -0.651,2.004c-3.486,1.894 -3.313,2.553 -3.252,2.794c0.044,0.161 0.103,0.392 0.863,0.593c0.591,0.155 0.231,0.762 -0.769,1.535c-0.901,0.702 -1.646,1.378 -1.526,1.633c0.105,0.228 1.053,0.446 2.191,0.636c1.256,0.204 1.615,0.875 0.868,1.644c-1.136,1.162 -0.979,1.404 -0.842,1.609c0.15,0.244 0.483,0.356 1.078,0.356c0.037,0 0.083,-0.001 0.128,-0.004c0.072,-0.002 -0.665,0.67 -1.611,1.546c-0.879,0.812 -1.593,1.533 -1.554,1.715c0.039,0.206 0.827,0.058 1.936,-0.169c1.082,-0.215 1.566,-0.211 1.407,0.212c-0.159,0.422 0.71,1.07 1.397,1.162c0.317,0.041 0.727,0.068 1.246,0.065c0.179,0 0.369,-0.003 0.572,-0.009c0.318,-0.01 0.903,1.159 1.695,2.425c2.041,3.257 6.521,7.37 12.709,8.607c1.466,0.293 2.648,0.283 2.601,0.21c-0.046,-0.068 -0.973,-0.931 -2.037,-1.96" style="fill-rule:nonzero;"/></svg>