<?xml version="1.0" encoding="UTF-8" standalone="no"?><!DOCTYPE svg PUBLIC "-//W3C//DTD SVG 1.1//EN" "http://www.w3.org/Graphics/SVG/1.1/DTD/svg11.dtd"><svg width="100%" height="100%" viewBox="0 0 213 286" version="1.1" xmlns="http://www.w3.org/2000/svg" xmlns:xlink="http://www.w3.org/1999/xlink" xml:space="preserve" style="fill-rule:evenodd;clip-rule:evenodd;stroke-linejoin:round;stroke-miterlimit:1.41421;"><path d="M190.945,137.019c0,46.9 -38.019,84.919 -84.919,84.919c-46.903,0 -84.922,-38.019 -84.922,-84.919c0,-46.897 38.019,-84.916 84.922,-84.916c46.9,0 84.919,38.019 84.919,84.916Z" style="fill-rule:nonzero;"/><path d="M97.204,60.182c0,25.759 -20.878,46.64 -46.638,46.64c-25.759,0 -46.637,-20.881 -46.637,-46.64c0,-25.757 20.878,-46.638 46.637,-46.638c25.76,0 46.638,20.881 46.638,46.638Z" style="fill-rule:nonzero;"/><path d="M199.588,60.182c0,25.759 -20.881,46.64 -46.64,46.64c-25.757,0 -46.638,-20.881 -46.638,-46.64c0,-25.757 20.881,-46.638 46.638,-46.638c25.759,0 46.64,20.881 46.64,46.638l0,0Z" style="fill-rule:nonzero;"/><path d="M121.47,110.444c0,-6.253 5.084,-11.344 11.35,-11.344c6.259,0 11.346,5.091 11.346,11.344c0,6.259 -5.087,11.35 -11.346,11.35c-6.257,0 -11.35,-5.091 -11.35,-11.35Z" style="fill-rule:nonzero;"/><path d="M64.791,110.444c0,-6.253 5.085,-11.344 11.35,-11.344c6.26,0 11.344,5.091 11.344,11.344c0,6.259 -5.084,11.35 -11.344,11.35c-6.256,0 -11.35,-5.091 -11.35,-11.35Z" style="fill-rule:nonzero;"/><path d="M164.741,122.35c-3.053,5.935 -6.115,11.382 -10.315,15.428c-4.078,3.944 -5.66,9.119 -3.713,14.457c2.388,6.543 2.857,13.525 2.857,19.993c0,26.863 -21.854,48.71 -48.71,48.71c-26.859,0 -48.7,-21.847 -48.7,-48.71c0,-6.659 0.441,-13.44 2.647,-19.756c1.869,-5.359 0.231,-10.472 -3.947,-14.312c-4.531,-4.166 -7.762,-9.844 -10.825,-15.81c-4.769,-9.287 -6.084,-19.665 -3.706,-29.228c2.428,-9.737 8.372,-17.462 16.734,-21.753c4.478,-2.303 9.335,-3.463 14.444,-3.463c9.722,0 19.247,4.291 26.519,11.532c4.015,4 8.703,4 12.731,0c7.269,-7.241 16.806,-11.532 26.519,-11.532c5.106,0 9.965,1.16 14.45,3.463c8.359,4.291 14.303,12.016 16.728,21.753c2.359,9.563 1.044,19.941 -3.713,29.228l0,0Zm42.682,-46.712c4.556,0.793 6.747,-4.972 3.956,-9.91c-3.316,-5.846 -7.519,-11.243 -11.897,-15.993c-3.84,-4.172 -7.022,-2.547 -8.759,2.862c-2.197,6.853 -7.063,13.581 -16.16,18.916c0,0 -0.7,0.403 -1.559,0.915c-0.856,0.51 -4.875,-2.268 -8.969,-6.203l-2.253,-2.159c-4.097,-3.934 -6.719,-7.878 -5.856,-8.828l1.572,-1.716c0.037,-0.053 0.781,-0.934 1.39,-2.39c0.566,-1.419 -0.547,-2.547 -1.918,-1.947c-1.422,0.622 -2.275,1.39 -2.285,1.406c0,0 -0.772,0.712 -1.725,1.575c-0.947,0.872 -2.447,0.831 -3.353,-0.078l-1.634,-1.663c0,0 -2.95,-3.075 -6.585,-6.865c-3.631,-3.797 -6.172,-7.569 -5.662,-8.432l0.919,-1.559c6.303,-10.666 16.237,-16.306 28.75,-16.306c2.609,0 5.103,0.253 7.39,0.634c4.044,0.672 3.235,-0.659 -2.122,-2.531c-8.64,-3.019 -17,-3.675 -23.203,-3.575c-5.675,0.087 -7.306,-1.281 -4.975,-5.003c2.328,-3.731 -2.15,-7.46 -7.769,-6.616c-8.834,1.319 -15.493,3.991 -20.131,6.531c-4.981,2.722 -11.65,2.7 -16.609,-0.04c-4.616,-2.541 -11.244,-5.225 -20.069,-6.544c-5.609,-0.837 -10.094,2.891 -7.759,6.609c2.331,3.728 0.693,5.094 -4.982,5.007c-5.343,-0.082 -12.293,0.4 -19.643,2.468c-5.46,1.535 -8.047,3.372 -6.122,3.21c1.128,-0.091 2.294,-0.138 3.487,-0.138c12.503,0 22.45,5.638 28.747,16.307c0,0 0.413,0.696 0.919,1.553c0.512,0.856 -2.266,4.878 -6.184,8.971l-2.266,2.366c-3.925,4.097 -7.881,6.669 -8.831,5.744c-0.953,-0.913 -2.647,-2.453 -3.997,-3.05c-1.363,-0.581 -2.469,0.547 -1.894,1.956c0.575,1.422 2.091,3.16 2.956,4.116c0.863,0.95 -1.759,4.894 -5.853,8.828l-2.25,2.159c-4.097,3.935 -8.115,6.713 -8.972,6.203l-1.556,-0.915c-7.456,-4.375 -12.069,-9.682 -14.703,-15.235c-2.434,-5.125 -6.053,-6.618 -9.663,-2.24c-2.975,3.618 -5.765,7.522 -8.103,11.647c-2.797,4.934 -0.59,10.696 3.96,9.909c4.55,-0.791 6.115,1.331 4.525,6.778c-3.907,13.375 -9.428,38.694 -5.078,64.675c0.94,5.588 6.275,8.313 10.478,4.947c4.2,-3.356 4.906,-3.019 4.531,2.644c-0.872,13.015 0.437,38.484 15.541,76.075c2.112,5.265 5.531,6.156 7.084,1.934c1.553,-4.225 4.716,-3.834 8.025,0.769c5.531,7.697 15.15,19.603 28.962,31.581c4.285,3.725 9.3,3.485 9.604,-0.531c0.303,-4.01 1.656,-3.084 4.74,1.684c3.241,5.013 8.041,11.407 14.422,17.144c4.216,3.797 9.081,1.659 11.966,-3.228c3.122,-5.316 8.697,-11.81 18.472,-16.572c12.353,-6.006 20.878,-19.8 25.49,-29.159c2.506,-5.088 4.866,-5.875 6.422,-1.644c1.553,4.222 4.969,3.325 7.084,-1.928c15.11,-37.597 16.416,-63.069 15.547,-76.094c-0.384,-5.666 0.316,-5.994 4.525,-2.634c4.194,3.362 9.535,0.65 10.478,-4.947c4.354,-25.978 -1.181,-51.31 -5.081,-64.675c-1.625,-5.441 -0.059,-7.569 4.488,-6.775l0,0Z" style="fill-rule:nonzero;"/><path d="M32.088,64.65c2.244,1.738 5.925,1.272 7.969,-0.693l3.716,-3.557c2.043,-1.972 2.153,-5.34 1.19,-8.003c-0.331,-0.934 -0.609,-2 -0.75,-3.172c-0.337,-2.809 2.6,-5.756 5.416,-5.381c1.141,0.147 2.175,0.434 3.084,0.775c2.657,1 5.982,0.956 7.947,-1.094l3.556,-3.712c1.969,-2.041 2.432,-5.725 0.616,-7.906c-10.597,-12.807 -26.509,-10.176 -34.422,-7.782c-2.715,0.825 -5.947,3.788 -6.944,6.453c-2.815,7.588 -5.887,22.847 8.622,34.072l0,0Z" style="fill-rule:nonzero;"/><path d="M143.929,31.907c-1.816,2.181 -1.35,5.865 0.616,7.906l3.546,3.712c1.975,2.05 5.3,2.094 7.95,1.094c0.919,-0.341 1.947,-0.628 3.085,-0.775c2.819,-0.375 5.756,2.572 5.415,5.381c-0.131,1.172 -0.412,2.238 -0.75,3.172c-0.956,2.663 -0.853,6.031 1.191,8.003l3.716,3.557c2.047,1.965 5.718,2.431 7.968,0.693c14.516,-11.225 11.438,-26.484 8.629,-34.072c-0.994,-2.665 -4.225,-5.628 -6.938,-6.453c-7.916,-2.394 -23.828,-5.025 -34.428,7.782l0,0Z" style="fill-rule:nonzero;"/><path d="M128.576,117.275c-3.906,0 -7.066,-3.156 -7.066,-7.062c0,-3.906 3.16,-7.069 7.066,-7.069c3.903,0 7.065,3.163 7.065,7.069c0,3.906 -3.162,7.062 -7.065,7.062Zm-10.435,51.444c-0.725,0 -1.437,-0.094 -2.121,-0.284c-1.144,-0.319 -2.529,-0.16 -3.366,0.547c-0.456,0.384 -0.978,0.793 -1.581,1.218c-2.188,1.582 -3.913,4.678 -3.913,7.063c0,0 0,4.247 0,9.497c0,5.234 1.503,9.368 3.313,9.009c1.093,-0.212 2.175,-0.497 3.234,-0.841c1.422,-0.468 2.966,0.322 3.434,1.757c0.466,1.415 -0.318,2.968 -1.746,3.431c-3.55,1.159 -7.25,1.744 -11.013,1.744c-4.125,0 -8.153,-0.7 -12,-2.075c-1.406,-0.513 -2.147,-2.069 -1.637,-3.497c0.503,-1.403 2.065,-2.144 3.484,-1.635c1.237,0.444 2.503,0.807 3.791,1.072c2.128,0.453 3.903,-3.709 3.903,-8.965l0,-9.535c0,-2.378 -1.775,-5.347 -4.047,-6.747c-0.447,-0.271 -0.841,-0.531 -1.194,-0.784c-0.434,-0.303 -0.784,-0.616 -1.084,-0.953c-0.538,-0.591 -1.675,-0.625 -2.835,-0.306c-0.687,0.19 -1.406,0.297 -2.143,0.297c-4.404,0 -7.982,-3.585 -7.982,-7.997c0,-3.832 2.103,-6.319 6.632,-7.844c0.421,-0.175 11.587,-4.703 29.521,-0.094c4.938,1.297 7.335,3.891 7.335,7.938c0,4.4 -3.585,7.984 -7.985,7.984l0,0Zm-47.159,-57.644c0,-3.906 3.159,-7.065 7.066,-7.065c3.903,0 7.065,3.159 7.065,7.065c0,3.907 -3.162,7.06 -7.065,7.06c-3.907,0 -7.066,-3.16 -7.066,-7.06Zm77.619,-33.65c-3.506,-1.8 -7.322,-2.703 -11.335,-2.703c-11.44,0 -22.631,7.409 -28.531,18.884c-0.4,0.797 -0.803,1.663 -1.219,2.644c-0.537,1.253 -1.765,2.075 -3.125,2.075c-1.381,0 -2.615,-0.822 -3.137,-2.084c-0.409,-0.959 -0.803,-1.816 -1.225,-2.628c-5.888,-11.472 -17.081,-18.891 -28.522,-18.891c-4.012,0 -7.825,0.913 -11.334,2.703c-6.594,3.388 -11.297,9.544 -13.232,17.341c-1.981,7.969 -0.868,16.659 3.15,24.481c5.979,11.653 10.772,17.756 20.344,18.731c1.341,0.141 2.466,1.057 2.885,2.332c0.418,1.278 0.046,2.675 -0.954,3.581c-7.803,7.078 -9.403,16.447 -9.403,28.337c0,23.107 18.794,41.9 41.891,41.9c23.109,0 41.894,-18.793 41.894,-41.9c0,-10.247 -1.169,-20.793 -9.644,-28.4c-0.981,-0.884 -1.369,-2.265 -0.972,-3.537c0.4,-1.275 1.506,-2.197 2.828,-2.366c9.219,-1.165 13.703,-6.953 19.725,-18.672c4.016,-7.825 5.135,-16.518 3.15,-24.478c-1.95,-7.806 -6.647,-13.962 -13.234,-17.35l0,0Z" style="fill:#2a2a2a;fill-rule:nonzero;"/></svg>