<?xml version="1.0" encoding="UTF-8" standalone="no"?><!DOCTYPE svg PUBLIC "-//W3C//DTD SVG 1.1//EN" "http://www.w3.org/Graphics/SVG/1.1/DTD/svg11.dtd"><svg width="100%" height="100%" viewBox="0 0 44 113" version="1.1" xmlns="http://www.w3.org/2000/svg" xmlns:xlink="http://www.w3.org/1999/xlink" xml:space="preserve" style="fill-rule:evenodd;clip-rule:evenodd;stroke-linejoin:round;stroke-miterlimit:1.41421;"><path d="M24.617,38.99c0.389,0 0.706,0.317 0.706,0.705c0,0.391 -0.317,0.707 -0.706,0.707c-0.39,0 -0.705,-0.316 -0.705,-0.707c0,-0.388 0.315,-0.705 0.705,-0.705" style="fill-rule:nonzero;"/><path d="M28.145,34.451c-0.348,0 -0.633,0.285 -0.633,0.635c0,0.708 1.281,0.708 1.281,0c-0.009,-0.352 -0.3,-0.635 -0.648,-0.635" style="fill-rule:nonzero;"/><path d="M18.283,34.451c-0.348,0 -0.633,0.285 -0.633,0.635c0,0.708 1.281,0.708 1.281,0c-0.009,-0.352 -0.3,-0.635 -0.648,-0.635" style="fill-rule:nonzero;"/><path d="M28.15,37.771c-1.5,0 -2.718,-1.218 -2.718,-2.718c0,-1.5 1.218,-2.719 2.718,-2.719c1.5,0 2.72,1.219 2.72,2.719c0,1.5 -1.22,2.718 -2.72,2.718m-9.859,0c-1.5,0 -2.719,-1.218 -2.719,-2.718c0,-1.5 1.219,-2.719 2.719,-2.719c1.498,0 2.719,1.219 2.719,2.719c0,1.5 -1.221,2.718 -2.719,2.718m9.49,-8.748c-1.571,0 -3.024,0.783 -3.899,2.094c-0.456,0.693 -1.606,0.692 -2.067,0.001c-0.868,-1.312 -2.326,-2.094 -3.895,-2.094c-2.578,0 -4.676,2.097 -4.676,4.676c0,2.579 2.096,4.676 4.676,4.676c0.147,0 0.294,-0.01 0.439,-0.024c0.038,-0.003 0.077,-0.005 0.116,-0.005c0.466,0 0.899,0.263 1.11,0.688c0.229,0.456 0.153,1.007 -0.192,1.386c-0.785,0.866 -1.217,1.981 -1.217,3.14c0,2.577 2.098,4.675 4.678,4.675c2.578,0 4.677,-2.096 4.677,-4.675c0,-1.159 -0.432,-2.274 -1.217,-3.14c-0.019,-0.019 -0.026,-0.045 -0.045,-0.067c-0.261,0.654 -0.9,1.119 -1.644,1.119c-0.618,0 -1.163,-0.318 -1.478,-0.798c-0.32,0.48 -0.863,0.798 -1.48,0.798c-0.979,0 -1.776,-0.797 -1.776,-1.776c0,-0.978 0.797,-1.775 1.776,-1.775c0.617,0 1.16,0.317 1.48,0.798c0.317,-0.481 0.86,-0.798 1.478,-0.798c0.696,0 1.291,0.406 1.58,0.99c0.25,-0.378 0.672,-0.605 1.141,-0.562c0.144,0.015 0.289,0.024 0.441,0.024c2.578,0 4.677,-2.096 4.677,-4.676c0,-2.578 -2.106,-4.675 -4.683,-4.675" style="fill-rule:nonzero;"/><path d="M29.397,40.67c0.4,0.903 0.611,1.886 0.611,2.888c0,3.946 -3.211,7.157 -7.158,7.157c-3.946,0 -7.159,-3.211 -7.159,-7.157c0,-1.004 0.21,-1.986 0.611,-2.889c-3.173,-0.734 -5.542,-3.58 -5.542,-6.972c0,-3.946 3.21,-7.157 7.157,-7.157c1.859,0 3.613,0.717 4.93,1.97c1.317,-1.253 3.072,-1.97 4.932,-1.97c3.948,0 7.16,3.211 7.16,7.157c0,3.393 -2.375,6.238 -5.542,6.972m13.488,-15.637c-0.035,-0.01 -0.073,-0.02 -0.109,-0.026c-0.423,-3.702 -1.553,-10.821 -4.232,-14.327c-0.216,-0.284 -0.542,-0.457 -0.898,-0.482c-0.362,-0.026 -0.706,0.103 -0.958,0.35c-0.011,0.009 -0.771,0.736 -1.925,1.016c-0.81,-5.361 -1.909,-5.953 -2.286,-6.156c-0.404,-0.218 -0.9,-0.194 -1.283,0.063c-0.718,0.487 -2.683,1.654 -4.248,2.05c-2.914,-4.992 -5.146,-7.52 -6.643,-7.52c-0.534,0 -1.008,0.34 -1.176,0.845c-0.94,2.802 -3.921,10.086 -7.018,12.291c-0.337,-0.23 -0.768,-0.505 -1.325,-0.861c-0.537,-0.344 -1.245,-0.225 -1.638,0.271c-0.309,0.388 -6.854,8.685 -7.013,15.583l-0.403,-0.173c-0.391,-0.17 -0.846,-0.123 -1.198,0.123c-0.352,0.246 -0.551,0.654 -0.53,1.083c0.031,0.601 0.882,14.716 10.393,18.97c0.284,0.244 0.584,0.486 0.893,0.719c-0.584,1.52 -1.158,3.539 -1.254,5.765c-0.707,1.617 -4.965,11.578 -7.315,22.66c-3.509,16.554 -1.322,27.617 6.497,32.884c1.499,1.008 4.052,2.086 6.716,2.086c2.515,0 4.647,-0.954 6.165,-2.753c2.754,-3.261 3.417,-9.177 1.978,-17.584c-0.106,-0.629 -0.676,-1.076 -1.312,-1.026l-1.727,0.124c-0.34,0.026 -0.654,0.186 -0.871,0.449c-0.216,0.266 -0.314,0.604 -0.272,0.944c0.287,2.275 0.556,8.723 -1.612,11.187c-0.557,0.633 -1.215,0.926 -2.07,0.926l-0.001,0c-0.216,0 -0.442,-0.022 -0.68,-0.061c-1.936,-0.31 -3.519,-1.374 -4.715,-3.166c-2.963,-4.444 -3.302,-12.679 -0.932,-22.589c0.327,-1.367 2.495,-4.883 4.015,-7.134l4.362,0.107c0.422,0 0.837,-0.205 1.071,-0.567c0.513,-0.788 2.246,-2.827 4.074,-2.827c1.245,0 2.493,0.952 3.702,2.824c0.232,0.367 0.642,0.565 1.076,0.57l4.434,-0.123c0.618,-0.019 1.129,-0.489 1.201,-1.102l1.11,-9.739c0.013,-0.096 0.013,-0.195 -0.001,-0.293c-0.181,-1.453 -1.732,-4.202 -6.293,-4.202c-0.377,0 -0.766,0.018 -1.169,0.054c-0.288,-0.781 -0.697,-2.047 -0.913,-3.489c8.794,-1.319 15.861,-8.423 17.037,-17.327c0.007,-0.046 0.01,-0.092 0.011,-0.139l0.171,-9.066c0.007,-0.556 -0.354,-1.051 -0.886,-1.212" style="fill-rule:nonzero;"/><path d="M21.658,38.99c0.39,0 0.706,0.317 0.706,0.705c0,0.391 -0.316,0.707 -0.706,0.707c-0.39,0 -0.705,-0.316 -0.705,-0.707c0,-0.388 0.315,-0.705 0.705,-0.705" style="fill-rule:nonzero;"/></svg>