<?xml version="1.0" encoding="UTF-8" standalone="no"?><!DOCTYPE svg PUBLIC "-//W3C//DTD SVG 1.1//EN" "http://www.w3.org/Graphics/SVG/1.1/DTD/svg11.dtd"><svg width="100%" height="100%" viewBox="0 0 329 298" version="1.1" xmlns="http://www.w3.org/2000/svg" xmlns:xlink="http://www.w3.org/1999/xlink" xml:space="preserve" style="fill-rule:evenodd;clip-rule:evenodd;stroke-linejoin:round;stroke-miterlimit:1.41421;"><path d="M147.95,124.616c0,9.087 -7.369,16.456 -16.456,16.456c-9.084,0 -16.45,-7.369 -16.45,-16.456c0,-9.085 7.366,-16.45 16.45,-16.45c9.087,0 16.456,7.365 16.456,16.45Z" style="fill-rule:nonzero;"/><path d="M212.794,124.616c0,9.087 -7.369,16.456 -16.456,16.456c-9.085,0 -16.45,-7.369 -16.45,-16.456c0,-9.085 7.365,-16.45 16.45,-16.45c9.087,0 16.456,7.365 16.456,16.45Z" style="fill-rule:nonzero;"/><path d="M187.535,180.928c0,9.084 -12.547,16.45 -28.022,16.45c-15.472,0 -28.019,-7.366 -28.019,-16.45c0,-9.091 12.547,-16.456 28.019,-16.456c15.475,0 28.022,7.365 28.022,16.456Z" style="fill-rule:nonzero;"/><path d="M314.41,169.469c-2.591,20.334 -19.069,37.981 -40.994,43.94c-5.041,1.35 -10.103,2.041 -15.066,2.041c-2.794,0 -5.575,-0.219 -8.287,-0.644c-1.55,-0.253 -2.613,-1.709 -2.369,-3.253c0.247,-1.559 1.741,-2.603 3.256,-2.369c6.744,1.066 13.878,0.638 20.985,-1.275c19.718,-5.347 34.518,-21.09 36.828,-39.162c3.681,-28.916 -7.578,-37.925 -16.372,-42.191c-1.413,-0.687 -2,-2.387 -1.31,-3.809c0.685,-1.409 2.391,-2 3.807,-1.313c16.247,7.885 22.634,23.597 19.522,48.035Zm-117.682,-35.285c-5.475,0 -9.922,-4.44 -9.922,-9.922c0,-5.471 4.447,-9.915 9.922,-9.915c5.475,0 9.903,4.444 9.903,9.915c0,5.482 -4.428,9.922 -9.903,9.922Zm-16.515,46.5c-1.4,1.525 -3.038,2.835 -4.853,3.935c-3.675,2.256 -8.119,3.331 -12.504,3.287c-4.381,-0.187 -8.64,-1.425 -12.218,-3.609c-1.788,-1.078 -3.457,-2.325 -4.919,-3.803c-2.428,-2.432 0.919,-3.441 6.7,-2.038c3.675,0.885 7.166,1.456 10.647,1.516c3.497,0.162 6.915,-0.325 10.519,-1.231c5.668,-1.441 8.978,-0.604 6.628,1.943Zm-51.372,-46.531c-5.588,0 -10.141,-4.553 -10.141,-10.137c0,-5.591 4.553,-10.138 10.141,-10.138c5.594,0 10.137,4.547 10.137,10.138c0,5.584 -4.543,10.137 -10.137,10.137Zm-55.088,80.653c-2.715,0.425 -5.506,0.644 -8.297,0.644c-4.959,0 -10.025,-0.691 -15.062,-2.041c-21.931,-5.959 -38.397,-23.603 -40.994,-43.94c-3.106,-24.438 3.278,-40.15 19.531,-48.035c1.41,-0.675 3.116,-0.096 3.804,1.313c0.687,1.422 0.1,3.122 -1.31,3.809c-8.797,4.266 -20.05,13.275 -16.378,42.191c2.303,18.072 17.113,33.803 36.841,39.162c7.081,1.913 14.231,2.338 20.972,1.275c1.509,-0.234 3.012,0.81 3.256,2.369c0.25,1.544 -0.819,3 -2.363,3.253l0,0Zm249.091,-45.662l1.769,0.018c2.372,0.025 4.312,-2.29 4.337,-5.15c0.01,-2.856 -1.89,-5.193 -4.269,-5.203c-0.571,-0.006 -1.118,-0.006 -1.624,-0.009c-0.126,-3.925 -0.519,-7.481 -1.154,-10.691l2.088,-0.687c2.256,-0.741 3.362,-3.55 2.465,-6.266c-0.896,-2.725 -3.443,-4.325 -5.703,-3.578c-0.69,0.222 -1.306,0.422 -1.881,0.613c-4.597,-10.447 -12.147,-15.8 -19.003,-19.122c-7.875,-3.822 -22.319,-8.203 -26.153,-0.328c-3.766,7.775 7.469,14.918 12.628,21.79c2.637,3.522 7.366,7.585 4.412,30.703c-1.656,13.088 -13.906,22.057 -25.293,25.135c-5.95,1.634 -20.782,4.025 -30.332,-8.353c0,0 -5.621,-6.682 -8.465,-15.557c-2.025,-6.381 2.231,-15.975 5.778,-21.662c10.391,-16.706 16.497,-40.131 16.497,-59.6c0,-50.372 -32.891,-91.197 -83.256,-91.197c-50.375,0 -83.263,40.837 -83.263,91.197c0,16.844 4.553,37.756 12.513,53.297c3.056,5.968 6.965,15.828 5.181,22.284c-2.553,9.238 -7.791,16.509 -7.791,16.509c-9.562,12.382 -24.397,9.991 -30.334,8.357c-11.406,-3.088 -23.638,-12.053 -25.306,-25.132c-2.954,-23.118 1.787,-27.193 4.431,-30.721c5.147,-6.857 16.378,-14.016 12.609,-21.785c-3.825,-7.881 -18.269,-3.487 -26.162,0.328c-6.944,3.378 -14.628,8.819 -19.203,19.582l-0.166,-0.057c-2.259,-0.737 -4.813,0.85 -5.706,3.582c-0.9,2.715 0.2,5.528 2.456,6.271l0.512,0.16c-0.621,3.362 -1.003,7.09 -1.087,11.222l-0.113,0c-2.365,0.015 -4.278,2.347 -4.256,5.203c0.01,2.859 1.956,5.172 4.328,5.15l0.385,0c0.14,1.656 0.281,3.315 0.512,5.087c0.266,2.069 0.691,4.119 1.203,6.138c-2.262,0.703 -3.431,3.472 -2.603,6.203c0.838,2.747 3.356,4.409 5.625,3.709l0.428,-0.122c1.785,3.875 4.019,7.572 6.635,11.038l-0.332,0.281c-1.8,1.538 -1.762,4.556 0.094,6.738c1.863,2.168 4.831,2.69 6.644,1.143l0.475,-0.409c3.337,3.197 7.037,6.078 11.053,8.594l-0.247,0.484c-1.056,2.119 0.169,4.878 2.731,6.15c2.563,1.275 5.504,0.575 6.554,-1.547l0.112,-0.234c3.231,1.412 6.594,2.634 10.078,3.581c6.022,1.625 12.006,2.425 17.847,2.425c3.306,0 6.575,-0.262 9.766,-0.759c5.356,-0.85 6.225,2.012 2.956,7.859c-5.425,9.688 -9.969,20.197 -15.684,24.575c-6.116,4.678 -20.585,3.216 -23.697,1.678c-7.775,-3.912 -17.288,-0.831 -21.253,6.944c-4,7.8 0.828,14.103 8.634,18.084c0.628,0.332 2.391,0.875 4.825,1.46l-0.109,0.64c-0.379,2.338 1.587,4.61 4.415,5.079c2.819,0.453 5.422,-1.072 5.81,-3.41l0.065,-0.406c3.597,0.491 7.603,0.834 11.806,0.956l0.032,0.478c0.181,2.366 2.637,4.113 5.49,3.888c2.716,-0.197 4.75,-2.113 4.791,-4.331c6.222,-0.213 12.441,-1.222 18.503,-5.875c16.819,-12.929 48.938,-45.791 51.638,-49.494c0,0 13.287,-16.953 23.359,-16.953c10.084,0 23.297,18.509 23.297,18.509c2.706,3.691 36.869,39.65 53.694,52.556c5.8,4.457 11.762,5.575 17.715,5.841l-0.053,0.641c-0.178,2.365 1.991,4.453 4.844,4.675c2.853,0.212 5.309,-1.532 5.494,-3.888c0.04,-0.503 0.068,-0.962 0.109,-1.409c4.103,-0.091 8.019,-0.41 11.581,-0.857l0.21,1.241c0.381,2.334 2.984,3.863 5.806,3.397c2.822,-0.459 4.803,-2.728 4.406,-5.072c-0.078,-0.478 -0.15,-0.922 -0.222,-1.347c2.941,-0.675 5.028,-1.309 5.741,-1.687c7.794,-3.975 12.619,-10.272 8.637,-18.078c-3.968,-7.779 -13.49,-10.857 -21.256,-6.938c-3.119,1.525 -17.6,2.984 -23.694,-1.694c-5.718,-4.384 -10.393,-14.843 -15.875,-24.506c-3.322,-5.816 -2.462,-8.678 2.888,-7.825c3.187,0.506 6.45,0.759 9.762,0.753c5.825,0 11.807,-0.793 17.828,-2.425c4.079,-1.109 7.972,-2.594 11.7,-4.337c1.063,2.106 3.985,2.797 6.541,1.528c2.559,-1.272 3.781,-4.025 2.722,-6.147l-0.222,-0.456c3.931,-2.607 7.541,-5.575 10.778,-8.841l0.744,0.631c1.809,1.532 4.775,1.025 6.637,-1.156c1.85,-2.178 1.894,-5.187 0.094,-6.722c-0.284,-0.244 -0.528,-0.453 -0.781,-0.669c2.462,-3.443 4.512,-7.115 6.169,-10.94l1.35,0.412c2.268,0.685 4.781,-0.968 5.622,-3.709c0.831,-2.731 -0.335,-5.522 -2.597,-6.209c-0.413,-0.116 -0.778,-0.235 -1.147,-0.341c0.35,-1.578 0.647,-3.178 0.847,-4.778c0.262,-2.135 0.453,-4.153 0.6,-6.128l0.006,0Z" style="fill-rule:nonzero;"/><path d="M137.794,153.147c0,6.284 -5.094,11.378 -11.378,11.378c-6.281,0 -11.372,-5.094 -11.372,-11.378c0,-6.281 5.091,-11.375 11.372,-11.375c6.284,0 11.378,5.094 11.378,11.375Z" style="fill-rule:nonzero;"/><path d="M210.285,153.147c0,6.284 -5.094,11.378 -11.379,11.378c-6.278,0 -11.371,-5.094 -11.371,-11.378c0,-6.281 5.093,-11.375 11.371,-11.375c6.285,0 11.379,5.094 11.379,11.375Z" style="fill-rule:nonzero;"/></svg>