<?xml version="1.0" encoding="UTF-8" standalone="no"?><!DOCTYPE svg PUBLIC "-//W3C//DTD SVG 1.1//EN" "http://www.w3.org/Graphics/SVG/1.1/DTD/svg11.dtd"><svg width="100%" height="100%" viewBox="0 0 98 56" version="1.1" xmlns="http://www.w3.org/2000/svg" xmlns:xlink="http://www.w3.org/1999/xlink" xml:space="preserve" style="fill-rule:evenodd;clip-rule:evenodd;stroke-linejoin:round;stroke-miterlimit:1.41421;"><path d="M37.405,35.338c0,2.295 -1.86,4.153 -4.155,4.153c-2.295,0 -4.156,-1.858 -4.156,-4.153c0,-2.295 1.861,-4.156 4.156,-4.156c2.295,0 4.155,1.861 4.155,4.156" style="fill-rule:nonzero;"/><path d="M66.928,35.338c0,2.295 -1.86,4.153 -4.155,4.153c-2.295,0 -4.155,-1.858 -4.155,-4.153c0,-2.295 1.86,-4.156 4.155,-4.156c2.295,0 4.155,1.861 4.155,4.156" style="fill-rule:nonzero;"/><path d="M23.556,12.612c1.918,-0.587 4.097,-1.255 8.104,-1.255c0.741,0 1.533,0.022 2.358,0.068c5.409,0.296 9.512,3.738 12.169,6.904c1.228,1.466 2.93,1.488 4.191,0.054c2.783,-3.177 7.043,-6.663 12.476,-6.958c0.828,-0.046 1.622,-0.068 2.361,-0.068c4.008,0 6.182,0.668 8.106,1.255c0.727,0.226 1.41,0.436 2.164,0.601c1.211,0.267 1.343,-0.962 0.063,-2.379c-5.962,-6.599 -15.148,-10.834 -25.457,-10.834c-9.953,0 -18.86,3.94 -24.827,10.151c-1.323,1.378 -2.127,2.589 -1.979,2.545c0.088,-0.027 0.182,-0.055 0.271,-0.084" style="fill-rule:nonzero;"/><path d="M62.532,38.019c-1.542,0 -2.787,-1.253 -2.787,-2.79c0,-1.538 1.25,-2.791 2.787,-2.791c1.539,-0.001 2.788,1.253 2.788,2.791c0,1.537 -1.249,2.79 -2.788,2.79m-29.581,0c-1.535,0 -2.786,-1.253 -2.786,-2.79c0,-1.538 1.253,-2.791 2.786,-2.791c1.54,-0.001 2.792,1.253 2.792,2.791c0,1.537 -1.254,2.79 -2.792,2.79m62.159,-23.26c-4.61,1.891 -11.731,1.863 -16.546,1.733c-6.018,-0.167 -6.432,-2.641 -15.507,-2.144c-5.996,0.325 -10.512,5.156 -12.886,8.394c-1.125,1.54 -2.562,1.513 -3.65,-0.057c-2.241,-3.239 -6.527,-8.013 -12.49,-8.337c-9.075,-0.497 -9.484,1.978 -15.506,2.144c-4.813,0.13 -11.938,0.158 -16.546,-1.733c-1.765,-0.723 -2.51,-0.303 -1.571,1.362c1.827,3.234 5.949,8.265 14.902,11.754c0,0 0.341,0.098 0.954,0.233c0.53,0.118 0.167,1.543 -0.405,3.367c-0.496,1.578 -0.765,3.251 -0.765,4.995c0,9.234 7.489,16.724 16.729,16.724c2.292,0 4.476,-0.467 6.462,-1.307c1.762,-0.747 2.721,-2.208 2.347,-2.877c-0.375,-0.664 0.055,-2.573 0.96,-4.255l5.159,-9.614c0.901,-1.68 2.371,-1.683 3.275,0l5.349,9.918c0.902,1.685 1.394,3.539 1.091,4.151c-0.303,0.61 0.724,2.011 2.488,2.737c1.949,0.801 4.081,1.247 6.32,1.247c9.237,0 16.728,-7.49 16.728,-16.727c0,-1.745 -0.267,-3.423 -0.765,-4.995c-0.571,-1.827 -0.938,-3.25 -0.405,-3.368c0.609,-0.134 0.954,-0.232 0.954,-0.232c8.951,-3.492 13.074,-8.52 14.9,-11.757c0.934,-1.659 0.192,-2.079 -1.576,-1.356" style="fill-rule:nonzero;"/><path d="M49.243,39.129c-0.453,-0.84 -1.185,-0.84 -1.636,0l-3.38,6.301c-0.454,0.841 -0.44,2.199 0.026,3.036l3.738,6.683c0.465,0.834 1.189,0.82 1.613,-0.034l3.186,-6.429c0.425,-0.855 0.401,-2.232 -0.052,-3.07l-3.495,-6.487Z" style="fill-rule:nonzero;"/></svg>