<?xml version="1.0" encoding="UTF-8" standalone="no"?><!DOCTYPE svg PUBLIC "-//W3C//DTD SVG 1.1//EN" "http://www.w3.org/Graphics/SVG/1.1/DTD/svg11.dtd"><svg width="100%" height="100%" viewBox="0 0 187 329" version="1.1" xmlns="http://www.w3.org/2000/svg" xmlns:xlink="http://www.w3.org/1999/xlink" xml:space="preserve" style="fill-rule:evenodd;clip-rule:evenodd;stroke-linejoin:round;stroke-miterlimit:1.41421;"><path d="M142.513,76.581c0,29.269 -29.357,53.007 -65.566,53.007c-36.209,0 -65.562,-23.738 -65.562,-53.007c0,-29.268 29.353,-53 65.562,-53c36.209,0 65.566,23.732 65.566,53l0,0Z" style="fill-rule:nonzero;"/><path d="M161,300.588c-7.565,-59.869 -78.3,-101.382 -64.034,-159.5l6.187,-0.579c-14.262,58.113 56.472,99.632 64.035,159.497l-6.188,0.582Zm-72.8,-24.394l15.419,7.056c-7.747,8.609 -17.834,8.447 -15.419,-7.056Zm-10.878,-148.038c-49.653,-4.093 -67,-26.009 -59.381,-64.184c12.281,-38.972 40.919,-35.109 58.506,-4.366c16.925,-33.853 42.169,-28.737 56.466,-4.656c16.234,36.503 -6.197,71.294 -55.591,73.206Zm66.931,-12.068c10.553,-33.285 3.832,-59.738 -11.215,-77.797c-2.797,-6.625 -3.294,-12.413 -2.063,-17.563c2.144,-2.797 5.675,-4.312 9.863,-5.228c-2.644,-0.506 -5.238,-0.731 -7.735,-0.412c2.994,-5.719 8.207,-10.625 14.619,-15.088c-13.859,2.903 -25.903,8.575 -32.191,23.084c-24.506,-15.356 -57.34,-16.768 -81.012,-1.165c-6.422,-13.65 -18.188,-19.094 -31.663,-21.919c6.397,4.463 11.604,9.366 14.597,15.069c-2.443,-0.288 -4.984,-0.06 -7.572,0.434c4.044,0.885 7.479,2.328 9.641,4.944c1.366,5.412 0.819,11.522 -2.306,18.572c-11.706,17.237 -16.91,42.74 -10.1,77.494c-25.997,108.434 24.062,134.462 72.272,155.793c-1.238,5.778 -4.391,9.141 -9.394,10.153c-15.888,-6.368 -33.463,7.969 -24.747,25.619c3.169,-14.35 9.309,-18.794 17.322,-17.031c-3.047,6.05 -2.813,12.525 0.147,19.362c3.159,-8.928 8.047,-14.862 17.028,-13.684c-2.928,6.788 -2.019,14.559 0.291,22.703c12.471,-28.712 27.987,-26.3 45.693,-1.453c4.166,-12.006 3.169,-21.816 -10.909,-26.05l0.037,-2.791c12.307,7.022 22.744,15.338 29.375,26.9c14.994,16.572 25.379,18.35 29.104,-1.168c24.2,-82.722 16.765,-150.888 -29.082,-198.778l0,0Z" style="fill-rule:nonzero;"/><path d="M70.128,99.644c-0.334,9.559 2.791,16.825 7.128,23.287c4.116,-5.843 6.607,-13.462 6.847,-23.578c-1.331,-10.065 -12.453,-11 -13.975,0.291Z" style="fill-rule:nonzero;"/><path d="M89.294,84.006c11.259,15.188 22.662,12.96 34.181,-3.518c-13.056,-13.51 -24.587,-13.538 -34.181,3.518Z" style="fill-rule:nonzero;"/><path d="M93.431,83.606c8.304,11.2 16.716,9.557 25.207,-2.593c-9.628,-9.963 -18.128,-9.985 -25.207,2.593l0,0Z" style="fill-rule:nonzero;"/><path d="M28.944,78.406c6.447,17.769 18.009,18.897 33.759,6.397c-8.643,-16.672 -19.681,-20.009 -33.759,-6.397l0,0Z" style="fill-rule:nonzero;"/><path d="M33.25,81.081c5.916,12.625 14.481,12.688 25.216,2.46c-7.456,-11.669 -15.785,-13.382 -25.216,-2.46Z" style="fill-rule:nonzero;"/><path d="M114.266,82.484c0,4.544 -3.685,8.225 -8.231,8.225c-4.544,0 -8.229,-3.681 -8.229,-8.225c0,-4.55 3.685,-8.231 8.229,-8.231c4.546,0 8.231,3.681 8.231,8.231Z" style="fill-rule:nonzero;"/><path d="M54.088,82.484c0,4.544 -3.685,8.225 -8.232,8.225c-4.543,0 -8.228,-3.681 -8.228,-8.225c0,-4.55 3.685,-8.231 8.228,-8.231c4.547,0 8.232,3.681 8.232,8.231Z" style="fill-rule:nonzero;"/><path d="M45.86,102.45c0,4.544 -3.682,8.225 -8.232,8.225c-4.543,0 -8.222,-3.681 -8.222,-8.225c0,-4.547 3.679,-8.231 8.222,-8.231c4.55,0 8.232,3.684 8.232,8.231Z" style="fill-rule:nonzero;"/><path d="M121.828,101.966c0,4.54 -3.684,8.222 -8.231,8.222c-4.544,0 -8.228,-3.682 -8.228,-8.222c0,-4.55 3.684,-8.232 8.228,-8.232c4.547,0 8.231,3.682 8.231,8.232Z" style="fill-rule:nonzero;"/><path d="M97.806,139.053c0,0 16.647,-26.065 44.707,-16.122c28.056,9.944 49.915,142.516 22.831,182.435l-3.8,9.978c0,0 -25.181,-62.25 -47.278,-92.663c-22.1,-30.412 -35.05,-65.575 -16.46,-83.628l0,0Z" style="fill-rule:nonzero;"/></svg>