<?xml version="1.0" encoding="UTF-8" standalone="no"?><!DOCTYPE svg PUBLIC "-//W3C//DTD SVG 1.1//EN" "http://www.w3.org/Graphics/SVG/1.1/DTD/svg11.dtd"><svg width="100%" height="100%" viewBox="0 0 146 285" version="1.1" xmlns="http://www.w3.org/2000/svg" xmlns:xlink="http://www.w3.org/1999/xlink" xml:space="preserve" style="fill-rule:evenodd;clip-rule:evenodd;stroke-linejoin:round;stroke-miterlimit:1.41421;"><path d="M104.309,248.669c4.603,-1.791 9.159,-1.897 13.681,0c36.666,-68.366 41.119,-152.919 -10.984,-183.844c17.556,-15.731 23.4,-38.238 22.191,-64.825c-36.907,54.931 -74.491,53.509 -112.704,0c1.304,24.459 6.366,46.975 22.222,63.928c-51.922,29.241 -48.178,113.725 -9.178,184.741c4.96,-1.941 9.506,-1.656 13.813,0c3.572,-1.925 7.359,-1.65 11.268,0c7.563,7.059 8.029,17.95 8.257,31.431l22.318,0c0.713,-12.219 -0.687,-24.119 7.307,-31.431c4.19,-1.863 8.112,-1.822 11.809,0l0,0Z" style="fill-rule:nonzero;"/><path d="M43.05,144.488c-14.61,0 -26.457,-11.847 -26.457,-26.454c0,-14.615 11.847,-26.459 26.457,-26.459c14.612,0 26.459,11.844 26.459,26.459c-0.003,14.61 -11.847,26.454 -26.459,26.454Z" style="fill:#fff;fill-rule:nonzero;"/><path d="M72.153,170.809c-3.669,0 -17.697,-23.375 -7.785,-23.375l15.682,0c9.937,0 -4.166,23.375 -7.897,23.375Z" style="fill-rule:nonzero;"/><path d="M75.393,118.034c0,-14.615 11.844,-26.459 26.457,-26.459c14.609,0 26.456,11.844 26.456,26.459c0,14.61 -11.847,26.454 -26.456,26.454c-14.613,0 -26.457,-11.844 -26.457,-26.454l0,0Z" style="fill:#fff;fill-rule:nonzero;"/><path d="M51.625,110.687c6.09,0 11.025,4.935 11.025,11.022c0,6.088 -4.935,11.025 -11.025,11.025c-6.088,0 -11.022,-4.937 -11.022,-11.025c0,-6.087 4.934,-11.022 11.022,-11.022Z" style="fill-rule:nonzero;"/><path d="M93.275,110.687c6.09,0 11.025,4.935 11.025,11.022c0,6.088 -4.935,11.025 -11.025,11.025c-6.088,0 -11.022,-4.937 -11.022,-11.025c0,-6.087 4.934,-11.022 11.022,-11.022Z" style="fill-rule:nonzero;"/><path d="M47.009,259.575c-2.741,0 -5.141,2.284 -6.503,5.725c-1.359,-3.441 -3.766,-5.725 -6.506,-5.725c-2.835,0 -5.316,2.45 -6.644,6.094c-1.331,-3.644 -3.806,-6.094 -6.647,-6.094c-4.247,0 -7.687,5.484 -7.687,12.247c0,6.762 3.44,12.247 7.687,12.247c2.841,0 5.316,-2.45 6.647,-6.094c1.328,3.644 3.809,6.094 6.644,6.094c2.74,0 5.147,-2.285 6.506,-5.725c1.362,3.443 3.762,5.725 6.503,5.725c4.244,0 7.684,-5.485 7.684,-12.247c0,-6.763 -3.44,-12.247 -7.684,-12.247Z" style="fill-rule:nonzero;"/><path d="M121.072,259.575c-2.738,0 -5.141,2.284 -6.504,5.725c-1.356,-3.441 -3.765,-5.725 -6.506,-5.725c-2.831,0 -5.315,2.45 -6.644,6.094c-1.331,-3.644 -3.806,-6.094 -6.646,-6.094c-4.247,0 -7.688,5.484 -7.688,12.247c0,6.762 3.444,12.247 7.688,12.247c2.837,0 5.315,-2.45 6.646,-6.094c1.329,3.644 3.81,6.094 6.644,6.094c2.741,0 5.147,-2.285 6.506,-5.725c1.363,3.443 3.766,5.725 6.504,5.725c4.24,0 7.684,-5.485 7.684,-12.247c0,-6.763 -3.444,-12.247 -7.684,-12.247Z" style="fill-rule:nonzero;"/></svg>