<?xml version="1.0" encoding="UTF-8" standalone="no"?><!DOCTYPE svg PUBLIC "-//W3C//DTD SVG 1.1//EN" "http://www.w3.org/Graphics/SVG/1.1/DTD/svg11.dtd"><svg width="100%" height="100%" viewBox="0 0 287 281" version="1.1" xmlns="http://www.w3.org/2000/svg" xmlns:xlink="http://www.w3.org/1999/xlink" xml:space="preserve" style="fill-rule:evenodd;clip-rule:evenodd;stroke-linejoin:round;stroke-miterlimit:1.41421;"><path d="M52.958,233.031c-5.297,-17.34 -8.241,-36.497 -8.241,-56.637l0.113,-6.744c-16.303,9.094 -34.61,18.506 -40.578,18.506c-15.431,0 13.334,-36.281 50.968,-75.293c3.544,-10.088 7.922,-19.488 12.985,-28.01c3.697,-47.631 35.775,-84.853 74.797,-84.853c39.022,0 71.1,37.222 74.793,84.853c5.066,8.522 9.441,17.922 12.988,28.01c37.631,39.012 66.4,75.293 50.966,75.293c-5.969,0 -24.272,-9.412 -40.575,-18.506l0.112,6.744c0,20.14 -2.944,39.297 -8.244,56.637l-14.89,-3.718c0,-45.241 -20.153,-83.847 -48.51,-98.991l-26.64,46.072l-26.644,-46.072c-28.356,15.172 -48.509,53.903 -48.509,99.669l-14.891,3.04l0,0Z" style="fill-rule:nonzero;"/><path d="M114.089,52.031c-15.959,0 -28.897,15.532 -28.897,34.688c0,19.153 12.938,34.684 28.897,34.684c15.975,0 28.913,-15.531 28.913,-34.684c0,-19.156 -12.938,-34.688 -28.913,-34.688l0,0Z" style="fill-rule:nonzero;"/><path d="M143.002,86.719c0,12.772 12.937,26.012 28.909,26.012c15.959,0 28.897,-13.24 28.897,-26.012c0,-12.775 -12.938,-26.016 -28.897,-26.016c-15.972,0 -28.909,13.241 -28.909,26.016Z" style="fill-rule:nonzero;"/><path d="M125.658,78.044c6.387,0 11.566,5.181 11.566,11.569c0,6.381 -5.179,11.553 -11.566,11.553c-6.391,0 -11.569,-5.172 -11.569,-11.553c0,-6.388 5.178,-11.569 11.569,-11.569l0,0Z" style="fill-rule:nonzero;"/><path d="M163.242,78.044c6.382,0 11.55,5.181 11.55,11.569c0,6.381 -5.168,11.553 -11.55,11.553c-6.39,0 -11.571,-5.172 -11.571,-11.553c0,-6.388 5.181,-11.569 11.571,-11.569Z" style="fill-rule:nonzero;"/><path d="M67.849,226.138c0,0 -3.428,-74.175 48.509,-98l26.644,45.299l26.64,-45.299c0,0 46.025,17.703 48.51,97.328c0,0 -66.369,41.247 -150.303,0.672l0,0Z" style="fill-rule:nonzero;"/><path d="M93.842,222.747c22.372,0 41.035,9.934 45.319,23.134l3.816,0l0,11.553l-3.816,0c-4.284,13.2 -22.947,23.135 -45.319,23.135c-25.543,0 -46.253,-12.953 -46.253,-28.91c0,-15.959 20.71,-28.912 46.253,-28.912Z" style="fill-rule:nonzero;"/><path d="M189.817,222.747c25.547,0 46.257,12.953 46.257,28.912c0,15.957 -20.71,28.91 -46.257,28.91c-22.368,0 -41.031,-9.935 -45.318,-23.135l-3.816,0l0,-11.553l3.816,0c4.287,-13.2 22.95,-23.134 45.318,-23.134Z" style="fill-rule:nonzero;"/></svg>