<?xml version="1.0" encoding="UTF-8" standalone="no"?><!DOCTYPE svg PUBLIC "-//W3C//DTD SVG 1.1//EN" "http://www.w3.org/Graphics/SVG/1.1/DTD/svg11.dtd"><svg width="100%" height="100%" viewBox="0 0 71 70" version="1.1" xmlns="http://www.w3.org/2000/svg" xmlns:xlink="http://www.w3.org/1999/xlink" xml:space="preserve" style="fill-rule:evenodd;clip-rule:evenodd;stroke-linejoin:round;stroke-miterlimit:1.41421;"><path d="M30.608,27.194c0,2.048 -1.661,3.71 -3.71,3.71c-2.05,0 -3.711,-1.662 -3.711,-3.71c0,-2.049 1.661,-3.711 3.711,-3.711c2.049,0 3.71,1.662 3.71,3.711" style="fill-rule:nonzero;"/><path d="M46.935,27.194c0,2.048 -1.661,3.71 -3.71,3.71c-2.05,0 -3.711,-1.662 -3.711,-3.71c0,-2.049 1.661,-3.711 3.711,-3.711c2.049,0 3.71,1.662 3.71,3.711" style="fill-rule:nonzero;"/><path d="M11.063,13.689c2.763,-2.738 5.988,-5.016 9.546,-6.699c1.408,-0.666 1.638,-1.933 0.326,-2.773c-6.599,-4.229 -14.59,-4.451 -16.325,-4.105c-2.013,0.401 -7.131,0.995 -3.112,3.404c2.509,1.508 5.014,6.278 6.537,9.643c0.642,1.419 1.924,1.625 3.028,0.53" style="fill-rule:nonzero;"/><path d="M66.024,0.115c-1.738,-0.349 -9.735,-0.124 -16.336,4.109c-1.312,0.844 -1.078,2.107 0.329,2.777c3.554,1.686 6.781,3.966 9.544,6.709c1.104,1.096 2.385,0.889 3.026,-0.528c1.522,-3.369 4.032,-8.15 6.547,-9.663c4.021,-2.412 -1.099,-3.005 -3.11,-3.404" style="fill-rule:nonzero;"/><path d="M41.391,55.964l-12.481,0c-6.288,0 -11.404,-4.64 -11.404,-10.343c0,-5.704 5.116,-10.342 11.404,-10.342l12.481,0c6.29,0 11.406,4.638 11.406,10.342c0,5.703 -5.116,10.343 -11.406,10.343m-14.21,-31.383c1.284,0 2.334,1.045 2.334,2.328c0,1.286 -1.05,2.332 -2.334,2.332c-1.283,0 -2.331,-1.046 -2.331,-2.332c0,-1.283 1.048,-2.328 2.331,-2.328m16.374,0c1.284,0 2.332,1.045 2.332,2.328c0,1.286 -1.048,2.332 -2.332,2.332c-1.283,0 -2.327,-1.046 -2.327,-2.332c-0.003,-1.283 1.041,-2.328 2.327,-2.328m-8.251,-18.029c-17.446,0 -31.589,14.138 -31.589,31.586c0,17.443 14.143,31.582 31.589,31.582c17.444,0 31.585,-14.139 31.585,-31.582c0,-17.448 -14.141,-31.586 -31.585,-31.586" style="fill-rule:nonzero;"/><path d="M40.294,47.436c-0.348,-0.416 -0.458,-1.32 -0.472,-2.208c-0.02,-1.268 1.169,-1.676 2.173,-0.609c0.618,0.652 1.164,1.446 1.292,2.271c0.32,2.088 -2.189,1.511 -2.993,0.546m-9.984,0.003c-0.801,0.964 -3.313,1.545 -2.991,-0.549c0.13,-0.825 0.675,-1.619 1.292,-2.271c1.005,-1.067 2.192,-0.659 2.173,0.611c-0.014,0.886 -0.126,1.79 -0.474,2.209m11.081,-9.3l-12.481,0c-4.721,0 -8.554,3.348 -8.554,7.485c0,4.137 3.833,7.489 8.554,7.489l12.481,0c4.72,0 8.548,-3.352 8.548,-7.489c0.003,-4.137 -3.828,-7.485 -8.548,-7.485" style="fill-rule:nonzero;"/></svg>