<?xml version="1.0" encoding="UTF-8" standalone="no"?><!DOCTYPE svg PUBLIC "-//W3C//DTD SVG 1.1//EN" "http://www.w3.org/Graphics/SVG/1.1/DTD/svg11.dtd"><svg width="100%" height="100%" viewBox="0 0 353 208" version="1.1" xmlns="http://www.w3.org/2000/svg" xmlns:xlink="http://www.w3.org/1999/xlink" xml:space="preserve" style="fill-rule:evenodd;clip-rule:evenodd;stroke-linejoin:round;stroke-miterlimit:1.41421;"><path d="M0,115.236l3.709,27.472c0,0 11.219,0.8 17.81,0c14.275,18.378 46.506,18.775 68.272,29.662c-0.172,16.779 -19.328,22.041 -20.778,32.672c2.65,1.035 5.156,-4.312 7.475,-3.975c2.187,0.335 4.187,6.416 6.103,6.232c16.715,-1.519 24.55,-20.888 27.978,-37.897c28.865,3.622 12.525,23.853 5.915,37.137c3.413,-1.097 11.663,-5.809 14.757,-5.309c0,0 3.812,6.653 10.509,2.315c0.022,-11.578 6.9,-23.443 2.947,-34.143c31.303,-1.266 67.303,-4.257 96.503,-17.81c12.128,-5.643 24.694,-18.947 29.644,-2.99c8.25,26.565 -22.044,43.24 -26.675,54.943c1.368,0.338 6.753,-3.534 8.065,-3.281c1.341,0.21 1.594,4.569 -0.128,4.569c25.6,1.769 32.378,-23.494 36.588,-45.813c17.64,11.1 2.859,31.732 -2.969,44.525c6.378,-1.3 4.694,-1.046 7.431,2.994c23.406,5.178 26.019,-32.19 22.228,-51.956c-1.472,-7.938 -8.712,-10.088 -8.9,-16.359c-0.209,-8.107 7.469,-10.925 10.397,-16.316c5.372,-9.769 4.066,-18.675 8.903,-26.734c8.8,2.103 9.054,12.737 10.4,22.268c5.285,-3.075 2.363,-13.765 1.454,-19.281c11.724,-3.091 21.665,-22.991 7.434,-34.128c-8.041,-4.188 -15.872,0.947 -17.806,7.431c-13.182,-11.494 -13.772,-23.409 -23.757,-32.669c-33.762,-31.243 -67.575,-42.296 -126.94,-37.853c-59.325,4.463 -114.228,64.057 -117.997,64.569c2.65,-0.362 -22.172,-7.562 -28.191,-8.909c-6.487,-1.472 -11.387,-4.044 -14.862,-4.463c-0.8,13.75 22.209,24.463 23.79,35.622c2.819,20.041 -39.309,27.475 -39.309,27.475l0,0Z" style="fill-rule:nonzero;"/><path d="M50.253,94.87c0,-7.287 5.884,-13.134 13.163,-13.134c7.29,0 13.168,5.878 13.168,13.134c0,7.285 -5.94,13.163 -13.168,13.163c-7.279,0 -13.163,-5.878 -13.163,-13.163Z" style="fill-rule:nonzero;"/><path d="M51.172,100.992c0,-3.39 2.734,-6.109 6.119,-6.109c3.393,0 6.128,2.734 6.128,6.109c0,3.391 -2.763,6.119 -6.128,6.119c-3.385,0 -6.119,-2.728 -6.119,-6.119Z" style="fill-rule:nonzero;"/><path d="M61.084,124.205c0,-6.96 5.616,-12.541 12.566,-12.541c6.956,0 12.572,5.613 12.572,12.541c0,6.95 -5.672,12.559 -12.572,12.559c-6.95,0 -12.566,-5.609 -12.566,-12.559l0,0Z" style="fill-rule:nonzero;"/><path d="M4.294,124.214c0,-1.862 1.5,-3.356 3.362,-3.356c1.86,0 3.36,1.506 3.36,3.356c0,1.86 -1.516,3.366 -3.36,3.366c-1.862,0 -3.362,-1.506 -3.362,-3.366l0,0Z" style="fill-rule:nonzero;"/></svg>