<?xml version="1.0" encoding="UTF-8" standalone="no"?><!DOCTYPE svg PUBLIC "-//W3C//DTD SVG 1.1//EN" "http://www.w3.org/Graphics/SVG/1.1/DTD/svg11.dtd"><svg width="100%" height="100%" viewBox="0 0 63 75" version="1.1" xmlns="http://www.w3.org/2000/svg" xmlns:xlink="http://www.w3.org/1999/xlink" xml:space="preserve" style="fill-rule:evenodd;clip-rule:evenodd;stroke-linejoin:round;stroke-miterlimit:1.41421;"><path d="M32.778,62.863c-0.164,0 -0.297,-1.184 -0.297,-2.641l0,-0.368c0,-1.457 1.081,-3.128 2.316,-3.908c0.487,-0.306 0.885,-0.594 1.209,-0.855c1.131,-0.923 0.435,-2.862 -0.993,-3.163c-1.025,-0.22 -2.277,-0.362 -3.528,-0.323l-0.378,0c-1.249,-0.039 -2.502,0.103 -3.529,0.323c-1.427,0.301 -2.134,2.242 -1.007,3.169c0.321,0.26 0.714,0.543 1.195,0.848c1.233,0.781 2.313,2.452 2.313,3.909l0,0.368c0,1.457 -0.173,2.641 -0.387,2.641l-0.387,0c-0.004,0 -0.009,0.004 -0.013,0.004l3.795,0c-0.004,0 -0.007,-0.004 -0.011,-0.004l-0.298,0Z" style="fill-rule:nonzero;"/><path d="M25.978,44.413c0,-1.177 -0.958,-2.134 -2.131,-2.134c-1.175,0 -2.135,0.954 -2.135,2.134c0,1.174 0.96,2.133 2.135,2.133c1.173,0 2.131,-0.956 2.131,-2.133" style="fill-rule:nonzero;"/><path d="M37.995,42.323c-1.176,0 -2.133,0.958 -2.133,2.138c0,1.172 0.957,2.128 2.133,2.128c1.177,0 2.136,-0.953 2.133,-2.128c0,-1.18 -0.956,-2.138 -2.133,-2.138" style="fill-rule:nonzero;"/><path d="M8.69,12.115c0.002,0 0.002,-0.001 0.002,-0.001c1.352,-0.64 7.625,3.215 12.31,12.757c0.297,0.599 0.063,1.212 -0.478,1.542c-0.077,0.048 -0.161,0.089 -0.25,0.124c-0.567,0.222 -1.075,0.486 -1.533,0.774c-0.211,0.132 -0.409,0.272 -0.597,0.414c-0.015,0.012 -0.033,0.022 -0.048,0.033c-0.11,0.085 -0.209,0.174 -0.313,0.261c-0.086,0.073 -0.178,0.143 -0.26,0.217c-0.065,0.06 -0.137,0.114 -0.211,0.165c-0.006,0.005 -0.01,0.009 -0.015,0.012c-0.098,0.065 -0.201,0.119 -0.309,0.167c-0.519,0.23 -1.128,0.249 -1.575,-0.081c-6.069,-4.496 -8.052,-15.756 -6.723,-16.384m4.884,19.268c1.172,0.868 2.943,0.481 4.022,-0.499c1.364,-1.242 3.085,-2.391 5.25,-3.241c1.357,-0.534 2.032,-1.873 1.391,-3.182c-8.938,-18.201 -20.908,-25.553 -23.487,-24.331c-2.531,1.198 1.246,22.674 12.824,31.253" style="fill-rule:nonzero;"/><path d="M15.414,28.499c0.446,0.329 1.055,0.31 1.574,0.08c0.107,-0.048 0.211,-0.1 0.308,-0.165c0.006,-0.004 0.01,-0.009 0.015,-0.013c0.075,-0.05 0.147,-0.105 0.213,-0.166c0.081,-0.073 0.174,-0.144 0.259,-0.217c0.104,-0.086 0.203,-0.175 0.313,-0.259c0.015,-0.012 0.033,-0.023 0.049,-0.034c0.188,-0.142 0.385,-0.281 0.597,-0.415c0.456,-0.288 0.966,-0.55 1.533,-0.773c0.089,-0.035 0.172,-0.076 0.249,-0.124c0.539,-0.33 0.774,-0.943 0.477,-1.542c-4.684,-9.541 -10.957,-13.395 -12.311,-12.756c-1.327,0.63 0.655,11.888 6.724,16.384" style="fill-rule:nonzero;"/><path d="M17.312,28.401c0.074,-0.05 0.146,-0.105 0.211,-0.165c0.082,-0.073 0.174,-0.144 0.26,-0.217c-0.085,0.072 -0.177,0.144 -0.259,0.216c-0.066,0.06 -0.137,0.116 -0.212,0.166" style="fill-rule:nonzero;"/><path d="M18.741,27.31c0.457,-0.288 0.966,-0.55 1.533,-0.773c0.089,-0.035 0.172,-0.076 0.25,-0.124c-0.077,0.048 -0.16,0.089 -0.249,0.124c-0.568,0.223 -1.077,0.485 -1.534,0.773" style="fill-rule:nonzero;"/><path d="M15.413,28.499c0.447,0.329 1.056,0.311 1.575,0.08c-0.519,0.23 -1.128,0.249 -1.574,-0.08c-6.069,-4.496 -8.051,-15.754 -6.724,-16.384c-1.329,0.628 0.654,11.888 6.723,16.384" style="fill-rule:nonzero;"/><path d="M17.296,28.413c-0.097,0.066 -0.201,0.118 -0.308,0.167c0.107,-0.049 0.211,-0.101 0.308,-0.167" style="fill-rule:nonzero;"/><path d="M41.758,24.869c3.807,-7.752 8.664,-11.751 11.078,-12.633c0.557,-0.203 0.985,-0.242 1.238,-0.122c1.327,0.627 -0.653,11.885 -6.724,16.382c-0.078,0.058 -0.16,0.105 -0.247,0.142c-0.598,0.26 -1.371,0.049 -1.865,-0.401c-0.714,-0.651 -1.619,-1.256 -2.751,-1.699c-0.713,-0.279 -1.065,-0.982 -0.729,-1.669m-1.839,2.774c2.164,0.85 3.885,1.999 5.25,3.241c1.077,0.982 2.849,1.367 4.02,0.5c11.58,-8.58 15.359,-30.058 12.827,-31.254c-2.578,-1.222 -14.551,6.13 -23.487,24.331c-0.642,1.309 0.033,2.648 1.39,3.182" style="fill-rule:nonzero;"/><path d="M41.761,24.869c-0.336,0.687 0.016,1.389 0.729,1.668c1.133,0.444 2.035,1.047 2.751,1.698c0.494,0.45 1.264,0.662 1.862,0.403c0.086,-0.037 0.169,-0.083 0.244,-0.14c6.07,-4.498 8.052,-15.755 6.724,-16.382c-0.253,-0.121 -0.679,-0.083 -1.235,0.12c-2.414,0.884 -7.269,4.882 -11.075,12.633" style="fill-rule:nonzero;"/><path d="M42.487,26.538c1.133,0.444 2.036,1.047 2.751,1.699c0.494,0.449 1.267,0.661 1.865,0.401c-0.598,0.259 -1.368,0.047 -1.863,-0.402c-0.715,-0.651 -1.617,-1.254 -2.751,-1.699c-0.711,-0.279 -1.064,-0.982 -0.728,-1.669c3.806,-7.75 8.66,-11.749 11.075,-12.631c-2.414,0.88 -7.271,4.879 -11.078,12.632c-0.337,0.687 0.017,1.39 0.729,1.669" style="fill-rule:nonzero;"/><path d="M33.673,69.346c0,1.196 -0.464,2.172 -1.033,2.172l-0.517,0c-0.285,0 -0.517,-1.084 -0.517,-2.42c0,-1.336 -0.24,-2.419 -0.534,-2.419c-0.294,0 -0.532,1.083 -0.532,2.419c0,1.336 -0.224,2.42 -0.5,2.42l-0.5,0c-0.553,0 -1.003,-0.973 -1.003,-2.172l0,-4.312c0,-1.188 0.339,-2.146 0.755,-2.168c0.004,0 0.009,-0.003 0.013,-0.003l0.387,0c0.214,0 0.387,-1.184 0.387,-2.64l0,-0.369c0,-1.458 -1.08,-3.128 -2.313,-3.909c-0.482,-0.304 -0.874,-0.588 -1.196,-0.849c-1.126,-0.925 -0.418,-2.866 1.008,-3.168c1.026,-0.22 2.28,-0.362 3.53,-0.322l0.377,0c1.251,-0.04 2.503,0.102 3.529,0.322c1.426,0.302 2.122,2.241 0.992,3.162c-0.323,0.262 -0.722,0.551 -1.208,0.857c-1.236,0.779 -2.318,2.449 -2.318,3.907l0,0.369c0,1.456 0.134,2.64 0.299,2.64l0.297,0c0.004,0 0.007,0.003 0.011,0.003c0.324,0.022 0.586,0.98 0.586,2.168l0,4.312Zm-9.826,-27.067c1.173,0 2.131,0.957 2.131,2.134c0,1.177 -0.958,2.133 -2.131,2.133c-1.175,0 -2.135,-0.959 -2.135,-2.133c0,-1.18 0.96,-2.134 2.135,-2.134m14.148,4.31c-1.177,0 -2.132,-0.955 -2.132,-2.128c0,-1.179 0.955,-2.138 2.132,-2.138c1.177,0 2.132,0.959 2.132,2.138c0.003,1.175 -0.955,2.128 -2.132,2.128m9.177,2.389c-0.674,-1.334 0.912,-6.977 -0.522,-10.706c-1.437,-3.719 -5.542,-9.521 -15.546,-9.521c-10.006,0 -14.108,5.802 -15.542,9.521c-1.434,3.729 0.149,9.372 -0.527,10.706c-0.674,1.338 -8.271,7.179 -7.314,14.491c0.959,7.318 4.399,11.45 23.384,11.45c18.987,0 22.428,-4.132 23.388,-11.45c0.952,-7.316 -6.647,-13.153 -7.321,-14.491" style="fill-rule:nonzero;"/></svg>