<?xml version="1.0" encoding="UTF-8" standalone="no"?><!DOCTYPE svg PUBLIC "-//W3C//DTD SVG 1.1//EN" "http://www.w3.org/Graphics/SVG/1.1/DTD/svg11.dtd"><svg width="100%" height="100%" viewBox="0 0 313 297" version="1.1" xmlns="http://www.w3.org/2000/svg" xmlns:xlink="http://www.w3.org/1999/xlink" xml:space="preserve" style="fill-rule:evenodd;clip-rule:evenodd;stroke-linejoin:round;stroke-miterlimit:1.41421;"><path d="M282.429,38.219c0,3.706 -3,6.709 -6.706,6.709c-3.7,0 -6.703,-3.003 -6.703,-6.709c0,-3.703 3.003,-6.703 6.703,-6.703c3.706,0 6.706,3 6.706,6.703l0,0Z" style="fill-rule:nonzero;"/><path d="M274.438,44.131c-2.596,0 -4.696,-2.106 -4.696,-4.694c0,-2.593 2.109,-4.693 4.696,-4.693c2.588,0 4.688,2.1 4.688,4.693c0,2.588 -2.088,4.694 -4.688,4.694Zm-29.331,243.85c-8.031,1.235 -18.462,-1.659 -25.497,-3.725c-2.922,-0.862 -5.687,-1.659 -6.793,-1.659l-0.757,0.106l-0.737,-0.462c-10.05,-7.272 -15.747,-19.085 -16.966,-35.088l-0.144,-1.937l1.929,-0.104c12.746,-0.703 20.512,-12.318 28.006,-23.55c5.687,-8.518 11.053,-16.534 18.472,-20.081l0.628,-0.172c33.578,-3.443 52.422,-31.331 57.594,-85.231c1.534,-15.919 -3.172,-25.359 -8.154,-35.369c-2.3,-4.65 -4.7,-9.443 -6.584,-15.056l-0.625,-1.869l1.881,-0.575c2.01,-0.59 4.241,-2.047 6.588,-3.572c4.106,-2.637 8.728,-5.649 14.256,-5.649c1.538,0 3.047,0.234 4.566,0.706c-0.997,-4.81 -5.1,-8.403 -9.107,-11.91c-3.421,-2.997 -6.65,-5.822 -8.093,-9.39l-0.444,-1.132l0.841,-0.893c1.415,-1.535 3.44,-13.588 3.531,-19.278c-1.172,0.131 -3.819,1.737 -5.591,2.803c-1.937,1.184 -3.194,1.909 -4.228,2.137l-3.491,0.769l1.294,-3.325c0.741,-1.872 -0.034,-9.059 -1.75,-14.475c-1.919,0.787 -2.387,3.719 -2.606,8.991c-0.128,3.378 -0.234,6.05 -1.828,7.412l-1.513,1.288l-0.978,-1.26l-1.09,0.022c-3.069,0 -7.213,-1.316 -12.069,-11.6l-0.056,-0.112c-0.11,3.75 0.356,10.737 1.296,18.275l0.235,1.843l-1.831,0.278c-17.444,2.66 -27.866,14.569 -37.872,27.575c-3.075,4.01 -5.772,10.891 -8.622,18.185c-6.956,17.762 -15.616,39.875 -36.697,39.875c-1.625,0.212 -3.541,0.334 -5.472,0.334c-26.341,0 -52.916,-22.025 -72.312,-38.119c-4.719,-3.906 -9.172,-7.6 -12.994,-10.45l-0.416,-0.418c-1.39,-1.972 -2.915,-4.366 -4.544,-6.953c-7.353,-11.563 -17.428,-27.604 -30.04,-25.957c-3.119,0.4 -5.328,2.566 -7.891,5.06c-2.756,2.693 -5.884,5.753 -10.74,7.028c-14.894,3.628 -38.254,12.619 -37.682,21.309c0.591,8.916 33.857,21.96 54.691,28.075l-1.059,3.678c-0.194,-0.072 -19.838,-5.512 -29.922,-5.512c-3.578,0 -4.303,0.703 -4.325,0.744c0,0 -0.01,1.462 4.668,5.475c2.338,1.987 9.622,4.747 17.341,7.65c12.35,4.656 26.325,9.918 30.981,15.868l0.738,0.944l-0.431,1.344c-0.216,0.456 -0.794,1.228 -2.21,1.228c-1.781,0 -5.997,-1.169 -13.297,-3.213c-8.515,-2.393 -19.109,-5.378 -23.603,-5.378c4.766,6.769 23.8,22.463 31.097,28.225l0.438,0.478l4.084,6.554l-0.869,1.059c-2.653,3.253 11.231,20.294 15.947,24.303l7.513,6.416l-9.36,-3.153l-0.265,-0.075c-0.007,0.425 0.028,1.018 0.062,1.431c0.038,0.478 0.059,0.947 0.059,1.406c5.085,4.525 7.222,9.497 9.291,14.306c1.444,3.353 2.788,6.535 5.119,9.66c5.8,7.793 16.425,10.875 27.662,14.134c6.244,1.822 12.788,3.731 18.85,6.597l0.138,-1.156c16.3,1.759 40.303,-17.507 49.697,-31.575c12.247,-19.141 6.512,-35.181 -0.116,-53.756c-0.859,-2.391 -1.728,-4.822 -2.572,-7.288c-0.387,-1.128 -0.781,-2.275 -1.153,-3.431l-0.206,-0.641l3.644,-1.159c1.231,3.865 2.565,7.587 3.868,11.243c6.691,18.707 13.013,36.375 -0.275,57.119c-9.225,13.847 -30.803,31.578 -48.143,33.275c7.85,4.713 14.421,11.65 17.64,23.088c0.678,3.475 1.866,6.231 3.11,9.168c2.171,5.063 4.418,10.279 3.696,18.475l-0.053,0.657l-0.475,0.503c-2.275,2.334 -6.906,3.247 -11.847,4.187c-2.7,0.538 -5.787,1.119 -8.143,1.975c3.309,-0.287 6.859,-1.022 10.322,-1.709l0.137,-0.016c4.681,-0.972 9.541,-1.937 13.916,-1.937c4.165,0 7.478,0.865 10.137,2.684l1.413,0.947l-0.788,1.509c-0.74,1.416 -1.694,2.482 -2.615,3.532c-0.619,0.672 -1.188,1.297 -1.647,1.993c1.781,-0.159 3.415,-0.943 5.284,-1.834c2.244,-1.075 4.803,-2.303 7.981,-2.441c0.391,0 0.794,-0.018 1.175,-0.018c6.863,0 13.547,2.615 19.45,4.915c4.907,1.925 9.544,3.722 13.45,3.744c-0.562,-1.022 -0.909,-2.122 -0.825,-3.053c0.116,-1.241 0.966,-2.659 3.025,-2.888c1.51,-0.306 4.857,-0.287 8.807,-0.156c1.912,0.069 3.946,0.141 5.968,0.141c3.06,0 7.019,-0.141 9.966,-1.031c-0.466,-0.157 -0.95,-0.341 -1.456,-0.494c-2.078,-0.703 -4.46,-1.481 -5.81,-3.628" style="fill-rule:nonzero;"/><path d="M287.845,72.356c0,0 -71.591,62.806 -45.797,128.322c0,0 29.325,4.563 47.937,-34.603c0,0 22.785,-51.891 4.525,-81.672l-6.665,-12.047l0,0Z" style="fill-rule:nonzero;"/><path d="M265.292,25.137l0.356,-20.284l12.069,11.6c0,0 4.246,-13.884 8.015,-16.453c0,0 4.872,9.8 0.456,17.8l13.31,-5.709c0,0 3.64,8.921 -1.391,15.771c0,0 -9.831,3.604 -15.662,0c-5.832,-3.612 -17.153,-2.725 -17.153,-2.725l0,0Z" style="fill-rule:nonzero;"/><path d="M298.432,56.903l3.169,-15.95c0,0 7.603,6.016 11.169,13.741c0,0 -9.853,-0.528 -14.338,2.209l0,0Z" style="fill-rule:nonzero;"/></svg>