<?xml version="1.0" encoding="UTF-8" standalone="no"?><!DOCTYPE svg PUBLIC "-//W3C//DTD SVG 1.1//EN" "http://www.w3.org/Graphics/SVG/1.1/DTD/svg11.dtd"><svg width="100%" height="100%" viewBox="0 0 403 239" version="1.1" xmlns="http://www.w3.org/2000/svg" xmlns:xlink="http://www.w3.org/1999/xlink" xml:space="preserve" style="fill-rule:evenodd;clip-rule:evenodd;stroke-linejoin:round;stroke-miterlimit:1.41421;"><path d="M8.616,146.65l5.309,16.254l3.919,-11.963c1.872,0.844 3.822,1.703 5.844,2.588l4.25,13.056l3.234,-9.869c2.55,1.091 5.116,2.178 7.638,3.228l4.537,13.903l3.447,-10.528c8.291,3.466 15.406,6.525 18.931,8.388l-0.472,5.003l-9.856,3.462l9.181,4.069l-0.775,8.453l-8.406,2.956l7.813,3.472l-0.707,7.775l-12.009,4.232l11.175,4.968l-0.953,10.466c3.831,2.344 39.575,-27.709 86.744,-53.575l80.593,18.156c3.979,1.113 8.032,-1.55 9.063,-5.937l-41.913,-34.375c17.463,-6.494 35.469,-11.232 53.307,-12.825c7.915,1.422 59.89,-9.069 76.009,33.984l0.153,0.172l-13.337,55.462c-1.653,4.132 0.022,8.972 3.772,10.804l37.684,-39.91l-0.219,-0.356l50.081,-12.194c0.713,-4.45 -1.996,-8.703 -6.028,-9.478l-46.75,-13.631l-0.197,-0.425c-3.506,-8.881 -40.171,-49.697 -54.9,-60.828c-14.706,-11.347 -30.728,-21.894 -48.381,-29.797c-17.522,-8.003 -36.494,-13.659 -55.737,-16.175c-7.975,-1.11 -16.007,-1.594 -23.991,-1.569l-18.281,-53.528c-3.844,-1.616 -8.147,0.531 -9.594,4.784l-18.694,54.738c-13.843,3.522 -27.197,8.369 -39.856,14.325c-8.306,4.047 -16.25,8.728 -23.469,14.594c-7.234,5.821 -66.237,46.281 -55.465,53.668c1.65,1.085 4.2,2.466 7.306,4.003l0,0Z" style="fill-rule:nonzero;"/><path d="M130.822,104.525c2.481,2.919 4.603,6.025 6.381,9.325c1.772,3.288 3.172,6.794 4.204,10.491c0.959,3.725 1.64,7.616 1.296,12.041c-3.887,-2.175 -6.746,-4.907 -9.284,-7.785c-2.503,-2.912 -4.619,-6.018 -6.378,-9.322c-1.744,-3.296 -3.163,-6.803 -4.181,-10.503c-0.978,-3.734 -1.663,-7.615 -1.322,-12.028c3.875,2.178 6.709,4.897 9.284,7.781Z" style="fill-rule:nonzero;"/><path d="M109.463,110.641c2.503,2.913 4.619,6.028 6.365,9.331c1.797,3.303 3.191,6.772 4.219,10.466c0.991,3.737 1.675,7.616 1.3,12.056c-3.887,-2.165 -6.731,-4.897 -9.284,-7.787c-2.497,-2.916 -4.619,-6.007 -6.372,-9.322c-1.747,-3.306 -3.172,-6.794 -4.188,-10.488c-0.959,-3.728 -1.643,-7.606 -1.309,-12.043c3.847,2.178 6.709,4.912 9.269,7.787l0,0Z" style="fill-rule:nonzero;"/><path d="M36.303,113.279c3.294,0 5.929,2.659 5.929,5.946c0,3.285 -2.635,5.922 -5.929,5.922c-3.275,0 -5.928,-2.637 -5.928,-5.922c0,-3.287 2.653,-5.946 5.928,-5.946Z" style="fill-rule:nonzero;"/></svg>