<?xml version="1.0" encoding="UTF-8" standalone="no"?><!DOCTYPE svg PUBLIC "-//W3C//DTD SVG 1.1//EN" "http://www.w3.org/Graphics/SVG/1.1/DTD/svg11.dtd"><svg width="100%" height="100%" viewBox="0 0 337 274" version="1.1" xmlns="http://www.w3.org/2000/svg" xmlns:xlink="http://www.w3.org/1999/xlink" xml:space="preserve" style="fill-rule:evenodd;clip-rule:evenodd;stroke-linejoin:round;stroke-miterlimit:1.41421;"><path d="M300.453,106.225c0,6.634 -5.381,12.019 -12.019,12.019c-6.634,0 -12.015,-5.385 -12.015,-12.019c0,-6.637 5.381,-12.019 12.015,-12.019c6.638,0 12.019,5.382 12.019,12.019Z" style="fill-rule:nonzero;"/><path d="M269.303,105.597c0,46.897 -35.219,84.916 -78.666,84.916l-96.837,0c-43.447,0 -78.669,-38.019 -78.669,-84.916c0,-46.9 35.222,-84.922 78.669,-84.922l96.837,0c43.447,0 78.666,38.022 78.666,84.922l0,0Z" style="fill-rule:nonzero;"/><path d="M206.5,186.744c4.903,34.815 11.794,62.203 16.031,78.025c2.566,9.615 4.819,9.178 7.056,9.178c2.25,0 6.482,0 8.278,0c4.263,0 3.372,-13.3 3.372,-13.3c0,0 -5.184,-47.281 -3.675,-83.991c-7.34,6.416 -22.762,10.088 -31.062,10.088Z" style="fill-rule:nonzero;"/><path d="M169.009,193.709c1.766,32.038 6.197,57.232 9.019,71.794c1.703,8.86 3.991,8.444 6.234,8.444c2.26,0 6.488,0 8.275,0c4.26,0 4.579,-12.244 4.579,-12.244c0,0 -0.926,-43.49 3.865,-77.259c-7.909,5.906 -23.672,9.265 -31.972,9.265l0,0Z" style="fill-rule:nonzero;"/><path d="M68.525,175.003c4.906,37.063 16.528,72.322 20.766,89.16c2.584,10.25 4.818,9.759 7.075,9.759c2.249,0 8.018,0 9.812,0c2.444,0 1.644,-12.013 1.644,-12.013c0,0 -8.647,-33.459 -7.138,-72.534c-10.125,-0.825 -24.756,-6.378 -32.159,-14.372l0,0Z" style="fill-rule:nonzero;"/><path d="M36.734,161.553c3.819,30.381 5.938,80.591 10.003,100.71c2.435,12.243 5.163,11.684 7.863,11.684c2.728,0 4.225,0 6.381,0c5.122,0 4.941,-16.931 4.941,-16.931c0,0 1.047,-41.125 7.665,-87.966c-10.15,-5.747 -27.128,-9.3 -36.853,-7.497Z" style="fill-rule:nonzero;"/><path d="M123.522,0c-16.438,0 -30.507,7.269 -39.638,19.453c-1.212,-0.087 -2.409,-0.134 -3.637,-0.134c-18.438,0 -35.7,9.234 -45.022,24.087c-2.459,3.907 -4.275,8.047 -5.441,12.31c-18.759,6.947 -29.784,25.184 -29.784,42.322c0,13.046 4.966,24.49 13.669,32.887c-1.441,8.413 -0.391,16.894 3.247,24.894c7.378,16.209 24.587,27.484 43.771,29.065c1.632,2.397 3.469,4.713 5.538,6.891c10.494,11.063 25.065,17.391 40,17.391c9.775,0 19.256,-2.675 27.984,-7.753c9.544,6.815 21.338,10.615 34.335,10.615c14.959,0 28.984,-5.356 38.453,-14.475c2.725,0.403 5.478,0.638 8.303,0.638c16.872,0 32.731,-7.585 42.428,-20.278c7.869,-10.266 11.175,-22.935 9.594,-36.376c3.678,-12.184 1.44,-24.146 -0.266,-33.409c-0.437,-2.4 -1.047,-5.659 -1.29,-7.965c3.309,-3.172 5.671,-7.229 6.79,-11.729c3.316,-13.515 -0.316,-28.287 -9.931,-40.55c-10.856,-13.853 -27.922,-22.665 -44.991,-23.368c-1.909,-3.188 -4.012,-5.807 -6.009,-7.928c-9.544,-10.085 -23.775,-15.857 -39.05,-15.857c-8.763,0 -17.069,1.85 -24.269,5.21c-7.672,-3.872 -16.131,-5.941 -24.784,-5.941l0,0Zm0,24.15c9.006,0 18.462,4.238 25.244,12.487c3.506,-7.459 13.509,-11.768 23.809,-11.768c14.19,0 28.922,8.215 27.828,27.815c4.878,-2.85 10.003,-4.093 15.041,-4.093c19.456,0 37.465,18.49 33.634,34.075c-18.112,12.462 3.322,39.337 -6.806,56.243c6.059,22.325 -10.566,35.104 -26.972,35.104c-7.55,0 -15.047,-2.7 -20.278,-8.41c2.481,13.375 -11.394,22.263 -26.478,22.263c-12.644,0 -26.157,-6.26 -31.513,-21.303c-9.884,13.415 -20.909,18.443 -30.806,18.443c-16.763,0 -30.272,-14.4 -29.628,-26.647c-3.419,1.732 -7.328,2.535 -11.31,2.535c-18.912,0 -39.656,-18.091 -20.303,-40.294c-11.103,-2.188 -20.837,-9.334 -20.837,-22.587c0,-7.719 6.693,-21.085 22.384,-21.085c2.544,0 5.344,0.366 8.363,1.144c-8.96,-18.547 7.253,-34.591 25.353,-34.591c5.772,0 11.722,1.616 17.14,5.319c2.372,-16.663 13.816,-24.65 26.135,-24.65l0,0Z" style="fill-rule:nonzero;"/><path d="M287.6,114.638c-4.235,-0.591 -7.194,-4.557 -6.6,-8.85c0.59,-4.285 4.5,-7.269 8.731,-6.675c4.203,0.618 7.166,4.568 6.572,8.853c-0.594,4.29 -4.5,7.268 -8.703,6.672Zm44.853,10.909c5.119,-21.269 -23.372,-88.01 -101.669,-64.438c-39.925,-18.315 -58.25,14.047 -58.475,22.191c-0.253,8.866 30.778,9.606 41.256,8.481c-2.709,3.76 -0.187,0.772 -1.859,12.36c-2.09,14.518 2.263,26.528 11.675,39.243c17.472,23.507 137.944,29.463 109.072,-17.837l0,0Z" style="fill-rule:nonzero;"/><path d="M269.419,118.244c0,6.637 -5.385,12.015 -12.022,12.015c-6.638,0 -12.019,-5.378 -12.019,-12.015c0,-6.631 5.381,-12.019 12.019,-12.019c6.637,0 12.022,5.388 12.022,12.019l0,0Z" style="fill-rule:nonzero;"/></svg>