<?xml version="1.0" encoding="UTF-8" standalone="no"?><!DOCTYPE svg PUBLIC "-//W3C//DTD SVG 1.1//EN" "http://www.w3.org/Graphics/SVG/1.1/DTD/svg11.dtd"><svg width="100%" height="100%" viewBox="0 0 280 272" version="1.1" xmlns="http://www.w3.org/2000/svg" xmlns:xlink="http://www.w3.org/1999/xlink" xml:space="preserve" style="fill-rule:evenodd;clip-rule:evenodd;stroke-linejoin:round;stroke-miterlimit:1.41421;"><path d="M71.999,137.787c-2.996,12.528 -12.1,25.112 -12.1,25.112c0,0 -32.643,3.366 -40.906,-10.968l-10.431,-18.038c8.587,0.541 19.888,-3.809 29.272,-9.209c2.237,-1.303 4.462,-2.728 6.637,-4.25c2.175,0.15 23.319,-11.75 24.819,-11.291c5.647,1.706 6.438,15.031 2.709,28.644Z" style="fill-rule:nonzero;"/><path d="M52.109,115.968c-0.313,-8.815 -0.759,-1.659 3.394,-3.428c4.371,-1.875 3,-3.959 9.512,-3.959c1.2,0 3.081,-4.275 4.275,-4.235c0.075,-1.572 -4.475,-11.45 -5.266,-12.822c-9.59,-16.622 -26.796,-15.325 -43.403,-5.734l-12.893,-17.462l-3.294,11.421l12.006,8.732c-13.987,9.506 -21.437,22.64 -12.659,37.806c4.293,7.444 18.712,4.575 32.484,-2.306l15.844,-8.013l0,0Z" style="fill-rule:nonzero;"/><path d="M277.781,79.462c-13.294,-18.741 -40.028,-25.259 -50.282,-10.159c-7.171,10.553 -3.018,26.781 12.447,47.059c19.413,25.372 23.06,46.322 16.629,68.737c-13.747,47.844 -52.75,54.454 -89.538,63.21c-22.203,17.29 -52.191,16.525 -60.416,21.765c-3.537,2.257 -12.506,2.066 -14.328,0.872c-1.834,-1.197 3.5,-3.431 5.006,-4.347c-4.125,0.129 -8.118,1.429 -11.412,2.625c0.869,-3.465 6.8,-11.312 9.891,-11.109c-5.744,-5.503 -22.354,-4.647 -35.666,-0.653c-0.238,-4.575 1.684,-8.409 5.538,-10.388c4.324,-2.243 7.262,-3.287 15.843,-4.671c0.082,-8.994 -12.659,-17.572 -14.518,-29.663c-4.154,-26.753 11.781,-30.741 14.312,-47.95c5.312,-36.194 -22.2,-46.687 -29.178,-48.822c-4.106,-1.25 -12.472,-2.444 -15.756,-0.547c-0.216,-6.228 3.853,-10.781 6.178,-11.756c12.584,-5.378 30.672,0.894 35.022,-2.881c0.272,-6.981 2.309,-17.506 3.59,-21.066c1.678,-4.712 -15.784,3.306 -24.853,-5.472c-3.1,-2.959 -10.159,-4.837 -10.259,-10.7c-0.197,-11.665 19.668,-25.437 38.125,-33.722c-0.385,-2.456 -0.191,-19.756 6.025,-17.072c6.237,2.682 10.512,9.263 10.512,9.263c0,0 7.553,-25.934 13.472,-21.506c5.9,4.415 7.61,28.49 9.891,32.506c2.309,4.025 7.072,3.612 11.809,14.709c7.231,16.938 -2.497,21.278 4.475,33.532c13.047,22.965 54.741,63.884 51.644,113.531c-0.531,8.609 -2.038,16.003 -4.063,22.6l0.066,0.031c24.041,-66.659 -20.906,-107.94 -36.309,-151.319c6.6,-26.075 21.671,-49.403 49.572,-58.187c41.034,-12.894 86.231,19.403 76.531,71.55l0,0Z" style="fill-rule:nonzero;"/><path d="M84.59,44.59c-1.516,-2.637 -6.084,-2.856 -10.172,-0.488c-4.087,2.363 -6.156,6.407 -4.634,9.041c1.522,2.635 6.059,2.881 10.159,0.516c4.075,-2.363 6.157,-6.422 4.647,-9.069l0,0Z" style="fill-rule:nonzero;"/><path d="M73.615,45.456c-2.59,1.496 -3.75,4.347 -2.59,6.359c1.15,2.009 4.193,2.416 6.8,0.922c2.609,-1.494 3.775,-4.331 2.609,-6.356c-1.169,-2.01 -4.21,-2.444 -6.819,-0.925l0,0Z" style="fill-rule:nonzero;"/><path d="M105.715,26.515l6.344,-17.484l5.815,23.331l-12.159,-5.847l0,0Z" style="fill-rule:nonzero;"/><path d="M88.278,27.493l2.64,-8.728l6.875,7.75l-9.515,0.978l0,0Z" style="fill-rule:nonzero;"/><path d="M46.628,66.159l5.706,-1.944l-2.853,5.344l-2.853,-3.4l0,0Z" style="fill-rule:nonzero;"/><path d="M58.043,75.674c0,0 10.685,-4.212 12.535,-7.987l-6.272,10.472l-6.263,-2.485Z" style="fill-rule:nonzero;"/><path d="M196.015,9.778c0,0 -29.653,21.728 -17.753,58.55c11.888,36.812 20.606,91.915 17.753,110.815c0,0 -8.325,-44.05 -28.984,-79.644c-20.663,-35.587 -30.547,-52.937 28.984,-89.721l0,0Z" style="fill-rule:nonzero;"/><path d="M75.728,133.234c0,0 33.687,32.447 22.065,78.294c-11.634,45.843 -16.909,34.056 -16.909,34.056c0,0 1.125,-11.063 -11.594,-23.685c0,0 -9.547,-15.265 1.288,-34.825c10.828,-19.559 12.165,-37.909 5.15,-53.84Z" style="fill-rule:nonzero;"/></svg>