<?xml version="1.0" encoding="UTF-8" standalone="no"?><!DOCTYPE svg PUBLIC "-//W3C//DTD SVG 1.1//EN" "http://www.w3.org/Graphics/SVG/1.1/DTD/svg11.dtd"><svg width="100%" height="100%" viewBox="0 0 65 70" version="1.1" xmlns="http://www.w3.org/2000/svg" xmlns:xlink="http://www.w3.org/1999/xlink" xml:space="preserve" style="fill-rule:evenodd;clip-rule:evenodd;stroke-linejoin:round;stroke-miterlimit:1.41421;"><path d="M51.45,45.812c-1.183,-2.677 -3.858,-4.557 -6.969,-4.557c-2.593,0 -4.882,1.31 -6.261,3.293c-5.051,-2.114 -10.689,-5.94 -14.945,-12.869c1.775,-1.396 2.938,-3.538 2.938,-5.967c0,-4.104 -3.27,-7.44 -7.341,-7.595c3.901,-3.142 23.139,-18.117 35.591,-18.117c2.834,0 5.314,0.775 7.184,2.643c9.734,9.733 -6.271,36.881 -10.197,43.169" style="fill-rule:nonzero;"/><path d="M37.144,46.917c-0.564,-0.567 -1.245,-1.068 -2.02,-1.46c-4.037,-2.052 -9.15,-5.53 -12.637,-11.047c-0.374,-0.596 -0.8,-1.124 -1.26,-1.572c-0.826,0.306 -1.71,0.498 -2.641,0.498c-1.349,0 -2.599,-0.381 -3.7,-1c-0.122,0.112 -0.241,0.224 -0.36,0.353c-2.549,2.819 -5.256,6.942 -6.075,12.273c-0.669,3.847 -5.019,8.531 -7.696,8.531c-2.676,0 8.365,7.36 12.379,-11.711c1.338,-4.85 7.695,-4.959 5.018,-0.221c-2.673,4.741 -9.197,15.616 -16.556,19.292c-7.359,3.681 12.713,-3.846 19.905,-16.308c1.338,-2.928 4.183,0.594 2.176,2.596c-2.008,2.004 -10.938,9.395 -11.491,14.648c-0.555,5.253 1.452,-5.285 16.506,-12.645c2.679,-1.339 4.685,2.34 1.005,4.349c-3.682,2.008 -15.816,9.365 -13.847,15.389c0.966,2.676 2.972,-6.189 12.508,-9.367c4.137,-1.379 7.147,-3.735 9.23,-5.958c0.181,-0.195 0.336,-0.391 0.476,-0.594c-0.756,-1.186 -1.209,-2.579 -1.209,-4.083c0,-0.683 0.119,-1.333 0.289,-1.963" style="fill-rule:nonzero;"/><path d="M18.589,29.962c0.58,0 1.132,-0.119 1.636,-0.328c0.263,-0.111 0.513,-0.247 0.747,-0.405c0.238,-0.16 0.459,-0.352 0.659,-0.559c0.744,-0.765 1.205,-1.805 1.205,-2.956c0,-2.247 -1.747,-4.065 -3.957,-4.219c-0.098,-0.007 -0.19,-0.028 -0.29,-0.028c-0.2,0 -0.392,0.031 -0.584,0.06c-0.286,0.037 -0.559,0.103 -0.824,0.198c-1.651,0.58 -2.842,2.139 -2.842,3.989c0.002,2.345 1.903,4.248 4.25,4.248" style="fill-rule:nonzero;"/><path d="M48.608,47.91c-0.073,-0.303 -0.179,-0.592 -0.31,-0.864c-0.686,-1.424 -2.131,-2.414 -3.817,-2.414c-1.107,0 -2.107,0.433 -2.864,1.128c-0.222,0.204 -0.425,0.427 -0.6,0.672c-0.165,0.236 -0.31,0.485 -0.427,0.753c-0.225,0.517 -0.358,1.091 -0.358,1.695c0,2.345 1.903,4.246 4.249,4.246c2.346,0.002 4.249,-1.9 4.249,-4.246c0,-0.039 -0.01,-0.077 -0.013,-0.114c-0.009,-0.295 -0.046,-0.579 -0.109,-0.856" style="fill-rule:nonzero;"/></svg>