<?xml version="1.0" encoding="UTF-8" standalone="no"?><!DOCTYPE svg PUBLIC "-//W3C//DTD SVG 1.1//EN" "http://www.w3.org/Graphics/SVG/1.1/DTD/svg11.dtd"><svg width="100%" height="100%" viewBox="0 0 248 286" version="1.1" xmlns="http://www.w3.org/2000/svg" xmlns:xlink="http://www.w3.org/1999/xlink" xml:space="preserve" style="fill-rule:evenodd;clip-rule:evenodd;stroke-linejoin:round;stroke-miterlimit:1.41421;"><path d="M149.028,81.541c-0.653,1.29 -1.959,2.093 -3.397,2.093c-0.587,0 -1.15,-0.134 -1.678,-0.403c-4.003,-2.009 -7.859,-5.078 -11.569,-8.056c-2.331,-1.856 -4.687,-3.75 -6.997,-5.3c-0.84,-0.55 -1.412,-1.409 -1.612,-2.397c-0.203,-0.99 0,-1.997 0.566,-2.837c1.112,-1.669 3.556,-2.153 5.231,-1.044c1.094,0.716 2.619,1.063 4.25,1.425c1.944,0.431 3.934,0.875 5.34,2.009c1.554,1.247 2.691,2.613 3.797,3.938c1.4,1.669 2.604,3.115 4.357,3.99c1.893,0.938 2.628,4.729 1.712,6.582l0,0Zm54.631,139.409c0.544,-8.238 2.535,-50.516 -11.109,-74.74l-2.022,-3.572l3.741,-1.725c1.987,-0.919 7.503,-2.535 17.878,-5.563c10.331,-3.003 29.222,-8.497 35.747,-11.431c-4.832,-7.778 -20.007,-13.531 -33.432,-18.625c-11.096,-4.203 -21.559,-8.166 -27.718,-13.441c-6.432,-5.49 -11.413,-10.634 -16.213,-15.619c-8.015,-8.275 -14.856,-15.362 -25.587,-21.012c-3.813,-1.991 -11.9,-3.097 -22.794,-3.097c-7.609,0 -13.806,0.528 -13.869,0.528l-1.744,0.15l-1.243,-1.228c-17.632,-17.3 -29.991,-19.206 -38.163,-20.463c-3.859,-0.609 -7.194,-1.124 -10.062,-2.956c-2.638,-1.687 -6.338,-5.369 -11.016,-10.012c-6.428,-6.391 -18.272,-18.144 -22.906,-18.144c-5.906,0.656 -8.506,5.291 -8.891,15.991l-0.072,1.756l0.513,-0.238l-0.753,6.579c-0.05,0.484 -0.147,1.165 -0.372,1.862c1.062,4.022 2.687,6.919 4.403,9.991c1.747,3.109 3.547,6.303 4.847,10.734l0.181,0.622l-0.037,0.628c-0.21,4.538 -3.116,7.347 -7.575,7.347c-2.525,0 -5.279,-0.822 -8.185,-1.675c-3.075,-0.913 -5.744,-1.462 -7.206,-1.487c4.391,8.424 22.962,41.724 60.384,80.962c32.447,24.9 16.966,115.244 10.832,144.869c13.15,-6.316 43.325,-19.31 68.965,-19.31c13.947,0 24.738,3.875 32.035,11.529c9.862,10.346 20.409,15.606 31.356,15.625c5.225,0 9.534,-1.223 12.44,-2.385c-9.003,-13.231 -11.743,-50.766 -12.374,-62.128l0.021,-0.322l0,0Z" style="fill-rule:nonzero;"/><path d="M36.528,30.85c-0.575,0 -1.041,-0.466 -1.041,-1.041c0,-0.574 0.466,-1.04 1.041,-1.04c0.572,0 1.038,0.466 1.038,1.04c0,0.575 -0.466,1.041 -1.038,1.041Z" style="fill-rule:nonzero;"/><path d="M31.303,25.791c-0.55,0 -0.994,-0.444 -0.994,-0.991c0,-0.547 0.444,-0.994 0.994,-0.994c0.544,0 0.991,0.447 0.991,0.994c0,0.547 -0.447,0.991 -0.991,0.991l0,0Z" style="fill-rule:nonzero;"/><path d="M31.303,34.06c-0.55,0 -0.994,-0.444 -0.994,-0.991c0,-0.547 0.444,-0.994 0.994,-0.994c0.544,0 0.991,0.447 0.991,0.994c0,0.547 -0.447,0.991 -0.991,0.991l0,0Z" style="fill-rule:nonzero;"/><path d="M188.006,130.006l0,-31.481l35.413,20.156l-35.413,11.325l0,0Z" style="fill-rule:nonzero;"/><path d="M74.522,154.819c0,0 68.587,17.506 86.35,107.569c0,0 -39.781,-8.954 -89.656,15.553l3.306,-123.122l0,0Z" style="fill-rule:nonzero;"/><path d="M134.209,65.291c4.194,2.875 6.363,6.987 4.853,9.187c-1.512,2.2 -6.131,1.66 -10.321,-1.215c-4.185,-2.869 -6.357,-6.988 -4.847,-9.188c1.509,-2.2 6.131,-1.653 10.315,1.216l0,0Z" style="fill-rule:nonzero;"/><path d="M14.256,15.991l13.335,0c0,0 2.378,-13.582 -1.032,-14.788c-3.412,-1.203 -13.043,0.678 -12.303,14.788Z" style="fill-rule:nonzero;"/></svg>