<?xml version="1.0" encoding="UTF-8" standalone="no"?><!DOCTYPE svg PUBLIC "-//W3C//DTD SVG 1.1//EN" "http://www.w3.org/Graphics/SVG/1.1/DTD/svg11.dtd"><svg width="100%" height="100%" viewBox="0 0 840 739" version="1.1" xmlns="http://www.w3.org/2000/svg" xmlns:xlink="http://www.w3.org/1999/xlink" xml:space="preserve" style="fill-rule:evenodd;clip-rule:evenodd;stroke-linejoin:round;stroke-miterlimit:1.41421;"><path d="M771.929,356.004c0.566,-31.922 51.357,-32.2 63.869,-8.457c15.834,30.05 -25.803,67.247 -56.056,58.532c-18.978,-5.466 -21.975,-28.125 -7.813,-50.075" style="fill:#8a4533;fill-rule:nonzero;"/><path d="M539.117,570.066c9.943,19.3 24.396,34.397 15.625,56.25c-7.304,18.194 -34.079,28.478 -34.375,43.75c-0.419,21.425 33.321,15.244 45.312,14.063c26.975,-2.657 57.3,-2.207 63.75,-35.897c8.878,-46.366 -29.584,-81.278 -90.312,-78.166" style="fill:#8a4533;fill-rule:nonzero;"/><path d="M176.617,449.754c-2.266,19.859 8.181,45.962 11.278,65.631c3.265,20.722 7.909,41.075 11.812,62.147c7.653,41.325 8.772,67.997 -26.215,95.306c-12.822,10.009 -33.597,25.119 -12.494,37.462c15.503,9.072 43.85,6.513 60.894,3.9c23.631,-3.621 43.643,-10.381 51.165,-34.596c6.213,-19.997 -4.031,-62.463 20.753,-70.163c26.503,-8.234 33.253,36.791 36.013,53.984c1.806,11.269 3.184,18.135 -4.038,26.16c-6.772,7.525 -29.097,13.062 -27.378,27.947c3.178,27.518 71.431,21.987 89.088,16.668c49.375,-14.875 36.215,-63.112 31.503,-101.646c-6.35,-51.932 73.703,-49.916 109.787,-51.61c23.819,-1.115 44.719,2.535 59.435,22.6c9.74,13.288 26.59,38.538 19.081,53.888c-7.747,15.834 -30.319,23.065 -33.744,42.053c-4.453,24.681 23.381,33.497 42.756,35.481c48.338,4.95 92.144,-8.675 109.597,-58.006c11.225,-31.735 18.328,-65.413 28.819,-97.522c10.15,-31.069 29.475,-57.978 37.634,-89.375c16.882,-64.966 6.479,-137.953 -36.096,-189.994c-44.447,-54.331 -104.866,-78.584 -174.888,-75.422c-56.459,2.55 -88.95,56.257 -121.531,95.75c-29.2,35.397 -57.538,67.757 -100.519,87.332c-34.053,15.506 -77.341,27.546 -114.4,33.7c-25.191,4.184 -50.987,10.525 -68.312,8.325" style="fill:#955748;fill-rule:nonzero;"/><path d="M167.242,88.816c0,-33.962 -12.294,-64.072 -48.091,-73.047c-37.103,-9.306 -77.144,1.341 -101.866,30.86c-22.431,26.784 -21.072,65.69 -7.09,96.034c8.622,18.716 35.572,54.969 61.822,44.35c9.637,-3.9 21.965,-24.563 29.681,-32.647c10.847,-11.369 22.494,-21.731 34.019,-32.462c11.303,-10.525 21.015,-20.625 31.525,-33.088" style="fill:#955748;fill-rule:nonzero;"/><path d="M153.179,126.316c13.097,-50.553 -46.9,-91.097 -85.291,-53.184c-30.034,29.662 -11.981,72.297 21.31,90.293c14.872,8.038 17.54,3.832 31.562,-7.384c10.647,-8.519 24.46,-15.269 32.419,-29.725" style="fill:#fac065;fill-rule:nonzero;"/><path d="M445.312,76.316c0,-33.962 12.294,-64.072 48.091,-73.047c37.103,-9.306 77.144,1.341 101.866,30.86c22.431,26.784 21.072,65.69 7.09,96.034c-8.622,18.716 -35.572,54.969 -61.822,44.35c-9.637,-3.9 -21.965,-24.563 -29.681,-32.647c-10.847,-11.369 -22.494,-21.731 -34.019,-32.462c-11.303,-10.525 -21.015,-20.625 -31.525,-33.088" style="fill:#955748;fill-rule:nonzero;"/><path d="M459.375,113.816c-13.097,-50.553 46.9,-91.097 85.291,-53.184c30.034,29.662 11.981,72.297 -21.31,90.293c-14.872,8.038 -17.54,3.832 -31.562,-7.384c-10.647,-8.519 -24.46,-15.269 -32.419,-29.725" style="fill:#fac065;fill-rule:nonzero;"/><path d="M271.929,35.691c0,0 -115.625,-3.125 -193.75,104.688c-81.641,112.662 -48.437,242.187 45.313,295.312c93.75,53.125 262.5,75 362.5,6.25c100,-68.75 145.312,-150 104.687,-250c-40.625,-100 -132.812,-143.75 -203.125,-151.562c-70.312,-7.813 -115.625,-4.688 -115.625,-4.688" style="fill:#a16a5c;fill-rule:nonzero;"/><clipPath id="_clip1"><path d="M271.93,35.691c0,0 -115.625,-3.125 -193.75,104.688c-81.641,112.662 -48.438,242.187 45.309,295.312c93.753,53.125 262.503,75 362.503,6.25c100,-68.75 145.313,-150 104.685,-250c-40.622,-100 -132.81,-143.75 -203.122,-151.562c-39.06,-4.341 -70.407,-5.304 -90.553,-5.304c-16.122,0 -25.072,0.616 -25.072,0.616Z"/></clipPath><g clip-path="url(#_clip1)"><path d="M178.179,474.754c-36.734,-38.416 -19.237,-73.182 14.069,-105.035c26.678,-25.515 60.387,-41.156 95.306,-46.528c81.25,-12.5 152.538,43.334 164.019,117.572c6.244,40.375 -65.253,51.45 -94.575,56.509c-27.081,4.675 -57.763,6.547 -85.085,2.541c-28.368,-4.163 -53.65,-16.281 -93.734,-25.059" style="fill:#fac065;fill-rule:nonzero;"/></g><path d="M212.554,301.837c0,20.134 -16.322,36.459 -36.459,36.459c-20.135,0 -36.457,-16.325 -36.457,-36.459c0,-20.134 16.322,-36.459 36.457,-36.459c20.137,0 36.459,16.325 36.459,36.459" style="fill:#fff;fill-rule:nonzero;"/><path d="M197.701,301.837c0,11.931 -9.672,21.606 -21.606,21.606c-11.932,0 -21.603,-9.675 -21.603,-21.606c0,-11.931 9.671,-21.606 21.603,-21.606c11.934,0 21.606,9.675 21.606,21.606" style="fill:#1d1d1b;fill-rule:nonzero;"/><path d="M189.008,293.735c0,2.516 -2.041,4.556 -4.556,4.556c-2.519,0 -4.56,-2.04 -4.56,-4.556c0,-2.515 2.041,-4.556 4.56,-4.556c2.515,0 4.556,2.041 4.556,4.556" style="fill:#fff;fill-rule:nonzero;"/><path d="M463.596,299.754c0,20.134 -16.322,36.459 -36.459,36.459c-20.135,0 -36.457,-16.325 -36.457,-36.459c0,-20.135 16.322,-36.46 36.457,-36.46c20.137,0 36.459,16.325 36.459,36.46" style="fill:#fff;fill-rule:nonzero;"/><path d="M448.742,299.754c0,11.931 -9.671,21.606 -21.606,21.606c-11.931,0 -21.603,-9.675 -21.603,-21.606c0,-11.932 9.672,-21.607 21.603,-21.607c11.935,0 21.606,9.675 21.606,21.607" style="fill:#1d1d1b;fill-rule:nonzero;"/><path d="M440.05,291.652c0,2.515 -2.041,4.556 -4.556,4.556c-2.519,0 -4.56,-2.041 -4.56,-4.556c0,-2.516 2.041,-4.557 4.56,-4.557c2.515,0 4.556,2.041 4.556,4.557" style="fill:#fff;fill-rule:nonzero;"/><path d="M346.412,346.345c-12.703,-16.169 -87.812,-20.46 -83.428,11.315c4.216,30.585 39.291,58.7 64.238,32.169c8.681,-9.231 28.89,-31.141 19.19,-43.484" style="fill:#2d2317;fill-rule:nonzero;"/></svg>