<?xml version="1.0" encoding="UTF-8" standalone="no"?><!DOCTYPE svg PUBLIC "-//W3C//DTD SVG 1.1//EN" "http://www.w3.org/Graphics/SVG/1.1/DTD/svg11.dtd"><svg width="100%" height="100%" viewBox="0 0 297 297" version="1.1" xmlns="http://www.w3.org/2000/svg" xmlns:xlink="http://www.w3.org/1999/xlink" xml:space="preserve" style="fill-rule:evenodd;clip-rule:evenodd;stroke-linejoin:round;stroke-miterlimit:1.41421;"><path d="M128.204,226.605c-0.782,22.569 3.221,43.134 -3.013,65.575c-1.078,3.881 4.95,5.537 6.025,1.662c2.738,-9.85 3.863,-19.825 4.441,-30.009c0.709,-12.534 -1.635,-24.75 -1.203,-37.228c0.137,-4.022 -6.113,-4.019 -6.25,0" style="fill:#f9b13f;fill-rule:nonzero;"/><path d="M172.735,223.48c0.269,19.862 3.644,39.506 3.906,59.375c0.053,4.019 6.303,4.031 6.25,0c-0.262,-19.866 -3.637,-39.513 -3.906,-59.375c-0.053,-4.019 -6.303,-4.031 -6.25,0" style="fill:#f9b13f;fill-rule:nonzero;"/><path d="M29.766,94.574c-6.153,4.293 -28.044,12.668 -29.628,20.762c-2.163,11.053 21.706,14.703 28.728,15.666c0.653,-11.494 -1.637,-21.888 0.9,-36.428" style="fill:#fac065;fill-rule:nonzero;"/><path d="M259.454,196.136c-1.01,6.244 6.437,11.844 6.246,18.75c-0.24,8.778 -6.331,10.269 -14.059,11.113c-13.616,1.484 -25.572,-9.528 -38.7,-5.253c-10.012,3.262 -19.122,10.321 -29.419,13.65c-14.834,4.793 -28.89,5.859 -44.543,5.49c-28.854,-0.684 -62.432,-9.378 -85.166,-28.259c-21.772,-18.081 -34.294,-55.328 -35.784,-82.441c-1.629,-29.662 7.059,-63.044 23.031,-87.825c17.672,-27.422 53.653,-42.812 85.647,-41.253c35.362,1.725 56.44,29.878 65.228,62.959c8.353,31.444 -7.481,83.069 48.787,91.875c14.553,2.275 30.113,-1.018 44.807,-1.384c16.496,-0.409 12.428,12.45 0.9,18.453c-4.372,2.278 -10.004,2.838 -12.066,7.756c5.278,3.291 20.834,7.222 14.819,17.541c-4.669,8.013 -20.969,2.056 -29.728,-1.172" style="fill:#9bc58e;fill-rule:nonzero;"/><path d="M135.271,105.744c-38.906,-0.012 -51.8,52.481 -33.462,79.472c19.568,28.794 50.85,35.112 83.953,28.359c16.515,-3.372 36.684,-12.553 48.859,-23.831c-22.053,-5.369 -36.591,-24.331 -49.691,-41.756c-10.975,-14.594 -24.662,-45.188 -46.821,-42.244" style="fill:#2fac66;fill-rule:nonzero;"/><path d="M86.016,92.23c0,10.356 -8.394,18.75 -18.75,18.75c-10.356,0 -18.75,-8.394 -18.75,-18.75c0,-10.356 8.394,-18.75 18.75,-18.75c10.356,0 18.75,8.394 18.75,18.75" style="fill:#fff;fill-rule:nonzero;"/><path d="M78.377,92.23c0,6.137 -4.975,11.112 -11.112,11.112c-6.135,0 -11.11,-4.975 -11.11,-11.112c0,-6.138 4.975,-11.113 11.11,-11.113c6.137,0 11.112,4.975 11.112,11.113" style="fill:#1d1d1b;fill-rule:nonzero;"/><path d="M73.907,88.063c0,1.294 -1.05,2.344 -2.344,2.344c-1.294,0 -2.344,-1.05 -2.344,-2.344c0,-1.294 1.05,-2.344 2.344,-2.344c1.294,0 2.344,1.05 2.344,2.344" style="fill:#fff;fill-rule:nonzero;"/></svg>