<?xml version="1.0" encoding="UTF-8" standalone="no"?>
<!DOCTYPE svg PUBLIC "-//W3C//DTD SVG 1.1//EN" "http://www.w3.org/Graphics/SVG/1.1/DTD/svg11.dtd">
<svg width="100%" height="100%" viewBox="0 0 75 75" version="1.1" xmlns="http://www.w3.org/2000/svg" xmlns:xlink="http://www.w3.org/1999/xlink" xml:space="preserve" xmlns:serif="http://www.serif.com/" style="fill-rule:evenodd;clip-rule:evenodd;stroke-linejoin:round;stroke-miterlimit:1.41421;">
    <g transform="matrix(1,0,0,1,0,5)">
        <path d="M37.277,59.763L36.989,59.934C37.016,59.925 37.042,59.925 37.164,59.853C37.189,59.835 37.231,59.804 37.277,59.763" style="fill-rule:nonzero;"/>
    </g>
    <g transform="matrix(1,0,0,1,0,5)">
        <path d="M65.653,25.257C65.608,25.298 65.565,25.33 65.54,25.348C65.418,25.421 65.392,25.421 65.365,25.429L65.653,25.257ZM70.785,5.848C70.587,6.331 70.381,6.811 70.15,7.275C69.921,7.747 69.669,8.21 69.409,8.665C68.355,10.473 67.068,12.194 65.567,13.558L64.993,14.034L64.407,14.447L64.112,14.615L63.967,14.7L63.815,14.782C63.709,14.845 63.613,14.913 63.512,15.013C63.464,15.056 63.412,15.116 63.349,15.194C63.296,15.267 63.241,15.353 63.192,15.48C63.092,15.695 63.061,16.022 63.115,16.246C63.231,16.712 63.405,16.849 63.512,16.978C63.736,17.207 63.877,17.293 64.019,17.398C64.552,17.746 64.964,17.987 65.336,18.276C65.703,18.557 65.993,18.857 66.166,19.151C66.335,19.446 66.406,19.732 66.383,20.072C66.354,20.411 66.233,20.806 66.028,21.205C65.638,21.958 65.023,22.706 64.348,23.399C64.33,23.408 64.321,23.408 64.303,23.417C64.221,23.466 64.09,23.571 63.981,23.707C63.85,23.861 63.747,24.083 63.715,24.317C63.668,24.8 63.815,25.015 63.877,25.148C63.953,25.289 64.012,25.357 64.067,25.429C64.27,25.665 64.396,25.765 64.52,25.885C64.765,26.114 64.964,26.304 65.137,26.504C65.479,26.898 65.669,27.274 65.707,27.655C65.755,28.031 65.653,28.473 65.418,28.933C65.182,29.396 64.837,29.858 64.438,30.304L64.128,30.643L64.144,31.114C64.189,32.458 64.044,33.783 63.611,34.989C63.187,36.195 62.458,37.256 61.504,38.108C60.547,38.963 59.377,39.626 58.113,40.106C56.848,40.585 55.498,40.918 54.117,41.129C51.355,41.556 48.492,41.565 45.645,41.381C45.283,41.353 44.924,41.316 44.562,41.285C49.63,41.153 56.116,39.92 60.458,35.164C58.108,30.714 60.395,28.906 60.395,28.906C60.395,28.906 58.301,23.567 61.669,21.658C56.9,18.545 61.543,12.76 60.524,13.209C50.242,22.098 43.413,30.937 39.855,36.102C39.889,35.531 39.902,35.098 39.902,34.862C39.907,34.699 39.884,34.563 39.859,34.436C40.012,34.199 40.154,33.96 40.306,33.72C41.478,31.873 42.694,30.057 43.963,28.276C45.232,26.495 46.547,24.758 47.917,23.07C48.601,22.225 49.301,21.391 50.011,20.57C50.722,19.75 51.461,18.961 52.182,18.154C52.898,17.345 53.605,16.532 54.34,15.743C55.069,14.948 55.84,14.188 56.614,13.449C58.169,11.962 59.811,10.576 61.537,9.326C64.488,7.187 67.762,5.462 71.22,4.596C71.095,5.018 70.939,5.435 70.785,5.848M49.354,46.543C51.433,47.325 53.506,48.148 55.45,49.118C55.935,49.363 56.407,49.616 56.853,49.889C57.295,50.155 57.728,50.441 58.061,50.735C58.195,50.854 58.299,50.962 58.374,51.057C58.264,51.123 58.124,51.197 57.956,51.257L56.785,51.704L57.331,52.826C57.623,53.426 57.884,53.999 58.097,54.581C58.306,55.156 58.464,55.741 58.501,56.239C58.521,56.488 58.503,56.711 58.459,56.864C58.417,57.021 58.369,57.088 58.299,57.149C58.226,57.209 58.088,57.278 57.884,57.327C57.78,57.344 57.67,57.364 57.544,57.372C57.428,57.39 57.286,57.374 57.157,57.381L55.468,57.463L56.069,58.972C56.152,59.184 56.23,59.393 56.272,59.584C56.32,59.779 56.325,59.945 56.325,60.085C56.284,60.341 56.239,60.431 55.984,60.612C55.735,60.776 55.307,60.911 54.847,60.971C54.616,61.007 54.376,61.021 54.129,61.025L53.761,61.025L53.423,61.007L52.816,60.976L52.408,61.433L52.249,61.614L52.06,61.805C51.928,61.932 51.793,62.045 51.656,62.147C51.384,62.358 51.099,62.505 50.884,62.553C50.661,62.603 50.552,62.593 50.41,62.518C50.264,62.444 50.072,62.253 49.892,61.982L49.186,60.886L48.175,61.743C47.855,62.015 47.608,62.111 47.39,62.086C47.169,62.086 46.819,61.909 46.471,61.61C45.767,60.993 45.169,60.028 44.594,59.075C44.009,58.111 43.46,57.095 42.962,56.039C42.459,54.988 41.996,53.914 41.557,52.821C40.677,50.634 39.893,48.398 39.177,46.14L38.864,45.113C38.889,44.96 38.914,44.814 38.932,44.671C40.066,47.086 42.128,51.148 44.184,53.373C47.232,56.674 51.173,52.862 50.155,49.118C49.716,47.486 47.38,46.07 44.877,44.98C46.384,45.485 47.875,45.996 49.354,46.543M72.611,1.982C68.02,2.715 63.838,4.841 60.2,7.482C58.374,8.799 56.66,10.253 55.04,11.795C54.229,12.57 53.442,13.364 52.671,14.165C51.901,14.967 51.13,15.779 50.419,16.631C49.004,18.354 47.717,20.169 46.466,21.998C45.224,23.836 44.045,25.71 42.923,27.608C41.716,29.646 40.579,31.718 39.511,33.828L39.511,33.829C39.511,33.829 39.855,38.897 38.486,47.585C38.485,47.59 38.485,47.593 38.485,47.597C38.929,49.534 39.414,51.463 39.988,53.379C40.335,54.535 40.714,55.68 41.136,56.822C41.561,57.965 42.014,59.103 42.599,60.214C42.889,60.773 43.23,61.311 43.617,61.837C44.009,62.363 44.449,62.87 44.997,63.35C45.55,63.813 46.271,64.298 47.25,64.368C47.731,64.406 48.225,64.316 48.646,64.135C48.678,64.125 48.7,64.103 48.732,64.09C48.914,64.25 49.113,64.406 49.349,64.534C49.666,64.705 50.043,64.823 50.41,64.856C50.779,64.891 51.139,64.85 51.461,64.774C52.109,64.601 52.609,64.298 53.047,63.971C53.267,63.809 53.469,63.632 53.657,63.454C53.704,63.409 53.755,63.354 53.804,63.308L54.203,63.308C54.525,63.299 54.847,63.275 55.177,63.233C55.835,63.133 56.538,62.974 57.247,62.522C57.594,62.294 57.946,61.982 58.195,61.569C58.447,61.166 58.586,60.69 58.621,60.263C58.637,59.994 58.621,59.742 58.589,59.502C58.992,59.389 59.416,59.207 59.801,58.881C60.25,58.505 60.556,57.961 60.685,57.463C60.819,56.96 60.828,56.492 60.799,56.067C60.731,55.219 60.511,54.487 60.262,53.791C60.141,53.456 60.01,53.132 59.867,52.817C60.196,52.572 60.604,52.177 60.744,51.501C60.876,50.763 60.581,50.196 60.35,49.852C60.101,49.494 59.842,49.24 59.588,49.014C59.076,48.569 58.564,48.238 58.047,47.921C57.53,47.612 57.013,47.333 56.492,47.069C54.412,46.025 52.293,45.189 50.161,44.394C49.579,44.177 48.991,43.973 48.406,43.767C50.428,43.796 52.453,43.706 54.484,43.394C55.984,43.159 57.49,42.797 58.95,42.242C60.404,41.684 61.828,40.904 63.046,39.809C64.262,38.723 65.241,37.31 65.78,35.765C66.283,34.367 66.453,32.913 66.447,31.492C66.825,31.037 67.183,30.542 67.478,29.962C67.838,29.246 68.106,28.349 68.002,27.401C67.9,26.447 67.414,25.607 66.886,25.008C66.741,24.836 66.587,24.681 66.438,24.532C67.049,23.866 67.621,23.132 68.08,22.243C68.377,21.668 68.623,20.996 68.681,20.24C68.747,19.485 68.55,18.644 68.158,17.996C67.768,17.338 67.254,16.856 66.751,16.463C66.548,16.307 66.343,16.164 66.138,16.033C66.227,15.969 66.318,15.906 66.406,15.842L67.102,15.263C68.867,13.658 70.236,11.799 71.405,9.809C71.691,9.311 71.968,8.804 72.219,8.282C72.475,7.76 72.709,7.23 72.926,6.691C73.132,6.147 73.351,5.603 73.504,5.036C73.683,4.479 73.806,3.896 73.935,3.316L74.266,1.711L72.611,1.982Z" style="fill:rgb(242,134,176);fill-rule:nonzero;"/>
    </g>
    <g transform="matrix(1,0,0,1,0,5)">
        <path d="M38.185,20.235C38.18,20.098 38.221,19.978 38.278,19.868C38.376,19.598 38.499,19.36 38.644,19.152C38.497,19.361 38.374,19.601 38.275,19.873C38.218,19.983 38.177,20.103 38.182,20.239C38.196,20.65 38.538,20.974 38.953,20.96C39.159,20.95 39.343,20.86 39.473,20.719C39.343,20.857 39.16,20.946 38.956,20.956C38.541,20.969 38.199,20.645 38.185,20.235" style="fill:rgb(222,48,121);fill-rule:nonzero;"/>
    </g>
    <g transform="matrix(1,0,0,1,0,5)">
        <path d="M8.612,23.544L8.9,23.712C8.873,23.702 8.847,23.702 8.725,23.632C8.7,23.612 8.658,23.585 8.612,23.544M20.148,39.413C18.766,39.2 17.414,38.872 16.15,38.393C14.885,37.913 13.716,37.251 12.76,36.399C11.806,35.539 11.073,34.483 10.652,33.272C10.217,32.07 10.074,30.743 10.117,29.396L10.135,28.933L9.822,28.591C9.428,28.15 9.081,27.685 8.843,27.22C8.61,26.758 8.507,26.323 8.553,25.944C8.596,25.563 8.784,25.186 9.124,24.793C9.296,24.591 9.496,24.398 9.743,24.174C9.87,24.047 9.99,23.95 10.194,23.712C10.251,23.644 10.307,23.575 10.389,23.433C10.447,23.304 10.597,23.087 10.547,22.606C10.511,22.372 10.411,22.148 10.284,21.996C10.174,21.853 10.042,21.753 9.961,21.708C9.942,21.697 9.931,21.692 9.917,21.681C9.242,20.987 8.628,20.248 8.238,19.492C8.032,19.097 7.909,18.703 7.882,18.359C7.855,18.016 7.927,17.733 8.096,17.435C8.267,17.139 8.558,16.844 8.925,16.559C9.298,16.269 9.714,16.033 10.244,15.679C10.384,15.58 10.528,15.489 10.752,15.262C10.855,15.13 11.033,14.995 11.15,14.528C11.203,14.306 11.173,13.981 11.073,13.764C11.024,13.635 10.969,13.554 10.917,13.484C10.853,13.395 10.797,13.336 10.753,13.298C10.652,13.2 10.557,13.132 10.45,13.063L10.298,12.987L10.156,12.901L9.861,12.728L9.274,12.32L8.7,11.842C7.198,10.483 5.912,8.758 4.858,6.949C4.596,6.491 4.345,6.033 4.115,5.56C3.884,5.093 3.678,4.61 3.481,4.127C3.326,3.722 3.17,3.305 3.046,2.887C6.502,3.748 9.772,5.474 12.723,7.62C14.455,8.864 16.091,10.253 17.646,11.743C18.426,12.484 19.192,13.241 19.921,14.029C20.651,14.822 21.365,15.634 22.079,16.441C22.8,17.254 23.538,18.04 24.25,18.866C24.962,19.684 25.66,20.516 26.345,21.359C27.713,23.052 29.028,24.793 30.297,26.567C31.566,28.344 32.784,30.162 33.955,32.011C34.595,33.013 35.22,34.019 35.837,35.037C35.795,35.236 35.78,35.469 35.786,35.744C35.789,35.905 35.773,36.127 35.746,36.388C32.75,31.776 25.505,21.667 13.741,11.496C12.723,11.053 17.365,16.835 12.596,19.949C15.964,21.853 13.87,27.193 13.87,27.193C13.87,27.193 16.155,29.005 13.807,33.457C18.149,38.208 24.635,39.444 29.703,39.572C29.341,39.608 28.982,39.644 28.62,39.667C25.768,39.853 22.909,39.844 20.148,39.413M35.644,42.579C35.629,42.63 35.614,42.682 35.596,42.731L35.079,44.431C34.363,46.687 33.579,48.923 32.699,51.107C32.26,52.2 31.796,53.279 31.294,54.33C30.796,55.38 30.247,56.404 29.663,57.364C29.087,58.318 28.489,59.279 27.786,59.903C27.439,60.202 27.088,60.375 26.866,60.379C26.648,60.4 26.402,60.301 26.081,60.032L25.07,59.179L24.364,60.272C24.188,60.541 23.992,60.735 23.846,60.807C23.702,60.882 23.596,60.892 23.371,60.844C23.158,60.798 22.873,60.64 22.6,60.436C22.465,60.331 22.328,60.218 22.197,60.091L22.006,59.899L21.85,59.722L21.44,59.266L20.837,59.294L20.5,59.315L20.132,59.315C19.889,59.304 19.645,59.285 19.414,59.257C18.953,59.199 18.526,59.063 18.276,58.9C18.027,58.714 17.977,58.623 17.936,58.366C17.936,58.229 17.941,58.065 17.988,57.871C18.031,57.679 18.106,57.467 18.192,57.254L18.793,55.745L17.104,55.663C16.975,55.658 16.832,55.67 16.717,55.654C16.59,55.647 16.48,55.626 16.377,55.609C16.173,55.559 16.036,55.492 15.962,55.432C15.892,55.369 15.842,55.301 15.801,55.146C15.758,54.997 15.742,54.775 15.76,54.525C15.796,54.023 15.956,53.434 16.163,52.862C16.377,52.282 16.637,51.711 16.93,51.106L17.474,49.988L16.304,49.54C16.138,49.478 15.996,49.408 15.887,49.343C15.962,49.244 16.066,49.131 16.2,49.023C16.535,48.724 16.967,48.438 17.408,48.17C17.854,47.898 18.325,47.64 18.812,47.4C20.755,46.43 22.825,45.605 24.908,44.827C26.385,44.281 27.877,43.764 29.375,43.266C26.872,44.354 24.535,45.775 24.094,47.4C23.076,51.148 27.02,54.966 30.068,51.661C32.337,49.205 34.612,44.519 35.632,42.264C35.634,42.277 35.636,42.289 35.638,42.301C35.554,37.69 35.974,34.572 35.974,34.572C36.016,34.478 36.064,34.398 36.116,34.327C36.064,34.399 36.014,34.481 35.971,34.576C34.576,31.612 33.022,28.72 31.345,25.887C30.221,23.988 29.041,22.116 27.799,20.28C26.549,18.454 25.265,16.636 23.851,14.917C23.135,14.063 22.365,13.254 21.595,12.448C20.823,11.645 20.034,10.852 19.223,10.082C17.605,8.54 15.892,7.081 14.065,5.762C10.429,3.127 6.246,0.997 1.654,0.261L0,0L0.348,1.603C0.478,2.183 0.598,2.763 0.779,3.322C0.934,3.889 1.151,4.434 1.357,4.977C1.577,5.517 1.804,6.047 2.066,6.563C2.314,7.087 2.59,7.592 2.878,8.091C4.045,10.082 5.414,11.942 7.18,13.549L7.878,14.129C7.964,14.192 8.055,14.254 8.143,14.315C7.939,14.449 7.732,14.591 7.531,14.746C7.026,15.133 6.513,15.621 6.124,16.278C5.734,16.926 5.534,17.764 5.599,18.521C5.657,19.28 5.904,19.949 6.2,20.525C6.663,21.418 7.234,22.148 7.844,22.819C7.696,22.966 7.54,23.122 7.393,23.294C6.865,23.893 6.38,24.736 6.28,25.684C6.173,26.638 6.44,27.532 6.803,28.249C7.098,28.825 7.456,29.323 7.834,29.781C7.828,31.198 8,32.65 8.501,34.046C9.037,35.592 10.017,37.011 11.234,38.094C12.452,39.19 13.875,39.973 15.334,40.524C16.794,41.08 18.294,41.443 19.794,41.675C21.825,41.983 23.856,42.078 25.873,42.052C25.288,42.264 24.703,42.463 24.119,42.682C21.988,43.478 19.872,44.314 17.789,45.361C17.265,45.619 16.751,45.9 16.234,46.207C15.715,46.521 15.205,46.856 14.692,47.3C14.441,47.531 14.179,47.78 13.931,48.142C13.702,48.481 13.403,49.049 13.537,49.789C13.675,50.464 14.088,50.858 14.414,51.101C14.274,51.421 14.14,51.742 14.02,52.077C13.771,52.776 13.551,53.508 13.485,54.353C13.453,54.781 13.462,55.244 13.597,55.75C13.725,56.246 14.032,56.797 14.482,57.163C14.863,57.493 15.291,57.676 15.692,57.787C15.66,58.028 15.645,58.279 15.66,58.545C15.697,58.981 15.833,59.456 16.087,59.855C16.336,60.268 16.685,60.586 17.034,60.807C17.746,61.257 18.443,61.419 19.101,61.514C19.434,61.564 19.758,61.582 20.08,61.592L20.479,61.592C20.529,61.639 20.574,61.692 20.624,61.737C20.813,61.92 21.013,62.09 21.231,62.257C21.669,62.579 22.17,62.888 22.82,63.055C23.144,63.138 23.503,63.178 23.872,63.142C24.241,63.108 24.618,62.994 24.933,62.818C25.17,62.688 25.37,62.534 25.549,62.376C25.579,62.385 25.603,62.41 25.635,62.422C26.059,62.599 26.553,62.691 27.029,62.657C28.008,62.579 28.729,62.095 29.284,61.638C29.831,61.159 30.272,60.644 30.664,60.123C31.051,59.593 31.394,59.058 31.684,58.5C32.264,57.39 32.722,56.247 33.149,55.111C33.569,53.968 33.946,52.816 34.29,51.667C34.866,49.749 35.351,47.817 35.797,45.879C35.799,45.919 35.801,45.957 35.803,45.997C35.802,45.955 35.801,45.916 35.8,45.874C35.716,44.715 35.668,43.613 35.645,42.579" style="fill:rgb(242,134,176);fill-rule:nonzero;"/>
    </g>
    <g transform="matrix(1,0,0,1,0,5)">
        <path d="M43.135,20.552C42.77,19.562 41.564,18.73 40.496,18.739C40.041,18.725 39.497,18.889 39.093,19.492L39.094,19.492C39.497,18.893 40.04,18.73 40.494,18.744C41.561,18.734 42.767,19.567 43.132,20.557C43.266,20.93 43.322,21.433 42.99,21.952C43.325,21.432 43.269,20.927 43.135,20.552" style="fill:rgb(222,48,121);fill-rule:nonzero;"/>
    </g>
    <g transform="matrix(1,0,0,1,0,5)">
        <path d="M37.09,33.548C37.204,33.112 36.628,32.263 36.624,32.263C36.347,31.939 36.163,31.481 36.148,30.973C36.134,30.596 36.213,30.244 36.36,29.946C36.211,30.244 36.131,30.599 36.145,30.977C36.16,31.486 36.344,31.943 36.621,32.267C36.625,32.267 37.201,33.117 37.087,33.553C37.078,33.592 37.059,33.625 37.033,33.655C37.061,33.624 37.081,33.589 37.09,33.548" style="fill:rgb(222,48,121);fill-rule:nonzero;"/>
    </g>
    <g transform="matrix(1,0,0,1,0,5)">
        <path d="M35.107,20.428C35.102,20.257 35.155,20.102 35.248,19.976C35.153,20.103 35.099,20.26 35.104,20.432C35.118,20.847 35.46,21.169 35.874,21.155C36.084,21.151 36.269,21.059 36.4,20.917C36.269,21.057 36.085,21.146 35.877,21.151C35.463,21.164 35.121,20.842 35.107,20.428" style="fill:rgb(222,48,121);fill-rule:nonzero;"/>
    </g>
    <g transform="matrix(1,0,0,1,0,5)">
        <path d="M38.71,32.201C38.71,32.2 38.71,32.199 38.711,32.199C38.707,32.203 38.67,32.253 38.615,32.335C38.669,32.254 38.707,32.203 38.71,32.201" style="fill:rgb(222,48,121);fill-rule:nonzero;"/>
    </g>
    <g transform="matrix(1,0,0,1,0,5)">
        <path d="M34.194,19.042C33.39,19.086 32.541,19.609 32.043,20.297C32.541,19.612 33.39,19.09 34.191,19.047C34.641,19.004 35.196,19.133 35.634,19.702C35.637,19.702 35.638,19.701 35.64,19.7C35.2,19.129 34.645,19 34.194,19.042" style="fill:rgb(222,48,121);fill-rule:nonzero;"/>
    </g>
    <g transform="matrix(1,0,0,1,0,5)">
        <path d="M39.914,25.773C39.179,26.879 38.43,28.072 37.747,29.106C38.43,28.073 39.179,26.879 39.914,25.773" style="fill:rgb(222,48,121);fill-rule:nonzero;"/>
    </g>
    <g transform="matrix(1,0,0,1,0,5)">
        <path d="M42.883,22.914C41.985,23.651 41.289,24.488 40.707,25.34C41.289,24.49 41.983,23.654 42.88,22.919C43.094,22.743 43.272,22.555 43.413,22.355C43.273,22.553 43.095,22.74 42.883,22.914" style="fill:rgb(222,48,121);fill-rule:nonzero;"/>
    </g>
    <g transform="matrix(1,0,0,1,0,5)">
        <path d="M32.083,23.362C31.184,22.72 30.849,21.831 31.13,20.865C31.22,20.554 31.373,20.254 31.57,19.978C31.372,20.256 31.218,20.557 31.127,20.869C30.846,21.835 31.181,22.723 32.08,23.367C34.548,25.138 35.608,27.573 36.977,29.263C36.979,29.262 36.979,29.26 36.981,29.26C35.612,27.569 34.552,25.135 32.083,23.362" style="fill:rgb(222,48,121);fill-rule:nonzero;"/>
    </g>
    <g transform="matrix(1,0,0,1,0,5)">
        <path d="M36.611,58.413C36.611,58.413 36.614,58.403 36.614,58.401C36.613,58.398 36.608,58.356 36.601,58.293C36.607,58.365 36.611,58.413 36.611,58.413" style="fill:rgb(222,48,121);fill-rule:nonzero;"/>
    </g>
    <g transform="matrix(1,0,0,1,0,5)">
        <path d="M32.414,22.9C33.772,23.88 35.87,26.839 37.586,29.092C37.638,29.092 37.692,29.101 37.744,29.11C37.745,29.109 37.746,29.107 37.747,29.106C37.695,29.097 37.641,29.088 37.589,29.088C35.873,26.835 33.774,23.875 32.417,22.896C31.538,22.26 31.528,21.527 31.679,21.024C31.752,20.771 31.878,20.526 32.043,20.297C31.877,20.526 31.749,20.774 31.676,21.028C31.525,21.531 31.535,22.265 32.414,22.9" style="fill:rgb(100,6,46);fill-rule:nonzero;"/>
    </g>
    <g transform="matrix(1,0,0,1,0,5)">
        <path d="M42.513,22.474C42.723,22.301 42.878,22.125 42.99,21.952C42.878,22.124 42.725,22.298 42.516,22.469C41.785,23.07 40.861,24.349 39.914,25.772C40.859,24.35 41.783,23.075 42.513,22.474" style="fill:rgb(100,6,46);fill-rule:nonzero;"/>
    </g>
    <g transform="matrix(1,0,0,1,0,5)">
        <path d="M35.634,19.702C35.477,19.753 35.342,19.849 35.248,19.976C35.343,19.85 35.478,19.754 35.636,19.705C35.636,19.704 35.635,19.704 35.634,19.702" style="fill:rgb(100,6,46);fill-rule:nonzero;"/>
    </g>
    <g transform="matrix(1,0,0,1,0,5)">
        <path d="M39.1,30.887C39.118,31.389 38.964,31.859 38.711,32.199L38.712,32.197C38.967,31.857 39.121,31.386 39.103,30.883C39.081,30.202 38.763,29.622 38.31,29.323C39.08,28.214 39.738,26.756 40.707,25.34C39.737,26.758 39.078,28.217 38.307,29.328C38.76,29.626 39.078,30.207 39.1,30.887" style="fill:rgb(100,6,46);fill-rule:nonzero;"/>
    </g>
    <g transform="matrix(1,0,0,1,0,5)">
        <path d="M38.196,33.418C38.253,33.7 39.018,33.47 39.508,33.833C39.509,33.832 39.51,33.83 39.51,33.828C39.021,33.466 38.256,33.695 38.199,33.414C38.136,33.101 38.45,32.582 38.616,32.335C38.451,32.579 38.133,33.103 38.196,33.419" style="fill:rgb(100,6,46);fill-rule:nonzero;"/>
    </g>
    <g transform="matrix(1,0,0,1,0,5)">
        <path d="M39.671,20.189C39.677,20.393 39.601,20.58 39.473,20.718C39.603,20.58 39.681,20.391 39.674,20.185C39.662,19.837 39.416,19.569 39.094,19.491C39.092,19.493 39.092,19.494 39.091,19.496C39.413,19.573 39.659,19.841 39.671,20.189" style="fill:rgb(100,6,46);fill-rule:nonzero;"/>
    </g>
    <g transform="matrix(1,0,0,1,0,5)">
        <path d="M40.492,18.172C41.801,18.163 43.229,19.147 43.673,20.364C43.928,21.075 43.834,21.762 43.414,22.355C43.837,21.76 43.932,21.072 43.676,20.359C43.232,19.143 41.804,18.159 40.495,18.168C39.722,18.182 39.082,18.525 38.644,19.152C39.082,18.527 39.721,18.187 40.492,18.172" style="fill:rgb(100,6,46);fill-rule:nonzero;"/>
    </g>
    <g transform="matrix(1,0,0,1,0,5)">
        <path d="M37.033,33.655C36.87,33.84 36.426,33.897 36.115,34.327C36.428,33.897 36.873,33.843 37.033,33.655" style="fill:rgb(100,6,46);fill-rule:nonzero;"/>
    </g>
    <g transform="matrix(1,0,0,1,0,5)">
        <path d="M36.613,58.402C36.613,58.403 36.614,58.409 36.614,58.409C36.614,58.409 36.613,58.402 36.613,58.4L36.613,58.402Z" style="fill:rgb(100,6,46);fill-rule:nonzero;"/>
    </g>
    <g transform="matrix(1,0,0,1,0,5)">
        <path d="M36.613,58.4C36.613,58.402 36.614,58.409 36.614,58.409L36.614,58.399L36.613,58.4Z" style="fill:rgb(100,6,46);fill-rule:nonzero;"/>
    </g>
    <g transform="matrix(1,0,0,1,0,5)">
        <path d="M34.159,18.476C35.186,18.429 36.018,18.97 36.48,20.026C36.546,20.135 36.593,20.253 36.597,20.384C36.604,20.588 36.528,20.777 36.399,20.917C36.53,20.777 36.608,20.586 36.6,20.38C36.596,20.249 36.549,20.131 36.483,20.022C36.02,18.965 35.189,18.425 34.162,18.472C33.181,18.526 32.169,19.146 31.571,19.979C32.169,19.148 33.18,18.53 34.159,18.476" style="fill:rgb(100,6,46);fill-rule:nonzero;"/>
    </g>
    <g transform="matrix(1,0,0,1,0,5)">
        <path d="M36.978,29.264C36.978,29.263 36.977,29.263 36.977,29.263C36.721,29.413 36.506,29.652 36.36,29.946C36.507,29.652 36.721,29.413 36.978,29.264" style="fill:rgb(100,6,46);fill-rule:nonzero;"/>
    </g>
    <g transform="matrix(1,0,0,1,0,5)">
        <path d="M43.673,20.364C43.229,19.147 41.801,18.163 40.492,18.172C39.72,18.187 39.082,18.527 38.644,19.152C38.499,19.36 38.376,19.598 38.278,19.868C38.221,19.978 38.18,20.098 38.186,20.235C38.198,20.645 38.54,20.97 38.956,20.956C39.159,20.946 39.343,20.857 39.473,20.719C39.601,20.58 39.677,20.394 39.671,20.19C39.659,19.841 39.413,19.573 39.091,19.496C39.092,19.495 39.093,19.493 39.095,19.492L39.094,19.492C39.497,18.889 40.041,18.725 40.497,18.739C41.564,18.73 42.77,19.562 43.135,20.552C43.269,20.927 43.325,21.432 42.99,21.952C42.878,22.126 42.723,22.301 42.513,22.474C41.783,23.074 40.859,24.35 39.914,25.773C39.179,26.879 38.429,28.073 37.748,29.106C37.747,29.107 37.745,29.109 37.745,29.11C37.692,29.101 37.638,29.092 37.586,29.092C35.87,26.839 33.772,23.879 32.414,22.9C31.535,22.265 31.526,21.532 31.676,21.028C31.75,20.774 31.877,20.527 32.043,20.297C32.541,19.609 33.39,19.086 34.193,19.042C34.645,19 35.2,19.129 35.639,19.7C35.638,19.701 35.636,19.702 35.634,19.702C35.635,19.704 35.636,19.704 35.636,19.705C35.478,19.755 35.344,19.85 35.249,19.976C35.156,20.102 35.102,20.257 35.107,20.428C35.121,20.842 35.463,21.164 35.877,21.151C36.085,21.146 36.269,21.057 36.4,20.917C36.528,20.778 36.604,20.589 36.597,20.384C36.593,20.254 36.545,20.135 36.48,20.026C36.017,18.97 35.186,18.429 34.159,18.476C33.18,18.531 32.169,19.147 31.571,19.978C31.373,20.254 31.22,20.554 31.13,20.865C30.848,21.831 31.184,22.72 32.084,23.362C34.552,25.135 35.612,27.569 36.981,29.26C36.98,29.26 36.979,29.262 36.977,29.263C36.977,29.263 36.978,29.263 36.978,29.264C36.721,29.413 36.507,29.652 36.36,29.946C36.213,30.244 36.134,30.597 36.148,30.973C36.163,31.481 36.347,31.939 36.624,32.263C36.628,32.263 37.204,33.112 37.091,33.548C37.081,33.589 37.061,33.624 37.033,33.655C36.873,33.843 36.428,33.897 36.116,34.327C36.064,34.398 36.017,34.478 35.975,34.572C35.975,34.572 35.554,37.691 35.639,42.301C35.649,42.364 35.657,42.424 35.671,42.488L35.671,42.496C35.662,42.525 35.654,42.551 35.645,42.579C35.668,43.613 35.716,44.715 35.801,45.875C35.801,45.916 35.802,45.955 35.803,45.997C35.891,51.891 36.506,57.471 36.601,58.294C36.608,58.357 36.613,58.397 36.614,58.402L36.614,58.4L36.614,58.399L36.614,58.409C36.614,58.409 37.893,52.531 38.485,47.598C38.486,47.593 38.486,47.59 38.486,47.586C39.854,38.896 39.511,33.829 39.511,33.829L39.51,33.828C39.509,33.83 39.509,33.832 39.508,33.833C39.018,33.471 38.252,33.7 38.195,33.418C38.132,33.103 38.45,32.579 38.615,32.335C38.67,32.254 38.708,32.203 38.711,32.199C38.965,31.859 39.119,31.389 39.1,30.887C39.077,30.207 38.76,29.627 38.307,29.328C39.077,28.218 39.737,26.758 40.707,25.341C41.289,24.488 41.984,23.652 42.883,22.914C43.095,22.74 43.273,22.553 43.413,22.355C43.835,21.762 43.928,21.075 43.673,20.364" style="fill:rgb(164,64,105);fill-rule:nonzero;"/>
    </g>
    <g transform="matrix(1,0,0,1,0,5)">
        <path d="M29.703,39.572C24.635,39.444 18.149,38.208 13.807,33.458C16.155,29.006 13.871,27.193 13.871,27.193C13.871,27.193 15.965,21.853 12.596,19.949C17.365,16.835 12.723,11.054 13.741,11.495C25.505,21.668 32.75,31.775 35.746,36.388C35.773,36.127 35.789,35.905 35.786,35.744C35.78,35.469 35.795,35.237 35.837,35.037C35.219,34.019 34.594,33.013 33.955,32.011C32.783,30.162 31.566,28.344 30.297,26.567C29.028,24.793 27.713,23.052 26.344,21.359C25.66,20.516 24.962,19.684 24.25,18.866C23.538,18.041 22.8,17.255 22.079,16.441C21.365,15.634 20.651,14.822 19.922,14.029C19.192,13.241 18.426,12.484 17.646,11.743C16.091,10.253 14.455,8.864 12.723,7.619C9.773,5.474 6.502,3.749 3.046,2.888C3.17,3.305 3.326,3.722 3.481,4.127C3.678,4.61 3.884,5.093 4.115,5.56C4.344,6.033 4.595,6.491 4.859,6.949C5.912,8.758 7.198,10.483 8.7,11.842L9.274,12.32L9.861,12.728L10.156,12.9L10.298,12.987L10.45,13.064C10.557,13.132 10.652,13.2 10.754,13.298C10.797,13.336 10.853,13.395 10.917,13.484C10.969,13.554 11.024,13.635 11.073,13.764C11.173,13.982 11.203,14.306 11.15,14.528C11.033,14.995 10.856,15.131 10.751,15.263C10.528,15.489 10.384,15.58 10.244,15.68C9.714,16.033 9.299,16.269 8.925,16.559C8.558,16.844 8.267,17.139 8.095,17.435C7.928,17.733 7.855,18.016 7.882,18.359C7.91,18.703 8.031,19.097 8.238,19.492C8.627,20.248 9.242,20.987 9.917,21.681C9.932,21.692 9.942,21.697 9.961,21.708C10.042,21.753 10.174,21.853 10.284,21.995C10.412,22.148 10.511,22.372 10.547,22.606C10.597,23.087 10.448,23.304 10.389,23.432C10.307,23.576 10.25,23.644 10.194,23.712C9.99,23.95 9.87,24.047 9.743,24.174C9.497,24.398 9.296,24.59 9.125,24.793C8.784,25.187 8.596,25.563 8.553,25.944C8.507,26.323 8.61,26.758 8.843,27.22C9.081,27.684 9.428,28.15 9.822,28.591L10.135,28.933L10.117,29.396C10.074,30.743 10.217,32.07 10.652,33.272C11.073,34.484 11.806,35.54 12.76,36.399C13.716,37.251 14.885,37.913 16.151,38.393C17.414,38.873 18.766,39.2 20.148,39.413C22.908,39.844 25.769,39.853 28.62,39.667C28.982,39.644 29.341,39.608 29.703,39.572" style="fill:rgb(252,215,229);fill-rule:nonzero;"/>
    </g>
    <g transform="matrix(1,0,0,1,0,5)">
        <path d="M35.632,42.264C34.613,44.518 32.337,49.204 30.069,51.661C27.021,54.966 23.076,51.148 24.094,47.4C24.536,45.775 26.872,44.354 29.375,43.266C27.876,43.764 26.385,44.281 24.908,44.827C22.825,45.605 20.756,46.43 18.811,47.4C18.326,47.64 17.855,47.898 17.408,48.17C16.966,48.438 16.536,48.724 16.2,49.023C16.066,49.131 15.962,49.244 15.888,49.343C15.996,49.408 16.139,49.478 16.304,49.54L17.474,49.988L16.929,51.106C16.638,51.711 16.377,52.282 16.164,52.862C15.956,53.435 15.797,54.022 15.76,54.525C15.742,54.775 15.758,54.997 15.801,55.146C15.842,55.301 15.892,55.369 15.962,55.432C16.037,55.492 16.173,55.559 16.377,55.609C16.481,55.626 16.59,55.647 16.716,55.654C16.833,55.67 16.975,55.658 17.105,55.663L18.793,55.745L18.192,57.253C18.106,57.467 18.031,57.679 17.988,57.871C17.94,58.065 17.936,58.229 17.936,58.366C17.977,58.623 18.027,58.714 18.276,58.9C18.525,59.062 18.954,59.199 19.414,59.257C19.645,59.285 19.89,59.304 20.133,59.314L20.499,59.314L20.837,59.294L21.44,59.266L21.85,59.722L22.007,59.899L22.197,60.091C22.329,60.218 22.464,60.331 22.6,60.436C22.872,60.64 23.158,60.798 23.371,60.844C23.595,60.892 23.702,60.882 23.847,60.807C23.991,60.735 24.187,60.541 24.364,60.272L25.071,59.179L26.082,60.032C26.401,60.301 26.648,60.4 26.866,60.379C27.087,60.375 27.439,60.202 27.786,59.903C28.489,59.279 29.087,58.318 29.663,57.364C30.247,56.404 30.796,55.38 31.295,54.33C31.796,53.278 32.26,52.2 32.7,51.107C33.579,48.923 34.363,46.687 35.079,44.431L35.596,42.731C35.614,42.682 35.629,42.63 35.645,42.579C35.643,42.485 35.64,42.393 35.639,42.301C35.637,42.289 35.634,42.277 35.632,42.264" style="fill:rgb(252,215,229);fill-rule:nonzero;"/>
    </g>
    <g transform="matrix(1,0,0,1,0,5)">
        <path d="M35.671,42.488C35.657,42.424 35.649,42.364 35.639,42.301C35.64,42.393 35.642,42.485 35.645,42.579C35.654,42.551 35.662,42.525 35.671,42.496L35.671,42.488Z" style="fill:rgb(252,215,229);fill-rule:nonzero;"/>
    </g>
    <g transform="matrix(1,0,0,1,0,5)">
        <path d="M50.155,49.118C51.173,52.862 47.233,56.673 44.184,53.373C42.128,51.148 40.066,47.086 38.932,44.67C38.914,44.814 38.89,44.961 38.864,45.113L39.177,46.14C39.893,48.397 40.677,50.634 41.557,52.821C41.996,53.914 42.459,54.987 42.962,56.04C43.46,57.096 44.009,58.11 44.594,59.076C45.17,60.027 45.767,60.993 46.471,61.61C46.819,61.908 47.169,62.086 47.39,62.086C47.608,62.111 47.855,62.016 48.175,61.743L49.186,60.886L49.892,61.982C50.072,62.253 50.265,62.443 50.41,62.518C50.552,62.592 50.661,62.603 50.884,62.553C51.099,62.505 51.384,62.358 51.656,62.148C51.793,62.045 51.928,61.932 52.06,61.805L52.249,61.614L52.408,61.432L52.816,60.975L53.423,61.006L53.761,61.025L54.129,61.025C54.376,61.021 54.616,61.006 54.847,60.971C55.307,60.911 55.735,60.776 55.984,60.612C56.239,60.43 56.284,60.341 56.325,60.085C56.325,59.946 56.32,59.778 56.272,59.584C56.23,59.394 56.152,59.184 56.069,58.971L55.468,57.463L57.157,57.381C57.286,57.374 57.428,57.39 57.544,57.372C57.671,57.363 57.78,57.345 57.884,57.327C58.088,57.279 58.226,57.208 58.299,57.15C58.369,57.088 58.417,57.021 58.459,56.864C58.503,56.712 58.521,56.487 58.501,56.238C58.464,55.74 58.306,55.156 58.097,54.58C57.884,53.999 57.623,53.426 57.331,52.825L56.785,51.703L57.956,51.257C58.124,51.196 58.265,51.123 58.374,51.057C58.299,50.962 58.195,50.853 58.061,50.735C57.728,50.441 57.295,50.155 56.853,49.888C56.407,49.616 55.935,49.362 55.45,49.118C53.506,48.148 51.433,47.325 49.354,46.542C47.875,45.996 46.384,45.485 44.877,44.979C47.38,46.07 49.716,47.486 50.155,49.118" style="fill:rgb(252,215,229);fill-rule:nonzero;"/>
    </g>
    <g transform="matrix(1,0,0,1,0,5)">
        <path d="M56.615,13.449C55.84,14.188 55.069,14.947 54.34,15.743C53.605,16.531 52.898,17.345 52.182,18.154C51.461,18.962 50.722,19.75 50.01,20.57C49.301,21.391 48.6,22.225 47.916,23.07C46.547,24.758 45.232,26.495 43.963,28.276C42.694,30.058 41.477,31.873 40.306,33.72C40.154,33.961 40.011,34.198 39.859,34.436C39.884,34.563 39.907,34.699 39.902,34.862C39.902,35.098 39.889,35.531 39.854,36.102C43.412,30.937 50.242,22.098 60.524,13.209C61.542,12.76 56.9,18.544 61.669,21.658C58.301,23.567 60.395,28.906 60.395,28.906C60.395,28.906 58.108,30.715 60.458,35.164C56.116,39.92 49.63,41.153 44.562,41.285C44.924,41.316 45.283,41.353 45.645,41.38C48.492,41.565 51.354,41.557 54.117,41.129C55.498,40.918 56.848,40.586 58.113,40.106C59.377,39.625 60.547,38.964 61.504,38.107C62.458,37.255 63.188,36.195 63.611,34.989C64.044,33.783 64.19,32.458 64.144,31.114L64.128,30.643L64.438,30.304C64.837,29.858 65.182,29.396 65.417,28.933C65.654,28.473 65.755,28.031 65.707,27.655C65.669,27.274 65.479,26.899 65.136,26.504C64.964,26.305 64.765,26.114 64.52,25.885C64.396,25.765 64.27,25.665 64.067,25.429C64.012,25.357 63.953,25.288 63.877,25.149C63.815,25.015 63.668,24.8 63.715,24.317C63.747,24.083 63.849,23.861 63.98,23.707C64.09,23.571 64.221,23.466 64.303,23.417C64.32,23.408 64.33,23.408 64.348,23.399C65.024,22.705 65.637,21.958 66.028,21.205C66.233,20.807 66.353,20.411 66.383,20.072C66.406,19.732 66.335,19.446 66.165,19.152C65.993,18.856 65.703,18.558 65.336,18.277C64.964,17.986 64.552,17.746 64.019,17.398C63.877,17.293 63.736,17.207 63.511,16.978C63.405,16.849 63.23,16.713 63.115,16.246C63.061,16.022 63.092,15.695 63.192,15.48C63.241,15.353 63.296,15.267 63.349,15.194C63.412,15.115 63.464,15.056 63.511,15.013C63.614,14.913 63.709,14.845 63.815,14.782L63.967,14.7L64.112,14.614L64.407,14.446L64.994,14.034L65.567,13.559C67.068,12.194 68.354,10.473 69.409,8.665C69.669,8.209 69.921,7.747 70.15,7.276C70.381,6.811 70.587,6.331 70.785,5.848C70.939,5.435 71.096,5.018 71.22,4.596C67.761,5.462 64.488,7.186 61.537,9.326C59.811,10.576 58.169,11.962 56.615,13.449" style="fill:rgb(252,215,229);fill-rule:nonzero;"/>
    </g>
</svg>
