<?xml version="1.0" encoding="UTF-8" standalone="no"?><!DOCTYPE svg PUBLIC "-//W3C//DTD SVG 1.1//EN" "http://www.w3.org/Graphics/SVG/1.1/DTD/svg11.dtd"><svg width="100%" height="100%" viewBox="0 0 75 65" version="1.1" xmlns="http://www.w3.org/2000/svg" xmlns:xlink="http://www.w3.org/1999/xlink" xml:space="preserve" style="fill-rule:evenodd;clip-rule:evenodd;stroke-linejoin:round;stroke-miterlimit:1.41421;"><path d="M37.277,59.763l-0.288,0.171c0.027,-0.009 0.053,-0.009 0.175,-0.081c0.025,-0.018 0.067,-0.049 0.113,-0.09" style="fill-rule:nonzero;"/><path d="M65.653,25.257c-0.045,0.041 -0.088,0.073 -0.113,0.091c-0.122,0.073 -0.148,0.073 -0.175,0.081l0.288,-0.172Zm5.132,-19.409c-0.198,0.483 -0.404,0.963 -0.635,1.427c-0.229,0.472 -0.481,0.935 -0.741,1.39c-1.054,1.808 -2.341,3.529 -3.842,4.893l-0.574,0.476l-0.586,0.413l-0.295,0.168l-0.145,0.085l-0.152,0.082c-0.106,0.063 -0.202,0.131 -0.303,0.231c-0.048,0.043 -0.1,0.103 -0.163,0.181c-0.053,0.073 -0.108,0.159 -0.157,0.286c-0.1,0.215 -0.131,0.542 -0.077,0.766c0.116,0.466 0.29,0.603 0.397,0.732c0.224,0.229 0.365,0.315 0.507,0.42c0.533,0.348 0.945,0.589 1.317,0.878c0.367,0.281 0.657,0.581 0.83,0.875c0.169,0.295 0.24,0.581 0.217,0.921c-0.029,0.339 -0.15,0.734 -0.355,1.133c-0.39,0.753 -1.005,1.501 -1.68,2.194c-0.018,0.009 -0.027,0.009 -0.045,0.018c-0.082,0.049 -0.213,0.154 -0.322,0.29c-0.131,0.154 -0.234,0.376 -0.266,0.61c-0.047,0.483 0.1,0.698 0.162,0.831c0.076,0.141 0.135,0.209 0.19,0.281c0.203,0.236 0.329,0.336 0.453,0.456c0.245,0.229 0.444,0.419 0.617,0.619c0.342,0.394 0.532,0.77 0.57,1.151c0.048,0.376 -0.054,0.818 -0.289,1.278c-0.236,0.463 -0.581,0.925 -0.98,1.371l-0.31,0.339l0.016,0.471c0.045,1.344 -0.1,2.669 -0.533,3.875c-0.424,1.206 -1.153,2.267 -2.107,3.119c-0.957,0.855 -2.127,1.518 -3.391,1.998c-1.265,0.479 -2.615,0.812 -3.996,1.023c-2.762,0.427 -5.625,0.436 -8.472,0.252c-0.362,-0.028 -0.721,-0.065 -1.083,-0.096c5.068,-0.132 11.554,-1.365 15.896,-6.121c-2.35,-4.45 -0.063,-6.258 -0.063,-6.258c0,0 -2.094,-5.339 1.274,-7.248c-4.769,-3.113 -0.126,-8.898 -1.145,-8.449c-10.282,8.889 -17.111,17.728 -20.669,22.893c0.034,-0.571 0.047,-1.004 0.047,-1.24c0.005,-0.163 -0.018,-0.299 -0.043,-0.426c0.153,-0.237 0.295,-0.476 0.447,-0.716c1.172,-1.847 2.388,-3.663 3.657,-5.444c1.269,-1.781 2.584,-3.518 3.954,-5.206c0.684,-0.845 1.384,-1.679 2.094,-2.5c0.711,-0.82 1.45,-1.609 2.171,-2.416c0.716,-0.809 1.423,-1.622 2.158,-2.411c0.729,-0.795 1.5,-1.555 2.274,-2.294c1.555,-1.487 3.197,-2.873 4.923,-4.123c2.951,-2.139 6.225,-3.864 9.683,-4.73c-0.125,0.422 -0.281,0.839 -0.435,1.252m-21.431,40.695c2.079,0.782 4.152,1.605 6.096,2.575c0.485,0.245 0.957,0.498 1.403,0.771c0.442,0.266 0.875,0.552 1.208,0.846c0.134,0.119 0.238,0.227 0.313,0.322c-0.11,0.066 -0.25,0.14 -0.418,0.2l-1.171,0.447l0.546,1.122c0.292,0.6 0.553,1.173 0.766,1.755c0.209,0.575 0.367,1.16 0.404,1.658c0.02,0.249 0.002,0.472 -0.042,0.625c-0.042,0.157 -0.09,0.224 -0.16,0.285c-0.073,0.06 -0.211,0.129 -0.415,0.178c-0.104,0.017 -0.214,0.037 -0.34,0.045c-0.116,0.018 -0.258,0.002 -0.387,0.009l-1.689,0.082l0.601,1.509c0.083,0.212 0.161,0.421 0.203,0.612c0.048,0.195 0.053,0.361 0.053,0.501c-0.041,0.256 -0.086,0.346 -0.341,0.527c-0.249,0.164 -0.677,0.299 -1.137,0.359c-0.231,0.036 -0.471,0.05 -0.718,0.054l-0.368,0l-0.338,-0.018l-0.607,-0.031l-0.408,0.457l-0.159,0.181l-0.189,0.191c-0.132,0.127 -0.267,0.24 -0.404,0.342c-0.272,0.211 -0.557,0.358 -0.772,0.406c-0.223,0.05 -0.332,0.04 -0.474,-0.035c-0.146,-0.074 -0.338,-0.265 -0.518,-0.536l-0.706,-1.096l-1.011,0.857c-0.32,0.272 -0.567,0.368 -0.785,0.343c-0.221,0 -0.571,-0.177 -0.919,-0.476c-0.704,-0.617 -1.302,-1.582 -1.877,-2.535c-0.585,-0.964 -1.134,-1.98 -1.632,-3.036c-0.503,-1.051 -0.966,-2.125 -1.405,-3.218c-0.88,-2.187 -1.664,-4.423 -2.38,-6.681l-0.313,-1.027c0.025,-0.153 0.05,-0.299 0.068,-0.442c1.134,2.415 3.196,6.477 5.252,8.702c3.048,3.301 6.989,-0.511 5.971,-4.255c-0.439,-1.632 -2.775,-3.048 -5.278,-4.138c1.507,0.505 2.998,1.016 4.477,1.563m23.257,-44.561c-4.591,0.733 -8.773,2.859 -12.411,5.5c-1.826,1.317 -3.54,2.771 -5.16,4.313c-0.811,0.775 -1.598,1.569 -2.369,2.37c-0.77,0.802 -1.541,1.614 -2.252,2.466c-1.415,1.723 -2.702,3.538 -3.953,5.367c-1.242,1.838 -2.421,3.712 -3.543,5.61c-1.207,2.038 -2.344,4.11 -3.412,6.22l0,0.001c0,0 0.344,5.068 -1.025,13.756c-0.001,0.005 -0.001,0.008 -0.001,0.012c0.444,1.937 0.929,3.866 1.503,5.782c0.347,1.156 0.726,2.301 1.148,3.443c0.425,1.143 0.878,2.281 1.463,3.392c0.29,0.559 0.631,1.097 1.018,1.623c0.392,0.526 0.832,1.033 1.38,1.513c0.553,0.463 1.274,0.948 2.253,1.018c0.481,0.038 0.975,-0.052 1.396,-0.233c0.032,-0.01 0.054,-0.032 0.086,-0.045c0.182,0.16 0.381,0.316 0.617,0.444c0.317,0.171 0.694,0.289 1.061,0.322c0.369,0.035 0.729,-0.006 1.051,-0.082c0.648,-0.173 1.148,-0.476 1.586,-0.803c0.22,-0.162 0.422,-0.339 0.61,-0.517c0.047,-0.045 0.098,-0.1 0.147,-0.146l0.399,0c0.322,-0.009 0.644,-0.033 0.974,-0.075c0.658,-0.1 1.361,-0.259 2.07,-0.711c0.347,-0.228 0.699,-0.54 0.948,-0.953c0.252,-0.403 0.391,-0.879 0.426,-1.306c0.016,-0.269 0,-0.521 -0.032,-0.761c0.403,-0.113 0.827,-0.295 1.212,-0.621c0.449,-0.376 0.755,-0.92 0.884,-1.418c0.134,-0.503 0.143,-0.971 0.114,-1.396c-0.068,-0.848 -0.288,-1.58 -0.537,-2.276c-0.121,-0.335 -0.252,-0.659 -0.395,-0.974c0.329,-0.245 0.737,-0.64 0.877,-1.316c0.132,-0.738 -0.163,-1.305 -0.394,-1.649c-0.249,-0.358 -0.508,-0.612 -0.762,-0.838c-0.512,-0.445 -1.024,-0.776 -1.541,-1.093c-0.517,-0.309 -1.034,-0.588 -1.555,-0.852c-2.08,-1.044 -4.199,-1.88 -6.331,-2.675c-0.582,-0.217 -1.17,-0.421 -1.755,-0.627c2.022,0.029 4.047,-0.061 6.078,-0.373c1.5,-0.235 3.006,-0.597 4.466,-1.152c1.454,-0.558 2.878,-1.338 4.096,-2.433c1.216,-1.086 2.195,-2.499 2.734,-4.044c0.503,-1.398 0.673,-2.852 0.667,-4.273c0.378,-0.455 0.736,-0.95 1.031,-1.53c0.36,-0.716 0.628,-1.613 0.524,-2.561c-0.102,-0.954 -0.588,-1.794 -1.116,-2.393c-0.145,-0.172 -0.299,-0.327 -0.448,-0.476c0.611,-0.666 1.183,-1.4 1.642,-2.289c0.297,-0.575 0.543,-1.247 0.601,-2.003c0.066,-0.755 -0.131,-1.596 -0.523,-2.244c-0.39,-0.658 -0.904,-1.14 -1.407,-1.533c-0.203,-0.156 -0.408,-0.299 -0.613,-0.43c0.089,-0.064 0.18,-0.127 0.268,-0.191l0.696,-0.579c1.765,-1.605 3.134,-3.464 4.303,-5.454c0.286,-0.498 0.563,-1.005 0.814,-1.527c0.256,-0.522 0.49,-1.052 0.707,-1.591c0.206,-0.544 0.425,-1.088 0.578,-1.655c0.179,-0.557 0.302,-1.14 0.431,-1.72l0.331,-1.605l-1.655,0.271Z" style="fill:#f286b0;fill-rule:nonzero;"/><path d="M38.185,20.235c-0.005,-0.137 0.036,-0.257 0.093,-0.367c0.098,-0.27 0.221,-0.508 0.366,-0.716c-0.147,0.209 -0.27,0.449 -0.369,0.721c-0.057,0.11 -0.098,0.23 -0.093,0.366c0.014,0.411 0.356,0.735 0.771,0.721c0.206,-0.01 0.39,-0.1 0.52,-0.241c-0.13,0.138 -0.313,0.227 -0.517,0.237c-0.415,0.013 -0.757,-0.311 -0.771,-0.721" style="fill:#de3079;fill-rule:nonzero;"/><path d="M8.612,23.544l0.288,0.168c-0.027,-0.01 -0.053,-0.01 -0.175,-0.08c-0.025,-0.02 -0.067,-0.047 -0.113,-0.088m11.536,15.869c-1.382,-0.213 -2.734,-0.541 -3.998,-1.02c-1.265,-0.48 -2.434,-1.142 -3.39,-1.994c-0.954,-0.86 -1.687,-1.916 -2.108,-3.127c-0.435,-1.202 -0.578,-2.529 -0.535,-3.876l0.018,-0.463l-0.313,-0.342c-0.394,-0.441 -0.741,-0.906 -0.979,-1.371c-0.233,-0.462 -0.336,-0.897 -0.29,-1.276c0.043,-0.381 0.231,-0.758 0.571,-1.151c0.172,-0.202 0.372,-0.395 0.619,-0.619c0.127,-0.127 0.247,-0.224 0.451,-0.462c0.057,-0.068 0.113,-0.137 0.195,-0.279c0.058,-0.129 0.208,-0.346 0.158,-0.827c-0.036,-0.234 -0.136,-0.458 -0.263,-0.61c-0.11,-0.143 -0.242,-0.243 -0.323,-0.288c-0.019,-0.011 -0.03,-0.016 -0.044,-0.027c-0.675,-0.694 -1.289,-1.433 -1.679,-2.189c-0.206,-0.395 -0.329,-0.789 -0.356,-1.133c-0.027,-0.343 0.045,-0.626 0.214,-0.924c0.171,-0.296 0.462,-0.591 0.829,-0.876c0.373,-0.29 0.789,-0.526 1.319,-0.88c0.14,-0.099 0.284,-0.19 0.508,-0.417c0.103,-0.132 0.281,-0.267 0.398,-0.734c0.053,-0.222 0.023,-0.547 -0.077,-0.764c-0.049,-0.129 -0.104,-0.21 -0.156,-0.28c-0.064,-0.089 -0.12,-0.148 -0.164,-0.186c-0.101,-0.098 -0.196,-0.166 -0.303,-0.235l-0.152,-0.076l-0.142,-0.086l-0.295,-0.173l-0.587,-0.408l-0.574,-0.478c-1.502,-1.359 -2.788,-3.084 -3.842,-4.893c-0.262,-0.458 -0.513,-0.916 -0.743,-1.389c-0.231,-0.467 -0.437,-0.95 -0.634,-1.433c-0.155,-0.405 -0.311,-0.822 -0.435,-1.24c3.456,0.861 6.726,2.587 9.677,4.733c1.732,1.244 3.368,2.633 4.923,4.123c0.78,0.741 1.546,1.498 2.275,2.286c0.73,0.793 1.444,1.605 2.158,2.412c0.721,0.813 1.459,1.599 2.171,2.425c0.712,0.818 1.41,1.65 2.095,2.493c1.368,1.693 2.683,3.434 3.952,5.208c1.269,1.777 2.487,3.595 3.658,5.444c0.64,1.002 1.265,2.008 1.882,3.026c-0.042,0.199 -0.057,0.432 -0.051,0.707c0.003,0.161 -0.013,0.383 -0.04,0.644c-2.996,-4.612 -10.241,-14.721 -22.005,-24.892c-1.018,-0.443 3.624,5.339 -1.145,8.453c3.368,1.904 1.274,7.244 1.274,7.244c0,0 2.285,1.812 -0.063,6.264c4.342,4.751 10.828,5.987 15.896,6.115c-0.362,0.036 -0.721,0.072 -1.083,0.095c-2.852,0.186 -5.711,0.177 -8.472,-0.254m15.496,3.166c-0.015,0.051 -0.03,0.103 -0.048,0.152l-0.517,1.7c-0.716,2.256 -1.5,4.492 -2.38,6.676c-0.439,1.093 -0.903,2.172 -1.405,3.223c-0.498,1.05 -1.047,2.074 -1.631,3.034c-0.576,0.954 -1.174,1.915 -1.877,2.539c-0.347,0.299 -0.698,0.472 -0.92,0.476c-0.218,0.021 -0.464,-0.078 -0.785,-0.347l-1.011,-0.853l-0.706,1.093c-0.176,0.269 -0.372,0.463 -0.518,0.535c-0.144,0.075 -0.25,0.085 -0.475,0.037c-0.213,-0.046 -0.498,-0.204 -0.771,-0.408c-0.135,-0.105 -0.272,-0.218 -0.403,-0.345l-0.191,-0.192l-0.156,-0.177l-0.41,-0.456l-0.603,0.028l-0.337,0.021l-0.368,0c-0.243,-0.011 -0.487,-0.03 -0.718,-0.058c-0.461,-0.058 -0.888,-0.194 -1.138,-0.357c-0.249,-0.186 -0.299,-0.277 -0.34,-0.534c0,-0.137 0.005,-0.301 0.052,-0.495c0.043,-0.192 0.118,-0.404 0.204,-0.617l0.601,-1.509l-1.689,-0.082c-0.129,-0.005 -0.272,0.007 -0.387,-0.009c-0.127,-0.007 -0.237,-0.028 -0.34,-0.045c-0.204,-0.05 -0.341,-0.117 -0.415,-0.177c-0.07,-0.063 -0.12,-0.131 -0.161,-0.286c-0.043,-0.149 -0.059,-0.371 -0.041,-0.621c0.036,-0.502 0.196,-1.091 0.403,-1.663c0.214,-0.58 0.474,-1.151 0.767,-1.756l0.544,-1.118l-1.17,-0.448c-0.166,-0.062 -0.308,-0.132 -0.417,-0.197c0.075,-0.099 0.179,-0.212 0.313,-0.32c0.335,-0.299 0.767,-0.585 1.208,-0.853c0.446,-0.272 0.917,-0.53 1.404,-0.77c1.943,-0.97 4.013,-1.795 6.096,-2.573c1.477,-0.546 2.969,-1.063 4.467,-1.561c-2.503,1.088 -4.84,2.509 -5.281,4.134c-1.018,3.748 2.926,7.566 5.974,4.261c2.269,-2.456 4.544,-7.142 5.564,-9.397c0.002,0.013 0.004,0.025 0.006,0.037c-0.084,-4.611 0.336,-7.729 0.336,-7.729c0.042,-0.094 0.09,-0.174 0.142,-0.245c-0.052,0.072 -0.102,0.154 -0.145,0.249c-1.395,-2.964 -2.949,-5.856 -4.626,-8.689c-1.124,-1.899 -2.304,-3.771 -3.546,-5.607c-1.25,-1.826 -2.534,-3.644 -3.948,-5.363c-0.716,-0.854 -1.486,-1.663 -2.256,-2.469c-0.772,-0.803 -1.561,-1.596 -2.372,-2.366c-1.618,-1.542 -3.331,-3.001 -5.158,-4.32c-3.636,-2.635 -7.819,-4.765 -12.411,-5.501l-1.654,-0.261l0.348,1.603c0.13,0.58 0.25,1.16 0.431,1.719c0.155,0.567 0.372,1.112 0.578,1.655c0.22,0.54 0.447,1.07 0.709,1.586c0.248,0.524 0.524,1.029 0.812,1.528c1.167,1.991 2.536,3.851 4.302,5.458l0.698,0.58c0.086,0.063 0.177,0.125 0.265,0.186c-0.204,0.134 -0.411,0.276 -0.612,0.431c-0.505,0.387 -1.018,0.875 -1.407,1.532c-0.39,0.648 -0.59,1.486 -0.525,2.243c0.058,0.759 0.305,1.428 0.601,2.004c0.463,0.893 1.034,1.623 1.644,2.294c-0.148,0.147 -0.304,0.303 -0.451,0.475c-0.528,0.599 -1.013,1.442 -1.113,2.39c-0.107,0.954 0.16,1.848 0.523,2.565c0.295,0.576 0.653,1.074 1.031,1.532c-0.006,1.417 0.166,2.869 0.667,4.265c0.536,1.546 1.516,2.965 2.733,4.048c1.218,1.096 2.641,1.879 4.1,2.43c1.46,0.556 2.96,0.919 4.46,1.151c2.031,0.308 4.062,0.403 6.079,0.377c-0.585,0.212 -1.17,0.411 -1.754,0.63c-2.131,0.796 -4.247,1.632 -6.33,2.679c-0.524,0.258 -1.038,0.539 -1.555,0.846c-0.519,0.314 -1.029,0.649 -1.542,1.093c-0.251,0.231 -0.513,0.48 -0.761,0.842c-0.229,0.339 -0.528,0.907 -0.394,1.647c0.138,0.675 0.551,1.069 0.877,1.312c-0.14,0.32 -0.274,0.641 -0.394,0.976c-0.249,0.699 -0.469,1.431 -0.535,2.276c-0.032,0.428 -0.023,0.891 0.112,1.397c0.128,0.496 0.435,1.047 0.885,1.413c0.381,0.33 0.809,0.513 1.21,0.624c-0.032,0.241 -0.047,0.492 -0.032,0.758c0.037,0.436 0.173,0.911 0.427,1.31c0.249,0.413 0.598,0.731 0.947,0.952c0.712,0.45 1.409,0.612 2.067,0.707c0.333,0.05 0.657,0.068 0.979,0.078l0.399,0c0.05,0.047 0.095,0.1 0.145,0.145c0.189,0.183 0.389,0.353 0.607,0.52c0.438,0.322 0.939,0.631 1.589,0.798c0.324,0.083 0.683,0.123 1.052,0.087c0.369,-0.034 0.746,-0.148 1.061,-0.324c0.237,-0.13 0.437,-0.284 0.616,-0.442c0.03,0.009 0.054,0.034 0.086,0.046c0.424,0.177 0.918,0.269 1.394,0.235c0.979,-0.078 1.7,-0.562 2.255,-1.019c0.547,-0.479 0.988,-0.994 1.38,-1.515c0.387,-0.53 0.73,-1.065 1.02,-1.623c0.58,-1.11 1.038,-2.253 1.465,-3.389c0.42,-1.143 0.797,-2.295 1.141,-3.444c0.576,-1.918 1.061,-3.85 1.507,-5.788c0.002,0.04 0.004,0.078 0.006,0.118c-0.001,-0.042 -0.002,-0.081 -0.003,-0.123c-0.084,-1.159 -0.132,-2.261 -0.155,-3.295" style="fill:#f286b0;fill-rule:nonzero;"/><path d="M43.135,20.552c-0.365,-0.99 -1.571,-1.822 -2.639,-1.813c-0.455,-0.014 -0.999,0.15 -1.403,0.753l0.001,0c0.403,-0.599 0.946,-0.762 1.4,-0.748c1.067,-0.01 2.273,0.823 2.638,1.813c0.134,0.373 0.19,0.876 -0.142,1.395c0.335,-0.52 0.279,-1.025 0.145,-1.4" style="fill:#de3079;fill-rule:nonzero;"/><path d="M37.09,33.548c0.114,-0.436 -0.462,-1.285 -0.466,-1.285c-0.277,-0.324 -0.461,-0.782 -0.476,-1.29c-0.014,-0.377 0.065,-0.729 0.212,-1.027c-0.149,0.298 -0.229,0.653 -0.215,1.031c0.015,0.509 0.199,0.966 0.476,1.29c0.004,0 0.58,0.85 0.466,1.286c-0.009,0.039 -0.028,0.072 -0.054,0.102c0.028,-0.031 0.048,-0.066 0.057,-0.107" style="fill:#de3079;fill-rule:nonzero;"/><path d="M35.107,20.428c-0.005,-0.171 0.048,-0.326 0.141,-0.452c-0.095,0.127 -0.149,0.284 -0.144,0.456c0.014,0.415 0.356,0.737 0.77,0.723c0.21,-0.004 0.395,-0.096 0.526,-0.238c-0.131,0.14 -0.315,0.229 -0.523,0.234c-0.414,0.013 -0.756,-0.309 -0.77,-0.723" style="fill:#de3079;fill-rule:nonzero;"/><path d="M38.71,32.201c0,-0.001 0,-0.002 0.001,-0.002c-0.004,0.004 -0.041,0.054 -0.096,0.136c0.054,-0.081 0.092,-0.132 0.095,-0.134" style="fill:#de3079;fill-rule:nonzero;"/><path d="M34.194,19.042c-0.804,0.044 -1.653,0.567 -2.151,1.255c0.498,-0.685 1.347,-1.207 2.148,-1.25c0.45,-0.043 1.005,0.086 1.443,0.655c0.003,0 0.004,-0.001 0.006,-0.002c-0.44,-0.571 -0.995,-0.7 -1.446,-0.658" style="fill:#de3079;fill-rule:nonzero;"/><path d="M39.914,25.773c-0.735,1.106 -1.484,2.299 -2.167,3.333c0.683,-1.033 1.432,-2.227 2.167,-3.333" style="fill:#de3079;fill-rule:nonzero;"/><path d="M42.883,22.914c-0.898,0.737 -1.594,1.574 -2.176,2.426c0.582,-0.85 1.276,-1.686 2.173,-2.421c0.214,-0.176 0.392,-0.364 0.533,-0.564c-0.14,0.198 -0.318,0.385 -0.53,0.559" style="fill:#de3079;fill-rule:nonzero;"/><path d="M32.083,23.362c-0.899,-0.642 -1.234,-1.531 -0.953,-2.497c0.09,-0.311 0.243,-0.611 0.44,-0.887c-0.198,0.278 -0.352,0.579 -0.443,0.891c-0.281,0.966 0.054,1.854 0.953,2.498c2.468,1.771 3.528,4.206 4.897,5.896c0.002,-0.001 0.002,-0.003 0.004,-0.003c-1.369,-1.691 -2.429,-4.125 -4.898,-5.898" style="fill:#de3079;fill-rule:nonzero;"/><path d="M36.611,58.413c0,0 0.003,-0.01 0.003,-0.012c-0.001,-0.003 -0.006,-0.045 -0.013,-0.108c0.006,0.072 0.01,0.12 0.01,0.12" style="fill:#de3079;fill-rule:nonzero;"/><path d="M32.414,22.9c1.358,0.98 3.456,3.939 5.172,6.192c0.052,0 0.106,0.009 0.158,0.018c0.001,-0.001 0.002,-0.003 0.003,-0.004c-0.052,-0.009 -0.106,-0.018 -0.158,-0.018c-1.716,-2.253 -3.815,-5.213 -5.172,-6.192c-0.879,-0.636 -0.889,-1.369 -0.738,-1.872c0.073,-0.253 0.199,-0.498 0.364,-0.727c-0.166,0.229 -0.294,0.477 -0.367,0.731c-0.151,0.503 -0.141,1.237 0.738,1.872" style="fill:#64062e;fill-rule:nonzero;"/><path d="M42.513,22.474c0.21,-0.173 0.365,-0.349 0.477,-0.522c-0.112,0.172 -0.265,0.346 -0.474,0.517c-0.731,0.601 -1.655,1.88 -2.602,3.303c0.945,-1.422 1.869,-2.697 2.599,-3.298" style="fill:#64062e;fill-rule:nonzero;"/><path d="M35.634,19.702c-0.157,0.051 -0.292,0.147 -0.386,0.274c0.095,-0.126 0.23,-0.222 0.388,-0.271c0,-0.001 -0.001,-0.001 -0.002,-0.003" style="fill:#64062e;fill-rule:nonzero;"/><path d="M39.1,30.887c0.018,0.502 -0.136,0.972 -0.389,1.312l0.001,-0.002c0.255,-0.34 0.409,-0.811 0.391,-1.314c-0.022,-0.681 -0.34,-1.261 -0.793,-1.56c0.77,-1.109 1.428,-2.567 2.397,-3.983c-0.97,1.418 -1.629,2.877 -2.4,3.988c0.453,0.298 0.771,0.879 0.793,1.559" style="fill:#64062e;fill-rule:nonzero;"/><path d="M38.196,33.418c0.057,0.282 0.822,0.052 1.312,0.415c0.001,-0.001 0.002,-0.003 0.002,-0.005c-0.489,-0.362 -1.254,-0.133 -1.311,-0.414c-0.063,-0.313 0.251,-0.832 0.417,-1.079c-0.165,0.244 -0.483,0.768 -0.42,1.084" style="fill:#64062e;fill-rule:nonzero;"/><path d="M39.671,20.189c0.006,0.204 -0.07,0.391 -0.198,0.529c0.13,-0.138 0.208,-0.327 0.201,-0.533c-0.012,-0.348 -0.258,-0.616 -0.58,-0.694c-0.002,0.002 -0.002,0.003 -0.003,0.005c0.322,0.077 0.568,0.345 0.58,0.693" style="fill:#64062e;fill-rule:nonzero;"/><path d="M40.492,18.172c1.309,-0.009 2.737,0.975 3.181,2.192c0.255,0.711 0.161,1.398 -0.259,1.991c0.423,-0.595 0.518,-1.283 0.262,-1.996c-0.444,-1.216 -1.872,-2.2 -3.181,-2.191c-0.773,0.014 -1.413,0.357 -1.851,0.984c0.438,-0.625 1.077,-0.965 1.848,-0.98" style="fill:#64062e;fill-rule:nonzero;"/><path d="M37.033,33.655c-0.163,0.185 -0.607,0.242 -0.918,0.672c0.313,-0.43 0.758,-0.484 0.918,-0.672" style="fill:#64062e;fill-rule:nonzero;"/><path d="M36.613,58.402c0,0.001 0.001,0.007 0.001,0.007c0,0 -0.001,-0.007 -0.001,-0.009l0,0.002Z" style="fill:#64062e;fill-rule:nonzero;"/><path d="M36.613,58.4c0,0.002 0.001,0.009 0.001,0.009l0,-0.01l-0.001,0.001Z" style="fill:#64062e;fill-rule:nonzero;"/><path d="M34.159,18.476c1.027,-0.047 1.859,0.494 2.321,1.55c0.066,0.109 0.113,0.227 0.117,0.358c0.007,0.204 -0.069,0.393 -0.198,0.533c0.131,-0.14 0.209,-0.331 0.201,-0.537c-0.004,-0.131 -0.051,-0.249 -0.117,-0.358c-0.463,-1.057 -1.294,-1.597 -2.321,-1.55c-0.981,0.054 -1.993,0.674 -2.591,1.507c0.598,-0.831 1.609,-1.449 2.588,-1.503" style="fill:#64062e;fill-rule:nonzero;"/><path d="M36.978,29.264c0,-0.001 -0.001,-0.001 -0.001,-0.001c-0.256,0.15 -0.471,0.389 -0.617,0.683c0.147,-0.294 0.361,-0.533 0.618,-0.682" style="fill:#64062e;fill-rule:nonzero;"/><path d="M43.673,20.364c-0.444,-1.217 -1.872,-2.201 -3.181,-2.192c-0.772,0.015 -1.41,0.355 -1.848,0.98c-0.145,0.208 -0.268,0.446 -0.366,0.716c-0.057,0.11 -0.098,0.23 -0.092,0.367c0.012,0.41 0.354,0.735 0.77,0.721c0.203,-0.01 0.387,-0.099 0.517,-0.237c0.128,-0.139 0.204,-0.325 0.198,-0.529c-0.012,-0.349 -0.258,-0.617 -0.58,-0.694c0.001,-0.001 0.002,-0.003 0.004,-0.004l-0.001,0c0.403,-0.603 0.947,-0.767 1.403,-0.753c1.067,-0.009 2.273,0.823 2.638,1.813c0.134,0.375 0.19,0.88 -0.145,1.4c-0.112,0.174 -0.267,0.349 -0.477,0.522c-0.73,0.6 -1.654,1.876 -2.599,3.299c-0.735,1.106 -1.485,2.3 -2.166,3.333c-0.001,0.001 -0.003,0.003 -0.003,0.004c-0.053,-0.009 -0.107,-0.018 -0.159,-0.018c-1.716,-2.253 -3.814,-5.213 -5.172,-6.192c-0.879,-0.635 -0.888,-1.368 -0.738,-1.872c0.074,-0.254 0.201,-0.501 0.367,-0.731c0.498,-0.688 1.347,-1.211 2.15,-1.255c0.452,-0.042 1.007,0.087 1.446,0.658c-0.001,0.001 -0.003,0.002 -0.005,0.002c0.001,0.002 0.002,0.002 0.002,0.003c-0.158,0.05 -0.292,0.145 -0.387,0.271c-0.093,0.126 -0.147,0.281 -0.142,0.452c0.014,0.414 0.356,0.736 0.77,0.723c0.208,-0.005 0.392,-0.094 0.523,-0.234c0.128,-0.139 0.204,-0.328 0.197,-0.533c-0.004,-0.13 -0.052,-0.249 -0.117,-0.358c-0.463,-1.056 -1.294,-1.597 -2.321,-1.55c-0.979,0.055 -1.99,0.671 -2.588,1.502c-0.198,0.276 -0.351,0.576 -0.441,0.887c-0.282,0.966 0.054,1.855 0.954,2.497c2.468,1.773 3.528,4.207 4.897,5.898c-0.001,0 -0.002,0.002 -0.004,0.003c0,0 0.001,0 0.001,0.001c-0.257,0.149 -0.471,0.388 -0.618,0.682c-0.147,0.298 -0.226,0.651 -0.212,1.027c0.015,0.508 0.199,0.966 0.476,1.29c0.004,0 0.58,0.849 0.467,1.285c-0.01,0.041 -0.03,0.076 -0.058,0.107c-0.16,0.188 -0.605,0.242 -0.917,0.672c-0.052,0.071 -0.099,0.151 -0.141,0.245c0,0 -0.421,3.119 -0.336,7.729c0.01,0.063 0.018,0.123 0.032,0.187l0,0.008c-0.009,0.029 -0.017,0.055 -0.026,0.083c0.023,1.034 0.071,2.136 0.156,3.296c0,0.041 0.001,0.08 0.002,0.122c0.088,5.894 0.703,11.474 0.798,12.297c0.007,0.063 0.012,0.103 0.013,0.108l0,-0.002l0,-0.001l0,0.01c0,0 1.279,-5.878 1.871,-10.811c0.001,-0.005 0.001,-0.008 0.001,-0.012c1.368,-8.69 1.025,-13.757 1.025,-13.757l-0.001,-0.001c-0.001,0.002 -0.001,0.004 -0.002,0.005c-0.49,-0.362 -1.256,-0.133 -1.313,-0.415c-0.063,-0.315 0.255,-0.839 0.42,-1.083c0.055,-0.081 0.093,-0.132 0.096,-0.136c0.254,-0.34 0.408,-0.81 0.389,-1.312c-0.023,-0.68 -0.34,-1.26 -0.793,-1.559c0.77,-1.11 1.43,-2.57 2.4,-3.987c0.582,-0.853 1.277,-1.689 2.176,-2.427c0.212,-0.174 0.39,-0.361 0.53,-0.559c0.422,-0.593 0.515,-1.28 0.26,-1.991" style="fill:#a44069;fill-rule:nonzero;"/><path d="M29.703,39.572c-5.068,-0.128 -11.554,-1.364 -15.896,-6.114c2.348,-4.452 0.064,-6.265 0.064,-6.265c0,0 2.094,-5.34 -1.275,-7.244c4.769,-3.114 0.127,-8.895 1.145,-8.454c11.764,10.173 19.009,20.28 22.005,24.893c0.027,-0.261 0.043,-0.483 0.04,-0.644c-0.006,-0.275 0.009,-0.507 0.051,-0.707c-0.618,-1.018 -1.243,-2.024 -1.882,-3.026c-1.172,-1.849 -2.389,-3.667 -3.658,-5.444c-1.269,-1.774 -2.584,-3.515 -3.953,-5.208c-0.684,-0.843 -1.382,-1.675 -2.094,-2.493c-0.712,-0.825 -1.45,-1.611 -2.171,-2.425c-0.714,-0.807 -1.428,-1.619 -2.157,-2.412c-0.73,-0.788 -1.496,-1.545 -2.276,-2.286c-1.555,-1.49 -3.191,-2.879 -4.923,-4.124c-2.95,-2.145 -6.221,-3.87 -9.677,-4.731c0.124,0.417 0.28,0.834 0.435,1.239c0.197,0.483 0.403,0.966 0.634,1.433c0.229,0.473 0.48,0.931 0.744,1.389c1.053,1.809 2.339,3.534 3.841,4.893l0.574,0.478l0.587,0.408l0.295,0.172l0.142,0.087l0.152,0.077c0.107,0.068 0.202,0.136 0.304,0.234c0.043,0.038 0.099,0.097 0.163,0.186c0.052,0.07 0.107,0.151 0.156,0.28c0.1,0.218 0.13,0.542 0.077,0.764c-0.117,0.467 -0.294,0.603 -0.399,0.735c-0.223,0.226 -0.367,0.317 -0.507,0.417c-0.53,0.353 -0.945,0.589 -1.319,0.879c-0.367,0.285 -0.658,0.58 -0.83,0.876c-0.167,0.298 -0.24,0.581 -0.213,0.924c0.028,0.344 0.149,0.738 0.356,1.133c0.389,0.756 1.004,1.495 1.679,2.189c0.015,0.011 0.025,0.016 0.044,0.027c0.081,0.045 0.213,0.145 0.323,0.287c0.128,0.153 0.227,0.377 0.263,0.611c0.05,0.481 -0.099,0.698 -0.158,0.826c-0.082,0.144 -0.139,0.212 -0.195,0.28c-0.204,0.238 -0.324,0.335 -0.451,0.462c-0.246,0.224 -0.447,0.416 -0.618,0.619c-0.341,0.394 -0.529,0.77 -0.572,1.151c-0.046,0.379 0.057,0.814 0.29,1.276c0.238,0.464 0.585,0.93 0.979,1.371l0.313,0.342l-0.018,0.463c-0.043,1.347 0.1,2.674 0.535,3.876c0.421,1.212 1.154,2.268 2.108,3.127c0.956,0.852 2.125,1.514 3.391,1.994c1.263,0.48 2.615,0.807 3.997,1.02c2.76,0.431 5.621,0.44 8.472,0.254c0.362,-0.023 0.721,-0.059 1.083,-0.095" style="fill:#fcd7e5;fill-rule:nonzero;"/><path d="M35.632,42.264c-1.019,2.254 -3.295,6.94 -5.563,9.397c-3.048,3.305 -6.993,-0.513 -5.975,-4.261c0.442,-1.625 2.778,-3.046 5.281,-4.134c-1.499,0.498 -2.99,1.015 -4.467,1.561c-2.083,0.778 -4.152,1.603 -6.097,2.573c-0.485,0.24 -0.956,0.498 -1.403,0.77c-0.442,0.268 -0.872,0.554 -1.208,0.853c-0.134,0.108 -0.238,0.221 -0.312,0.32c0.108,0.065 0.251,0.135 0.416,0.197l1.17,0.448l-0.545,1.118c-0.291,0.605 -0.552,1.176 -0.765,1.756c-0.208,0.573 -0.367,1.16 -0.404,1.663c-0.018,0.25 -0.002,0.472 0.041,0.621c0.041,0.155 0.091,0.223 0.161,0.286c0.075,0.06 0.211,0.127 0.415,0.177c0.104,0.017 0.213,0.038 0.339,0.045c0.117,0.016 0.259,0.004 0.389,0.009l1.688,0.082l-0.601,1.508c-0.086,0.214 -0.161,0.426 -0.204,0.618c-0.048,0.194 -0.052,0.358 -0.052,0.495c0.041,0.257 0.091,0.348 0.34,0.534c0.249,0.162 0.678,0.299 1.138,0.357c0.231,0.028 0.476,0.047 0.719,0.057l0.366,0l0.338,-0.02l0.603,-0.028l0.41,0.456l0.157,0.177l0.19,0.192c0.132,0.127 0.267,0.24 0.403,0.345c0.272,0.204 0.558,0.362 0.771,0.408c0.224,0.048 0.331,0.038 0.476,-0.037c0.144,-0.072 0.34,-0.266 0.517,-0.535l0.707,-1.093l1.011,0.853c0.319,0.269 0.566,0.368 0.784,0.347c0.221,-0.004 0.573,-0.177 0.92,-0.476c0.703,-0.624 1.301,-1.585 1.877,-2.539c0.584,-0.96 1.133,-1.984 1.632,-3.034c0.501,-1.052 0.965,-2.13 1.405,-3.223c0.879,-2.184 1.663,-4.42 2.379,-6.676l0.517,-1.7c0.018,-0.049 0.033,-0.101 0.049,-0.152c-0.002,-0.094 -0.005,-0.186 -0.006,-0.278c-0.002,-0.012 -0.005,-0.024 -0.007,-0.037" style="fill:#fcd7e5;fill-rule:nonzero;"/><path d="M35.671,42.488c-0.014,-0.064 -0.022,-0.124 -0.032,-0.187c0.001,0.092 0.003,0.184 0.006,0.278c0.009,-0.028 0.017,-0.054 0.026,-0.083l0,-0.008Z" style="fill:#fcd7e5;fill-rule:nonzero;"/><path d="M50.155,49.118c1.018,3.744 -2.922,7.555 -5.971,4.255c-2.056,-2.225 -4.118,-6.287 -5.252,-8.703c-0.018,0.144 -0.042,0.291 -0.068,0.443l0.313,1.027c0.716,2.257 1.5,4.494 2.38,6.681c0.439,1.093 0.902,2.166 1.405,3.219c0.498,1.056 1.047,2.07 1.632,3.036c0.576,0.951 1.173,1.917 1.877,2.534c0.348,0.298 0.698,0.476 0.919,0.476c0.218,0.025 0.465,-0.07 0.785,-0.343l1.011,-0.857l0.706,1.096c0.18,0.271 0.373,0.461 0.518,0.536c0.142,0.074 0.251,0.085 0.474,0.035c0.215,-0.048 0.5,-0.195 0.772,-0.405c0.137,-0.103 0.272,-0.216 0.404,-0.343l0.189,-0.191l0.159,-0.182l0.408,-0.457l0.607,0.031l0.338,0.019l0.368,0c0.247,-0.004 0.487,-0.019 0.718,-0.054c0.46,-0.06 0.888,-0.195 1.137,-0.359c0.255,-0.182 0.3,-0.271 0.341,-0.527c0,-0.139 -0.005,-0.307 -0.053,-0.501c-0.042,-0.19 -0.12,-0.4 -0.203,-0.613l-0.601,-1.508l1.689,-0.082c0.129,-0.007 0.271,0.009 0.387,-0.009c0.127,-0.009 0.236,-0.027 0.34,-0.045c0.204,-0.048 0.342,-0.119 0.415,-0.177c0.07,-0.062 0.118,-0.129 0.16,-0.286c0.044,-0.152 0.062,-0.377 0.042,-0.626c-0.037,-0.498 -0.195,-1.082 -0.404,-1.658c-0.213,-0.581 -0.474,-1.154 -0.766,-1.755l-0.546,-1.122l1.171,-0.446c0.168,-0.061 0.309,-0.134 0.418,-0.2c-0.075,-0.095 -0.179,-0.204 -0.313,-0.322c-0.333,-0.294 -0.766,-0.58 -1.208,-0.847c-0.446,-0.272 -0.918,-0.526 -1.403,-0.77c-1.944,-0.97 -4.017,-1.793 -6.096,-2.576c-1.479,-0.546 -2.97,-1.057 -4.477,-1.563c2.503,1.091 4.839,2.507 5.278,4.139" style="fill:#fcd7e5;fill-rule:nonzero;"/><path d="M56.615,13.449c-0.775,0.739 -1.546,1.498 -2.275,2.294c-0.735,0.788 -1.442,1.602 -2.158,2.411c-0.721,0.808 -1.46,1.596 -2.172,2.416c-0.709,0.821 -1.41,1.655 -2.094,2.5c-1.369,1.688 -2.684,3.425 -3.953,5.206c-1.269,1.782 -2.486,3.597 -3.657,5.444c-0.152,0.241 -0.295,0.478 -0.447,0.716c0.025,0.127 0.048,0.263 0.043,0.426c0,0.236 -0.013,0.669 -0.048,1.24c3.558,-5.165 10.388,-14.004 20.67,-22.893c1.018,-0.449 -3.624,5.335 1.145,8.449c-3.368,1.909 -1.274,7.248 -1.274,7.248c0,0 -2.287,1.809 0.063,6.258c-4.342,4.756 -10.828,5.989 -15.896,6.121c0.362,0.031 0.721,0.068 1.083,0.095c2.847,0.185 5.709,0.177 8.472,-0.251c1.381,-0.211 2.731,-0.543 3.996,-1.023c1.264,-0.481 2.434,-1.142 3.391,-1.999c0.954,-0.852 1.684,-1.912 2.107,-3.118c0.433,-1.206 0.579,-2.531 0.533,-3.875l-0.016,-0.471l0.31,-0.339c0.399,-0.446 0.744,-0.908 0.979,-1.371c0.237,-0.46 0.338,-0.902 0.29,-1.278c-0.038,-0.381 -0.228,-0.756 -0.571,-1.151c-0.172,-0.199 -0.371,-0.39 -0.616,-0.619c-0.124,-0.12 -0.25,-0.22 -0.453,-0.456c-0.055,-0.072 -0.114,-0.141 -0.19,-0.28c-0.062,-0.134 -0.209,-0.349 -0.162,-0.832c0.032,-0.234 0.134,-0.456 0.265,-0.61c0.11,-0.136 0.241,-0.241 0.323,-0.29c0.017,-0.009 0.027,-0.009 0.045,-0.018c0.676,-0.694 1.289,-1.441 1.68,-2.194c0.205,-0.398 0.325,-0.794 0.355,-1.133c0.023,-0.34 -0.048,-0.626 -0.218,-0.92c-0.172,-0.296 -0.462,-0.594 -0.829,-0.875c-0.372,-0.291 -0.784,-0.531 -1.317,-0.879c-0.142,-0.105 -0.283,-0.191 -0.508,-0.42c-0.106,-0.129 -0.281,-0.265 -0.396,-0.732c-0.054,-0.224 -0.023,-0.551 0.077,-0.766c0.049,-0.127 0.104,-0.213 0.157,-0.286c0.063,-0.079 0.115,-0.138 0.162,-0.181c0.103,-0.1 0.198,-0.168 0.304,-0.231l0.152,-0.082l0.145,-0.086l0.295,-0.168l0.587,-0.412l0.573,-0.475c1.501,-1.365 2.787,-3.086 3.842,-4.894c0.26,-0.456 0.512,-0.918 0.741,-1.389c0.231,-0.465 0.437,-0.945 0.635,-1.428c0.154,-0.413 0.311,-0.83 0.435,-1.252c-3.459,0.866 -6.732,2.59 -9.683,4.73c-1.726,1.25 -3.368,2.636 -4.922,4.123" style="fill:#fcd7e5;fill-rule:nonzero;"/></svg>