<?xml version="1.0" encoding="UTF-8" standalone="no"?><!DOCTYPE svg PUBLIC "-//W3C//DTD SVG 1.1//EN" "http://www.w3.org/Graphics/SVG/1.1/DTD/svg11.dtd"><svg width="100%" height="100%" viewBox="0 0 170 280" version="1.1" xmlns="http://www.w3.org/2000/svg" xmlns:xlink="http://www.w3.org/1999/xlink" xml:space="preserve" style="fill-rule:evenodd;clip-rule:evenodd;stroke-linejoin:round;stroke-miterlimit:1.41421;"><path d="M80.495,83.459c4.603,4.803 11.847,4.64 16.203,-0.397c2.313,-2.675 4.844,-5.591 7.166,-8.26c4.365,-5.031 4.575,-14.121 5.359,-20.728c0.469,-3.84 3.025,-5.337 6.138,-5.515c6.647,-0.363 12.137,-2.194 8.915,-8.022c-2.678,-4.844 -7.215,-6.9 -11.6,-7.325c-6.628,-0.647 -12.965,-2.525 -10.659,-8.763c2.212,-5.959 7.206,-9.187 11.487,-9.187c4.691,-0.141 8.391,2.959 11.107,6.575c3.975,5.331 5.287,5.241 3.625,-1.21c-4.46,-17.406 -15.613,-21.265 -30.61,-20.546c-25.343,1.206 -32.231,32.387 -34.29,53.344c-0.65,6.628 3.19,15.64 7.844,20.399c3.006,3.066 6.353,6.544 9.315,9.635Z" style="fill:#a32921;fill-rule:nonzero;"/><path d="M117.82,67.353c-3.894,-4.172 -10.444,-3.385 -13.978,1.078l-9.719,12.275c-3.537,4.459 -9.547,4.7 -13.419,0.519l-12.609,-13.601c-3.869,-4.181 -10.112,-4.134 -13.619,0.35c-50.497,64.647 -54.637,168.163 -54.471,201.085c0.031,5.697 0.637,10.315 1.087,10.315c0.453,0 2.388,-2.95 4.331,-6.609c1.931,-3.647 4.941,-3.647 6.713,0c1.775,3.659 3.612,6.609 4.109,6.609c0.488,0 2.466,-2.95 4.4,-6.609c1.931,-3.647 4.944,-3.647 6.719,0c1.775,3.659 3.615,6.609 4.112,6.609c0.488,0 2.463,-2.95 4.394,-6.609c1.934,-3.647 4.947,-3.647 6.719,0c1.775,3.659 3.612,6.609 4.1,6.609c0.49,0 2.468,-2.95 4.406,-6.609c1.931,-3.647 4.947,-3.647 6.719,0c1.769,3.659 3.609,6.609 4.1,6.609c0.494,0 2.462,-2.95 4.397,-6.609c1.94,-3.647 4.95,-3.647 6.725,0c1.762,3.659 3.609,6.609 4.106,6.609c0.49,0 2.459,-2.95 4.394,-6.609c1.934,-3.647 4.947,-3.647 6.718,0c1.775,3.659 3.61,6.609 4.097,6.609c0.5,0 2.469,-2.95 4.403,-6.609c1.941,-3.647 4.954,-3.647 6.719,0c1.778,3.659 3.606,6.609 4.113,6.609c0.5,0 2.462,-2.95 4.396,-6.609c1.944,-3.647 4.954,-3.647 6.726,0c1.772,3.659 3.609,6.609 4.109,6.609c0.494,0 2.466,-2.95 4.394,-6.609c1.937,-3.647 4.95,-3.647 6.731,0c1.759,3.659 3.6,6.609 4.1,6.609c0.497,0 2.462,-2.95 4.4,-6.609c1.937,-3.647 4.95,-3.647 6.725,0c1.769,3.659 3.606,6.609 4.103,6.609c0.494,0 2.462,-2.95 4.397,-6.609c1.941,-3.647 4.95,-3.647 6.725,0c1.772,3.659 3.525,6.609 3.919,6.609c0.4,0 0.887,-4.618 0.997,-10.315c2.534,-129.25 -35.004,-183.988 -51.488,-201.706Z" style="fill:#d37728;fill-rule:nonzero;"/><path d="M51.211,127.562c0,-4.391 3.578,-7.966 7.95,-7.966c4.4,0 7.972,3.575 7.972,7.966c0,4.391 -3.578,7.965 -7.972,7.965c-4.372,0 -7.95,-3.574 -7.95,-7.965Z" style="fill:#fff;fill-rule:nonzero;"/><path d="M103.998,127.562c0,-4.391 3.575,-7.966 7.95,-7.966c4.397,0 7.972,3.575 7.972,7.966c0,4.391 -3.581,7.965 -7.972,7.965c-4.375,0 -7.95,-3.574 -7.95,-7.965Z" style="fill:#fff;fill-rule:nonzero;"/><path d="M111.117,170.425l-7.481,16.725c-2.322,5.203 -3.922,9.615 -3.638,9.949l0.435,0.654c9.762,19.981 12.693,37.431 7.69,45.468c-1.691,2.741 -4.272,4.25 -7.266,4.26c-2.518,0 -5.321,-0.638 -7.946,-2.653c-3.744,-2.866 -7.01,-2.657 -11.169,0.359c-3.094,2.244 -6.344,3.147 -8.609,3.147l-0.454,-0.019c-3.422,-0.381 -6.118,-2.119 -7.8,-5.012c-6.834,-11.8 5.963,-42.122 7.438,-45.532l0.297,-0.522c0.184,-0.284 -1.719,-4.581 -4.313,-9.653l-8.072,-15.809c-2.093,-4.097 -1.006,-9.091 2.594,-11.95l17.369,-13.747c3.519,-2.772 8.487,-2.753 11.99,0.035l16.141,12.84c3.441,2.738 4.585,7.441 2.794,11.46Z" style="fill:#e1b7a6;fill-rule:nonzero;"/><path d="M112.748,135.984c-2.672,0 -4.834,-2.172 -4.834,-4.835c0,-2.665 2.172,-4.834 4.834,-4.834c2.663,0 4.828,2.169 4.828,4.834c0,2.663 -2.168,4.835 -4.828,4.835Z" style="fill:#030404;fill-rule:nonzero;"/><path d="M96.339,206.468l-0.56,1.069c-1.509,3.006 -5.256,4.881 -8.609,4.881c-3.353,0 -7.091,-1.875 -8.619,-4.881c0,0 -0.253,-0.481 -0.547,-1.069c-0.312,-0.587 -1.346,0.919 -2.237,3.419c-3.8,10.762 -7.003,24.047 -4.122,29.022c0.294,0.509 0.653,0.9 1.078,1.172c0.75,0.484 3.763,0.331 5.916,-1.213c2.644,-1.912 5.428,-5.712 5.753,-12.931c0.041,-0.763 0.356,-1.45 0.85,-1.956c0.834,-0.857 3.012,-0.857 3.853,0c0.494,0.506 0.813,1.193 0.85,1.956c0.319,7.219 3.106,11.019 5.759,12.931c2.141,1.544 5.163,1.697 5.922,1.213c0.425,-0.272 0.766,-0.663 1.069,-1.172c2.897,-4.975 -0.316,-18.26 -4.119,-29.022c-0.89,-2.5 -1.934,-4.006 -2.237,-3.419Z" style="fill:#6f0d33;fill-rule:nonzero;"/><path d="M91.433,145.584c-2.822,-2.247 -7.41,-2.247 -10.232,-0.01l-11.753,9.3c-2.834,2.241 -3.79,6.666 -2.144,9.866l16.394,32.113c1.644,3.221 4.169,3.156 5.641,-0.132l14.744,-32.972c1.478,-3.3 0.381,-7.787 -2.429,-10.04l-10.221,-8.125Z" style="fill:#a32921;fill-rule:nonzero;"/><path d="M55.173,132.237c0,-2.663 2.169,-4.834 4.825,-4.834c2.669,0 4.838,2.171 4.838,4.834c0,2.666 -2.172,4.834 -4.838,4.834c-2.656,0 -4.825,-2.168 -4.825,-4.834Z" style="fill:#030404;fill-rule:nonzero;"/></svg>