<?xml version="1.0" encoding="UTF-8" standalone="no"?><!DOCTYPE svg PUBLIC "-//W3C//DTD SVG 1.1//EN" "http://www.w3.org/Graphics/SVG/1.1/DTD/svg11.dtd"><svg width="100%" height="100%" viewBox="0 0 847 1121" version="1.1" xmlns="http://www.w3.org/2000/svg" xmlns:xlink="http://www.w3.org/1999/xlink" xml:space="preserve" style="fill-rule:evenodd;clip-rule:evenodd;stroke-linejoin:round;stroke-miterlimit:1.41421;"><path d="M159.13,889.012c-11.965,58.716 -23.931,117.435 -35.9,176.154c10.528,2.703 21.313,4.353 32.172,4.887c15.191,-57.916 25.522,-117.106 30.735,-176.75c-8.569,-3.303 -17.838,-4.775 -27.007,-4.291Z" style="fill:#966e60;fill-rule:nonzero;"/><path d="M113.44,1113.22c10.056,2.853 22.762,4.943 29.322,-3.194c2.171,-2.694 3.212,-6.103 4.19,-9.422c2.988,-10.134 5.769,-20.328 8.45,-30.547c-10.859,-0.534 -21.644,-2.184 -32.172,-4.887c-3.262,16.015 -6.525,32.031 -9.79,48.05Z" style="fill:#403e3f;fill-rule:nonzero;"/><path d="M573.702,1119.27c9.56,0.568 19.194,-0.135 28.566,-2.094c2.753,-14.46 5.362,-28.947 7.853,-43.456c-9.45,1.081 -18.95,1.675 -28.46,1.771c-2.465,14.625 -5.065,29.232 -7.959,43.779Z" style="fill:#403e3f;fill-rule:nonzero;"/><path d="M606.783,824.441c-1.321,2.512 -2.609,5.078 -3.262,7.84c-0.622,2.628 -0.65,5.356 -0.684,8.056c-0.938,78.775 -8.082,157.463 -21.176,235.147c9.51,-0.093 19.01,-0.687 28.46,-1.768c17.028,-99.222 27.956,-199.491 32.681,-300.054c-14.175,15.238 -26.322,32.363 -36.019,50.779Z" style="fill:#ab7a64;fill-rule:nonzero;"/><path d="M2.205,637.122c2.047,9.472 5.457,18.806 11.307,26.531c6.709,8.859 16.562,15.288 27.371,17.859c6.719,-20.246 17.585,-39.103 31.732,-55.065c-13.516,-13.716 -13.863,-35.266 -13.35,-54.516c-5.391,2.166 -10.272,5.581 -14.16,9.9c-0.493,-9.5 -0.984,-19 -1.478,-28.5c-0.128,-2.465 -0.35,-5.159 -2.053,-6.95c-3.475,-3.656 -9.597,-0.734 -13.356,2.631c-23.906,21.404 -32.788,56.744 -26.013,88.11Z" style="fill:#966e60;fill-rule:nonzero;"/><path d="M652.093,732.369c-0.353,-41.244 -4.807,-85.222 -30.469,-117.513c-11.941,-15.022 -27.925,-26.594 -45.4,-34.522c-30.919,-14.028 -70.541,-24.84 -100.75,-9.347c-20.791,10.663 -44.019,15.475 -67.003,19.685c-95.953,17.581 -193.463,26.672 -291.013,27.134c-15.593,0.072 -31.878,0.081 -45.768,7.169c-15.047,7.672 -25.032,22.556 -32.55,37.681c-24.954,50.172 -29.435,110.16 -12.213,163.478c6.516,20.175 16.591,40.113 33.547,52.838c8.181,6.137 17.666,10.372 25.809,16.556c13.41,10.181 22.394,24.997 30.857,39.553c26.484,45.556 50.968,92.266 73.537,139.885c10.669,-1.6 21.128,-4.429 31.147,-8.429c-24.65,-56.09 -51.247,-111.321 -79.769,-165.54c-1.906,-3.616 -3.85,-7.875 -2.206,-11.613c107.428,26.91 218.556,13.141 327.991,-3.868c41.897,-6.513 84.622,-13.463 122.175,-33.144c18.609,-9.753 36.031,-22.963 46.843,-40.975c13.991,-23.306 15.469,-51.844 15.235,-79.028Z" style="fill:#ab7a64;fill-rule:nonzero;"/><path d="M137.577,889.059c31.55,-11.378 56.769,-38.922 65.331,-71.343c99.963,-19.16 202.282,-25.982 303.9,-20.266c4.325,26.241 9.944,52.269 16.829,77.956c0,0 -219.722,53.466 -386.06,13.653Z" style="fill:#eed1ba;fill-rule:nonzero;"/><path d="M225.874,650.266c0.272,-4.875 -3.966,-8.794 -8.234,-11.16c-13.907,-7.709 -32.238,-6.578 -45.088,2.785c-4.303,3.134 -8.312,8.287 -6.65,13.346c1.522,4.641 6.916,6.585 11.656,7.754c7.36,1.815 14.9,3.271 22.475,2.934c7.572,-0.341 15.254,-2.613 21.022,-7.534c2.463,-2.1 4.638,-4.891 4.819,-8.125Z" style="fill:#c69077;fill-rule:nonzero;"/><path d="M250.29,655.453c4.256,0.9 8.978,0.719 12.581,-1.722c3.6,-2.437 5.537,-7.581 3.412,-11.375c-1.231,-2.2 -3.537,-3.59 -5.893,-4.481c-6.8,-2.559 -14.85,-1.491 -20.747,2.756c-1.747,3.091 -0.878,7.194 1.422,9.9c2.3,2.703 5.753,4.188 9.225,4.922Z" style="fill:#c69077;fill-rule:nonzero;"/><path d="M289.874,626.25c-2.966,-0.997 -6.131,-2.003 -9.163,-1.231c-3.028,0.772 -5.612,4.112 -4.39,6.99c2.725,1.663 5.756,3.116 8.947,3.013c3.194,-0.103 6.512,-2.225 7.003,-5.381c0.125,-0.794 0.047,-1.669 -0.456,-2.294c-0.472,-0.588 -1.228,-0.856 -1.941,-1.097Z" style="fill:#c69077;fill-rule:nonzero;"/><path d="M311.833,672.884c2.232,-0.056 4.56,-0.24 6.475,-1.387c1.897,-1.141 3.15,-3.088 4.232,-5.019c1.703,-3.047 3.159,-6.841 1.49,-9.906c-1.694,-3.113 -5.722,-3.913 -9.237,-4.375c-5.291,-0.694 -10.666,-1.391 -15.938,-0.56c-5.272,0.829 -10.515,3.416 -13.319,7.954c-0.931,1.506 -1.581,3.284 -1.306,5.031c0.597,3.781 4.922,5.587 8.656,6.419c6.21,1.381 12.588,2.003 18.947,1.843Z" style="fill:#c69077;fill-rule:nonzero;"/><path d="M346.765,627.797c-0.61,0.734 -1.157,1.569 -1.297,2.509c-0.444,2.969 3.009,4.878 5.884,5.744c5.144,1.553 10.76,2.716 15.809,0.881c2.241,-0.815 4.254,-2.434 5.613,-4.415c2.516,-3.669 0.341,-8.679 -4,-9.66c-3.006,-0.678 -6.059,-1.081 -9.128,-0.912c-4.847,0.265 -9.781,2.118 -12.881,5.853Z" style="fill:#c69077;fill-rule:nonzero;"/><path d="M559.236,815.706c9.275,5.875 18.551,11.747 27.829,17.619c21.497,-14.578 38.99,-35.003 50.09,-58.488c2.335,4.979 3.703,10.404 4.006,15.891c16.357,-42.825 10.388,-90.381 9.085,-136.206c-1.666,-58.728 4.803,-117.685 19.162,-174.657c-71.412,25.929 -152.5,24.122 -222.684,-4.962c22.769,73.378 27.728,150.866 35.75,227.275c1.938,18.456 4.184,37.316 12.391,53.959c13.106,26.575 39.337,43.722 64.371,59.569Z" style="fill:#eed1ba;fill-rule:nonzero;"/><path d="M195.94,1085.93c4.546,9.753 9.25,19.872 17.446,26.847c8.197,6.975 20.979,9.828 29.75,3.591c-6.925,-16.685 -14.043,-33.291 -21.312,-49.829c-10.019,4 -20.478,6.829 -31.147,8.429c1.738,3.662 3.55,7.287 5.263,10.962Z" style="fill:#403e3f;fill-rule:nonzero;"/><path d="M139.112,891.256c28.515,-10.944 52.125,-33.915 63.843,-62.125c5.678,-13.675 8.503,-28.465 8.503,-43.253c0,-15.716 -3.193,-31.434 -9.572,-45.819c-0.35,-0.787 -1.274,-1.143 -2.062,-0.793c-0.788,0.35 -1.144,1.271 -0.794,2.062c6.194,13.963 9.303,29.256 9.303,44.55c0,14.391 -2.753,28.778 -8.265,42.056c-11.366,27.391 -34.385,49.791 -62.075,60.403c-0.806,0.31 -1.213,1.216 -0.903,2.019c0.309,0.806 1.212,1.21 2.022,0.9Z" style="fill:#966e60;fill-rule:nonzero;"/><path d="M512.44,1072.07c1.822,12.384 3.643,24.771 5.462,37.159c0.372,2.525 0.781,5.15 2.144,7.237c5.584,8.541 18.259,0.038 27.541,2.9c1.653,-15.446 1.537,-30.975 0.562,-46.496c-11.878,1.259 -23.906,1.034 -35.709,-0.8Z" style="fill:#403e3f;fill-rule:nonzero;"/><path d="M548.149,1072.87c-0.928,-14.76 -2.634,-29.513 -4.384,-44.179c-8.169,-68.465 -17.066,-136.834 -26.682,-205.078c-1.312,-9.337 -2.725,-18.931 -7.172,-27.05c-4.29,-7.831 -11.049,-13.637 -17.656,-19.259c-8.734,-7.431 -17.465,-14.859 -26.197,-22.291c3.085,22.619 6.407,45.2 9.725,67.782c1.997,13.581 3.997,27.165 5.994,40.746c10.219,69.51 20.441,139.019 30.663,208.529c11.803,1.831 23.831,2.059 35.709,0.8Z" style="fill:#ab7a64;fill-rule:nonzero;"/><path d="M743.412,163.144c-1.407,0.809 -2.913,1.593 -4.538,1.631c-1.759,0.041 -3.412,-0.797 -4.906,-1.725c-11.888,-7.388 -18.094,-20.984 -26.816,-31.931c-2.172,-2.728 -4.644,-5.397 -7.878,-6.697c-3.238,-1.3 -7.409,-0.85 -9.569,1.887c-3.534,4.485 0.247,10.885 3.925,15.253c7.391,8.772 14.781,17.544 22.175,26.316c3.444,4.091 7.116,9.006 6.028,14.241c-0.55,2.64 -2.256,4.868 -3.912,6.997c-6.844,8.787 -13.997,17.834 -23.869,22.987c-2.097,1.094 -4.722,1.975 -6.728,0.719c-1.187,-0.744 -1.85,-2.072 -2.459,-3.335c-2.085,-4.331 -4.169,-8.665 -6.254,-12.996c-5.431,-0.357 -12.262,0.096 -14.349,5.125c-1.688,4.068 1.003,8.606 4.05,11.787c3.046,3.181 6.759,6.2 7.7,10.503c0.737,3.385 -0.419,6.86 -1.563,10.128c-2.116,6.05 -4.231,12.1 -6.344,18.15c8.275,1.078 16.31,3.991 23.353,8.469c6.472,-14.787 13.654,-30.384 27.163,-39.216c5.234,-3.421 11.15,-5.628 16.897,-8.1c33.178,-14.278 61.965,-38.575 81.612,-68.884c19.647,-30.306 30.078,-66.506 29.569,-102.622c-0.175,-12.647 -1.778,-25.65 -7.894,-36.722c-1.265,-2.287 -3.025,-4.687 -5.615,-5.062c-2.641,-0.381 -5.163,1.622 -6.26,4.056c-1.097,2.434 -1.097,5.2 -1.062,7.869c0.2,16.384 0.8,32.944 -2.532,48.987c-3.334,16.044 -11.121,31.832 -24.528,41.257c-5.006,3.521 -11.35,6.128 -17.187,4.281c-3.541,-1.122 -6.394,-3.728 -8.96,-6.41c-12.934,-13.506 -21.709,-30.943 -24.846,-49.378c-0.294,-1.734 -0.566,-3.54 -1.55,-5c-2.66,-3.934 -9.266,-2.947 -12.21,0.782c-2.944,3.728 -3.137,8.893 -2.79,13.628c1.84,25.047 15.84,48.918 36.803,62.747c1.669,1.099 3.475,2.253 4.253,4.093c1.04,2.453 -0.091,5.253 -1.338,7.61c-6.268,11.856 -15.947,21.884 -27.571,28.575Z" style="fill:#eed1ba;fill-rule:nonzero;"/><path d="M292.868,136.191c2.165,6.906 10.75,10.14 17.812,8.543c7.06,-1.593 12.744,-6.753 17.553,-12.165c5.707,-6.422 10.694,-13.488 14.835,-21.016c1.472,-2.675 2.903,-5.491 5.29,-7.394c2.388,-1.903 6.06,-2.597 8.45,-0.7c1.5,1.191 2.197,3.128 2.56,5.01c1.1,5.743 -0.291,11.671 -2.144,17.221c-3.284,9.832 -8.05,19.169 -14.084,27.594c-3.891,5.432 -8.541,11.235 -7.95,17.885c0.44,4.931 3.734,9.109 7.175,12.668c8.081,8.366 17.778,15.163 28.397,19.907c4.881,2.181 10.418,3.943 15.503,2.284c4.178,-1.363 7.278,-4.784 10.509,-7.766c5.159,-4.765 11.1,-8.684 17.513,-11.55c1.603,-0.715 3.425,-1.371 5.065,-0.746c1.138,0.434 1.978,1.425 2.603,2.471c2.988,4.997 1.994,11.569 -0.868,16.638c-2.863,5.069 -7.316,9.003 -11.519,13.031c-2.963,2.841 -5.963,5.994 -6.872,9.997c-0.616,2.719 -0.194,5.559 0.409,8.281c1.828,8.228 5.328,16.082 10.225,22.944c-7.125,3.534 -14.247,7.069 -21.372,10.6c-7.256,-15.784 -14.837,-32.022 -27.665,-43.738c-10.788,-9.846 -24.507,-15.768 -38.075,-21.175c-36.91,-14.712 -76.4,-27.999 -103.285,-57.256c-6.865,-7.475 -12.725,-15.825 -18.003,-24.494c-14.494,-23.8 -24.7,-50.124 -30.797,-77.315c-0.965,-4.3 -1.825,-8.797 -0.756,-13.075c1.066,-4.275 4.622,-8.25 9.025,-8.356c5.213,-0.125 8.997,4.775 11.585,9.3c15.625,27.35 21.699,60.518 43.19,83.546c3.909,4.185 8.522,8.085 14.116,9.316c7.375,1.625 15.197,-1.85 20.381,-7.347c5.181,-5.493 8.106,-12.734 10.181,-19.997c4.735,-16.55 5.619,-34.187 2.563,-51.128c-0.638,-3.537 -1.375,-7.468 0.559,-10.497c1.959,-3.071 6.213,-4.068 9.719,-3.078c3.503,0.991 6.341,3.578 8.631,6.41c8.647,10.687 10.991,25.462 8.916,39.05c-2.072,13.59 -8.125,26.237 -14.828,38.24c-3.085,5.525 -6.435,11.816 -4.547,17.857Z" style="fill:#eed1ba;fill-rule:nonzero;"/><path d="M791.061,263.044c4.95,-0.525 9.951,-0.591 14.916,-0.191c4.756,0.381 10.422,1.984 11.65,6.597c1.075,4.031 -1.944,7.903 -4.79,10.953c-13.451,14.416 -28.175,28.488 -35.722,46.703c-13.578,-14.815 -28.56,-28.344 -44.679,-40.347c18.179,-11.022 37.485,-21.478 58.625,-23.715Z" style="fill:#966e60;fill-rule:nonzero;"/><path d="M775.18,314.578c-2.34,2.528 -4.828,5.431 -4.753,8.875c-8.653,-7.966 -17.309,-15.928 -25.965,-23.894c14.737,-15.19 35.334,-24.547 56.468,-25.653c2.763,-0.144 6.372,0.497 6.819,3.228c0.288,1.76 -1.009,3.341 -2.222,4.647c-10.112,10.931 -20.231,21.866 -30.347,32.797Z" style="fill:#ebc2af;fill-rule:nonzero;"/><path d="M339.243,274.725c-7.022,-2.597 -14.491,-3.794 -21.953,-4.428c-17.26,-1.472 -35.144,0.106 -50.832,7.45c-3.206,1.503 -6.734,3.931 -6.668,7.468c0.065,3.56 3.69,5.835 6.831,7.504c21.44,11.39 41.175,25.978 58.353,43.134c9.456,-17.222 22.522,-32.45 38.106,-44.409c-6.337,-7.494 -14.634,-13.313 -23.837,-16.719Z" style="fill:#966e60;fill-rule:nonzero;"/><path d="M286.846,287.5c-1.591,1 -3.166,2.4 -3.378,4.269c-0.297,2.6 2.093,4.637 4.231,6.146c13.8,9.747 27.603,19.491 41.403,29.238c6.603,-10.709 14.488,-20.628 23.428,-29.478c-13.681,-9.241 -30.122,-14.335 -46.631,-14.456c-6.6,-0.047 -13.466,0.768 -19.053,4.281Z" style="fill:#ebc2af;fill-rule:nonzero;"/><path d="M793.643,355.806c-1.006,-5.869 -3.947,-11.209 -7.066,-16.278c-26.222,-42.609 -68.312,-73.953 -115.131,-91.997c-29.597,36.697 -47.419,81.603 -62.1,126.506c-15.025,45.941 -27.397,93.135 -30.441,141.375c-8.703,-1.515 -17.981,-1.643 -26.5,0.707c-0.053,-1.475 -0.106,-2.95 -0.187,-4.422c-1.206,-21.494 -8.594,-42.1 -16.063,-62.291c-13.837,-37.406 -28.281,-74.756 -47.684,-109.603c-18.338,-32.934 -41.416,-63.647 -70.503,-87.547c-13.841,5.96 -26.919,13.428 -38.675,22.938c-8.9,7.2 -26.472,20.793 -34.444,29.009c-10.831,11.172 -15.188,15.659 -26.022,26.828c-7.181,7.406 -11.54,16.613 -14.128,26.6c-4.025,15.535 4.769,31.36 14.416,44.185c26.678,35.475 62.831,63.753 103.687,81.103c11.772,4.997 23.9,9.1 36.016,13.197c30.059,10.162 60.122,20.328 90.181,30.49c8.494,2.872 17.363,5.785 26.244,4.585c6.472,-0.875 12.431,-3.875 18.247,-6.844c67.637,-34.535 135.947,-72.41 184.712,-130.631c9.053,-10.81 17.822,-24.01 15.441,-37.91Z" style="fill:#ab7a64;fill-rule:nonzero;"/><path d="M488.471,339.803c19.403,34.847 33.847,72.197 47.684,109.603c7.469,20.191 14.857,40.797 16.063,62.291c0.081,1.472 0.134,2.947 0.187,4.422c8.519,-2.35 17.797,-2.222 26.5,-0.707c3.044,-48.24 15.416,-95.434 30.441,-141.375c14.681,-44.903 32.503,-89.809 62.1,-126.506c-5.875,-2.262 -11.809,-4.35 -17.81,-6.187c-53.831,-16.507 -111.671,-16.778 -167.253,-7.785c-23.318,3.772 -46.803,9.385 -68.415,18.697c29.087,23.9 52.165,54.613 70.503,87.547Z" style="fill:#c69077;fill-rule:nonzero;"/><path d="M548.943,538.275c1.981,2.447 4.522,4.478 7.459,5.609c2.653,1.022 5.531,1.285 8.372,1.432c3.044,0.153 6.141,0.181 9.084,-0.616c5.891,-1.597 10.563,-6.45 12.904,-12.088c2.343,-5.637 2.571,-11.971 1.712,-18.012c-0.256,-1.819 -0.616,-3.644 -1.4,-5.3c-1.681,-3.553 -5.156,-5.969 -8.816,-7.403c-9.843,-3.86 -22.071,-1.032 -28.828,7.1c-6.756,8.134 -7.143,21.065 -0.487,29.278Z" style="fill:#403e3f;fill-rule:nonzero;"/><path d="M664.655,392.787c-1.462,-3.815 -6.322,-5.915 -10.1,-4.362c-3.784,1.55 -5.765,6.459 -4.125,10.203c1.594,3.631 6.297,5.531 9.963,4.025c3.668,-1.506 5.681,-6.162 4.262,-9.866Z" style="fill:#403e3f;fill-rule:nonzero;"/><path d="M448.193,392.787c-1.46,-3.815 -6.319,-5.915 -10.1,-4.362c-3.781,1.55 -5.766,6.459 -4.122,10.203c1.59,3.631 6.294,5.531 9.962,4.025c3.669,-1.506 5.679,-6.162 4.26,-9.866Z" style="fill:#403e3f;fill-rule:nonzero;"/><path d="M683.03,458.275c2.644,1.069 5.463,1.734 8.313,1.822c9.584,0.303 18.918,-6.656 21.365,-15.922c2.447,-9.275 -2.237,-19.931 -10.721,-24.397c-1.766,-0.931 -3.675,-1.612 -5.654,-1.891c-6.721,-0.931 -13.225,2.941 -18.115,7.65c-3.316,3.191 -6.269,6.966 -7.438,11.419c-1.109,4.206 -0.494,8.841 1.672,12.616c2.319,4.031 6.266,6.962 10.578,8.703Z" style="fill:#e19273;fill-rule:nonzero;"/><path d="M452.274,443.15c-0.862,-1.581 -1.912,-3.063 -3.191,-4.328c-2.768,-2.747 -6.531,-4.369 -10.387,-4.95c-4.81,-0.725 -9.778,0.1 -14.306,1.878c-3.707,1.459 -7.254,3.634 -9.582,6.866c-4.815,6.678 -3,16.749 2.944,22.446c5.941,5.697 15.003,7.322 23.056,5.603c1.485,-0.315 2.95,-0.737 4.332,-1.365c4.618,-2.097 8.025,-6.513 9.24,-11.434c1.216,-4.926 0.319,-10.266 -2.106,-14.716Z" style="fill:#e19273;fill-rule:nonzero;"/><path d="M492.458,276.522c3.528,5.303 6.844,10.747 9.938,16.312c0.419,0.757 1.372,1.025 2.125,0.607c0.756,-0.419 1.025,-1.369 0.606,-2.126c-3.134,-5.637 -6.494,-11.149 -10.065,-16.521c-0.479,-0.719 -1.447,-0.916 -2.166,-0.438c-0.719,0.478 -0.916,1.447 -0.438,2.166Z" style="fill:#966e60;fill-rule:nonzero;"/><path d="M507.583,281.691c3.66,4.003 6.038,9.196 6.685,14.581c0.103,0.856 0.881,1.468 1.737,1.365c0.856,-0.103 1.469,-0.881 1.366,-1.74c-0.731,-6.044 -3.375,-11.816 -7.481,-16.313c-0.582,-0.637 -1.569,-0.684 -2.207,-0.1c-0.637,0.582 -0.681,1.569 -0.1,2.207Z" style="fill:#966e60;fill-rule:nonzero;"/><path d="M525.88,282.522c2.044,4.544 3.381,9.412 3.947,14.362c0.097,0.86 0.872,1.475 1.728,1.375c0.86,-0.097 1.475,-0.872 1.375,-1.728c-0.6,-5.275 -2.022,-10.45 -4.2,-15.294c-0.356,-0.784 -1.281,-1.137 -2.065,-0.784c-0.788,0.356 -1.141,1.281 -0.785,2.069Z" style="fill:#966e60;fill-rule:nonzero;"/><path d="M522.63,312.4c2.135,5.115 3.831,10.419 5.063,15.828c0.19,0.841 1.028,1.366 1.869,1.175c0.84,-0.191 1.368,-1.028 1.178,-1.869c-1.272,-5.584 -3.022,-11.056 -5.225,-16.337c-0.332,-0.797 -1.247,-1.175 -2.044,-0.841c-0.797,0.331 -1.172,1.247 -0.841,2.044Z" style="fill:#966e60;fill-rule:nonzero;"/><path d="M537.437,305.906c-0.101,1.235 -0.151,2.472 -0.151,3.713c0,3.728 0.447,7.459 1.338,11.084c0.206,0.838 1.053,1.35 1.891,1.144c0.837,-0.206 1.35,-1.053 1.143,-1.891c-0.828,-3.378 -1.247,-6.859 -1.247,-10.337c0,-1.157 0.047,-2.313 0.138,-3.463c0.069,-0.859 -0.572,-1.612 -1.431,-1.684c-0.86,-0.069 -1.613,0.572 -1.681,1.434Z" style="fill:#966e60;fill-rule:nonzero;"/><path d="M551.952,318.316c-0.397,3.559 -0.597,7.14 -0.597,10.725c0,1.912 0.057,3.828 0.169,5.737c0.053,0.863 0.794,1.519 1.653,1.466c0.863,-0.05 1.519,-0.791 1.469,-1.653c-0.113,-1.847 -0.166,-3.701 -0.166,-5.55c0,-3.466 0.194,-6.932 0.578,-10.379c0.094,-0.856 -0.521,-1.628 -1.381,-1.725c-0.856,-0.097 -1.628,0.522 -1.725,1.379Z" style="fill:#966e60;fill-rule:nonzero;"/><path d="M540.946,334.497c-0.119,0.918 -0.178,1.844 -0.178,2.769c0.003,3.709 0.931,7.406 2.712,10.668c0.416,0.757 1.363,1.035 2.122,0.622c0.756,-0.415 1.034,-1.362 0.622,-2.122c-1.525,-2.787 -2.331,-5.984 -2.331,-9.168c0,-0.794 0.05,-1.588 0.15,-2.372c0.109,-0.857 -0.494,-1.641 -1.35,-1.75c-0.857,-0.11 -1.638,0.497 -1.747,1.353Z" style="fill:#966e60;fill-rule:nonzero;"/><path d="M529.555,345.753c1.407,4.931 2.813,9.866 4.222,14.797c0.235,0.831 1.1,1.312 1.931,1.075c0.828,-0.238 1.31,-1.103 1.072,-1.931c-1.406,-4.935 -2.812,-9.866 -4.222,-14.8c-0.234,-0.828 -1.1,-1.31 -1.931,-1.072c-0.828,0.234 -1.309,1.1 -1.072,1.931Z" style="fill:#966e60;fill-rule:nonzero;"/><path d="M504.452,319.497c3.375,4.362 6.056,9.269 7.906,14.469c0.291,0.812 1.185,1.237 1.997,0.946c0.813,-0.29 1.238,-1.184 0.947,-1.996c-1.962,-5.51 -4.8,-10.704 -8.378,-15.332c-0.528,-0.684 -1.509,-0.809 -2.194,-0.281c-0.681,0.528 -0.806,1.509 -0.278,2.194Z" style="fill:#966e60;fill-rule:nonzero;"/><path d="M550.924,271.059c-0.175,1.763 -0.262,3.532 -0.262,5.303c0,4.041 0.453,8.082 1.35,12.022c0.19,0.841 1.028,1.369 1.868,1.175c0.844,-0.19 1.369,-1.028 1.178,-1.868c-0.846,-3.713 -1.271,-7.522 -1.271,-11.329c0,-1.668 0.081,-3.337 0.246,-4.996c0.085,-0.86 -0.543,-1.625 -1.403,-1.71c-0.856,-0.084 -1.622,0.544 -1.706,1.403Z" style="fill:#966e60;fill-rule:nonzero;"/><path d="M566.783,281.894c-1.434,4.868 -2.165,9.943 -2.165,15.022l0,0.337l0,-0.009c0.003,0.29 0.003,0.578 0.003,0.859c0.016,1.566 -0.144,2.853 -0.725,3.612c-0.51,0.697 -0.353,1.676 0.344,2.185c0.697,0.509 1.675,0.353 2.184,-0.344c1.278,-1.794 1.309,-3.803 1.322,-5.453c0,-0.303 0,-0.597 -0.003,-0.878l0,-0.01l0,-0.299c0,-4.779 0.687,-9.557 2.037,-14.138c0.244,-0.828 -0.228,-1.697 -1.056,-1.941c-0.828,-0.243 -1.697,0.228 -1.941,1.057Z" style="fill:#966e60;fill-rule:nonzero;"/><path d="M532.752,259.444c0.194,4.803 1.084,9.575 2.635,14.128c0.278,0.815 1.165,1.253 1.984,0.975c0.816,-0.281 1.253,-1.169 0.975,-1.985c-1.453,-4.265 -2.291,-8.743 -2.472,-13.243c-0.038,-0.863 -0.762,-1.535 -1.625,-1.497c-0.862,0.034 -1.534,0.759 -1.497,1.622Z" style="fill:#966e60;fill-rule:nonzero;"/><path d="M564.38,253.209c-0.834,2.532 -1.253,5.188 -1.253,7.844c0,2.3 0.313,4.6 0.944,6.819c0.234,0.828 1.1,1.309 1.931,1.075c0.828,-0.238 1.31,-1.1 1.075,-1.932c-0.55,-1.931 -0.825,-3.946 -0.825,-5.962c0,-2.328 0.369,-4.659 1.097,-6.862c0.272,-0.819 -0.175,-1.704 -0.994,-1.975c-0.818,-0.269 -1.703,0.175 -1.972,0.993l-0.003,0Z" style="fill:#966e60;fill-rule:nonzero;"/><path d="M587.143,258.606c-2.703,4.769 -4.225,10.188 -4.4,15.666c-0.028,0.862 0.65,1.584 1.512,1.612c0.863,0.025 1.585,-0.65 1.61,-1.512c0.156,-4.966 1.543,-9.903 3.997,-14.225c0.425,-0.75 0.162,-1.703 -0.588,-2.128c-0.75,-0.428 -1.706,-0.163 -2.131,0.587Z" style="fill:#966e60;fill-rule:nonzero;"/><path d="M585.371,293.641c-1.872,4.009 -2.85,8.421 -2.85,12.846c0,0.288 0.003,0.575 0.012,0.866c0.029,0.863 0.747,1.541 1.61,1.513c0.862,-0.026 1.54,-0.747 1.515,-1.61l-0.012,-0.769c0,-3.962 0.878,-7.934 2.556,-11.525c0.366,-0.781 0.028,-1.712 -0.756,-2.078c-0.781,-0.365 -1.709,-0.025 -2.075,0.757Z" style="fill:#966e60;fill-rule:nonzero;"/><path d="M568.896,314.772c0,4.15 0,8.3 0,12.447c0,0.862 0.7,1.562 1.562,1.562c0.863,0 1.563,-0.7 1.563,-1.562c0,-4.147 0,-8.297 0,-12.447c0,-0.863 -0.7,-1.563 -1.563,-1.563c-0.862,0 -1.562,0.7 -1.562,1.563Z" style="fill:#966e60;fill-rule:nonzero;"/><path d="M585.155,325.766c-2.575,4.606 -4.112,9.775 -4.465,15.04c-0.06,0.859 0.59,1.603 1.453,1.663c0.859,0.059 1.606,-0.594 1.662,-1.453c0.325,-4.797 1.728,-9.529 4.078,-13.725c0.419,-0.754 0.15,-1.704 -0.603,-2.126c-0.753,-0.421 -1.703,-0.153 -2.125,0.601Z" style="fill:#966e60;fill-rule:nonzero;"/><path d="M568.324,342.769c-1.784,4.259 -2.7,8.865 -2.7,13.481c0,1.378 0.081,2.762 0.25,4.134c0.103,0.857 0.881,1.469 1.738,1.363c0.856,-0.103 1.468,-0.881 1.362,-1.738c-0.15,-1.247 -0.225,-2.503 -0.225,-3.759c0,-4.2 0.837,-8.406 2.459,-12.272c0.332,-0.797 -0.043,-1.712 -0.837,-2.047c-0.797,-0.334 -1.713,0.041 -2.047,0.838Z" style="fill:#966e60;fill-rule:nonzero;"/><path d="M553.871,354.112c0.387,4.925 1.165,9.822 2.331,14.625c0.203,0.838 1.047,1.354 1.888,1.15c0.837,-0.203 1.353,-1.05 1.15,-1.887c-1.125,-4.641 -1.879,-9.372 -2.253,-14.131c-0.069,-0.863 -0.819,-1.503 -1.682,-1.438c-0.859,0.069 -1.5,0.822 -1.434,1.681Z" style="fill:#966e60;fill-rule:nonzero;"/><path d="M577.552,357.984c-0.865,3.932 -1.731,7.866 -2.597,11.8c-0.184,0.844 0.35,1.678 1.191,1.863c0.844,0.184 1.678,-0.347 1.862,-1.191c0.866,-3.934 1.732,-7.869 2.594,-11.803c0.188,-0.841 -0.347,-1.675 -1.19,-1.859c-0.841,-0.188 -1.675,0.347 -1.86,1.19Z" style="fill:#966e60;fill-rule:nonzero;"/><path d="M603.952,288.844c-3.606,4.753 -5.894,10.475 -6.559,16.403c-0.097,0.856 0.522,1.631 1.378,1.725c0.859,0.097 1.631,-0.519 1.728,-1.378c0.6,-5.36 2.681,-10.566 5.944,-14.86c0.522,-0.687 0.387,-1.669 -0.3,-2.19c-0.688,-0.522 -1.669,-0.388 -2.191,0.3Z" style="fill:#966e60;fill-rule:nonzero;"/><path d="M518.805,253.919c1.903,4.65 3.353,9.49 4.322,14.425c0.166,0.847 0.984,1.397 1.831,1.231c0.847,-0.166 1.4,-0.988 1.235,-1.834c-1.007,-5.132 -2.513,-10.166 -4.494,-15.007c-0.328,-0.8 -1.241,-1.181 -2.038,-0.853c-0.8,0.325 -1.181,1.238 -0.856,2.038Z" style="fill:#966e60;fill-rule:nonzero;"/><path d="M549.14,383.562c0.971,4.166 1.94,8.329 2.912,12.494c0.197,0.841 1.038,1.363 1.878,1.166c0.841,-0.194 1.363,-1.035 1.166,-1.875c-0.972,-4.166 -1.944,-8.331 -2.913,-12.494c-0.196,-0.841 -1.037,-1.362 -1.878,-1.169c-0.84,0.197 -1.362,1.038 -1.165,1.878Z" style="fill:#966e60;fill-rule:nonzero;"/><path d="M560.118,387.944c-0.406,2.44 -0.61,4.912 -0.61,7.387c0,3.388 0.382,6.778 1.141,10.081c0.194,0.841 1.031,1.366 1.872,1.175c0.84,-0.193 1.366,-1.034 1.172,-1.875c-0.707,-3.071 -1.06,-6.228 -1.06,-9.381c0,-2.303 0.191,-4.606 0.569,-6.875c0.141,-0.85 -0.434,-1.656 -1.284,-1.797c-0.853,-0.143 -1.657,0.432 -1.8,1.285Z" style="fill:#966e60;fill-rule:nonzero;"/><path d="M608.202,305.575c-1.637,4.959 -2.831,10.066 -3.559,15.24c-0.119,0.854 0.475,1.644 1.331,1.763c0.853,0.122 1.644,-0.475 1.762,-1.328c0.704,-4.988 1.854,-9.913 3.432,-14.697c0.272,-0.819 -0.175,-1.703 -0.994,-1.972c-0.819,-0.272 -1.703,0.172 -1.972,0.994Z" style="fill:#966e60;fill-rule:nonzero;"/><path d="M475.452,279.809c4.628,2.7 8.238,7.191 9.878,12.291c0.266,0.822 1.147,1.272 1.969,1.009c0.819,-0.265 1.272,-1.147 1.006,-1.969c-1.89,-5.853 -5.968,-10.925 -11.278,-14.031c-0.744,-0.434 -1.703,-0.184 -2.137,0.563c-0.435,0.744 -0.185,1.7 0.562,2.137Z" style="fill:#966e60;fill-rule:nonzero;"/><path d="M604.918,247.937c-2.769,5.263 -4.853,10.879 -6.197,16.672c-0.194,0.841 0.331,1.678 1.172,1.872c0.84,0.197 1.678,-0.328 1.875,-1.169c1.278,-5.531 3.272,-10.896 5.915,-15.921c0.4,-0.766 0.107,-1.71 -0.656,-2.11c-0.765,-0.403 -1.709,-0.109 -2.109,0.656Z" style="fill:#966e60;fill-rule:nonzero;"/><path d="M494.583,248.1c2.616,2.656 4.46,6.094 5.228,9.741c0.179,0.843 1.007,1.384 1.851,1.209c0.843,-0.178 1.384,-1.009 1.206,-1.853c-0.894,-4.244 -3.016,-8.197 -6.056,-11.288c-0.607,-0.615 -1.594,-0.625 -2.21,-0.018c-0.615,0.606 -0.622,1.593 -0.019,2.209Z" style="fill:#966e60;fill-rule:nonzero;"/><path d="M500.411,562.444c1.216,5.587 2.432,11.175 3.651,16.762c0.181,0.844 1.012,1.378 1.856,1.194c0.843,-0.181 1.378,-1.016 1.197,-1.856c-1.219,-5.588 -2.435,-11.175 -3.65,-16.763c-0.185,-0.844 -1.016,-1.378 -1.86,-1.194c-0.844,0.182 -1.378,1.016 -1.194,1.857Z" style="fill:#c69077;fill-rule:nonzero;"/><path d="M517.965,567.503c0.837,4.597 1.678,9.191 2.515,13.788c0.156,0.85 0.969,1.412 1.819,1.256c0.847,-0.153 1.409,-0.969 1.256,-1.816c-0.84,-4.597 -1.678,-9.194 -2.515,-13.787c-0.157,-0.85 -0.969,-1.413 -1.819,-1.257c-0.85,0.154 -1.413,0.969 -1.256,1.816Z" style="fill:#c69077;fill-rule:nonzero;"/><path d="M536.899,574.328c-0.478,5.588 -0.959,11.178 -1.437,16.766c-0.072,0.859 0.565,1.615 1.424,1.69c0.86,0.072 1.616,-0.565 1.691,-1.425c0.478,-5.587 0.956,-11.175 1.434,-16.765c0.075,-0.86 -0.562,-1.616 -1.424,-1.688c-0.86,-0.075 -1.616,0.563 -1.688,1.422Z" style="fill:#c69077;fill-rule:nonzero;"/><path d="M525.471,590.397c-0.131,1.74 -0.197,3.487 -0.197,5.234c0,3.491 0.262,6.981 0.784,10.435c0.128,0.853 0.925,1.44 1.779,1.312c0.853,-0.131 1.44,-0.925 1.312,-1.778c-0.5,-3.3 -0.75,-6.634 -0.75,-9.969c0,-1.669 0.063,-3.334 0.187,-4.997c0.066,-0.862 -0.578,-1.612 -1.44,-1.678c-0.859,-0.062 -1.61,0.581 -1.675,1.441Z" style="fill:#c69077;fill-rule:nonzero;"/><path d="M506.246,595.356c0.206,5.06 1.619,10.05 4.103,14.46c0.422,0.753 1.375,1.018 2.128,0.596c0.75,-0.425 1.019,-1.378 0.594,-2.128c-2.238,-3.975 -3.519,-8.497 -3.7,-13.053c-0.038,-0.862 -0.763,-1.531 -1.625,-1.497c-0.863,0.035 -1.534,0.763 -1.5,1.622Z" style="fill:#c69077;fill-rule:nonzero;"/><path d="M547.227,595.591l-0.006,0.75c0,5.565 0.844,11.128 2.497,16.443c0.256,0.825 1.131,1.285 1.956,1.028c0.825,-0.256 1.284,-1.131 1.028,-1.956c-1.559,-5.012 -2.356,-10.265 -2.356,-15.515l0.006,-0.707c0.01,-0.862 -0.678,-1.572 -1.541,-1.584c-0.865,-0.013 -1.574,0.678 -1.584,1.541Z" style="fill:#c69077;fill-rule:nonzero;"/><path d="M537.765,611.578c-0.019,0.413 -0.028,0.828 -0.028,1.247c0,5.194 1.403,10.372 4.04,14.853c0.438,0.744 1.394,0.994 2.138,0.556c0.743,-0.437 0.993,-1.397 0.556,-2.14c-2.35,-3.991 -3.609,-8.638 -3.609,-13.269c0,-0.372 0.009,-0.741 0.025,-1.113c0.037,-0.859 -0.632,-1.59 -1.494,-1.628c-0.863,-0.037 -1.591,0.632 -1.628,1.494Z" style="fill:#c69077;fill-rule:nonzero;"/><path d="M527.561,626.825c-0.034,0.456 -0.053,0.909 -0.053,1.366c0.003,3.759 1.2,7.487 3.416,10.534c0.506,0.7 1.484,0.853 2.181,0.347c0.697,-0.51 0.853,-1.488 0.344,-2.185c-1.816,-2.493 -2.819,-5.606 -2.816,-8.696c0,-0.372 0.016,-0.747 0.044,-1.119c0.069,-0.86 -0.575,-1.613 -1.434,-1.681c-0.86,-0.066 -1.613,0.575 -1.682,1.434Z" style="fill:#c69077;fill-rule:nonzero;"/><path d="M512.268,630.556l-0.007,0.375c0.004,3.388 1.163,6.735 3.269,9.397c0.538,0.675 1.519,0.791 2.197,0.253c0.675,-0.534 0.788,-1.519 0.253,-2.194c-1.659,-2.09 -2.597,-4.787 -2.594,-7.456l0.004,-0.294c0.021,-0.862 -0.66,-1.581 -1.522,-1.603c-0.863,-0.022 -1.578,0.66 -1.6,1.522Z" style="fill:#c69077;fill-rule:nonzero;"/><path d="M520.652,659.291c1.381,6.265 4.759,12.05 9.538,16.331c0.64,0.578 1.628,0.522 2.206,-0.119c0.575,-0.644 0.522,-1.631 -0.122,-2.206c-4.284,-3.835 -7.337,-9.066 -8.572,-14.678c-0.184,-0.844 -1.019,-1.375 -1.859,-1.191c-0.844,0.188 -1.375,1.019 -1.191,1.863Z" style="fill:#c69077;fill-rule:nonzero;"/><path d="M539.668,665.597c0.478,4.487 2.256,8.806 5.072,12.331c0.54,0.675 1.521,0.784 2.196,0.244c0.676,-0.538 0.785,-1.522 0.244,-2.194c-2.44,-3.05 -3.994,-6.828 -4.403,-10.712c-0.094,-0.857 -0.862,-1.479 -1.719,-1.388c-0.859,0.091 -1.481,0.859 -1.39,1.719Z" style="fill:#c69077;fill-rule:nonzero;"/><path d="M548.793,647.609c0.09,4.519 0.681,9.025 1.753,13.413c0.206,0.837 1.053,1.353 1.891,1.147c0.837,-0.203 1.35,-1.05 1.146,-1.888c-1.018,-4.165 -1.578,-8.447 -1.665,-12.734c-0.019,-0.863 -0.732,-1.547 -1.594,-1.531c-0.863,0.018 -1.55,0.731 -1.531,1.593Z" style="fill:#c69077;fill-rule:nonzero;"/><path d="M574.274,658.934c-0.291,5.097 -0.584,10.197 -0.875,15.297c-0.05,0.86 0.609,1.6 1.469,1.647c0.862,0.05 1.6,-0.606 1.65,-1.469c0.29,-5.1 0.584,-10.2 0.875,-15.297c0.05,-0.862 -0.61,-1.6 -1.469,-1.65c-0.863,-0.05 -1.6,0.61 -1.65,1.472Z" style="fill:#c69077;fill-rule:nonzero;"/><path d="M564.512,644.303c-0.282,3.663 -0.563,7.322 -0.844,10.981c-0.066,0.86 0.578,1.613 1.437,1.678c0.86,0.066 1.613,-0.578 1.678,-1.437c0.282,-3.663 0.563,-7.322 0.844,-10.981c0.066,-0.86 -0.578,-1.613 -1.441,-1.678c-0.859,-0.066 -1.609,0.578 -1.674,1.437Z" style="fill:#c69077;fill-rule:nonzero;"/><path d="M595.187,672.669c-0.588,5.184 -2.122,10.268 -4.494,14.918c-0.394,0.769 -0.088,1.71 0.681,2.1c0.769,0.394 1.709,0.088 2.1,-0.681c2.547,-4.984 4.184,-10.422 4.819,-15.984c0.097,-0.856 -0.519,-1.631 -1.375,-1.728c-0.86,-0.097 -1.632,0.518 -1.731,1.375Z" style="fill:#c69077;fill-rule:nonzero;"/><path d="M581.118,689.869c-1.453,5.868 -3.838,11.506 -7.025,16.64c-0.456,0.735 -0.231,1.697 0.5,2.153c0.734,0.454 1.697,0.229 2.153,-0.503c3.362,-5.412 5.872,-11.353 7.406,-17.537c0.206,-0.838 -0.303,-1.685 -1.14,-1.891c-0.838,-0.209 -1.685,0.3 -1.894,1.138Z" style="fill:#c69077;fill-rule:nonzero;"/><path d="M590.29,706.534c-2.338,6.163 -6.341,11.707 -11.457,15.86c-0.671,0.543 -0.771,1.528 -0.228,2.2c0.544,0.668 1.528,0.772 2.197,0.228c5.553,-4.513 9.872,-10.494 12.409,-17.178c0.307,-0.81 -0.099,-1.71 -0.909,-2.016c-0.806,-0.306 -1.706,0.1 -2.012,0.906Z" style="fill:#c69077;fill-rule:nonzero;"/><path d="M553.308,698.337l-0.006,0.532c0.003,5.637 2.238,11.197 6.147,15.262c0.6,0.622 1.588,0.641 2.209,0.041c0.622,-0.597 0.641,-1.588 0.041,-2.21c-3.334,-3.456 -5.275,-8.287 -5.272,-13.093l0.006,-0.45c0.022,-0.863 -0.659,-1.582 -1.521,-1.603c-0.863,-0.022 -1.582,0.659 -1.604,1.521Z" style="fill:#c69077;fill-rule:nonzero;"/><path d="M564.083,685.144c0,3.403 0,6.803 0,10.203c0,0.862 0.7,1.562 1.563,1.562c0.862,0 1.562,-0.7 1.562,-1.562c0,-3.4 0,-6.8 0,-10.203c0,-0.863 -0.7,-1.563 -1.562,-1.563c-0.863,0 -1.563,0.7 -1.563,1.563Z" style="fill:#c69077;fill-rule:nonzero;"/><path d="M594.58,635.853c0.081,0.859 0.122,1.722 0.122,2.588c0,4.112 -0.925,8.237 -2.694,11.946c-0.368,0.782 -0.04,1.713 0.741,2.085c0.778,0.372 1.709,0.04 2.081,-0.738c1.972,-4.14 2.994,-8.715 2.997,-13.293c0,-0.963 -0.047,-1.925 -0.137,-2.882c-0.082,-0.859 -0.844,-1.49 -1.704,-1.409c-0.859,0.081 -1.49,0.844 -1.406,1.703Z" style="fill:#c69077;fill-rule:nonzero;"/><path d="M610.602,623.572c0.213,1.322 0.316,2.662 0.316,4c0,3.584 -0.75,7.172 -2.21,10.437c-0.35,0.791 0.004,1.713 0.794,2.066c0.788,0.35 1.709,-0.003 2.063,-0.791c1.637,-3.678 2.478,-7.693 2.478,-11.712c0,-1.503 -0.116,-3.006 -0.357,-4.494c-0.134,-0.853 -0.937,-1.431 -1.79,-1.294c-0.85,0.135 -1.431,0.938 -1.294,1.788Z" style="fill:#c69077;fill-rule:nonzero;"/><path d="M599.59,612.003c0.306,1.488 0.456,3.006 0.456,4.528c0,2.438 -0.391,4.875 -1.163,7.178c-0.275,0.819 0.169,1.707 0.988,1.978c0.816,0.275 1.703,-0.165 1.978,-0.984c0.878,-2.631 1.322,-5.4 1.322,-8.172c0,-1.728 -0.172,-3.459 -0.522,-5.159c-0.175,-0.844 -1,-1.388 -1.844,-1.213c-0.847,0.172 -1.39,1 -1.215,1.844Z" style="fill:#c69077;fill-rule:nonzero;"/><path d="M580.033,616.872c0.113,1.447 0.169,2.9 0.169,4.353c0,4.034 -0.428,8.072 -1.278,12.016c-0.181,0.843 0.356,1.675 1.2,1.856c0.844,0.181 1.675,-0.353 1.856,-1.197c0.894,-4.163 1.347,-8.419 1.347,-12.675c0,-1.531 -0.059,-3.066 -0.175,-4.591c-0.069,-0.862 -0.819,-1.506 -1.678,-1.44c-0.862,0.065 -1.506,0.818 -1.441,1.678Z" style="fill:#c69077;fill-rule:nonzero;"/><path d="M591.008,596.341c0,2.915 0,5.831 0,8.746c0,0.863 0.7,1.563 1.563,1.563c0.862,0 1.562,-0.7 1.562,-1.563c0,-2.915 0,-5.831 0,-8.746c0,-0.863 -0.7,-1.56 -1.562,-1.56c-0.863,0 -1.563,0.697 -1.563,1.56Z" style="fill:#c69077;fill-rule:nonzero;"/><path d="M616.78,584.131c0.066,0.738 0.097,1.475 0.097,2.216c0.003,4.334 -1.122,8.684 -3.244,12.459c-0.421,0.753 -0.153,1.706 0.597,2.128c0.753,0.422 1.707,0.157 2.128,-0.6c2.388,-4.256 3.644,-9.115 3.644,-13.987c0,-0.831 -0.034,-1.663 -0.109,-2.491c-0.078,-0.859 -0.835,-1.494 -1.694,-1.419c-0.859,0.079 -1.497,0.835 -1.419,1.697l0,-0.003Z" style="fill:#c69077;fill-rule:nonzero;"/><path d="M560.399,589.781c0,4.131 0,8.263 0,12.391c0,0.862 0.7,1.562 1.562,1.562c0.863,0 1.563,-0.7 1.563,-1.562c0,-4.128 0,-8.26 0,-12.391c0,-0.862 -0.7,-1.562 -1.563,-1.562c-0.862,0 -1.562,0.7 -1.562,1.562Z" style="fill:#c69077;fill-rule:nonzero;"/><path d="M584.149,567.656c-0.372,2.641 -0.556,5.31 -0.556,7.975c0,1.603 0.065,3.203 0.2,4.803c0.072,0.86 0.828,1.497 1.687,1.425c0.863,-0.072 1.5,-0.828 1.428,-1.687c-0.128,-1.51 -0.19,-3.025 -0.19,-4.541c0,-2.522 0.175,-5.044 0.525,-7.54c0.118,-0.857 -0.475,-1.644 -1.332,-1.766c-0.853,-0.119 -1.643,0.478 -1.762,1.331Z" style="fill:#c69077;fill-rule:nonzero;"/><path d="M536.886,699.684c1.429,4.332 3.613,8.403 6.432,11.988c0.534,0.678 1.515,0.797 2.194,0.262c0.678,-0.531 0.796,-1.515 0.262,-2.193c-2.591,-3.297 -4.606,-7.054 -5.919,-11.035c-0.268,-0.822 -1.153,-1.265 -1.972,-0.997c-0.821,0.272 -1.265,1.157 -0.997,1.975Z" style="fill:#c69077;fill-rule:nonzero;"/><path d="M505.63,654.028c0.297,4.541 1.994,8.953 4.816,12.522c0.534,0.678 1.519,0.794 2.194,0.256c0.678,-0.534 0.79,-1.519 0.256,-2.194c-2.422,-3.059 -3.897,-6.893 -4.147,-10.787c-0.056,-0.859 -0.8,-1.513 -1.659,-1.456c-0.863,0.053 -1.516,0.797 -1.46,1.659Z" style="fill:#c69077;fill-rule:nonzero;"/><path d="M552.536,561.716c-0.668,2.534 -1,5.153 -1,7.768c0,2.041 0.204,4.085 0.61,6.088c0.175,0.847 1,1.39 1.844,1.219c0.847,-0.172 1.39,-0.997 1.218,-1.844c-0.365,-1.794 -0.547,-3.628 -0.547,-5.463c0,-2.35 0.3,-4.703 0.897,-6.972c0.219,-0.834 -0.278,-1.69 -1.112,-1.909c-0.835,-0.219 -1.691,0.278 -1.91,1.113Z" style="fill:#c69077;fill-rule:nonzero;"/><path d="M561.015,616.766c0.05,4.759 1.303,9.484 3.618,13.643c0.419,0.753 1.372,1.025 2.125,0.607c0.753,-0.422 1.025,-1.372 0.607,-2.129c-2.06,-3.693 -3.182,-7.925 -3.225,-12.153c-0.007,-0.862 -0.716,-1.556 -1.579,-1.547c-0.862,0.01 -1.553,0.716 -1.543,1.579l-0.003,0Z" style="fill:#c69077;fill-rule:nonzero;"/><path d="M626.718,673.009c0.087,0.997 0.131,1.997 0.131,3c0,4.922 -1.069,9.857 -3.122,14.328c-0.359,0.785 -0.016,1.71 0.769,2.072c0.784,0.36 1.712,0.016 2.072,-0.768c2.244,-4.891 3.406,-10.257 3.406,-15.632c0,-1.093 -0.047,-2.187 -0.144,-3.278c-0.078,-0.859 -0.837,-1.494 -1.697,-1.419c-0.859,0.079 -1.493,0.838 -1.415,1.697Z" style="fill:#c69077;fill-rule:nonzero;"/><path d="M506.574,717.406c0.369,6.619 2.813,13.075 6.916,18.278c0.534,0.678 1.518,0.794 2.196,0.26c0.676,-0.535 0.791,-1.519 0.257,-2.194c-3.697,-4.688 -5.919,-10.556 -6.247,-16.516c-0.047,-0.862 -0.784,-1.522 -1.647,-1.472c-0.862,0.047 -1.522,0.785 -1.472,1.647l-0.003,-0.003Z" style="fill:#c69077;fill-rule:nonzero;"/><path d="M522.262,730.059c1.212,3.997 3.312,7.713 6.109,10.813c0.578,0.64 1.565,0.69 2.206,0.112c0.641,-0.578 0.691,-1.565 0.113,-2.206c-2.485,-2.753 -4.36,-6.072 -5.438,-9.625c-0.25,-0.825 -1.122,-1.291 -1.947,-1.041c-0.825,0.25 -1.294,1.122 -1.043,1.947Z" style="fill:#c69077;fill-rule:nonzero;"/><path d="M17.199,584.681c-1.831,4.491 -2.775,9.335 -2.775,14.181c0,0.897 0.031,1.797 0.097,2.694c0.062,0.863 0.812,1.51 1.672,1.444c0.862,-0.063 1.509,-0.809 1.447,-1.672c-0.06,-0.819 -0.091,-1.644 -0.091,-2.466c0,-4.443 0.866,-8.89 2.544,-13.003c0.325,-0.797 -0.06,-1.709 -0.86,-2.034c-0.796,-0.328 -1.709,0.056 -2.034,0.856Z" style="fill:#ab7a64;fill-rule:nonzero;"/><path d="M24.08,595.331c-0.593,3.1 -0.894,6.253 -0.894,9.406c0,0.872 0.022,1.747 0.069,2.619c0.047,0.863 0.781,1.525 1.644,1.478c0.862,-0.043 1.522,-0.781 1.478,-1.643c-0.044,-0.816 -0.066,-1.635 -0.066,-2.454c0,-2.956 0.282,-5.912 0.838,-8.815c0.163,-0.847 -0.391,-1.666 -1.237,-1.828c-0.851,-0.163 -1.669,0.39 -1.832,1.237Z" style="fill:#ab7a64;fill-rule:nonzero;"/><path d="M15.43,615.778c-0.2,1.122 -0.293,2.256 -0.293,3.388c0.003,4.781 1.709,9.537 4.843,13.184c0.563,0.656 1.547,0.728 2.203,0.166c0.653,-0.563 0.729,-1.55 0.166,-2.204c-2.625,-3.043 -4.091,-7.112 -4.091,-11.146c0,-0.957 0.085,-1.907 0.25,-2.844c0.15,-0.85 -0.418,-1.66 -1.268,-1.81c-0.85,-0.15 -1.66,0.416 -1.81,1.266Z" style="fill:#ab7a64;fill-rule:nonzero;"/><path d="M27.527,621.044l-0.016,0.709c0.007,4.688 2.11,9.275 5.691,12.316c0.656,0.559 1.644,0.478 2.2,-0.182c0.56,-0.659 0.478,-1.643 -0.181,-2.203c-2.853,-2.406 -4.594,-6.19 -4.585,-9.931l0.013,-0.562c0.041,-0.863 -0.625,-1.594 -1.487,-1.635c-0.863,-0.04 -1.594,0.625 -1.635,1.488Z" style="fill:#ab7a64;fill-rule:nonzero;"/><path d="M38.705,602.003c-0.09,0.759 -0.134,1.519 -0.134,2.281c0.003,4.432 1.497,8.832 4.25,12.328c0.534,0.675 1.515,0.794 2.194,0.26c0.678,-0.535 0.793,-1.519 0.259,-2.197c-2.303,-2.913 -3.581,-6.666 -3.578,-10.391c0,-0.637 0.037,-1.278 0.112,-1.909c0.103,-0.859 -0.509,-1.634 -1.365,-1.738c-0.856,-0.103 -1.635,0.51 -1.738,1.366Z" style="fill:#ab7a64;fill-rule:nonzero;"/><path d="M49.552,768.172c-0.153,1.334 -0.228,2.675 -0.228,4.015c0,5.729 1.381,11.447 4.031,16.535c0.397,0.765 1.341,1.062 2.106,0.665c0.766,-0.4 1.063,-1.343 0.666,-2.109c-2.416,-4.628 -3.681,-9.866 -3.678,-15.091c0,-1.221 0.069,-2.443 0.206,-3.659c0.1,-0.856 -0.515,-1.631 -1.372,-1.728c-0.856,-0.1 -1.631,0.516 -1.731,1.372Z" style="fill:#966e60;fill-rule:nonzero;"/><path d="M60.405,773.384c-0.012,0.313 -0.018,0.625 -0.018,0.941c0.006,5.944 2.178,11.828 6.059,16.337c0.566,0.654 1.55,0.725 2.206,0.163c0.653,-0.563 0.725,-1.55 0.163,-2.203c-3.385,-3.919 -5.307,-9.119 -5.303,-14.297l0.018,-0.819c0.032,-0.862 -0.64,-1.587 -1.503,-1.622c-0.862,-0.034 -1.587,0.638 -1.622,1.5Z" style="fill:#966e60;fill-rule:nonzero;"/><path d="M40.702,790.231c0.091,5.606 3.26,10.947 8.141,13.71c0.75,0.425 1.703,0.156 2.125,-0.594c0.425,-0.753 0.159,-1.706 -0.594,-2.128c-3.872,-2.163 -6.503,-6.597 -6.547,-11.028c-0.012,-0.863 -0.722,-1.554 -1.584,-1.544c-0.863,0.012 -1.553,0.722 -1.541,1.584Z" style="fill:#966e60;fill-rule:nonzero;"/><path d="M60.227,801.616c2.503,3.659 5.203,7.184 8.088,10.553c0.559,0.656 1.546,0.731 2.203,0.172c0.653,-0.563 0.731,-1.547 0.169,-2.204c-2.81,-3.284 -5.441,-6.718 -7.879,-10.287c-0.487,-0.713 -1.459,-0.894 -2.171,-0.406c-0.713,0.484 -0.894,1.459 -0.41,2.172Z" style="fill:#966e60;fill-rule:nonzero;"/><path d="M84.752,781.244c-0.091,0.843 -0.137,1.693 -0.137,2.54c0.006,5.9 2.181,11.757 6.106,16.191c0.572,0.644 1.559,0.703 2.203,0.131c0.647,-0.572 0.706,-1.559 0.134,-2.206c-3.4,-3.828 -5.322,-8.991 -5.318,-14.116c0,-0.737 0.04,-1.472 0.118,-2.2c0.094,-0.859 -0.525,-1.631 -1.381,-1.725c-0.859,-0.093 -1.631,0.528 -1.725,1.385Z" style="fill:#966e60;fill-rule:nonzero;"/><path d="M70.736,748.425c-0.221,1.322 -0.331,2.659 -0.331,3.997c0.003,4.534 1.244,9.059 3.616,12.94c0.45,0.738 1.412,0.969 2.147,0.519c0.737,-0.45 0.969,-1.409 0.518,-2.147c-2.059,-3.372 -3.156,-7.35 -3.156,-11.312c0,-1.169 0.097,-2.335 0.288,-3.485c0.14,-0.85 -0.435,-1.656 -1.285,-1.796c-0.85,-0.144 -1.656,0.431 -1.797,1.284Z" style="fill:#966e60;fill-rule:nonzero;"/><path d="M88.152,752.137c-0.1,0.875 -0.15,1.754 -0.15,2.632c0,3.668 0.856,7.328 2.5,10.615c0.388,0.772 1.328,1.085 2.097,0.697c0.772,-0.387 1.084,-1.325 0.697,-2.097c-1.422,-2.84 -2.169,-6.034 -2.169,-9.215c0,-0.763 0.044,-1.522 0.128,-2.278c0.097,-0.86 -0.519,-1.632 -1.375,-1.732c-0.856,-0.097 -1.631,0.519 -1.728,1.378Z" style="fill:#966e60;fill-rule:nonzero;"/><path d="M134.721,802.781c0.147,1.278 0.222,2.566 0.222,3.85c0,3.419 -0.51,6.838 -1.51,10.106c-0.253,0.825 0.21,1.697 1.035,1.95c0.822,0.254 1.7,-0.209 1.953,-1.034c1.091,-3.569 1.647,-7.294 1.647,-11.022c0,-1.403 -0.078,-2.806 -0.238,-4.203c-0.097,-0.856 -0.872,-1.472 -1.728,-1.375c-0.856,0.097 -1.478,0.872 -1.381,1.728Z" style="fill:#966e60;fill-rule:nonzero;"/><path d="M123.068,809.362c0.122,0.941 0.178,1.891 0.178,2.841c0,2.75 -0.497,5.506 -1.466,8.078c-0.306,0.806 0.103,1.71 0.91,2.013c0.806,0.306 1.709,-0.1 2.012,-0.91c1.106,-2.931 1.669,-6.053 1.669,-9.181c0,-1.081 -0.066,-2.162 -0.203,-3.234c-0.106,-0.857 -0.888,-1.463 -1.744,-1.353c-0.859,0.106 -1.462,0.89 -1.356,1.746Z" style="fill:#966e60;fill-rule:nonzero;"/><path d="M106.946,815.112c0.403,5.5 2.441,10.844 5.8,15.213c0.528,0.684 1.509,0.812 2.191,0.284c0.684,-0.525 0.812,-1.506 0.287,-2.19c-2.988,-3.872 -4.809,-8.657 -5.162,-13.535c-0.063,-0.859 -0.81,-1.506 -1.672,-1.443c-0.86,0.062 -1.507,0.812 -1.444,1.671Z" style="fill:#966e60;fill-rule:nonzero;"/><path d="M62.518,819.916l-0.035,0.784c0.004,2.772 1.297,5.134 2.969,7.069c1.684,1.947 3.788,3.547 5.731,4.912c0.707,0.494 1.682,0.322 2.175,-0.387c0.497,-0.707 0.325,-1.682 -0.384,-2.175c-1.859,-1.3 -3.772,-2.785 -5.156,-4.391c-1.391,-1.619 -2.21,-3.272 -2.21,-5.028l0.025,-0.509c0.075,-0.863 -0.559,-1.619 -1.421,-1.694c-0.86,-0.078 -1.616,0.556 -1.694,1.419Z" style="fill:#966e60;fill-rule:nonzero;"/><path d="M58.365,731.334c-1.675,4.238 -2.529,8.785 -2.529,13.335c0,2.19 0.197,4.381 0.597,6.537c0.16,0.85 0.972,1.41 1.822,1.253c0.847,-0.159 1.41,-0.972 1.253,-1.822c-0.365,-1.965 -0.547,-3.965 -0.547,-5.968c0,-4.16 0.782,-8.322 2.31,-12.185c0.319,-0.8 -0.075,-1.709 -0.878,-2.025c-0.803,-0.318 -1.71,0.075 -2.028,0.878l0,-0.003Z" style="fill:#966e60;fill-rule:nonzero;"/><path d="M43.818,737.278c-1.157,3.566 -1.741,7.306 -1.741,11.05c0,1.134 0.053,2.269 0.163,3.4c0.081,0.859 0.843,1.488 1.703,1.406c0.859,-0.081 1.49,-0.847 1.406,-1.703c-0.097,-1.031 -0.147,-2.065 -0.147,-3.103c0,-3.416 0.534,-6.837 1.588,-10.087c0.265,-0.819 -0.185,-1.7 -1.007,-1.966c-0.818,-0.266 -1.7,0.184 -1.965,1.003Z" style="fill:#966e60;fill-rule:nonzero;"/><path d="M147.943,819.372l0,0.153c0,5.025 -1.478,10.066 -4.188,14.297c-0.465,0.728 -0.256,1.694 0.472,2.159c0.725,0.466 1.694,0.256 2.156,-0.472c3.041,-4.747 4.682,-10.35 4.685,-15.984l0,-0.172c-0.006,-0.862 -0.71,-1.556 -1.572,-1.553c-0.863,0.003 -1.559,0.706 -1.553,1.572Z" style="fill:#966e60;fill-rule:nonzero;"/><path d="M124.865,773.241c-0.269,2.606 -0.407,5.228 -0.407,7.846c0,1.616 0.05,3.232 0.157,4.844c0.056,0.863 0.796,1.516 1.659,1.463c0.859,-0.057 1.513,-0.797 1.456,-1.66c-0.097,-1.547 -0.147,-3.097 -0.147,-4.647c0,-2.512 0.132,-5.025 0.391,-7.525c0.088,-0.859 -0.537,-1.625 -1.394,-1.715c-0.859,-0.088 -1.628,0.537 -1.715,1.394Z" style="fill:#966e60;fill-rule:nonzero;"/><path d="M322.152,618.572c5.094,-2.569 10.597,-4.341 16.234,-5.228l-0.065,-0.447l0,0.453l0.072,-0.006l-0.072,-0.447l0,0.453l0,-0.125l-0.025,0.125l0.025,0l0,-0.125l-0.025,0.125l0.178,0.084l0.003,0l0.681,-0.678l-0.909,0c0.034,0.566 0.231,0.653 0.228,0.678l0.681,-0.678l-0.909,0l1.284,0l-0.971,-0.84l-0.313,0.84l1.284,0l-0.971,-0.84l0.787,0.681l-0.356,-0.991l-0.431,0.31l0.787,0.681l-0.356,-0.991c-0.813,0.291 -1.235,1.188 -0.941,2c0.291,0.81 1.185,1.231 1.997,0.941c0.278,-0.1 0.597,-0.266 0.878,-0.588c0.281,-0.315 0.456,-0.8 0.447,-1.203c-0.012,-0.634 -0.263,-1.012 -0.472,-1.29c-0.331,-0.41 -0.697,-0.666 -1.112,-0.879c-0.419,-0.203 -0.891,-0.359 -1.469,-0.362l-0.425,0.031c-5.956,0.941 -11.763,2.81 -17.153,5.525c-0.769,0.391 -1.078,1.328 -0.691,2.1c0.388,0.772 1.328,1.081 2.1,0.691Z" style="fill:#966e60;fill-rule:nonzero;"/><path d="M330.352,625.769c3.844,-1.966 8.047,-3.235 12.338,-3.719c0.856,-0.097 1.475,-0.872 1.375,-1.728c-0.097,-0.86 -0.869,-1.475 -1.728,-1.378c-4.666,0.531 -9.229,1.906 -13.41,4.043c-0.769,0.391 -1.072,1.335 -0.678,2.1c0.391,0.769 1.334,1.075 2.103,0.682Z" style="fill:#966e60;fill-rule:nonzero;"/><path d="M355.361,613.428c4.125,-0.9 8.347,-1.356 12.569,-1.356c0.291,0 0.581,0.003 0.872,0.006c0.863,0.016 1.572,-0.672 1.588,-1.534c0.015,-0.863 -0.672,-1.575 -1.535,-1.591c-0.312,-0.003 -0.619,-0.006 -0.925,-0.006c-4.447,0 -8.89,0.478 -13.234,1.428c-0.844,0.184 -1.378,1.016 -1.194,1.859c0.184,0.844 1.019,1.378 1.863,1.194l-0.004,0Z" style="fill:#966e60;fill-rule:nonzero;"/><path d="M305.852,631.687c4.444,-1.065 8.963,-1.837 13.51,-2.303c0.859,-0.087 1.484,-0.853 1.396,-1.712c-0.09,-0.856 -0.856,-1.481 -1.715,-1.394c-4.685,0.478 -9.341,1.272 -13.922,2.372c-0.838,0.2 -1.356,1.044 -1.153,1.881c0.2,0.841 1.043,1.356 1.884,1.156Z" style="fill:#966e60;fill-rule:nonzero;"/><path d="M319.624,641.744c4.906,-1.057 9.925,-1.6 14.947,-1.613c0.862,-0.003 1.559,-0.706 1.559,-1.569c-0.003,-0.862 -0.706,-1.559 -1.569,-1.556c-5.237,0.016 -10.475,0.578 -15.596,1.685c-0.844,0.181 -1.382,1.012 -1.2,1.856c0.184,0.844 1.015,1.381 1.859,1.197Z" style="fill:#966e60;fill-rule:nonzero;"/><path d="M400.455,613.369c5.931,-1.013 11.941,-1.585 17.957,-1.71c0.865,-0.018 1.549,-0.731 1.531,-1.593c-0.019,-0.863 -0.732,-1.547 -1.594,-1.532c-6.172,0.132 -12.334,0.716 -18.419,1.753c-0.85,0.147 -1.422,0.954 -1.278,1.804c0.147,0.853 0.953,1.425 1.803,1.278Z" style="fill:#966e60;fill-rule:nonzero;"/><path d="M410.365,619.769c4.859,0 9.718,0 14.578,0c0.862,0 1.562,-0.7 1.562,-1.563c0,-0.862 -0.7,-1.562 -1.562,-1.562c-4.86,0 -9.719,0 -14.578,0c-0.863,0 -1.563,0.7 -1.563,1.562c0,0.863 0.7,1.563 1.563,1.563Z" style="fill:#966e60;fill-rule:nonzero;"/><path d="M402.715,633.106c5.087,-1.047 10.172,-2.094 15.259,-3.14c0.844,-0.172 1.388,-0.997 1.216,-1.844c-0.175,-0.844 -1,-1.391 -1.844,-1.216c-5.088,1.047 -10.175,2.094 -15.263,3.138c-0.843,0.175 -1.387,1 -1.215,1.847c0.175,0.843 1,1.387 1.847,1.215Z" style="fill:#966e60;fill-rule:nonzero;"/><path d="M415.583,643.094c3.885,-0.288 7.766,-0.572 11.65,-0.86c0.863,-0.062 1.507,-0.812 1.444,-1.672c-0.062,-0.862 -0.812,-1.506 -1.672,-1.443c-3.884,0.284 -7.769,0.572 -11.653,0.859c-0.859,0.063 -1.506,0.813 -1.444,1.672c0.066,0.862 0.813,1.506 1.675,1.444Z" style="fill:#966e60;fill-rule:nonzero;"/><path d="M432.065,632.016c3.653,0.421 7.306,0.843 10.956,1.262c0.856,0.1 1.631,-0.516 1.731,-1.372c0.1,-0.859 -0.516,-1.634 -1.372,-1.731c-3.653,-0.422 -7.303,-0.844 -10.956,-1.266c-0.856,-0.097 -1.631,0.519 -1.731,1.375c-0.1,0.857 0.515,1.632 1.375,1.732l-0.003,0Z" style="fill:#966e60;fill-rule:nonzero;"/><path d="M228.158,626.328c4.616,0 9.232,0 13.847,0c0.863,0 1.563,-0.7 1.563,-1.562c0,-0.863 -0.7,-1.563 -1.563,-1.563c-4.615,0 -9.231,0 -13.847,0c-0.862,0 -1.562,0.7 -1.562,1.563c0,0.862 0.7,1.562 1.562,1.562Z" style="fill:#966e60;fill-rule:nonzero;"/><path d="M101.887,646.106c4.137,-2.415 8.278,-4.831 12.415,-7.247c0.741,-0.434 0.994,-1.39 0.563,-2.137c-0.441,-0.744 -1.394,-0.997 -2.141,-0.56c-4.134,2.413 -8.275,4.829 -12.412,7.244c-0.747,0.435 -0.997,1.394 -0.563,2.138c0.434,0.747 1.394,0.997 2.138,0.562Z" style="fill:#966e60;fill-rule:nonzero;"/><path d="M107.34,651.562l0.925,0.65l-0.657,-0.915l-0.268,0.265l0.925,0.65l-0.657,-0.915l0.819,1.144l0,-1.404c-0.366,-0.003 -0.659,0.141 -0.819,0.26l0.819,1.144l0,-1.404l0,1.425l1.003,-1.021c-0.169,-0.175 -0.553,-0.41 -1.003,-0.404l0,1.425l1.003,-1.021l-0.8,0.815l1.113,-0.306l-0.313,-0.509l-0.8,0.815l1.113,-0.306l-0.447,0.122l0.469,0l-0.022,-0.122l-0.447,0.122l0.469,0l-0.313,0l0.288,0.109l0.025,-0.109l-0.313,0l0.288,0.109l-0.763,-0.287l0.472,0.65l0.291,-0.363l-0.763,-0.287l0.472,0.65c2.775,-2.038 6.113,-3.319 9.534,-3.672c0.854,-0.088 1.482,-0.853 1.391,-1.713c-0.084,-0.859 -0.853,-1.484 -1.712,-1.393c-3.985,0.409 -7.829,1.89 -11.057,4.256c-0.428,0.312 -0.662,0.715 -0.79,1.062c-0.132,0.353 -0.175,0.675 -0.175,0.988c0.003,0.312 0.034,0.603 0.181,0.969l0.422,0.631c0.222,0.234 0.672,0.497 1.184,0.49c0.425,0 0.781,-0.162 1,-0.325l0.469,-0.481c0.497,-0.706 0.325,-1.681 -0.381,-2.175c-0.707,-0.497 -1.682,-0.325 -2.175,0.381Z" style="fill:#966e60;fill-rule:nonzero;"/><path d="M88.44,652.078c1.037,-5.047 4.137,-9.691 8.4,-12.587c0.712,-0.485 0.897,-1.457 0.409,-2.172c-0.484,-0.713 -1.456,-0.897 -2.169,-0.41c-4.95,3.375 -8.484,8.672 -9.703,14.538c-0.175,0.844 0.369,1.672 1.216,1.847c0.843,0.175 1.672,-0.369 1.847,-1.216Z" style="fill:#966e60;fill-rule:nonzero;"/><path d="M71.518,663.366l-0.003,-0.291c-0.003,-4.309 1.715,-8.647 4.678,-11.772c0.59,-0.628 0.562,-1.619 -0.063,-2.209c-0.628,-0.594 -1.615,-0.566 -2.209,0.062c-3.522,3.735 -5.525,8.791 -5.531,13.919l0.003,0.347c0.015,0.862 0.728,1.55 1.59,1.534c0.863,-0.015 1.55,-0.725 1.535,-1.59Z" style="fill:#966e60;fill-rule:nonzero;"/><path d="M94.068,676.547c0.075,-3.378 1.559,-6.763 3.994,-9.106c0.621,-0.6 0.637,-1.591 0.037,-2.21c-0.6,-0.622 -1.587,-0.637 -2.209,-0.04c-3.038,2.943 -4.841,7.053 -4.944,11.284c-0.022,0.862 0.659,1.578 1.525,1.597c0.862,0.022 1.578,-0.663 1.597,-1.525Z" style="fill:#966e60;fill-rule:nonzero;"/><path d="M131.677,634.012c4.541,-1.05 9.081,-2.103 13.625,-3.153c0.841,-0.193 1.366,-1.034 1.169,-1.875c-0.194,-0.84 -1.031,-1.362 -1.878,-1.168c-4.541,1.05 -9.078,2.1 -13.619,3.153c-0.844,0.193 -1.366,1.031 -1.172,1.875c0.197,0.84 1.035,1.362 1.875,1.168Z" style="fill:#966e60;fill-rule:nonzero;"/><path d="M351.302,887.053l0.616,0.006c4.884,0 9.765,-0.822 14.384,-2.422c0.813,-0.284 1.247,-1.171 0.963,-1.987c-0.282,-0.816 -1.172,-1.247 -1.988,-0.966c-4.284,1.485 -8.825,2.25 -13.359,2.25l-0.575,-0.006c-0.863,-0.009 -1.572,0.681 -1.582,1.544c-0.012,0.862 0.679,1.572 1.541,1.581Z" style="fill:#c69077;fill-rule:nonzero;"/><path d="M357.093,876.334c0.353,0.016 0.706,0.022 1.059,0.022c5.175,-0.003 10.316,-1.656 14.516,-4.69c0.7,-0.504 0.856,-1.482 0.35,-2.182c-0.506,-0.7 -1.481,-0.856 -2.181,-0.35c-3.651,2.641 -8.179,4.1 -12.685,4.097c-0.309,0 -0.615,-0.006 -0.922,-0.019c-0.862,-0.04 -1.594,0.629 -1.631,1.491c-0.037,0.863 0.631,1.594 1.494,1.631Z" style="fill:#c69077;fill-rule:nonzero;"/><path d="M320.349,880.319c1.381,0.268 2.788,0.4 4.191,0.4c2.875,0 5.746,-0.553 8.415,-1.641c0.8,-0.328 1.181,-1.237 0.856,-2.037c-0.325,-0.8 -1.237,-1.182 -2.037,-0.857c-2.281,0.932 -4.759,1.41 -7.234,1.41c-1.207,0 -2.416,-0.116 -3.597,-0.344c-0.85,-0.163 -1.669,0.391 -1.831,1.237c-0.166,0.847 0.39,1.669 1.237,1.832Z" style="fill:#c69077;fill-rule:nonzero;"/><path d="M329.293,871.122c1.431,0.169 2.875,0.253 4.315,0.253c2.644,0 5.285,-0.281 7.866,-0.844c0.844,-0.181 1.381,-1.012 1.197,-1.856c-0.181,-0.844 -1.013,-1.378 -1.856,-1.197c-2.366,0.513 -4.785,0.772 -7.207,0.772c-1.318,0 -2.64,-0.078 -3.95,-0.231c-0.859,-0.1 -1.634,0.512 -1.734,1.368c-0.1,0.86 0.513,1.635 1.369,1.735Z" style="fill:#c69077;fill-rule:nonzero;"/><path d="M309.23,889.006c2.938,0.881 6,1.322 9.066,1.322c2.162,0 4.322,-0.219 6.444,-0.662c0.843,-0.179 1.384,-1.004 1.209,-1.85c-0.178,-0.844 -1.006,-1.385 -1.85,-1.21c-1.906,0.4 -3.853,0.597 -5.803,0.597c-2.763,0 -5.528,-0.4 -8.169,-1.191c-0.828,-0.246 -1.7,0.222 -1.947,1.047c-0.247,0.828 0.222,1.697 1.05,1.947Z" style="fill:#c69077;fill-rule:nonzero;"/><path d="M277.852,884.606c5.3,1.722 10.869,2.606 16.444,2.606l0.181,0c0.863,0 1.563,-0.696 1.566,-1.559c0.003,-0.862 -0.694,-1.562 -1.556,-1.566l-0.191,0c-5.244,0 -10.491,-0.831 -15.478,-2.453c-0.822,-0.268 -1.703,0.182 -1.969,1.003c-0.269,0.819 0.181,1.7 1.003,1.969Z" style="fill:#c69077;fill-rule:nonzero;"/><path d="M289.19,875.834c4.375,0.463 8.75,0.925 13.125,1.388c0.859,0.09 1.628,-0.531 1.718,-1.388c0.091,-0.859 -0.531,-1.628 -1.39,-1.718c-4.375,-0.463 -8.75,-0.925 -13.125,-1.388c-0.86,-0.091 -1.628,0.531 -1.719,1.388c-0.091,0.859 0.531,1.628 1.391,1.718Z" style="fill:#c69077;fill-rule:nonzero;"/><path d="M306.524,862.703c2.225,0.431 4.494,0.647 6.759,0.647c2.619,0 5.235,-0.288 7.791,-0.863c0.844,-0.19 1.372,-1.025 1.184,-1.865c-0.19,-0.844 -1.025,-1.372 -1.868,-1.185c-2.328,0.525 -4.719,0.788 -7.107,0.788c-2.068,0 -4.137,-0.197 -6.165,-0.591c-0.847,-0.165 -1.666,0.388 -1.832,1.238c-0.162,0.847 0.391,1.665 1.238,1.831Z" style="fill:#c69077;fill-rule:nonzero;"/><path d="M233.002,885.119c3.222,1.965 6.969,2.984 10.725,2.984c1.528,0 3.056,-0.169 4.55,-0.512c0.841,-0.197 1.366,-1.035 1.172,-1.875c-0.197,-0.841 -1.034,-1.366 -1.875,-1.172c-1.259,0.29 -2.55,0.434 -3.847,0.434c-3.187,0.003 -6.391,-0.872 -9.097,-2.528c-0.737,-0.45 -1.7,-0.216 -2.147,0.519c-0.45,0.737 -0.218,1.7 0.519,2.15Z" style="fill:#c69077;fill-rule:nonzero;"/><path d="M247.93,876.975c2.66,1.131 5.535,1.706 8.416,1.706c1.134,0 2.269,-0.09 3.391,-0.269c0.849,-0.137 1.431,-0.94 1.293,-1.79c-0.137,-0.853 -0.94,-1.431 -1.79,-1.294c-0.957,0.153 -1.925,0.228 -2.894,0.228c-2.463,0 -4.931,-0.494 -7.191,-1.456c-0.794,-0.338 -1.712,0.031 -2.05,0.825c-0.337,0.794 0.032,1.712 0.825,2.05Z" style="fill:#c69077;fill-rule:nonzero;"/><path d="M390.811,874.878c4.738,-0.378 9.407,-1.525 13.779,-3.387c0.793,-0.338 1.162,-1.257 0.825,-2.05c-0.338,-0.794 -1.257,-1.163 -2.05,-0.825c-4.06,1.728 -8.404,2.796 -12.8,3.146c-0.86,0.069 -1.504,0.819 -1.435,1.682c0.069,0.859 0.822,1.5 1.681,1.434Z" style="fill:#c69077;fill-rule:nonzero;"/><path d="M378.94,850.097c0.646,0.034 1.293,0.053 1.937,0.053c3.722,0 7.438,-0.588 10.978,-1.734c0.822,-0.266 1.272,-1.147 1.006,-1.969c-0.268,-0.822 -1.149,-1.272 -1.968,-1.003c-3.228,1.047 -6.622,1.581 -10.016,1.581c-0.591,0 -1.178,-0.016 -1.765,-0.05c-0.863,-0.047 -1.601,0.612 -1.647,1.475c-0.047,0.862 0.612,1.6 1.475,1.647Z" style="fill:#c69077;fill-rule:nonzero;"/><path d="M387.483,856.45c1.429,0.3 2.885,0.447 4.341,0.447c3.188,0 6.372,-0.706 9.256,-2.091c0.778,-0.372 1.106,-1.306 0.735,-2.084c-0.372,-0.778 -1.307,-1.106 -2.085,-0.735c-2.45,1.175 -5.181,1.785 -7.906,1.785c-1.244,0 -2.488,-0.125 -3.7,-0.381c-0.844,-0.175 -1.672,0.365 -1.85,1.209c-0.175,0.844 0.366,1.672 1.209,1.85Z" style="fill:#c69077;fill-rule:nonzero;"/><path d="M251.533,855.666c3.991,1.321 8.191,1.99 12.391,1.99c2.003,0 4.009,-0.153 5.994,-0.459c0.853,-0.131 1.437,-0.931 1.303,-1.785c-0.131,-0.853 -0.928,-1.437 -1.781,-1.303c-1.825,0.282 -3.669,0.422 -5.516,0.422c-3.869,0 -7.741,-0.619 -11.409,-1.831c-0.822,-0.272 -1.704,0.175 -1.975,0.994c-0.272,0.818 0.172,1.703 0.993,1.972Z" style="fill:#c69077;fill-rule:nonzero;"/><path d="M224.577,864.612c3.322,1.457 6.935,2.194 10.55,2.194c2.194,0 4.391,-0.272 6.522,-0.822c0.834,-0.215 1.338,-1.068 1.122,-1.903c-0.216,-0.837 -1.069,-1.337 -1.903,-1.122c-1.872,0.482 -3.803,0.722 -5.741,0.722c-3.19,0 -6.384,-0.653 -9.297,-1.928c-0.79,-0.347 -1.712,0.013 -2.056,0.803c-0.347,0.791 0.012,1.713 0.803,2.06l0,-0.004Z" style="fill:#c69077;fill-rule:nonzero;"/><path d="M296.393,845.447l0.128,-0.656c0.003,-0.282 -0.081,-0.61 -0.244,-0.869c-0.244,-0.397 -0.584,-0.6 -0.837,-0.697l-0.672,-0.122c-0.369,0.006 -0.688,0.078 -1.06,0.306c-0.356,0.203 -0.837,0.769 -0.828,1.494l0.038,0.369l1.528,-0.331l-1.544,0.25c0.056,0.368 0.238,0.721 0.45,0.965c0.322,0.369 0.656,0.531 0.919,0.638l0.69,0.178c1.388,0.219 2.791,0.325 4.194,0.325c3.638,0 7.272,-0.722 10.635,-2.138c0.793,-0.334 1.168,-1.25 0.831,-2.043c-0.335,-0.797 -1.25,-1.169 -2.044,-0.835c-2.969,1.25 -6.197,1.891 -9.422,1.891c-1.243,0 -2.484,-0.094 -3.709,-0.288l-0.059,-0.009l-0.16,0.556l0.347,-0.453l-0.187,-0.103l-0.16,0.556l0.347,-0.453l-0.678,0.888l1.09,-0.179c-0.043,-0.328 -0.278,-0.618 -0.412,-0.709l-0.678,0.888l1.09,-0.179l-0.015,-0.081l-1.366,0.297l1.4,0l-0.034,-0.297l-1.366,0.297l1.4,0l-1.34,0l0.728,1.138c0.228,-0.119 0.618,-0.566 0.612,-1.138l-1.34,0l0.728,1.138l-0.625,-0.972l0,1.159l0.625,-0.187l-0.625,-0.972l0,1.159l0,-1.312l-0.678,1.115c0.318,0.185 0.525,0.191 0.678,0.197l0,-1.312l-0.678,1.115l0.75,-1.231l-1.232,0.75l0.482,0.481l0.75,-1.231l-1.232,0.75l1.244,-0.759l-1.456,0l0.212,0.759l1.244,-0.759l-1.456,0l1.381,0l-1.281,-0.519l-0.1,0.519l1.381,0l-1.281,-0.519c-0.325,0.8 0.062,1.712 0.862,2.037c0.8,0.322 1.71,-0.062 2.035,-0.862Z" style="fill:#c69077;fill-rule:nonzero;"/></svg>