<?xml version="1.0" encoding="UTF-8" standalone="no"?><!DOCTYPE svg PUBLIC "-//W3C//DTD SVG 1.1//EN" "http://www.w3.org/Graphics/SVG/1.1/DTD/svg11.dtd"><svg width="100%" height="100%" viewBox="0 0 402 272" version="1.1" xmlns="http://www.w3.org/2000/svg" xmlns:xlink="http://www.w3.org/1999/xlink" xml:space="preserve" style="fill-rule:evenodd;clip-rule:evenodd;stroke-linejoin:round;stroke-miterlimit:1.41421;"><path d="M298.15,134.206c-10.693,0 -19.368,-8.678 -19.368,-19.369c0,-10.69 8.675,-19.362 19.368,-19.362c10.694,0 19.36,8.672 19.36,19.362c0,10.691 -8.666,19.369 -19.36,19.369Zm75.582,32.216c10.609,-9.778 25.856,-21.731 21.318,-28.766c-131.928,-204.05 -277.487,-86.031 -319.737,-44.203c-6.928,6.859 -15.525,5.703 -21.331,-2.141c-10.86,-14.662 -28.188,-33.796 -39.832,-46.25c-6.659,-7.124 -14.212,-5.046 -14.15,4.701c0.197,29.653 14.872,66.852 24.247,87.634c4.013,8.881 2.925,22.344 -0.887,31.322c-9.294,21.85 -15.556,54.162 -18.797,73.95c-1.569,9.625 4.197,13.394 11.606,7.047c10.484,-8.994 24.369,-21.985 34.319,-31.469c7.072,-6.716 16.266,-5.088 24.009,0.831c4.95,3.775 10.828,7.606 16.157,10.872c8.325,5.097 27.796,12.272 23.381,20.444c-4.416,8.162 -4.469,10.297 4.94,7.728c9.4,-2.588 24.25,-2.206 33.525,0.787c114.969,37.038 192.575,-16.309 221.466,-41.918c7.297,-6.475 14.463,-12.728 16.831,-13.116c1.107,-0.184 2.503,-0.416 4.272,-0.709c4.76,-0.794 -5.072,-7.769 -14.706,-13.797c-8.294,-5.181 -13.797,-16.325 -6.631,-22.947Z" style="fill:#8ed3d6;fill-rule:nonzero;"/><path d="M108.991,257.603l14.322,-36.244l47.222,18.122l-61.544,28.978" style="fill:#4d9a9a;fill-rule:nonzero;"/><path d="M266.004,24.041c0,0 -142.607,110.328 -14.566,246.459c0,0 116.94,-17.228 150.053,-72.319l-30.975,-25.503l30.975,-30.022c0,0 -22.869,-61.153 -135.487,-118.615Z" style="fill:#f1d9dc;fill-rule:nonzero;"/><path d="M313.213,124.162c0,9.416 -7.628,17.038 -17.028,17.038c-9.4,0 -17.032,-7.622 -17.032,-17.038c0,-9.4 7.632,-17.028 17.032,-17.028c9.4,0 17.028,7.628 17.028,17.028Z" style="fill:#fff;fill-rule:nonzero;"/><path d="M306.6,134.206c0,4.672 -3.784,8.45 -8.45,8.45c-4.665,0 -8.45,-3.778 -8.45,-8.45c0,-4.669 3.785,-8.45 8.45,-8.45c4.666,0 8.45,3.781 8.45,8.45Z" style="fill:#403e39;fill-rule:nonzero;"/><path d="M250.129,23.509c-30.225,-3.043 -71.144,8.725 -100.938,16.738c-12.331,3.306 -12.056,-9.891 -13.556,-21.95c-1.016,-8.128 -3.716,-15.953 -10.122,-18.297c-0.028,-0.006 95.341,11 140.491,24.041c12.243,3.547 -3.194,0.75 -15.875,-0.532Z" style="fill:#4d9a9a;fill-rule:nonzero;"/></svg>