<?xml version="1.0" encoding="UTF-8" standalone="no"?>
<!DOCTYPE svg PUBLIC "-//W3C//DTD SVG 1.1//EN" "http://www.w3.org/Graphics/SVG/1.1/DTD/svg11.dtd">
<svg width="100%" height="100%" viewBox="0 0 901 901" version="1.1" xmlns="http://www.w3.org/2000/svg" xmlns:xlink="http://www.w3.org/1999/xlink" xml:space="preserve" xmlns:serif="http://www.serif.com/" style="fill-rule:evenodd;clip-rule:evenodd;stroke-linejoin:round;stroke-miterlimit:1.41421;">
    <g transform="matrix(1,0,0,1,0,102)">
        <path d="M776.519,324.252C783.312,313.558 785.859,300.246 783.491,287.802C775.541,299.996 763.991,309.812 750.675,315.69C749.628,299.837 746.541,284.118 741.516,269.046C727.65,287.34 708.763,301.787 687.475,310.38C687.334,294.224 682.697,278.133 674.219,264.38C665.087,273.637 654.2,281.152 642.312,286.408C645.694,275.149 645.659,262.887 642.216,251.646C632.453,265.108 619.772,276.446 605.3,284.643C605.684,269.69 602.466,254.655 595.997,241.168C588.047,254.18 581.303,267.933 575.884,282.19C566.528,265.918 558.722,248.771 552.463,231.074C546.134,267.98 546.334,307.062 546.962,344.574C548.116,413.637 547.256,488.249 506.103,543.721C493.081,561.271 475.894,576.396 455.213,583.465C450.519,592.365 445.434,601.062 439.978,609.521C512.078,636.112 592.153,640.627 666.781,622.308C719.644,609.333 771.462,583.658 804.178,540.158C844.975,485.915 850.166,412.524 841.55,345.199C838.419,320.74 833.706,296.165 831.606,271.637C818.103,293.477 798.997,311.833 776.519,324.252Z" style="fill:rgb(205,125,98);fill-rule:nonzero;"/>
    </g>
    <g transform="matrix(1,0,0,1,0,102)">
        <path d="M856.872,91.733C831.122,74.455 799.525,67.852 768.544,66.537C699.587,63.612 626.134,88.69 586.037,144.865C567.706,170.546 557.784,200.043 552.463,231.074C558.722,248.771 566.528,265.918 575.884,282.19C581.303,267.933 588.047,254.18 595.997,241.168C602.466,254.655 605.684,269.69 605.3,284.643C619.772,276.446 632.453,265.108 642.216,251.646C645.659,262.887 645.694,275.149 642.312,286.408C654.2,281.152 665.087,273.637 674.219,264.38C682.697,278.133 687.334,294.224 687.475,310.38C708.763,301.787 727.65,287.34 741.516,269.046C746.541,284.118 749.628,299.837 750.675,315.69C763.991,309.812 775.541,299.996 783.491,287.802C785.859,300.246 783.312,313.558 776.519,324.252C798.997,311.833 818.103,293.477 831.606,271.637C830.128,254.377 829.931,237.143 832.541,219.987C835.116,203.043 840.897,185.721 853.547,174.158C866.197,162.596 887.072,158.827 900.591,169.365C901.6,138.371 882.622,109.015 856.872,91.733Z" style="fill:rgb(236,220,206);fill-rule:nonzero;"/>
    </g>
    <g transform="matrix(1,0,0,1,0,102)">
        <path d="M438.081,632.774C453.347,621.168 464.097,603.771 467.65,584.924C469.138,577.033 469.2,568.202 464.422,561.749C459.378,554.94 450.003,552.521 441.6,553.59C433.194,554.662 425.478,558.64 417.963,562.552C427.269,517.987 424.309,471.39 413.409,427.19C402.506,382.987 383.844,341.005 361.925,301.102C306.512,300.58 251.1,300.062 195.684,299.54C191.647,299.502 187.4,299.515 183.869,301.474C180.794,303.177 178.656,306.149 176.738,309.093C154.203,343.708 148.488,386.312 144.041,427.377C138.044,482.696 133.591,540.368 153.153,592.458C146.541,583.024 133.05,579.14 122.431,583.615C111.813,588.09 105.172,600.455 107.306,611.78C110.019,626.171 123.997,635.202 132.363,647.224C130.806,647.133 129.247,647.165 127.691,647.143C132.737,654.362 135.75,662.987 136.281,671.777C149.941,670.78 163.584,669.312 177.228,668.112C265.225,660.368 353.7,664.533 442.075,665.987C442.188,654.693 444.841,643.437 449.744,633.262C445.869,632.902 441.972,632.737 438.081,632.774Z" style="fill:rgb(225,146,115);fill-rule:nonzero;"/>
    </g>
    <g transform="matrix(1,0,0,1,0,102)">
        <path d="M97.631,650.824C91.631,652.443 84.659,656.055 84.697,662.268C84.744,669.821 94.584,672.618 102.138,672.818C113.531,673.115 124.913,672.608 136.281,671.777C135.75,662.987 132.737,654.362 127.691,647.143C117.559,646.996 107.412,648.18 97.631,650.824Z" style="fill:rgb(126,105,96);fill-rule:nonzero;"/>
    </g>
    <g transform="matrix(1,0,0,1,0,102)">
        <path d="M482.975,641.383C472.384,637.049 461.141,634.312 449.744,633.262C444.841,643.437 442.188,654.693 442.075,665.987C454.944,666.199 467.809,666.355 480.672,666.405C486.269,666.427 492.853,665.918 495.831,661.18C500.628,653.549 491.316,644.799 482.975,641.383Z" style="fill:rgb(126,105,96);fill-rule:nonzero;"/>
    </g>
    <g transform="matrix(1,0,0,1,0,102)">
        <path d="M164.859,321.24C162.078,327.724 161.525,334.918 161.113,341.965C159.209,374.524 159.591,407.587 167.553,439.215C168.938,437.458 170.322,435.702 171.703,433.949C173.494,444.699 175.287,455.477 178.253,465.965C186.006,493.412 201.578,518.118 219.906,539.968C238.234,561.821 259.375,581.105 280.022,600.783C280.9,601.618 281.875,602.502 283.084,602.599C284.081,602.68 285.031,602.199 285.909,601.715C300.684,593.53 311.947,580.246 321.653,566.424C339.881,540.471 353.866,511.543 362.878,481.137C364.084,488.877 363.847,496.84 362.184,504.499C379.328,466.237 389.866,425.027 393.194,383.233C393.675,377.174 394.003,371.033 392.881,365.062C391.759,359.071 389.216,353.455 386.697,347.908C380.641,334.571 374.578,321.227 367.95,308.165C366.741,305.78 365.422,303.305 363.203,301.815C361.231,300.493 358.794,300.115 356.441,299.808C334.534,296.955 312.431,297.38 290.306,297.808C274.372,298.115 258.428,298.421 242.544,297.505C228.059,296.668 213.416,294.821 199.134,297.387C184.856,299.952 170.578,307.905 164.859,321.24Z" style="fill:rgb(238,209,186);fill-rule:nonzero;"/>
    </g>
    <g transform="matrix(1,0,0,1,0,102)">
        <path d="M239.291,535.04C237.822,505.237 236.356,475.433 234.888,445.63C227.187,443.274 219.975,439.324 213.844,434.105C214.822,513.715 219.631,593.274 228.25,672.421C222.303,673.637 215.981,675.046 211.734,679.38C207.488,683.715 206.784,692.015 211.919,695.255C214.438,696.846 217.619,696.837 220.597,696.724C228.909,696.418 237.206,695.733 245.456,694.68C244.891,648.69 242.628,602.74 240.363,556.799C240.006,549.546 239.65,542.293 239.291,535.04Z" style="fill:rgb(126,105,96);fill-rule:nonzero;"/>
    </g>
    <g transform="matrix(1,0,0,1,0,102)">
        <path d="M339.341,434.515C333.166,439.249 326.509,443.365 319.513,446.771C324.262,529.199 327.187,611.733 328.281,694.29C335.228,695.621 342.381,695.89 349.409,695.083C353.344,694.633 357.4,693.777 360.531,691.355C365.572,687.458 366.956,679.58 363.547,674.199C360.138,668.818 352.425,666.702 346.747,669.596C350.594,593.68 351.312,512.19 339.341,434.515Z" style="fill:rgb(126,105,96);fill-rule:nonzero;"/>
    </g>
    <g transform="matrix(1,0,0,1,0,102)">
        <path d="M277.631,304.512C283.722,269.821 300.325,237.552 321.903,209.715C343.481,181.874 369.953,158.193 397.594,136.362C414,123.405 431.025,111.002 449.697,101.655C443.756,93.833 437.681,86.112 431.353,78.596C428.912,75.702 426.409,72.771 424.941,69.283C423.184,65.105 423.047,60.458 422.781,55.937C421.856,40.065 419.069,24.302 414.506,9.074C413.497,5.705 410.034,3.609 406.581,4.28C388.588,7.777 373.594,21.474 360.191,34.537C356.647,37.99 352.972,41.537 348.359,43.327C343.956,45.033 339.094,44.987 334.372,44.849C279.631,43.258 224.059,32.737 170.678,44.962C168.881,45.371 166.919,45.793 165.262,44.983C164.219,44.474 163.456,43.543 162.725,42.64C151.653,28.924 140.578,15.205 129.503,1.49C127.503,-0.988 123.594,-0.248 122.578,2.771C109.347,42.177 89.288,79.077 66.391,113.805C63.294,118.505 60.125,123.202 56.938,127.908C100.841,139.908 142.816,158.943 180.647,184.249C224.412,213.521 264.166,253.609 277.631,304.512Z" style="fill:rgb(225,146,115);fill-rule:nonzero;"/>
    </g>
    <g transform="matrix(1,0,0,1,0,102)">
        <path d="M514.638,209.358C496.969,171.249 475.103,135.105 449.697,101.655C431.025,111.002 414,123.405 397.594,136.362C369.953,158.193 343.481,181.874 321.903,209.715C300.325,237.552 283.722,269.821 277.631,304.512C264.166,253.609 224.412,213.521 180.647,184.249C142.816,158.943 100.841,139.908 56.938,127.908C31.819,165.005 5.397,202.627 0,246.683L24.506,241.652C26.169,255.355 22.662,269.618 14.841,280.99C24.697,281.79 34.675,281.093 44.325,278.93L37.747,305.262C97.763,296.368 159.462,298.974 218.512,312.896C237.616,317.399 256.728,323.205 273.241,333.812C275.006,334.946 276.803,336.158 278.866,336.546C281.569,337.049 284.303,336.062 286.875,335.087C353.638,309.799 421.3,282.037 492.65,279.593C482.663,271.58 471,265.668 458.634,262.343C471.325,257.952 485.047,256.565 498.359,258.324C498.978,245.668 492.684,232.887 482.278,225.662C494.072,225.84 505.831,227.971 516.937,231.943C521.078,225.215 517.963,216.527 514.638,209.358Z" style="fill:rgb(236,220,206);fill-rule:nonzero;"/>
    </g>
    <g transform="matrix(1,0,0,1,0,102)">
        <path d="M403.181,23.13C410.187,37.174 409.606,53.683 408.259,69.321C402.319,67.865 396.687,65.18 391.819,61.48C388.644,59.068 385.788,56.233 382.437,54.068C379.091,51.902 375.05,50.427 371.134,51.171C379.247,39.34 390.378,29.599 403.181,23.13Z" style="fill:rgb(126,105,96);fill-rule:nonzero;"/>
    </g>
    <g transform="matrix(1,0,0,1,0,102)">
        <path d="M112.5,59.712C123.609,55.937 134.759,52.277 145.947,48.74C146.406,47.646 145.559,46.471 144.769,45.584C138.403,38.44 132.037,31.296 125.672,24.152C122.044,36.271 117.641,48.155 112.5,59.712Z" style="fill:rgb(126,105,96);fill-rule:nonzero;"/>
    </g>
    <g transform="matrix(1,0,0,1,0,102)">
        <path d="M276.484,353.34C283.944,353.843 292.219,352.802 297.316,347.33C301.916,342.393 302.772,335.096 302.809,328.346C302.825,325.19 302.706,321.999 301.866,318.955C299.175,309.218 288.3,302.53 278.394,304.524C277.55,304.693 276.716,304.918 275.884,305.14C275.097,305.352 274.309,305.565 273.522,305.774C271.903,306.212 270.275,306.649 268.731,307.299C259.956,310.996 255.372,320.852 253.953,330.268C253.437,333.687 253.244,337.255 254.331,340.54C257.172,349.149 267.441,352.727 276.484,353.34Z" style="fill:rgb(64,62,63);fill-rule:nonzero;"/>
    </g>
    <g transform="matrix(1,0,0,1,0,102)">
        <path d="M390.5,274.33C396.372,279.212 405.428,280.362 411.803,276.158C418.175,271.955 420.513,262.246 415.944,256.13C413.206,252.468 408.647,250.533 404.112,249.927C400.206,249.405 396,249.824 392.756,252.065C389.722,254.165 387.884,257.609 386.709,261.105C386.116,262.868 385.659,264.718 385.831,266.571C386.116,269.655 388.116,272.349 390.5,274.33Z" style="fill:rgb(225,146,115);fill-rule:nonzero;"/>
    </g>
    <g transform="matrix(1,0,0,1,0,102)">
        <path d="M125.688,259.643C120.684,257.983 114.953,257.977 110.353,260.552C105.753,263.127 102.644,268.58 103.675,273.752C104.566,278.23 108.2,281.68 112.128,284.012C116.297,286.483 121.622,288.015 125.931,285.796C129.209,284.108 131.156,280.624 132.397,277.152C134.088,272.421 134.606,266.58 131.206,262.883C129.747,261.296 127.734,260.321 125.688,259.643Z" style="fill:rgb(225,146,115);fill-rule:nonzero;"/>
    </g>
    <g transform="matrix(1,0,0,1,0,102)">
        <path d="M385.212,211.249C386.556,214.024 389.784,215.758 392.841,215.346C395.897,214.93 398.547,212.402 399.106,209.368C399.944,204.805 395.459,200.105 390.863,200.727C386.266,201.349 383.191,207.074 385.212,211.249Z" style="fill:rgb(64,62,63);fill-rule:nonzero;"/>
    </g>
    <g transform="matrix(1,0,0,1,0,102)">
        <path d="M119.231,225.983C120.575,228.758 123.8,230.493 126.859,230.08C129.916,229.665 132.566,227.137 133.125,224.102C133.962,219.54 129.478,214.84 124.881,215.462C120.284,216.083 117.209,221.808 119.231,225.983Z" style="fill:rgb(64,62,63);fill-rule:nonzero;"/>
    </g>
    <g transform="matrix(1,0,0,1,0,102)">
        <path d="M207.366,107.074L207.363,107.23C207.363,108.18 207.672,109.002 208.041,109.677C208.413,110.352 208.853,110.915 209.238,111.402C212.922,116.052 216.609,120.702 220.294,125.352C220.828,126.027 221.812,126.14 222.487,125.605C223.166,125.068 223.278,124.087 222.741,123.409C219.056,118.762 215.372,114.112 211.688,109.462C211.322,109.002 210.994,108.565 210.784,108.177C210.569,107.787 210.488,107.48 210.488,107.23L210.488,107.19C210.519,106.327 209.847,105.602 208.984,105.571C208.122,105.54 207.397,106.212 207.366,107.074Z" style="fill:rgb(171,122,100);fill-rule:nonzero;"/>
    </g>
    <g transform="matrix(1,0,0,1,0,102)">
        <path d="M226.884,112.08C226.453,112.362 226.097,112.777 225.891,113.224C225.678,113.671 225.606,114.13 225.606,114.543C225.641,115.924 226.253,116.987 226.819,117.852C230.209,122.783 232.697,128.343 234.116,134.158C234.319,134.996 235.166,135.512 236.003,135.305C236.841,135.102 237.356,134.255 237.15,133.418C235.641,127.233 233,121.33 229.397,116.08C229.006,115.555 228.697,114.737 228.731,114.543L228.734,114.508L228.466,114.455L228.616,114.68L228.734,114.508L228.466,114.455L228.616,114.68C229.334,114.202 229.528,113.233 229.053,112.515C228.575,111.796 227.603,111.602 226.884,112.08Z" style="fill:rgb(171,122,100);fill-rule:nonzero;"/>
    </g>
    <g transform="matrix(1,0,0,1,0,102)">
        <path d="M244.106,118.265C246.575,122.974 248.222,128.121 248.95,133.39C249.069,134.243 249.856,134.84 250.713,134.724C251.569,134.605 252.166,133.818 252.047,132.962C251.269,127.333 249.509,121.846 246.872,116.815C246.472,116.049 245.528,115.755 244.762,116.155C244,116.555 243.703,117.499 244.106,118.265Z" style="fill:rgb(171,122,100);fill-rule:nonzero;"/>
    </g>
    <g transform="matrix(1,0,0,1,0,102)">
        <path d="M267.472,124.54C267.472,131.524 267.472,138.509 267.472,145.493C267.472,146.355 268.172,147.055 269.034,147.055C269.897,147.055 270.597,146.355 270.597,145.493C270.597,138.509 270.597,131.524 270.597,124.54C270.597,123.677 269.897,122.977 269.034,122.977C268.172,122.977 267.472,123.677 267.472,124.54Z" style="fill:rgb(171,122,100);fill-rule:nonzero;"/>
    </g>
    <g transform="matrix(1,0,0,1,0,102)">
        <path d="M254.591,149.602C254.35,151.158 254.231,152.73 254.231,154.302C254.231,158.665 255.15,163.021 256.941,167.008C257.294,167.796 258.219,168.146 259.006,167.793C259.794,167.44 260.144,166.515 259.791,165.727C258.184,162.155 257.356,158.224 257.356,154.302C257.356,152.89 257.463,151.477 257.678,150.083C257.813,149.23 257.228,148.43 256.375,148.299C255.522,148.168 254.725,148.749 254.591,149.602Z" style="fill:rgb(171,122,100);fill-rule:nonzero;"/>
    </g>
    <g transform="matrix(1,0,0,1,0,102)">
        <path d="M240.562,151.396C240.95,156.808 242.409,162.133 244.838,166.984C245.222,167.755 246.162,168.068 246.934,167.68C247.706,167.296 248.019,166.355 247.631,165.583C245.388,161.102 244.037,156.171 243.681,151.174C243.619,150.312 242.872,149.665 242.009,149.727C241.15,149.787 240.503,150.533 240.562,151.396Z" style="fill:rgb(171,122,100);fill-rule:nonzero;"/>
    </g>
    <g transform="matrix(1,0,0,1,0,102)">
        <path d="M216.647,142.177C220.541,146.346 223.197,151.693 224.172,157.315C224.319,158.165 225.128,158.733 225.978,158.587C226.828,158.44 227.397,157.63 227.25,156.78C226.166,150.549 223.244,144.671 218.931,140.043C218.344,139.415 217.353,139.38 216.722,139.968C216.091,140.555 216.056,141.546 216.647,142.177Z" style="fill:rgb(171,122,100);fill-rule:nonzero;"/>
    </g>
    <g transform="matrix(1,0,0,1,0,102)">
        <path d="M230.397,85.487C232.288,90.465 234.181,95.443 236.075,100.421C236.381,101.227 237.284,101.633 238.091,101.327C238.897,101.021 239.303,100.118 238.997,99.312C237.103,94.33 235.209,89.352 233.316,84.374C233.009,83.568 232.106,83.162 231.3,83.468C230.494,83.777 230.088,84.677 230.397,85.487Z" style="fill:rgb(171,122,100);fill-rule:nonzero;"/>
    </g>
    <g transform="matrix(1,0,0,1,0,102)">
        <path d="M252.231,86.943L252.231,86.987C252.231,93.052 253.3,99.112 255.381,104.812C255.675,105.621 256.572,106.04 257.384,105.743C258.194,105.449 258.612,104.552 258.316,103.74C256.362,98.387 255.353,92.687 255.356,86.987L254.703,86.987L255.356,86.999L255.356,86.987L254.703,86.987L255.356,86.999C255.369,86.137 254.684,85.424 253.822,85.408C252.956,85.393 252.247,86.08 252.231,86.943Z" style="fill:rgb(171,122,100);fill-rule:nonzero;"/>
    </g>
    <g transform="matrix(1,0,0,1,0,102)">
        <path d="M270.316,90.652C270.403,92.702 270.447,94.755 270.447,96.805C270.447,100.008 270.338,103.212 270.125,106.405C270.069,107.268 270.719,108.012 271.581,108.068C272.441,108.127 273.184,107.477 273.244,106.615C273.463,103.349 273.572,100.077 273.572,96.805C273.572,94.708 273.528,92.615 273.438,90.518C273.4,89.655 272.672,88.987 271.809,89.024C270.947,89.062 270.278,89.79 270.316,90.652Z" style="fill:rgb(171,122,100);fill-rule:nonzero;"/>
    </g>
    <g transform="matrix(1,0,0,1,0,102)">
        <path d="M287.003,109.452C284.909,114.487 283.831,119.93 283.828,125.383C283.828,126.083 283.847,126.783 283.884,127.483C283.928,128.346 284.662,129.008 285.525,128.965C286.387,128.918 287.05,128.183 287.003,127.324C286.972,126.677 286.953,126.03 286.953,125.383C286.953,120.346 287.956,115.302 289.891,110.649C290.219,109.852 289.844,108.94 289.047,108.608C288.25,108.277 287.334,108.655 287.003,109.452Z" style="fill:rgb(171,122,100);fill-rule:nonzero;"/>
    </g>
    <g transform="matrix(1,0,0,1,0,102)">
        <path d="M306.219,113.637C302.338,119.096 299.081,124.996 296.541,131.193C296.213,131.993 296.594,132.905 297.394,133.23C298.191,133.558 299.103,133.177 299.431,132.38C301.881,126.405 305.022,120.712 308.766,115.449C309.266,114.746 309.103,113.771 308.4,113.271C307.697,112.771 306.722,112.933 306.219,113.637Z" style="fill:rgb(171,122,100);fill-rule:nonzero;"/>
    </g>
    <g transform="matrix(1,0,0,1,0,102)">
        <path d="M285.853,143.577C284.156,148.083 283.022,152.799 282.491,157.583C282.394,158.44 283.013,159.215 283.872,159.308C284.728,159.405 285.5,158.787 285.597,157.927C286.1,153.405 287.172,148.94 288.778,144.68C289.081,143.874 288.675,142.971 287.866,142.668C287.059,142.362 286.159,142.771 285.853,143.577Z" style="fill:rgb(171,122,100);fill-rule:nonzero;"/>
    </g>
    <g transform="matrix(1,0,0,1,0,102)">
        <path d="M274.766,171.205C274.156,174.283 273.85,177.418 273.85,180.552C273.85,181.915 273.909,183.277 274.025,184.633C274.097,185.496 274.853,186.133 275.716,186.058C276.575,185.987 277.212,185.23 277.138,184.368C277.031,183.099 276.975,181.827 276.975,180.552C276.975,177.621 277.263,174.687 277.831,171.812C277.997,170.965 277.447,170.143 276.6,169.977C275.753,169.808 274.931,170.358 274.766,171.205Z" style="fill:rgb(171,122,100);fill-rule:nonzero;"/>
    </g>
    <g transform="matrix(1,0,0,1,0,102)">
        <path d="M258.341,184.427C260.912,189.618 262.35,195.377 262.513,201.165C262.538,202.027 263.256,202.705 264.119,202.68C264.981,202.658 265.663,201.937 265.638,201.074C265.459,194.83 263.916,188.64 261.141,183.04C260.759,182.268 259.822,181.952 259.047,182.333C258.275,182.718 257.959,183.655 258.341,184.427Z" style="fill:rgb(171,122,100);fill-rule:nonzero;"/>
    </g>
    <g transform="matrix(1,0,0,1,0,102)">
        <path d="M292.634,168.015C296.519,162.496 300.4,156.977 304.284,151.458C304.781,150.752 304.609,149.777 303.906,149.28C303.2,148.783 302.225,148.955 301.728,149.662C297.844,155.177 293.963,160.696 290.081,166.215C289.584,166.921 289.753,167.896 290.459,168.393C291.166,168.89 292.137,168.718 292.634,168.015Z" style="fill:rgb(171,122,100);fill-rule:nonzero;"/>
    </g>
    <g transform="matrix(1,0,0,1,0,102)">
        <path d="M312.866,135.402C314.709,132.43 316.9,129.668 319.375,127.196C319.984,126.583 319.984,125.596 319.375,124.987C318.763,124.374 317.775,124.374 317.162,124.987C314.519,127.63 312.181,130.577 310.212,133.755C309.756,134.49 309.981,135.452 310.716,135.905C311.447,136.362 312.413,136.137 312.866,135.402Z" style="fill:rgb(171,122,100);fill-rule:nonzero;"/>
    </g>
    <g transform="matrix(1,0,0,1,0,102)">
        <path d="M284.256,67.658C282.206,73.08 281.147,78.868 281.147,84.665C281.147,84.962 281.15,85.258 281.156,85.559C281.172,86.421 281.887,87.105 282.75,87.09C283.612,87.071 284.297,86.358 284.281,85.496L284.272,84.665C284.272,79.249 285.263,73.83 287.181,68.765C287.484,67.958 287.078,67.055 286.272,66.752C285.466,66.446 284.563,66.852 284.256,67.658Z" style="fill:rgb(171,122,100);fill-rule:nonzero;"/>
    </g>
    <g transform="matrix(1,0,0,1,0,102)">
        <path d="M300.753,70.887C297.456,76.371 295.65,82.721 295.569,89.118C295.559,89.98 296.25,90.69 297.113,90.699C297.975,90.712 298.684,90.021 298.694,89.158C298.766,83.324 300.425,77.499 303.431,72.499C303.878,71.758 303.638,70.799 302.9,70.355C302.159,69.909 301.2,70.149 300.753,70.887Z" style="fill:rgb(171,122,100);fill-rule:nonzero;"/>
    </g>
    <g transform="matrix(1,0,0,1,0,102)">
        <path d="M315.516,81.74C312.206,86.183 309.831,91.308 308.578,96.705C308.381,97.546 308.903,98.383 309.744,98.58C310.584,98.777 311.425,98.252 311.622,97.412C312.775,92.44 314.972,87.702 318.022,83.605C318.537,82.915 318.394,81.933 317.7,81.421C317.009,80.905 316.031,81.049 315.516,81.74Z" style="fill:rgb(171,122,100);fill-rule:nonzero;"/>
    </g>
    <g transform="matrix(1,0,0,1,0,102)">
        <path d="M262.372,61.374C261.844,64.096 261.578,66.868 261.578,69.643C261.578,70.887 261.631,72.133 261.741,73.374C261.816,74.233 262.572,74.871 263.431,74.796C264.291,74.724 264.928,73.965 264.853,73.105C264.753,71.955 264.703,70.799 264.703,69.643C264.703,67.068 264.95,64.493 265.441,61.968C265.603,61.121 265.05,60.299 264.203,60.137C263.356,59.971 262.534,60.527 262.372,61.374Z" style="fill:rgb(171,122,100);fill-rule:nonzero;"/>
    </g>
    <g transform="matrix(1,0,0,1,0,102)">
        <path d="M233.484,59.821C235.512,62.968 237.081,66.412 238.128,70.005C238.369,70.833 239.234,71.312 240.066,71.071C240.894,70.827 241.369,69.962 241.128,69.133C239.997,65.246 238.303,61.53 236.109,58.127C235.644,57.402 234.675,57.196 233.95,57.662C233.225,58.13 233.016,59.096 233.484,59.821Z" style="fill:rgb(171,122,100);fill-rule:nonzero;"/>
    </g>
    <g transform="matrix(1,0,0,1,0,102)">
        <path d="M208.094,66.843C208.391,71.83 209.791,76.743 212.172,81.137C212.581,81.896 213.531,82.177 214.291,81.765C215.05,81.355 215.331,80.405 214.919,79.649C212.759,75.662 211.481,71.183 211.212,66.658C211.163,65.796 210.422,65.14 209.563,65.19C208.7,65.24 208.044,65.98 208.094,66.843Z" style="fill:rgb(171,122,100);fill-rule:nonzero;"/>
    </g>
    <g transform="matrix(1,0,0,1,0,102)">
        <path d="M185.778,75.243C189.259,79.646 191.812,84.79 193.219,90.224C193.434,91.058 194.288,91.562 195.122,91.346C195.956,91.13 196.459,90.277 196.244,89.44C194.728,83.583 191.984,78.052 188.231,73.305C187.697,72.627 186.713,72.512 186.037,73.049C185.359,73.583 185.244,74.565 185.778,75.243Z" style="fill:rgb(171,122,100);fill-rule:nonzero;"/>
    </g>
    <g transform="matrix(1,0,0,1,0,102)">
        <path d="M183.391,103.727C187.128,106.352 189.919,110.368 191.078,114.787C191.297,115.621 192.15,116.121 192.984,115.899C193.819,115.68 194.319,114.827 194.1,113.993C192.744,108.84 189.544,104.237 185.187,101.171C184.481,100.674 183.509,100.843 183.013,101.549C182.516,102.255 182.684,103.23 183.391,103.727Z" style="fill:rgb(171,122,100);fill-rule:nonzero;"/>
    </g>
    <g transform="matrix(1,0,0,1,0,102)">
        <path d="M331.831,97.796C333.703,94.137 336.3,90.843 339.422,88.171C340.075,87.608 340.153,86.621 339.591,85.968C339.028,85.312 338.041,85.237 337.388,85.799C333.956,88.74 331.109,92.349 329.05,96.371C328.656,97.14 328.959,98.08 329.728,98.474C330.497,98.868 331.438,98.562 331.831,97.796Z" style="fill:rgb(171,122,100);fill-rule:nonzero;"/>
    </g>
    <g transform="matrix(1,0,0,1,0,102)">
        <path d="M187.134,140.274C190.925,143.171 193.841,147.233 195.369,151.752C195.647,152.568 196.531,153.008 197.35,152.73C198.169,152.452 198.606,151.568 198.328,150.749C196.594,145.633 193.322,141.074 189.031,137.793C188.347,137.268 187.366,137.399 186.841,138.087C186.319,138.771 186.447,139.752 187.134,140.274Z" style="fill:rgb(171,122,100);fill-rule:nonzero;"/>
    </g>
    <g transform="matrix(1,0,0,1,0,102)">
        <path d="M158.025,70.712C162.688,73.799 166.528,78.146 169.016,83.152C169.4,83.927 170.338,84.24 171.109,83.855C171.884,83.471 172.197,82.533 171.812,81.762C169.075,76.255 164.875,71.502 159.75,68.105C159.031,67.63 158.059,67.827 157.584,68.546C157.106,69.265 157.303,70.237 158.025,70.712Z" style="fill:rgb(171,122,100);fill-rule:nonzero;"/>
    </g>
    <g transform="matrix(1,0,0,1,0,102)">
        <path d="M334.569,138.437C337.391,134.533 340.734,131.005 344.475,127.974C345.147,127.43 345.25,126.449 344.706,125.777C344.166,125.105 343.181,125.002 342.509,125.546C338.553,128.752 335.022,132.477 332.034,136.605C331.528,137.302 331.687,138.28 332.384,138.787C333.084,139.293 334.063,139.137 334.569,138.437Z" style="fill:rgb(171,122,100);fill-rule:nonzero;"/>
    </g>
    <g transform="matrix(1,0,0,1,0,102)">
        <path d="M283.487,216.693C284.987,211.224 287.413,206.008 290.628,201.34C291.116,200.627 290.937,199.655 290.225,199.165C289.516,198.677 288.544,198.855 288.053,199.568C284.641,204.527 282.069,210.058 280.475,215.865C280.247,216.696 280.734,217.558 281.569,217.787C282.4,218.015 283.259,217.524 283.487,216.693Z" style="fill:rgb(171,122,100);fill-rule:nonzero;"/>
    </g>
    <g transform="matrix(1,0,0,1,0,102)">
        <path d="M314.847,67.577C317.497,64.343 320.422,61.333 323.578,58.59C324.228,58.024 324.297,57.037 323.731,56.387C323.166,55.733 322.178,55.665 321.528,56.23C318.238,59.09 315.194,62.227 312.431,65.596C311.884,66.262 311.981,67.246 312.647,67.793C313.316,68.343 314.3,68.243 314.847,67.577Z" style="fill:rgb(171,122,100);fill-rule:nonzero;"/>
    </g>
    <g transform="matrix(1,0,0,1,0,102)">
        <path d="M203.291,367.074C203.069,368.527 202.959,369.996 202.959,371.462C202.963,375.458 203.769,379.452 205.347,383.133C205.687,383.924 206.606,384.293 207.4,383.952C208.191,383.612 208.559,382.693 208.219,381.899C206.809,378.618 206.084,375.037 206.084,371.462C206.084,370.149 206.184,368.837 206.381,367.543C206.509,366.69 205.922,365.893 205.069,365.765C204.216,365.633 203.419,366.221 203.291,367.074Z" style="fill:rgb(225,146,115);fill-rule:nonzero;"/>
    </g>
    <g transform="matrix(1,0,0,1,0,102)">
        <path d="M215.419,374.065C216.388,379.843 218.341,385.452 221.162,390.59C221.578,391.343 222.528,391.621 223.284,391.205C224.041,390.79 224.316,389.84 223.9,389.083C221.247,384.258 219.412,378.977 218.5,373.546C218.356,372.696 217.55,372.121 216.7,372.265C215.847,372.408 215.275,373.215 215.419,374.065Z" style="fill:rgb(225,146,115);fill-rule:nonzero;"/>
    </g>
    <g transform="matrix(1,0,0,1,0,102)">
        <path d="M232.144,381.552C232.019,382.549 231.956,383.549 231.956,384.552C231.956,388.649 233,392.733 234.997,396.321C235.416,397.074 236.369,397.343 237.122,396.924C237.875,396.505 238.147,395.552 237.728,394.799C235.994,391.693 235.078,388.115 235.081,384.552C235.081,383.68 235.134,382.812 235.244,381.949C235.353,381.093 234.75,380.308 233.894,380.199C233.038,380.093 232.253,380.696 232.144,381.552Z" style="fill:rgb(225,146,115);fill-rule:nonzero;"/>
    </g>
    <g transform="matrix(1,0,0,1,0,102)">
        <path d="M224.881,361.349C224.791,362.199 224.744,363.052 224.744,363.905C224.744,366.165 225.059,368.424 225.684,370.596C225.922,371.427 226.788,371.908 227.619,371.668C228.447,371.43 228.925,370.565 228.688,369.737C228.147,367.846 227.869,365.874 227.869,363.905C227.869,363.162 227.909,362.418 227.988,361.68C228.078,360.824 227.459,360.052 226.6,359.962C225.741,359.871 224.972,360.493 224.881,361.349Z" style="fill:rgb(225,146,115);fill-rule:nonzero;"/>
    </g>
    <g transform="matrix(1,0,0,1,0,102)">
        <path d="M244.15,374.121C245.112,379.321 246.497,384.44 248.288,389.415C248.578,390.227 249.475,390.646 250.287,390.355C251.1,390.062 251.519,389.168 251.228,388.355C249.494,383.543 248.153,378.587 247.225,373.552C247.066,372.705 246.253,372.143 245.403,372.302C244.556,372.458 243.994,373.274 244.15,374.121Z" style="fill:rgb(225,146,115);fill-rule:nonzero;"/>
    </g>
    <g transform="matrix(1,0,0,1,0,102)">
        <path d="M225.309,408.918C226.681,414.515 230.216,419.499 235.041,422.646C235.763,423.118 236.731,422.912 237.203,422.19C237.675,421.465 237.469,420.499 236.747,420.027C232.603,417.334 229.516,412.977 228.347,408.177C228.141,407.34 227.297,406.824 226.456,407.03C225.619,407.237 225.106,408.08 225.309,408.918Z" style="fill:rgb(225,146,115);fill-rule:nonzero;"/>
    </g>
    <g transform="matrix(1,0,0,1,0,102)">
        <path d="M245.053,410.865C247.597,415.121 250.137,419.377 252.678,423.63C253.119,424.371 254.078,424.615 254.822,424.171C255.563,423.73 255.803,422.771 255.362,422.03C252.819,417.774 250.278,413.518 247.738,409.262C247.297,408.521 246.337,408.28 245.594,408.721C244.853,409.165 244.613,410.124 245.056,410.865L245.053,410.865Z" style="fill:rgb(225,146,115);fill-rule:nonzero;"/>
    </g>
    <g transform="matrix(1,0,0,1,0,102)">
        <path d="M265.247,412.046C266.328,414.605 266.884,417.393 266.884,420.177C266.884,421.027 266.831,421.88 266.728,422.727C266.622,423.584 267.228,424.365 268.084,424.471C268.941,424.577 269.722,423.968 269.828,423.112C269.95,422.137 270.009,421.155 270.009,420.177C270.009,416.977 269.372,413.783 268.128,410.833C267.791,410.037 266.875,409.665 266.081,409.999C265.284,410.337 264.912,411.252 265.247,412.046Z" style="fill:rgb(225,146,115);fill-rule:nonzero;"/>
    </g>
    <g transform="matrix(1,0,0,1,0,102)">
        <path d="M260.116,433.699C261.747,437.874 263.584,441.965 265.622,445.958C266.013,446.724 266.953,447.03 267.722,446.64C268.491,446.246 268.797,445.305 268.403,444.537C266.416,440.637 264.619,436.64 263.028,432.562C262.716,431.758 261.809,431.362 261.003,431.677C260.2,431.99 259.803,432.896 260.116,433.699Z" style="fill:rgb(225,146,115);fill-rule:nonzero;"/>
    </g>
    <g transform="matrix(1,0,0,1,0,102)">
        <path d="M277.428,439.799C277.712,441.693 277.853,443.608 277.853,445.524C277.853,448.543 277.503,451.565 276.806,454.499C276.606,455.34 277.125,456.183 277.966,456.38C278.806,456.58 279.647,456.062 279.847,455.221C280.6,452.046 280.978,448.787 280.978,445.524C280.978,443.455 280.825,441.383 280.519,439.337C280.391,438.483 279.597,437.893 278.744,438.021C277.891,438.149 277.3,438.943 277.428,439.799Z" style="fill:rgb(225,146,115);fill-rule:nonzero;"/>
    </g>
    <g transform="matrix(1,0,0,1,0,102)">
        <path d="M294.219,436.724C294.234,437.03 294.241,437.337 294.241,437.646C294.241,441.071 293.322,444.512 291.606,447.474C291.172,448.221 291.428,449.177 292.175,449.612C292.922,450.043 293.878,449.787 294.309,449.04C296.306,445.59 297.366,441.627 297.366,437.646C297.366,437.29 297.356,436.933 297.341,436.574C297.3,435.715 296.566,435.049 295.703,435.09C294.841,435.13 294.178,435.862 294.219,436.724Z" style="fill:rgb(225,146,115);fill-rule:nonzero;"/>
    </g>
    <g transform="matrix(1,0,0,1,0,102)">
        <path d="M287.722,417.29C287.766,417.727 287.784,418.165 287.784,418.605C287.787,421.599 286.819,424.615 285.066,427.03C284.559,427.73 284.713,428.705 285.413,429.215C286.109,429.721 287.087,429.565 287.594,428.865C289.747,425.893 290.906,422.262 290.909,418.605C290.909,418.068 290.884,417.53 290.834,416.996C290.753,416.137 289.991,415.505 289.131,415.587C288.272,415.668 287.641,416.43 287.722,417.29Z" style="fill:rgb(225,146,115);fill-rule:nonzero;"/>
    </g>
    <g transform="matrix(1,0,0,1,0,102)">
        <path d="M309.975,407.499C310.225,408.396 310.347,409.33 310.347,410.274C310.35,412.755 309.481,415.268 307.909,417.152C307.359,417.815 307.45,418.802 308.116,419.352C308.778,419.902 309.763,419.812 310.316,419.149C312.378,416.655 313.469,413.471 313.472,410.274C313.472,409.058 313.316,407.843 312.984,406.662C312.753,405.83 311.891,405.343 311.059,405.574C310.228,405.805 309.744,406.668 309.975,407.499Z" style="fill:rgb(225,146,115);fill-rule:nonzero;"/>
    </g>
    <g transform="matrix(1,0,0,1,0,102)">
        <path d="M282.816,378.799C282.628,383.618 282.441,388.437 282.25,393.252C282.216,394.118 282.891,394.843 283.75,394.877C284.613,394.912 285.341,394.24 285.375,393.377C285.562,388.558 285.75,383.74 285.938,378.921C285.972,378.058 285.3,377.33 284.438,377.299C283.575,377.265 282.85,377.937 282.816,378.799Z" style="fill:rgb(225,146,115);fill-rule:nonzero;"/>
    </g>
    <g transform="matrix(1,0,0,1,0,102)">
        <path d="M302.141,378.221C302.178,378.877 302.197,379.53 302.197,380.187C302.197,384.218 301.475,388.252 300.069,392.03C299.766,392.837 300.178,393.737 300.987,394.04C301.797,394.34 302.697,393.927 302.997,393.121C304.534,388.99 305.322,384.59 305.322,380.187C305.322,379.471 305.3,378.755 305.259,378.04C305.209,377.177 304.469,376.521 303.609,376.571C302.747,376.621 302.091,377.362 302.141,378.221Z" style="fill:rgb(225,146,115);fill-rule:nonzero;"/>
    </g>
    <g transform="matrix(1,0,0,1,0,102)">
        <path d="M320.966,362.337C321.247,366.668 321.531,370.999 321.812,375.333C321.869,376.193 322.613,376.846 323.475,376.79C324.334,376.733 324.988,375.99 324.931,375.127C324.65,370.796 324.366,366.465 324.084,362.133C324.028,361.271 323.284,360.618 322.422,360.674C321.563,360.73 320.909,361.474 320.966,362.337Z" style="fill:rgb(225,146,115);fill-rule:nonzero;"/>
    </g>
    <g transform="matrix(1,0,0,1,0,102)">
        <path d="M335.119,374.23C334.478,378.34 333.834,382.446 333.194,386.552C333.059,387.405 333.644,388.202 334.497,388.337C335.347,388.471 336.147,387.887 336.281,387.033C336.922,382.927 337.566,378.821 338.206,374.715C338.341,373.862 337.756,373.062 336.903,372.93C336.053,372.796 335.253,373.38 335.119,374.233L335.119,374.23Z" style="fill:rgb(225,146,115);fill-rule:nonzero;"/>
    </g>
    <g transform="matrix(1,0,0,1,0,102)">
        <path d="M342.559,392.049C342.65,392.812 342.694,393.58 342.694,394.352C342.694,397.277 342.047,400.208 340.803,402.849C340.434,403.63 340.769,404.562 341.55,404.93C342.331,405.296 343.263,404.962 343.628,404.18C345.072,401.115 345.819,397.737 345.819,394.352C345.819,393.458 345.769,392.568 345.663,391.68C345.563,390.824 344.784,390.212 343.928,390.312C343.072,390.415 342.459,391.19 342.559,392.049Z" style="fill:rgb(225,146,115);fill-rule:nonzero;"/>
    </g>
    <g transform="matrix(1,0,0,1,0,102)">
        <path d="M347.403,359.852C348.159,362.593 348.541,365.443 348.541,368.293C348.541,371.033 348.187,373.771 347.487,376.415C347.266,377.249 347.763,378.105 348.597,378.327C349.431,378.546 350.287,378.049 350.509,377.215C351.281,374.305 351.666,371.299 351.666,368.293C351.666,365.165 351.247,362.037 350.413,359.018C350.184,358.187 349.325,357.699 348.491,357.927C347.659,358.158 347.172,359.018 347.403,359.852Z" style="fill:rgb(225,146,115);fill-rule:nonzero;"/>
    </g>
    <g transform="matrix(1,0,0,1,0,102)">
        <path d="M253.528,469.702C255.025,474.624 258.203,478.98 262.437,481.909C263.147,482.396 264.119,482.221 264.609,481.508C265.1,480.799 264.922,479.827 264.212,479.337C260.575,476.827 257.8,473.027 256.519,468.796C256.269,467.968 255.397,467.502 254.572,467.752C253.744,468.005 253.278,468.877 253.528,469.702Z" style="fill:rgb(225,146,115);fill-rule:nonzero;"/>
    </g>
    <g transform="matrix(1,0,0,1,0,102)">
        <path d="M269.453,471.308L269.45,471.499C269.463,477.574 272.725,483.44 277.891,486.646C278.625,487.099 279.591,486.871 280.044,486.137C280.497,485.402 280.269,484.44 279.534,483.987C275.328,481.405 272.563,476.437 272.575,471.499L272.575,471.346C272.588,470.483 271.894,469.774 271.031,469.765C270.169,469.755 269.463,470.446 269.453,471.308Z" style="fill:rgb(225,146,115);fill-rule:nonzero;"/>
    </g>
    <g transform="matrix(1,0,0,1,0,102)">
        <path d="M287.681,465.015C287.775,465.805 287.822,466.602 287.822,467.399C287.822,470.521 287.112,473.652 285.75,476.455C285.372,477.233 285.697,478.168 286.475,478.543C287.25,478.921 288.184,478.596 288.563,477.821C290.134,474.58 290.947,470.993 290.947,467.399C290.947,466.48 290.894,465.562 290.784,464.649C290.684,463.793 289.909,463.177 289.05,463.28C288.194,463.38 287.581,464.158 287.681,465.015Z" style="fill:rgb(225,146,115);fill-rule:nonzero;"/>
    </g>
    <g transform="matrix(1,0,0,1,0,102)">
        <path d="M293.706,490.458C292.672,494.112 290.547,497.474 287.688,499.974C287.038,500.543 286.972,501.53 287.541,502.18C288.109,502.83 289.097,502.896 289.747,502.327C293.066,499.418 295.509,495.555 296.713,491.312C296.95,490.48 296.469,489.618 295.637,489.38C294.806,489.146 293.944,489.627 293.709,490.458L293.706,490.458Z" style="fill:rgb(225,146,115);fill-rule:nonzero;"/>
    </g>
    <g transform="matrix(1,0,0,1,0,102)">
        <path d="M306.206,455.599C304.85,460.083 303.259,464.496 301.447,468.818C301.113,469.615 301.487,470.53 302.284,470.862C303.078,471.196 303.994,470.821 304.328,470.027C306.181,465.608 307.809,461.093 309.197,456.505C309.447,455.68 308.981,454.808 308.156,454.558C307.331,454.309 306.459,454.774 306.206,455.599Z" style="fill:rgb(225,146,115);fill-rule:nonzero;"/>
    </g>
    <g transform="matrix(1,0,0,1,0,102)">
        <path d="M155.016,496.53C154.994,497.002 154.984,497.474 154.984,497.949C154.984,502.883 156.059,507.808 158.122,512.293C158.481,513.077 159.409,513.421 160.194,513.062C160.978,512.699 161.319,511.771 160.959,510.987C159.088,506.918 158.109,502.43 158.109,497.949C158.109,497.518 158.119,497.09 158.137,496.662C158.172,495.799 157.503,495.071 156.641,495.037C155.778,494.999 155.05,495.671 155.016,496.53Z" style="fill:rgb(171,122,100);fill-rule:nonzero;"/>
    </g>
    <g transform="matrix(1,0,0,1,0,102)">
        <path d="M165.619,502.277C165.569,502.921 165.544,503.568 165.544,504.215C165.547,508.955 166.872,513.677 169.372,517.718C169.825,518.449 170.787,518.677 171.522,518.224C172.256,517.768 172.484,516.805 172.028,516.071C169.844,512.543 168.669,508.371 168.669,504.215C168.669,503.649 168.691,503.083 168.734,502.518C168.803,501.658 168.159,500.905 167.297,500.84C166.437,500.774 165.688,501.418 165.619,502.277Z" style="fill:rgb(171,122,100);fill-rule:nonzero;"/>
    </g>
    <g transform="matrix(1,0,0,1,0,102)">
        <path d="M163.069,530.137C162.878,530.974 162.787,531.827 162.787,532.674C162.8,536.89 164.988,541.024 168.656,543.255C169.394,543.702 170.353,543.465 170.8,542.724C171.247,541.987 171.009,541.027 170.269,540.58C167.625,539.002 165.9,535.796 165.912,532.674C165.912,532.052 165.981,531.43 166.116,530.827C166.309,529.987 165.781,529.149 164.941,528.959C164.097,528.768 163.263,529.296 163.069,530.137Z" style="fill:rgb(171,122,100);fill-rule:nonzero;"/>
    </g>
    <g transform="matrix(1,0,0,1,0,102)">
        <path d="M174.194,528.69C175.406,535.646 178.956,542.14 184.153,546.915C184.791,547.499 185.778,547.455 186.363,546.821C186.947,546.183 186.903,545.196 186.269,544.612C181.584,540.318 178.359,534.415 177.272,528.155C177.125,527.305 176.316,526.737 175.466,526.883C174.616,527.033 174.047,527.84 174.194,528.693L174.194,528.69Z" style="fill:rgb(171,122,100);fill-rule:nonzero;"/>
    </g>
    <g transform="matrix(1,0,0,1,0,102)">
        <path d="M182.822,567.512C184.775,571.537 187.85,574.99 191.622,577.393C192.347,577.858 193.313,577.643 193.778,576.918C194.241,576.19 194.028,575.224 193.3,574.758C190.025,572.671 187.328,569.646 185.634,566.149C185.256,565.374 184.322,565.049 183.547,565.424C182.769,565.802 182.447,566.737 182.822,567.515L182.822,567.512Z" style="fill:rgb(171,122,100);fill-rule:nonzero;"/>
    </g>
    <g transform="matrix(1,0,0,1,0,102)">
        <path d="M192.244,534.774C192.219,535.099 192.206,535.427 192.206,535.752C192.225,540.777 195.241,545.577 199.844,547.69C200.631,548.046 201.556,547.699 201.913,546.912C202.269,546.127 201.922,545.199 201.137,544.843C197.725,543.321 195.309,539.496 195.331,535.752L195.359,535.027C195.428,534.168 194.791,533.415 193.928,533.343C193.069,533.274 192.316,533.912 192.244,534.774Z" style="fill:rgb(171,122,100);fill-rule:nonzero;"/>
    </g>
    <g transform="matrix(1,0,0,1,0,102)">
        <path d="M389.591,486.84C388.444,491.427 387.297,496.018 386.147,500.608C385.938,501.446 386.447,502.293 387.284,502.502C388.122,502.712 388.969,502.202 389.178,501.368C390.328,496.777 391.475,492.187 392.625,487.596C392.834,486.758 392.325,485.912 391.488,485.702C390.65,485.493 389.8,486.002 389.594,486.84L389.591,486.84Z" style="fill:rgb(171,122,100);fill-rule:nonzero;"/>
    </g>
    <g transform="matrix(1,0,0,1,0,102)">
        <path d="M396.884,505.118C396.356,509.787 394.728,514.34 392.175,518.287C391.706,519.012 391.916,519.977 392.641,520.446C393.366,520.915 394.331,520.708 394.8,519.983C397.616,515.627 399.403,510.624 399.991,505.471C400.087,504.615 399.469,503.84 398.613,503.743C397.756,503.646 396.981,504.262 396.884,505.118Z" style="fill:rgb(171,122,100);fill-rule:nonzero;"/>
    </g>
    <g transform="matrix(1,0,0,1,0,102)">
        <path d="M400.397,473.587C400.447,474.471 400.472,475.355 400.472,476.24C400.472,480.799 399.806,485.358 398.5,489.724C398.253,490.552 398.725,491.424 399.55,491.671C400.378,491.918 401.247,491.446 401.497,490.621C402.887,485.962 403.597,481.102 403.597,476.24C403.597,475.296 403.569,474.352 403.516,473.409C403.466,472.549 402.728,471.89 401.869,471.94C401.006,471.987 400.347,472.724 400.397,473.587Z" style="fill:rgb(171,122,100);fill-rule:nonzero;"/>
    </g>
    <g transform="matrix(1,0,0,1,0,102)">
        <path d="M370.734,548.155C369.278,553.04 366.731,557.612 363.341,561.418C362.769,562.065 362.825,563.052 363.469,563.624C364.116,564.199 365.103,564.14 365.675,563.496C369.375,559.34 372.141,554.377 373.728,549.046C373.975,548.221 373.503,547.349 372.678,547.102C371.85,546.855 370.981,547.327 370.734,548.155Z" style="fill:rgb(171,122,100);fill-rule:nonzero;"/>
    </g>
    <g transform="matrix(1,0,0,1,0,102)">
        <path d="M378.659,556.055C377.422,559.908 374.928,563.377 371.672,565.777C370.975,566.29 370.828,567.268 371.341,567.962C371.853,568.655 372.831,568.805 373.525,568.293C377.319,565.49 380.187,561.502 381.634,557.015C381.9,556.193 381.447,555.312 380.625,555.046C379.803,554.783 378.925,555.233 378.659,556.055Z" style="fill:rgb(171,122,100);fill-rule:nonzero;"/>
    </g>
    <g transform="matrix(1,0,0,1,0,102)">
        <path d="M398.728,543.312C398.153,547.202 396.85,550.99 394.909,554.412C394.484,555.162 394.75,556.118 395.5,556.543C396.25,556.968 397.203,556.705 397.631,555.952C399.759,552.193 401.187,548.043 401.819,543.771C401.947,542.915 401.356,542.121 400.503,541.996C399.65,541.868 398.856,542.458 398.728,543.312Z" style="fill:rgb(171,122,100);fill-rule:nonzero;"/>
    </g>
    <g transform="matrix(1,0,0,1,0,102)">
        <path d="M170.022,589.608C169.884,590.58 169.819,591.562 169.819,592.54C169.819,597.399 171.469,602.23 174.509,606.046C175.047,606.721 176.031,606.83 176.706,606.293C177.381,605.755 177.491,604.771 176.953,604.096C174.372,600.865 172.941,596.69 172.944,592.54C172.944,591.705 173,590.871 173.116,590.046C173.237,589.19 172.644,588.399 171.788,588.28C170.934,588.159 170.144,588.752 170.022,589.608Z" style="fill:rgb(171,122,100);fill-rule:nonzero;"/>
    </g>
    <g transform="matrix(1,0,0,1,0,102)">
        <path d="M817.337,356.48C818.253,360.537 818.712,364.702 818.712,368.865C818.712,372.255 818.409,375.646 817.797,378.98C817.644,379.83 818.203,380.643 819.053,380.799C819.903,380.955 820.716,380.393 820.872,379.543C821.516,376.021 821.837,372.443 821.837,368.865C821.837,364.471 821.353,360.077 820.384,355.793C820.197,354.949 819.359,354.421 818.519,354.612C817.675,354.802 817.147,355.637 817.337,356.48Z" style="fill:rgb(225,146,115);fill-rule:nonzero;"/>
    </g>
    <g transform="matrix(1,0,0,1,0,102)">
        <path d="M807.272,369.002C806.734,375.258 806.194,381.518 805.653,387.774C805.578,388.633 806.216,389.39 807.075,389.465C807.934,389.54 808.694,388.902 808.766,388.043C809.306,381.787 809.847,375.527 810.387,369.271C810.459,368.412 809.825,367.655 808.962,367.58C808.103,367.505 807.347,368.143 807.272,369.002Z" style="fill:rgb(225,146,115);fill-rule:nonzero;"/>
    </g>
    <g transform="matrix(1,0,0,1,0,102)">
        <path d="M814.447,402.999C814.406,408.037 812.85,413.08 810.044,417.262C809.563,417.977 809.753,418.949 810.469,419.43C811.188,419.912 812.156,419.718 812.637,419.002C815.791,414.299 817.525,408.687 817.572,403.024C817.578,402.162 816.884,401.458 816.019,401.449C815.156,401.443 814.453,402.137 814.447,402.999Z" style="fill:rgb(225,146,115);fill-rule:nonzero;"/>
    </g>
    <g transform="matrix(1,0,0,1,0,102)">
        <path d="M796.884,399.246C796.306,404.402 794.794,409.455 792.441,414.077C792.05,414.846 792.356,415.787 793.125,416.177C793.894,416.571 794.834,416.265 795.225,415.496C797.75,410.533 799.372,405.124 799.991,399.596C800.087,398.737 799.469,397.965 798.613,397.868C797.753,397.771 796.981,398.39 796.884,399.246Z" style="fill:rgb(225,146,115);fill-rule:nonzero;"/>
    </g>
    <g transform="matrix(1,0,0,1,0,102)">
        <path d="M796.222,430.074C795.075,435.471 792.506,440.58 788.853,444.718C788.284,445.365 788.344,446.352 788.994,446.924C789.641,447.493 790.628,447.433 791.197,446.787C795.209,442.237 798.016,436.655 799.278,430.724C799.456,429.88 798.919,429.049 798.075,428.871C797.231,428.69 796.4,429.23 796.222,430.074Z" style="fill:rgb(225,146,115);fill-rule:nonzero;"/>
    </g>
    <g transform="matrix(1,0,0,1,0,102)">
        <path d="M809.916,437.233C808.519,442.946 805.278,448.227 800.812,452.055C800.159,452.618 800.084,453.605 800.644,454.262C801.206,454.915 802.194,454.99 802.847,454.427C807.819,450.158 811.394,444.337 812.95,437.974C813.156,437.137 812.641,436.29 811.803,436.087C810.966,435.88 810.119,436.393 809.916,437.233Z" style="fill:rgb(225,146,115);fill-rule:nonzero;"/>
    </g>
    <g transform="matrix(1,0,0,1,0,102)">
        <path d="M772.303,433.968C769.781,439.446 766.284,444.483 762.028,448.758C761.419,449.368 761.419,450.358 762.031,450.968C762.644,451.577 763.631,451.574 764.241,450.962C768.759,446.424 772.466,441.09 775.144,435.274C775.503,434.49 775.163,433.562 774.378,433.202C773.594,432.84 772.666,433.183 772.303,433.968Z" style="fill:rgb(225,146,115);fill-rule:nonzero;"/>
    </g>
    <g transform="matrix(1,0,0,1,0,102)">
        <path d="M777.553,404.327C777.019,410.024 775.597,415.64 773.359,420.905L772.903,421.624L772.756,421.749L772.956,422.105L772.956,421.712L772.756,421.749L772.956,422.105L772.956,421.712L772.956,422.302L773.263,421.793L772.956,421.712L772.956,422.302L773.263,421.793C772.522,421.346 771.563,421.587 771.119,422.324C770.672,423.065 770.909,424.024 771.65,424.471C772.038,424.705 772.509,424.84 772.956,424.837C774.009,424.815 774.684,424.271 775.163,423.78C775.65,423.265 775.991,422.699 776.238,422.127C778.6,416.565 780.1,410.637 780.666,404.621C780.744,403.762 780.113,402.999 779.253,402.918C778.394,402.837 777.634,403.468 777.553,404.327Z" style="fill:rgb(225,146,115);fill-rule:nonzero;"/>
    </g>
    <g transform="matrix(1,0,0,1,0,102)">
        <path d="M787.466,369.055C787.041,374.837 785.991,380.571 784.341,386.13C784.094,386.955 784.563,387.827 785.391,388.071C786.219,388.318 787.087,387.846 787.334,387.021C789.05,381.246 790.141,375.29 790.581,369.28C790.644,368.421 789.997,367.674 789.138,367.608C788.275,367.546 787.528,368.193 787.466,369.055Z" style="fill:rgb(225,146,115);fill-rule:nonzero;"/>
    </g>
    <g transform="matrix(1,0,0,1,0,102)">
        <path d="M768.006,382.946C768.072,384.018 768.103,385.09 768.103,386.165C768.103,390.543 767.569,394.921 766.509,399.168C766.259,400.19 765.831,401.287 765.319,402.008C764.775,402.746 764.328,403.015 763.784,403.033C762.922,403.052 762.238,403.768 762.259,404.633C762.278,405.496 762.997,406.177 763.859,406.155C765.675,406.118 767.044,405.008 767.869,403.808C768.722,402.593 769.219,401.193 769.541,399.924C770.663,395.427 771.228,390.796 771.228,386.165C771.228,385.027 771.194,383.893 771.125,382.758C771.075,381.896 770.334,381.24 769.472,381.293C768.613,381.343 767.956,382.084 768.006,382.946Z" style="fill:rgb(225,146,115);fill-rule:nonzero;"/>
    </g>
    <g transform="matrix(1,0,0,1,0,102)">
        <path d="M752.547,431.08C752.509,435.49 750.216,439.912 746.634,442.48C745.934,442.983 745.775,443.962 746.281,444.662C746.784,445.362 747.759,445.521 748.463,445.015C752.875,441.824 755.603,436.562 755.672,431.115C755.681,430.252 754.991,429.546 754.128,429.537C753.266,429.527 752.556,430.218 752.55,431.08L752.547,431.08Z" style="fill:rgb(225,146,115);fill-rule:nonzero;"/>
    </g>
    <g transform="matrix(1,0,0,1,0,102)">
        <path d="M777.8,465.418C775.278,470.268 771.972,474.715 768.059,478.53C767.441,479.13 767.428,480.121 768.031,480.74C768.634,481.355 769.622,481.368 770.241,480.768C774.394,476.718 777.894,472.008 780.572,466.862C780.972,466.096 780.675,465.155 779.909,464.755C779.144,464.355 778.2,464.655 777.8,465.421L777.8,465.418Z" style="fill:rgb(225,146,115);fill-rule:nonzero;"/>
    </g>
    <g transform="matrix(1,0,0,1,0,102)">
        <path d="M791.878,471.305C791.425,476.652 789.025,481.855 785.253,485.671C784.647,486.287 784.653,487.274 785.266,487.88C785.881,488.487 786.869,488.48 787.475,487.868C791.772,483.512 794.469,477.665 794.991,471.571C795.066,470.712 794.428,469.955 793.569,469.88C792.709,469.808 791.95,470.446 791.878,471.305Z" style="fill:rgb(225,146,115);fill-rule:nonzero;"/>
    </g>
    <g transform="matrix(1,0,0,1,0,102)">
        <path d="M804.897,468.327C804.291,472.205 802.859,475.965 800.731,479.262C800.266,479.99 800.475,480.955 801.2,481.421C801.925,481.89 802.891,481.68 803.359,480.955C805.725,477.287 807.309,473.124 807.984,468.812C808.119,467.958 807.534,467.159 806.681,467.027C805.828,466.893 805.031,467.477 804.897,468.327Z" style="fill:rgb(225,146,115);fill-rule:nonzero;"/>
    </g>
    <g transform="matrix(1,0,0,1,0,102)">
        <path d="M813.475,488.774C810.834,494.671 807.303,500.168 803.038,505.024C802.469,505.671 802.534,506.658 803.181,507.227C803.831,507.796 804.816,507.733 805.388,507.087C809.859,501.996 813.559,496.233 816.328,490.052C816.681,489.265 816.328,488.34 815.541,487.987C814.753,487.633 813.828,487.987 813.475,488.774Z" style="fill:rgb(225,146,115);fill-rule:nonzero;"/>
    </g>
    <g transform="matrix(1,0,0,1,0,102)">
        <path d="M748.516,468.608C746.781,472.855 744.022,476.699 740.55,479.699C739.897,480.265 739.825,481.252 740.391,481.902C740.956,482.555 741.941,482.627 742.594,482.065C746.444,478.733 749.484,474.499 751.409,469.79C751.734,468.99 751.353,468.08 750.553,467.752C749.756,467.427 748.844,467.808 748.516,468.608Z" style="fill:rgb(225,146,115);fill-rule:nonzero;"/>
    </g>
    <g transform="matrix(1,0,0,1,0,102)">
        <path d="M755.641,473.458C753.497,477.737 750.597,481.64 747.119,484.924C746.491,485.518 746.462,486.505 747.056,487.133C747.647,487.762 748.638,487.79 749.262,487.196C753.009,483.658 756.125,479.465 758.434,474.862C758.822,474.09 758.509,473.149 757.737,472.765C756.966,472.377 756.028,472.69 755.641,473.462L755.641,473.458Z" style="fill:rgb(225,146,115);fill-rule:nonzero;"/>
    </g>
    <g transform="matrix(1,0,0,1,0,102)">
        <path d="M763.734,497.515C762.009,502.218 758.388,506.246 753.894,508.458C753.122,508.84 752.803,509.777 753.184,510.549C753.566,511.324 754.503,511.643 755.278,511.258C760.509,508.674 764.65,504.068 766.666,498.593C766.962,497.783 766.55,496.883 765.737,496.587C764.928,496.29 764.031,496.705 763.734,497.515Z" style="fill:rgb(225,146,115);fill-rule:nonzero;"/>
    </g>
    <g transform="matrix(1,0,0,1,0,102)">
        <path d="M764.056,525.843C759.909,530.649 754.65,534.502 748.816,537.005C748.025,537.346 747.656,538.265 747.997,539.058C748.338,539.852 749.256,540.218 750.05,539.877C756.322,537.183 761.962,533.052 766.422,527.883C766.984,527.23 766.913,526.243 766.259,525.68C765.606,525.115 764.619,525.19 764.056,525.843Z" style="fill:rgb(225,146,115);fill-rule:nonzero;"/>
    </g>
    <g transform="matrix(1,0,0,1,0,102)">
        <path d="M745.416,522.415C743.131,525.377 740.281,527.908 737.072,529.827C736.331,530.271 736.091,531.23 736.534,531.971C736.978,532.712 737.937,532.952 738.678,532.512C742.225,530.387 745.363,527.596 747.887,524.324C748.416,523.643 748.288,522.662 747.606,522.133C746.922,521.605 745.941,521.733 745.416,522.415Z" style="fill:rgb(225,146,115);fill-rule:nonzero;"/>
    </g>
    <g transform="matrix(1,0,0,1,0,102)">
        <path d="M776.638,523.821C776.137,528.321 773.169,532.577 769.116,534.599C768.347,534.987 768.034,535.924 768.422,536.696C768.809,537.468 769.747,537.78 770.519,537.393C775.55,534.852 779.094,529.774 779.744,524.174C779.841,523.318 779.225,522.543 778.366,522.446C777.509,522.349 776.734,522.965 776.638,523.821Z" style="fill:rgb(225,146,115);fill-rule:nonzero;"/>
    </g>
    <g transform="matrix(1,0,0,1,0,102)">
        <path d="M737.047,415.471C734.984,421.865 731.144,427.693 726.084,432.105C725.434,432.674 725.366,433.662 725.934,434.312C726.5,434.962 727.488,435.027 728.138,434.462C733.631,429.665 737.781,423.371 740.019,416.43C740.284,415.612 739.834,414.73 739.012,414.465C738.191,414.199 737.312,414.652 737.047,415.474L737.047,415.471Z" style="fill:rgb(225,146,115);fill-rule:nonzero;"/>
    </g>
    <g transform="matrix(1,0,0,1,0,102)">
        <path d="M759.331,341.258C759.459,342.393 759.519,343.533 759.519,344.674C759.519,349.165 758.556,353.665 756.697,357.746C756.341,358.533 756.687,359.458 757.475,359.818C758.259,360.174 759.184,359.827 759.544,359.04C761.587,354.54 762.644,349.612 762.644,344.674C762.644,343.418 762.578,342.165 762.437,340.918C762.344,340.058 761.572,339.44 760.716,339.537C759.856,339.63 759.238,340.402 759.331,341.258Z" style="fill:rgb(225,146,115);fill-rule:nonzero;"/>
    </g>
    <g transform="matrix(1,0,0,1,0,102)">
        <path d="M799.706,333.88C799.706,338.443 799.706,343.002 799.706,347.565C799.706,348.427 800.406,349.127 801.269,349.127C802.131,349.127 802.831,348.427 802.831,347.565C802.831,343.002 802.831,338.443 802.831,333.88C802.831,333.018 802.131,332.318 801.269,332.318C800.406,332.318 799.706,333.018 799.706,333.88Z" style="fill:rgb(225,146,115);fill-rule:nonzero;"/>
    </g>
    <g transform="matrix(1,0,0,1,0,102)">
        <path d="M692.234,576.124C698.253,574.602 703.809,571.383 708.119,566.921C708.719,566.299 708.7,565.308 708.078,564.712C707.459,564.112 706.469,564.127 705.869,564.749C701.972,568.79 696.913,571.721 691.472,573.093C690.634,573.305 690.128,574.152 690.338,574.99C690.55,575.827 691.4,576.333 692.238,576.124L692.234,576.124Z" style="fill:rgb(225,146,115);fill-rule:nonzero;"/>
    </g>
    <g transform="matrix(1,0,0,1,0,102)">
        <path d="M699.9,582.53C705.244,581.958 710.25,579.137 713.506,574.862C714.028,574.174 713.897,573.196 713.209,572.671C712.522,572.149 711.541,572.283 711.019,572.971C708.309,576.543 704.028,578.955 699.572,579.421C698.712,579.512 698.091,580.28 698.181,581.14C698.272,581.999 699.041,582.621 699.9,582.53Z" style="fill:rgb(225,146,115);fill-rule:nonzero;"/>
    </g>
    <g transform="matrix(1,0,0,1,0,102)">
        <path d="M723.725,583.24C728.178,580.627 732.219,577.321 735.656,573.468C736.231,572.824 736.175,571.837 735.531,571.262C734.888,570.687 733.9,570.743 733.325,571.387C730.103,574.996 726.316,578.099 722.144,580.543C721.4,580.98 721.15,581.937 721.584,582.68C722.022,583.427 722.978,583.677 723.725,583.24Z" style="fill:rgb(225,146,115);fill-rule:nonzero;"/>
    </g>
    <g transform="matrix(1,0,0,1,0,102)">
        <path d="M724.112,562.887C729.825,560.418 734.703,556.124 737.878,550.774C738.319,550.03 738.075,549.071 737.331,548.63C736.591,548.193 735.631,548.437 735.191,549.177C732.363,553.952 727.969,557.818 722.872,560.018C722.081,560.362 721.716,561.28 722.059,562.074C722.4,562.865 723.322,563.23 724.112,562.887Z" style="fill:rgb(225,146,115);fill-rule:nonzero;"/>
    </g>
    <g transform="matrix(1,0,0,1,0,102)">
        <path d="M600.106,598.584C601.734,598.793 603.372,598.896 605.009,598.896C610.475,598.896 615.934,597.746 620.928,595.512C621.716,595.162 622.069,594.237 621.716,593.449C621.363,592.662 620.441,592.308 619.653,592.662C615.069,594.712 610.034,595.771 605.009,595.771C603.503,595.771 601.997,595.677 600.506,595.483C599.65,595.374 598.866,595.98 598.756,596.837C598.647,597.693 599.253,598.474 600.109,598.584L600.106,598.584Z" style="fill:rgb(225,146,115);fill-rule:nonzero;"/>
    </g>
    <g transform="matrix(1,0,0,1,0,102)">
        <path d="M617.072,607.018C622.097,606.512 626.997,604.924 631.362,602.387C632.109,601.952 632.363,600.996 631.928,600.252C631.497,599.505 630.541,599.252 629.794,599.687C625.819,601.996 621.334,603.449 616.759,603.908C615.903,603.993 615.275,604.758 615.363,605.618C615.447,606.477 616.216,607.102 617.072,607.018Z" style="fill:rgb(225,146,115);fill-rule:nonzero;"/>
    </g>
    <g transform="matrix(1,0,0,1,0,102)">
        <path d="M635.766,587.696C641.412,587.265 646.9,585.183 651.413,581.762C652.1,581.24 652.234,580.258 651.712,579.571C651.194,578.883 650.213,578.749 649.525,579.271C645.503,582.324 640.566,584.196 635.528,584.58C634.669,584.646 634.025,585.396 634.091,586.255C634.156,587.118 634.906,587.762 635.766,587.696Z" style="fill:rgb(225,146,115);fill-rule:nonzero;"/>
    </g>
    <g transform="matrix(1,0,0,1,0,102)">
        <path d="M636.191,569.155C636.584,569.187 636.978,569.202 637.372,569.202C642.625,569.19 647.725,566.39 650.484,561.88C650.934,561.143 650.7,560.183 649.962,559.733C649.228,559.283 648.266,559.518 647.816,560.255C645.688,563.78 641.497,566.09 637.372,566.077C637.063,566.077 636.756,566.065 636.45,566.04C635.591,565.968 634.834,566.608 634.763,567.468C634.694,568.327 635.331,569.083 636.191,569.155Z" style="fill:rgb(225,146,115);fill-rule:nonzero;"/>
    </g>
    <g transform="matrix(1,0,0,1,0,102)">
        <path d="M676.922,558.765C680.887,556.433 684.703,553.849 688.337,551.027C689.019,550.499 689.144,549.518 688.613,548.837C688.084,548.152 687.103,548.03 686.422,548.558C682.894,551.296 679.191,553.808 675.341,556.071C674.594,556.508 674.347,557.465 674.784,558.208C675.222,558.952 676.178,559.202 676.922,558.765Z" style="fill:rgb(225,146,115);fill-rule:nonzero;"/>
    </g>
    <g transform="matrix(1,0,0,1,0,102)">
        <path d="M665.838,544.455C670.966,542.44 675.581,539.171 679.184,535.002C679.75,534.349 679.678,533.365 679.025,532.799C678.372,532.233 677.384,532.305 676.822,532.959C673.553,536.74 669.347,539.721 664.697,541.546C663.894,541.862 663.497,542.768 663.812,543.571C664.128,544.374 665.034,544.771 665.838,544.455Z" style="fill:rgb(225,146,115);fill-rule:nonzero;"/>
    </g>
    <g transform="matrix(1,0,0,1,0,102)">
        <path d="M700.797,525.752C705.712,524.758 709.941,521.249 711.822,516.599C712.144,515.799 711.756,514.89 710.956,514.568C710.156,514.246 709.244,514.633 708.922,515.433C707.478,519.065 704.019,521.933 700.184,522.687C699.338,522.855 698.788,523.677 698.956,524.524C699.125,525.371 699.95,525.921 700.797,525.752Z" style="fill:rgb(225,146,115);fill-rule:nonzero;"/>
    </g>
    <g transform="matrix(1,0,0,1,0,102)">
        <path d="M706.941,534.571C712.006,531.493 716.3,527.18 719.356,522.099C719.803,521.362 719.562,520.399 718.822,519.955C718.084,519.512 717.125,519.749 716.678,520.49C713.888,525.13 709.947,529.09 705.319,531.899C704.581,532.349 704.347,533.308 704.794,534.046C705.244,534.783 706.203,535.018 706.941,534.571Z" style="fill:rgb(225,146,115);fill-rule:nonzero;"/>
    </g>
    <g transform="matrix(1,0,0,1,0,102)">
        <path d="M710.634,493.677C714.606,491.262 717.381,487.099 718.081,482.502C718.209,481.649 717.622,480.852 716.766,480.724C715.912,480.596 715.119,481.183 714.991,482.037C714.45,485.68 712.169,489.102 709.016,491.002C708.275,491.449 708.041,492.412 708.487,493.149C708.934,493.887 709.894,494.124 710.634,493.677Z" style="fill:rgb(225,146,115);fill-rule:nonzero;"/>
    </g>
    <g transform="matrix(1,0,0,1,0,102)">
        <path d="M660.872,511.249C665.291,509.224 668.756,505.352 670.284,500.74C670.553,499.918 670.109,499.037 669.288,498.765C668.469,498.496 667.584,498.94 667.316,499.762C666.081,503.521 663.175,506.768 659.575,508.408C658.787,508.765 658.444,509.693 658.803,510.477C659.159,511.262 660.088,511.608 660.872,511.249Z" style="fill:rgb(225,146,115);fill-rule:nonzero;"/>
    </g>
    <g transform="matrix(1,0,0,1,0,102)">
        <path d="M707.366,356.321C707.409,356.946 707.428,357.571 707.428,358.199C707.431,364.749 705.156,371.321 701.072,376.44C700.531,377.115 700.644,378.096 701.319,378.633C701.994,379.174 702.975,379.062 703.513,378.387C708.05,372.693 710.55,365.468 710.553,358.199C710.553,357.502 710.531,356.808 710.484,356.112C710.428,355.252 709.681,354.599 708.822,354.659C707.959,354.715 707.309,355.458 707.366,356.321Z" style="fill:rgb(225,146,115);fill-rule:nonzero;"/>
    </g>
    <g transform="matrix(1,0,0,1,0,102)">
        <path d="M714.122,369.699C713.403,375.168 711.247,380.455 707.934,384.865C707.416,385.555 707.556,386.537 708.247,387.052C708.938,387.571 709.916,387.433 710.434,386.743C714.072,381.893 716.428,376.115 717.222,370.105C717.334,369.249 716.731,368.465 715.875,368.352C715.019,368.24 714.234,368.843 714.122,369.699Z" style="fill:rgb(225,146,115);fill-rule:nonzero;"/>
    </g>
    <g transform="matrix(1,0,0,1,0,102)">
        <path d="M644.975,467.537C643.472,475.03 639.772,482.09 634.466,487.59C633.866,488.208 633.884,489.199 634.506,489.799C635.125,490.396 636.116,490.38 636.716,489.758C642.441,483.818 646.413,476.24 648.041,468.152C648.209,467.305 647.662,466.483 646.816,466.312C645.969,466.143 645.147,466.69 644.975,467.537Z" style="fill:rgb(225,146,115);fill-rule:nonzero;"/>
    </g>
    <g transform="matrix(1,0,0,1,0,102)">
        <path d="M649.472,480.508C648.416,485.283 645.847,489.743 642.244,493.052C641.609,493.637 641.569,494.624 642.153,495.258C642.738,495.896 643.725,495.937 644.362,495.352C648.441,491.596 651.322,486.596 652.522,481.183C652.709,480.34 652.175,479.505 651.334,479.321C650.491,479.134 649.656,479.665 649.472,480.508Z" style="fill:rgb(225,146,115);fill-rule:nonzero;"/>
    </g>
    <g transform="matrix(1,0,0,1,0,102)">
        <path d="M548.3,516.833C550.653,512.937 552.047,508.483 552.334,503.943C552.387,503.083 551.734,502.34 550.872,502.287C550.009,502.23 549.269,502.887 549.216,503.746C548.959,507.78 547.716,511.758 545.625,515.218C545.178,515.955 545.416,516.918 546.153,517.362C546.894,517.808 547.853,517.571 548.3,516.833Z" style="fill:rgb(225,146,115);fill-rule:nonzero;"/>
    </g>
    <g transform="matrix(1,0,0,1,0,102)">
        <path d="M552.663,528.537C556.531,523.205 559.391,517.152 561.05,510.777C561.269,509.94 560.766,509.087 559.931,508.871C559.097,508.652 558.244,509.152 558.025,509.99C556.466,515.983 553.772,521.69 550.131,526.702C549.625,527.399 549.781,528.377 550.478,528.883C551.178,529.39 552.153,529.237 552.663,528.537Z" style="fill:rgb(225,146,115);fill-rule:nonzero;"/>
    </g>
    <g transform="matrix(1,0,0,1,0,102)">
        <path d="M562.4,497.118C564.541,489.705 566.078,482.118 566.987,474.455C567.091,473.599 566.478,472.821 565.622,472.718C564.763,472.618 563.987,473.23 563.884,474.087C562.994,481.58 561.494,488.999 559.397,496.249C559.159,497.077 559.634,497.946 560.466,498.183C561.294,498.424 562.159,497.946 562.4,497.118Z" style="fill:rgb(225,146,115);fill-rule:nonzero;"/>
    </g>
    <g transform="matrix(1,0,0,1,0,102)">
        <path d="M555.653,481.652C556.319,474.924 556.988,468.199 557.653,461.471C557.737,460.612 557.109,459.846 556.253,459.762C555.394,459.677 554.628,460.305 554.544,461.162C553.875,467.89 553.209,474.615 552.544,481.343C552.459,482.202 553.084,482.968 553.944,483.052C554.803,483.137 555.569,482.512 555.653,481.652Z" style="fill:rgb(225,146,115);fill-rule:nonzero;"/>
    </g>
    <g transform="matrix(1,0,0,1,0,102)">
        <path d="M570.359,459.652C569.919,456.727 569.697,453.768 569.697,450.812C569.697,449.546 569.737,448.28 569.819,447.021C569.875,446.158 569.222,445.415 568.359,445.362C567.5,445.305 566.756,445.958 566.7,446.818C566.616,448.149 566.572,449.48 566.572,450.812C566.572,453.924 566.806,457.04 567.269,460.118C567.4,460.971 568.194,461.558 569.05,461.43C569.903,461.299 570.491,460.505 570.359,459.652Z" style="fill:rgb(225,146,115);fill-rule:nonzero;"/>
    </g>
    <g transform="matrix(1,0,0,1,0,102)">
        <path d="M578.888,479.746C579.931,475.533 580.456,471.199 580.456,466.862C580.456,465.215 580.381,463.571 580.228,461.93C580.15,461.071 579.388,460.44 578.528,460.518C577.669,460.599 577.037,461.358 577.116,462.218C577.259,463.762 577.331,465.312 577.331,466.862C577.331,470.946 576.834,475.03 575.853,478.993C575.647,479.83 576.156,480.677 576.994,480.887C577.831,481.093 578.678,480.583 578.888,479.746Z" style="fill:rgb(225,146,115);fill-rule:nonzero;"/>
    </g>
    <g transform="matrix(1,0,0,1,0,102)">
        <path d="M576.931,501.699C579.172,498.455 580.375,494.549 580.378,490.615C580.378,490.187 580.362,489.755 580.334,489.327C580.275,488.465 579.531,487.815 578.669,487.874C577.809,487.93 577.156,488.677 577.216,489.537C577.241,489.896 577.253,490.255 577.253,490.615C577.253,493.905 576.231,497.218 574.359,499.921C573.869,500.63 574.047,501.605 574.756,502.096C575.469,502.587 576.441,502.408 576.931,501.699Z" style="fill:rgb(225,146,115);fill-rule:nonzero;"/>
    </g>
    <g transform="matrix(1,0,0,1,0,102)">
        <path d="M527.969,546.771C533.597,545.008 538.044,540.218 539.384,534.474C539.578,533.633 539.053,532.796 538.213,532.602C537.372,532.408 536.534,532.93 536.341,533.771C535.291,538.38 531.559,542.399 527.044,543.787C526.219,544.04 525.759,544.918 526.016,545.74C526.272,546.565 527.147,547.024 527.969,546.771Z" style="fill:rgb(225,146,115);fill-rule:nonzero;"/>
    </g>
    <g transform="matrix(1,0,0,1,0,102)">
        <path d="M537.009,560.583C541.575,557.905 545.341,553.927 547.766,549.224C548.163,548.458 547.859,547.518 547.094,547.121C546.325,546.727 545.384,547.027 544.988,547.793C542.841,551.962 539.475,555.518 535.428,557.89C534.684,558.324 534.434,559.283 534.872,560.027C535.309,560.771 536.266,561.021 537.009,560.583Z" style="fill:rgb(225,146,115);fill-rule:nonzero;"/>
    </g>
    <g transform="matrix(1,0,0,1,0,102)">
        <path d="M564.269,409.593C564.541,413.912 564.813,418.23 565.084,422.549C565.141,423.412 565.881,424.065 566.744,424.008C567.603,423.955 568.259,423.215 568.206,422.352C567.931,418.033 567.659,413.715 567.388,409.396C567.331,408.533 566.591,407.88 565.728,407.933C564.869,407.99 564.212,408.73 564.269,409.593Z" style="fill:rgb(225,146,115);fill-rule:nonzero;"/>
    </g>
    <g transform="matrix(1,0,0,1,0,102)">
        <path d="M575.541,417.733C576.588,423.58 577.169,429.512 577.284,435.449C577.3,436.312 578.013,436.999 578.875,436.983C579.738,436.968 580.425,436.252 580.406,435.39C580.291,429.287 579.691,423.193 578.616,417.183C578.466,416.333 577.653,415.768 576.803,415.921C575.953,416.071 575.388,416.883 575.541,417.733Z" style="fill:rgb(225,146,115);fill-rule:nonzero;"/>
    </g>
    <g transform="matrix(1,0,0,1,0,102)">
        <path d="M503.038,570.999C508.153,569.008 512.812,565.874 516.591,561.887C517.181,561.262 517.156,560.271 516.528,559.677C515.903,559.083 514.912,559.112 514.319,559.74C510.866,563.387 506.588,566.265 501.903,568.087C501.1,568.399 500.7,569.302 501.012,570.109C501.325,570.912 502.231,571.312 503.038,570.999Z" style="fill:rgb(225,146,115);fill-rule:nonzero;"/>
    </g>
    <g transform="matrix(1,0,0,1,0,102)">
        <path d="M499.741,583.352C504.944,582.699 510.012,581.043 514.594,578.493C515.347,578.074 515.619,577.121 515.2,576.368C514.781,575.615 513.828,575.343 513.075,575.762C508.844,578.115 504.153,579.649 499.353,580.249C498.497,580.358 497.887,581.14 497.997,581.996C498.103,582.852 498.884,583.458 499.741,583.352Z" style="fill:rgb(225,146,115);fill-rule:nonzero;"/>
    </g>
    <g transform="matrix(1,0,0,1,0,102)">
        <path d="M575.2,588.365C579.5,586.402 583.803,584.437 588.103,582.471C588.888,582.115 589.234,581.187 588.875,580.402C588.516,579.618 587.591,579.271 586.803,579.63C582.503,581.593 578.203,583.558 573.903,585.524C573.116,585.88 572.772,586.808 573.131,587.593C573.488,588.377 574.416,588.724 575.2,588.365Z" style="fill:rgb(225,146,115);fill-rule:nonzero;"/>
    </g>
    <g transform="matrix(1,0,0,1,0,102)">
        <path d="M593.122,587.587C598.138,585.462 602.838,582.602 607.025,579.118C607.688,578.565 607.778,577.58 607.228,576.918C606.675,576.255 605.691,576.165 605.025,576.715C601.075,580.002 596.637,582.705 591.903,584.708C591.109,585.043 590.737,585.962 591.075,586.755C591.409,587.549 592.325,587.921 593.122,587.587Z" style="fill:rgb(225,146,115);fill-rule:nonzero;"/>
    </g>
    <g transform="matrix(1,0,0,1,0,102)">
        <path d="M598.506,569.568C603.084,566.652 606.947,562.649 609.7,557.974C610.138,557.23 609.891,556.271 609.147,555.833C608.403,555.396 607.447,555.646 607.009,556.387C604.509,560.633 600.984,564.287 596.828,566.933C596.1,567.396 595.888,568.362 596.35,569.09C596.812,569.818 597.778,570.03 598.506,569.568Z" style="fill:rgb(225,146,115);fill-rule:nonzero;"/>
    </g>
    <g transform="matrix(1,0,0,1,0,102)">
        <path d="M555.472,586.065C561.441,584.18 566.969,580.943 571.531,576.658C572.159,576.068 572.191,575.08 571.6,574.452C571.009,573.821 570.022,573.79 569.394,574.38C565.175,578.343 560.047,581.343 554.531,583.083C553.706,583.343 553.25,584.221 553.509,585.043C553.769,585.868 554.647,586.324 555.472,586.065Z" style="fill:rgb(225,146,115);fill-rule:nonzero;"/>
    </g>
    <g transform="matrix(1,0,0,1,0,102)">
        <path d="M542.909,601.071C545.741,602.13 548.75,602.649 551.756,602.649C556.119,602.649 560.484,601.555 564.306,599.396C565.056,598.971 565.322,598.018 564.897,597.268C564.472,596.518 563.519,596.252 562.769,596.677C559.444,598.555 555.597,599.527 551.756,599.524C549.109,599.524 546.469,599.068 544.006,598.143C543.197,597.84 542.297,598.249 541.994,599.058C541.691,599.865 542.1,600.768 542.909,601.071Z" style="fill:rgb(225,146,115);fill-rule:nonzero;"/>
    </g>
    <g transform="matrix(1,0,0,1,0,102)">
        <path d="M802.716,203.468C803.997,197.493 806.3,191.73 809.484,186.515C809.934,185.78 809.703,184.818 808.969,184.368C808.231,183.918 807.269,184.149 806.819,184.887C803.447,190.402 801.016,196.49 799.659,202.812C799.478,203.655 800.016,204.487 800.859,204.668C801.703,204.849 802.534,204.312 802.716,203.468Z" style="fill:rgb(231,202,180);fill-rule:nonzero;"/>
    </g>
    <g transform="matrix(1,0,0,1,0,102)">
        <path d="M790.078,203.402C790.691,197.893 792.869,192.546 796.278,188.174C796.809,187.493 796.687,186.512 796.006,185.98C795.325,185.449 794.344,185.571 793.813,186.252C790.044,191.09 787.653,196.962 786.972,203.055C786.875,203.912 787.494,204.687 788.353,204.78C789.209,204.877 789.981,204.258 790.078,203.402Z" style="fill:rgb(231,202,180);fill-rule:nonzero;"/>
    </g>
    <g transform="matrix(1,0,0,1,0,102)">
        <path d="M772.259,203.702C774.025,198.508 776.978,193.712 780.813,189.79C781.416,189.174 781.406,188.183 780.788,187.58C780.172,186.977 779.181,186.987 778.578,187.605C774.412,191.865 771.222,197.055 769.3,202.696C769.022,203.512 769.459,204.399 770.275,204.677C771.094,204.955 771.981,204.518 772.259,203.702Z" style="fill:rgb(231,202,180);fill-rule:nonzero;"/>
    </g>
    <g transform="matrix(1,0,0,1,0,102)">
        <path d="M794.403,173.349C797.816,169.584 802.253,166.73 807.097,165.19C807.919,164.927 808.372,164.049 808.112,163.227C807.85,162.405 806.972,161.949 806.147,162.212C800.772,163.924 795.878,167.071 792.088,171.249C791.506,171.89 791.556,172.877 792.197,173.455C792.834,174.037 793.822,173.987 794.403,173.349Z" style="fill:rgb(231,202,180);fill-rule:nonzero;"/>
    </g>
    <g transform="matrix(1,0,0,1,0,102)">
        <path d="M771.747,177.058C775.625,173.012 780.016,169.452 784.778,166.499C785.512,166.043 785.737,165.08 785.281,164.346C784.828,163.612 783.863,163.387 783.131,163.843C778.144,166.937 773.553,170.658 769.491,174.896C768.894,175.518 768.916,176.508 769.537,177.105C770.163,177.702 771.15,177.68 771.747,177.058Z" style="fill:rgb(231,202,180);fill-rule:nonzero;"/>
    </g>
    <g transform="matrix(1,0,0,1,0,102)">
        <path d="M751.794,217.271C752.431,211.88 754.238,206.621 757.047,201.977C757.494,201.237 757.259,200.277 756.519,199.83C755.781,199.383 754.822,199.621 754.375,200.358C751.331,205.39 749.381,211.065 748.691,216.902C748.587,217.758 749.2,218.537 750.056,218.64C750.913,218.74 751.691,218.127 751.794,217.271Z" style="fill:rgb(231,202,180);fill-rule:nonzero;"/>
    </g>
    <g transform="matrix(1,0,0,1,0,102)">
        <path d="M761.375,232.408C761.366,232.062 761.359,231.718 761.359,231.371C761.359,226.449 762.347,221.524 764.247,216.987C764.581,216.19 764.206,215.274 763.409,214.94C762.612,214.608 761.697,214.983 761.366,215.78C759.303,220.702 758.234,226.033 758.234,231.371C758.234,231.746 758.241,232.121 758.25,232.496C758.275,233.358 758.994,234.037 759.856,234.015C760.719,233.99 761.4,233.271 761.375,232.408Z" style="fill:rgb(231,202,180);fill-rule:nonzero;"/>
    </g>
    <g transform="matrix(1,0,0,1,0,102)">
        <path d="M775.703,242.499C775.375,240.337 775.213,238.146 775.213,235.958C775.213,232.937 775.522,229.912 776.144,226.955C776.322,226.108 775.781,225.28 774.934,225.105C774.091,224.927 773.263,225.468 773.084,226.312C772.419,229.484 772.088,232.721 772.088,235.958C772.088,238.302 772.263,240.646 772.613,242.965C772.741,243.818 773.537,244.405 774.391,244.277C775.244,244.149 775.831,243.352 775.703,242.499Z" style="fill:rgb(231,202,180);fill-rule:nonzero;"/>
    </g>
    <g transform="matrix(1,0,0,1,0,102)">
        <path d="M794.531,251.787C793.344,248.671 792.741,245.327 792.741,241.987C792.741,239.652 793.034,237.318 793.625,235.065C793.844,234.23 793.344,233.377 792.509,233.158C791.675,232.94 790.819,233.44 790.6,234.274C789.944,236.793 789.616,239.39 789.616,241.987C789.616,245.702 790.284,249.418 791.609,252.899C791.919,253.705 792.822,254.108 793.628,253.802C794.434,253.496 794.838,252.593 794.531,251.787Z" style="fill:rgb(231,202,180);fill-rule:nonzero;"/>
    </g>
    <g transform="matrix(1,0,0,1,0,102)">
        <path d="M807.831,267.187C806.187,261.596 805.284,255.787 805.153,249.962C805.131,249.099 804.416,248.415 803.556,248.437C802.691,248.455 802.009,249.171 802.028,250.033C802.166,256.133 803.113,262.215 804.834,268.068C805.078,268.896 805.947,269.371 806.772,269.127C807.6,268.883 808.075,268.015 807.831,267.187Z" style="fill:rgb(231,202,180);fill-rule:nonzero;"/>
    </g>
    <g transform="matrix(1,0,0,1,0,102)">
        <path d="M781.391,270.043C780.187,266.971 779.569,263.665 779.569,260.365C779.569,259.402 779.622,258.44 779.725,257.483C779.822,256.624 779.203,255.852 778.347,255.758C777.488,255.662 776.716,256.28 776.622,257.14C776.503,258.212 776.444,259.287 776.444,260.365C776.444,264.055 777.134,267.743 778.481,271.183C778.797,271.987 779.703,272.383 780.506,272.068C781.309,271.752 781.706,270.846 781.391,270.043Z" style="fill:rgb(231,202,180);fill-rule:nonzero;"/>
    </g>
    <g transform="matrix(1,0,0,1,0,102)">
        <path d="M800.606,153.193C802.306,152.068 804.003,150.946 805.7,149.821C808.9,147.68 812.281,145.69 815.437,145.718C815.809,145.718 816.184,145.743 816.556,145.799C817.413,145.924 818.206,145.33 818.328,144.477C818.453,143.624 817.862,142.83 817.009,142.705C816.478,142.63 815.953,142.593 815.437,142.593C811.016,142.621 807.234,145.08 803.975,147.215C802.278,148.34 800.578,149.465 798.881,150.587C798.163,151.065 797.966,152.033 798.441,152.752C798.919,153.471 799.888,153.671 800.606,153.193Z" style="fill:rgb(231,202,180);fill-rule:nonzero;"/>
    </g>
    <g transform="matrix(1,0,0,1,0,102)">
        <path d="M821.284,163.908C824.091,161.54 827.797,160.196 831.475,160.199L832.147,160.215C833.009,160.255 833.738,159.587 833.778,158.724C833.816,157.865 833.15,157.133 832.288,157.093L831.475,157.074C827.047,157.077 822.666,158.665 819.272,161.521C818.613,162.077 818.528,163.062 819.084,163.721C819.641,164.38 820.625,164.465 821.284,163.908Z" style="fill:rgb(231,202,180);fill-rule:nonzero;"/>
    </g>
    <g transform="matrix(1,0,0,1,0,102)">
        <path d="M727.678,246.265C727.65,245.74 727.638,245.215 727.638,244.687C727.638,238.958 729.247,233.218 732.244,228.337C732.694,227.602 732.466,226.64 731.728,226.19C730.994,225.737 730.031,225.968 729.581,226.702C726.278,232.087 724.513,238.377 724.513,244.687C724.513,245.268 724.528,245.846 724.556,246.427C724.603,247.287 725.338,247.949 726.2,247.905C727.059,247.862 727.722,247.127 727.678,246.265Z" style="fill:rgb(231,202,180);fill-rule:nonzero;"/>
    </g>
    <g transform="matrix(1,0,0,1,0,102)">
        <path d="M737.247,209.796C737.256,206.112 739.016,202.393 741.856,200.046C742.519,199.496 742.613,198.512 742.059,197.846C741.509,197.183 740.525,197.09 739.859,197.643C736.288,200.615 734.153,205.133 734.122,209.78C734.119,210.643 734.816,211.346 735.678,211.352C736.541,211.355 737.244,210.658 737.247,209.796Z" style="fill:rgb(231,202,180);fill-rule:nonzero;"/>
    </g>
    <g transform="matrix(1,0,0,1,0,102)">
        <path d="M721.034,228.227C721.791,221.737 724.038,215.412 727.544,209.899C728.006,209.171 727.791,208.205 727.062,207.743C726.334,207.277 725.369,207.493 724.906,208.221C721.144,214.14 718.744,220.902 717.931,227.865C717.831,228.721 718.444,229.499 719.303,229.599C720.159,229.699 720.934,229.083 721.034,228.227Z" style="fill:rgb(231,202,180);fill-rule:nonzero;"/>
    </g>
    <g transform="matrix(1,0,0,1,0,102)">
        <path d="M743.113,179.593C744.128,176.474 746.531,173.771 749.509,172.396C750.294,172.033 750.631,171.105 750.269,170.321C749.906,169.54 748.978,169.199 748.194,169.562C744.409,171.324 741.45,174.652 740.144,178.618C739.875,179.437 740.322,180.321 741.141,180.59C741.962,180.858 742.844,180.412 743.113,179.593Z" style="fill:rgb(231,202,180);fill-rule:nonzero;"/>
    </g>
    <g transform="matrix(1,0,0,1,0,102)">
        <path d="M701.494,201.996C702.022,198.546 704.231,195.318 707.256,193.577C708.003,193.146 708.256,192.19 707.825,191.443C707.394,190.696 706.438,190.44 705.691,190.874C701.822,193.121 699.1,197.096 698.406,201.515C698.275,202.368 698.856,203.168 699.709,203.299C700.563,203.43 701.362,202.846 701.494,201.996Z" style="fill:rgb(231,202,180);fill-rule:nonzero;"/>
    </g>
    <g transform="matrix(1,0,0,1,0,102)">
        <path d="M777.781,144.033C782.434,140.546 787.95,138.193 793.687,137.252C794.537,137.112 795.116,136.305 794.975,135.455C794.834,134.605 794.031,134.027 793.181,134.168C786.941,135.193 780.969,137.74 775.909,141.53C775.219,142.049 775.078,143.027 775.597,143.718C776.113,144.409 777.094,144.549 777.784,144.033L777.781,144.033Z" style="fill:rgb(231,202,180);fill-rule:nonzero;"/>
    </g>
    <g transform="matrix(1,0,0,1,0,102)">
        <path d="M596.672,180.974C598.134,176.487 600.45,172.274 603.456,168.637C604.006,167.971 603.912,166.987 603.247,166.437C602.581,165.887 601.597,165.98 601.047,166.646C597.791,170.59 595.284,175.143 593.7,180.005C593.431,180.824 593.881,181.705 594.7,181.974C595.522,182.243 596.403,181.793 596.672,180.974Z" style="fill:rgb(231,202,180);fill-rule:nonzero;"/>
    </g>
    <g transform="matrix(1,0,0,1,0,102)">
        <path d="M604.763,191.771C605.65,187.121 607.163,182.587 609.247,178.333C609.625,177.558 609.306,176.624 608.531,176.246C607.756,175.865 606.819,176.184 606.441,176.958C604.234,181.465 602.634,186.258 601.694,191.187C601.531,192.033 602.088,192.852 602.934,193.012C603.781,193.174 604.6,192.618 604.763,191.771Z" style="fill:rgb(231,202,180);fill-rule:nonzero;"/>
    </g>
    <g transform="matrix(1,0,0,1,0,102)">
        <path d="M586.644,208.271C586.622,207.718 586.612,207.165 586.612,206.615C586.612,201.683 587.425,196.752 589.009,192.083C589.288,191.268 588.85,190.38 588.031,190.102C587.216,189.824 586.328,190.262 586.05,191.08C584.353,196.074 583.487,201.343 583.487,206.615C583.487,207.205 583.497,207.796 583.519,208.387C583.553,209.249 584.278,209.921 585.138,209.89C586,209.859 586.675,209.133 586.644,208.271Z" style="fill:rgb(231,202,180);fill-rule:nonzero;"/>
    </g>
    <g transform="matrix(1,0,0,1,0,102)">
        <path d="M574.1,221.524C574.278,215.187 574.456,208.849 574.634,202.512C574.659,201.649 573.978,200.93 573.116,200.905C572.253,200.883 571.534,201.562 571.512,202.424C571.334,208.762 571.156,215.099 570.978,221.437C570.953,222.299 571.631,223.018 572.497,223.043C573.359,223.068 574.078,222.387 574.1,221.524Z" style="fill:rgb(231,202,180);fill-rule:nonzero;"/>
    </g>
    <g transform="matrix(1,0,0,1,0,102)">
        <path d="M609.719,147.971C613.066,144.165 616.888,140.777 621.063,137.908C621.775,137.421 621.956,136.449 621.466,135.737C620.978,135.027 620.006,134.846 619.294,135.333C614.903,138.349 610.891,141.908 607.372,145.905C606.803,146.555 606.866,147.543 607.513,148.112C608.163,148.68 609.15,148.618 609.719,147.971Z" style="fill:rgb(231,202,180);fill-rule:nonzero;"/>
    </g>
    <g transform="matrix(1,0,0,1,0,102)">
        <path d="M616.656,157.521C618.397,153.593 621.512,150.255 625.312,148.246C626.075,147.843 626.366,146.899 625.962,146.133C625.556,145.371 624.612,145.08 623.85,145.483C619.419,147.833 615.838,151.671 613.8,156.252C613.45,157.04 613.806,157.965 614.594,158.315C615.384,158.665 616.306,158.308 616.656,157.521Z" style="fill:rgb(231,202,180);fill-rule:nonzero;"/>
    </g>
    <g transform="matrix(1,0,0,1,0,102)">
        <path d="M628,161.768C631.131,157.858 635,154.533 639.337,152.024C640.081,151.593 640.338,150.637 639.906,149.89C639.475,149.143 638.519,148.887 637.772,149.321C633.097,152.024 628.937,155.599 625.559,159.815C625.022,160.49 625.128,161.474 625.803,162.012C626.478,162.552 627.459,162.443 628,161.768Z" style="fill:rgb(231,202,180);fill-rule:nonzero;"/>
    </g>
    <g transform="matrix(1,0,0,1,0,102)">
        <path d="M637.316,131.215C641.347,127.54 646.494,125.065 651.881,124.215C652.734,124.08 653.316,123.28 653.181,122.427C653.047,121.577 652.247,120.993 651.394,121.13C645.391,122.08 639.703,124.812 635.209,128.905C634.572,129.49 634.528,130.477 635.109,131.115C635.691,131.752 636.678,131.799 637.316,131.215Z" style="fill:rgb(231,202,180);fill-rule:nonzero;"/>
    </g>
    <g transform="matrix(1,0,0,1,0,102)">
        <path d="M610.266,222.993C609.588,221.271 609.247,219.409 609.247,217.546C609.247,215.552 609.637,213.558 610.409,211.737C610.744,210.943 610.372,210.027 609.578,209.69C608.784,209.352 607.866,209.724 607.531,210.521C606.591,212.743 606.122,215.146 606.122,217.546C606.122,219.79 606.531,222.037 607.359,224.14C607.675,224.94 608.581,225.337 609.384,225.021C610.187,224.702 610.581,223.796 610.266,222.993Z" style="fill:rgb(231,202,180);fill-rule:nonzero;"/>
    </g>
</svg>
