<?xml version="1.0" encoding="UTF-8" standalone="no"?><!DOCTYPE svg PUBLIC "-//W3C//DTD SVG 1.1//EN" "http://www.w3.org/Graphics/SVG/1.1/DTD/svg11.dtd"><svg width="100%" height="100%" viewBox="0 0 901 697" version="1.1" xmlns="http://www.w3.org/2000/svg" xmlns:xlink="http://www.w3.org/1999/xlink" xml:space="preserve" style="fill-rule:evenodd;clip-rule:evenodd;stroke-linejoin:round;stroke-miterlimit:1.41421;"><path d="M776.519,324.252c6.793,-10.694 9.34,-24.006 6.972,-36.45c-7.95,12.194 -19.5,22.01 -32.816,27.888c-1.047,-15.853 -4.134,-31.572 -9.159,-46.644c-13.866,18.294 -32.753,32.741 -54.041,41.334c-0.141,-16.156 -4.778,-32.247 -13.256,-46c-9.132,9.257 -20.019,16.772 -31.907,22.028c3.382,-11.259 3.347,-23.521 -0.096,-34.762c-9.763,13.462 -22.444,24.8 -36.916,32.997c0.384,-14.953 -2.834,-29.988 -9.303,-43.475c-7.95,13.012 -14.694,26.765 -20.113,41.022c-9.356,-16.272 -17.162,-33.419 -23.421,-51.116c-6.329,36.906 -6.129,75.988 -5.501,113.5c1.154,69.063 0.294,143.675 -40.859,199.147c-13.022,17.55 -30.209,32.675 -50.89,39.744c-4.694,8.9 -9.779,17.597 -15.235,26.056c72.1,26.591 152.175,31.106 226.803,12.787c52.863,-12.975 104.681,-38.65 137.397,-82.15c40.797,-54.243 45.988,-127.634 37.372,-194.959c-3.131,-24.459 -7.844,-49.034 -9.944,-73.562c-13.503,21.84 -32.609,40.196 -55.087,52.615Z" style="fill:#cd7d62;fill-rule:nonzero;"/><path d="M856.872,91.733c-25.75,-17.278 -57.347,-23.881 -88.328,-25.196c-68.957,-2.925 -142.41,22.153 -182.507,78.328c-18.331,25.681 -28.253,55.178 -33.574,86.209c6.259,17.697 14.065,34.844 23.421,51.116c5.419,-14.257 12.163,-28.01 20.113,-41.022c6.469,13.487 9.687,28.522 9.303,43.475c14.472,-8.197 27.153,-19.535 36.916,-32.997c3.443,11.241 3.478,23.503 0.096,34.762c11.888,-5.256 22.775,-12.771 31.907,-22.028c8.478,13.753 13.115,29.844 13.256,46c21.288,-8.593 40.175,-23.04 54.041,-41.334c5.025,15.072 8.112,30.791 9.159,46.644c13.316,-5.878 24.866,-15.694 32.816,-27.888c2.368,12.444 -0.179,25.756 -6.972,36.45c22.478,-12.419 41.584,-30.775 55.087,-52.615c-1.478,-17.26 -1.675,-34.494 0.935,-51.65c2.575,-16.944 8.356,-34.266 21.006,-45.829c12.65,-11.562 33.525,-15.331 47.044,-4.793c1.009,-30.994 -17.969,-60.35 -43.719,-77.632Z" style="fill:#ecdcce;fill-rule:nonzero;"/><path d="M438.081,632.774c15.266,-11.606 26.016,-29.003 29.569,-47.85c1.488,-7.891 1.55,-16.722 -3.228,-23.175c-5.044,-6.809 -14.419,-9.228 -22.822,-8.159c-8.406,1.072 -16.122,5.05 -23.637,8.962c9.306,-44.565 6.346,-91.162 -4.554,-135.362c-10.903,-44.203 -29.565,-86.185 -51.484,-126.088c-55.413,-0.522 -110.825,-1.04 -166.241,-1.562c-4.037,-0.038 -8.284,-0.025 -11.815,1.934c-3.075,1.703 -5.213,4.675 -7.131,7.619c-22.535,34.615 -28.25,77.219 -32.697,118.284c-5.997,55.319 -10.45,112.991 9.112,165.081c-6.612,-9.434 -20.103,-13.318 -30.722,-8.843c-10.618,4.475 -17.259,16.84 -15.125,28.165c2.713,14.391 16.691,23.422 25.057,35.444c-1.557,-0.091 -3.116,-0.059 -4.672,-0.081c5.046,7.219 8.059,15.844 8.59,24.634c13.66,-0.997 27.303,-2.465 40.947,-3.665c87.997,-7.744 176.472,-3.579 264.847,-2.125c0.113,-11.294 2.766,-22.55 7.669,-32.725c-3.875,-0.36 -7.772,-0.525 -11.663,-0.488Z" style="fill:#e19273;fill-rule:nonzero;"/><path d="M97.631,650.824c-6,1.619 -12.972,5.231 -12.934,11.444c0.047,7.553 9.887,10.35 17.441,10.55c11.393,0.297 22.775,-0.21 34.143,-1.041c-0.531,-8.79 -3.544,-17.415 -8.59,-24.634c-10.132,-0.147 -20.279,1.037 -30.06,3.681Z" style="fill:#7e6960;fill-rule:nonzero;"/><path d="M482.975,641.383c-10.591,-4.334 -21.834,-7.071 -33.231,-8.121c-4.903,10.175 -7.556,21.431 -7.669,32.725c12.869,0.212 25.734,0.368 38.597,0.418c5.597,0.022 12.181,-0.487 15.159,-5.225c4.797,-7.631 -4.515,-16.381 -12.856,-19.797Z" style="fill:#7e6960;fill-rule:nonzero;"/><path d="M164.859,321.24c-2.781,6.484 -3.334,13.678 -3.746,20.725c-1.904,32.559 -1.522,65.622 6.44,97.25c1.385,-1.757 2.769,-3.513 4.15,-5.266c1.791,10.75 3.584,21.528 6.55,32.016c7.753,27.447 23.325,52.153 41.653,74.003c18.328,21.853 39.469,41.137 60.116,60.815c0.878,0.835 1.853,1.719 3.062,1.816c0.997,0.081 1.947,-0.4 2.825,-0.884c14.775,-8.185 26.038,-21.469 35.744,-35.291c18.228,-25.953 32.213,-54.881 41.225,-85.287c1.206,7.74 0.969,15.703 -0.694,23.362c17.144,-38.262 27.682,-79.472 31.01,-121.266c0.481,-6.059 0.809,-12.2 -0.313,-18.171c-1.122,-5.991 -3.665,-11.607 -6.184,-17.154c-6.056,-13.337 -12.119,-26.681 -18.747,-39.743c-1.209,-2.385 -2.528,-4.86 -4.747,-6.35c-1.972,-1.322 -4.409,-1.7 -6.762,-2.007c-21.907,-2.853 -44.01,-2.428 -66.135,-2c-15.934,0.307 -31.878,0.613 -47.762,-0.303c-14.485,-0.837 -29.128,-2.684 -43.41,-0.118c-14.278,2.565 -28.556,10.518 -34.275,23.853Z" style="fill:#eed1ba;fill-rule:nonzero;"/><path d="M239.291,535.04c-1.469,-29.803 -2.935,-59.607 -4.403,-89.41c-7.701,-2.356 -14.913,-6.306 -21.044,-11.525c0.978,79.61 5.787,159.169 14.406,238.316c-5.947,1.216 -12.269,2.625 -16.516,6.959c-4.246,4.335 -4.95,12.635 0.185,15.875c2.519,1.591 5.7,1.582 8.678,1.469c8.312,-0.306 16.609,-0.991 24.859,-2.044c-0.565,-45.99 -2.828,-91.94 -5.093,-137.881c-0.357,-7.253 -0.713,-14.506 -1.072,-21.759Z" style="fill:#7e6960;fill-rule:nonzero;"/><path d="M339.341,434.515c-6.175,4.734 -12.832,8.85 -19.828,12.256c4.749,82.428 7.674,164.962 8.768,247.519c6.947,1.331 14.1,1.6 21.128,0.793c3.935,-0.45 7.991,-1.306 11.122,-3.728c5.041,-3.897 6.425,-11.775 3.016,-17.156c-3.409,-5.381 -11.122,-7.497 -16.8,-4.603c3.847,-75.916 4.565,-157.406 -7.406,-235.081Z" style="fill:#7e6960;fill-rule:nonzero;"/><path d="M277.631,304.512c6.091,-34.691 22.694,-66.96 44.272,-94.797c21.578,-27.841 48.05,-51.522 75.691,-73.353c16.406,-12.957 33.431,-25.36 52.103,-34.707c-5.941,-7.822 -12.016,-15.543 -18.344,-23.059c-2.441,-2.894 -4.944,-5.825 -6.412,-9.313c-1.757,-4.178 -1.894,-8.825 -2.16,-13.346c-0.925,-15.872 -3.712,-31.635 -8.275,-46.863c-1.009,-3.369 -4.472,-5.465 -7.925,-4.794c-17.993,3.497 -32.987,17.194 -46.39,30.257c-3.544,3.453 -7.219,7 -11.832,8.79c-4.403,1.706 -9.265,1.66 -13.987,1.522c-54.741,-1.591 -110.313,-12.112 -163.694,0.113c-1.797,0.409 -3.759,0.831 -5.416,0.021c-1.043,-0.509 -1.806,-1.44 -2.537,-2.343c-11.072,-13.716 -22.147,-27.435 -33.222,-41.15c-2,-2.478 -5.909,-1.738 -6.925,1.281c-13.231,39.406 -33.29,76.306 -56.187,111.034c-3.097,4.7 -6.266,9.397 -9.453,14.103c43.903,12 85.878,31.035 123.709,56.341c43.765,29.272 83.519,69.36 96.984,120.263Z" style="fill:#e19273;fill-rule:nonzero;"/><path d="M514.638,209.358c-17.669,-38.109 -39.535,-74.253 -64.941,-107.703c-18.672,9.347 -35.697,21.75 -52.103,34.707c-27.641,21.831 -54.113,45.512 -75.691,73.353c-21.578,27.837 -38.181,60.106 -44.272,94.797c-13.465,-50.903 -53.219,-90.991 -96.984,-120.263c-37.831,-25.306 -79.806,-44.341 -123.709,-56.341c-25.119,37.097 -51.541,74.719 -56.938,118.775l24.506,-5.031c1.663,13.703 -1.844,27.966 -9.665,39.338c9.856,0.8 19.834,0.103 29.484,-2.06l-6.578,26.332c60.016,-8.894 121.715,-6.288 180.765,7.634c19.104,4.503 38.216,10.309 54.729,20.916c1.765,1.134 3.562,2.346 5.625,2.734c2.703,0.503 5.437,-0.484 8.009,-1.459c66.763,-25.288 134.425,-53.05 205.775,-55.494c-9.987,-8.013 -21.65,-13.925 -34.016,-17.25c12.691,-4.391 26.413,-5.778 39.725,-4.019c0.619,-12.656 -5.675,-25.437 -16.081,-32.662c11.794,0.178 23.553,2.309 34.659,6.281c4.141,-6.728 1.026,-15.416 -2.299,-22.585Z" style="fill:#ecdcce;fill-rule:nonzero;"/><path d="M403.181,23.13c7.006,14.044 6.425,30.553 5.078,46.191c-5.94,-1.456 -11.572,-4.141 -16.44,-7.841c-3.175,-2.412 -6.031,-5.247 -9.382,-7.412c-3.346,-2.166 -7.387,-3.641 -11.303,-2.897c8.113,-11.831 19.244,-21.572 32.047,-28.041Z" style="fill:#7e6960;fill-rule:nonzero;"/><path d="M112.5,59.712c11.109,-3.775 22.259,-7.435 33.447,-10.972c0.459,-1.094 -0.388,-2.269 -1.178,-3.156c-6.366,-7.144 -12.732,-14.288 -19.097,-21.432c-3.628,12.119 -8.031,24.003 -13.172,35.56Z" style="fill:#7e6960;fill-rule:nonzero;"/><path d="M276.484,353.34c7.46,0.503 15.735,-0.538 20.832,-6.01c4.6,-4.937 5.456,-12.234 5.493,-18.984c0.016,-3.156 -0.103,-6.347 -0.943,-9.391c-2.691,-9.737 -13.566,-16.425 -23.472,-14.431c-0.844,0.169 -1.678,0.394 -2.51,0.616c-0.787,0.212 -1.575,0.425 -2.362,0.634c-1.619,0.438 -3.247,0.875 -4.791,1.525c-8.775,3.697 -13.359,13.553 -14.778,22.969c-0.516,3.419 -0.709,6.987 0.378,10.272c2.841,8.609 13.11,12.187 22.153,12.8Z" style="fill:#403e3f;fill-rule:nonzero;"/><path d="M390.5,274.33c5.872,4.882 14.928,6.032 21.303,1.828c6.372,-4.203 8.71,-13.912 4.141,-20.028c-2.738,-3.662 -7.297,-5.597 -11.832,-6.203c-3.906,-0.522 -8.112,-0.103 -11.356,2.138c-3.034,2.1 -4.872,5.544 -6.047,9.04c-0.593,1.763 -1.05,3.613 -0.878,5.466c0.285,3.084 2.285,5.778 4.669,7.759Z" style="fill:#e19273;fill-rule:nonzero;"/><path d="M125.688,259.643c-5.004,-1.66 -10.735,-1.666 -15.335,0.909c-4.6,2.575 -7.709,8.028 -6.678,13.2c0.891,4.478 4.525,7.928 8.453,10.26c4.169,2.471 9.494,4.003 13.803,1.784c3.278,-1.688 5.225,-5.172 6.466,-8.644c1.691,-4.731 2.209,-10.572 -1.191,-14.269c-1.459,-1.587 -3.472,-2.562 -5.518,-3.24Z" style="fill:#e19273;fill-rule:nonzero;"/><path d="M385.212,211.249c1.344,2.775 4.572,4.509 7.629,4.097c3.056,-0.416 5.706,-2.944 6.265,-5.978c0.838,-4.563 -3.647,-9.263 -8.243,-8.641c-4.597,0.622 -7.672,6.347 -5.651,10.522Z" style="fill:#403e3f;fill-rule:nonzero;"/><path d="M119.231,225.983c1.344,2.775 4.569,4.51 7.628,4.097c3.057,-0.415 5.707,-2.943 6.266,-5.978c0.837,-4.562 -3.647,-9.262 -8.244,-8.64c-4.597,0.621 -7.672,6.346 -5.65,10.521Z" style="fill:#403e3f;fill-rule:nonzero;"/><path d="M207.366,107.074l-0.003,0.156c0,0.95 0.309,1.772 0.678,2.447c0.372,0.675 0.812,1.238 1.197,1.725c3.684,4.65 7.371,9.3 11.056,13.95c0.534,0.675 1.518,0.788 2.193,0.253c0.679,-0.537 0.791,-1.518 0.254,-2.196c-3.685,-4.647 -7.369,-9.297 -11.053,-13.947c-0.366,-0.46 -0.694,-0.897 -0.904,-1.285c-0.215,-0.39 -0.296,-0.697 -0.296,-0.947l0,-0.04c0.031,-0.863 -0.641,-1.588 -1.504,-1.619c-0.862,-0.031 -1.587,0.641 -1.618,1.503Z" style="fill:#ab7a64;fill-rule:nonzero;"/><path d="M226.884,112.08c-0.431,0.282 -0.787,0.697 -0.993,1.144c-0.213,0.447 -0.285,0.906 -0.285,1.319c0.035,1.381 0.647,2.444 1.213,3.309c3.39,4.931 5.878,10.491 7.297,16.306c0.203,0.838 1.05,1.354 1.887,1.147c0.838,-0.203 1.353,-1.05 1.147,-1.887c-1.509,-6.185 -4.15,-12.088 -7.753,-17.338c-0.391,-0.525 -0.7,-1.343 -0.666,-1.537l0.003,-0.035l-0.268,-0.053l0.15,0.225l0.118,-0.172l-0.268,-0.053l0.15,0.225c0.718,-0.478 0.912,-1.447 0.437,-2.165c-0.478,-0.719 -1.45,-0.913 -2.169,-0.435Z" style="fill:#ab7a64;fill-rule:nonzero;"/><path d="M244.106,118.265c2.469,4.709 4.116,9.856 4.844,15.125c0.119,0.853 0.906,1.45 1.763,1.334c0.856,-0.119 1.453,-0.906 1.334,-1.762c-0.778,-5.629 -2.538,-11.116 -5.175,-16.147c-0.4,-0.766 -1.344,-1.06 -2.11,-0.66c-0.762,0.4 -1.059,1.344 -0.656,2.11Z" style="fill:#ab7a64;fill-rule:nonzero;"/><path d="M267.472,124.54c0,6.984 0,13.969 0,20.953c0,0.862 0.7,1.562 1.562,1.562c0.863,0 1.563,-0.7 1.563,-1.562c0,-6.984 0,-13.969 0,-20.953c0,-0.863 -0.7,-1.563 -1.563,-1.563c-0.862,0 -1.562,0.7 -1.562,1.563Z" style="fill:#ab7a64;fill-rule:nonzero;"/><path d="M254.591,149.602c-0.241,1.556 -0.36,3.128 -0.36,4.7c0,4.363 0.919,8.719 2.71,12.706c0.353,0.788 1.278,1.138 2.065,0.785c0.788,-0.353 1.138,-1.278 0.785,-2.066c-1.607,-3.572 -2.435,-7.503 -2.435,-11.425c0,-1.412 0.107,-2.825 0.322,-4.219c0.135,-0.853 -0.45,-1.653 -1.303,-1.784c-0.853,-0.131 -1.65,0.45 -1.784,1.303Z" style="fill:#ab7a64;fill-rule:nonzero;"/><path d="M240.562,151.396c0.388,5.412 1.847,10.737 4.276,15.588c0.384,0.771 1.324,1.084 2.096,0.696c0.772,-0.384 1.085,-1.325 0.697,-2.097c-2.243,-4.481 -3.594,-9.412 -3.95,-14.409c-0.062,-0.862 -0.809,-1.509 -1.672,-1.447c-0.859,0.06 -1.506,0.806 -1.447,1.669Z" style="fill:#ab7a64;fill-rule:nonzero;"/><path d="M216.647,142.177c3.894,4.169 6.55,9.516 7.525,15.138c0.147,0.85 0.956,1.418 1.806,1.272c0.85,-0.147 1.419,-0.957 1.272,-1.807c-1.084,-6.231 -4.006,-12.109 -8.319,-16.737c-0.587,-0.628 -1.578,-0.663 -2.209,-0.075c-0.631,0.587 -0.666,1.578 -0.075,2.209Z" style="fill:#ab7a64;fill-rule:nonzero;"/><path d="M230.397,85.487c1.891,4.978 3.784,9.956 5.678,14.934c0.306,0.806 1.209,1.212 2.016,0.906c0.806,-0.306 1.212,-1.209 0.906,-2.015c-1.894,-4.982 -3.788,-9.96 -5.681,-14.938c-0.307,-0.806 -1.21,-1.212 -2.016,-0.906c-0.806,0.309 -1.212,1.209 -0.903,2.019Z" style="fill:#ab7a64;fill-rule:nonzero;"/><path d="M252.231,86.943l0,0.044c0,6.065 1.069,12.125 3.15,17.825c0.294,0.809 1.191,1.228 2.003,0.931c0.81,-0.294 1.228,-1.191 0.932,-2.003c-1.954,-5.353 -2.963,-11.053 -2.96,-16.753l-0.653,0l0.653,0.012l0,-0.012l-0.653,0l0.653,0.012c0.013,-0.862 -0.672,-1.575 -1.534,-1.591c-0.866,-0.015 -1.575,0.672 -1.591,1.535Z" style="fill:#ab7a64;fill-rule:nonzero;"/><path d="M270.316,90.652c0.087,2.05 0.131,4.103 0.131,6.153c0,3.203 -0.109,6.407 -0.322,9.6c-0.056,0.863 0.594,1.607 1.456,1.663c0.86,0.059 1.603,-0.591 1.663,-1.453c0.219,-3.266 0.328,-6.538 0.328,-9.81c0,-2.097 -0.044,-4.19 -0.134,-6.287c-0.038,-0.863 -0.766,-1.531 -1.629,-1.494c-0.862,0.038 -1.531,0.766 -1.493,1.628Z" style="fill:#ab7a64;fill-rule:nonzero;"/><path d="M287.003,109.452c-2.094,5.035 -3.172,10.478 -3.175,15.931c0,0.7 0.019,1.4 0.056,2.1c0.044,0.863 0.778,1.525 1.641,1.482c0.862,-0.047 1.525,-0.782 1.478,-1.641c-0.031,-0.647 -0.05,-1.294 -0.05,-1.941c0,-5.037 1.003,-10.081 2.938,-14.734c0.328,-0.797 -0.047,-1.709 -0.844,-2.041c-0.797,-0.331 -1.713,0.047 -2.044,0.844Z" style="fill:#ab7a64;fill-rule:nonzero;"/><path d="M306.219,113.637c-3.881,5.459 -7.138,11.359 -9.678,17.556c-0.328,0.8 0.053,1.712 0.853,2.037c0.797,0.328 1.709,-0.053 2.037,-0.85c2.45,-5.975 5.591,-11.668 9.335,-16.931c0.5,-0.703 0.337,-1.678 -0.366,-2.178c-0.703,-0.5 -1.678,-0.338 -2.181,0.366Z" style="fill:#ab7a64;fill-rule:nonzero;"/><path d="M285.853,143.577c-1.697,4.506 -2.831,9.222 -3.362,14.006c-0.097,0.857 0.522,1.632 1.381,1.725c0.856,0.097 1.628,-0.521 1.725,-1.381c0.503,-4.522 1.575,-8.987 3.181,-13.247c0.303,-0.806 -0.103,-1.709 -0.912,-2.012c-0.807,-0.306 -1.707,0.103 -2.013,0.909Z" style="fill:#ab7a64;fill-rule:nonzero;"/><path d="M274.766,171.205c-0.61,3.078 -0.916,6.213 -0.916,9.347c0,1.363 0.059,2.725 0.175,4.081c0.072,0.863 0.828,1.5 1.691,1.425c0.859,-0.071 1.496,-0.828 1.422,-1.69c-0.107,-1.269 -0.163,-2.541 -0.163,-3.816c0,-2.931 0.288,-5.865 0.856,-8.74c0.166,-0.847 -0.384,-1.669 -1.231,-1.835c-0.847,-0.169 -1.669,0.381 -1.834,1.228Z" style="fill:#ab7a64;fill-rule:nonzero;"/><path d="M258.341,184.427c2.571,5.191 4.009,10.95 4.172,16.738c0.025,0.862 0.743,1.54 1.606,1.515c0.862,-0.022 1.544,-0.743 1.519,-1.606c-0.179,-6.244 -1.722,-12.434 -4.497,-18.034c-0.382,-0.772 -1.319,-1.088 -2.094,-0.707c-0.772,0.385 -1.088,1.322 -0.706,2.094Z" style="fill:#ab7a64;fill-rule:nonzero;"/><path d="M292.634,168.015c3.885,-5.519 7.766,-11.038 11.65,-16.557c0.497,-0.706 0.325,-1.681 -0.378,-2.178c-0.706,-0.497 -1.681,-0.325 -2.178,0.382c-3.884,5.515 -7.765,11.034 -11.647,16.553c-0.497,0.706 -0.328,1.681 0.378,2.178c0.707,0.497 1.678,0.325 2.175,-0.378Z" style="fill:#ab7a64;fill-rule:nonzero;"/><path d="M312.866,135.402c1.843,-2.972 4.034,-5.734 6.509,-8.206c0.609,-0.613 0.609,-1.6 0,-2.209c-0.612,-0.613 -1.6,-0.613 -2.213,0c-2.643,2.643 -4.981,5.59 -6.95,8.768c-0.456,0.735 -0.231,1.697 0.504,2.15c0.731,0.457 1.697,0.232 2.15,-0.503Z" style="fill:#ab7a64;fill-rule:nonzero;"/><path d="M284.256,67.658c-2.05,5.422 -3.109,11.21 -3.109,17.007c0,0.297 0.003,0.593 0.009,0.894c0.016,0.862 0.731,1.546 1.594,1.531c0.862,-0.019 1.547,-0.732 1.531,-1.594l-0.009,-0.831c0,-5.416 0.991,-10.835 2.909,-15.9c0.303,-0.807 -0.103,-1.71 -0.909,-2.013c-0.806,-0.306 -1.709,0.1 -2.016,0.906Z" style="fill:#ab7a64;fill-rule:nonzero;"/><path d="M300.753,70.887c-3.297,5.484 -5.103,11.834 -5.184,18.231c-0.01,0.862 0.681,1.572 1.544,1.581c0.862,0.013 1.571,-0.678 1.581,-1.541c0.072,-5.834 1.731,-11.659 4.737,-16.659c0.447,-0.741 0.207,-1.7 -0.531,-2.144c-0.741,-0.446 -1.7,-0.206 -2.147,0.532Z" style="fill:#ab7a64;fill-rule:nonzero;"/><path d="M315.516,81.74c-3.31,4.443 -5.685,9.568 -6.938,14.965c-0.197,0.841 0.325,1.678 1.166,1.875c0.84,0.197 1.681,-0.328 1.878,-1.168c1.153,-4.972 3.35,-9.71 6.4,-13.807c0.515,-0.69 0.372,-1.672 -0.322,-2.184c-0.691,-0.516 -1.669,-0.372 -2.184,0.319Z" style="fill:#ab7a64;fill-rule:nonzero;"/><path d="M262.372,61.374c-0.528,2.722 -0.794,5.494 -0.794,8.269c0,1.244 0.053,2.49 0.163,3.731c0.075,0.859 0.831,1.497 1.69,1.422c0.86,-0.072 1.497,-0.831 1.422,-1.691c-0.1,-1.15 -0.15,-2.306 -0.15,-3.462c0,-2.575 0.247,-5.15 0.738,-7.675c0.162,-0.847 -0.391,-1.669 -1.238,-1.831c-0.847,-0.166 -1.669,0.39 -1.831,1.237Z" style="fill:#ab7a64;fill-rule:nonzero;"/><path d="M233.484,59.821c2.028,3.147 3.597,6.591 4.644,10.184c0.241,0.828 1.106,1.307 1.938,1.066c0.828,-0.244 1.303,-1.109 1.062,-1.938c-1.131,-3.887 -2.825,-7.603 -5.019,-11.006c-0.465,-0.725 -1.434,-0.931 -2.159,-0.465c-0.725,0.468 -0.934,1.434 -0.466,2.159Z" style="fill:#ab7a64;fill-rule:nonzero;"/><path d="M208.094,66.843c0.297,4.987 1.697,9.9 4.078,14.294c0.409,0.759 1.359,1.04 2.119,0.628c0.759,-0.41 1.04,-1.36 0.628,-2.116c-2.16,-3.987 -3.438,-8.466 -3.707,-12.991c-0.049,-0.862 -0.79,-1.518 -1.649,-1.468c-0.863,0.05 -1.519,0.79 -1.469,1.653Z" style="fill:#ab7a64;fill-rule:nonzero;"/><path d="M185.778,75.243c3.481,4.403 6.034,9.547 7.441,14.981c0.215,0.834 1.069,1.338 1.903,1.122c0.834,-0.216 1.337,-1.069 1.122,-1.906c-1.516,-5.857 -4.26,-11.388 -8.013,-16.135c-0.534,-0.678 -1.518,-0.793 -2.194,-0.256c-0.678,0.534 -0.793,1.516 -0.259,2.194Z" style="fill:#ab7a64;fill-rule:nonzero;"/><path d="M183.391,103.727c3.737,2.625 6.528,6.641 7.687,11.06c0.219,0.834 1.072,1.334 1.906,1.112c0.835,-0.219 1.335,-1.072 1.116,-1.906c-1.356,-5.153 -4.556,-9.756 -8.913,-12.822c-0.706,-0.497 -1.678,-0.328 -2.174,0.378c-0.497,0.706 -0.329,1.681 0.378,2.178Z" style="fill:#ab7a64;fill-rule:nonzero;"/><path d="M331.831,97.796c1.872,-3.659 4.469,-6.953 7.591,-9.625c0.653,-0.563 0.731,-1.55 0.169,-2.203c-0.563,-0.656 -1.55,-0.731 -2.203,-0.169c-3.432,2.941 -6.279,6.55 -8.338,10.572c-0.394,0.769 -0.091,1.709 0.678,2.103c0.769,0.394 1.71,0.088 2.103,-0.678Z" style="fill:#ab7a64;fill-rule:nonzero;"/><path d="M187.134,140.274c3.791,2.897 6.707,6.959 8.235,11.478c0.278,0.816 1.162,1.256 1.981,0.978c0.819,-0.278 1.256,-1.162 0.978,-1.981c-1.734,-5.116 -5.006,-9.675 -9.297,-12.956c-0.684,-0.525 -1.665,-0.394 -2.19,0.294c-0.522,0.684 -0.394,1.665 0.293,2.187Z" style="fill:#ab7a64;fill-rule:nonzero;"/><path d="M158.025,70.712c4.663,3.087 8.503,7.434 10.991,12.44c0.384,0.775 1.322,1.088 2.093,0.703c0.775,-0.384 1.088,-1.322 0.703,-2.093c-2.737,-5.507 -6.937,-10.26 -12.062,-13.657c-0.719,-0.475 -1.691,-0.278 -2.166,0.441c-0.478,0.719 -0.281,1.691 0.441,2.166Z" style="fill:#ab7a64;fill-rule:nonzero;"/><path d="M334.569,138.437c2.822,-3.904 6.165,-7.432 9.906,-10.463c0.672,-0.544 0.775,-1.525 0.231,-2.197c-0.54,-0.672 -1.525,-0.775 -2.197,-0.231c-3.956,3.206 -7.487,6.931 -10.475,11.059c-0.506,0.697 -0.347,1.675 0.35,2.182c0.7,0.506 1.679,0.35 2.185,-0.35Z" style="fill:#ab7a64;fill-rule:nonzero;"/><path d="M283.487,216.693c1.5,-5.469 3.926,-10.685 7.141,-15.353c0.488,-0.713 0.309,-1.685 -0.403,-2.175c-0.709,-0.488 -1.681,-0.31 -2.172,0.403c-3.412,4.959 -5.984,10.49 -7.578,16.297c-0.228,0.831 0.259,1.693 1.094,1.922c0.831,0.228 1.69,-0.263 1.918,-1.094Z" style="fill:#ab7a64;fill-rule:nonzero;"/><path d="M314.847,67.577c2.65,-3.234 5.575,-6.244 8.731,-8.987c0.65,-0.566 0.719,-1.553 0.153,-2.203c-0.565,-0.654 -1.553,-0.722 -2.203,-0.157c-3.29,2.86 -6.334,5.997 -9.097,9.366c-0.547,0.666 -0.45,1.65 0.216,2.197c0.669,0.55 1.653,0.45 2.2,-0.216Z" style="fill:#ab7a64;fill-rule:nonzero;"/><path d="M203.291,367.074c-0.222,1.453 -0.332,2.922 -0.332,4.388c0.004,3.996 0.81,7.99 2.388,11.671c0.34,0.791 1.259,1.16 2.053,0.819c0.791,-0.34 1.159,-1.259 0.819,-2.053c-1.41,-3.281 -2.135,-6.862 -2.135,-10.437c0,-1.313 0.1,-2.625 0.297,-3.919c0.128,-0.853 -0.459,-1.65 -1.312,-1.778c-0.853,-0.132 -1.65,0.456 -1.778,1.309Z" style="fill:#e19273;fill-rule:nonzero;"/><path d="M215.419,374.065c0.969,5.778 2.922,11.387 5.743,16.525c0.416,0.753 1.366,1.031 2.122,0.615c0.757,-0.415 1.032,-1.365 0.616,-2.122c-2.653,-4.825 -4.488,-10.106 -5.4,-15.537c-0.144,-0.85 -0.95,-1.425 -1.8,-1.281c-0.853,0.143 -1.425,0.95 -1.281,1.8Z" style="fill:#e19273;fill-rule:nonzero;"/><path d="M232.144,381.552c-0.125,0.997 -0.188,1.997 -0.188,3c0,4.097 1.044,8.181 3.041,11.769c0.419,0.753 1.372,1.022 2.125,0.603c0.753,-0.419 1.025,-1.372 0.606,-2.125c-1.734,-3.106 -2.65,-6.684 -2.647,-10.247c0,-0.872 0.053,-1.74 0.163,-2.603c0.109,-0.856 -0.494,-1.641 -1.35,-1.75c-0.856,-0.106 -1.641,0.497 -1.75,1.353Z" style="fill:#e19273;fill-rule:nonzero;"/><path d="M224.881,361.349c-0.09,0.85 -0.137,1.703 -0.137,2.556c0,2.26 0.315,4.519 0.94,6.691c0.238,0.831 1.104,1.312 1.935,1.072c0.828,-0.238 1.306,-1.103 1.069,-1.931c-0.541,-1.891 -0.819,-3.863 -0.819,-5.832c0,-0.743 0.04,-1.487 0.119,-2.225c0.09,-0.856 -0.529,-1.628 -1.388,-1.718c-0.859,-0.091 -1.628,0.531 -1.719,1.387Z" style="fill:#e19273;fill-rule:nonzero;"/><path d="M244.15,374.121c0.962,5.2 2.347,10.319 4.138,15.294c0.29,0.812 1.187,1.231 1.999,0.94c0.813,-0.293 1.232,-1.187 0.941,-2c-1.734,-4.812 -3.075,-9.768 -4.003,-14.803c-0.159,-0.847 -0.972,-1.409 -1.822,-1.25c-0.847,0.156 -1.409,0.972 -1.253,1.819Z" style="fill:#e19273;fill-rule:nonzero;"/><path d="M225.309,408.918c1.372,5.597 4.907,10.581 9.732,13.728c0.722,0.472 1.69,0.266 2.162,-0.456c0.472,-0.725 0.266,-1.691 -0.456,-2.163c-4.144,-2.693 -7.231,-7.05 -8.4,-11.85c-0.206,-0.837 -1.05,-1.353 -1.891,-1.147c-0.837,0.207 -1.35,1.05 -1.147,1.888Z" style="fill:#e19273;fill-rule:nonzero;"/><path d="M245.053,410.865c2.544,4.256 5.084,8.512 7.625,12.765c0.441,0.741 1.4,0.985 2.144,0.541c0.741,-0.441 0.981,-1.4 0.54,-2.141c-2.543,-4.256 -5.084,-8.512 -7.624,-12.768c-0.441,-0.741 -1.401,-0.982 -2.144,-0.541c-0.741,0.444 -0.981,1.403 -0.538,2.144l-0.003,0Z" style="fill:#e19273;fill-rule:nonzero;"/><path d="M265.247,412.046c1.081,2.559 1.637,5.347 1.637,8.131c0,0.85 -0.053,1.703 -0.156,2.55c-0.106,0.857 0.5,1.638 1.356,1.744c0.857,0.106 1.638,-0.503 1.744,-1.359c0.122,-0.975 0.181,-1.957 0.181,-2.935c0,-3.2 -0.637,-6.394 -1.881,-9.344c-0.337,-0.796 -1.253,-1.168 -2.047,-0.834c-0.797,0.338 -1.169,1.253 -0.834,2.047Z" style="fill:#e19273;fill-rule:nonzero;"/><path d="M260.116,433.699c1.631,4.175 3.468,8.266 5.506,12.259c0.391,0.766 1.331,1.072 2.1,0.682c0.769,-0.394 1.075,-1.335 0.681,-2.103c-1.987,-3.9 -3.784,-7.897 -5.375,-11.975c-0.312,-0.804 -1.219,-1.2 -2.025,-0.885c-0.803,0.313 -1.2,1.219 -0.887,2.022Z" style="fill:#e19273;fill-rule:nonzero;"/><path d="M277.428,439.799c0.284,1.894 0.425,3.809 0.425,5.725c0,3.019 -0.35,6.041 -1.047,8.975c-0.2,0.841 0.319,1.684 1.16,1.881c0.84,0.2 1.681,-0.318 1.881,-1.159c0.753,-3.175 1.131,-6.434 1.131,-9.697c0,-2.069 -0.153,-4.141 -0.459,-6.187c-0.128,-0.854 -0.922,-1.444 -1.775,-1.316c-0.853,0.128 -1.444,0.922 -1.316,1.778Z" style="fill:#e19273;fill-rule:nonzero;"/><path d="M294.219,436.724c0.015,0.306 0.022,0.613 0.022,0.922c0,3.425 -0.919,6.866 -2.635,9.828c-0.434,0.747 -0.178,1.703 0.569,2.138c0.747,0.431 1.703,0.175 2.134,-0.572c1.997,-3.45 3.057,-7.413 3.057,-11.394c0,-0.356 -0.01,-0.713 -0.025,-1.072c-0.041,-0.859 -0.775,-1.525 -1.638,-1.484c-0.862,0.04 -1.525,0.772 -1.484,1.634Z" style="fill:#e19273;fill-rule:nonzero;"/><path d="M287.722,417.29c0.044,0.437 0.062,0.875 0.062,1.315c0.003,2.994 -0.965,6.01 -2.718,8.425c-0.507,0.7 -0.353,1.675 0.347,2.185c0.696,0.506 1.674,0.35 2.181,-0.35c2.153,-2.972 3.312,-6.603 3.315,-10.26c0,-0.537 -0.025,-1.075 -0.075,-1.609c-0.081,-0.859 -0.843,-1.491 -1.703,-1.409c-0.859,0.081 -1.49,0.843 -1.409,1.703Z" style="fill:#e19273;fill-rule:nonzero;"/><path d="M309.975,407.499c0.25,0.897 0.372,1.831 0.372,2.775c0.003,2.481 -0.866,4.994 -2.438,6.878c-0.55,0.663 -0.459,1.65 0.207,2.2c0.662,0.55 1.647,0.46 2.2,-0.203c2.062,-2.494 3.153,-5.678 3.156,-8.875c0,-1.216 -0.156,-2.431 -0.488,-3.612c-0.231,-0.832 -1.093,-1.319 -1.925,-1.088c-0.831,0.231 -1.315,1.094 -1.084,1.925Z" style="fill:#e19273;fill-rule:nonzero;"/><path d="M282.816,378.799c-0.188,4.819 -0.375,9.638 -0.566,14.453c-0.034,0.866 0.641,1.591 1.5,1.625c0.863,0.035 1.591,-0.637 1.625,-1.5c0.187,-4.819 0.375,-9.637 0.563,-14.456c0.034,-0.863 -0.638,-1.591 -1.5,-1.622c-0.863,-0.034 -1.588,0.638 -1.622,1.5Z" style="fill:#e19273;fill-rule:nonzero;"/><path d="M302.141,378.221c0.037,0.656 0.056,1.309 0.056,1.966c0,4.031 -0.722,8.065 -2.128,11.843c-0.303,0.807 0.109,1.707 0.918,2.01c0.81,0.3 1.71,-0.113 2.01,-0.919c1.537,-4.131 2.325,-8.531 2.325,-12.934c0,-0.716 -0.022,-1.432 -0.063,-2.147c-0.05,-0.863 -0.79,-1.519 -1.65,-1.469c-0.862,0.05 -1.518,0.791 -1.468,1.65Z" style="fill:#e19273;fill-rule:nonzero;"/><path d="M320.966,362.337c0.281,4.331 0.565,8.662 0.846,12.996c0.057,0.86 0.801,1.513 1.663,1.457c0.859,-0.057 1.513,-0.8 1.456,-1.663c-0.281,-4.331 -0.565,-8.662 -0.847,-12.994c-0.056,-0.862 -0.8,-1.515 -1.662,-1.459c-0.859,0.056 -1.513,0.8 -1.456,1.663Z" style="fill:#e19273;fill-rule:nonzero;"/><path d="M335.119,374.23c-0.641,4.11 -1.285,8.216 -1.925,12.322c-0.135,0.853 0.45,1.65 1.303,1.785c0.85,0.134 1.65,-0.45 1.784,-1.304c0.641,-4.106 1.285,-8.212 1.925,-12.318c0.135,-0.853 -0.45,-1.653 -1.303,-1.785c-0.85,-0.134 -1.65,0.45 -1.784,1.303l0,-0.003Z" style="fill:#e19273;fill-rule:nonzero;"/><path d="M342.559,392.049c0.091,0.763 0.135,1.531 0.135,2.303c0,2.925 -0.647,5.856 -1.891,8.497c-0.369,0.781 -0.034,1.713 0.747,2.081c0.781,0.366 1.713,0.032 2.078,-0.75c1.444,-3.065 2.191,-6.443 2.191,-9.828c0,-0.894 -0.05,-1.784 -0.156,-2.672c-0.1,-0.856 -0.879,-1.468 -1.735,-1.368c-0.856,0.103 -1.469,0.878 -1.369,1.737Z" style="fill:#e19273;fill-rule:nonzero;"/><path d="M347.403,359.852c0.756,2.741 1.138,5.591 1.138,8.441c0,2.74 -0.354,5.478 -1.054,8.122c-0.221,0.834 0.276,1.69 1.11,1.912c0.834,0.219 1.69,-0.278 1.912,-1.112c0.772,-2.91 1.157,-5.916 1.157,-8.922c0,-3.128 -0.419,-6.256 -1.253,-9.275c-0.229,-0.831 -1.088,-1.319 -1.922,-1.091c-0.832,0.231 -1.319,1.091 -1.088,1.925Z" style="fill:#e19273;fill-rule:nonzero;"/><path d="M253.528,469.702c1.497,4.922 4.675,9.278 8.909,12.207c0.71,0.487 1.682,0.312 2.172,-0.401c0.491,-0.709 0.313,-1.681 -0.397,-2.171c-3.637,-2.51 -6.412,-6.31 -7.693,-10.541c-0.25,-0.828 -1.122,-1.294 -1.947,-1.044c-0.828,0.253 -1.294,1.125 -1.044,1.95Z" style="fill:#e19273;fill-rule:nonzero;"/><path d="M269.453,471.308l-0.003,0.191c0.013,6.075 3.275,11.941 8.441,15.147c0.734,0.453 1.7,0.225 2.153,-0.509c0.453,-0.735 0.225,-1.697 -0.51,-2.15c-4.206,-2.582 -6.971,-7.55 -6.959,-12.488l0,-0.153c0.013,-0.863 -0.681,-1.572 -1.544,-1.581c-0.862,-0.01 -1.568,0.681 -1.578,1.543Z" style="fill:#e19273;fill-rule:nonzero;"/><path d="M287.681,465.015c0.094,0.79 0.141,1.587 0.141,2.384c0,3.122 -0.71,6.253 -2.072,9.056c-0.378,0.778 -0.053,1.713 0.725,2.088c0.775,0.378 1.709,0.053 2.088,-0.722c1.571,-3.241 2.384,-6.828 2.384,-10.422c0,-0.919 -0.053,-1.837 -0.163,-2.75c-0.1,-0.856 -0.875,-1.472 -1.734,-1.369c-0.856,0.1 -1.469,0.878 -1.369,1.735Z" style="fill:#e19273;fill-rule:nonzero;"/><path d="M293.706,490.458c-1.034,3.654 -3.159,7.016 -6.018,9.516c-0.65,0.569 -0.716,1.556 -0.147,2.206c0.568,0.65 1.556,0.716 2.206,0.147c3.319,-2.909 5.762,-6.772 6.966,-11.015c0.237,-0.832 -0.244,-1.694 -1.076,-1.932c-0.831,-0.234 -1.693,0.247 -1.928,1.078l-0.003,0Z" style="fill:#e19273;fill-rule:nonzero;"/><path d="M306.206,455.599c-1.356,4.484 -2.947,8.897 -4.759,13.219c-0.334,0.797 0.04,1.712 0.837,2.044c0.794,0.334 1.71,-0.041 2.044,-0.835c1.853,-4.419 3.481,-8.934 4.869,-13.522c0.25,-0.825 -0.216,-1.697 -1.041,-1.947c-0.825,-0.249 -1.697,0.216 -1.95,1.041Z" style="fill:#e19273;fill-rule:nonzero;"/><path d="M155.016,496.53c-0.022,0.472 -0.032,0.944 -0.032,1.419c0,4.934 1.075,9.859 3.138,14.344c0.359,0.784 1.287,1.128 2.072,0.769c0.784,-0.363 1.125,-1.291 0.765,-2.075c-1.871,-4.069 -2.85,-8.557 -2.85,-13.038c0,-0.431 0.01,-0.859 0.028,-1.287c0.035,-0.863 -0.634,-1.591 -1.496,-1.625c-0.863,-0.038 -1.591,0.634 -1.625,1.493Z" style="fill:#ab7a64;fill-rule:nonzero;"/><path d="M165.619,502.277c-0.05,0.644 -0.075,1.291 -0.075,1.938c0.003,4.74 1.328,9.462 3.828,13.503c0.453,0.731 1.415,0.959 2.15,0.506c0.734,-0.456 0.962,-1.419 0.506,-2.153c-2.184,-3.528 -3.359,-7.7 -3.359,-11.856c0,-0.566 0.022,-1.132 0.065,-1.697c0.069,-0.86 -0.575,-1.613 -1.437,-1.678c-0.86,-0.066 -1.609,0.578 -1.678,1.437Z" style="fill:#ab7a64;fill-rule:nonzero;"/><path d="M163.069,530.137c-0.191,0.837 -0.282,1.69 -0.282,2.537c0.013,4.216 2.201,8.35 5.869,10.581c0.738,0.447 1.697,0.21 2.144,-0.531c0.447,-0.737 0.209,-1.697 -0.531,-2.144c-2.644,-1.578 -4.369,-4.784 -4.357,-7.906c0,-0.622 0.069,-1.244 0.204,-1.847c0.193,-0.84 -0.335,-1.678 -1.175,-1.868c-0.844,-0.191 -1.678,0.337 -1.872,1.178Z" style="fill:#ab7a64;fill-rule:nonzero;"/><path d="M174.194,528.69c1.212,6.956 4.762,13.45 9.959,18.225c0.638,0.584 1.625,0.54 2.21,-0.094c0.584,-0.638 0.54,-1.625 -0.094,-2.209c-4.685,-4.294 -7.91,-10.197 -8.997,-16.457c-0.147,-0.85 -0.956,-1.418 -1.806,-1.272c-0.85,0.15 -1.419,0.957 -1.272,1.81l0,-0.003Z" style="fill:#ab7a64;fill-rule:nonzero;"/><path d="M182.822,567.512c1.953,4.025 5.028,7.478 8.8,9.881c0.725,0.465 1.691,0.25 2.156,-0.475c0.463,-0.728 0.25,-1.694 -0.478,-2.16c-3.275,-2.087 -5.972,-5.112 -7.666,-8.609c-0.378,-0.775 -1.312,-1.1 -2.087,-0.725c-0.778,0.378 -1.1,1.313 -0.725,2.091l0,-0.003Z" style="fill:#ab7a64;fill-rule:nonzero;"/><path d="M192.244,534.774c-0.025,0.325 -0.038,0.653 -0.038,0.978c0.019,5.025 3.035,9.825 7.638,11.938c0.787,0.356 1.712,0.009 2.069,-0.778c0.356,-0.785 0.009,-1.713 -0.776,-2.069c-3.412,-1.522 -5.828,-5.347 -5.806,-9.091l0.028,-0.725c0.069,-0.859 -0.568,-1.612 -1.431,-1.684c-0.859,-0.069 -1.612,0.569 -1.684,1.431Z" style="fill:#ab7a64;fill-rule:nonzero;"/><path d="M389.591,486.84c-1.147,4.587 -2.294,9.178 -3.444,13.768c-0.209,0.838 0.3,1.685 1.137,1.894c0.838,0.21 1.685,-0.3 1.894,-1.134c1.15,-4.591 2.297,-9.181 3.447,-13.772c0.209,-0.838 -0.3,-1.684 -1.137,-1.894c-0.838,-0.209 -1.688,0.3 -1.894,1.138l-0.003,0Z" style="fill:#ab7a64;fill-rule:nonzero;"/><path d="M396.884,505.118c-0.528,4.669 -2.156,9.222 -4.709,13.169c-0.469,0.725 -0.259,1.69 0.466,2.159c0.725,0.469 1.69,0.262 2.159,-0.463c2.816,-4.356 4.603,-9.359 5.191,-14.512c0.096,-0.856 -0.522,-1.631 -1.378,-1.728c-0.857,-0.097 -1.632,0.519 -1.729,1.375Z" style="fill:#ab7a64;fill-rule:nonzero;"/><path d="M400.397,473.587c0.05,0.884 0.075,1.768 0.075,2.653c0,4.559 -0.666,9.118 -1.972,13.484c-0.247,0.828 0.225,1.7 1.05,1.947c0.828,0.247 1.697,-0.225 1.947,-1.05c1.39,-4.659 2.1,-9.519 2.1,-14.381c0,-0.944 -0.028,-1.888 -0.081,-2.831c-0.05,-0.86 -0.788,-1.519 -1.647,-1.469c-0.863,0.047 -1.522,0.784 -1.472,1.647Z" style="fill:#ab7a64;fill-rule:nonzero;"/><path d="M370.734,548.155c-1.456,4.885 -4.003,9.457 -7.393,13.263c-0.572,0.647 -0.516,1.634 0.128,2.206c0.647,0.575 1.634,0.516 2.206,-0.128c3.7,-4.156 6.466,-9.119 8.053,-14.45c0.247,-0.825 -0.225,-1.697 -1.05,-1.944c-0.828,-0.247 -1.697,0.225 -1.944,1.053Z" style="fill:#ab7a64;fill-rule:nonzero;"/><path d="M378.659,556.055c-1.237,3.853 -3.731,7.322 -6.987,9.722c-0.697,0.513 -0.844,1.491 -0.331,2.185c0.512,0.693 1.49,0.843 2.184,0.331c3.794,-2.803 6.662,-6.791 8.109,-11.278c0.266,-0.822 -0.187,-1.703 -1.009,-1.969c-0.822,-0.263 -1.7,0.187 -1.966,1.009Z" style="fill:#ab7a64;fill-rule:nonzero;"/><path d="M398.728,543.312c-0.575,3.89 -1.878,7.678 -3.819,11.1c-0.425,0.75 -0.159,1.706 0.591,2.131c0.75,0.425 1.703,0.162 2.131,-0.591c2.128,-3.759 3.556,-7.909 4.188,-12.181c0.128,-0.856 -0.463,-1.65 -1.316,-1.775c-0.853,-0.128 -1.647,0.462 -1.775,1.316Z" style="fill:#ab7a64;fill-rule:nonzero;"/><path d="M170.022,589.608c-0.138,0.972 -0.203,1.954 -0.203,2.932c0,4.859 1.65,9.69 4.69,13.506c0.538,0.675 1.522,0.784 2.197,0.247c0.675,-0.538 0.785,-1.522 0.247,-2.197c-2.581,-3.231 -4.012,-7.406 -4.009,-11.556c0,-0.835 0.056,-1.669 0.172,-2.494c0.121,-0.856 -0.472,-1.647 -1.328,-1.766c-0.854,-0.121 -1.644,0.472 -1.766,1.328Z" style="fill:#ab7a64;fill-rule:nonzero;"/><path d="M817.337,356.48c0.916,4.057 1.375,8.222 1.375,12.385c0,3.39 -0.303,6.781 -0.915,10.115c-0.153,0.85 0.406,1.663 1.256,1.819c0.85,0.156 1.663,-0.406 1.819,-1.256c0.644,-3.522 0.965,-7.1 0.965,-10.678c0,-4.394 -0.484,-8.788 -1.453,-13.072c-0.187,-0.844 -1.025,-1.372 -1.865,-1.181c-0.844,0.19 -1.372,1.025 -1.182,1.868Z" style="fill:#e19273;fill-rule:nonzero;"/><path d="M807.272,369.002c-0.538,6.256 -1.078,12.516 -1.619,18.772c-0.075,0.859 0.563,1.616 1.422,1.691c0.859,0.075 1.619,-0.563 1.691,-1.422c0.54,-6.256 1.081,-12.516 1.621,-18.772c0.072,-0.859 -0.562,-1.616 -1.425,-1.691c-0.859,-0.075 -1.615,0.563 -1.69,1.422Z" style="fill:#e19273;fill-rule:nonzero;"/><path d="M814.447,402.999c-0.041,5.038 -1.597,10.081 -4.403,14.263c-0.481,0.715 -0.291,1.687 0.425,2.168c0.719,0.482 1.687,0.288 2.168,-0.428c3.154,-4.703 4.888,-10.315 4.935,-15.978c0.006,-0.862 -0.688,-1.566 -1.553,-1.575c-0.863,-0.006 -1.566,0.688 -1.572,1.55Z" style="fill:#e19273;fill-rule:nonzero;"/><path d="M796.884,399.246c-0.578,5.156 -2.09,10.209 -4.443,14.831c-0.391,0.769 -0.085,1.71 0.684,2.1c0.769,0.394 1.709,0.088 2.1,-0.681c2.525,-4.963 4.147,-10.372 4.766,-15.9c0.096,-0.859 -0.522,-1.631 -1.378,-1.728c-0.86,-0.097 -1.632,0.522 -1.729,1.378Z" style="fill:#e19273;fill-rule:nonzero;"/><path d="M796.222,430.074c-1.147,5.397 -3.716,10.506 -7.369,14.644c-0.569,0.647 -0.509,1.634 0.141,2.206c0.647,0.569 1.634,0.509 2.203,-0.137c4.012,-4.55 6.819,-10.132 8.081,-16.063c0.178,-0.844 -0.359,-1.675 -1.203,-1.853c-0.844,-0.181 -1.675,0.359 -1.853,1.203Z" style="fill:#e19273;fill-rule:nonzero;"/><path d="M809.916,437.233c-1.397,5.713 -4.638,10.994 -9.104,14.822c-0.653,0.563 -0.728,1.55 -0.168,2.207c0.562,0.653 1.55,0.728 2.203,0.165c4.972,-4.269 8.547,-10.09 10.103,-16.453c0.206,-0.837 -0.309,-1.684 -1.147,-1.887c-0.837,-0.207 -1.684,0.306 -1.887,1.146Z" style="fill:#e19273;fill-rule:nonzero;"/><path d="M772.303,433.968c-2.522,5.478 -6.019,10.515 -10.275,14.79c-0.609,0.61 -0.609,1.6 0.003,2.21c0.613,0.609 1.6,0.606 2.21,-0.006c4.518,-4.538 8.225,-9.872 10.903,-15.688c0.359,-0.784 0.019,-1.712 -0.766,-2.072c-0.784,-0.362 -1.712,-0.019 -2.075,0.766Z" style="fill:#e19273;fill-rule:nonzero;"/><path d="M777.553,404.327c-0.534,5.697 -1.956,11.313 -4.194,16.578l-0.456,0.719l-0.147,0.125l0.2,0.356l0,-0.393l-0.2,0.037l0.2,0.356l0,-0.393l0,0.59l0.307,-0.509l-0.307,-0.081l0,0.59l0.307,-0.509c-0.741,-0.447 -1.7,-0.206 -2.144,0.531c-0.447,0.741 -0.21,1.7 0.531,2.147c0.388,0.234 0.859,0.369 1.306,0.366c1.053,-0.022 1.728,-0.566 2.207,-1.057c0.487,-0.515 0.828,-1.081 1.075,-1.653c2.362,-5.562 3.862,-11.49 4.428,-17.506c0.078,-0.859 -0.553,-1.622 -1.413,-1.703c-0.859,-0.081 -1.619,0.55 -1.7,1.409Z" style="fill:#e19273;fill-rule:nonzero;"/><path d="M787.466,369.055c-0.425,5.782 -1.475,11.516 -3.125,17.075c-0.247,0.825 0.222,1.697 1.05,1.941c0.828,0.247 1.696,-0.225 1.943,-1.05c1.716,-5.775 2.807,-11.731 3.247,-17.741c0.063,-0.859 -0.584,-1.606 -1.443,-1.672c-0.863,-0.062 -1.61,0.585 -1.672,1.447Z" style="fill:#e19273;fill-rule:nonzero;"/><path d="M768.006,382.946c0.066,1.072 0.097,2.144 0.097,3.219c0,4.378 -0.534,8.756 -1.594,13.003c-0.25,1.022 -0.678,2.119 -1.19,2.84c-0.544,0.738 -0.991,1.007 -1.535,1.025c-0.862,0.019 -1.546,0.735 -1.525,1.6c0.019,0.863 0.738,1.544 1.6,1.522c1.816,-0.037 3.185,-1.147 4.01,-2.347c0.853,-1.215 1.35,-2.615 1.672,-3.884c1.122,-4.497 1.687,-9.128 1.687,-13.759c0,-1.138 -0.034,-2.272 -0.103,-3.407c-0.05,-0.862 -0.791,-1.518 -1.653,-1.465c-0.859,0.05 -1.516,0.791 -1.466,1.653Z" style="fill:#e19273;fill-rule:nonzero;"/><path d="M752.547,431.08c-0.038,4.41 -2.331,8.832 -5.913,11.4c-0.7,0.503 -0.859,1.482 -0.353,2.182c0.503,0.7 1.478,0.859 2.182,0.353c4.412,-3.191 7.14,-8.453 7.209,-13.9c0.009,-0.863 -0.681,-1.569 -1.544,-1.578c-0.862,-0.01 -1.572,0.681 -1.578,1.543l-0.003,0Z" style="fill:#e19273;fill-rule:nonzero;"/><path d="M777.8,465.418c-2.522,4.85 -5.828,9.297 -9.741,13.112c-0.618,0.6 -0.631,1.591 -0.028,2.21c0.603,0.615 1.591,0.628 2.21,0.028c4.153,-4.05 7.653,-8.76 10.331,-13.906c0.4,-0.766 0.103,-1.707 -0.663,-2.107c-0.765,-0.4 -1.709,-0.1 -2.109,0.666l0,-0.003Z" style="fill:#e19273;fill-rule:nonzero;"/><path d="M791.878,471.305c-0.453,5.347 -2.853,10.55 -6.625,14.366c-0.606,0.616 -0.6,1.603 0.013,2.209c0.615,0.607 1.603,0.6 2.209,-0.012c4.297,-4.356 6.994,-10.203 7.516,-16.297c0.075,-0.859 -0.563,-1.616 -1.422,-1.691c-0.86,-0.072 -1.619,0.566 -1.691,1.425Z" style="fill:#e19273;fill-rule:nonzero;"/><path d="M804.897,468.327c-0.606,3.878 -2.038,7.638 -4.166,10.935c-0.465,0.728 -0.256,1.693 0.469,2.159c0.725,0.469 1.691,0.259 2.159,-0.466c2.366,-3.668 3.95,-7.831 4.625,-12.143c0.135,-0.854 -0.45,-1.653 -1.303,-1.785c-0.853,-0.134 -1.65,0.45 -1.784,1.3Z" style="fill:#e19273;fill-rule:nonzero;"/><path d="M813.475,488.774c-2.641,5.897 -6.172,11.394 -10.437,16.25c-0.569,0.647 -0.504,1.634 0.143,2.203c0.65,0.569 1.635,0.506 2.207,-0.14c4.471,-5.091 8.171,-10.854 10.94,-17.035c0.353,-0.787 0,-1.712 -0.787,-2.065c-0.788,-0.354 -1.713,0 -2.066,0.787Z" style="fill:#e19273;fill-rule:nonzero;"/><path d="M748.516,468.608c-1.735,4.247 -4.494,8.091 -7.966,11.091c-0.653,0.566 -0.725,1.553 -0.159,2.203c0.565,0.653 1.55,0.725 2.203,0.163c3.85,-3.332 6.89,-7.566 8.815,-12.275c0.325,-0.8 -0.056,-1.71 -0.856,-2.038c-0.797,-0.325 -1.709,0.056 -2.037,0.856Z" style="fill:#e19273;fill-rule:nonzero;"/><path d="M755.641,473.458c-2.144,4.279 -5.044,8.182 -8.522,11.466c-0.628,0.594 -0.657,1.581 -0.063,2.209c0.591,0.629 1.582,0.657 2.206,0.063c3.747,-3.538 6.863,-7.731 9.172,-12.334c0.388,-0.772 0.075,-1.713 -0.697,-2.097c-0.771,-0.388 -1.709,-0.075 -2.096,0.697l0,-0.004Z" style="fill:#e19273;fill-rule:nonzero;"/><path d="M763.734,497.515c-1.725,4.703 -5.346,8.731 -9.84,10.943c-0.772,0.382 -1.091,1.319 -0.71,2.091c0.382,0.775 1.319,1.094 2.094,0.709c5.231,-2.584 9.372,-7.19 11.388,-12.665c0.296,-0.81 -0.116,-1.71 -0.929,-2.006c-0.809,-0.297 -1.706,0.118 -2.003,0.928Z" style="fill:#e19273;fill-rule:nonzero;"/><path d="M764.056,525.843c-4.147,4.806 -9.406,8.659 -15.24,11.162c-0.791,0.341 -1.16,1.26 -0.819,2.053c0.341,0.794 1.259,1.16 2.053,0.819c6.272,-2.694 11.912,-6.825 16.372,-11.994c0.562,-0.653 0.491,-1.64 -0.163,-2.203c-0.653,-0.565 -1.64,-0.49 -2.203,0.163Z" style="fill:#e19273;fill-rule:nonzero;"/><path d="M745.416,522.415c-2.285,2.962 -5.135,5.493 -8.344,7.412c-0.741,0.444 -0.981,1.403 -0.538,2.144c0.444,0.741 1.403,0.981 2.144,0.541c3.547,-2.125 6.685,-4.916 9.209,-8.188c0.529,-0.681 0.401,-1.662 -0.281,-2.191c-0.684,-0.528 -1.665,-0.4 -2.19,0.282Z" style="fill:#e19273;fill-rule:nonzero;"/><path d="M776.638,523.821c-0.501,4.5 -3.469,8.756 -7.522,10.778c-0.769,0.388 -1.082,1.325 -0.694,2.097c0.387,0.772 1.325,1.084 2.097,0.697c5.031,-2.541 8.575,-7.619 9.225,-13.219c0.097,-0.856 -0.519,-1.631 -1.378,-1.728c-0.857,-0.097 -1.632,0.519 -1.728,1.375Z" style="fill:#e19273;fill-rule:nonzero;"/><path d="M737.047,415.471c-2.063,6.394 -5.903,12.222 -10.963,16.634c-0.65,0.569 -0.718,1.557 -0.15,2.207c0.566,0.65 1.554,0.715 2.204,0.15c5.493,-4.797 9.643,-11.091 11.881,-18.032c0.265,-0.818 -0.185,-1.7 -1.007,-1.965c-0.821,-0.266 -1.7,0.187 -1.965,1.009l0,-0.003Z" style="fill:#e19273;fill-rule:nonzero;"/><path d="M759.331,341.258c0.128,1.135 0.188,2.275 0.188,3.416c0,4.491 -0.963,8.991 -2.822,13.072c-0.356,0.787 -0.01,1.712 0.778,2.072c0.784,0.356 1.709,0.009 2.069,-0.778c2.043,-4.5 3.1,-9.428 3.1,-14.366c0,-1.256 -0.066,-2.509 -0.207,-3.756c-0.093,-0.86 -0.865,-1.478 -1.721,-1.381c-0.86,0.093 -1.478,0.865 -1.385,1.721Z" style="fill:#e19273;fill-rule:nonzero;"/><path d="M799.706,333.88c0,4.563 0,9.122 0,13.685c0,0.862 0.7,1.562 1.563,1.562c0.862,0 1.562,-0.7 1.562,-1.562c0,-4.563 0,-9.122 0,-13.685c0,-0.862 -0.7,-1.562 -1.562,-1.562c-0.863,0 -1.563,0.7 -1.563,1.562Z" style="fill:#e19273;fill-rule:nonzero;"/><path d="M692.234,576.124c6.019,-1.522 11.575,-4.741 15.885,-9.203c0.6,-0.622 0.581,-1.613 -0.041,-2.209c-0.619,-0.6 -1.609,-0.585 -2.209,0.037c-3.897,4.041 -8.956,6.972 -14.397,8.344c-0.838,0.212 -1.344,1.059 -1.134,1.897c0.212,0.837 1.062,1.343 1.9,1.134l-0.004,0Z" style="fill:#e19273;fill-rule:nonzero;"/><path d="M699.9,582.53c5.344,-0.572 10.35,-3.393 13.606,-7.668c0.522,-0.688 0.391,-1.666 -0.297,-2.191c-0.687,-0.522 -1.668,-0.388 -2.19,0.3c-2.71,3.572 -6.991,5.984 -11.447,6.45c-0.86,0.091 -1.481,0.859 -1.391,1.719c0.091,0.859 0.86,1.481 1.719,1.39Z" style="fill:#e19273;fill-rule:nonzero;"/><path d="M723.725,583.24c4.453,-2.613 8.494,-5.919 11.931,-9.772c0.575,-0.644 0.519,-1.631 -0.125,-2.206c-0.643,-0.575 -1.631,-0.519 -2.206,0.125c-3.222,3.609 -7.009,6.712 -11.181,9.156c-0.744,0.437 -0.994,1.394 -0.56,2.137c0.438,0.747 1.394,0.997 2.141,0.56Z" style="fill:#e19273;fill-rule:nonzero;"/><path d="M724.112,562.887c5.713,-2.469 10.591,-6.763 13.766,-12.113c0.441,-0.744 0.197,-1.703 -0.547,-2.144c-0.74,-0.437 -1.7,-0.193 -2.14,0.547c-2.828,4.775 -7.222,8.641 -12.319,10.841c-0.791,0.344 -1.156,1.262 -0.813,2.056c0.341,0.791 1.263,1.156 2.053,0.813Z" style="fill:#e19273;fill-rule:nonzero;"/><path d="M600.106,598.584c1.628,0.209 3.266,0.312 4.903,0.312c5.466,0 10.925,-1.15 15.919,-3.384c0.788,-0.35 1.141,-1.275 0.788,-2.063c-0.353,-0.787 -1.275,-1.141 -2.063,-0.787c-4.584,2.05 -9.619,3.109 -14.644,3.109c-1.506,0 -3.012,-0.094 -4.503,-0.288c-0.856,-0.109 -1.64,0.497 -1.75,1.354c-0.109,0.856 0.497,1.637 1.353,1.747l-0.003,0Z" style="fill:#e19273;fill-rule:nonzero;"/><path d="M617.072,607.018c5.025,-0.506 9.925,-2.094 14.29,-4.631c0.747,-0.435 1.001,-1.391 0.566,-2.135c-0.431,-0.747 -1.387,-1 -2.134,-0.565c-3.975,2.309 -8.46,3.762 -13.035,4.221c-0.856,0.085 -1.484,0.85 -1.396,1.71c0.084,0.859 0.853,1.484 1.709,1.4Z" style="fill:#e19273;fill-rule:nonzero;"/><path d="M635.766,587.696c5.646,-0.431 11.134,-2.513 15.647,-5.934c0.687,-0.522 0.821,-1.504 0.299,-2.191c-0.518,-0.688 -1.499,-0.822 -2.187,-0.3c-4.022,3.053 -8.959,4.925 -13.997,5.309c-0.859,0.066 -1.503,0.816 -1.437,1.675c0.065,0.863 0.815,1.507 1.675,1.441Z" style="fill:#e19273;fill-rule:nonzero;"/><path d="M636.191,569.155c0.393,0.032 0.787,0.047 1.181,0.047c5.253,-0.012 10.353,-2.812 13.112,-7.322c0.45,-0.737 0.216,-1.697 -0.522,-2.147c-0.734,-0.45 -1.696,-0.215 -2.146,0.522c-2.128,3.525 -6.319,5.835 -10.444,5.822c-0.309,0 -0.616,-0.012 -0.922,-0.037c-0.859,-0.072 -1.616,0.568 -1.687,1.428c-0.069,0.859 0.568,1.615 1.428,1.687Z" style="fill:#e19273;fill-rule:nonzero;"/><path d="M676.922,558.765c3.965,-2.332 7.781,-4.916 11.415,-7.738c0.682,-0.528 0.807,-1.509 0.276,-2.19c-0.529,-0.685 -1.51,-0.807 -2.191,-0.279c-3.528,2.738 -7.231,5.25 -11.081,7.513c-0.747,0.437 -0.994,1.394 -0.557,2.137c0.438,0.744 1.394,0.994 2.138,0.557Z" style="fill:#e19273;fill-rule:nonzero;"/><path d="M665.838,544.455c5.128,-2.015 9.743,-5.284 13.346,-9.453c0.566,-0.653 0.494,-1.637 -0.159,-2.203c-0.653,-0.566 -1.641,-0.494 -2.203,0.16c-3.269,3.781 -7.475,6.762 -12.125,8.587c-0.803,0.316 -1.2,1.222 -0.885,2.025c0.316,0.803 1.222,1.2 2.026,0.884Z" style="fill:#e19273;fill-rule:nonzero;"/><path d="M700.797,525.752c4.915,-0.994 9.144,-4.503 11.025,-9.153c0.322,-0.8 -0.066,-1.709 -0.866,-2.031c-0.8,-0.322 -1.712,0.065 -2.034,0.865c-1.444,3.632 -4.903,6.5 -8.738,7.254c-0.846,0.168 -1.396,0.99 -1.228,1.837c0.169,0.847 0.994,1.397 1.841,1.228Z" style="fill:#e19273;fill-rule:nonzero;"/><path d="M706.941,534.571c5.065,-3.078 9.359,-7.391 12.415,-12.472c0.447,-0.737 0.206,-1.7 -0.534,-2.144c-0.738,-0.443 -1.697,-0.206 -2.144,0.535c-2.79,4.64 -6.731,8.6 -11.359,11.409c-0.738,0.45 -0.972,1.409 -0.525,2.147c0.45,0.737 1.409,0.972 2.147,0.525Z" style="fill:#e19273;fill-rule:nonzero;"/><path d="M710.634,493.677c3.972,-2.415 6.747,-6.578 7.447,-11.175c0.128,-0.853 -0.459,-1.65 -1.315,-1.778c-0.854,-0.128 -1.647,0.459 -1.775,1.313c-0.541,3.643 -2.822,7.065 -5.975,8.965c-0.741,0.447 -0.975,1.41 -0.529,2.147c0.447,0.738 1.407,0.975 2.147,0.528Z" style="fill:#e19273;fill-rule:nonzero;"/><path d="M660.872,511.249c4.419,-2.025 7.884,-5.897 9.412,-10.509c0.269,-0.822 -0.175,-1.703 -0.996,-1.975c-0.819,-0.269 -1.704,0.175 -1.972,0.997c-1.235,3.759 -4.141,7.006 -7.741,8.646c-0.788,0.357 -1.131,1.285 -0.772,2.069c0.356,0.785 1.285,1.131 2.069,0.772Z" style="fill:#e19273;fill-rule:nonzero;"/><path d="M707.366,356.321c0.043,0.625 0.062,1.25 0.062,1.878c0.003,6.55 -2.272,13.122 -6.356,18.241c-0.541,0.675 -0.428,1.656 0.247,2.193c0.675,0.541 1.656,0.429 2.194,-0.246c4.537,-5.694 7.037,-12.919 7.04,-20.188c0,-0.697 -0.022,-1.391 -0.069,-2.087c-0.056,-0.86 -0.803,-1.513 -1.662,-1.453c-0.863,0.056 -1.513,0.799 -1.456,1.662Z" style="fill:#e19273;fill-rule:nonzero;"/><path d="M714.122,369.699c-0.719,5.469 -2.875,10.756 -6.188,15.166c-0.518,0.69 -0.378,1.672 0.313,2.187c0.691,0.519 1.669,0.381 2.187,-0.309c3.638,-4.85 5.994,-10.628 6.788,-16.638c0.112,-0.856 -0.491,-1.64 -1.347,-1.753c-0.856,-0.112 -1.641,0.491 -1.753,1.347Z" style="fill:#e19273;fill-rule:nonzero;"/><path d="M644.975,467.537c-1.503,7.493 -5.203,14.553 -10.509,20.053c-0.6,0.618 -0.582,1.609 0.04,2.209c0.619,0.597 1.61,0.581 2.21,-0.041c5.725,-5.94 9.697,-13.518 11.325,-21.606c0.168,-0.847 -0.379,-1.669 -1.225,-1.84c-0.847,-0.169 -1.669,0.378 -1.841,1.225Z" style="fill:#e19273;fill-rule:nonzero;"/><path d="M649.472,480.508c-1.056,4.775 -3.625,9.235 -7.228,12.544c-0.635,0.585 -0.675,1.572 -0.091,2.206c0.585,0.638 1.572,0.679 2.209,0.094c4.079,-3.756 6.96,-8.756 8.16,-14.169c0.187,-0.843 -0.347,-1.678 -1.188,-1.862c-0.843,-0.187 -1.678,0.344 -1.862,1.187Z" style="fill:#e19273;fill-rule:nonzero;"/><path d="M548.3,516.833c2.353,-3.896 3.747,-8.35 4.034,-12.89c0.053,-0.86 -0.6,-1.603 -1.462,-1.656c-0.863,-0.057 -1.603,0.6 -1.656,1.459c-0.257,4.034 -1.5,8.012 -3.591,11.472c-0.447,0.737 -0.209,1.7 0.528,2.144c0.741,0.446 1.7,0.209 2.147,-0.529Z" style="fill:#e19273;fill-rule:nonzero;"/><path d="M552.663,528.537c3.868,-5.332 6.728,-11.385 8.387,-17.76c0.219,-0.837 -0.284,-1.69 -1.119,-1.906c-0.834,-0.219 -1.687,0.281 -1.906,1.119c-1.559,5.993 -4.253,11.7 -7.894,16.712c-0.506,0.697 -0.35,1.675 0.347,2.181c0.7,0.507 1.675,0.354 2.185,-0.346Z" style="fill:#e19273;fill-rule:nonzero;"/><path d="M562.4,497.118c2.141,-7.413 3.678,-15 4.587,-22.663c0.104,-0.856 -0.509,-1.634 -1.365,-1.737c-0.859,-0.1 -1.635,0.512 -1.738,1.369c-0.89,7.493 -2.39,14.912 -4.487,22.162c-0.238,0.828 0.237,1.697 1.069,1.934c0.828,0.241 1.693,-0.237 1.934,-1.065Z" style="fill:#e19273;fill-rule:nonzero;"/><path d="M555.653,481.652c0.666,-6.728 1.335,-13.453 2,-20.181c0.084,-0.859 -0.544,-1.625 -1.4,-1.709c-0.859,-0.085 -1.625,0.543 -1.709,1.4c-0.669,6.728 -1.335,13.453 -2,20.181c-0.085,0.859 0.54,1.625 1.4,1.709c0.859,0.085 1.625,-0.54 1.709,-1.4Z" style="fill:#e19273;fill-rule:nonzero;"/><path d="M570.359,459.652c-0.44,-2.925 -0.662,-5.884 -0.662,-8.84c0,-1.266 0.04,-2.532 0.122,-3.791c0.056,-0.863 -0.597,-1.606 -1.46,-1.659c-0.859,-0.057 -1.603,0.596 -1.659,1.456c-0.084,1.331 -0.128,2.662 -0.128,3.994c0,3.112 0.234,6.228 0.697,9.306c0.131,0.853 0.925,1.44 1.781,1.312c0.853,-0.131 1.441,-0.925 1.309,-1.778Z" style="fill:#e19273;fill-rule:nonzero;"/><path d="M578.888,479.746c1.043,-4.213 1.568,-8.547 1.568,-12.884c0,-1.647 -0.075,-3.291 -0.228,-4.932c-0.078,-0.859 -0.84,-1.49 -1.7,-1.412c-0.859,0.081 -1.491,0.84 -1.412,1.7c0.143,1.544 0.215,3.094 0.215,4.644c0,4.084 -0.497,8.168 -1.478,12.131c-0.206,0.837 0.303,1.684 1.141,1.894c0.837,0.206 1.684,-0.304 1.894,-1.141Z" style="fill:#e19273;fill-rule:nonzero;"/><path d="M576.931,501.699c2.241,-3.244 3.444,-7.15 3.447,-11.084c0,-0.428 -0.016,-0.86 -0.044,-1.288c-0.059,-0.862 -0.803,-1.512 -1.665,-1.453c-0.86,0.056 -1.513,0.803 -1.453,1.663c0.025,0.359 0.037,0.718 0.037,1.078c0,3.29 -1.022,6.603 -2.894,9.306c-0.49,0.709 -0.312,1.684 0.397,2.175c0.713,0.491 1.685,0.312 2.175,-0.397Z" style="fill:#e19273;fill-rule:nonzero;"/><path d="M527.969,546.771c5.628,-1.763 10.075,-6.553 11.415,-12.297c0.194,-0.841 -0.331,-1.678 -1.171,-1.872c-0.841,-0.194 -1.679,0.328 -1.872,1.169c-1.05,4.609 -4.782,8.628 -9.297,10.016c-0.825,0.253 -1.285,1.131 -1.028,1.953c0.256,0.825 1.131,1.284 1.953,1.031Z" style="fill:#e19273;fill-rule:nonzero;"/><path d="M537.009,560.583c4.566,-2.678 8.332,-6.656 10.757,-11.359c0.397,-0.766 0.093,-1.706 -0.672,-2.103c-0.769,-0.394 -1.71,-0.094 -2.106,0.672c-2.147,4.169 -5.513,7.725 -9.56,10.097c-0.744,0.434 -0.994,1.393 -0.556,2.137c0.437,0.744 1.394,0.994 2.137,0.556Z" style="fill:#e19273;fill-rule:nonzero;"/><path d="M564.269,409.593c0.272,4.319 0.544,8.637 0.815,12.956c0.057,0.863 0.797,1.516 1.66,1.459c0.859,-0.053 1.515,-0.793 1.462,-1.656c-0.275,-4.319 -0.547,-8.637 -0.818,-12.956c-0.057,-0.863 -0.797,-1.516 -1.66,-1.463c-0.859,0.057 -1.516,0.797 -1.459,1.66Z" style="fill:#e19273;fill-rule:nonzero;"/><path d="M575.541,417.733c1.047,5.847 1.628,11.779 1.743,17.716c0.016,0.863 0.729,1.55 1.591,1.534c0.863,-0.015 1.55,-0.731 1.531,-1.593c-0.115,-6.103 -0.715,-12.197 -1.79,-18.207c-0.15,-0.85 -0.963,-1.415 -1.813,-1.262c-0.85,0.15 -1.415,0.962 -1.262,1.812Z" style="fill:#e19273;fill-rule:nonzero;"/><path d="M503.038,570.999c5.115,-1.991 9.774,-5.125 13.553,-9.112c0.59,-0.625 0.565,-1.616 -0.063,-2.21c-0.625,-0.594 -1.616,-0.565 -2.209,0.063c-3.453,3.647 -7.731,6.525 -12.416,8.347c-0.803,0.312 -1.203,1.215 -0.891,2.022c0.313,0.803 1.219,1.203 2.026,0.89Z" style="fill:#e19273;fill-rule:nonzero;"/><path d="M499.741,583.352c5.203,-0.653 10.271,-2.309 14.853,-4.859c0.753,-0.419 1.025,-1.372 0.606,-2.125c-0.419,-0.753 -1.372,-1.025 -2.125,-0.606c-4.231,2.353 -8.922,3.887 -13.722,4.487c-0.856,0.109 -1.466,0.891 -1.356,1.747c0.106,0.856 0.887,1.462 1.744,1.356Z" style="fill:#e19273;fill-rule:nonzero;"/><path d="M575.2,588.365c4.3,-1.963 8.603,-3.928 12.903,-5.894c0.785,-0.356 1.131,-1.284 0.772,-2.069c-0.359,-0.784 -1.284,-1.131 -2.072,-0.772c-4.3,1.963 -8.6,3.928 -12.9,5.894c-0.787,0.356 -1.131,1.284 -0.772,2.069c0.357,0.784 1.285,1.131 2.069,0.772Z" style="fill:#e19273;fill-rule:nonzero;"/><path d="M593.122,587.587c5.016,-2.125 9.716,-4.985 13.903,-8.469c0.663,-0.553 0.753,-1.538 0.203,-2.2c-0.553,-0.663 -1.537,-0.753 -2.203,-0.203c-3.95,3.287 -8.388,5.99 -13.122,7.993c-0.794,0.335 -1.166,1.254 -0.828,2.047c0.334,0.794 1.25,1.166 2.047,0.832Z" style="fill:#e19273;fill-rule:nonzero;"/><path d="M598.506,569.568c4.578,-2.916 8.441,-6.919 11.194,-11.594c0.438,-0.744 0.191,-1.703 -0.553,-2.141c-0.744,-0.437 -1.7,-0.187 -2.138,0.554c-2.5,4.246 -6.025,7.9 -10.181,10.546c-0.728,0.463 -0.94,1.429 -0.478,2.157c0.462,0.728 1.428,0.94 2.156,0.478Z" style="fill:#e19273;fill-rule:nonzero;"/><path d="M555.472,586.065c5.969,-1.885 11.497,-5.122 16.059,-9.407c0.628,-0.59 0.66,-1.578 0.069,-2.206c-0.591,-0.631 -1.578,-0.662 -2.206,-0.072c-4.219,3.963 -9.347,6.963 -14.863,8.703c-0.825,0.26 -1.281,1.138 -1.022,1.96c0.26,0.825 1.138,1.281 1.963,1.022Z" style="fill:#e19273;fill-rule:nonzero;"/><path d="M542.909,601.071c2.832,1.059 5.841,1.578 8.847,1.578c4.363,0 8.728,-1.094 12.55,-3.253c0.75,-0.425 1.016,-1.378 0.591,-2.128c-0.425,-0.75 -1.378,-1.016 -2.128,-0.591c-3.325,1.878 -7.172,2.85 -11.013,2.847c-2.647,0 -5.287,-0.456 -7.75,-1.381c-0.809,-0.303 -1.709,0.106 -2.012,0.915c-0.303,0.807 0.106,1.71 0.915,2.013Z" style="fill:#e19273;fill-rule:nonzero;"/><path d="M802.716,203.468c1.281,-5.975 3.584,-11.738 6.768,-16.953c0.45,-0.735 0.219,-1.697 -0.515,-2.147c-0.738,-0.45 -1.7,-0.219 -2.15,0.519c-3.372,5.515 -5.803,11.603 -7.16,17.925c-0.181,0.843 0.357,1.675 1.2,1.856c0.844,0.181 1.675,-0.356 1.857,-1.2Z" style="fill:#e7cab4;fill-rule:nonzero;"/><path d="M790.078,203.402c0.613,-5.509 2.791,-10.856 6.2,-15.228c0.531,-0.681 0.409,-1.662 -0.272,-2.194c-0.681,-0.531 -1.662,-0.409 -2.193,0.272c-3.769,4.838 -6.16,10.71 -6.841,16.803c-0.097,0.857 0.522,1.632 1.381,1.725c0.856,0.097 1.628,-0.522 1.725,-1.378Z" style="fill:#e7cab4;fill-rule:nonzero;"/><path d="M772.259,203.702c1.766,-5.194 4.719,-9.99 8.554,-13.912c0.603,-0.616 0.593,-1.607 -0.025,-2.21c-0.616,-0.603 -1.607,-0.593 -2.21,0.025c-4.166,4.26 -7.356,9.45 -9.278,15.091c-0.278,0.816 0.159,1.703 0.975,1.981c0.819,0.278 1.706,-0.159 1.984,-0.975Z" style="fill:#e7cab4;fill-rule:nonzero;"/><path d="M794.403,173.349c3.413,-3.765 7.85,-6.619 12.694,-8.159c0.822,-0.263 1.275,-1.141 1.015,-1.963c-0.262,-0.822 -1.14,-1.278 -1.965,-1.015c-5.375,1.712 -10.269,4.859 -14.059,9.037c-0.582,0.641 -0.532,1.628 0.109,2.206c0.637,0.582 1.625,0.532 2.206,-0.106Z" style="fill:#e7cab4;fill-rule:nonzero;"/><path d="M771.747,177.058c3.878,-4.046 8.269,-7.606 13.031,-10.559c0.734,-0.456 0.959,-1.419 0.503,-2.153c-0.453,-0.734 -1.418,-0.959 -2.15,-0.503c-4.987,3.094 -9.578,6.815 -13.64,11.053c-0.597,0.622 -0.575,1.612 0.046,2.209c0.626,0.597 1.613,0.575 2.21,-0.047Z" style="fill:#e7cab4;fill-rule:nonzero;"/><path d="M751.794,217.271c0.637,-5.391 2.444,-10.65 5.253,-15.294c0.447,-0.74 0.212,-1.7 -0.528,-2.147c-0.738,-0.447 -1.697,-0.209 -2.144,0.528c-3.044,5.032 -4.994,10.707 -5.684,16.544c-0.104,0.856 0.509,1.635 1.365,1.738c0.857,0.1 1.635,-0.513 1.738,-1.369Z" style="fill:#e7cab4;fill-rule:nonzero;"/><path d="M761.375,232.408c-0.009,-0.346 -0.016,-0.69 -0.016,-1.037c0,-4.922 0.988,-9.847 2.888,-14.384c0.334,-0.797 -0.041,-1.713 -0.838,-2.047c-0.797,-0.332 -1.712,0.043 -2.043,0.84c-2.063,4.922 -3.132,10.253 -3.132,15.591c0,0.375 0.007,0.75 0.016,1.125c0.025,0.862 0.744,1.541 1.606,1.519c0.863,-0.025 1.544,-0.744 1.519,-1.607Z" style="fill:#e7cab4;fill-rule:nonzero;"/><path d="M775.703,242.499c-0.328,-2.162 -0.49,-4.353 -0.49,-6.541c0,-3.021 0.309,-6.046 0.931,-9.003c0.178,-0.847 -0.363,-1.675 -1.21,-1.85c-0.843,-0.178 -1.671,0.363 -1.85,1.207c-0.665,3.172 -0.996,6.409 -0.996,9.646c0,2.344 0.175,4.688 0.525,7.007c0.128,0.853 0.924,1.44 1.778,1.312c0.853,-0.128 1.44,-0.925 1.312,-1.778Z" style="fill:#e7cab4;fill-rule:nonzero;"/><path d="M794.531,251.787c-1.187,-3.116 -1.79,-6.46 -1.79,-9.8c0,-2.335 0.293,-4.669 0.884,-6.922c0.219,-0.835 -0.281,-1.688 -1.116,-1.907c-0.834,-0.218 -1.69,0.282 -1.909,1.116c-0.656,2.519 -0.984,5.116 -0.984,7.713c0,3.715 0.668,7.431 1.993,10.912c0.31,0.806 1.213,1.209 2.019,0.903c0.806,-0.306 1.21,-1.209 0.903,-2.015Z" style="fill:#e7cab4;fill-rule:nonzero;"/><path d="M807.831,267.187c-1.644,-5.591 -2.547,-11.4 -2.678,-17.225c-0.022,-0.863 -0.737,-1.547 -1.597,-1.525c-0.865,0.018 -1.547,0.734 -1.528,1.596c0.138,6.1 1.085,12.182 2.806,18.035c0.244,0.828 1.113,1.303 1.938,1.059c0.828,-0.244 1.303,-1.112 1.059,-1.94Z" style="fill:#e7cab4;fill-rule:nonzero;"/><path d="M781.391,270.043c-1.204,-3.072 -1.822,-6.378 -1.822,-9.678c0,-0.963 0.053,-1.925 0.156,-2.882c0.097,-0.859 -0.522,-1.631 -1.378,-1.725c-0.859,-0.096 -1.631,0.522 -1.725,1.382c-0.119,1.072 -0.178,2.147 -0.178,3.225c0,3.69 0.69,7.378 2.037,10.818c0.316,0.804 1.222,1.2 2.025,0.885c0.803,-0.316 1.2,-1.222 0.885,-2.025Z" style="fill:#e7cab4;fill-rule:nonzero;"/><path d="M800.606,153.193c1.7,-1.125 3.397,-2.247 5.094,-3.372c3.2,-2.141 6.581,-4.131 9.737,-4.103c0.372,0 0.747,0.025 1.119,0.081c0.857,0.125 1.65,-0.469 1.772,-1.322c0.125,-0.853 -0.466,-1.647 -1.319,-1.772c-0.531,-0.075 -1.056,-0.112 -1.572,-0.112c-4.421,0.028 -8.203,2.487 -11.462,4.622c-1.697,1.125 -3.397,2.25 -5.094,3.372c-0.718,0.478 -0.915,1.446 -0.44,2.165c0.478,0.719 1.447,0.919 2.165,0.441Z" style="fill:#e7cab4;fill-rule:nonzero;"/><path d="M821.284,163.908c2.807,-2.368 6.513,-3.712 10.191,-3.709l0.672,0.016c0.862,0.04 1.591,-0.628 1.631,-1.491c0.038,-0.859 -0.628,-1.591 -1.49,-1.631l-0.813,-0.019c-4.428,0.003 -8.809,1.591 -12.203,4.447c-0.659,0.556 -0.744,1.541 -0.188,2.2c0.557,0.659 1.541,0.744 2.2,0.187Z" style="fill:#e7cab4;fill-rule:nonzero;"/><path d="M727.678,246.265c-0.028,-0.525 -0.04,-1.05 -0.04,-1.578c0,-5.729 1.609,-11.469 4.606,-16.35c0.45,-0.735 0.222,-1.697 -0.516,-2.147c-0.734,-0.453 -1.697,-0.222 -2.147,0.512c-3.303,5.385 -5.068,11.675 -5.068,17.985c0,0.581 0.015,1.159 0.043,1.74c0.047,0.86 0.782,1.522 1.644,1.478c0.859,-0.043 1.522,-0.778 1.478,-1.64Z" style="fill:#e7cab4;fill-rule:nonzero;"/><path d="M737.247,209.796c0.009,-3.684 1.769,-7.403 4.609,-9.75c0.663,-0.55 0.757,-1.534 0.203,-2.2c-0.55,-0.663 -1.534,-0.756 -2.2,-0.203c-3.571,2.972 -5.706,7.49 -5.737,12.137c-0.003,0.863 0.694,1.566 1.556,1.572c0.863,0.003 1.566,-0.694 1.569,-1.556Z" style="fill:#e7cab4;fill-rule:nonzero;"/><path d="M721.034,228.227c0.757,-6.49 3.004,-12.815 6.51,-18.328c0.462,-0.728 0.247,-1.694 -0.482,-2.156c-0.728,-0.466 -1.693,-0.25 -2.156,0.478c-3.762,5.919 -6.162,12.681 -6.975,19.644c-0.1,0.856 0.513,1.634 1.372,1.734c0.856,0.1 1.631,-0.516 1.731,-1.372Z" style="fill:#e7cab4;fill-rule:nonzero;"/><path d="M743.113,179.593c1.015,-3.119 3.418,-5.822 6.396,-7.197c0.785,-0.363 1.122,-1.291 0.76,-2.075c-0.363,-0.781 -1.291,-1.122 -2.075,-0.759c-3.785,1.762 -6.744,5.09 -8.05,9.056c-0.269,0.819 0.178,1.703 0.997,1.972c0.821,0.268 1.703,-0.178 1.972,-0.997Z" style="fill:#e7cab4;fill-rule:nonzero;"/><path d="M701.494,201.996c0.528,-3.45 2.737,-6.678 5.762,-8.419c0.747,-0.431 1,-1.387 0.569,-2.134c-0.431,-0.747 -1.387,-1.003 -2.134,-0.569c-3.869,2.247 -6.591,6.222 -7.285,10.641c-0.131,0.853 0.45,1.653 1.303,1.784c0.854,0.131 1.653,-0.453 1.785,-1.303Z" style="fill:#e7cab4;fill-rule:nonzero;"/><path d="M777.781,144.033c4.653,-3.487 10.169,-5.84 15.906,-6.781c0.85,-0.14 1.429,-0.947 1.288,-1.797c-0.141,-0.85 -0.944,-1.428 -1.794,-1.287c-6.24,1.025 -12.212,3.572 -17.272,7.362c-0.69,0.519 -0.831,1.497 -0.312,2.188c0.516,0.691 1.497,0.831 2.187,0.315l-0.003,0Z" style="fill:#e7cab4;fill-rule:nonzero;"/><path d="M596.672,180.974c1.462,-4.487 3.778,-8.7 6.784,-12.337c0.55,-0.666 0.456,-1.65 -0.209,-2.2c-0.666,-0.55 -1.65,-0.457 -2.2,0.209c-3.256,3.944 -5.763,8.497 -7.347,13.359c-0.269,0.819 0.181,1.7 1,1.969c0.822,0.269 1.703,-0.181 1.972,-1Z" style="fill:#e7cab4;fill-rule:nonzero;"/><path d="M604.763,191.771c0.887,-4.65 2.4,-9.184 4.484,-13.438c0.378,-0.775 0.059,-1.709 -0.716,-2.087c-0.775,-0.381 -1.712,-0.062 -2.09,0.712c-2.207,4.507 -3.807,9.3 -4.747,14.229c-0.163,0.846 0.394,1.665 1.24,1.825c0.847,0.162 1.666,-0.394 1.829,-1.241Z" style="fill:#e7cab4;fill-rule:nonzero;"/><path d="M586.644,208.271c-0.022,-0.553 -0.032,-1.106 -0.032,-1.656c0,-4.932 0.813,-9.863 2.397,-14.532c0.279,-0.815 -0.159,-1.703 -0.978,-1.981c-0.815,-0.278 -1.703,0.16 -1.981,0.978c-1.697,4.994 -2.563,10.263 -2.563,15.535c0,0.59 0.01,1.181 0.032,1.772c0.034,0.862 0.759,1.534 1.619,1.503c0.862,-0.031 1.537,-0.757 1.506,-1.619Z" style="fill:#e7cab4;fill-rule:nonzero;"/><path d="M574.1,221.524c0.178,-6.337 0.356,-12.675 0.534,-19.012c0.025,-0.863 -0.656,-1.582 -1.518,-1.607c-0.863,-0.022 -1.582,0.657 -1.604,1.519c-0.178,6.338 -0.356,12.675 -0.534,19.013c-0.025,0.862 0.653,1.581 1.519,1.606c0.862,0.025 1.581,-0.656 1.603,-1.519Z" style="fill:#e7cab4;fill-rule:nonzero;"/><path d="M609.719,147.971c3.347,-3.806 7.169,-7.194 11.344,-10.063c0.712,-0.487 0.893,-1.459 0.403,-2.171c-0.488,-0.71 -1.46,-0.891 -2.172,-0.404c-4.391,3.016 -8.403,6.575 -11.922,10.572c-0.569,0.65 -0.506,1.638 0.141,2.207c0.65,0.568 1.637,0.506 2.206,-0.141Z" style="fill:#e7cab4;fill-rule:nonzero;"/><path d="M616.656,157.521c1.741,-3.928 4.856,-7.266 8.656,-9.275c0.763,-0.403 1.054,-1.347 0.65,-2.113c-0.406,-0.762 -1.35,-1.053 -2.112,-0.65c-4.431,2.35 -8.012,6.188 -10.05,10.769c-0.35,0.788 0.006,1.713 0.794,2.063c0.79,0.35 1.712,-0.007 2.062,-0.794Z" style="fill:#e7cab4;fill-rule:nonzero;"/><path d="M628,161.768c3.131,-3.91 7,-7.235 11.337,-9.744c0.744,-0.431 1.001,-1.387 0.569,-2.134c-0.431,-0.747 -1.387,-1.003 -2.134,-0.569c-4.675,2.703 -8.835,6.278 -12.213,10.494c-0.537,0.675 -0.431,1.659 0.244,2.197c0.675,0.54 1.656,0.431 2.197,-0.244Z" style="fill:#e7cab4;fill-rule:nonzero;"/><path d="M637.316,131.215c4.031,-3.675 9.178,-6.15 14.565,-7c0.853,-0.135 1.435,-0.935 1.3,-1.788c-0.134,-0.85 -0.934,-1.434 -1.787,-1.297c-6.003,0.95 -11.691,3.682 -16.185,7.775c-0.637,0.585 -0.681,1.572 -0.1,2.21c0.582,0.637 1.569,0.684 2.207,0.1Z" style="fill:#e7cab4;fill-rule:nonzero;"/><path d="M610.266,222.993c-0.678,-1.722 -1.019,-3.584 -1.019,-5.447c0,-1.994 0.39,-3.988 1.162,-5.809c0.335,-0.794 -0.037,-1.71 -0.831,-2.047c-0.794,-0.338 -1.712,0.034 -2.047,0.831c-0.94,2.222 -1.409,4.625 -1.409,7.025c0,2.244 0.409,4.491 1.237,6.594c0.316,0.8 1.222,1.197 2.025,0.881c0.803,-0.319 1.197,-1.225 0.882,-2.028Z" style="fill:#e7cab4;fill-rule:nonzero;"/></svg>