<?xml version="1.0" encoding="UTF-8" standalone="no"?>
<!DOCTYPE svg PUBLIC "-//W3C//DTD SVG 1.1//EN" "http://www.w3.org/Graphics/SVG/1.1/DTD/svg11.dtd">
<svg width="100%" height="100%" viewBox="0 0 91 91" version="1.1" xmlns="http://www.w3.org/2000/svg" xmlns:xlink="http://www.w3.org/1999/xlink" xml:space="preserve" xmlns:serif="http://www.serif.com/" style="fill-rule:evenodd;clip-rule:evenodd;stroke-linejoin:round;stroke-miterlimit:1.41421;">
    <g transform="matrix(1,0,0,1,0,17.5)">
        <path d="M26.443,47.057C28.886,51.194 32.067,54.91 32.703,55.083C33.776,55.378 34.656,54.112 33.78,52.939C33.308,52.306 34.105,49.367 34.729,46.316C31.35,42.808 28.567,43.974 26.443,47.057" style="fill:rgb(209,149,99);fill-rule:nonzero;"/>
    </g>
    <g transform="matrix(1,0,0,1,0,17.5)">
        <path d="M52.661,48.042C56.701,50.643 61.212,52.536 61.858,52.405C62.949,52.187 63.167,50.66 61.858,50.007C61.151,49.653 60.545,46.668 59.734,43.662C55.139,42.044 53.176,44.334 52.661,48.042" style="fill:rgb(209,149,99);fill-rule:nonzero;"/>
    </g>
    <g transform="matrix(1,0,0,1,0,17.5)">
        <path d="M23.418,49.22C24.499,52.928 28.887,55.225 29.434,55.369C30.509,55.666 31.386,54.399 30.515,53.224C30.219,52.835 30.294,51.469 30.189,49.778C42.477,50.626 37.156,50.824 50.484,48.738C50.537,48.941 50.607,49.15 50.7,49.354C52.704,53.719 59.249,53.847 59.895,53.713C60.987,53.498 61.203,51.97 59.895,51.313C59.377,51.057 59.139,49.104 58.226,47.18C66.248,45.146 72.762,41.972 76.123,37.194C84.666,25.058 87.056,16.723 89.09,12.085C89.154,11.934 89.218,11.788 89.276,11.65C89.281,11.638 89.288,11.632 89.288,11.626C90.456,8.865 90.555,7.656 88.317,8.185C87.294,8.435 86.067,8.749 84.725,9.138C84.399,9.232 84.062,9.341 83.726,9.463C78.511,11.382 72.036,16.497 68.265,15.369C55.239,11.463 58.064,12.73 46.16,11.388C32.351,9.83 9.978,11.92 8.741,30.157C8.132,39.126 13.638,46.943 22.735,48.25L23.324,48.339L23.418,49.22Z" style="fill:rgb(226,161,105);fill-rule:nonzero;"/>
    </g>
    <g transform="matrix(1,0,0,1,0,17.5)">
        <path d="M89.287,11.626C89.287,11.632 89.281,11.637 89.275,11.649C89.194,11.811 89.113,11.987 89.02,12.167C86.654,12.637 84.62,12.149 83.94,10.766C83.748,10.371 83.679,9.929 83.725,9.464C84.062,9.342 84.399,9.231 84.724,9.138C86.067,8.749 87.293,8.435 88.317,8.185C90.555,7.656 90.455,8.865 89.287,11.626" style="fill:rgb(61,59,55);fill-rule:nonzero;"/>
    </g>
    <g transform="matrix(1,0,0,1,0,17.5)">
        <path d="M74.516,19.042C74.516,20.096 73.662,20.95 72.609,20.95C71.555,20.95 70.701,20.096 70.701,19.042C70.701,17.988 71.555,17.135 72.609,17.135C73.662,17.135 74.516,17.988 74.516,19.042" style="fill:rgb(61,59,55);fill-rule:nonzero;"/>
    </g>
    <g transform="matrix(1,0,0,1,0,17.5)">
        <path d="M18.307,44.293C65.863,40.663 68.572,15.641 68.572,15.641C68.572,15.641 65.188,10.219 63.437,7.031C63.437,7.031 61.875,9.654 61.687,11.156C61.687,11.156 58.875,0.188 46.781,0C46.781,0 50.531,2.906 51,8.531C51,8.531 43.594,-2.812 28.781,0.75C28.781,0.75 35.531,2.719 37.312,6.938C37.312,6.938 30,0.563 16.406,3.938C16.406,3.938 22.406,5.627 24,8.064C24,8.064 17.156,4.125 6.469,11.906C6.469,11.906 11.156,11.813 13.875,13.125C13.875,13.125 3.281,16.781 0,28.875C0,28.875 3.281,26.126 5.625,26.048C5.625,26.048 0.46,33.151 4.214,41.841C4.214,41.841 5.625,38.813 7.875,37.313C7.875,37.313 7.264,41.906 8.695,46.219C8.695,46.219 13.267,44.677 18.307,44.293" style="fill:rgb(151,131,106);fill-rule:nonzero;"/>
    </g>
    <g transform="matrix(1,0,0,1,0,17.5)">
        <path d="M75.448,33.853C75.448,33.853 75.343,34.063 75.152,34.35C74.962,34.635 74.693,35.003 74.391,35.343C74.093,35.686 73.765,36.002 73.507,36.228C73.248,36.455 73.053,36.585 73.053,36.585C73.053,36.585 73.157,36.375 73.348,36.089C73.538,35.803 73.808,35.436 74.109,35.096C74.407,34.753 74.737,34.438 74.995,34.211C75.253,33.984 75.448,33.853 75.448,33.853" style="fill:white;fill-rule:nonzero;"/>
    </g>
    <g transform="matrix(1,0,0,1,0,17.5)">
        <path d="M71.248,38.178C71.248,38.178 71.176,38.407 71.006,38.721C70.838,39.035 70.571,39.431 70.244,39.776C69.919,40.124 69.541,40.415 69.238,40.601C68.935,40.79 68.71,40.875 68.71,40.875C68.71,40.875 68.865,40.691 69.104,40.439C69.34,40.187 69.655,39.854 69.971,39.519C70.285,39.185 70.6,38.849 70.836,38.599C71.074,38.345 71.248,38.178 71.248,38.178" style="fill:white;fill-rule:nonzero;"/>
    </g>
    <g transform="matrix(1,0,0,1,0,17.5)">
        <path d="M73.182,38.716C73.182,38.716 73.163,38.87 73.077,39.08C72.993,39.288 72.847,39.552 72.649,39.776C72.454,40.002 72.214,40.184 72.019,40.297C71.824,40.409 71.673,40.451 71.673,40.451C71.673,40.451 71.75,40.314 71.879,40.139C72.009,39.965 72.181,39.74 72.366,39.53C72.548,39.317 72.748,39.117 72.902,38.963C73.058,38.813 73.182,38.716 73.182,38.716" style="fill:white;fill-rule:nonzero;"/>
    </g>
    <g transform="matrix(1,0,0,1,0,17.5)">
        <path d="M71.899,33.655C71.899,33.655 71.854,33.826 71.734,34.055C71.613,34.283 71.421,34.571 71.179,34.814C70.941,35.06 70.658,35.258 70.432,35.382C70.206,35.507 70.035,35.556 70.035,35.556C70.035,35.556 70.135,35.409 70.299,35.219C70.464,35.028 70.681,34.782 70.912,34.551C71.138,34.316 71.381,34.095 71.568,33.926C71.755,33.76 71.899,33.655 71.899,33.655" style="fill:white;fill-rule:nonzero;"/>
    </g>
    <g transform="matrix(1,0,0,1,0,17.5)">
        <path d="M76.256,30.215C76.256,30.215 76.323,30.338 76.378,30.524C76.432,30.71 76.485,30.959 76.496,31.209C76.511,31.46 76.485,31.713 76.45,31.904C76.415,32.094 76.361,32.223 76.361,32.223C76.361,32.223 76.294,32.101 76.239,31.915C76.184,31.729 76.133,31.48 76.121,31.229C76.106,30.978 76.133,30.725 76.168,30.535C76.203,30.344 76.256,30.215 76.256,30.215" style="fill:white;fill-rule:nonzero;"/>
    </g>
    <g transform="matrix(1,0,0,1,0,17.5)">
        <path d="M79.133,29.205C79.133,29.205 79.149,29.392 79.106,29.668C79.062,29.941 78.959,30.3 78.785,30.626C78.614,30.955 78.377,31.243 78.176,31.433C77.975,31.624 77.809,31.716 77.809,31.716C77.809,31.716 77.885,31.543 78.008,31.305C78.129,31.073 78.291,30.762 78.454,30.452C78.618,30.142 78.782,29.833 78.906,29.601C79.032,29.366 79.133,29.205 79.133,29.205" style="fill:white;fill-rule:nonzero;"/>
    </g>
    <g transform="matrix(1,0,0,1,0,17.5)">
        <path d="M63.438,39.093C63.453,39.081 63.714,38.931 63.916,38.855C64.117,38.777 64.413,38.715 64.431,38.714C64.431,38.714 64.436,38.807 64.378,38.917C64.322,39.026 64.203,39.15 64.05,39.205C63.897,39.265 63.726,39.252 63.612,39.208C63.493,39.164 63.438,39.093 63.438,39.093" style="fill:white;fill-rule:nonzero;"/>
    </g>
    <g transform="matrix(1,0,0,1,0,17.5)">
        <path d="M73.812,27.469C73.827,27.469 74.013,27.75 74,28.031C74.013,28.313 73.827,28.594 73.812,28.594C73.797,28.594 73.611,28.313 73.625,28.031C73.612,27.75 73.798,27.469 73.812,27.469" style="fill:white;fill-rule:nonzero;"/>
    </g>
    <g transform="matrix(1,0,0,1,0,17.5)">
        <path d="M81.053,24.845C81.053,24.845 81.126,24.921 81.182,25.053C81.238,25.184 81.282,25.369 81.267,25.553C81.257,25.738 81.189,25.915 81.115,26.037C81.042,26.159 80.958,26.225 80.958,26.225C80.946,26.216 80.862,25.847 80.893,25.528C80.907,25.208 81.039,24.853 81.053,24.845" style="fill:white;fill-rule:nonzero;"/>
    </g>
    <g transform="matrix(1,0,0,1,0,17.5)">
        <path d="M20.716,19.426C20.716,19.426 20.862,19.421 21.067,19.49C21.269,19.556 21.522,19.695 21.726,19.884C21.934,20.071 22.092,20.299 22.193,20.479C22.294,20.66 22.336,20.801 22.336,20.801C22.336,20.801 22.203,20.738 22.036,20.62C21.87,20.501 21.662,20.336 21.474,20.162C21.283,19.99 21.104,19.807 20.959,19.67C20.819,19.534 20.716,19.426 20.716,19.426" style="fill:rgb(183,160,132);fill-rule:nonzero;"/>
    </g>
    <g transform="matrix(1,0,0,1,0,17.5)">
        <path d="M27.622,15.536C27.622,15.536 27.734,15.642 27.861,15.818C27.987,15.995 28.137,16.238 28.249,16.498C28.365,16.757 28.443,17.032 28.488,17.244C28.531,17.456 28.533,17.611 28.533,17.611C28.533,17.611 28.421,17.505 28.294,17.329C28.167,17.153 28.018,16.909 27.906,16.649C27.79,16.391 27.713,16.115 27.668,15.902C27.624,15.69 27.622,15.536 27.622,15.536" style="fill:rgb(183,160,132);fill-rule:nonzero;"/>
    </g>
    <g transform="matrix(1,0,0,1,0,17.5)">
        <path d="M18.347,28.242C18.347,28.242 18.497,28.333 18.693,28.477C18.889,28.624 19.145,28.814 19.389,29.016C19.636,29.214 19.875,29.425 20.059,29.587C20.241,29.75 20.359,29.878 20.359,29.878C20.359,29.878 20.185,29.858 19.949,29.767C19.713,29.678 19.412,29.521 19.153,29.306C18.89,29.096 18.675,28.833 18.539,28.62C18.402,28.406 18.347,28.242 18.347,28.242" style="fill:rgb(183,160,132);fill-rule:nonzero;"/>
    </g>
    <g transform="matrix(1,0,0,1,0,17.5)">
        <path d="M30.014,22.778C30.014,22.778 30.099,22.876 30.185,23.032C30.269,23.189 30.362,23.404 30.416,23.627C30.473,23.851 30.49,24.083 30.488,24.262C30.485,24.44 30.454,24.566 30.454,24.566C30.454,24.566 30.368,24.469 30.283,24.312C30.198,24.155 30.104,23.941 30.052,23.717C29.995,23.494 29.978,23.261 29.981,23.083C29.983,22.904 30.014,22.778 30.014,22.778" style="fill:rgb(183,160,132);fill-rule:nonzero;"/>
    </g>
    <g transform="matrix(1,0,0,1,0,17.5)">
        <path d="M35.085,16.976C35.085,16.976 35.09,17.158 35.056,17.419C35.02,17.678 34.954,18.019 34.849,18.347C34.748,18.676 34.606,18.994 34.486,19.227C34.365,19.459 34.256,19.606 34.256,19.606C34.256,19.606 34.25,19.423 34.285,19.163C34.32,18.903 34.386,18.562 34.492,18.235C34.594,17.905 34.735,17.589 34.856,17.356C34.976,17.122 35.085,16.976 35.085,16.976" style="fill:rgb(183,160,132);fill-rule:nonzero;"/>
    </g>
    <g transform="matrix(1,0,0,1,0,17.5)">
        <path d="M43.171,9.833C43.171,9.833 43.213,10.042 43.199,10.36C43.186,10.675 43.116,11.094 42.979,11.488C42.846,11.884 42.654,12.254 42.495,12.521C42.333,12.788 42.198,12.953 42.198,12.953C42.198,12.953 42.223,12.74 42.3,12.44C42.377,12.139 42.492,11.748 42.624,11.368C42.759,10.987 42.892,10.606 42.993,10.321C43.093,10.034 43.171,9.833 43.171,9.833" style="fill:rgb(183,160,132);fill-rule:nonzero;"/>
    </g>
    <g transform="matrix(1,0,0,1,0,17.5)">
        <path d="M35.4,11.102C35.4,11.102 35.549,11.154 35.741,11.265C35.933,11.377 36.176,11.54 36.391,11.734C36.609,11.926 36.8,12.148 36.932,12.327C37.065,12.505 37.133,12.647 37.133,12.647C37.133,12.647 36.984,12.595 36.792,12.484C36.599,12.373 36.357,12.209 36.142,12.014C35.924,11.823 35.734,11.6 35.601,11.422C35.468,11.243 35.4,11.102 35.4,11.102" style="fill:rgb(183,160,132);fill-rule:nonzero;"/>
    </g>
    <g transform="matrix(1,0,0,1,0,17.5)">
        <path d="M40.415,17.907C40.415,17.907 40.466,18.081 40.504,18.335C40.54,18.591 40.576,18.928 40.579,19.265C40.587,19.603 40.563,19.941 40.534,20.197C40.505,20.454 40.459,20.629 40.459,20.629C40.459,20.629 40.384,20.464 40.324,20.211C40.262,19.957 40.208,19.615 40.204,19.272C40.197,18.928 40.241,18.584 40.294,18.329C40.346,18.073 40.415,17.907 40.415,17.907" style="fill:rgb(183,160,132);fill-rule:nonzero;"/>
    </g>
    <g transform="matrix(1,0,0,1,0,17.5)">
        <path d="M49.769,14.995C49.769,14.995 49.766,15.156 49.728,15.378C49.688,15.6 49.624,15.888 49.531,16.166C49.441,16.445 49.32,16.715 49.219,16.917C49.117,17.118 49.024,17.248 49.024,17.248C49.024,17.248 49,17.09 49.015,16.861C49.03,16.633 49.078,16.333 49.174,16.048C49.267,15.762 49.408,15.493 49.532,15.301C49.656,15.108 49.769,14.995 49.769,14.995" style="fill:rgb(183,160,132);fill-rule:nonzero;"/>
    </g>
    <g transform="matrix(1,0,0,1,0,17.5)">
        <path d="M28.922,33.798C28.922,33.798 29.048,33.841 29.207,33.938C29.366,34.035 29.563,34.178 29.73,34.351C29.9,34.52 30.041,34.718 30.136,34.878C30.23,35.038 30.272,35.166 30.272,35.166C30.272,35.166 30.144,35.123 29.986,35.026C29.827,34.93 29.63,34.786 29.463,34.614C29.293,34.444 29.153,34.245 29.058,34.085C28.964,33.925 28.922,33.798 28.922,33.798" style="fill:rgb(183,160,132);fill-rule:nonzero;"/>
    </g>
    <g transform="matrix(1,0,0,1,0,17.5)">
        <path d="M37.329,28.491C37.329,28.491 37.451,28.585 37.595,28.747C37.738,28.91 37.913,29.137 38.051,29.385C38.193,29.63 38.298,29.896 38.364,30.103C38.43,30.31 38.447,30.463 38.447,30.463C38.447,30.463 38.325,30.37 38.181,30.207C38.037,30.044 37.863,29.817 37.725,29.569C37.584,29.324 37.479,29.058 37.412,28.851C37.347,28.644 37.329,28.491 37.329,28.491" style="fill:rgb(183,160,132);fill-rule:nonzero;"/>
    </g>
    <g transform="matrix(1,0,0,1,0,17.5)">
        <path d="M48.921,21.592C48.921,21.592 48.891,21.849 48.805,22.219C48.717,22.589 48.583,23.076 48.409,23.547C48.243,24.02 48.019,24.484 47.869,24.816C47.715,25.146 47.72,25.407 47.72,25.407C47.72,25.407 47.688,25.35 47.663,25.236C47.644,25.125 47.626,24.951 47.665,24.757C47.741,24.369 47.884,23.895 48.056,23.419C48.226,22.946 48.436,22.487 48.607,22.147C48.778,21.808 48.921,21.592 48.921,21.592" style="fill:rgb(183,160,132);fill-rule:nonzero;"/>
    </g>
    <g transform="matrix(1,0,0,1,0,17.5)">
        <path d="M45.947,32.064C45.947,32.064 45.997,32.169 46.035,32.319C46.071,32.469 46.107,32.664 46.11,32.859C46.118,33.054 46.094,33.25 46.066,33.402C46.037,33.554 45.993,33.663 45.993,33.663C45.993,33.663 45.918,33.573 45.856,33.426C45.794,33.279 45.739,33.076 45.735,32.87C45.727,32.664 45.771,32.457 45.825,32.308C45.878,32.157 45.947,32.064 45.947,32.064" style="fill:rgb(183,160,132);fill-rule:nonzero;"/>
    </g>
    <g transform="matrix(1,0,0,1,0,17.5)">
        <path d="M28.825,9.594C28.825,9.594 28.941,9.577 29.095,9.584C29.249,9.593 29.446,9.616 29.633,9.669C29.822,9.718 30.003,9.798 30.14,9.868C30.278,9.94 30.368,10.014 30.368,10.014C30.368,10.014 30.26,10.06 30.101,10.076C29.944,10.093 29.733,10.087 29.535,10.03C29.335,9.978 29.151,9.876 29.023,9.782C28.894,9.687 28.825,9.594 28.825,9.594" style="fill:rgb(183,160,132);fill-rule:nonzero;"/>
    </g>
    <g transform="matrix(1,0,0,1,0,17.5)">
        <path d="M57.52,19.81C57.52,19.81 57.65,19.896 57.811,20.035C57.973,20.178 58.18,20.366 58.366,20.57C58.556,20.771 58.73,20.989 58.86,21.161C58.989,21.333 59.063,21.468 59.063,21.468C59.063,21.468 58.914,21.428 58.721,21.32C58.528,21.213 58.289,21.04 58.092,20.825C57.892,20.613 57.737,20.361 57.643,20.162C57.549,19.961 57.52,19.81 57.52,19.81" style="fill:rgb(183,160,132);fill-rule:nonzero;"/>
    </g>
    <g transform="matrix(1,0,0,1,0,17.5)">
        <path d="M60.964,14.348C60.964,14.348 60.999,14.527 61.024,14.782C61.047,15.038 61.077,15.373 61.09,15.707C61.108,16.04 61.108,16.376 61.108,16.634C61.107,16.89 61.089,17.071 61.089,17.071C61.089,17.071 60.99,16.919 60.901,16.669C60.811,16.421 60.73,16.075 60.716,15.724C60.697,15.372 60.748,15.021 60.814,14.765C60.88,14.507 60.964,14.348 60.964,14.348" style="fill:rgb(183,160,132);fill-rule:nonzero;"/>
    </g>
    <g transform="matrix(1,0,0,1,0,17.5)">
        <path d="M14.368,37.948C14.368,37.948 14.5,38.012 14.666,38.125C14.832,38.241 15.042,38.398 15.233,38.574C15.426,38.747 15.603,38.942 15.732,39.097C15.861,39.252 15.936,39.377 15.936,39.377C15.936,39.377 15.792,39.351 15.604,39.265C15.416,39.178 15.18,39.036 14.981,38.851C14.778,38.669 14.615,38.447 14.511,38.268C14.407,38.088 14.368,37.948 14.368,37.948" style="fill:rgb(183,160,132);fill-rule:nonzero;"/>
    </g>
    <g transform="matrix(1,0,0,1,0,17.5)">
        <path d="M10.573,29.185C10.573,29.185 10.583,29.327 10.556,29.524C10.528,29.722 10.474,29.979 10.38,30.22C10.289,30.463 10.161,30.691 10.05,30.857C9.938,31.023 9.835,31.123 9.835,31.123C9.835,31.123 9.826,30.979 9.853,30.782C9.88,30.584 9.935,30.328 10.03,30.087C10.12,29.844 10.249,29.616 10.36,29.45C10.471,29.284 10.573,29.185 10.573,29.185" style="fill:rgb(183,160,132);fill-rule:nonzero;"/>
    </g>
    <g transform="matrix(1,0,0,1,0,17.5)">
        <path d="M62.926,42.322L63.19,42.255C63.283,42.24 63.346,42.19 63.434,42.154L63.925,41.92C63.925,41.911 63.986,41.869 64.014,41.845L64.12,41.761L64.334,41.593L64.441,41.509C64.451,41.499 64.493,41.47 64.477,41.476L64.517,41.428L64.674,41.243L64.848,41.545L64.577,41.566L64.51,41.571C64.553,41.556 64.484,41.578 64.477,41.579L64.345,41.615L64.084,41.689L63.953,41.725C63.917,41.734 63.848,41.758 63.84,41.752L63.361,42.011C63.28,42.061 63.202,42.083 63.136,42.149L62.926,42.322ZM62.926,42.322L63.103,42.116C63.154,42.043 63.247,41.988 63.31,41.932L63.738,41.596L64.246,41.353L64.369,41.294C64.404,41.281 64.375,41.281 64.463,41.258L64.529,41.242L64.793,41.174L65.55,40.983L64.967,41.477L64.738,41.671L64.681,41.719C64.633,41.755 64.633,41.747 64.607,41.764L64.487,41.829L63.992,42.096L63.468,42.242C63.385,42.26 63.287,42.303 63.197,42.301L62.926,42.322Z" style="fill:white;fill-rule:nonzero;"/>
    </g>
</svg>
