<?xml version="1.0" encoding="UTF-8" standalone="no"?><!DOCTYPE svg PUBLIC "-//W3C//DTD SVG 1.1//EN" "http://www.w3.org/Graphics/SVG/1.1/DTD/svg11.dtd"><svg width="100%" height="100%" viewBox="0 0 91 56" version="1.1" xmlns="http://www.w3.org/2000/svg" xmlns:xlink="http://www.w3.org/1999/xlink" xml:space="preserve" style="fill-rule:evenodd;clip-rule:evenodd;stroke-linejoin:round;stroke-miterlimit:1.41421;"><path d="M26.443,47.057c2.443,4.137 5.624,7.853 6.26,8.026c1.073,0.295 1.953,-0.971 1.077,-2.144c-0.472,-0.633 0.325,-3.572 0.949,-6.623c-3.379,-3.508 -6.162,-2.342 -8.286,0.741" style="fill:#d19563;fill-rule:nonzero;"/><path d="M52.661,48.042c4.04,2.601 8.551,4.494 9.197,4.363c1.091,-0.218 1.309,-1.745 0,-2.398c-0.707,-0.354 -1.313,-3.339 -2.124,-6.345c-4.595,-1.618 -6.558,0.672 -7.073,4.38" style="fill:#d19563;fill-rule:nonzero;"/><path d="M23.418,49.22c1.081,3.708 5.469,6.005 6.016,6.149c1.075,0.297 1.952,-0.97 1.081,-2.145c-0.296,-0.389 -0.221,-1.755 -0.326,-3.446c12.288,0.848 6.967,1.046 20.295,-1.04c0.053,0.203 0.123,0.412 0.216,0.616c2.004,4.365 8.549,4.493 9.195,4.359c1.092,-0.215 1.308,-1.743 0,-2.4c-0.518,-0.256 -0.756,-2.209 -1.669,-4.133c8.022,-2.034 14.536,-5.208 17.897,-9.986c8.543,-12.136 10.933,-20.471 12.967,-25.109c0.064,-0.151 0.128,-0.297 0.186,-0.435c0.005,-0.012 0.012,-0.018 0.012,-0.024c1.168,-2.761 1.267,-3.97 -0.971,-3.441c-1.023,0.25 -2.25,0.564 -3.592,0.953c-0.326,0.094 -0.663,0.203 -0.999,0.325c-5.215,1.919 -11.69,7.034 -15.461,5.906c-13.026,-3.906 -10.201,-2.639 -22.105,-3.981c-13.809,-1.558 -36.182,0.532 -37.419,18.769c-0.609,8.969 4.897,16.786 13.994,18.093l0.589,0.089l0.094,0.881Z" style="fill:#e2a169;fill-rule:nonzero;"/><path d="M89.287,11.626c0,0.006 -0.006,0.011 -0.012,0.023c-0.081,0.162 -0.162,0.338 -0.255,0.518c-2.366,0.47 -4.4,-0.018 -5.08,-1.401c-0.192,-0.395 -0.261,-0.837 -0.215,-1.302c0.337,-0.122 0.674,-0.233 0.999,-0.326c1.343,-0.389 2.569,-0.703 3.593,-0.953c2.238,-0.529 2.138,0.68 0.97,3.441" style="fill:#3d3b37;fill-rule:nonzero;"/><path d="M74.516,19.042c0,1.054 -0.854,1.908 -1.907,1.908c-1.054,0 -1.908,-0.854 -1.908,-1.908c0,-1.054 0.854,-1.907 1.908,-1.907c1.053,0 1.907,0.853 1.907,1.907" style="fill:#3d3b37;fill-rule:nonzero;"/><path d="M18.307,44.293c47.556,-3.63 50.265,-28.652 50.265,-28.652c0,0 -3.384,-5.422 -5.135,-8.61c0,0 -1.562,2.623 -1.75,4.125c0,0 -2.812,-10.968 -14.906,-11.156c0,0 3.75,2.906 4.219,8.531c0,0 -7.406,-11.343 -22.219,-7.781c0,0 6.75,1.969 8.531,6.188c0,0 -7.312,-6.375 -20.906,-3c0,0 6,1.689 7.594,4.126c0,0 -6.844,-3.939 -17.531,3.842c0,0 4.687,-0.093 7.406,1.219c0,0 -10.594,3.656 -13.875,15.75c0,0 3.281,-2.749 5.625,-2.827c0,0 -5.165,7.103 -1.411,15.793c0,0 1.411,-3.028 3.661,-4.528c0,0 -0.611,4.593 0.82,8.906c0,0 4.572,-1.542 9.612,-1.926" style="fill:#97836a;fill-rule:nonzero;"/><path d="M75.448,33.853c0,0 -0.105,0.21 -0.296,0.497c-0.19,0.285 -0.459,0.653 -0.761,0.993c-0.298,0.343 -0.626,0.659 -0.884,0.885c-0.259,0.227 -0.454,0.357 -0.454,0.357c0,0 0.104,-0.21 0.295,-0.496c0.19,-0.286 0.46,-0.653 0.761,-0.993c0.298,-0.343 0.628,-0.658 0.886,-0.885c0.258,-0.227 0.453,-0.358 0.453,-0.358" style="fill:#fff;fill-rule:nonzero;"/><path d="M71.248,38.178c0,0 -0.072,0.229 -0.242,0.543c-0.168,0.314 -0.435,0.71 -0.762,1.055c-0.325,0.348 -0.703,0.639 -1.006,0.825c-0.303,0.189 -0.528,0.274 -0.528,0.274c0,0 0.155,-0.184 0.394,-0.436c0.236,-0.252 0.551,-0.585 0.867,-0.92c0.314,-0.334 0.629,-0.67 0.865,-0.92c0.238,-0.254 0.412,-0.421 0.412,-0.421" style="fill:#fff;fill-rule:nonzero;"/><path d="M73.182,38.716c0,0 -0.019,0.154 -0.105,0.364c-0.084,0.208 -0.23,0.472 -0.428,0.696c-0.195,0.226 -0.435,0.408 -0.63,0.521c-0.195,0.112 -0.346,0.154 -0.346,0.154c0,0 0.077,-0.137 0.206,-0.312c0.13,-0.174 0.302,-0.399 0.487,-0.609c0.182,-0.213 0.382,-0.413 0.536,-0.567c0.156,-0.15 0.28,-0.247 0.28,-0.247" style="fill:#fff;fill-rule:nonzero;"/><path d="M71.899,33.655c0,0 -0.045,0.171 -0.165,0.4c-0.121,0.228 -0.313,0.516 -0.555,0.759c-0.238,0.246 -0.521,0.444 -0.747,0.568c-0.226,0.125 -0.397,0.174 -0.397,0.174c0,0 0.1,-0.147 0.264,-0.337c0.165,-0.191 0.382,-0.437 0.613,-0.668c0.226,-0.235 0.469,-0.456 0.656,-0.625c0.187,-0.166 0.331,-0.271 0.331,-0.271" style="fill:#fff;fill-rule:nonzero;"/><path d="M76.256,30.215c0,0 0.067,0.123 0.122,0.309c0.054,0.186 0.107,0.435 0.118,0.685c0.015,0.251 -0.011,0.504 -0.046,0.695c-0.035,0.19 -0.089,0.319 -0.089,0.319c0,0 -0.067,-0.122 -0.122,-0.308c-0.055,-0.186 -0.106,-0.435 -0.118,-0.686c-0.015,-0.251 0.012,-0.504 0.047,-0.694c0.035,-0.191 0.088,-0.32 0.088,-0.32" style="fill:#fff;fill-rule:nonzero;"/><path d="M79.133,29.205c0,0 0.016,0.187 -0.027,0.463c-0.044,0.273 -0.147,0.632 -0.321,0.958c-0.171,0.329 -0.408,0.617 -0.609,0.807c-0.201,0.191 -0.367,0.283 -0.367,0.283c0,0 0.076,-0.173 0.199,-0.411c0.121,-0.232 0.283,-0.543 0.446,-0.853c0.164,-0.31 0.328,-0.619 0.452,-0.851c0.126,-0.235 0.227,-0.396 0.227,-0.396" style="fill:#fff;fill-rule:nonzero;"/><path d="M63.438,39.093c0.015,-0.012 0.276,-0.162 0.478,-0.238c0.201,-0.078 0.497,-0.14 0.515,-0.141c0,0 0.005,0.093 -0.053,0.203c-0.056,0.109 -0.175,0.233 -0.328,0.288c-0.153,0.06 -0.324,0.047 -0.438,0.003c-0.119,-0.044 -0.174,-0.115 -0.174,-0.115" style="fill:#fff;fill-rule:nonzero;"/><path d="M73.812,27.469c0.015,0 0.201,0.281 0.188,0.562c0.013,0.282 -0.173,0.563 -0.188,0.563c-0.015,0 -0.201,-0.281 -0.187,-0.563c-0.013,-0.281 0.173,-0.562 0.187,-0.562" style="fill:#fff;fill-rule:nonzero;"/><path d="M81.053,24.845c0,0 0.073,0.076 0.129,0.208c0.056,0.131 0.1,0.316 0.085,0.5c-0.01,0.185 -0.078,0.362 -0.152,0.484c-0.073,0.122 -0.157,0.188 -0.157,0.188c-0.012,-0.009 -0.096,-0.378 -0.065,-0.697c0.014,-0.32 0.146,-0.675 0.16,-0.683" style="fill:#fff;fill-rule:nonzero;"/><path d="M20.716,19.426c0,0 0.146,-0.005 0.351,0.064c0.202,0.066 0.455,0.205 0.659,0.394c0.208,0.187 0.366,0.415 0.467,0.595c0.101,0.181 0.143,0.322 0.143,0.322c0,0 -0.133,-0.063 -0.3,-0.181c-0.166,-0.119 -0.374,-0.284 -0.562,-0.458c-0.191,-0.172 -0.37,-0.355 -0.515,-0.492c-0.14,-0.136 -0.243,-0.244 -0.243,-0.244" style="fill:#b7a084;fill-rule:nonzero;"/><path d="M27.622,15.536c0,0 0.112,0.106 0.239,0.282c0.126,0.177 0.276,0.42 0.388,0.68c0.116,0.259 0.194,0.534 0.239,0.746c0.043,0.212 0.045,0.367 0.045,0.367c0,0 -0.112,-0.106 -0.239,-0.282c-0.127,-0.176 -0.276,-0.42 -0.388,-0.68c-0.116,-0.258 -0.193,-0.534 -0.238,-0.747c-0.044,-0.212 -0.046,-0.366 -0.046,-0.366" style="fill:#b7a084;fill-rule:nonzero;"/><path d="M18.347,28.242c0,0 0.15,0.091 0.346,0.235c0.196,0.147 0.452,0.337 0.696,0.539c0.247,0.198 0.486,0.409 0.67,0.571c0.182,0.163 0.3,0.291 0.3,0.291c0,0 -0.174,-0.02 -0.41,-0.111c-0.236,-0.089 -0.537,-0.246 -0.796,-0.461c-0.263,-0.21 -0.478,-0.473 -0.614,-0.686c-0.137,-0.214 -0.192,-0.378 -0.192,-0.378" style="fill:#b7a084;fill-rule:nonzero;"/><path d="M30.014,22.778c0,0 0.085,0.098 0.171,0.254c0.084,0.157 0.177,0.372 0.231,0.595c0.057,0.224 0.074,0.456 0.072,0.635c-0.003,0.178 -0.034,0.304 -0.034,0.304c0,0 -0.086,-0.097 -0.171,-0.254c-0.085,-0.157 -0.179,-0.371 -0.231,-0.595c-0.057,-0.223 -0.074,-0.456 -0.071,-0.634c0.002,-0.179 0.033,-0.305 0.033,-0.305" style="fill:#b7a084;fill-rule:nonzero;"/><path d="M35.085,16.976c0,0 0.005,0.182 -0.029,0.443c-0.036,0.259 -0.102,0.6 -0.207,0.928c-0.101,0.329 -0.243,0.647 -0.363,0.88c-0.121,0.232 -0.23,0.379 -0.23,0.379c0,0 -0.006,-0.183 0.029,-0.443c0.035,-0.26 0.101,-0.601 0.207,-0.928c0.102,-0.33 0.243,-0.646 0.364,-0.879c0.12,-0.234 0.229,-0.38 0.229,-0.38" style="fill:#b7a084;fill-rule:nonzero;"/><path d="M43.171,9.833c0,0 0.042,0.209 0.028,0.527c-0.013,0.315 -0.083,0.734 -0.22,1.128c-0.133,0.396 -0.325,0.766 -0.484,1.033c-0.162,0.267 -0.297,0.432 -0.297,0.432c0,0 0.025,-0.213 0.102,-0.513c0.077,-0.301 0.192,-0.692 0.324,-1.072c0.135,-0.381 0.268,-0.762 0.369,-1.047c0.1,-0.287 0.178,-0.488 0.178,-0.488" style="fill:#b7a084;fill-rule:nonzero;"/><path d="M35.4,11.102c0,0 0.149,0.052 0.341,0.163c0.192,0.112 0.435,0.275 0.65,0.469c0.218,0.192 0.409,0.414 0.541,0.593c0.133,0.178 0.201,0.32 0.201,0.32c0,0 -0.149,-0.052 -0.341,-0.163c-0.193,-0.111 -0.435,-0.275 -0.65,-0.47c-0.218,-0.191 -0.408,-0.414 -0.541,-0.592c-0.133,-0.179 -0.201,-0.32 -0.201,-0.32" style="fill:#b7a084;fill-rule:nonzero;"/><path d="M40.415,17.907c0,0 0.051,0.174 0.089,0.428c0.036,0.256 0.072,0.593 0.075,0.93c0.008,0.338 -0.016,0.676 -0.045,0.932c-0.029,0.257 -0.075,0.432 -0.075,0.432c0,0 -0.075,-0.165 -0.135,-0.418c-0.062,-0.254 -0.116,-0.596 -0.12,-0.939c-0.007,-0.344 0.037,-0.688 0.09,-0.943c0.052,-0.256 0.121,-0.422 0.121,-0.422" style="fill:#b7a084;fill-rule:nonzero;"/><path d="M49.769,14.995c0,0 -0.003,0.161 -0.041,0.383c-0.04,0.222 -0.104,0.51 -0.197,0.788c-0.09,0.279 -0.211,0.549 -0.312,0.751c-0.102,0.201 -0.195,0.331 -0.195,0.331c0,0 -0.024,-0.158 -0.009,-0.387c0.015,-0.228 0.063,-0.528 0.159,-0.813c0.093,-0.286 0.234,-0.555 0.358,-0.747c0.124,-0.193 0.237,-0.306 0.237,-0.306" style="fill:#b7a084;fill-rule:nonzero;"/><path d="M28.922,33.798c0,0 0.126,0.043 0.285,0.14c0.159,0.097 0.356,0.24 0.523,0.413c0.17,0.169 0.311,0.367 0.406,0.527c0.094,0.16 0.136,0.288 0.136,0.288c0,0 -0.128,-0.043 -0.286,-0.14c-0.159,-0.096 -0.356,-0.24 -0.523,-0.412c-0.17,-0.17 -0.31,-0.369 -0.405,-0.529c-0.094,-0.16 -0.136,-0.287 -0.136,-0.287" style="fill:#b7a084;fill-rule:nonzero;"/><path d="M37.329,28.491c0,0 0.122,0.094 0.266,0.256c0.143,0.163 0.318,0.39 0.456,0.638c0.142,0.245 0.247,0.511 0.313,0.718c0.066,0.207 0.083,0.36 0.083,0.36c0,0 -0.122,-0.093 -0.266,-0.256c-0.144,-0.163 -0.318,-0.39 -0.456,-0.638c-0.141,-0.245 -0.246,-0.511 -0.313,-0.718c-0.065,-0.207 -0.083,-0.36 -0.083,-0.36" style="fill:#b7a084;fill-rule:nonzero;"/><path d="M48.921,21.592c0,0 -0.03,0.257 -0.116,0.627c-0.088,0.37 -0.222,0.857 -0.396,1.328c-0.166,0.473 -0.39,0.937 -0.54,1.269c-0.154,0.33 -0.149,0.591 -0.149,0.591c0,0 -0.032,-0.057 -0.057,-0.171c-0.019,-0.111 -0.037,-0.285 0.002,-0.479c0.076,-0.388 0.219,-0.862 0.391,-1.338c0.17,-0.473 0.38,-0.932 0.551,-1.272c0.171,-0.339 0.314,-0.555 0.314,-0.555" style="fill:#b7a084;fill-rule:nonzero;"/><path d="M45.947,32.064c0,0 0.05,0.105 0.088,0.255c0.036,0.15 0.072,0.345 0.075,0.54c0.008,0.195 -0.016,0.391 -0.044,0.543c-0.029,0.152 -0.073,0.261 -0.073,0.261c0,0 -0.075,-0.09 -0.137,-0.237c-0.062,-0.147 -0.117,-0.35 -0.121,-0.556c-0.008,-0.206 0.036,-0.413 0.09,-0.562c0.053,-0.151 0.122,-0.244 0.122,-0.244" style="fill:#b7a084;fill-rule:nonzero;"/><path d="M28.825,9.594c0,0 0.116,-0.017 0.27,-0.01c0.154,0.009 0.351,0.032 0.538,0.085c0.189,0.049 0.37,0.129 0.507,0.199c0.138,0.072 0.228,0.146 0.228,0.146c0,0 -0.108,0.046 -0.267,0.062c-0.157,0.017 -0.368,0.011 -0.566,-0.046c-0.2,-0.052 -0.384,-0.154 -0.512,-0.248c-0.129,-0.095 -0.198,-0.188 -0.198,-0.188" style="fill:#b7a084;fill-rule:nonzero;"/><path d="M57.52,19.81c0,0 0.13,0.086 0.291,0.225c0.162,0.143 0.369,0.331 0.555,0.535c0.19,0.201 0.364,0.419 0.494,0.591c0.129,0.172 0.203,0.307 0.203,0.307c0,0 -0.149,-0.04 -0.342,-0.148c-0.193,-0.107 -0.432,-0.28 -0.629,-0.495c-0.2,-0.212 -0.355,-0.464 -0.449,-0.663c-0.094,-0.201 -0.123,-0.352 -0.123,-0.352" style="fill:#b7a084;fill-rule:nonzero;"/><path d="M60.964,14.348c0,0 0.035,0.179 0.06,0.434c0.023,0.256 0.053,0.591 0.066,0.925c0.018,0.333 0.018,0.669 0.018,0.927c-0.001,0.256 -0.019,0.437 -0.019,0.437c0,0 -0.099,-0.152 -0.188,-0.402c-0.09,-0.248 -0.171,-0.594 -0.185,-0.945c-0.019,-0.352 0.032,-0.703 0.098,-0.959c0.066,-0.258 0.15,-0.417 0.15,-0.417" style="fill:#b7a084;fill-rule:nonzero;"/><path d="M14.368,37.948c0,0 0.132,0.064 0.298,0.177c0.166,0.116 0.376,0.273 0.567,0.449c0.193,0.173 0.37,0.368 0.499,0.523c0.129,0.155 0.204,0.28 0.204,0.28c0,0 -0.144,-0.026 -0.332,-0.112c-0.188,-0.087 -0.424,-0.229 -0.623,-0.414c-0.203,-0.182 -0.366,-0.404 -0.47,-0.583c-0.104,-0.18 -0.143,-0.32 -0.143,-0.32" style="fill:#b7a084;fill-rule:nonzero;"/><path d="M10.573,29.185c0,0 0.01,0.142 -0.017,0.339c-0.028,0.198 -0.082,0.455 -0.176,0.696c-0.091,0.243 -0.219,0.471 -0.33,0.637c-0.112,0.166 -0.215,0.266 -0.215,0.266c0,0 -0.009,-0.144 0.018,-0.341c0.027,-0.198 0.082,-0.454 0.177,-0.695c0.09,-0.243 0.219,-0.471 0.33,-0.637c0.111,-0.166 0.213,-0.265 0.213,-0.265" style="fill:#b7a084;fill-rule:nonzero;"/><path d="M62.926,42.322l0.264,-0.067c0.093,-0.015 0.156,-0.065 0.244,-0.101l0.491,-0.234c0,-0.009 0.061,-0.051 0.089,-0.075l0.106,-0.084l0.214,-0.168l0.107,-0.084c0.01,-0.01 0.052,-0.039 0.036,-0.033l0.04,-0.048l0.157,-0.185l0.174,0.302l-0.271,0.021l-0.067,0.005c0.043,-0.015 -0.026,0.007 -0.033,0.008l-0.132,0.036l-0.261,0.074l-0.131,0.036c-0.036,0.009 -0.105,0.033 -0.113,0.027l-0.479,0.259c-0.081,0.05 -0.159,0.072 -0.225,0.138l-0.21,0.173Zm0,0l0.177,-0.206c0.051,-0.073 0.144,-0.128 0.207,-0.184l0.428,-0.336l0.508,-0.243l0.123,-0.059c0.035,-0.013 0.006,-0.013 0.094,-0.036l0.066,-0.016l0.264,-0.068l0.757,-0.191l-0.583,0.494l-0.229,0.194l-0.057,0.048c-0.048,0.036 -0.048,0.028 -0.074,0.045l-0.12,0.065l-0.495,0.267l-0.524,0.146c-0.083,0.018 -0.181,0.061 -0.271,0.059l-0.271,0.021Z" style="fill:#fff;fill-rule:nonzero;"/></svg>