<?xml version="1.0" encoding="UTF-8" standalone="no"?><!DOCTYPE svg PUBLIC "-//W3C//DTD SVG 1.1//EN" "http://www.w3.org/Graphics/SVG/1.1/DTD/svg11.dtd"><svg width="100%" height="100%" viewBox="0 0 283 213" version="1.1" xmlns="http://www.w3.org/2000/svg" xmlns:xlink="http://www.w3.org/1999/xlink" xml:space="preserve" style="fill-rule:evenodd;clip-rule:evenodd;stroke-linejoin:round;stroke-miterlimit:1.41421;"><path d="M242.584,133.139c0,36.8 -14.328,66.632 -32.006,66.632l-141.706,0c-17.675,0 -32.003,-29.832 -32.003,-66.632c0,-36.8 14.328,-66.628 32.003,-66.628l141.706,0c17.678,0 32.006,29.828 32.006,66.628Z" style="fill:#c3e5ee;fill-rule:nonzero;"/><path d="M104.388,53.18c0,-5.822 4.731,-10.562 10.565,-10.562c5.828,0 10.563,4.74 10.563,10.562c0,5.831 -4.735,10.569 -10.563,10.569c-5.825,0 -10.565,-4.738 -10.565,-10.569Z" style="fill:#c3e5ee;fill-rule:nonzero;"/><path d="M157.634,52.936c0,-5.825 4.732,-10.565 10.566,-10.565c5.828,0 10.562,4.74 10.562,10.565c0,5.828 -4.734,10.569 -10.562,10.569c-5.825,0 -10.566,-4.741 -10.566,-10.569Z" style="fill:#c3e5ee;fill-rule:nonzero;"/><path d="M215.691,86.505c-1.172,0 -2.1,-0.944 -2.1,-2.103c0,-3.478 -2.832,-6.309 -6.313,-6.309c-3.481,0 -6.316,2.831 -6.316,6.309c0,1.159 -0.946,2.103 -2.103,2.103c-1.153,0 -2.103,-0.944 -2.103,-2.103c0,-5.8 4.728,-10.525 10.532,-10.525c5.793,0 10.521,4.712 10.521,10.525c-0.009,1.159 -0.956,2.103 -2.118,2.103Zm-4.76,71.278l-19.006,0c-2.891,0 -5.219,2.331 -5.219,5.222l0,13.713c0,1.162 -0.943,2.1 -2.103,2.1l-30.5,0c-1.169,0 -2.1,-0.947 -2.1,-2.1l0,-13.713c0,-2.891 -2.334,-5.222 -5.219,-5.222l-4.268,0c-2.882,0 -5.219,2.331 -5.219,5.222l0,13.713c0,1.162 -0.944,2.1 -2.106,2.1l-30.497,0c-1.169,0 -2.106,-0.947 -2.106,-2.1l0,-13.713c0,-2.891 -2.344,-5.222 -5.219,-5.222l-18.813,0c-1.743,0 -3.15,-1.406 -3.15,-3.153c0,-1.731 1.413,-3.15 3.15,-3.15l132.375,0c1.744,0 3.15,1.419 3.15,3.15c0.006,1.747 -1.406,3.153 -3.15,3.153Zm-138.69,-73.381c0,1.159 -0.941,2.103 -2.103,2.103c-1.163,0 -2.1,-0.944 -2.1,-2.103c0,-5.8 4.718,-10.525 10.518,-10.525c5.797,0 10.516,4.712 10.516,10.525c0,1.159 -0.941,2.103 -2.097,2.103c-1.169,0 -2.106,-0.944 -2.106,-2.103c0,-3.478 -2.828,-6.309 -6.31,-6.309c-3.484,0 -6.318,2.831 -6.318,6.309Zm158.034,0.603c-2.853,-0.475 -5.109,-3.031 -5.909,-5.794c-2.163,-7.409 -8.91,-12.7 -16.885,-12.7c-7.943,0 -14.65,5.253 -16.853,12.478c-0.834,2.757 -3.097,5.141 -5.975,5.141l-83.187,0c-2.878,0 -5.138,-2.384 -5.975,-5.141c-2.21,-7.225 -8.916,-12.478 -16.86,-12.478c-7.944,0 -14.656,5.253 -16.862,12.478c-0.835,2.757 -3.097,5.197 -5.963,5.541c-31.409,3.663 -55.806,30.334 -55.806,62.722l0,2.094c0,34.862 28.259,63.125 63.116,63.125l156.734,0c34.856,0 63.113,-28.263 63.113,-63.125l0,-2.094c0,-31.309 -22.788,-57.272 -52.688,-62.247Z" style="fill:#a4abad;fill-rule:nonzero;"/><path d="M113.625,46.108c3.484,0 6.309,2.825 6.309,6.319c0,3.487 -2.825,6.309 -6.309,6.309c-3.487,0 -6.306,-2.831 -6.306,-6.309c0,-3.494 2.825,-6.319 6.306,-6.319Zm53.116,0c3.493,0 6.318,2.825 6.318,6.319c-0.009,3.487 -2.834,6.309 -6.318,6.309c-3.475,0 -6.297,-2.831 -6.297,-6.309c0,-3.494 2.822,-6.319 6.297,-6.319Zm-132.76,17.122c2.65,1.141 3.735,3.794 2.594,6.437c-2.341,5.385 -3.809,11.363 -4.122,17.994c-0.034,0.788 -0.047,1.581 -0.047,2.363c0.013,1.294 2.172,1.325 4.863,0.272c3.993,-1.547 8.162,-2.738 12.484,-3.541c2.831,-0.528 10.722,-5.2 12.016,-7.766c3.947,-7.818 7.022,-11.047 16.353,-11.047c9.172,0 13.353,3.454 17.369,11.047c1.343,2.544 8.059,6.575 10.94,6.575l72.244,0c2.884,0 9.25,-1.487 10.603,-4.031c4.025,-7.594 8.538,-13.591 17.7,-13.591c9.494,0 13.513,3.25 17.388,11.269c1.237,2.597 8.234,7.585 11.047,8.253c3.487,0.838 6.871,1.938 10.14,3.285c2.663,1.106 4.863,0.997 4.935,-0.453c0.043,-0.872 0.065,-1.747 0.065,-2.635c0,-7.125 -1.509,-13.503 -4.119,-19.222c-1.196,-2.622 -0.234,-5.437 2.319,-6.772c17.906,-9.365 32.485,-31.568 1.497,-54.287c-27.741,-20.344 -40.778,6.319 -45.484,20.553c-0.913,2.738 -3.65,4.113 -6.36,3.119c-17.693,-6.525 -33.068,-8.619 -33.068,-8.619c-7.088,-1.241 -35.822,-0.875 -48.126,0.078c-2.871,0.225 -7.481,1.013 -10.303,1.607c-5.615,1.181 -15.215,3.553 -25.69,7.768c-2.672,1.082 -5.344,-0.225 -6.222,-2.968c-4.428,-13.944 -17.416,-42.35 -45.806,-21.525c-32.857,24.081 -14.46,47.603 4.79,55.837Z" style="fill:#1b6381;fill-rule:nonzero;"/><path d="M214.931,23.764c-1.69,2.032 -1.259,5.463 0.572,7.363l3.303,3.456c1.838,1.909 4.935,1.95 7.4,1.019c0.857,-0.319 1.816,-0.584 2.872,-0.722c2.625,-0.347 5.36,2.397 5.044,5.006c-0.122,1.094 -0.384,2.088 -0.697,2.957c-0.891,2.481 -0.794,5.615 1.109,7.45l3.457,3.312c1.9,1.831 5.322,2.263 7.418,0.647c13.516,-10.453 10.65,-24.656 8.032,-31.722c-0.922,-2.481 -3.929,-5.241 -6.46,-6.009c-7.365,-2.225 -22.184,-4.679 -32.05,7.243Z" style="fill:#efd4d2;fill-rule:nonzero;"/><path d="M31.809,53.218c1.638,2.075 5.082,2.359 7.322,0.962l4.066,-2.516c2.244,-1.403 2.928,-4.422 2.528,-7.031c-0.134,-0.9 -0.197,-1.891 -0.112,-2.959c0.2,-2.635 3.449,-4.747 5.943,-3.894c1.044,0.344 1.96,0.806 2.747,1.294c2.241,1.384 5.328,1.94 7.516,0.456l3.959,-2.697c2.185,-1.487 3.316,-4.74 2.166,-7.125c-7.428,-15.384 -21.922,-15.522 -29.372,-14.425c-2.619,0.391 -5.941,2.763 -7.216,5.078c-3.706,6.747 -9.168,20.735 0.453,32.857Z" style="fill:#efd4d2;fill-rule:nonzero;"/></svg>