<?xml version="1.0" encoding="UTF-8" standalone="no"?>
<!DOCTYPE svg PUBLIC "-//W3C//DTD SVG 1.1//EN" "http://www.w3.org/Graphics/SVG/1.1/DTD/svg11.dtd">
<svg width="100%" height="100%" viewBox="0 0 34 34" version="1.1" xmlns="http://www.w3.org/2000/svg" xmlns:xlink="http://www.w3.org/1999/xlink" xml:space="preserve" xmlns:serif="http://www.serif.com/" style="fill-rule:evenodd;clip-rule:evenodd;stroke-linejoin:round;stroke-miterlimit:1.41421;">
    <g transform="matrix(1,0,0,1,0,2)">
        <path d="M4.736,14.008C4.721,13.839 4.778,13.699 4.905,13.586C5.353,13.584 5.8,13.583 6.249,13.581C6.839,14.215 7.456,14.188 8.095,13.658C8.689,13.765 9.283,13.871 9.877,13.979C10.543,13.995 11.211,14.012 11.877,14.029L11.879,14.498C10.457,14.644 10.975,16.332 10.015,16.845C9.821,16.858 9.627,16.87 9.434,16.883C7.517,16.294 7.517,16.294 6.655,17.758C6.115,18.074 5.563,18.108 5.449,17.39C5.335,16.667 5.532,15.896 5.428,15.17C5.368,14.758 4.978,14.393 4.736,14.008" style="fill:rgb(199,57,57);fill-rule:nonzero;"/>
    </g>
    <g transform="matrix(1,0,0,1,0,2)">
        <path d="M1.551,8.335C1.867,7.732 2.182,7.128 2.497,6.524C3.369,7.3 6.506,7.859 7.303,7.324C7.507,7.187 7.546,6.805 7.661,6.536C7.802,6.535 7.942,6.537 8.083,6.542C8.266,7.002 8.448,7.462 8.629,7.921C8.308,8.083 7.986,8.245 7.664,8.407C7.168,8.448 6.499,8.713 6.209,8.489C5.248,7.741 4.549,8.294 3.749,8.632C3.916,10.322 5.692,8.621 6.04,9.955C5.675,10.343 5.263,10.78 4.852,11.217C3.755,10.312 2.625,9.543 1.117,10.282C0.769,10.019 0.233,9.823 0.113,9.481C-0.153,8.719 0.006,8.087 1.079,8.413C1.237,8.386 1.394,8.361 1.551,8.335" style="fill:rgb(55,19,11);fill-rule:nonzero;"/>
    </g>
    <g transform="matrix(1,0,0,1,0,2)">
        <path d="M31.051,14.497C31.087,14.93 31.123,15.362 31.159,15.795C30.823,17.08 30.487,18.364 30.151,19.648C29.302,19.023 29.928,18.402 30.157,17.779C29.981,16.611 29.187,16.733 28.437,17.044C27.988,17.23 27.053,17.357 27.815,18.247C27.411,18.753 26.694,19.103 27.187,19.995C27.313,20.223 26.993,20.698 26.878,21.06C26.721,21.059 26.564,21.058 26.407,21.058C26.506,20.078 26.659,19.1 26.685,18.118C26.699,17.542 26.512,16.959 26.416,16.379C27.91,16.066 27.14,14.851 27.353,14.029C27.991,14.345 28.63,14.662 29.287,14.989C29.56,14.398 29.859,13.747 30.159,13.096C30.287,13.105 30.415,13.123 30.542,13.149C30.712,13.598 30.881,14.047 31.051,14.497" style="fill:rgb(37,13,13);fill-rule:nonzero;"/>
    </g>
    <g transform="matrix(1,0,0,1,0,2)">
        <path d="M4.736,14.008C4.978,14.393 5.368,14.758 5.428,15.17C5.532,15.896 5.335,16.667 5.449,17.39C5.563,18.108 6.115,18.074 6.655,17.758C6.671,18.083 6.688,18.408 6.704,18.733C6.629,19.346 6.425,19.976 6.508,20.567C6.643,21.519 6.967,22.444 7.21,23.381C7.202,23.546 7.195,23.713 7.187,23.879C7.031,23.879 6.874,23.878 6.718,23.877L6.718,23.88C6.588,23.564 6.458,23.249 6.328,22.934C4.477,20.194 3.875,17.231 4.736,14.008" style="fill:rgb(209,96,96);fill-rule:nonzero;"/>
    </g>
    <g transform="matrix(1,0,0,1,0,2)">
        <path d="M7.661,6.536C7.547,6.805 7.507,7.187 7.303,7.324C6.506,7.859 3.368,7.3 2.496,6.524L2.489,6.52C2.873,6.323 3.496,6.242 2.951,5.585C2.881,5.47 2.873,5.349 2.927,5.225C2.939,4.877 2.951,4.527 2.962,4.178L2.968,4.174L3.521,4.149C3.662,4.215 3.802,4.281 3.943,4.346C4.613,4.428 5.284,4.51 5.954,4.592C6.071,4.503 6.169,4.52 6.248,4.643C6.448,4.762 6.647,4.88 6.847,4.999C6.847,4.999 6.875,5.022 6.874,5.022C6.772,5.361 6.671,5.701 6.569,6.041C6.899,6.06 7.232,6.08 7.563,6.1L7.651,6.166C7.653,6.289 7.656,6.413 7.661,6.536" style="fill:rgb(46,11,9);fill-rule:nonzero;"/>
    </g>
    <g transform="matrix(1,0,0,1,0,2)">
        <path d="M26.462,26.312C25.087,27.621 23.36,27.732 21.603,27.741C21.644,27.389 21.684,27.036 21.725,26.684L23.599,25.747L25.472,24.81C25.786,24.656 26.101,24.501 26.415,24.346C26.569,24.344 26.722,24.342 26.875,24.339C27.034,24.186 27.192,24.031 27.351,23.877C27.816,23.565 28.282,23.253 28.748,22.941C28.748,23.244 28.748,23.547 28.749,23.85L28.738,23.874L28.338,24.411L28.358,24.388C28.167,24.651 27.975,24.915 27.783,25.179L27.709,25.254L27.357,25.593C27.305,25.758 27.193,25.83 27.021,25.811C26.835,25.977 26.649,26.145 26.462,26.312" style="fill:rgb(43,11,7);fill-rule:nonzero;"/>
    </g>
    <g transform="matrix(1,0,0,1,0,2)">
        <path d="M30.542,13.149C30.416,13.123 30.287,13.105 30.158,13.096C28.178,12.368 28.072,12.403 27.353,14.029C27.14,14.852 27.909,16.066 26.417,16.379L26.408,16.373C26.408,16.216 26.407,16.059 26.406,15.902L26.406,15.904C26.563,14.81 26.72,13.716 26.876,12.622C26.88,12.314 26.885,12.007 26.889,11.698C27.741,10.978 28.712,10.6 29.84,10.672C30.113,11.299 30.385,11.925 30.658,12.552C30.62,12.751 30.581,12.949 30.542,13.149" style="fill:rgb(53,28,28);fill-rule:nonzero;"/>
    </g>
    <g transform="matrix(1,0,0,1,0,2)">
        <path d="M10.784,3.622C13.403,1.428 16.589,0.813 19.835,0.36C19.862,0.83 19.891,1.3 19.919,1.771C19.25,1.8 18.581,1.828 17.915,1.857C17.321,1.462 16.925,1.455 16.979,2.332C16.841,2.335 16.706,2.342 16.568,2.355L16.528,2.324C16.235,1.802 15.935,1.855 15.629,2.313C15.475,2.315 15.32,2.317 15.166,2.317C14.07,2.783 12.975,3.25 11.879,3.716C11.515,3.685 11.15,3.654 10.784,3.622" style="fill:rgb(208,83,83);fill-rule:nonzero;"/>
    </g>
    <g transform="matrix(1,0,0,1,0,2)">
        <path d="M15.174,28.961C13.132,29.788 11.591,28.852 10.154,27.542C11.934,26.905 11.934,26.905 11.829,24.836C12.007,25.231 12.31,25.618 12.338,26.025C12.415,27.123 13.033,27.787 13.909,28.513C14.221,27.97 14.447,27.575 14.673,27.181C14.81,27.178 14.946,27.177 15.082,27.177C15.26,27.329 15.439,27.481 15.616,27.634C15.469,28.076 15.321,28.519 15.174,28.961" style="fill:rgb(144,48,48);fill-rule:nonzero;"/>
    </g>
    <g transform="matrix(1,0,0,1,0,2)">
        <path d="M1.116,10.281C2.625,9.543 3.756,10.312 4.851,11.217C4.985,11.52 5.118,11.824 5.25,12.127L5.417,12.171C5.22,12.354 5.022,12.537 4.824,12.72C2.313,12.915 2.245,12.871 1.116,10.281" style="fill:rgb(60,30,25);fill-rule:nonzero;"/>
    </g>
    <g transform="matrix(1,0,0,1,0,2)">
        <path d="M10.784,3.622C11.15,3.654 11.515,3.685 11.879,3.716C12.975,3.25 14.07,2.783 15.166,2.317C15.32,2.317 15.475,2.315 15.629,2.313C15.929,2.317 16.229,2.321 16.528,2.324C16.528,2.324 16.568,2.355 16.568,2.354C16.721,2.5 16.874,2.647 17.027,2.794C17.18,2.806 17.333,2.819 17.486,2.832C17.648,3.127 17.81,3.423 17.972,3.718C17.662,3.874 17.352,4.029 17.042,4.184C16.887,4.16 16.733,4.135 16.579,4.11C16.423,3.98 16.267,3.848 16.11,3.717C15.631,3.717 15.151,3.718 14.672,3.718C13.572,3.984 12.767,5.274 11.413,4.655C11.101,4.515 10.79,4.375 10.478,4.234L10.472,4.184C10.486,4.062 10.489,3.939 10.484,3.817C10.545,3.691 10.645,3.626 10.784,3.622" style="fill:rgb(193,56,56);fill-rule:nonzero;"/>
    </g>
    <g transform="matrix(1,0,0,1,0,2)">
        <path d="M30.15,19.649C30.486,18.365 30.822,17.08 31.158,15.795C32.051,18.616 30.733,20.879 29.312,23.116C29.127,22.901 28.941,22.685 28.755,22.471C28.753,22.313 28.752,22.157 28.75,22.001C28.904,21.686 29.058,21.372 29.212,21.058C29.525,20.588 29.838,20.118 30.15,19.649" style="fill:rgb(54,33,33);fill-rule:nonzero;"/>
    </g>
    <g transform="matrix(1,0,0,1,0,2)">
        <path d="M11.829,24.836C11.934,26.905 11.934,26.905 10.154,27.542C9.789,27.272 9.424,27.001 9.059,26.73C9.208,26.562 9.358,26.394 9.508,26.226C9.494,25.911 9.48,25.595 9.466,25.28C9.8,24.963 10.135,24.647 10.469,24.329C10.726,24.354 10.985,24.379 11.243,24.404L11.863,24.85L11.829,24.836Z" style="fill:rgb(216,193,193);fill-rule:nonzero;"/>
    </g>
    <g transform="matrix(1,0,0,1,0,2)">
        <path d="M31.746,3.173C32.183,3.607 32.619,4.041 33.055,4.475C33.024,4.689 32.992,4.903 32.961,5.117C32.497,5.272 32.034,5.428 31.572,5.584C31.423,5.407 31.275,5.23 31.128,5.053C30.745,4.764 30.387,4.433 29.973,4.199C29.595,3.985 29.159,3.877 28.748,3.721C28.765,3.562 28.784,3.402 28.802,3.242C28.941,3.09 29.079,2.938 29.219,2.785C29.533,2.783 29.848,2.782 30.162,2.779C30.69,2.911 31.218,3.042 31.746,3.173" style="fill:rgb(179,41,41);fill-rule:nonzero;"/>
    </g>
    <g transform="matrix(1,0,0,1,0,2)">
        <path d="M19.919,1.771C19.891,1.301 19.863,0.831 19.836,0.361C20.471,0.241 21.107,0.121 21.743,0.001C21.893,0.302 22.044,0.604 22.195,0.905C22.238,1.018 22.261,1.134 22.264,1.254C22.233,1.738 22.202,2.221 22.172,2.706C22.079,2.806 21.965,2.854 21.828,2.846C21.464,2.842 21.101,2.839 20.737,2.835L20.744,2.848C20.612,2.668 20.482,2.489 20.351,2.31C20.202,2.135 20.054,1.96 19.904,1.786L19.919,1.771Z" style="fill:rgb(234,200,200);fill-rule:nonzero;"/>
    </g>
    <g transform="matrix(1,0,0,1,0,2)">
        <path d="M18.843,27.563C17.856,28.216 17.031,29.242 15.638,28.972C15.944,28.516 16.251,28.058 16.557,27.601C16.753,27.117 16.949,26.633 17.145,26.149C17.547,26.188 17.95,26.226 18.353,26.265C18.543,26.562 18.734,26.859 18.924,27.156C18.869,27.286 18.842,27.422 18.843,27.563" style="fill:rgb(193,109,109);fill-rule:nonzero;"/>
    </g>
    <g transform="matrix(1,0,0,1,0,2)">
        <path d="M8.63,7.922C8.448,7.462 8.266,7.002 8.084,6.542L7.651,6.167C7.651,6.167 7.563,6.101 7.564,6.1C7.589,5.994 7.614,5.888 7.636,5.781C7.946,5.71 8.258,5.638 8.568,5.566L8.707,5.649L9.05,5.598C9.187,5.594 9.323,5.577 9.458,5.544L9.569,5.615C9.577,5.883 9.584,6.152 9.593,6.421C9.05,7.107 9.608,7.492 10.004,7.922C9.546,7.922 9.088,7.922 8.63,7.922" style="fill:rgb(129,22,20);fill-rule:nonzero;"/>
    </g>
    <g transform="matrix(1,0,0,1,0,2)">
        <path d="M32.513,8.859C31.557,9.316 30.602,9.773 29.647,10.231C29.501,10.097 29.357,9.962 29.212,9.827C29.216,9.511 29.222,9.196 29.227,8.88C29.693,8.876 30.16,8.873 30.627,8.869C30.938,8.862 31.25,8.856 31.562,8.849C31.72,8.546 31.877,8.241 32.035,7.937C32.195,8.245 32.354,8.552 32.513,8.859" style="fill:rgb(184,68,68);fill-rule:nonzero;"/>
    </g>
    <g transform="matrix(1,0,0,1,0,2)">
        <path d="M30.162,2.78C29.848,2.781 29.533,2.783 29.219,2.785C29.079,2.782 28.94,2.778 28.8,2.773C28.646,2.444 28.493,2.114 28.338,1.785C28.195,1.621 28.052,1.457 27.908,1.292C28.036,1.162 28.164,1.031 28.292,0.901C28.441,0.944 28.59,0.987 28.74,1.03C28.934,1.124 29.13,1.217 29.325,1.31C29.471,1.3 29.588,1.353 29.677,1.469C29.846,1.589 30.015,1.71 30.185,1.83C30.345,1.987 30.505,2.143 30.666,2.299C30.497,2.459 30.33,2.62 30.162,2.78" style="fill:rgb(167,42,42);fill-rule:nonzero;"/>
    </g>
    <g transform="matrix(1,0,0,1,0,2)">
        <path d="M21.725,26.684C21.684,27.036 21.644,27.388 21.603,27.741C20.864,27.682 20.125,27.623 19.386,27.564C19.382,27.427 19.38,27.29 19.379,27.153L20.317,26.688C20.627,26.685 20.936,26.681 21.245,26.678C21.405,26.68 21.565,26.682 21.725,26.684" style="fill:rgb(54,18,13);fill-rule:nonzero;"/>
    </g>
    <g transform="matrix(1,0,0,1,0,2)">
        <path d="M32.513,8.859C32.354,8.552 32.195,8.245 32.035,7.937C32.034,7.782 32.035,7.627 32.039,7.472C32.676,7.316 33.314,7.16 33.952,7.004C33.914,7.965 33.403,8.559 32.513,8.859" style="fill:rgb(189,77,77);fill-rule:nonzero;"/>
    </g>
    <g transform="matrix(1,0,0,1,0,2)">
        <path d="M22.195,0.905C22.044,0.604 21.893,0.302 21.743,0C22.984,0.119 24.225,0.238 25.466,0.357C25.559,0.421 25.57,0.497 25.499,0.585C25.337,0.565 25.175,0.544 25.013,0.524C24.074,0.65 23.135,0.778 22.195,0.905" style="fill:rgb(223,157,157);fill-rule:nonzero;"/>
    </g>
    <g transform="matrix(1,0,0,1,0,2)">
        <path d="M29.211,9.826C29.356,9.961 29.502,10.096 29.646,10.231C29.71,10.377 29.775,10.524 29.84,10.671C28.712,10.599 27.741,10.978 26.889,11.698C26.889,11.697 26.872,11.682 26.872,11.682C26.883,11.379 26.896,11.076 26.908,10.773C27.053,10.606 27.198,10.439 27.344,10.272L27.537,10.242L27.732,10.249C28.069,10.131 28.406,10.011 28.743,9.892L29.211,9.826Z" style="fill:rgb(66,50,50);fill-rule:nonzero;"/>
    </g>
    <g transform="matrix(1,0,0,1,0,2)">
        <path d="M33.952,7.004C33.313,7.16 32.676,7.316 32.038,7.472C32.502,7.001 32.966,6.531 33.43,6.061C33.403,5.764 33.375,5.468 33.348,5.171L33.478,5.096C33.636,5.732 33.793,6.368 33.952,7.004" style="fill:rgb(184,68,68);fill-rule:nonzero;"/>
    </g>
    <g transform="matrix(1,0,0,1,0,2)">
        <path d="M25.466,0.357C25.782,0.409 26.098,0.462 26.414,0.514C26.424,0.683 26.436,0.852 26.448,1.02C26.443,1.135 26.424,1.247 26.391,1.357C26.172,1.524 25.953,1.69 25.733,1.857C25.637,2.006 25.54,2.154 25.444,2.303C25.294,2.148 25.144,1.992 24.995,1.836C25.164,1.419 25.332,1.002 25.5,0.585C25.57,0.497 25.559,0.42 25.466,0.357" style="fill:rgb(165,43,43);fill-rule:nonzero;"/>
    </g>
    <g transform="matrix(1,0,0,1,0,2)">
        <path d="M4.825,12.721C5.023,12.538 5.219,12.355 5.417,12.171C5.693,12.641 5.971,13.111 6.248,13.581C5.801,13.582 5.353,13.584 4.904,13.586C4.878,13.298 4.852,13.009 4.825,12.721" style="fill:rgb(155,43,43);fill-rule:nonzero;"/>
    </g>
    <g transform="matrix(1,0,0,1,0,2)">
        <path d="M16.557,27.601C16.251,28.058 15.944,28.516 15.637,28.972C15.483,28.969 15.327,28.965 15.173,28.961C15.321,28.519 15.469,28.076 15.616,27.634C15.93,27.622 16.243,27.612 16.557,27.601" style="fill:rgb(166,66,66);fill-rule:nonzero;"/>
    </g>
    <g transform="matrix(1,0,0,1,0,2)">
        <path d="M7.636,5.781C7.614,5.888 7.589,5.994 7.564,6.099C7.232,6.08 6.9,6.06 6.569,6.041C6.671,5.701 6.773,5.361 6.874,5.022C7.128,5.275 7.382,5.529 7.636,5.781" style="fill:rgb(66,27,20);fill-rule:nonzero;"/>
    </g>
    <g transform="matrix(1,0,0,1,0,2)">
        <path d="M8.66,26.175C8.314,25.738 7.968,25.3 7.622,24.862C7.643,24.683 7.663,24.505 7.682,24.328L7.901,24.334L8.121,24.334C8.3,24.784 8.479,25.234 8.657,25.684C8.691,25.838 8.725,25.992 8.759,26.145L8.66,26.175Z" style="fill:rgb(147,63,63);fill-rule:nonzero;"/>
    </g>
    <g transform="matrix(1,0,0,1,0,2)">
        <path d="M30.542,13.149C30.581,12.949 30.62,12.751 30.658,12.552C30.789,13.2 30.92,13.849 31.052,14.497C30.881,14.048 30.712,13.598 30.542,13.149" style="fill:rgb(54,33,33);fill-rule:nonzero;"/>
    </g>
    <g transform="matrix(1,0,0,1,0,2)">
        <path d="M30.162,2.78C30.33,2.62 30.497,2.459 30.666,2.299C31.026,2.59 31.387,2.882 31.747,3.173C31.218,3.042 30.69,2.911 30.162,2.78" style="fill:rgb(144,43,43);fill-rule:nonzero;"/>
    </g>
    <g transform="matrix(1,0,0,1,0,2)">
        <path d="M5.954,4.592C5.284,4.51 4.613,4.428 3.943,4.347C4.613,4.428 5.284,4.51 5.954,4.592" style="fill:rgb(66,27,20);fill-rule:nonzero;"/>
    </g>
    <g transform="matrix(1,0,0,1,0,2)">
        <path d="M28.292,0.901C28.164,1.031 28.036,1.162 27.908,1.292L27.813,1.377C27.68,1.352 27.545,1.327 27.41,1.303C27.389,1.145 27.368,0.989 27.346,0.832C27.331,0.734 27.321,0.637 27.317,0.539C27.643,0.659 27.967,0.78 28.292,0.901" style="fill:rgb(186,87,87);fill-rule:nonzero;"/>
    </g>
    <g transform="matrix(1,0,0,1,0,2)">
        <path d="M9.048,5.108C9.197,4.952 9.347,4.797 9.497,4.641C9.666,4.647 9.835,4.652 10.004,4.656C10.006,4.812 10.009,4.969 10.011,5.126C9.936,5.236 9.892,5.358 9.883,5.491C9.779,5.534 9.674,5.576 9.568,5.614C9.568,5.614 9.457,5.544 9.458,5.544C9.322,5.399 9.185,5.253 9.048,5.108" style="fill:rgb(103,35,35);fill-rule:nonzero;"/>
    </g>
    <g transform="matrix(1,0,0,1,0,2)">
        <path d="M2.95,5.586C3.496,6.243 2.873,6.322 2.489,6.52C2.643,6.208 2.797,5.897 2.95,5.586" style="fill:rgb(66,27,20);fill-rule:nonzero;"/>
    </g>
    <g transform="matrix(1,0,0,1,0,2)">
        <path d="M28.754,22.471C28.94,22.686 29.126,22.9 29.312,23.116C29.124,23.361 28.936,23.606 28.748,23.851C28.748,23.548 28.748,23.245 28.748,22.941C28.75,22.784 28.752,22.627 28.754,22.471" style="fill:rgb(54,24,16);fill-rule:nonzero;"/>
    </g>
    <g transform="matrix(1,0,0,1,0,2)">
        <path d="M7.683,24.327C7.663,24.505 7.643,24.683 7.623,24.861C7.464,24.708 7.307,24.555 7.15,24.4C7.163,24.226 7.175,24.053 7.187,23.879C7.195,23.713 7.202,23.547 7.21,23.381C7.356,23.397 7.505,23.409 7.653,23.416C7.662,23.72 7.672,24.024 7.683,24.327" style="fill:rgb(187,90,90);fill-rule:nonzero;"/>
    </g>
    <g transform="matrix(1,0,0,1,0,2)">
        <path d="M9.048,5.108C9.185,5.253 9.322,5.399 9.458,5.544C9.323,5.577 9.187,5.595 9.05,5.598C8.933,5.6 8.818,5.617 8.707,5.649L8.568,5.565C8.728,5.413 8.888,5.26 9.048,5.108" style="fill:rgb(102,23,23);fill-rule:nonzero;"/>
    </g>
    <g transform="matrix(1,0,0,1,0,2)">
        <path d="M10.004,4.656C9.835,4.652 9.666,4.647 9.497,4.641C9.663,4.483 9.829,4.325 9.995,4.166C10.154,4.172 10.313,4.178 10.472,4.185L10.478,4.235C10.478,4.373 10.477,4.512 10.475,4.65L10.004,4.656Z" style="fill:rgb(131,41,41);fill-rule:nonzero;"/>
    </g>
    <g transform="matrix(1,0,0,1,0,2)">
        <path d="M2.962,4.178C2.95,4.527 2.939,4.877 2.928,5.225C2.48,4.862 2.289,4.506 2.962,4.178" style="fill:rgb(66,27,20);fill-rule:nonzero;"/>
    </g>
    <g transform="matrix(1,0,0,1,0,2)">
        <path d="M27.317,0.538C27.321,0.637 27.331,0.735 27.346,0.832C27.047,0.895 26.747,0.958 26.447,1.021C26.436,0.852 26.425,0.683 26.414,0.514C26.715,0.523 27.017,0.531 27.317,0.538" style="fill:rgb(150,37,37);fill-rule:nonzero;"/>
    </g>
    <g transform="matrix(1,0,0,1,0,2)">
        <path d="M9.508,26.226C9.359,26.394 9.209,26.562 9.059,26.73C8.927,26.546 8.794,26.36 8.66,26.175C8.66,26.175 8.759,26.145 8.758,26.145C8.836,26.18 8.918,26.193 9.004,26.185C9.172,26.199 9.34,26.213 9.508,26.226" style="fill:rgb(103,53,53);fill-rule:nonzero;"/>
    </g>
    <g transform="matrix(1,0,0,1,0,2)">
        <path d="M27.783,25.178C27.975,24.914 28.167,24.651 28.358,24.388C28.167,24.651 27.975,24.914 27.783,25.178" style="fill:rgb(54,24,16);fill-rule:nonzero;"/>
    </g>
    <g transform="matrix(1,0,0,1,0,2)">
        <path d="M6.328,22.934C6.458,23.249 6.588,23.564 6.718,23.88C6.588,23.564 6.458,23.249 6.328,22.934" style="fill:rgb(208,123,123);fill-rule:nonzero;"/>
    </g>
    <g transform="matrix(1,0,0,1,0,2)">
        <path d="M1.551,8.335C1.394,8.361 1.237,8.386 1.079,8.413C1.237,8.386 1.393,8.361 1.551,8.335" style="fill:rgb(75,5,5);fill-rule:nonzero;"/>
    </g>
    <g transform="matrix(1,0,0,1,0,2)">
        <path d="M32.961,5.117C32.992,4.903 33.024,4.69 33.055,4.475C33.195,4.681 33.336,4.889 33.477,5.096C33.477,5.096 33.348,5.17 33.349,5.17C33.222,5.143 33.092,5.125 32.961,5.117" style="fill:rgb(186,57,57);fill-rule:nonzero;"/>
    </g>
    <g transform="matrix(1,0,0,1,0,2)">
        <path d="M6.847,4.999C6.647,4.881 6.448,4.762 6.248,4.644C6.448,4.762 6.647,4.881 6.847,4.999" style="fill:rgb(66,27,20);fill-rule:nonzero;"/>
    </g>
    <g transform="matrix(1,0,0,1,0,2)">
        <path d="M10.472,4.184C10.313,4.178 10.154,4.172 9.995,4.166C10.158,4.049 10.321,3.933 10.484,3.817C10.489,3.939 10.486,4.062 10.472,4.184" style="fill:rgb(205,74,74);fill-rule:nonzero;"/>
    </g>
    <g transform="matrix(1,0,0,1,0,2)">
        <path d="M3.522,4.15L2.968,4.174L3.522,4.15Z" style="fill:rgb(66,27,20);fill-rule:nonzero;"/>
    </g>
    <g transform="matrix(1,0,0,1,0,2)">
        <path d="M30.185,1.83C30.015,1.71 29.846,1.589 29.676,1.469C29.846,1.59 30.015,1.71 30.185,1.83" style="fill:rgb(186,87,87);fill-rule:nonzero;"/>
    </g>
    <g transform="matrix(1,0,0,1,0,2)">
        <path d="M29.325,1.309C29.13,1.216 28.934,1.123 28.74,1.029C28.934,1.123 29.13,1.216 29.325,1.309" style="fill:rgb(186,87,87);fill-rule:nonzero;"/>
    </g>
    <g transform="matrix(1,0,0,1,0,2)">
        <path d="M19.379,27.153C19.38,27.29 19.382,27.427 19.386,27.564C19.206,27.564 19.025,27.564 18.845,27.562C18.842,27.421 18.869,27.285 18.925,27.156C19.076,27.153 19.227,27.152 19.379,27.153" style="fill:rgb(66,35,33);fill-rule:nonzero;"/>
    </g>
    <g transform="matrix(1,0,0,1,0,2)">
        <path d="M26.462,26.312C26.649,26.145 26.835,25.977 27.021,25.811C26.835,25.978 26.648,26.145 26.462,26.312" style="fill:rgb(54,24,16);fill-rule:nonzero;"/>
    </g>
    <g transform="matrix(1,0,0,1,0,2)">
        <path d="M27.358,25.594L27.709,25.254L27.358,25.594Z" style="fill:rgb(54,24,16);fill-rule:nonzero;"/>
    </g>
    <g transform="matrix(1,0,0,1,0,2)">
        <path d="M28.338,24.41L28.738,23.874L28.338,24.41Z" style="fill:rgb(54,24,16);fill-rule:nonzero;"/>
    </g>
    <g transform="matrix(1,0,0,1,0,2)">
        <path d="M7.187,23.879C7.175,24.052 7.163,24.226 7.15,24.4C7.006,24.226 6.862,24.051 6.718,23.877C6.874,23.878 7.031,23.878 7.187,23.879" style="fill:rgb(208,123,123);fill-rule:nonzero;"/>
    </g>
    <g transform="matrix(1,0,0,1,0,2)">
        <path d="M6.249,13.581C5.971,13.111 5.694,12.641 5.417,12.171C5.418,12.171 5.25,12.128 5.251,12.128C6.205,11.023 7.16,9.918 8.115,8.812C8.745,8.832 9.375,8.851 10.005,8.871C10.645,9.166 11.285,9.46 11.925,9.755C11.667,10.014 11.414,10.278 11.149,10.53C10.872,10.793 10.584,11.044 10.299,11.301C10.176,11.313 10.077,11.267 10.006,11.165C9.348,10.548 8.724,10.47 8.159,11.285L8.191,11.251C8.036,11.443 7.881,11.636 7.727,11.829C7.85,12.438 7.972,13.049 8.095,13.659C7.456,14.188 6.839,14.215 6.249,13.581" style="fill:rgb(154,28,28);fill-rule:nonzero;"/>
    </g>
    <g transform="matrix(1,0,0,1,0,2)">
        <path d="M6.704,18.733C6.688,18.408 6.671,18.082 6.655,17.758C7.517,16.294 7.517,16.294 9.434,16.882C9.598,17.356 9.762,17.83 9.925,18.304C9.639,18.753 9.352,19.202 9.066,19.651C8.755,19.678 8.443,19.705 8.131,19.732L7.211,19.57C7.2,19.423 7.141,19.3 7.034,19.199L6.712,18.745L6.704,18.733Z" style="fill:rgb(238,216,216);fill-rule:nonzero;"/>
    </g>
    <g transform="matrix(1,0,0,1,0,2)">
        <path d="M8.095,13.658C7.972,13.048 7.85,12.439 7.727,11.829C7.881,11.636 8.036,11.443 8.191,11.251L8.159,11.284C8.774,11.245 9.39,11.205 10.006,11.164C10.078,11.267 10.175,11.312 10.3,11.3C10.404,11.599 10.509,11.897 10.613,12.196C10.367,12.79 10.121,13.384 9.875,13.978C9.282,13.872 8.688,13.765 8.095,13.658" style="fill:rgb(229,208,208);fill-rule:nonzero;"/>
    </g>
    <g transform="matrix(1,0,0,1,0,2)">
        <path d="M10.015,16.845C10.975,16.332 10.457,14.644 11.879,14.498C12.061,14.506 12.241,14.515 12.423,14.523C12.367,14.678 12.312,14.834 12.255,14.989C12.128,15.451 12.001,15.913 11.874,16.376C11.409,17.823 11.409,17.823 10.03,17.283C10.025,17.137 10.02,16.992 10.015,16.845" style="fill:rgb(180,41,41);fill-rule:nonzero;"/>
    </g>
    <g transform="matrix(1,0,0,1,0,2)">
        <path d="M12.422,14.523C12.241,14.515 12.061,14.506 11.879,14.498L11.877,14.029C12.037,13.72 12.196,13.412 12.355,13.103L15.16,12.631C15.161,12.94 15.162,13.248 15.163,13.557C15.148,13.904 15.132,14.251 15.117,14.599C14.978,14.552 14.837,14.518 14.692,14.497C14.069,13.82 13.439,13.784 12.802,14.479C12.677,14.501 12.55,14.515 12.422,14.523" style="fill:rgb(181,54,54);fill-rule:nonzero;"/>
    </g>
    <g transform="matrix(1,0,0,1,0,2)">
        <path d="M12.355,13.103C12.196,13.412 12.037,13.72 11.877,14.029C11.211,14.012 10.544,13.995 9.876,13.979C10.121,13.385 10.368,12.79 10.613,12.195C11.327,12.736 11.451,11.83 11.882,11.678C12.037,11.681 12.191,11.685 12.346,11.69C12.204,12.162 11.609,12.637 12.355,13.103" style="fill:rgb(192,60,60);fill-rule:nonzero;"/>
    </g>
    <g transform="matrix(1,0,0,1,0,2)">
        <path d="M10.015,16.845C10.02,16.992 10.025,17.137 10.03,17.283C10.034,17.597 10.038,17.911 10.042,18.225L9.925,18.304C9.762,17.83 9.598,17.357 9.434,16.883C9.627,16.87 9.821,16.858 10.015,16.845" style="fill:rgb(199,62,62);fill-rule:nonzero;"/>
    </g>
    <g transform="matrix(1,0,0,1,0,2)">
        <path d="M8.115,8.812C7.16,9.918 6.205,11.023 5.251,12.128C5.118,11.824 4.985,11.52 4.852,11.217C5.263,10.78 5.675,10.344 6.04,9.955C5.693,8.621 3.916,10.323 3.749,8.631C4.549,8.294 5.248,7.741 6.209,8.489C6.499,8.714 7.168,8.448 7.664,8.406C7.814,8.542 7.965,8.677 8.115,8.812" style="fill:rgb(49,8,7);fill-rule:nonzero;"/>
    </g>
    <g transform="matrix(1,0,0,1,0,2)">
        <path d="M8.115,8.812C7.965,8.677 7.814,8.542 7.664,8.406C7.986,8.245 8.308,8.083 8.63,7.922C9.088,7.921 9.546,7.921 10.005,7.921C10.333,8.076 10.661,8.23 10.99,8.385C10.662,8.547 10.333,8.709 10.006,8.871C9.375,8.851 8.745,8.832 8.115,8.812" style="fill:rgb(53,12,1);fill-rule:nonzero;"/>
    </g>
    <g transform="matrix(1,0,0,1,0,2)">
        <path d="M7.651,6.166L8.084,6.542C7.943,6.537 7.802,6.534 7.662,6.536C7.656,6.413 7.653,6.289 7.651,6.166" style="fill:rgb(66,27,20);fill-rule:nonzero;"/>
    </g>
    <g transform="matrix(1,0,0,1,0,2)">
        <path d="M26.417,16.379C26.513,16.958 26.699,17.541 26.684,18.119C26.659,19.1 26.506,20.078 26.406,21.058L26.408,21.057C26.252,21.212 26.096,21.368 25.94,21.522C25.785,21.524 25.63,21.528 25.475,21.532C25.319,21.53 25.163,21.53 25.007,21.531C24.695,21.374 24.384,21.217 24.072,21.06L24.062,21.061C23.906,20.749 23.75,20.437 23.595,20.125C23.168,19.644 22.742,19.163 22.035,18.368C21.869,19.302 21.795,19.712 21.722,20.123C21.722,20.279 21.723,20.435 21.723,20.591C21.723,20.747 21.722,20.903 21.722,21.06C21.566,21.529 21.41,21.997 21.254,22.466C21.026,22.599 20.755,22.691 20.584,22.876C20.304,23.176 20.089,23.537 19.847,23.872L19.847,22.934C19.849,21.375 19.851,19.816 19.853,18.257C20.762,18.249 21.671,18.214 22.578,18.241C23.603,18.271 24.452,18.115 24.527,16.845C25.154,16.688 25.781,16.531 26.408,16.373L26.417,16.379Z" style="fill:rgb(52,28,28);fill-rule:nonzero;"/>
    </g>
    <g transform="matrix(1,0,0,1,0,2)">
        <path d="M30.15,19.649C29.838,20.118 29.525,20.588 29.212,21.058C28.434,21.059 27.656,21.059 26.877,21.06C26.993,20.698 27.313,20.223 27.187,19.994C26.694,19.103 27.411,18.753 27.815,18.248C28.596,18.092 29.376,17.936 30.156,17.779C29.928,18.401 29.301,19.023 30.15,19.649" style="fill:rgb(31,11,11);fill-rule:nonzero;"/>
    </g>
    <g transform="matrix(1,0,0,1,0,2)">
        <path d="M27.353,14.029C28.072,12.403 28.178,12.368 30.158,13.096C29.859,13.747 29.559,14.398 29.287,14.989C28.629,14.662 27.992,14.345 27.353,14.029" style="fill:rgb(25,15,15);fill-rule:nonzero;"/>
    </g>
    <g transform="matrix(1,0,0,1,0,2)">
        <path d="M26.877,21.06C27.656,21.059 28.434,21.058 29.212,21.058C29.058,21.372 28.904,21.686 28.75,22C27.535,22.707 26.44,22.578 25.475,21.532C25.63,21.528 25.785,21.525 25.94,21.523C26.096,21.367 26.252,21.213 26.408,21.058L26.406,21.058C26.564,21.058 26.72,21.059 26.877,21.06" style="fill:rgb(23,16,16);fill-rule:nonzero;"/>
    </g>
    <g transform="matrix(1,0,0,1,0,2)">
        <path d="M30.156,17.779C29.376,17.935 28.596,18.092 27.815,18.248C27.053,17.358 27.988,17.23 28.437,17.044C29.187,16.733 29.982,16.611 30.156,17.779" style="fill:rgb(24,8,8);fill-rule:nonzero;"/>
    </g>
    <g transform="matrix(1,0,0,1,0,2)">
        <path d="M8.132,19.732C8.443,19.705 8.755,19.679 9.066,19.652C9.536,19.809 10.004,19.966 10.474,20.123C10.475,20.279 10.477,20.437 10.478,20.594C10.003,21.051 9.527,21.508 9.052,21.965L8.138,22.006C7.976,22.476 7.814,22.946 7.652,23.417C7.505,23.41 7.357,23.398 7.21,23.381C6.966,22.444 6.643,21.519 6.509,20.567C6.425,19.976 6.629,19.346 6.704,18.733L6.711,18.745L7.034,19.199C7.142,19.3 7.2,19.424 7.211,19.571C7.433,19.808 7.654,20.046 7.876,20.284C7.961,20.1 8.047,19.916 8.132,19.732" style="fill:rgb(200,60,60);fill-rule:nonzero;"/>
    </g>
    <g transform="matrix(1,0,0,1,0,2)">
        <path d="M25.475,21.532C26.44,22.578 27.535,22.707 28.75,22.001C28.751,22.157 28.753,22.314 28.754,22.47C28.752,22.627 28.75,22.785 28.748,22.941C28.282,23.253 27.816,23.565 27.35,23.877C27.037,23.72 26.723,23.562 26.408,23.405C25.784,23.406 25.16,23.407 24.535,23.409L24.534,23.403L24.534,22.935C24.69,22.779 24.846,22.623 25.003,22.466L25.007,21.531C25.163,21.531 25.319,21.531 25.475,21.532" style="fill:rgb(44,21,21);fill-rule:nonzero;"/>
    </g>
    <g transform="matrix(1,0,0,1,0,2)">
        <path d="M21.725,26.684C21.565,26.682 21.405,26.68 21.245,26.678C21.092,26.523 20.939,26.368 20.785,26.213C21.123,25.602 22.468,25.497 21.722,24.342L21.725,24.34C22.036,24.341 22.348,24.342 22.659,24.342C22.815,24.654 22.97,24.965 23.126,25.277C23.283,25.434 23.441,25.59 23.599,25.746L21.725,26.684Z" style="fill:rgb(42,22,22);fill-rule:nonzero;"/>
    </g>
    <g transform="matrix(1,0,0,1,0,2)">
        <path d="M23.126,25.277C22.97,24.965 22.815,24.654 22.659,24.342C22.817,24.186 22.973,24.029 23.13,23.873C23.287,23.719 23.444,23.566 23.6,23.412L24.534,23.402L24.535,23.409C24.69,24.668 25.683,24.246 26.416,24.346C26.101,24.501 25.786,24.656 25.472,24.81C24.689,24.966 23.908,25.121 23.126,25.277" style="fill:rgb(32,18,18);fill-rule:nonzero;"/>
    </g>
    <g transform="matrix(1,0,0,1,0,2)">
        <path d="M26.416,24.346C25.683,24.245 24.69,24.667 24.535,23.409C25.16,23.407 25.784,23.406 26.408,23.404C26.564,23.716 26.72,24.028 26.875,24.34C26.722,24.342 26.569,24.344 26.416,24.346" style="fill:rgb(22,17,17);fill-rule:nonzero;"/>
    </g>
    <g transform="matrix(1,0,0,1,0,2)">
        <path d="M23.126,25.277C23.908,25.121 24.689,24.966 25.472,24.81L23.599,25.746C23.441,25.59 23.283,25.433 23.126,25.277" style="fill:rgb(39,14,14);fill-rule:nonzero;"/>
    </g>
    <g transform="matrix(1,0,0,1,0,2)">
        <path d="M26.875,24.339C26.72,24.027 26.565,23.716 26.409,23.404C26.723,23.562 27.037,23.72 27.351,23.877C27.192,24.031 27.034,24.186 26.875,24.339" style="fill:rgb(32,18,18);fill-rule:nonzero;"/>
    </g>
    <g transform="matrix(1,0,0,1,0,2)">
        <path d="M26.408,16.373C25.781,16.531 25.154,16.688 24.527,16.845C24.063,17 23.599,17.155 23.135,17.309C22.496,16.383 22.193,15.121 20.787,14.964C20.628,14.497 20.47,14.03 20.312,13.562C20.307,13.249 20.303,12.935 20.3,12.622C19.679,11.999 19.058,11.375 18.437,10.752C18.437,10.618 18.433,10.483 18.426,10.349C19.051,10.317 19.676,10.286 20.3,10.253C20.466,10.243 20.633,10.232 20.798,10.22L21.018,10.25L21.238,10.217C21.708,10.257 22.178,10.297 22.648,10.338C22.655,10.475 22.66,10.611 22.661,10.748L22.664,10.757C22.157,10.783 21.652,10.81 20.993,10.844C21.301,11.391 21.518,11.775 21.734,12.159C21.678,12.962 21.799,13.677 22.663,14.021C23.911,14.648 25.159,15.275 26.406,15.902C26.407,16.059 26.408,16.217 26.408,16.373" style="fill:rgb(54,29,29);fill-rule:nonzero;"/>
    </g>
    <g transform="matrix(1,0,0,1,0,2)">
        <path d="M26.406,15.902C25.159,15.275 23.911,14.648 22.663,14.022C23.443,13.713 24.222,13.404 25.002,13.095L26.872,11.683L26.889,11.698C26.885,12.006 26.88,12.314 26.877,12.623C26.72,13.716 26.563,14.81 26.406,15.904L26.406,15.902Z" style="fill:rgb(66,50,50);fill-rule:nonzero;"/>
    </g>
    <g transform="matrix(1,0,0,1,0,2)">
        <path d="M26.406,15.904C26.563,14.81 26.72,13.716 26.877,12.622C26.72,13.716 26.563,14.81 26.406,15.904" style="fill:rgb(54,29,29);fill-rule:nonzero;"/>
    </g>
    <g transform="matrix(1,0,0,1,0,2)">
        <path d="M21.828,2.846C21.965,2.853 22.079,2.807 22.171,2.706C22.316,2.718 22.459,2.706 22.6,2.67C22.466,3.291 22.333,3.912 22.198,4.533C21.692,4.893 21.187,5.253 20.68,5.613L20.298,6.084C19.678,5.919 19.059,5.755 18.439,5.591C18.895,4.854 20.551,5.208 20.176,3.72L17.974,3.72L17.972,3.719C17.811,3.423 17.648,3.128 17.486,2.832C17.624,2.598 17.761,2.364 17.899,2.131C17.83,2.035 17.836,1.944 17.914,1.857C18.582,1.829 19.249,1.8 19.918,1.771C19.918,1.77 19.904,1.786 19.904,1.786C20.039,2.118 20.176,2.451 20.312,2.784C20.45,2.841 20.593,2.862 20.743,2.848L20.737,2.835C21.1,2.838 21.465,2.842 21.828,2.846" style="fill:rgb(206,64,64);fill-rule:nonzero;"/>
    </g>
    <g transform="matrix(1,0,0,1,0,2)">
        <path d="M15.166,2.317C14.07,2.783 12.975,3.25 11.879,3.716C12.975,3.25 14.07,2.783 15.166,2.317" style="fill:rgb(205,74,74);fill-rule:nonzero;"/>
    </g>
    <g transform="matrix(1,0,0,1,0,2)">
        <path d="M16.528,2.324C16.229,2.321 15.929,2.317 15.63,2.313C15.935,1.856 16.235,1.802 16.528,2.324" style="fill:rgb(205,74,74);fill-rule:nonzero;"/>
    </g>
    <g transform="matrix(1,0,0,1,0,2)">
        <path d="M17.027,2.794C16.874,2.648 16.722,2.501 16.569,2.354C16.705,2.342 16.842,2.335 16.979,2.332L17.016,2.354C17.02,2.501 17.024,2.648 17.027,2.794" style="fill:rgb(205,74,74);fill-rule:nonzero;"/>
    </g>
    <g transform="matrix(1,0,0,1,0,2)">
        <path d="M11.243,24.404C10.985,24.379 10.727,24.354 10.469,24.329C10.936,24.024 11.403,23.718 11.871,23.413C12.336,23.419 12.802,23.424 13.267,23.429L14.687,25.748C14.682,26.225 14.677,26.703 14.673,27.182C14.447,27.575 14.221,27.969 13.909,28.513C13.032,27.787 12.414,27.122 12.338,26.025C12.309,25.619 12.007,25.232 11.829,24.836L11.862,24.85L11.243,24.404Z" style="fill:rgb(130,27,27);fill-rule:nonzero;"/>
    </g>
    <g transform="matrix(1,0,0,1,0,2)">
        <path d="M16.557,27.601C16.243,27.612 15.93,27.622 15.616,27.634C15.438,27.481 15.26,27.329 15.082,27.177C15.111,26.71 15.141,26.243 15.17,25.777C15.828,25.901 16.486,26.025 17.145,26.149C16.948,26.633 16.753,27.117 16.557,27.601" style="fill:rgb(217,188,188);fill-rule:nonzero;"/>
    </g>
    <g transform="matrix(1,0,0,1,0,2)">
        <path d="M15.17,25.777C15.141,26.243 15.112,26.711 15.082,27.177C14.946,27.177 14.81,27.178 14.673,27.182C14.677,26.703 14.682,26.225 14.686,25.748C14.856,25.706 15.025,25.664 15.193,25.623L15.17,25.777Z" style="fill:rgb(166,66,66);fill-rule:nonzero;"/>
    </g>
    <g transform="matrix(1,0,0,1,0,2)">
        <path d="M11.413,4.655C12.767,5.274 13.572,3.984 14.672,3.718C14.665,3.851 14.642,3.982 14.603,4.111C14.449,4.285 14.294,4.46 14.138,4.635C14.154,4.97 14.171,5.304 14.188,5.638C14.335,5.797 14.481,5.957 14.627,6.116C14.804,6.27 14.981,6.423 15.158,6.577L12.824,7.005C12.496,6.681 12.168,6.357 11.84,6.032C11.748,5.954 11.742,5.871 11.824,5.781C11.694,5.564 11.564,5.345 11.435,5.127L11.398,5.145C11.401,4.983 11.405,4.82 11.408,4.657L11.413,4.655Z" style="fill:rgb(192,49,49);fill-rule:nonzero;"/>
    </g>
    <g transform="matrix(1,0,0,1,0,2)">
        <path d="M14.603,4.11C14.642,3.982 14.665,3.851 14.672,3.718C15.151,3.718 15.631,3.718 16.11,3.717C16.11,3.827 16.109,3.937 16.109,4.047C15.634,4.09 15.159,4.134 14.684,4.177L14.603,4.11Z" style="fill:rgb(205,74,74);fill-rule:nonzero;"/>
    </g>
    <g transform="matrix(1,0,0,1,0,2)">
        <path d="M17.042,4.184C17.352,4.029 17.662,3.874 17.972,3.719L17.975,3.72C17.819,4.032 17.662,4.344 17.506,4.656C17.344,4.659 17.182,4.662 17.021,4.665L17.025,4.671C17.03,4.509 17.036,4.347 17.042,4.184" style="fill:rgb(206,64,64);fill-rule:nonzero;"/>
    </g>
    <g transform="matrix(1,0,0,1,0,2)">
        <path d="M10.475,4.65C10.477,4.511 10.478,4.372 10.478,4.234C10.79,4.375 11.101,4.515 11.413,4.655L11.408,4.657L10.475,4.65Z" style="fill:rgb(167,45,45);fill-rule:nonzero;"/>
    </g>
    <g transform="matrix(1,0,0,1,0,2)">
        <path d="M17.027,2.794C17.024,2.648 17.02,2.501 17.016,2.354C17.31,2.279 17.605,2.205 17.899,2.131C17.761,2.364 17.624,2.598 17.486,2.832C17.333,2.818 17.18,2.806 17.027,2.794" style="fill:rgb(208,83,83);fill-rule:nonzero;"/>
    </g>
    <g transform="matrix(1,0,0,1,0,2)">
        <path d="M17.042,4.184C17.036,4.347 17.03,4.509 17.025,4.671C16.868,4.518 16.712,4.364 16.555,4.21L16.579,4.11C16.733,4.134 16.887,4.159 17.042,4.184" style="fill:rgb(205,74,74);fill-rule:nonzero;"/>
    </g>
    <g transform="matrix(1,0,0,1,0,2)">
        <path d="M16.109,4.046C16.109,3.937 16.11,3.827 16.11,3.717C16.267,3.848 16.423,3.98 16.579,4.11L16.555,4.211C16.406,4.156 16.258,4.101 16.109,4.046" style="fill:rgb(196,64,64);fill-rule:nonzero;"/>
    </g>
    <g transform="matrix(1,0,0,1,0,2)">
        <path d="M11.871,23.413C11.403,23.718 10.936,24.023 10.469,24.329C10.135,24.647 9.8,24.963 9.466,25.28C9.326,25.433 9.187,25.586 9.048,25.74C8.916,25.736 8.786,25.717 8.658,25.684C8.479,25.234 8.3,24.785 8.121,24.335L8.137,24.335C8.199,24.291 8.318,24.228 8.311,24.208C8.271,24.089 8.201,23.981 8.141,23.87C8.142,23.714 8.141,23.559 8.139,23.404C8.448,23.09 8.757,22.777 9.066,22.463C9.823,22.199 10.583,21.265 11.336,22.471L11.881,23.031C11.877,23.159 11.873,23.285 11.871,23.413" style="fill:rgb(154,30,30);fill-rule:nonzero;"/>
    </g>
    <g transform="matrix(1,0,0,1,0,2)">
        <path d="M9.048,25.74C9.187,25.586 9.326,25.433 9.466,25.28C9.48,25.595 9.494,25.911 9.508,26.226C9.34,26.213 9.172,26.199 9.004,26.186C9.049,26.04 9.064,25.892 9.048,25.74" style="fill:rgb(147,63,63);fill-rule:nonzero;"/>
    </g>
    <g transform="matrix(1,0,0,1,0,2)">
        <path d="M11.243,24.404L11.862,24.85L11.243,24.404Z" style="fill:rgb(138,39,39);fill-rule:nonzero;"/>
    </g>
    <g transform="matrix(1,0,0,1,0,2)">
        <path d="M28.748,3.722C29.159,3.877 29.595,3.986 29.973,4.199C30.387,4.433 30.745,4.764 31.128,5.053C31.128,5.054 31.08,5.142 31.08,5.142C29.316,4.358 29.17,4.464 29.239,6.489C29.233,6.66 29.229,6.829 29.223,6.999L29.214,7.003C28.629,6.576 28.042,6.147 27.489,5.745C27.608,5.144 27.706,4.644 27.805,4.143C27.954,3.99 28.104,3.838 28.254,3.686C28.419,3.698 28.583,3.71 28.748,3.722" style="fill:rgb(178,47,47);fill-rule:nonzero;"/>
    </g>
    <g transform="matrix(1,0,0,1,0,2)">
        <path d="M32.961,5.117C33.092,5.125 33.222,5.143 33.349,5.17C33.375,5.467 33.402,5.764 33.43,6.061C31.613,6.437 31.613,6.437 31.562,8.849C31.251,8.856 30.939,8.862 30.627,8.869C31.048,8.249 31.074,7.633 30.612,7.021C30.755,6.794 30.897,6.568 31.039,6.341C31.023,6.226 31.062,6.135 31.155,6.066C31.293,5.905 31.433,5.744 31.571,5.584C32.034,5.428 32.497,5.273 32.961,5.117" style="fill:rgb(183,54,54);fill-rule:nonzero;"/>
    </g>
    <g transform="matrix(1,0,0,1,0,2)">
        <path d="M28.748,3.722C28.583,3.71 28.419,3.698 28.254,3.686C28.245,3.09 28.236,2.493 28.227,1.896L28.339,1.785C28.493,2.114 28.647,2.443 28.8,2.772C28.8,2.929 28.801,3.086 28.802,3.242C28.784,3.402 28.765,3.562 28.748,3.722" style="fill:rgb(186,87,87);fill-rule:nonzero;"/>
    </g>
    <g transform="matrix(1,0,0,1,0,2)">
        <path d="M31.571,5.584C31.433,5.744 31.294,5.905 31.155,6.065L31.081,5.141C31.081,5.141 31.127,5.054 31.127,5.053C31.275,5.23 31.424,5.407 31.571,5.584" style="fill:rgb(186,57,57);fill-rule:nonzero;"/>
    </g>
    <g transform="matrix(1,0,0,1,0,2)">
        <path d="M28.802,3.242C28.801,3.086 28.8,2.929 28.8,2.773C28.94,2.778 29.079,2.782 29.219,2.785C29.08,2.938 28.941,3.09 28.802,3.242" style="fill:rgb(178,47,47);fill-rule:nonzero;"/>
    </g>
    <g transform="matrix(1,0,0,1,0,2)">
        <path d="M22.195,0.905C23.135,0.778 24.074,0.65 25.013,0.523C24.239,0.804 23.465,1.085 22.691,1.366C22.544,1.346 22.401,1.309 22.264,1.254C22.261,1.134 22.238,1.017 22.195,0.905" style="fill:rgb(193,78,78);fill-rule:nonzero;"/>
    </g>
    <g transform="matrix(1,0,0,1,0,2)">
        <path d="M22.264,1.254C22.402,1.309 22.544,1.347 22.691,1.366C22.708,1.522 22.723,1.678 22.74,1.834C22.726,1.996 22.713,2.158 22.699,2.32C22.643,2.43 22.61,2.546 22.6,2.669C22.459,2.706 22.316,2.718 22.171,2.706C22.202,2.221 22.233,1.738 22.264,1.254" style="fill:rgb(230,176,176);fill-rule:nonzero;"/>
    </g>
    <g transform="matrix(1,0,0,1,0,2)">
        <path d="M21.828,2.846C21.465,2.842 21.1,2.838 20.737,2.835C21.1,2.839 21.464,2.843 21.828,2.846" style="fill:rgb(230,176,176);fill-rule:nonzero;"/>
    </g>
    <g transform="matrix(1,0,0,1,0,2)">
        <path d="M20.312,2.783C20.175,2.451 20.04,2.119 19.904,1.786C20.053,1.96 20.202,2.135 20.351,2.309C20.337,2.467 20.325,2.626 20.312,2.783" style="fill:rgb(208,83,83);fill-rule:nonzero;"/>
    </g>
    <g transform="matrix(1,0,0,1,0,2)">
        <path d="M20.312,2.783C20.325,2.626 20.337,2.467 20.351,2.309C20.482,2.488 20.612,2.668 20.743,2.848C20.594,2.863 20.451,2.841 20.312,2.783" style="fill:rgb(230,176,176);fill-rule:nonzero;"/>
    </g>
    <g transform="matrix(1,0,0,1,0,2)">
        <path d="M17.145,26.149C16.486,26.025 15.828,25.901 15.17,25.777C15.17,25.777 15.193,25.623 15.193,25.624C15.777,25.213 16.36,24.8 17.374,24.086C16.387,23.744 15.815,23.546 15.243,23.348C15.38,23.207 15.518,23.066 15.655,22.925C16.113,22.936 16.57,22.947 17.029,22.958C17.191,23.525 17.423,24.083 17.495,24.661C17.567,25.25 17.689,25.688 18.379,25.707C18.37,25.893 18.361,26.079 18.352,26.264C17.95,26.226 17.547,26.188 17.145,26.149" style="fill:rgb(149,42,42);fill-rule:nonzero;"/>
    </g>
    <g transform="matrix(1,0,0,1,0,2)">
        <path d="M18.353,26.265C18.361,26.079 18.369,25.893 18.378,25.707C18.379,25.707 18.448,25.752 18.448,25.752C18.602,25.594 18.755,25.437 18.909,25.278C19.064,25.279 19.218,25.278 19.372,25.273C19.529,25.743 19.688,26.214 19.845,26.684C19.69,26.841 19.534,26.997 19.379,27.153C19.227,27.152 19.076,27.153 18.925,27.156C18.734,26.859 18.543,26.562 18.353,26.265" style="fill:rgb(60,44,44);fill-rule:nonzero;"/>
    </g>
    <g transform="matrix(1,0,0,1,0,2)">
        <path d="M11.841,6.033C12.168,6.357 12.496,6.681 12.825,7.005C12.07,7.478 12.686,7.933 12.842,8.394C12.833,8.54 12.829,8.685 12.831,8.83C12.217,8.682 11.604,8.533 10.989,8.385C10.661,8.23 10.332,8.076 10.005,7.921C9.607,7.492 9.05,7.107 9.593,6.421C9.733,6.468 9.878,6.493 10.026,6.496L10.035,6.509C10.475,6.654 10.914,6.801 11.353,6.946L11.836,6.022L11.841,6.033Z" style="fill:rgb(153,22,22);fill-rule:nonzero;"/>
    </g>
    <g transform="matrix(1,0,0,1,0,2)">
        <path d="M10.026,6.496C9.878,6.494 9.733,6.468 9.593,6.421L9.569,5.615C9.674,5.576 9.779,5.534 9.884,5.492C9.951,5.547 10.02,5.603 10.088,5.657C10.068,5.937 10.047,6.216 10.026,6.496" style="fill:rgb(200,149,149);fill-rule:nonzero;"/>
    </g>
    <g transform="matrix(1,0,0,1,0,2)">
        <path d="M8.707,5.649C8.818,5.617 8.933,5.6 9.05,5.599C8.935,5.615 8.821,5.632 8.707,5.649" style="fill:rgb(99,24,24);fill-rule:nonzero;"/>
    </g>
    <g transform="matrix(1,0,0,1,0,2)">
        <path d="M30.613,7.021C31.074,7.633 31.048,8.249 30.628,8.869C30.16,8.872 29.693,8.876 29.227,8.88C29.227,8.88 29.212,8.867 29.212,8.868C29.059,8.557 28.906,8.245 28.753,7.935C28.906,7.624 29.06,7.314 29.215,7.003L29.223,6.999C29.686,7.006 30.149,7.013 30.613,7.021" style="fill:rgb(178,47,47);fill-rule:nonzero;"/>
    </g>
    <g transform="matrix(1,0,0,1,0,2)">
        <path d="M29.211,9.826C29.055,9.848 28.899,9.87 28.743,9.891C28.437,9.866 28.132,9.841 27.826,9.816C27.172,9.505 26.517,9.195 25.864,8.884L25.974,8.847C27.002,9.28 27.338,8.487 27.756,7.84C27.839,8.752 28.446,8.921 29.212,8.868L29.227,8.88C29.222,9.195 29.217,9.511 29.211,9.826" style="fill:rgb(178,47,47);fill-rule:nonzero;"/>
    </g>
    <g transform="matrix(1,0,0,1,0,2)">
        <path d="M31.562,8.849C31.613,6.437 31.613,6.437 33.43,6.061C32.966,6.532 32.502,7.002 32.039,7.471C32.035,7.627 32.034,7.782 32.035,7.937C31.878,8.241 31.72,8.545 31.562,8.849" style="fill:rgb(186,57,57);fill-rule:nonzero;"/>
    </g>
    <g transform="matrix(1,0,0,1,0,2)">
        <path d="M27.908,1.292C28.051,1.456 28.195,1.621 28.338,1.785C28.339,1.785 28.226,1.896 28.227,1.896C28.121,1.846 28.013,1.8 27.903,1.758C27.876,1.63 27.846,1.503 27.813,1.377L27.908,1.292Z" style="fill:rgb(186,87,87);fill-rule:nonzero;"/>
    </g>
    <g transform="matrix(1,0,0,1,0,2)">
        <path d="M19.845,26.684C19.688,26.214 19.529,25.743 19.372,25.273C19.531,24.807 19.689,24.339 19.847,23.872C20.089,23.537 20.303,23.176 20.583,22.876C20.755,22.692 21.026,22.599 21.254,22.466C21.296,23.415 21.976,23.412 22.657,23.406C22.658,23.561 22.658,23.716 22.657,23.872C22.346,24.028 22.035,24.184 21.725,24.34L21.722,24.342C20.243,24.805 20.138,25.014 20.785,26.213C20.939,26.368 21.092,26.523 21.245,26.678C20.936,26.681 20.627,26.685 20.317,26.688C20.159,26.687 20.003,26.685 19.845,26.684" style="fill:rgb(47,35,35);fill-rule:nonzero;"/>
    </g>
    <g transform="matrix(1,0,0,1,0,2)">
        <path d="M19.845,26.684C20.003,26.685 20.159,26.687 20.317,26.688L19.379,27.153C19.534,26.997 19.69,26.84 19.845,26.684" style="fill:rgb(66,35,33);fill-rule:nonzero;"/>
    </g>
    <g transform="matrix(1,0,0,1,0,2)">
        <path d="M22.6,2.669C22.61,2.546 22.643,2.43 22.699,2.32C22.757,2.276 22.868,2.224 22.863,2.19C22.843,2.069 22.784,1.952 22.74,1.835C22.724,1.679 22.708,1.523 22.691,1.366C23.465,1.085 24.239,0.804 25.013,0.523C25.175,0.544 25.337,0.565 25.499,0.585C25.332,1.002 25.163,1.419 24.995,1.836C23.597,2.541 24.179,4.078 23.611,5.131C23.602,5.75 23.594,6.37 23.585,6.989C23.408,6.958 23.231,6.926 23.053,6.896C23.223,5.943 23.468,4.964 22.199,4.533C22.333,3.911 22.466,3.29 22.6,2.669" style="fill:rgb(184,47,47);fill-rule:nonzero;"/>
    </g>
    <g transform="matrix(1,0,0,1,0,2)">
        <path d="M26.872,11.682L25.002,13.095L25.001,13.091C24.846,12.936 24.691,12.782 24.537,12.627C24.38,12.625 24.223,12.623 24.066,12.621C23.598,12 23.131,11.378 22.665,10.757L22.662,10.748C23.437,10.608 24.212,10.467 24.987,10.326C25.461,10.326 25.937,10.326 26.412,10.324C26.56,10.457 26.708,10.59 26.856,10.723L26.908,10.773C26.896,11.076 26.884,11.379 26.872,11.682" style="fill:rgb(82,59,59);fill-rule:nonzero;"/>
    </g>
    <g transform="matrix(1,0,0,1,0,2)">
        <path d="M26.411,10.325C25.937,10.326 25.461,10.326 24.988,10.326C24.208,10.33 23.428,10.334 22.648,10.338C22.178,10.297 21.708,10.257 21.239,10.216C21.248,10.086 21.26,9.954 21.273,9.824C21.58,9.819 21.885,9.815 22.19,9.81C22.656,9.657 23.122,9.504 23.588,9.352C23.742,8.106 24.71,8.481 25.457,8.414L25.864,8.884C26.518,9.195 27.173,9.505 27.827,9.816C27.8,9.961 27.769,10.106 27.732,10.249L27.536,10.242L27.344,10.272C27.185,10.278 27.026,10.285 26.867,10.291C26.713,10.269 26.561,10.28 26.411,10.325" style="fill:rgb(163,32,32);fill-rule:nonzero;"/>
    </g>
    <g transform="matrix(1,0,0,1,0,2)">
        <path d="M27.732,10.249C27.769,10.106 27.8,9.962 27.826,9.815C28.132,9.841 28.437,9.866 28.744,9.892C28.405,10.012 28.069,10.13 27.732,10.249" style="fill:rgb(53,28,28);fill-rule:nonzero;"/>
    </g>
    <g transform="matrix(1,0,0,1,0,2)">
        <path d="M26.868,10.291C27.026,10.285 27.185,10.278 27.344,10.272C27.198,10.439 27.053,10.605 26.908,10.773L26.856,10.723C26.872,10.58 26.875,10.436 26.868,10.291" style="fill:rgb(82,59,59);fill-rule:nonzero;"/>
    </g>
    <g transform="matrix(1,0,0,1,0,2)">
        <path d="M23.611,5.131C24.18,4.078 23.596,2.54 24.995,1.836C25.144,1.991 25.294,2.147 25.444,2.303L25.559,2.366C25.552,2.597 25.546,2.828 25.539,3.059C25.663,3.281 25.786,3.503 25.91,3.724C26.098,3.868 26.287,4.012 26.476,4.157C26.297,4.479 26.118,4.802 25.938,5.124L24.067,5.126C23.915,5.126 23.763,5.127 23.611,5.131" style="fill:rgb(170,41,41);fill-rule:nonzero;"/>
    </g>
    <g transform="matrix(1,0,0,1,0,2)">
        <path d="M26.447,1.02C26.747,0.958 27.047,0.895 27.346,0.832C27.368,0.989 27.389,1.145 27.41,1.303C27.41,1.304 27.303,1.433 27.303,1.432C27.035,1.452 26.769,1.473 26.501,1.493L26.391,1.357C26.424,1.247 26.443,1.135 26.447,1.02" style="fill:rgb(213,151,151);fill-rule:nonzero;"/>
    </g>
    <g transform="matrix(1,0,0,1,0,2)">
        <path d="M25.444,2.303C25.54,2.155 25.637,2.006 25.733,1.858C25.733,1.857 25.879,1.879 25.879,1.879L26.014,1.822L25.559,2.365L25.444,2.303Z" style="fill:rgb(173,51,51);fill-rule:nonzero;"/>
    </g>
    <g transform="matrix(1,0,0,1,0,2)">
        <path d="M25.733,1.857C25.953,1.69 26.172,1.524 26.391,1.357C26.391,1.357 26.501,1.494 26.5,1.493C26.338,1.602 26.176,1.712 26.014,1.822L25.879,1.879L25.733,1.857Z" style="fill:rgb(213,151,151);fill-rule:nonzero;"/>
    </g>
    <g transform="matrix(1,0,0,1,0,2)">
        <path d="M8.139,23.404C8.141,23.559 8.142,23.715 8.141,23.87C8.133,24.025 8.132,24.18 8.137,24.334L8.122,24.335L7.902,24.335L7.682,24.327C7.672,24.024 7.662,23.72 7.653,23.416C7.813,22.947 7.975,22.476 8.137,22.006C8.137,22.472 8.138,22.938 8.139,23.404" style="fill:rgb(173,52,52);fill-rule:nonzero;"/>
    </g>
    <g transform="matrix(1,0,0,1,0,2)">
        <path d="M9.048,25.74C9.064,25.892 9.049,26.04 9.004,26.186C8.918,26.193 8.836,26.18 8.758,26.145C8.725,25.991 8.691,25.838 8.657,25.685C8.785,25.717 8.916,25.736 9.048,25.74" style="fill:rgb(111,48,48);fill-rule:nonzero;"/>
    </g>
    <g transform="matrix(1,0,0,1,0,2)">
        <path d="M27.813,1.377C27.846,1.503 27.876,1.63 27.902,1.759L27.771,1.877C27.615,1.729 27.458,1.581 27.302,1.433L27.41,1.303C27.545,1.327 27.679,1.351 27.813,1.377" style="fill:rgb(213,151,151);fill-rule:nonzero;"/>
    </g>
    <g transform="matrix(1,0,0,1,0,2)">
        <path d="M10.475,4.65L11.408,4.657C11.405,4.82 11.401,4.983 11.398,5.146C11.095,5.151 10.793,5.157 10.49,5.163C10.33,5.151 10.171,5.138 10.011,5.126C10.009,4.969 10.007,4.813 10.004,4.657L10.475,4.65Z" style="fill:rgb(164,87,87);fill-rule:nonzero;"/>
    </g>
    <g transform="matrix(1,0,0,1,0,2)">
        <path d="M10.011,5.126C10.171,5.139 10.33,5.151 10.49,5.163C10.355,5.328 10.221,5.493 10.088,5.657C10.02,5.602 9.952,5.547 9.884,5.491C9.893,5.358 9.935,5.236 10.011,5.126" style="fill:rgb(200,149,149);fill-rule:nonzero;"/>
    </g>
    <g transform="matrix(1,0,0,1,0,2)">
        <path d="M10.99,8.385C11.603,8.533 12.217,8.682 12.831,8.83C13.944,9.119 15.057,9.408 16.17,9.696C16.45,9.739 16.729,9.783 17.008,9.826C17.039,9.966 17.079,10.102 17.128,10.237L15.161,10.282C14.547,10.246 13.934,10.212 13.32,10.177C13.181,10.198 13.042,10.193 12.904,10.165C12.577,10.028 12.252,9.892 11.925,9.755C11.285,9.46 10.645,9.166 10.006,8.871C10.333,8.709 10.662,8.547 10.99,8.385" style="fill:rgb(49,8,6);fill-rule:nonzero;"/>
    </g>
    <g transform="matrix(1,0,0,1,0,2)">
        <path d="M11.925,9.755C12.252,9.892 12.577,10.028 12.904,10.165C12.564,10.67 12.223,11.175 11.882,11.678C11.451,11.83 11.326,12.736 10.613,12.195C10.509,11.897 10.405,11.599 10.3,11.301C10.584,11.044 10.872,10.793 11.149,10.53C11.413,10.278 11.667,10.014 11.925,9.755" style="fill:rgb(153,53,53);fill-rule:nonzero;"/>
    </g>
    <g transform="matrix(1,0,0,1,0,2)">
        <path d="M10.006,11.165C9.39,11.204 8.774,11.244 8.159,11.285C8.724,10.469 9.347,10.548 10.006,11.165" style="fill:rgb(153,53,53);fill-rule:nonzero;"/>
    </g>
    <g transform="matrix(1,0,0,1,0,2)">
        <path d="M8.191,11.251C8.036,11.443 7.881,11.636 7.727,11.829C7.881,11.636 8.036,11.443 8.191,11.251" style="fill:rgb(153,53,53);fill-rule:nonzero;"/>
    </g>
    <g transform="matrix(1,0,0,1,0,2)">
        <path d="M10.474,20.122C10.004,19.966 9.536,19.809 9.066,19.651C9.353,19.202 9.639,18.753 9.926,18.304C9.926,18.304 10.043,18.224 10.042,18.224C10.186,18.544 10.33,18.864 10.474,19.184C10.476,19.345 10.478,19.505 10.481,19.666C10.475,19.818 10.472,19.97 10.474,20.122" style="fill:rgb(199,62,62);fill-rule:nonzero;"/>
    </g>
    <g transform="matrix(1,0,0,1,0,2)">
        <path d="M8.132,19.732C8.047,19.916 7.961,20.1 7.876,20.284C7.654,20.046 7.433,19.808 7.211,19.571L8.132,19.732Z" style="fill:rgb(213,53,53);fill-rule:nonzero;"/>
    </g>
    <g transform="matrix(1,0,0,1,0,2)">
        <path d="M7.034,19.199L6.711,18.745L7.034,19.199Z" style="fill:rgb(209,96,96);fill-rule:nonzero;"/>
    </g>
    <g transform="matrix(1,0,0,1,0,2)">
        <path d="M10.474,19.184C10.33,18.864 10.186,18.544 10.042,18.225C10.038,17.911 10.034,17.597 10.031,17.283C11.409,17.823 11.409,17.823 11.874,16.375C12.017,16.376 12.161,16.376 12.303,16.377L12.833,16.914C13.042,17.028 13.25,17.142 13.458,17.255L13.584,17.196L13.711,17.253C13.569,17.741 13.427,18.228 13.286,18.715L13.286,18.717C12.817,18.593 12.348,17.968 11.88,18.717C11.411,18.873 10.943,19.029 10.474,19.184" style="fill:rgb(199,57,57);fill-rule:nonzero;"/>
    </g>
    <g transform="matrix(1,0,0,1,0,2)">
        <path d="M12.303,16.377C12.161,16.377 12.017,16.376 11.874,16.376C12.001,15.913 12.129,15.451 12.256,14.989C12.341,14.977 12.42,14.952 12.496,14.912C12.432,15.4 12.368,15.888 12.303,16.377" style="fill:rgb(195,63,63);fill-rule:nonzero;"/>
    </g>
    <g transform="matrix(1,0,0,1,0,2)">
        <path d="M12.423,14.523C12.55,14.515 12.677,14.501 12.802,14.479C12.802,14.479 12.876,14.576 12.876,14.575C12.749,14.688 12.622,14.8 12.496,14.912C12.421,14.951 12.341,14.977 12.256,14.989C12.312,14.834 12.367,14.678 12.423,14.523" style="fill:rgb(229,198,198);fill-rule:nonzero;"/>
    </g>
    <g transform="matrix(1,0,0,1,0,2)">
        <path d="M13.286,18.716C13.427,18.228 13.569,17.741 13.711,17.254L13.708,17.27C14.035,17.126 14.363,16.983 14.689,16.84C14.729,16.733 14.755,16.624 14.766,16.511C14.882,15.873 14.999,15.236 15.116,14.599C15.132,14.251 15.147,13.904 15.163,13.557C16.604,13.361 17.044,14.41 17.501,15.437C17.658,16.061 17.814,16.685 17.971,17.309C16.363,17.219 15.051,17.721 14.223,19.187C14.067,19.187 13.911,19.187 13.754,19.187C13.598,19.029 13.442,18.872 13.286,18.716" style="fill:rgb(191,51,51);fill-rule:nonzero;"/>
    </g>
    <g transform="matrix(1,0,0,1,0,2)">
        <path d="M12.355,13.103C11.609,12.637 12.204,12.162 12.346,11.69C13.304,11.689 14.262,11.687 15.219,11.686C15.522,11.842 15.825,11.998 16.127,12.155C16.121,12.291 16.124,12.428 16.134,12.565L15.161,12.631L12.355,13.103Z" style="fill:rgb(200,72,72);fill-rule:nonzero;"/>
    </g>
    <g transform="matrix(1,0,0,1,0,2)">
        <path d="M15.161,12.631L16.134,12.565C16.568,12.926 17.002,13.286 17.436,13.646C17.755,14.108 18.074,14.57 18.393,15.032C18.386,15.171 18.411,15.305 18.469,15.433C18.437,15.593 18.407,15.754 18.375,15.914C18.084,15.755 17.793,15.596 17.501,15.437C17.044,14.41 16.604,13.361 15.163,13.556C15.162,13.248 15.161,12.939 15.161,12.631" style="fill:rgb(178,65,65);fill-rule:nonzero;"/>
    </g>
    <g transform="matrix(1,0,0,1,0,2)">
        <path d="M12.802,14.479C13.44,13.784 14.069,13.82 14.693,14.497L14.599,14.59C14.025,14.586 13.45,14.581 12.877,14.576L12.802,14.479Z" style="fill:rgb(229,198,198);fill-rule:nonzero;"/>
    </g>
    <g transform="matrix(1,0,0,1,0,2)">
        <path d="M15.117,14.599C15,15.236 14.883,15.874 14.766,16.511C14.71,15.871 14.655,15.231 14.6,14.59L14.693,14.497C14.837,14.518 14.978,14.552 15.117,14.599" style="fill:rgb(229,198,198);fill-rule:nonzero;"/>
    </g>
    <g transform="matrix(1,0,0,1,0,2)">
        <path d="M15.219,11.686C14.262,11.688 13.304,11.689 12.346,11.691C12.191,11.685 12.037,11.682 11.882,11.679C12.223,11.175 12.563,10.671 12.904,10.166C13.043,10.193 13.181,10.197 13.32,10.177C13.953,10.68 14.586,11.183 15.219,11.686" style="fill:rgb(176,84,84);fill-rule:nonzero;"/>
    </g>
    <g transform="matrix(1,0,0,1,0,2)">
        <path d="M22.657,23.406C21.976,23.412 21.296,23.415 21.254,22.466C21.41,21.997 21.566,21.529 21.722,21.06C22.502,21.06 23.282,21.06 24.062,21.061L24.072,21.06C23.916,21.528 23.76,21.996 23.603,22.464C23.601,22.621 23.599,22.778 23.597,22.935L23.597,22.934C23.283,23.091 22.97,23.248 22.657,23.406" style="fill:rgb(58,44,44);fill-rule:nonzero;"/>
    </g>
    <g transform="matrix(1,0,0,1,0,2)">
        <path d="M23.135,17.309C23.599,17.155 24.063,17 24.527,16.845C24.452,18.115 23.603,18.272 22.578,18.241C21.671,18.214 20.762,18.249 19.853,18.257C19.849,18.099 19.845,17.941 19.841,17.783L23.135,17.309Z" style="fill:rgb(27,20,20);fill-rule:nonzero;"/>
    </g>
    <g transform="matrix(1,0,0,1,0,2)">
        <path d="M19.842,17.783C19.845,17.941 19.849,18.099 19.853,18.257C19.851,19.816 19.849,21.375 19.848,22.934C19.674,22.93 19.5,22.926 19.326,22.923C19.333,22.008 19.34,21.096 19.347,20.181C19.359,19.38 19.371,18.579 19.383,17.778C19.536,17.78 19.689,17.781 19.842,17.783" style="fill:rgb(31,7,7);fill-rule:nonzero;"/>
    </g>
    <g transform="matrix(1,0,0,1,0,2)">
        <path d="M21.722,20.122C21.795,19.712 21.869,19.303 22.035,18.368C22.742,19.164 23.168,19.645 23.595,20.125C23.127,20.124 22.658,20.123 22.19,20.122C22.034,20.122 21.878,20.122 21.722,20.122" style="fill:rgb(57,37,37);fill-rule:nonzero;"/>
    </g>
    <g transform="matrix(1,0,0,1,0,2)">
        <path d="M22.19,20.123C22.658,20.124 23.127,20.124 23.595,20.125C23.75,20.437 23.906,20.748 24.062,21.06C23.282,21.06 22.502,21.06 21.722,21.06C21.722,20.904 21.723,20.748 21.723,20.592C21.879,20.436 22.035,20.279 22.19,20.123" style="fill:rgb(66,43,43);fill-rule:nonzero;"/>
    </g>
    <g transform="matrix(1,0,0,1,0,2)">
        <path d="M19.326,22.922C19.499,22.926 19.674,22.93 19.847,22.933L19.847,23.872C19.689,24.339 19.531,24.806 19.372,25.273C19.218,25.278 19.063,25.279 18.909,25.279L18.87,23.819C18.884,23.669 18.878,23.522 18.853,23.374C18.92,23.259 18.952,23.134 18.949,23.001C19.072,22.963 19.198,22.937 19.326,22.922" style="fill:rgb(52,18,18);fill-rule:nonzero;"/>
    </g>
    <g transform="matrix(1,0,0,1,0,2)">
        <path d="M23.603,22.464C23.76,21.996 23.916,21.528 24.072,21.06C24.384,21.217 24.695,21.374 25.007,21.531L25.003,22.466L23.603,22.464Z" style="fill:rgb(49,29,29);fill-rule:nonzero;"/>
    </g>
    <g transform="matrix(1,0,0,1,0,2)">
        <path d="M26.408,21.057C26.252,21.213 26.096,21.368 25.94,21.522C26.096,21.368 26.252,21.213 26.408,21.057" style="fill:rgb(37,13,13);fill-rule:nonzero;"/>
    </g>
    <g transform="matrix(1,0,0,1,0,2)">
        <path d="M22.19,20.123C22.035,20.279 21.879,20.436 21.723,20.592C21.723,20.435 21.722,20.279 21.722,20.123C21.878,20.123 22.034,20.123 22.19,20.123" style="fill:rgb(58,44,44);fill-rule:nonzero;"/>
    </g>
    <g transform="matrix(1,0,0,1,0,2)">
        <path d="M13.754,19.186C13.911,19.186 14.067,19.187 14.223,19.187C14.236,19.921 14.249,20.643 13.145,20.44C13.074,20.428 12.935,20.785 12.83,20.97L11.502,21.199L10.478,20.594C10.477,20.437 10.475,20.28 10.474,20.122C10.472,19.97 10.475,19.818 10.481,19.665C11.572,19.505 12.663,19.346 13.754,19.186" style="fill:rgb(176,58,58);fill-rule:nonzero;"/>
    </g>
    <g transform="matrix(1,0,0,1,0,2)">
        <path d="M10.478,20.593L11.502,21.199C11.447,21.623 11.391,22.047 11.336,22.471C10.583,21.265 9.823,22.199 9.065,22.464C9.061,22.297 9.056,22.132 9.052,21.965C9.527,21.508 10.003,21.051 10.478,20.593" style="fill:rgb(153,36,36);fill-rule:nonzero;"/>
    </g>
    <g transform="matrix(1,0,0,1,0,2)">
        <path d="M9.052,21.965C9.057,22.132 9.061,22.298 9.066,22.464C8.756,22.778 8.448,23.09 8.139,23.404C8.138,22.938 8.137,22.472 8.137,22.006L9.052,21.965Z" style="fill:rgb(159,37,37);fill-rule:nonzero;"/>
    </g>
    <g transform="matrix(1,0,0,1,0,2)">
        <path d="M23.603,22.464L25.003,22.466C24.846,22.622 24.69,22.778 24.534,22.935C24.221,22.935 23.909,22.935 23.597,22.934C23.599,22.777 23.601,22.62 23.603,22.464" style="fill:rgb(52,28,28);fill-rule:nonzero;"/>
    </g>
    <g transform="matrix(1,0,0,1,0,2)">
        <path d="M23.597,22.934C23.909,22.934 24.221,22.934 24.534,22.934L24.534,23.402L23.6,23.412C23.599,23.252 23.598,23.093 23.597,22.934Z" style="fill:rgb(49,29,29);fill-rule:nonzero;"/>
    </g>
    <g transform="matrix(1,0,0,1,0,2)">
        <path d="M20.785,26.213C20.138,25.014 20.243,24.805 21.722,24.343C22.468,25.497 21.123,25.603 20.785,26.213" style="fill:rgb(49,29,29);fill-rule:nonzero;"/>
    </g>
    <g transform="matrix(1,0,0,1,0,2)">
        <path d="M21.725,24.341C22.035,24.185 22.346,24.028 22.657,23.872C22.815,23.873 22.973,23.873 23.13,23.873C22.973,24.029 22.817,24.185 22.659,24.342C22.348,24.341 22.036,24.341 21.725,24.341" style="fill:rgb(49,29,29);fill-rule:nonzero;"/>
    </g>
    <g transform="matrix(1,0,0,1,0,2)">
        <path d="M23.13,23.873C22.973,23.873 22.815,23.873 22.657,23.873C22.658,23.717 22.658,23.561 22.657,23.405C22.97,23.249 23.283,23.091 23.597,22.934C23.598,23.093 23.599,23.252 23.6,23.412C23.444,23.566 23.287,23.72 23.13,23.873" style="fill:rgb(52,28,28);fill-rule:nonzero;"/>
    </g>
    <g transform="matrix(1,0,0,1,0,2)">
        <path d="M17.436,13.647C17.002,13.286 16.568,12.926 16.134,12.565C16.124,12.428 16.122,12.292 16.128,12.154C16.832,12.106 17.537,12.057 18.241,12.007C18.249,11.866 18.258,11.723 18.267,11.581C17.232,11.147 16.196,10.714 15.161,10.282C15.816,10.267 16.472,10.252 17.127,10.237C17.259,10.225 17.385,10.249 17.504,10.309C17.815,10.457 18.126,10.604 18.437,10.753C19.058,11.375 19.679,11.998 20.3,12.622C19.272,12.588 18.27,12.639 17.544,13.525L17.436,13.647Z" style="fill:rgb(39,8,8);fill-rule:nonzero;"/>
    </g>
    <g transform="matrix(1,0,0,1,0,2)">
        <path d="M19.842,17.783C19.689,17.781 19.536,17.78 19.383,17.778C19.251,17.776 19.118,17.77 18.986,17.762C18.98,17.606 18.973,17.449 18.967,17.293C19.02,17.247 19.126,17.18 19.117,17.158C19.073,17.045 18.999,16.943 18.935,16.837L18.898,16.858C18.923,16.695 18.949,16.533 18.974,16.369C19.59,16.341 20.208,16.314 20.826,16.286C20.621,15.759 20.468,15.363 20.314,14.969C20.472,14.967 20.63,14.965 20.787,14.964C22.194,15.122 22.497,16.383 23.135,17.31C22.038,17.467 20.94,17.625 19.842,17.783" style="fill:rgb(32,14,14);fill-rule:nonzero;"/>
    </g>
    <g transform="matrix(1,0,0,1,0,2)">
        <path d="M17.009,9.827C16.729,9.783 16.45,9.739 16.17,9.696C16.919,9.441 17.669,9.186 18.419,8.93C18.899,8.922 19.379,8.914 19.86,8.906C20.007,9.355 20.153,9.804 20.301,10.254C19.676,10.285 19.052,10.317 18.427,10.348L18.443,10.197C17.965,10.074 17.487,9.951 17.009,9.827" style="fill:rgb(201,80,80);fill-rule:nonzero;"/>
    </g>
    <g transform="matrix(1,0,0,1,0,2)">
        <path d="M24.065,12.621C24.223,12.623 24.38,12.625 24.536,12.627C24.691,12.782 24.845,12.936 25.001,13.091L25.002,13.095C24.222,13.404 23.443,13.713 22.663,14.022C21.8,13.677 21.678,12.962 21.734,12.159C22.511,12.313 23.288,12.467 24.065,12.621" style="fill:rgb(61,50,50);fill-rule:nonzero;"/>
    </g>
    <g transform="matrix(1,0,0,1,0,2)">
        <path d="M20.787,14.964C20.63,14.965 20.471,14.967 20.314,14.968C19.664,14.7 19.004,14.118 18.393,15.031C18.074,14.57 17.755,14.108 17.436,13.647C17.436,13.647 17.544,13.526 17.543,13.526C18.465,13.538 19.388,13.55 20.312,13.562C20.47,14.029 20.628,14.496 20.787,14.964" style="fill:rgb(46,13,11);fill-rule:nonzero;"/>
    </g>
    <g transform="matrix(1,0,0,1,0,2)">
        <path d="M24.065,12.621C23.288,12.467 22.511,12.313 21.734,12.159C21.518,11.775 21.301,11.391 20.993,10.844C21.652,10.809 22.157,10.783 22.664,10.757C23.131,11.378 23.598,12 24.065,12.621" style="fill:rgb(66,50,50);fill-rule:nonzero;"/>
    </g>
    <g transform="matrix(1,0,0,1,0,2)">
        <path d="M20.312,13.562C19.389,13.55 18.465,13.538 17.544,13.526C18.27,12.639 19.272,12.588 20.3,12.622C20.304,12.935 20.307,13.249 20.312,13.562" style="fill:rgb(24,8,8);fill-rule:nonzero;"/>
    </g>
    <g transform="matrix(1,0,0,1,0,2)">
        <path d="M20.301,10.254C20.154,9.804 20.007,9.355 19.86,8.906C19.987,8.723 20.113,8.54 20.239,8.357L20.374,8.443C20.509,8.586 20.646,8.73 20.783,8.874C20.94,8.875 21.097,8.877 21.253,8.878C21.409,9.032 21.565,9.186 21.721,9.339C21.877,9.342 22.034,9.345 22.191,9.347L22.191,9.81C21.885,9.816 21.58,9.819 21.274,9.824C21.115,9.956 20.956,10.088 20.798,10.22C20.632,10.231 20.467,10.242 20.301,10.254" style="fill:rgb(192,49,49);fill-rule:nonzero;"/>
    </g>
    <g transform="matrix(1,0,0,1,0,2)">
        <path d="M22.648,10.338C23.428,10.334 24.207,10.33 24.987,10.327C24.212,10.467 23.437,10.608 22.662,10.748C22.66,10.611 22.656,10.474 22.648,10.338" style="fill:rgb(71,38,38);fill-rule:nonzero;"/>
    </g>
    <g transform="matrix(1,0,0,1,0,2)">
        <path d="M18.437,10.752C18.126,10.605 17.815,10.457 17.504,10.309C17.817,10.272 18.13,10.235 18.444,10.198C18.444,10.197 18.426,10.348 18.426,10.348C18.433,10.483 18.437,10.617 18.437,10.752" style="fill:rgb(49,8,6);fill-rule:nonzero;"/>
    </g>
    <g transform="matrix(1,0,0,1,0,2)">
        <path d="M20.798,10.22C20.956,10.088 21.115,9.956 21.274,9.824C21.26,9.954 21.249,10.086 21.238,10.217C21.238,10.216 21.019,10.25 21.019,10.25L20.798,10.22Z" style="fill:rgb(190,43,43);fill-rule:nonzero;"/>
    </g>
    <g transform="matrix(1,0,0,1,0,2)">
        <path d="M22.199,4.533C23.468,4.964 23.223,5.943 23.053,6.895C23.053,6.895 23.054,6.893 23.054,6.894C22.45,6.946 21.845,6.997 21.24,7.048L21.2,7.03C21.05,6.866 20.9,6.703 20.75,6.539C20.726,6.23 20.704,5.922 20.681,5.612C21.186,5.252 21.692,4.893 22.199,4.533" style="fill:rgb(228,191,191);fill-rule:nonzero;"/>
    </g>
    <g transform="matrix(1,0,0,1,0,2)">
        <path d="M17.506,4.656C17.662,4.344 17.819,4.032 17.975,3.72L20.177,3.72C20.552,5.208 18.895,4.854 18.439,5.591C18.136,5.442 17.832,5.292 17.528,5.143C17.521,4.98 17.513,4.818 17.506,4.656" style="fill:rgb(196,64,64);fill-rule:nonzero;"/>
    </g>
    <g transform="matrix(1,0,0,1,0,2)">
        <path d="M17.529,5.143C17.832,5.292 18.136,5.442 18.439,5.591C19.059,5.755 19.678,5.919 20.298,6.084C20.304,6.231 20.31,6.379 20.316,6.527C20.316,6.684 20.315,6.842 20.314,6.999L20.316,6.999C20.163,7 20.009,6.999 19.855,6.995C19.683,7.008 19.512,7.023 19.339,7.036L19.368,7.015C18.743,6.695 18.117,6.375 17.493,6.055C17.505,5.751 17.516,5.447 17.529,5.143" style="fill:rgb(192,49,49);fill-rule:nonzero;"/>
    </g>
    <g transform="matrix(1,0,0,1,0,2)">
        <path d="M20.316,6.527C20.309,6.379 20.303,6.231 20.298,6.084C20.426,5.927 20.552,5.769 20.68,5.613C20.704,5.922 20.726,6.23 20.75,6.539C20.606,6.536 20.46,6.531 20.316,6.527" style="fill:rgb(207,67,67);fill-rule:nonzero;"/>
    </g>
    <g transform="matrix(1,0,0,1,0,2)">
        <path d="M15.655,22.925C15.518,23.066 15.381,23.206 15.243,23.347C15.815,23.546 16.388,23.744 17.373,24.086C16.36,24.801 15.777,25.213 15.193,25.624C15.024,25.665 14.856,25.706 14.687,25.748C14.214,24.975 13.74,24.202 13.268,23.43C13.428,23.262 13.589,23.094 13.749,22.926C13.753,22.461 13.757,21.996 13.761,21.53C14.069,21.532 14.377,21.534 14.685,21.537C14.836,21.702 14.987,21.867 15.138,22.033C15.251,22.164 15.364,22.297 15.477,22.429C15.537,22.595 15.596,22.76 15.655,22.925" style="fill:rgb(138,39,39);fill-rule:nonzero;"/>
    </g>
    <g transform="matrix(1,0,0,1,0,2)">
        <path d="M13.749,22.926C13.589,23.094 13.428,23.261 13.268,23.429C12.802,23.424 12.336,23.419 11.871,23.413C11.873,23.285 11.877,23.158 11.881,23.032C12.341,22.996 12.801,22.96 13.263,22.925C13.425,22.926 13.587,22.926 13.749,22.926" style="fill:rgb(149,42,42);fill-rule:nonzero;"/>
    </g>
    <g transform="matrix(1,0,0,1,0,2)">
        <path d="M17.493,6.055C18.117,6.374 18.743,6.695 19.368,7.015C19.112,7.037 18.855,7.059 18.6,7.082C17.766,8.297 16.79,8.693 15.288,8.109C14.611,7.847 13.665,8.278 12.842,8.394C12.686,7.933 12.07,7.478 12.824,7.005L15.158,6.576L15.184,6.484C15.477,6.492 15.771,6.501 16.065,6.509C16.37,6.333 16.675,6.156 16.98,5.979L16.961,5.99L17.493,6.055Z" style="fill:rgb(194,40,40);fill-rule:nonzero;"/>
    </g>
    <g transform="matrix(1,0,0,1,0,2)">
        <path d="M10.088,5.657C10.221,5.492 10.355,5.328 10.489,5.163C10.792,5.157 11.095,5.151 11.398,5.145L11.435,5.127C11.565,5.345 11.694,5.563 11.823,5.782C11.742,5.871 11.748,5.954 11.841,6.032C11.841,6.032 11.836,6.022 11.837,6.022C11.682,6.184 11.526,6.345 11.37,6.505C10.925,6.506 10.48,6.508 10.035,6.508L10.026,6.496C10.047,6.217 10.068,5.937 10.088,5.657" style="fill:rgb(220,192,192);fill-rule:nonzero;"/>
    </g>
    <g transform="matrix(1,0,0,1,0,2)">
        <path d="M14.188,5.638C14.171,5.304 14.154,4.969 14.138,4.635L14.282,4.681C14.27,4.98 14.259,5.278 14.247,5.576L14.188,5.638Z" style="fill:rgb(193,56,56);fill-rule:nonzero;"/>
    </g>
    <g transform="matrix(1,0,0,1,0,2)">
        <path d="M15.158,6.576C14.981,6.423 14.804,6.27 14.627,6.117C14.627,6.117 14.684,6.072 14.683,6.072L15.184,6.484L15.158,6.576Z" style="fill:rgb(193,56,56);fill-rule:nonzero;"/>
    </g>
    <g transform="matrix(1,0,0,1,0,2)">
        <path d="M14.627,6.116C14.481,5.957 14.334,5.798 14.188,5.638C14.188,5.639 14.247,5.576 14.247,5.576C14.393,5.741 14.538,5.907 14.684,6.072L14.627,6.116Z" style="fill:rgb(193,56,56);fill-rule:nonzero;"/>
    </g>
    <g transform="matrix(1,0,0,1,0,2)">
        <path d="M11.824,5.781C11.694,5.563 11.564,5.345 11.435,5.127C11.564,5.346 11.694,5.563 11.824,5.781" style="fill:rgb(193,56,56);fill-rule:nonzero;"/>
    </g>
    <g transform="matrix(1,0,0,1,0,2)">
        <path d="M14.138,4.635C14.293,4.46 14.449,4.286 14.603,4.111C14.603,4.11 14.684,4.177 14.684,4.177C14.55,4.345 14.416,4.513 14.282,4.681L14.138,4.635Z" style="fill:rgb(205,74,74);fill-rule:nonzero;"/>
    </g>
    <g transform="matrix(1,0,0,1,0,2)">
        <path d="M14.282,4.682C14.417,4.514 14.549,4.346 14.684,4.178C15.159,4.134 15.634,4.09 16.109,4.046C16.258,4.101 16.406,4.156 16.554,4.211C16.711,4.364 16.868,4.517 17.024,4.671L17.021,4.665C17,5.106 16.981,5.549 16.961,5.99C16.961,5.99 16.981,5.979 16.981,5.98C16.675,6.157 16.37,6.333 16.064,6.51C15.77,6.501 15.478,6.493 15.184,6.484L14.683,6.072C14.538,5.907 14.393,5.742 14.247,5.576C14.259,5.278 14.27,4.98 14.282,4.682" style="fill:rgb(231,192,192);fill-rule:nonzero;"/>
    </g>
    <g transform="matrix(1,0,0,1,0,2)">
        <path d="M16.961,5.99C16.98,5.548 17.001,5.107 17.021,4.665C17.182,4.662 17.344,4.66 17.506,4.657C17.513,4.819 17.52,4.981 17.528,5.143L17.493,6.055L16.961,5.99Z" style="fill:rgb(205,74,74);fill-rule:nonzero;"/>
    </g>
    <g transform="matrix(1,0,0,1,0,2)">
        <path d="M13.262,22.925C12.802,22.96 12.341,22.996 11.881,23.032L11.336,22.471C11.391,22.047 11.447,21.623 11.502,21.199L12.83,20.971C12.913,21.075 13.022,21.124 13.155,21.119C13.191,21.721 13.226,22.323 13.262,22.925" style="fill:rgb(222,200,200);fill-rule:nonzero;"/>
    </g>
    <g transform="matrix(1,0,0,1,0,2)">
        <path d="M8.138,24.334C8.132,24.179 8.133,24.025 8.141,23.87C8.201,23.982 8.271,24.09 8.311,24.208C8.318,24.228 8.199,24.291 8.138,24.334" style="fill:rgb(159,37,37);fill-rule:nonzero;"/>
    </g>
    <g transform="matrix(1,0,0,1,0,2)">
        <path d="M23.611,5.131C23.763,5.127 23.915,5.126 24.067,5.126C25.003,6.25 25.003,6.25 25.938,5.124C26.118,4.802 26.297,4.479 26.476,4.157C26.617,4.142 26.752,4.165 26.88,4.224C27.034,4.223 27.189,4.223 27.343,4.221C27.498,4.195 27.652,4.169 27.805,4.142C27.706,4.643 27.608,5.144 27.49,5.744C28.042,6.147 28.628,6.575 29.215,7.004C29.06,7.314 28.906,7.624 28.752,7.934C28.411,7.811 28.069,7.686 27.729,7.562L27.751,7.562C27.595,7.387 27.436,7.212 27.278,7.037L27.318,7.073C26.87,6.368 26.416,6.368 25.959,7.064C25.964,7.658 25.969,8.253 25.973,8.847L25.864,8.884C25.728,8.727 25.593,8.57 25.457,8.414C25.631,6.89 24.579,6.978 23.585,6.989C23.594,6.37 23.602,5.75 23.611,5.131" style="fill:rgb(174,36,36);fill-rule:nonzero;"/>
    </g>
    <g transform="matrix(1,0,0,1,0,2)">
        <path d="M31.081,5.142L31.156,6.066C31.063,6.135 31.024,6.226 31.039,6.342C30.439,6.392 29.839,6.441 29.239,6.489C29.17,4.464 29.316,4.358 31.081,5.142" style="fill:rgb(219,176,176);fill-rule:nonzero;"/>
    </g>
    <g transform="matrix(1,0,0,1,0,2)">
        <path d="M27.805,4.143C27.651,4.169 27.498,4.195 27.343,4.221C27.189,4.179 27.035,4.18 26.88,4.224C26.752,4.165 26.617,4.143 26.476,4.157C26.288,4.012 26.099,3.868 25.911,3.723C25.889,3.569 25.893,3.415 25.92,3.261C26.891,3.273 27.747,3.131 27.771,1.877L27.903,1.759C28.012,1.8 28.121,1.846 28.227,1.896C28.236,2.493 28.245,3.09 28.254,3.686C28.104,3.838 27.954,3.99 27.805,4.143" style="fill:rgb(213,151,151);fill-rule:nonzero;"/>
    </g>
    <g transform="matrix(1,0,0,1,0,2)">
        <path d="M29.239,6.49C29.839,6.441 30.439,6.392 31.039,6.342C30.897,6.568 30.755,6.794 30.613,7.021C30.149,7.013 29.686,7.006 29.224,6.999C29.228,6.829 29.233,6.66 29.239,6.49" style="fill:rgb(186,57,57);fill-rule:nonzero;"/>
    </g>
    <g transform="matrix(1,0,0,1,0,2)">
        <path d="M22.74,1.835C22.785,1.952 22.843,2.069 22.863,2.19C22.869,2.224 22.756,2.276 22.699,2.319C22.713,2.158 22.726,1.996 22.74,1.835" style="fill:rgb(193,78,78);fill-rule:nonzero;"/>
    </g>
    <g transform="matrix(1,0,0,1,0,2)">
        <path d="M18.852,23.374C18.878,23.521 18.884,23.669 18.87,23.818C18.73,24.463 18.588,25.108 18.448,25.752C18.448,25.752 18.379,25.708 18.378,25.708C17.689,25.687 17.567,25.249 17.495,24.661C17.423,24.082 17.191,23.525 17.029,22.957C17.042,22.816 17.067,22.678 17.107,22.541C17.404,22.199 17.702,21.857 17.999,21.515C18.146,21.521 18.293,21.526 18.439,21.529C18.577,22.144 18.714,22.759 18.852,23.374" style="fill:rgb(176,69,69);fill-rule:nonzero;"/>
    </g>
    <g transform="matrix(1,0,0,1,0,2)">
        <path d="M17.107,22.542C17.067,22.678 17.041,22.816 17.029,22.958C16.57,22.947 16.113,22.936 15.655,22.925C15.595,22.76 15.536,22.594 15.477,22.429L15.594,22.41L15.712,22.425C16.153,22.44 16.596,22.456 17.039,22.471L17.107,22.542Z" style="fill:rgb(191,78,78);fill-rule:nonzero;"/>
    </g>
    <g transform="matrix(1,0,0,1,0,2)">
        <path d="M18.448,25.752C18.588,25.108 18.73,24.463 18.87,23.819C18.883,24.305 18.896,24.792 18.909,25.278C18.755,25.437 18.602,25.595 18.448,25.752" style="fill:rgb(82,31,31);fill-rule:nonzero;"/>
    </g>
    <g transform="matrix(1,0,0,1,0,2)">
        <path d="M12.842,8.394C13.665,8.278 14.611,7.847 15.288,8.109C16.79,8.694 17.766,8.297 18.6,7.081L18.42,8.93C17.67,9.186 16.92,9.441 16.17,9.696C15.057,9.408 13.944,9.119 12.831,8.831C12.829,8.685 12.833,8.54 12.842,8.394" style="fill:rgb(192,49,49);fill-rule:nonzero;"/>
    </g>
    <g transform="matrix(1,0,0,1,0,2)">
        <path d="M10.035,6.509C10.481,6.508 10.925,6.506 11.37,6.506C11.394,6.653 11.389,6.8 11.353,6.946C10.914,6.8 10.475,6.654 10.035,6.509" style="fill:rgb(200,149,149);fill-rule:nonzero;"/>
    </g>
    <g transform="matrix(1,0,0,1,0,2)">
        <path d="M11.353,6.946C11.389,6.801 11.395,6.654 11.37,6.506C11.525,6.345 11.681,6.184 11.837,6.023C11.675,6.331 11.514,6.638 11.353,6.946" style="fill:rgb(193,56,56);fill-rule:nonzero;"/>
    </g>
    <g transform="matrix(1,0,0,1,0,2)">
        <path d="M27.729,7.562C28.07,7.687 28.411,7.81 28.752,7.935C28.905,8.245 29.059,8.557 29.213,8.868C28.447,8.921 27.839,8.752 27.755,7.84C27.701,7.752 27.692,7.659 27.729,7.562" style="fill:rgb(180,30,30);fill-rule:nonzero;"/>
    </g>
    <g transform="matrix(1,0,0,1,0,2)">
        <path d="M27.729,7.562C27.692,7.659 27.701,7.752 27.755,7.84C27.338,8.488 27.002,9.28 25.973,8.847C25.969,8.253 25.964,7.658 25.959,7.064C26.411,7.067 26.865,7.07 27.318,7.074L27.278,7.037C27.437,7.212 27.594,7.387 27.752,7.561L27.729,7.562Z" style="fill:rgb(227,195,195);fill-rule:nonzero;"/>
    </g>
    <g transform="matrix(1,0,0,1,0,2)">
        <path d="M23.585,6.989C24.579,6.978 25.632,6.89 25.457,8.414C24.711,8.48 23.742,8.105 23.588,9.352C23.434,9.347 23.28,9.344 23.126,9.343C22.818,8.741 22.51,8.141 22.203,7.54C22.487,7.324 22.77,7.109 23.053,6.893L23.052,6.896C23.23,6.926 23.408,6.958 23.585,6.989" style="fill:rgb(181,31,31);fill-rule:nonzero;"/>
    </g>
    <g transform="matrix(1,0,0,1,0,2)">
        <path d="M25.001,13.091C24.845,12.936 24.691,12.782 24.536,12.627C24.691,12.782 24.845,12.936 25.001,13.091" style="fill:rgb(66,50,50);fill-rule:nonzero;"/>
    </g>
    <g transform="matrix(1,0,0,1,0,2)">
        <path d="M26.868,10.291C26.875,10.436 26.872,10.58 26.856,10.723C26.708,10.59 26.56,10.457 26.412,10.324C26.561,10.28 26.713,10.269 26.868,10.291" style="fill:rgb(140,109,109);fill-rule:nonzero;"/>
    </g>
    <g transform="matrix(1,0,0,1,0,2)">
        <path d="M23.126,9.343C23.279,9.345 23.434,9.348 23.588,9.352C23.122,9.504 22.656,9.657 22.19,9.81L22.19,9.346C22.502,9.345 22.814,9.344 23.126,9.343" style="fill:rgb(190,43,43);fill-rule:nonzero;"/>
    </g>
    <g transform="matrix(1,0,0,1,0,2)">
        <path d="M27.772,1.877C27.748,3.131 26.891,3.273 25.92,3.261C25.794,3.192 25.666,3.126 25.539,3.06C25.546,2.829 25.552,2.597 25.559,2.366L26.014,1.822C26.176,1.712 26.338,1.602 26.501,1.493C26.769,1.473 27.036,1.452 27.303,1.432C27.459,1.581 27.616,1.729 27.772,1.877" style="fill:rgb(224,191,191);fill-rule:nonzero;"/>
    </g>
    <g transform="matrix(1,0,0,1,0,2)">
        <path d="M25.938,5.124C25.004,6.25 25.004,6.25 24.068,5.126L25.938,5.124Z" style="fill:rgb(178,40,40);fill-rule:nonzero;"/>
    </g>
    <g transform="matrix(1,0,0,1,0,2)">
        <path d="M25.539,3.06C25.667,3.126 25.794,3.192 25.92,3.261C25.893,3.415 25.889,3.569 25.91,3.723C25.787,3.502 25.663,3.281 25.539,3.06" style="fill:rgb(173,51,51);fill-rule:nonzero;"/>
    </g>
    <g transform="matrix(1,0,0,1,0,2)">
        <path d="M15.161,10.281C16.196,10.714 17.231,11.148 18.267,11.58C18.258,11.723 18.249,11.865 18.241,12.008C17.537,12.057 16.832,12.105 16.127,12.154C15.825,11.998 15.521,11.842 15.219,11.686C14.586,11.183 13.953,10.68 13.32,10.177C13.934,10.212 14.547,10.247 15.161,10.281" style="fill:rgb(31,9,9);fill-rule:nonzero;"/>
    </g>
    <g transform="matrix(1,0,0,1,0,2)">
        <path d="M18.443,10.198C18.13,10.235 17.817,10.272 17.504,10.309C17.385,10.249 17.259,10.226 17.127,10.237C17.079,10.103 17.039,9.965 17.009,9.827L18.443,10.198Z" style="fill:rgb(192,49,49);fill-rule:nonzero;"/>
    </g>
    <g transform="matrix(1,0,0,1,0,2)">
        <path d="M13.754,19.186C12.663,19.346 11.572,19.505 10.481,19.665C10.478,19.505 10.476,19.345 10.474,19.184C10.943,19.029 11.411,18.873 11.88,18.718C12.348,19.319 12.817,19.319 13.286,18.718L13.286,18.715C13.442,18.872 13.598,19.03 13.754,19.186" style="fill:rgb(195,63,63);fill-rule:nonzero;"/>
    </g>
    <g transform="matrix(1,0,0,1,0,2)">
        <path d="M14.6,14.591C14.654,15.231 14.71,15.871 14.766,16.511C14.755,16.624 14.729,16.733 14.689,16.84C14.363,16.983 14.035,17.126 13.709,17.27L13.711,17.254L13.584,17.197C13.584,17.197 13.459,17.255 13.458,17.255C13.249,17.141 13.041,17.028 12.833,16.914L12.303,16.376C12.368,15.888 12.431,15.401 12.496,14.912C12.622,14.8 12.749,14.687 12.875,14.576C13.451,14.581 14.024,14.586 14.6,14.591" style="fill:rgb(236,212,212);fill-rule:nonzero;"/>
    </g>
    <g transform="matrix(1,0,0,1,0,2)">
        <path d="M13.286,18.718C12.817,19.319 12.348,19.319 11.88,18.718C12.348,17.968 12.817,18.593 13.286,18.718" style="fill:rgb(199,62,62);fill-rule:nonzero;"/>
    </g>
    <g transform="matrix(1,0,0,1,0,2)">
        <path d="M12.833,16.914C13.041,17.028 13.249,17.142 13.458,17.255C13.251,17.142 13.042,17.028 12.833,16.914" style="fill:rgb(195,63,63);fill-rule:nonzero;"/>
    </g>
    <g transform="matrix(1,0,0,1,0,2)">
        <path d="M13.155,21.119C13.022,21.124 12.913,21.075 12.829,20.971C12.936,20.785 13.074,20.428 13.144,20.441C14.25,20.644 14.235,19.921 14.223,19.188C15.051,17.722 16.362,17.219 17.971,17.308L17.973,17.311C17.889,18.329 18.327,19.523 17.025,20.132L17.028,20.135C16.721,20.105 16.413,20.077 16.107,20.047C15.77,20.383 15.434,20.719 15.098,21.055C14.961,21.058 14.826,21.059 14.69,21.061C14.378,21.061 14.065,21.06 13.752,21.06C13.554,21.079 13.355,21.1 13.155,21.119" style="fill:rgb(177,47,47);fill-rule:nonzero;"/>
    </g>
    <g transform="matrix(1,0,0,1,0,2)">
        <path d="M17.501,15.437C17.793,15.596 18.084,15.755 18.375,15.914C18.419,16.192 18.463,16.471 18.507,16.749C18.329,16.937 18.151,17.124 17.972,17.31L17.971,17.308C17.814,16.685 17.658,16.061 17.501,15.437" style="fill:rgb(201,65,65);fill-rule:nonzero;"/>
    </g>
    <g transform="matrix(1,0,0,1,0,2)">
        <path d="M13.708,17.269C14.035,17.126 14.362,16.983 14.689,16.84C14.362,16.983 14.035,17.126 13.708,17.269" style="fill:rgb(195,63,63);fill-rule:nonzero;"/>
    </g>
    <g transform="matrix(1,0,0,1,0,2)">
        <path d="M18.393,15.032C19.003,14.119 19.664,14.7 20.314,14.969C20.468,15.364 20.621,15.759 20.827,16.286C20.208,16.314 19.591,16.342 18.973,16.37C18.805,16.058 18.637,15.746 18.469,15.433C18.411,15.305 18.385,15.172 18.393,15.032" style="fill:rgb(31,7,7);fill-rule:nonzero;"/>
    </g>
    <g transform="matrix(1,0,0,1,0,2)">
        <path d="M18.469,15.433C18.637,15.746 18.804,16.058 18.973,16.37C18.949,16.532 18.923,16.695 18.898,16.857C18.766,16.829 18.635,16.793 18.507,16.749C18.463,16.471 18.419,16.193 18.375,15.914C18.407,15.754 18.437,15.593 18.469,15.433" style="fill:rgb(52,28,28);fill-rule:nonzero;"/>
    </g>
    <g transform="matrix(1,0,0,1,0,2)">
        <path d="M18.507,16.749C18.635,16.793 18.766,16.829 18.898,16.857C18.898,16.858 18.935,16.837 18.935,16.837C18.896,16.992 18.906,17.145 18.967,17.293C18.973,17.449 18.98,17.606 18.986,17.762C19.106,18.568 19.226,19.374 19.346,20.181C19.34,21.095 19.334,22.008 19.326,22.922C19.198,22.937 19.072,22.963 18.949,23.001C18.929,22.566 18.93,22.128 18.869,21.699C18.859,21.624 18.589,21.585 18.439,21.529C18.293,21.525 18.146,21.521 17.999,21.516C17.827,21.211 17.654,20.907 17.482,20.603C17.33,20.446 17.177,20.289 17.024,20.132C18.327,19.523 17.889,18.329 17.972,17.31C18.151,17.124 18.329,16.937 18.507,16.749" style="fill:rgb(177,58,58);fill-rule:nonzero;"/>
    </g>
    <g transform="matrix(1,0,0,1,0,2)">
        <path d="M19.346,20.182C19.226,19.375 19.106,18.568 18.986,17.761C19.118,17.77 19.25,17.776 19.383,17.778C19.371,18.58 19.359,19.381 19.346,20.182" style="fill:rgb(52,28,28);fill-rule:nonzero;"/>
    </g>
    <g transform="matrix(1,0,0,1,0,2)">
        <path d="M18.439,21.529C18.589,21.584 18.859,21.623 18.869,21.699C18.93,22.128 18.929,22.565 18.949,23C18.953,23.134 18.92,23.259 18.853,23.374C18.714,22.759 18.577,22.144 18.439,21.529" style="fill:rgb(191,78,78);fill-rule:nonzero;"/>
    </g>
    <g transform="matrix(1,0,0,1,0,2)">
        <path d="M18.967,17.293C18.906,17.145 18.895,16.992 18.935,16.837C18.999,16.943 19.073,17.044 19.117,17.157C19.126,17.18 19.02,17.247 18.967,17.293" style="fill:rgb(31,7,7);fill-rule:nonzero;"/>
    </g>
    <g transform="matrix(1,0,0,1,0,2)">
        <path d="M18.419,8.93L18.599,7.081C18.856,7.059 19.112,7.037 19.369,7.015L19.339,7.036C19.518,7.161 19.696,7.285 19.874,7.411L19.909,7.438C20.029,7.631 20.147,7.823 20.265,8.015C20.22,8.126 20.212,8.24 20.239,8.357C20.113,8.54 19.987,8.723 19.86,8.906C19.379,8.914 18.899,8.922 18.419,8.93" style="fill:rgb(235,204,204);fill-rule:nonzero;"/>
    </g>
    <g transform="matrix(1,0,0,1,0,2)">
        <path d="M20.239,8.357C20.212,8.24 20.221,8.126 20.266,8.015C20.288,7.827 20.311,7.638 20.335,7.451C20.322,7.3 20.316,7.15 20.317,6.999L20.314,6.999C20.609,7.009 20.905,7.02 21.199,7.03C21.199,7.03 21.24,7.049 21.24,7.048C21.562,7.212 21.882,7.376 22.204,7.54C22.51,8.141 22.818,8.742 23.126,9.343C22.814,9.344 22.503,9.345 22.191,9.346L21.721,9.34C21.565,9.186 21.409,9.032 21.253,8.878C21.097,8.876 20.94,8.874 20.783,8.873C20.646,8.73 20.509,8.586 20.374,8.443L20.239,8.357Z" style="fill:rgb(199,35,35);fill-rule:nonzero;"/>
    </g>
    <g transform="matrix(1,0,0,1,0,2)">
        <path d="M21.253,8.878C21.409,9.032 21.565,9.186 21.72,9.34C21.565,9.186 21.409,9.032 21.253,8.878" style="fill:rgb(190,43,43);fill-rule:nonzero;"/>
    </g>
    <g transform="matrix(1,0,0,1,0,2)">
        <path d="M20.373,8.443C20.51,8.587 20.646,8.73 20.783,8.873C20.646,8.73 20.51,8.587 20.373,8.443" style="fill:rgb(190,43,43);fill-rule:nonzero;"/>
    </g>
    <g transform="matrix(1,0,0,1,0,2)">
        <path d="M22.204,7.54C21.882,7.376 21.562,7.212 21.24,7.049C21.844,6.997 22.45,6.946 23.054,6.894C22.771,7.109 22.487,7.324 22.204,7.54" style="fill:rgb(211,55,55);fill-rule:nonzero;"/>
    </g>
    <g transform="matrix(1,0,0,1,0,2)">
        <path d="M21.2,7.03C20.904,7.02 20.609,7.009 20.314,6.999C20.315,6.842 20.315,6.684 20.316,6.527C20.461,6.531 20.606,6.536 20.75,6.539C20.9,6.702 21.05,6.867 21.2,7.03" style="fill:rgb(211,55,55);fill-rule:nonzero;"/>
    </g>
    <g transform="matrix(1,0,0,1,0,2)">
        <path d="M20.316,6.999C20.315,7.15 20.322,7.3 20.334,7.451C20.192,7.451 20.051,7.448 19.91,7.439L19.874,7.41C19.864,7.272 19.858,7.133 19.855,6.994C20.009,6.998 20.162,7 20.316,6.999" style="fill:rgb(211,55,55);fill-rule:nonzero;"/>
    </g>
    <g transform="matrix(1,0,0,1,0,2)">
        <path d="M19.855,6.995C19.858,7.133 19.865,7.272 19.874,7.41C19.697,7.286 19.518,7.16 19.34,7.036C19.511,7.022 19.683,7.009 19.855,6.995" style="fill:rgb(207,67,67);fill-rule:nonzero;"/>
    </g>
    <g transform="matrix(1,0,0,1,0,2)">
        <path d="M13.155,21.119L13.753,21.06C13.755,21.217 13.758,21.373 13.761,21.529C13.757,21.995 13.753,22.461 13.749,22.927C13.587,22.926 13.425,22.926 13.263,22.925C13.227,22.323 13.191,21.721 13.155,21.119" style="fill:rgb(176,58,58);fill-rule:nonzero;"/>
    </g>
    <g transform="matrix(1,0,0,1,0,2)">
        <path d="M13.76,21.53C13.757,21.374 13.755,21.217 13.753,21.06C14.065,21.06 14.378,21.061 14.69,21.061C14.69,21.216 14.69,21.372 14.693,21.528L14.685,21.537L13.76,21.53Z" style="fill:rgb(149,42,42);fill-rule:nonzero;"/>
    </g>
    <g transform="matrix(1,0,0,1,0,2)">
        <path d="M15.138,22.033C14.987,21.868 14.836,21.703 14.685,21.537L14.692,21.528C14.828,21.529 14.963,21.532 15.098,21.536C15.182,21.657 15.225,21.79 15.229,21.937L15.138,22.033Z" style="fill:rgb(149,42,42);fill-rule:nonzero;"/>
    </g>
    <g transform="matrix(1,0,0,1,0,2)">
        <path d="M15.477,22.429C15.365,22.297 15.251,22.164 15.138,22.033L15.229,21.937C15.389,22.1 15.551,22.262 15.711,22.425L15.594,22.41L15.477,22.429Z" style="fill:rgb(149,42,42);fill-rule:nonzero;"/>
    </g>
    <g transform="matrix(1,0,0,1,0,2)">
        <path d="M16.064,6.51C16.37,6.334 16.675,6.157 16.981,5.98C16.675,6.156 16.37,6.333 16.064,6.51" style="fill:rgb(205,74,74);fill-rule:nonzero;"/>
    </g>
    <g transform="matrix(1,0,0,1,0,2)">
        <path d="M27.318,7.074C26.865,7.071 26.411,7.067 25.959,7.064C26.417,6.369 26.87,6.369 27.318,7.074" style="fill:rgb(178,47,47);fill-rule:nonzero;"/>
    </g>
    <g transform="matrix(1,0,0,1,0,2)">
        <path d="M27.752,7.561C27.594,7.387 27.437,7.212 27.278,7.037C27.436,7.212 27.594,7.387 27.752,7.561" style="fill:rgb(178,47,47);fill-rule:nonzero;"/>
    </g>
    <g transform="matrix(1,0,0,1,0,2)">
        <path d="M26.88,4.224C27.035,4.18 27.188,4.179 27.343,4.221C27.189,4.223 27.035,4.223 26.88,4.224" style="fill:rgb(178,47,47);fill-rule:nonzero;"/>
    </g>
    <g transform="matrix(1,0,0,1,0,2)">
        <path d="M17.482,20.603C17.653,20.908 17.827,21.211 17.999,21.516C17.701,21.857 17.404,22.199 17.107,22.541C17.107,22.542 17.039,22.471 17.039,22.471C17.186,21.849 17.334,21.226 17.482,20.603" style="fill:rgb(191,78,78);fill-rule:nonzero;"/>
    </g>
    <g transform="matrix(1,0,0,1,0,2)">
        <path d="M17.482,20.603C17.334,21.226 17.186,21.849 17.039,22.471C16.596,22.456 16.153,22.441 15.712,22.425C15.55,22.262 15.389,22.1 15.229,21.937C15.225,21.79 15.182,21.657 15.098,21.537C15.098,21.376 15.098,21.215 15.097,21.055C15.434,20.719 15.77,20.383 16.106,20.047C16.413,20.077 16.72,20.105 17.029,20.134L17.025,20.132C17.177,20.289 17.329,20.446 17.482,20.603" style="fill:rgb(230,210,210);fill-rule:nonzero;"/>
    </g>
    <g transform="matrix(1,0,0,1,0,2)">
        <path d="M17.028,20.135C16.721,20.105 16.413,20.076 16.107,20.047C16.413,20.076 16.721,20.105 17.028,20.135" style="fill:rgb(177,58,58);fill-rule:nonzero;"/>
    </g>
    <g transform="matrix(1,0,0,1,0,2)">
        <path d="M15.098,21.055C15.098,21.215 15.098,21.376 15.098,21.536C14.963,21.532 14.828,21.529 14.693,21.527C14.69,21.372 14.69,21.216 14.69,21.06C14.826,21.059 14.961,21.057 15.098,21.055" style="fill:rgb(176,58,58);fill-rule:nonzero;"/>
    </g>
    <g transform="matrix(1,0,0,1,0,2)">
        <path d="M19.91,7.438C20.051,7.447 20.192,7.451 20.334,7.451C20.311,7.639 20.288,7.827 20.266,8.015C20.147,7.823 20.028,7.63 19.91,7.438" style="fill:rgb(207,67,67);fill-rule:nonzero;"/>
    </g>
</svg>
