<?xml version="1.0" encoding="UTF-8" standalone="no"?><!DOCTYPE svg PUBLIC "-//W3C//DTD SVG 1.1//EN" "http://www.w3.org/Graphics/SVG/1.1/DTD/svg11.dtd"><svg width="100%" height="100%" viewBox="0 0 34 30" version="1.1" xmlns="http://www.w3.org/2000/svg" xmlns:xlink="http://www.w3.org/1999/xlink" xml:space="preserve" style="fill-rule:evenodd;clip-rule:evenodd;stroke-linejoin:round;stroke-miterlimit:1.41421;"><path d="M4.736,14.008c-0.015,-0.169 0.042,-0.309 0.169,-0.422c0.448,-0.002 0.895,-0.003 1.344,-0.005c0.59,0.634 1.207,0.607 1.846,0.077c0.594,0.107 1.188,0.213 1.782,0.321c0.666,0.016 1.334,0.033 2,0.05l0.002,0.469c-1.422,0.146 -0.904,1.834 -1.864,2.347c-0.194,0.013 -0.388,0.025 -0.581,0.038c-1.917,-0.589 -1.917,-0.589 -2.779,0.875c-0.54,0.316 -1.092,0.35 -1.206,-0.368c-0.114,-0.723 0.083,-1.494 -0.021,-2.22c-0.06,-0.412 -0.45,-0.777 -0.692,-1.162" style="fill:#c73939;fill-rule:nonzero;"/><path d="M1.551,8.335c0.316,-0.603 0.631,-1.207 0.946,-1.811c0.872,0.776 4.009,1.335 4.806,0.8c0.204,-0.137 0.243,-0.519 0.358,-0.788c0.141,-0.001 0.281,0.001 0.422,0.006c0.183,0.46 0.365,0.92 0.546,1.379c-0.321,0.162 -0.643,0.324 -0.965,0.486c-0.496,0.041 -1.165,0.306 -1.455,0.082c-0.961,-0.748 -1.66,-0.195 -2.46,0.143c0.167,1.69 1.943,-0.011 2.291,1.323c-0.365,0.388 -0.777,0.825 -1.188,1.262c-1.097,-0.905 -2.227,-1.674 -3.735,-0.935c-0.348,-0.263 -0.884,-0.459 -1.004,-0.801c-0.266,-0.762 -0.107,-1.394 0.966,-1.068c0.158,-0.027 0.315,-0.052 0.472,-0.078" style="fill:#37130b;fill-rule:nonzero;"/><path d="M31.051,14.497c0.036,0.433 0.072,0.865 0.108,1.298c-0.336,1.285 -0.672,2.569 -1.008,3.853c-0.849,-0.625 -0.223,-1.246 0.006,-1.869c-0.176,-1.168 -0.97,-1.046 -1.72,-0.735c-0.449,0.186 -1.384,0.313 -0.622,1.203c-0.404,0.506 -1.121,0.856 -0.628,1.748c0.126,0.228 -0.194,0.703 -0.309,1.065c-0.157,-0.001 -0.314,-0.002 -0.471,-0.002c0.099,-0.98 0.252,-1.958 0.278,-2.94c0.014,-0.576 -0.173,-1.159 -0.269,-1.739c1.494,-0.313 0.724,-1.528 0.937,-2.35c0.638,0.316 1.277,0.633 1.934,0.96c0.273,-0.591 0.572,-1.242 0.872,-1.893c0.128,0.009 0.256,0.027 0.383,0.053c0.17,0.449 0.339,0.898 0.509,1.348" style="fill:#250d0d;fill-rule:nonzero;"/><path d="M4.736,14.008c0.242,0.385 0.632,0.75 0.692,1.162c0.104,0.726 -0.093,1.497 0.021,2.22c0.114,0.718 0.666,0.684 1.206,0.368c0.016,0.325 0.033,0.65 0.049,0.975c-0.075,0.613 -0.279,1.243 -0.196,1.834c0.135,0.952 0.459,1.877 0.702,2.814c-0.008,0.165 -0.015,0.332 -0.023,0.498c-0.156,0 -0.313,-0.001 -0.469,-0.002l0,0.003c-0.13,-0.316 -0.26,-0.631 -0.39,-0.946c-1.851,-2.74 -2.453,-5.703 -1.592,-8.926" style="fill:#d16060;fill-rule:nonzero;"/><path d="M7.661,6.536c-0.114,0.269 -0.154,0.651 -0.358,0.788c-0.797,0.535 -3.935,-0.024 -4.807,-0.8l-0.007,-0.004c0.384,-0.197 1.007,-0.278 0.462,-0.935c-0.07,-0.115 -0.078,-0.236 -0.024,-0.36c0.012,-0.348 0.024,-0.698 0.035,-1.047l0.006,-0.004l0.553,-0.025c0.141,0.066 0.281,0.132 0.422,0.197c0.67,0.082 1.341,0.164 2.011,0.246c0.117,-0.089 0.215,-0.072 0.294,0.051c0.2,0.119 0.399,0.237 0.599,0.356c0,0 0.028,0.023 0.027,0.023c-0.102,0.339 -0.203,0.679 -0.305,1.019c0.33,0.019 0.663,0.039 0.994,0.059l0.088,0.066c0.002,0.123 0.005,0.247 0.01,0.37" style="fill:#2e0b09;fill-rule:nonzero;"/><path d="M26.462,26.312c-1.375,1.309 -3.102,1.42 -4.859,1.429c0.041,-0.352 0.081,-0.705 0.122,-1.057l1.874,-0.937l1.873,-0.937c0.314,-0.154 0.629,-0.309 0.943,-0.464c0.154,-0.002 0.307,-0.004 0.46,-0.007c0.159,-0.153 0.317,-0.308 0.476,-0.462c0.465,-0.312 0.931,-0.624 1.397,-0.936c0,0.303 0,0.606 0.001,0.909l-0.011,0.024l-0.4,0.537l0.02,-0.023c-0.191,0.263 -0.383,0.527 -0.575,0.791l-0.074,0.075l-0.352,0.339c-0.052,0.165 -0.164,0.237 -0.336,0.218c-0.186,0.166 -0.372,0.334 -0.559,0.501" style="fill:#2b0b07;fill-rule:nonzero;"/><path d="M30.542,13.149c-0.126,-0.026 -0.255,-0.044 -0.384,-0.053c-1.98,-0.728 -2.086,-0.693 -2.805,0.933c-0.213,0.823 0.556,2.037 -0.936,2.35l-0.009,-0.006c0,-0.157 -0.001,-0.314 -0.002,-0.471l0,0.002c0.157,-1.094 0.314,-2.188 0.47,-3.282c0.004,-0.308 0.009,-0.615 0.013,-0.924c0.852,-0.72 1.823,-1.098 2.951,-1.026c0.273,0.627 0.545,1.253 0.818,1.88c-0.038,0.199 -0.077,0.397 -0.116,0.597" style="fill:#351c1c;fill-rule:nonzero;"/><path d="M10.784,3.622c2.619,-2.194 5.805,-2.809 9.051,-3.262c0.027,0.47 0.056,0.94 0.084,1.411c-0.669,0.029 -1.338,0.057 -2.004,0.086c-0.594,-0.395 -0.99,-0.402 -0.936,0.475c-0.138,0.003 -0.273,0.01 -0.411,0.023l-0.04,-0.031c-0.293,-0.522 -0.593,-0.469 -0.899,-0.011c-0.154,0.002 -0.309,0.004 -0.463,0.004c-1.096,0.466 -2.191,0.933 -3.287,1.399c-0.364,-0.031 -0.729,-0.062 -1.095,-0.094" style="fill:#d05353;fill-rule:nonzero;"/><path d="M15.174,28.961c-2.042,0.827 -3.583,-0.109 -5.02,-1.419c1.78,-0.637 1.78,-0.637 1.675,-2.706c0.178,0.395 0.481,0.782 0.509,1.189c0.077,1.098 0.695,1.762 1.571,2.488c0.312,-0.543 0.538,-0.938 0.764,-1.332c0.137,-0.003 0.273,-0.004 0.409,-0.004c0.178,0.152 0.357,0.304 0.534,0.457c-0.147,0.442 -0.295,0.885 -0.442,1.327" style="fill:#903030;fill-rule:nonzero;"/><path d="M1.116,10.281c1.509,-0.738 2.64,0.031 3.735,0.936c0.134,0.303 0.267,0.607 0.399,0.91l0.167,0.044c-0.197,0.183 -0.395,0.366 -0.593,0.549c-2.511,0.195 -2.579,0.151 -3.708,-2.439" style="fill:#3c1e19;fill-rule:nonzero;"/><path d="M10.784,3.622c0.366,0.032 0.731,0.063 1.095,0.094c1.096,-0.466 2.191,-0.933 3.287,-1.399c0.154,0 0.309,-0.002 0.463,-0.004c0.3,0.004 0.6,0.008 0.899,0.011c0,0 0.04,0.031 0.04,0.03c0.153,0.146 0.306,0.293 0.459,0.44c0.153,0.012 0.306,0.025 0.459,0.038c0.162,0.295 0.324,0.591 0.486,0.886c-0.31,0.156 -0.62,0.311 -0.93,0.466c-0.155,-0.024 -0.309,-0.049 -0.463,-0.074c-0.156,-0.13 -0.312,-0.262 -0.469,-0.393c-0.479,0 -0.959,0.001 -1.438,0.001c-1.1,0.266 -1.905,1.556 -3.259,0.937c-0.312,-0.14 -0.623,-0.28 -0.935,-0.421l-0.006,-0.05c0.014,-0.122 0.017,-0.245 0.012,-0.367c0.061,-0.126 0.161,-0.191 0.3,-0.195" style="fill:#c13838;fill-rule:nonzero;"/><path d="M30.15,19.649c0.336,-1.284 0.672,-2.569 1.008,-3.854c0.893,2.821 -0.425,5.084 -1.846,7.321c-0.185,-0.215 -0.371,-0.431 -0.557,-0.645c-0.002,-0.158 -0.003,-0.314 -0.005,-0.47c0.154,-0.315 0.308,-0.629 0.462,-0.943c0.313,-0.47 0.626,-0.94 0.938,-1.409" style="fill:#362121;fill-rule:nonzero;"/><path d="M11.829,24.836c0.105,2.069 0.105,2.069 -1.675,2.706c-0.365,-0.27 -0.73,-0.541 -1.095,-0.812c0.149,-0.168 0.299,-0.336 0.449,-0.504c-0.014,-0.315 -0.028,-0.631 -0.042,-0.946c0.334,-0.317 0.669,-0.633 1.003,-0.951c0.257,0.025 0.516,0.05 0.774,0.075l0.62,0.446l-0.034,-0.014Z" style="fill:#d8c1c1;fill-rule:nonzero;"/><path d="M31.746,3.173c0.437,0.434 0.873,0.868 1.309,1.302c-0.031,0.214 -0.063,0.428 -0.094,0.642c-0.464,0.155 -0.927,0.311 -1.389,0.467c-0.149,-0.177 -0.297,-0.354 -0.444,-0.531c-0.383,-0.289 -0.741,-0.62 -1.155,-0.854c-0.378,-0.214 -0.814,-0.322 -1.225,-0.478c0.017,-0.159 0.036,-0.319 0.054,-0.479c0.139,-0.152 0.277,-0.304 0.417,-0.457c0.314,-0.002 0.629,-0.003 0.943,-0.006c0.528,0.132 1.056,0.263 1.584,0.394" style="fill:#b32929;fill-rule:nonzero;"/><path d="M19.919,1.771c-0.028,-0.47 -0.056,-0.94 -0.083,-1.41c0.635,-0.12 1.271,-0.24 1.907,-0.36c0.15,0.301 0.301,0.603 0.452,0.904c0.043,0.113 0.066,0.229 0.069,0.349c-0.031,0.484 -0.062,0.967 -0.092,1.452c-0.093,0.1 -0.207,0.148 -0.344,0.14c-0.364,-0.004 -0.727,-0.007 -1.091,-0.011c0,0 0.007,0.013 0.007,0.013c-0.132,-0.18 -0.262,-0.359 -0.393,-0.538c-0.149,-0.175 -0.297,-0.35 -0.447,-0.524l0.015,-0.015Z" style="fill:#eac8c8;fill-rule:nonzero;"/><path d="M18.843,27.563c-0.987,0.653 -1.812,1.679 -3.205,1.409c0.306,-0.456 0.613,-0.914 0.919,-1.371c0.196,-0.484 0.392,-0.968 0.588,-1.452c0.402,0.039 0.805,0.077 1.208,0.116c0.19,0.297 0.381,0.594 0.571,0.891c-0.055,0.13 -0.082,0.266 -0.081,0.407" style="fill:#c16d6d;fill-rule:nonzero;"/><path d="M8.63,7.922c-0.182,-0.46 -0.364,-0.92 -0.546,-1.38l-0.433,-0.375c0,0 -0.088,-0.066 -0.087,-0.067c0.025,-0.106 0.05,-0.212 0.072,-0.319c0.31,-0.071 0.622,-0.143 0.932,-0.215l0.139,0.083l0.343,-0.051c0.137,-0.004 0.273,-0.021 0.408,-0.054l0.111,0.071c0.008,0.268 0.015,0.537 0.024,0.806c-0.543,0.686 0.015,1.071 0.411,1.501c-0.458,0 -0.916,0 -1.374,0" style="fill:#811614;fill-rule:nonzero;"/><path d="M32.513,8.859c-0.956,0.457 -1.911,0.914 -2.866,1.372c-0.146,-0.134 -0.29,-0.269 -0.435,-0.404c0.004,-0.316 0.01,-0.631 0.015,-0.947c0.466,-0.004 0.933,-0.007 1.4,-0.011c0.311,-0.007 0.623,-0.013 0.935,-0.02c0.158,-0.303 0.315,-0.608 0.473,-0.912c0.16,0.308 0.319,0.615 0.478,0.922" style="fill:#b84444;fill-rule:nonzero;"/><path d="M30.162,2.78c-0.314,0.001 -0.629,0.003 -0.943,0.005c-0.14,-0.003 -0.279,-0.007 -0.419,-0.012c-0.154,-0.329 -0.307,-0.659 -0.462,-0.988c-0.143,-0.164 -0.286,-0.328 -0.43,-0.493c0.128,-0.13 0.256,-0.261 0.384,-0.391c0.149,0.043 0.298,0.086 0.448,0.129c0.194,0.094 0.39,0.187 0.585,0.28c0.146,-0.01 0.263,0.043 0.352,0.159c0.169,0.12 0.338,0.241 0.508,0.361c0.16,0.157 0.32,0.313 0.481,0.469c-0.169,0.16 -0.336,0.321 -0.504,0.481" style="fill:#a72a2a;fill-rule:nonzero;"/><path d="M21.725,26.684c-0.041,0.352 -0.081,0.704 -0.122,1.057c-0.739,-0.059 -1.478,-0.118 -2.217,-0.177c-0.004,-0.137 -0.006,-0.274 -0.007,-0.411l0.938,-0.465c0.31,-0.003 0.619,-0.007 0.928,-0.01c0.16,0.002 0.32,0.004 0.48,0.006" style="fill:#36120d;fill-rule:nonzero;"/><path d="M32.513,8.859c-0.159,-0.307 -0.318,-0.614 -0.478,-0.922c-0.001,-0.155 0,-0.31 0.004,-0.465c0.637,-0.156 1.275,-0.312 1.913,-0.468c-0.038,0.961 -0.549,1.555 -1.439,1.855" style="fill:#bd4d4d;fill-rule:nonzero;"/><path d="M22.195,0.905c-0.151,-0.301 -0.302,-0.603 -0.452,-0.905c1.241,0.119 2.482,0.238 3.723,0.357c0.093,0.064 0.104,0.14 0.033,0.228c-0.162,-0.02 -0.324,-0.041 -0.486,-0.061c-0.939,0.126 -1.878,0.254 -2.818,0.381" style="fill:#df9d9d;fill-rule:nonzero;"/><path d="M29.211,9.826c0.145,0.135 0.291,0.27 0.435,0.405c0.064,0.146 0.129,0.293 0.194,0.44c-1.128,-0.072 -2.099,0.307 -2.951,1.027c0,-0.001 -0.017,-0.016 -0.017,-0.016c0.011,-0.303 0.024,-0.606 0.036,-0.909c0.145,-0.167 0.29,-0.334 0.436,-0.501l0.193,-0.03l0.195,0.007c0.337,-0.118 0.674,-0.238 1.011,-0.357l0.468,-0.066Z" style="fill:#423232;fill-rule:nonzero;"/><path d="M33.952,7.004c-0.639,0.156 -1.276,0.312 -1.914,0.468c0.464,-0.471 0.928,-0.941 1.392,-1.411c-0.027,-0.297 -0.055,-0.593 -0.082,-0.89l0.13,-0.075c0.158,0.636 0.315,1.272 0.474,1.908" style="fill:#b84444;fill-rule:nonzero;"/><path d="M25.466,0.357c0.316,0.052 0.632,0.105 0.948,0.157c0.01,0.169 0.022,0.338 0.034,0.506c-0.005,0.115 -0.024,0.227 -0.057,0.337c-0.219,0.167 -0.438,0.333 -0.658,0.5c-0.096,0.149 -0.193,0.297 -0.289,0.446c-0.15,-0.155 -0.3,-0.311 -0.449,-0.467c0.169,-0.417 0.337,-0.834 0.505,-1.251c0.07,-0.088 0.059,-0.165 -0.034,-0.228" style="fill:#a52b2b;fill-rule:nonzero;"/><path d="M4.825,12.721c0.198,-0.183 0.394,-0.366 0.592,-0.55c0.276,0.47 0.554,0.94 0.831,1.41c-0.447,0.001 -0.895,0.003 -1.344,0.005c-0.026,-0.288 -0.052,-0.577 -0.079,-0.865" style="fill:#9b2b2b;fill-rule:nonzero;"/><path d="M16.557,27.601c-0.306,0.457 -0.613,0.915 -0.92,1.371c-0.154,-0.003 -0.31,-0.007 -0.464,-0.011c0.148,-0.442 0.296,-0.885 0.443,-1.327c0.314,-0.012 0.627,-0.022 0.941,-0.033" style="fill:#a64242;fill-rule:nonzero;"/><path d="M7.636,5.781c-0.022,0.107 -0.047,0.213 -0.072,0.318c-0.332,-0.019 -0.664,-0.039 -0.995,-0.058c0.102,-0.34 0.204,-0.68 0.305,-1.019c0.254,0.253 0.508,0.507 0.762,0.759" style="fill:#421b14;fill-rule:nonzero;"/><path d="M8.66,26.175c-0.346,-0.437 -0.692,-0.875 -1.038,-1.313c0.021,-0.179 0.041,-0.357 0.06,-0.534l0.219,0.006l0.22,0c0.179,0.45 0.358,0.9 0.536,1.35c0.034,0.154 0.068,0.308 0.102,0.461l-0.099,0.03Z" style="fill:#933f3f;fill-rule:nonzero;"/><path d="M30.542,13.149c0.039,-0.2 0.078,-0.398 0.116,-0.597c0.131,0.648 0.262,1.297 0.394,1.945c-0.171,-0.449 -0.34,-0.899 -0.51,-1.348" style="fill:#362121;fill-rule:nonzero;"/><path d="M30.162,2.78c0.168,-0.16 0.335,-0.321 0.504,-0.481c0.36,0.291 0.721,0.583 1.081,0.874c-0.529,-0.131 -1.057,-0.262 -1.585,-0.393" style="fill:#902b2b;fill-rule:nonzero;"/><path d="M5.954,4.592c-0.67,-0.082 -1.341,-0.164 -2.011,-0.245c0.67,0.081 1.341,0.163 2.011,0.245" style="fill:#421b14;fill-rule:nonzero;"/><path d="M28.292,0.901c-0.128,0.13 -0.256,0.261 -0.384,0.391l-0.095,0.085c-0.133,-0.025 -0.268,-0.05 -0.403,-0.074c-0.021,-0.158 -0.042,-0.314 -0.064,-0.471c-0.015,-0.098 -0.025,-0.195 -0.029,-0.293c0.326,0.12 0.65,0.241 0.975,0.362" style="fill:#ba5757;fill-rule:nonzero;"/><path d="M9.048,5.108c0.149,-0.156 0.299,-0.311 0.449,-0.467c0.169,0.006 0.338,0.011 0.507,0.015c0.002,0.156 0.005,0.313 0.007,0.47c-0.075,0.11 -0.119,0.232 -0.128,0.365c-0.104,0.043 -0.209,0.085 -0.315,0.123c0,0 -0.111,-0.07 -0.11,-0.07c-0.136,-0.145 -0.273,-0.291 -0.41,-0.436" style="fill:#672323;fill-rule:nonzero;"/><path d="M2.95,5.586c0.546,0.657 -0.077,0.736 -0.461,0.934c0.154,-0.312 0.308,-0.623 0.461,-0.934" style="fill:#421b14;fill-rule:nonzero;"/><path d="M28.754,22.471c0.186,0.215 0.372,0.429 0.558,0.645c-0.188,0.245 -0.376,0.49 -0.564,0.735c0,-0.303 0,-0.606 0,-0.91c0.002,-0.157 0.004,-0.314 0.006,-0.47" style="fill:#361810;fill-rule:nonzero;"/><path d="M7.683,24.327c-0.02,0.178 -0.04,0.356 -0.06,0.534c-0.159,-0.153 -0.316,-0.306 -0.473,-0.461c0.013,-0.174 0.025,-0.347 0.037,-0.521c0.008,-0.166 0.015,-0.332 0.023,-0.498c0.146,0.016 0.295,0.028 0.443,0.035c0.009,0.304 0.019,0.608 0.03,0.911" style="fill:#bb5a5a;fill-rule:nonzero;"/><path d="M9.048,5.108c0.137,0.145 0.274,0.291 0.41,0.436c-0.135,0.033 -0.271,0.051 -0.408,0.054c-0.117,0.002 -0.232,0.019 -0.343,0.051l-0.139,-0.084c0.16,-0.152 0.32,-0.305 0.48,-0.457" style="fill:#661717;fill-rule:nonzero;"/><path d="M10.004,4.656c-0.169,-0.004 -0.338,-0.009 -0.507,-0.015c0.166,-0.158 0.332,-0.316 0.498,-0.475c0.159,0.006 0.318,0.012 0.477,0.019l0.006,0.05c0,0.138 -0.001,0.277 -0.003,0.415l-0.471,0.006Z" style="fill:#832929;fill-rule:nonzero;"/><path d="M2.962,4.178c-0.012,0.349 -0.023,0.699 -0.034,1.047c-0.448,-0.363 -0.639,-0.719 0.034,-1.047" style="fill:#421b14;fill-rule:nonzero;"/><path d="M27.317,0.538c0.004,0.099 0.014,0.197 0.029,0.294c-0.299,0.063 -0.599,0.126 -0.899,0.189c-0.011,-0.169 -0.022,-0.338 -0.033,-0.507c0.301,0.009 0.603,0.017 0.903,0.024" style="fill:#962525;fill-rule:nonzero;"/><path d="M9.508,26.226c-0.149,0.168 -0.299,0.336 -0.449,0.504c-0.132,-0.184 -0.265,-0.37 -0.399,-0.555c0,0 0.099,-0.03 0.098,-0.03c0.078,0.035 0.16,0.048 0.246,0.04c0.168,0.014 0.336,0.028 0.504,0.041" style="fill:#673535;fill-rule:nonzero;"/><path d="M27.783,25.178c0.192,-0.264 0.384,-0.527 0.575,-0.79c-0.191,0.263 -0.383,0.526 -0.575,0.79" style="fill:#361810;fill-rule:nonzero;"/><path d="M6.328,22.934c0.13,0.315 0.26,0.63 0.39,0.946c-0.13,-0.316 -0.26,-0.631 -0.39,-0.946" style="fill:#d07b7b;fill-rule:nonzero;"/><path d="M1.551,8.335c-0.157,0.026 -0.314,0.051 -0.472,0.078c0.158,-0.027 0.314,-0.052 0.472,-0.078" style="fill:#4b0505;fill-rule:nonzero;"/><path d="M32.961,5.117c0.031,-0.214 0.063,-0.427 0.094,-0.642c0.14,0.206 0.281,0.414 0.422,0.621c0,0 -0.129,0.074 -0.128,0.074c-0.127,-0.027 -0.257,-0.045 -0.388,-0.053" style="fill:#ba3939;fill-rule:nonzero;"/><path d="M6.847,4.999c-0.2,-0.118 -0.399,-0.237 -0.599,-0.355c0.2,0.118 0.399,0.237 0.599,0.355" style="fill:#421b14;fill-rule:nonzero;"/><path d="M10.472,4.184c-0.159,-0.006 -0.318,-0.012 -0.477,-0.018c0.163,-0.117 0.326,-0.233 0.489,-0.349c0.005,0.122 0.002,0.245 -0.012,0.367" style="fill:#cd4a4a;fill-rule:nonzero;"/><path d="M3.522,4.15l-0.554,0.024l0.554,-0.024Z" style="fill:#421b14;fill-rule:nonzero;"/><path d="M30.185,1.83c-0.17,-0.12 -0.339,-0.241 -0.509,-0.361c0.17,0.121 0.339,0.241 0.509,0.361" style="fill:#ba5757;fill-rule:nonzero;"/><path d="M29.325,1.309c-0.195,-0.093 -0.391,-0.186 -0.585,-0.28c0.194,0.094 0.39,0.187 0.585,0.28" style="fill:#ba5757;fill-rule:nonzero;"/><path d="M19.379,27.153c0.001,0.137 0.003,0.274 0.007,0.411c-0.18,0 -0.361,0 -0.541,-0.002c-0.003,-0.141 0.024,-0.277 0.08,-0.406c0.151,-0.003 0.302,-0.004 0.454,-0.003" style="fill:#422321;fill-rule:nonzero;"/><path d="M26.462,26.312c0.187,-0.167 0.373,-0.335 0.559,-0.501c-0.186,0.167 -0.373,0.334 -0.559,0.501" style="fill:#361810;fill-rule:nonzero;"/><path d="M27.358,25.594l0.351,-0.34l-0.351,0.34Z" style="fill:#361810;fill-rule:nonzero;"/><path d="M28.338,24.41l0.4,-0.536l-0.4,0.536Z" style="fill:#361810;fill-rule:nonzero;"/><path d="M7.187,23.879c-0.012,0.173 -0.024,0.347 -0.037,0.521c-0.144,-0.174 -0.288,-0.349 -0.432,-0.523c0.156,0.001 0.313,0.001 0.469,0.002" style="fill:#d07b7b;fill-rule:nonzero;"/><path d="M6.249,13.581c-0.278,-0.47 -0.555,-0.94 -0.832,-1.41c0.001,0 -0.167,-0.043 -0.166,-0.043c0.954,-1.105 1.909,-2.21 2.864,-3.316c0.63,0.02 1.26,0.039 1.89,0.059c0.64,0.295 1.28,0.589 1.92,0.884c-0.258,0.259 -0.511,0.523 -0.776,0.775c-0.277,0.263 -0.565,0.514 -0.85,0.771c-0.123,0.012 -0.222,-0.034 -0.293,-0.136c-0.658,-0.617 -1.282,-0.695 -1.847,0.12l0.032,-0.034c-0.155,0.192 -0.31,0.385 -0.464,0.578c0.123,0.609 0.245,1.22 0.368,1.83c-0.639,0.529 -1.256,0.556 -1.846,-0.078" style="fill:#9a1c1c;fill-rule:nonzero;"/><path d="M6.704,18.733c-0.016,-0.325 -0.033,-0.651 -0.049,-0.975c0.862,-1.464 0.862,-1.464 2.779,-0.876c0.164,0.474 0.328,0.948 0.491,1.422c-0.286,0.449 -0.573,0.898 -0.859,1.347c-0.311,0.027 -0.623,0.054 -0.935,0.081l-0.92,-0.162c-0.011,-0.147 -0.07,-0.27 -0.177,-0.371l-0.322,-0.454l-0.008,-0.012Z" style="fill:#eed8d8;fill-rule:nonzero;"/><path d="M8.095,13.658c-0.123,-0.61 -0.245,-1.219 -0.368,-1.829c0.154,-0.193 0.309,-0.386 0.464,-0.578l-0.032,0.033c0.615,-0.039 1.231,-0.079 1.847,-0.12c0.072,0.103 0.169,0.148 0.294,0.136c0.104,0.299 0.209,0.597 0.313,0.896c-0.246,0.594 -0.492,1.188 -0.738,1.782c-0.593,-0.106 -1.187,-0.213 -1.78,-0.32" style="fill:#e5d0d0;fill-rule:nonzero;"/><path d="M10.015,16.845c0.96,-0.513 0.442,-2.201 1.864,-2.347c0.182,0.008 0.362,0.017 0.544,0.025c-0.056,0.155 -0.111,0.311 -0.168,0.466c-0.127,0.462 -0.254,0.924 -0.381,1.387c-0.465,1.447 -0.465,1.447 -1.844,0.907c-0.005,-0.146 -0.01,-0.291 -0.015,-0.438" style="fill:#b42929;fill-rule:nonzero;"/><path d="M12.422,14.523c-0.181,-0.008 -0.361,-0.017 -0.543,-0.025l-0.002,-0.469c0.16,-0.309 0.319,-0.617 0.478,-0.926l2.805,-0.472c0.001,0.309 0.002,0.617 0.003,0.926c-0.015,0.347 -0.031,0.694 -0.046,1.042c-0.139,-0.047 -0.28,-0.081 -0.425,-0.102c-0.623,-0.677 -1.253,-0.713 -1.89,-0.018c-0.125,0.022 -0.252,0.036 -0.38,0.044" style="fill:#b53636;fill-rule:nonzero;"/><path d="M12.355,13.103c-0.159,0.309 -0.318,0.617 -0.478,0.926c-0.666,-0.017 -1.333,-0.034 -2.001,-0.05c0.245,-0.594 0.492,-1.189 0.737,-1.784c0.714,0.541 0.838,-0.365 1.269,-0.517c0.155,0.003 0.309,0.007 0.464,0.012c-0.142,0.472 -0.737,0.947 0.009,1.413" style="fill:#c03c3c;fill-rule:nonzero;"/><path d="M10.015,16.845c0.005,0.147 0.01,0.292 0.015,0.438c0.004,0.314 0.008,0.628 0.012,0.942l-0.117,0.079c-0.163,-0.474 -0.327,-0.947 -0.491,-1.421c0.193,-0.013 0.387,-0.025 0.581,-0.038" style="fill:#c73e3e;fill-rule:nonzero;"/><path d="M8.115,8.812c-0.955,1.106 -1.91,2.211 -2.864,3.316c-0.133,-0.304 -0.266,-0.608 -0.399,-0.911c0.411,-0.437 0.823,-0.873 1.188,-1.262c-0.347,-1.334 -2.124,0.368 -2.291,-1.324c0.8,-0.337 1.499,-0.89 2.46,-0.142c0.29,0.225 0.959,-0.041 1.455,-0.083c0.15,0.136 0.301,0.271 0.451,0.406" style="fill:#310807;fill-rule:nonzero;"/><path d="M8.115,8.812c-0.15,-0.135 -0.301,-0.27 -0.451,-0.406c0.322,-0.161 0.644,-0.323 0.966,-0.484c0.458,-0.001 0.916,-0.001 1.375,-0.001c0.328,0.155 0.656,0.309 0.985,0.464c-0.328,0.162 -0.657,0.324 -0.984,0.486c-0.631,-0.02 -1.261,-0.039 -1.891,-0.059" style="fill:#350c01;fill-rule:nonzero;"/><path d="M7.651,6.166l0.433,0.376c-0.141,-0.005 -0.282,-0.008 -0.422,-0.006c-0.006,-0.123 -0.009,-0.247 -0.011,-0.37" style="fill:#421b14;fill-rule:nonzero;"/><path d="M26.417,16.379c0.096,0.579 0.282,1.162 0.267,1.74c-0.025,0.981 -0.178,1.959 -0.278,2.939l0.002,-0.001c-0.156,0.155 -0.312,0.311 -0.468,0.465c-0.155,0.002 -0.31,0.006 -0.465,0.01c-0.156,-0.002 -0.312,-0.002 -0.468,-0.001c-0.312,-0.157 -0.623,-0.314 -0.935,-0.471l-0.01,0.001c-0.156,-0.312 -0.312,-0.624 -0.467,-0.936c-0.427,-0.481 -0.853,-0.962 -1.56,-1.757c-0.166,0.934 -0.24,1.344 -0.313,1.755c0,0.156 0.001,0.312 0.001,0.468c0,0.156 -0.001,0.312 -0.001,0.469c-0.156,0.469 -0.312,0.937 -0.468,1.406c-0.228,0.133 -0.499,0.225 -0.67,0.41c-0.28,0.3 -0.495,0.661 -0.737,0.996l0,-0.938c0.002,-1.559 0.004,-3.118 0.006,-4.677c0.909,-0.008 1.818,-0.043 2.725,-0.016c1.025,0.03 1.874,-0.126 1.949,-1.396c0.627,-0.157 1.254,-0.314 1.881,-0.472l0.009,0.006Z" style="fill:#341c1c;fill-rule:nonzero;"/><path d="M30.15,19.649c-0.312,0.469 -0.625,0.939 -0.938,1.409c-0.778,0.001 -1.556,0.001 -2.335,0.002c0.116,-0.362 0.436,-0.837 0.31,-1.066c-0.493,-0.891 0.224,-1.241 0.628,-1.746c0.781,-0.156 1.561,-0.312 2.341,-0.469c-0.228,0.622 -0.855,1.244 -0.006,1.87" style="fill:#1f0b0b;fill-rule:nonzero;"/><path d="M27.353,14.029c0.719,-1.626 0.825,-1.661 2.805,-0.933c-0.299,0.651 -0.599,1.302 -0.871,1.893c-0.658,-0.327 -1.295,-0.644 -1.934,-0.96" style="fill:#190f0f;fill-rule:nonzero;"/><path d="M26.877,21.06c0.779,-0.001 1.557,-0.002 2.335,-0.002c-0.154,0.314 -0.308,0.628 -0.462,0.942c-1.215,0.707 -2.31,0.578 -3.275,-0.468c0.155,-0.004 0.31,-0.007 0.465,-0.009c0.156,-0.156 0.312,-0.31 0.468,-0.465l-0.002,0c0.158,0 0.314,0.001 0.471,0.002" style="fill:#171010;fill-rule:nonzero;"/><path d="M30.156,17.779c-0.78,0.156 -1.56,0.313 -2.341,0.469c-0.762,-0.89 0.173,-1.018 0.622,-1.204c0.75,-0.311 1.545,-0.433 1.719,0.735" style="fill:#180808;fill-rule:nonzero;"/><path d="M8.132,19.732c0.311,-0.027 0.623,-0.053 0.934,-0.08c0.47,0.157 0.938,0.314 1.408,0.471c0.001,0.156 0.003,0.314 0.004,0.471c-0.475,0.457 -0.951,0.914 -1.426,1.371l-0.914,0.041c-0.162,0.47 -0.324,0.94 -0.486,1.411c-0.147,-0.007 -0.295,-0.019 -0.442,-0.036c-0.244,-0.937 -0.567,-1.862 -0.701,-2.814c-0.084,-0.591 0.12,-1.221 0.195,-1.834l0.007,0.012l0.323,0.454c0.108,0.101 0.166,0.225 0.177,0.372c0.222,0.237 0.443,0.475 0.665,0.713c0.085,-0.184 0.171,-0.368 0.256,-0.552" style="fill:#c83c3c;fill-rule:nonzero;"/><path d="M25.475,21.532c0.965,1.046 2.06,1.175 3.275,0.469c0.001,0.156 0.003,0.313 0.004,0.469c-0.002,0.157 -0.004,0.315 -0.006,0.471c-0.466,0.312 -0.932,0.624 -1.398,0.936c-0.313,-0.157 -0.627,-0.315 -0.942,-0.472c-0.624,0.001 -1.248,0.002 -1.873,0.004l-0.001,-0.006l0,-0.468c0.156,-0.156 0.312,-0.312 0.469,-0.469l0.004,-0.935c0.156,0 0.312,0 0.468,0.001" style="fill:#2c1515;fill-rule:nonzero;"/><path d="M21.725,26.684c-0.16,-0.002 -0.32,-0.004 -0.48,-0.006c-0.153,-0.155 -0.306,-0.31 -0.46,-0.465c0.338,-0.611 1.683,-0.716 0.937,-1.871l0.003,-0.002c0.311,0.001 0.623,0.002 0.934,0.002c0.156,0.312 0.311,0.623 0.467,0.935c0.157,0.157 0.315,0.313 0.473,0.469l-1.874,0.938Z" style="fill:#2a1616;fill-rule:nonzero;"/><path d="M23.126,25.277c-0.156,-0.312 -0.311,-0.623 -0.467,-0.935c0.158,-0.156 0.314,-0.313 0.471,-0.469c0.157,-0.154 0.314,-0.307 0.47,-0.461l0.934,-0.01l0.001,0.007c0.155,1.259 1.148,0.837 1.881,0.937c-0.315,0.155 -0.63,0.31 -0.944,0.464c-0.783,0.156 -1.564,0.311 -2.346,0.467" style="fill:#201212;fill-rule:nonzero;"/><path d="M26.416,24.346c-0.733,-0.101 -1.726,0.321 -1.881,-0.937c0.625,-0.002 1.249,-0.003 1.873,-0.005c0.156,0.312 0.312,0.624 0.467,0.936c-0.153,0.002 -0.306,0.004 -0.459,0.006" style="fill:#161111;fill-rule:nonzero;"/><path d="M23.126,25.277c0.782,-0.156 1.563,-0.311 2.346,-0.467l-1.873,0.936c-0.158,-0.156 -0.316,-0.313 -0.473,-0.469" style="fill:#270e0e;fill-rule:nonzero;"/><path d="M26.875,24.339c-0.155,-0.312 -0.31,-0.623 -0.466,-0.935c0.314,0.158 0.628,0.316 0.942,0.473c-0.159,0.154 -0.317,0.309 -0.476,0.462" style="fill:#201212;fill-rule:nonzero;"/><path d="M26.408,16.373c-0.627,0.158 -1.254,0.315 -1.881,0.472c-0.464,0.155 -0.928,0.31 -1.392,0.464c-0.639,-0.926 -0.942,-2.188 -2.348,-2.345c-0.159,-0.467 -0.317,-0.934 -0.475,-1.402c-0.005,-0.313 -0.009,-0.627 -0.012,-0.94c-0.621,-0.623 -1.242,-1.247 -1.863,-1.87c0,-0.134 -0.004,-0.269 -0.011,-0.403c0.625,-0.032 1.25,-0.063 1.874,-0.096c0.166,-0.01 0.333,-0.021 0.498,-0.033l0.22,0.03l0.22,-0.033c0.47,0.04 0.94,0.08 1.41,0.121c0.007,0.137 0.012,0.273 0.013,0.41c0,0 0.003,0.009 0.003,0.009c-0.507,0.026 -1.012,0.053 -1.671,0.087c0.308,0.547 0.525,0.931 0.741,1.315c-0.056,0.803 0.065,1.518 0.929,1.862c1.248,0.627 2.496,1.254 3.743,1.881c0.001,0.157 0.002,0.315 0.002,0.471" style="fill:#361d1d;fill-rule:nonzero;"/><path d="M26.406,15.902c-1.247,-0.627 -2.495,-1.254 -3.743,-1.88c0.78,-0.309 1.559,-0.618 2.339,-0.927l1.87,-1.412l0.017,0.015c-0.004,0.308 -0.009,0.616 -0.012,0.925c-0.157,1.093 -0.314,2.187 -0.471,3.281l0,-0.002Z" style="fill:#423232;fill-rule:nonzero;"/><path d="M26.406,15.904c0.157,-1.094 0.314,-2.188 0.471,-3.282c-0.157,1.094 -0.314,2.188 -0.471,3.282" style="fill:#361d1d;fill-rule:nonzero;"/><path d="M21.828,2.846c0.137,0.007 0.251,-0.039 0.343,-0.14c0.145,0.012 0.288,0 0.429,-0.036c-0.134,0.621 -0.267,1.242 -0.402,1.863c-0.506,0.36 -1.011,0.72 -1.518,1.08l-0.382,0.471c-0.62,-0.165 -1.239,-0.329 -1.859,-0.493c0.456,-0.737 2.112,-0.383 1.737,-1.871l-2.202,0l-0.002,-0.001c-0.161,-0.296 -0.324,-0.591 -0.486,-0.887c0.138,-0.234 0.275,-0.468 0.413,-0.701c-0.069,-0.096 -0.063,-0.187 0.015,-0.274c0.668,-0.028 1.335,-0.057 2.004,-0.086c0,-0.001 -0.014,0.015 -0.014,0.015c0.135,0.332 0.272,0.665 0.408,0.998c0.138,0.057 0.281,0.078 0.431,0.064c0,0 -0.006,-0.013 -0.006,-0.013c0.363,0.003 0.728,0.007 1.091,0.011" style="fill:#ce4040;fill-rule:nonzero;"/><path d="M15.166,2.317c-1.096,0.466 -2.191,0.933 -3.287,1.399c1.096,-0.466 2.191,-0.933 3.287,-1.399" style="fill:#cd4a4a;fill-rule:nonzero;"/><path d="M16.528,2.324c-0.299,-0.003 -0.599,-0.007 -0.898,-0.011c0.305,-0.457 0.605,-0.511 0.898,0.011" style="fill:#cd4a4a;fill-rule:nonzero;"/><path d="M17.027,2.794c-0.153,-0.146 -0.305,-0.293 -0.458,-0.44c0.136,-0.012 0.273,-0.019 0.41,-0.022l0.037,0.022c0.004,0.147 0.008,0.294 0.011,0.44" style="fill:#cd4a4a;fill-rule:nonzero;"/><path d="M11.243,24.404c-0.258,-0.025 -0.516,-0.05 -0.774,-0.075c0.467,-0.305 0.934,-0.611 1.402,-0.916c0.465,0.006 0.931,0.011 1.396,0.016l1.42,2.319c-0.005,0.477 -0.01,0.955 -0.014,1.434c-0.226,0.393 -0.452,0.787 -0.764,1.331c-0.877,-0.726 -1.495,-1.391 -1.571,-2.488c-0.029,-0.406 -0.331,-0.793 -0.509,-1.189l0.033,0.014l-0.619,-0.446Z" style="fill:#821b1b;fill-rule:nonzero;"/><path d="M16.557,27.601c-0.314,0.011 -0.627,0.021 -0.941,0.033c-0.178,-0.153 -0.356,-0.305 -0.534,-0.457c0.029,-0.467 0.059,-0.934 0.088,-1.4c0.658,0.124 1.316,0.248 1.975,0.372c-0.197,0.484 -0.392,0.968 -0.588,1.452" style="fill:#d9bcbc;fill-rule:nonzero;"/><path d="M15.17,25.777c-0.029,0.466 -0.058,0.934 -0.088,1.4c-0.136,0 -0.272,0.001 -0.409,0.005c0.004,-0.479 0.009,-0.957 0.013,-1.434c0.17,-0.042 0.339,-0.084 0.507,-0.125l-0.023,0.154Z" style="fill:#a64242;fill-rule:nonzero;"/><path d="M11.413,4.655c1.354,0.619 2.159,-0.671 3.259,-0.937c-0.007,0.133 -0.03,0.264 -0.069,0.393c-0.154,0.174 -0.309,0.349 -0.465,0.524c0.016,0.335 0.033,0.669 0.05,1.003c0.147,0.159 0.293,0.319 0.439,0.478c0.177,0.154 0.354,0.307 0.531,0.461l-2.334,0.428c-0.328,-0.324 -0.656,-0.648 -0.984,-0.973c-0.092,-0.078 -0.098,-0.161 -0.016,-0.251c-0.13,-0.217 -0.26,-0.436 -0.389,-0.654l-0.037,0.018c0.003,-0.162 0.007,-0.325 0.01,-0.488l0.005,-0.002Z" style="fill:#c03131;fill-rule:nonzero;"/><path d="M14.603,4.11c0.039,-0.128 0.062,-0.259 0.069,-0.392c0.479,0 0.959,0 1.438,-0.001c0,0.11 -0.001,0.22 -0.001,0.33c-0.475,0.043 -0.95,0.087 -1.425,0.13l-0.081,-0.067Z" style="fill:#cd4a4a;fill-rule:nonzero;"/><path d="M17.042,4.184c0.31,-0.155 0.62,-0.31 0.93,-0.465l0.003,0.001c-0.156,0.312 -0.313,0.624 -0.469,0.936c-0.162,0.003 -0.324,0.006 -0.485,0.009l0.004,0.006c0.005,-0.162 0.011,-0.324 0.017,-0.487" style="fill:#ce4040;fill-rule:nonzero;"/><path d="M10.475,4.65c0.002,-0.139 0.003,-0.278 0.003,-0.416c0.312,0.141 0.623,0.281 0.935,0.421c0,0 -0.005,0.002 -0.005,0.002l-0.933,-0.007Z" style="fill:#a72d2d;fill-rule:nonzero;"/><path d="M17.027,2.794c-0.003,-0.146 -0.007,-0.293 -0.011,-0.44c0.294,-0.075 0.589,-0.149 0.883,-0.223c-0.138,0.233 -0.275,0.467 -0.413,0.701c-0.153,-0.014 -0.306,-0.026 -0.459,-0.038" style="fill:#d05353;fill-rule:nonzero;"/><path d="M17.042,4.184c-0.006,0.163 -0.012,0.325 -0.017,0.487c-0.157,-0.153 -0.313,-0.307 -0.47,-0.461l0.024,-0.1c0.154,0.024 0.308,0.049 0.463,0.074" style="fill:#cd4a4a;fill-rule:nonzero;"/><path d="M16.109,4.046c0,-0.109 0.001,-0.219 0.001,-0.329c0.157,0.131 0.313,0.263 0.469,0.393l-0.024,0.101c-0.149,-0.055 -0.297,-0.11 -0.446,-0.165" style="fill:#c44040;fill-rule:nonzero;"/><path d="M11.871,23.413c-0.468,0.305 -0.935,0.61 -1.402,0.916c-0.334,0.318 -0.669,0.634 -1.003,0.951c-0.14,0.153 -0.279,0.306 -0.418,0.46c-0.132,-0.004 -0.262,-0.023 -0.39,-0.056c-0.179,-0.45 -0.358,-0.899 -0.537,-1.349l0.016,0c0.062,-0.044 0.181,-0.107 0.174,-0.127c-0.04,-0.119 -0.11,-0.227 -0.17,-0.338c0.001,-0.156 0,-0.311 -0.002,-0.466c0.309,-0.314 0.618,-0.627 0.927,-0.941c0.757,-0.264 1.517,-1.198 2.27,0.008l0.545,0.56c-0.004,0.128 -0.008,0.254 -0.01,0.382" style="fill:#9a1e1e;fill-rule:nonzero;"/><path d="M9.048,25.74c0.139,-0.154 0.278,-0.307 0.418,-0.46c0.014,0.315 0.028,0.631 0.042,0.946c-0.168,-0.013 -0.336,-0.027 -0.504,-0.04c0.045,-0.146 0.06,-0.294 0.044,-0.446" style="fill:#933f3f;fill-rule:nonzero;"/><path d="M11.243,24.404l0.619,0.446l-0.619,-0.446Z" style="fill:#8a2727;fill-rule:nonzero;"/><path d="M28.748,3.722c0.411,0.155 0.847,0.264 1.225,0.477c0.414,0.234 0.772,0.565 1.155,0.854c0,0.001 -0.048,0.089 -0.048,0.089c-1.764,-0.784 -1.91,-0.678 -1.841,1.347c-0.006,0.171 -0.01,0.34 -0.016,0.51l-0.009,0.004c-0.585,-0.427 -1.172,-0.856 -1.725,-1.258c0.119,-0.601 0.217,-1.101 0.316,-1.602c0.149,-0.153 0.299,-0.305 0.449,-0.457c0.165,0.012 0.329,0.024 0.494,0.036" style="fill:#b22f2f;fill-rule:nonzero;"/><path d="M32.961,5.117c0.131,0.008 0.261,0.026 0.388,0.053c0.026,0.297 0.053,0.594 0.081,0.891c-1.817,0.376 -1.817,0.376 -1.868,2.788c-0.311,0.007 -0.623,0.013 -0.935,0.02c0.421,-0.62 0.447,-1.236 -0.015,-1.848c0.143,-0.227 0.285,-0.453 0.427,-0.68c-0.016,-0.115 0.023,-0.206 0.116,-0.275c0.138,-0.161 0.278,-0.322 0.416,-0.482c0.463,-0.156 0.926,-0.311 1.39,-0.467" style="fill:#b73636;fill-rule:nonzero;"/><path d="M28.748,3.722c-0.165,-0.012 -0.329,-0.024 -0.494,-0.036c-0.009,-0.596 -0.018,-1.193 -0.027,-1.79l0.112,-0.111c0.154,0.329 0.308,0.658 0.461,0.987c0,0.157 0.001,0.314 0.002,0.47c-0.018,0.16 -0.037,0.32 -0.054,0.48" style="fill:#ba5757;fill-rule:nonzero;"/><path d="M31.571,5.584c-0.138,0.16 -0.277,0.321 -0.416,0.481l-0.074,-0.924c0,0 0.046,-0.087 0.046,-0.088c0.148,0.177 0.297,0.354 0.444,0.531" style="fill:#ba3939;fill-rule:nonzero;"/><path d="M28.802,3.242c-0.001,-0.156 -0.002,-0.313 -0.002,-0.469c0.14,0.005 0.279,0.009 0.419,0.012c-0.139,0.153 -0.278,0.305 -0.417,0.457" style="fill:#b22f2f;fill-rule:nonzero;"/><path d="M22.195,0.905c0.94,-0.127 1.879,-0.255 2.818,-0.382c-0.774,0.281 -1.548,0.562 -2.322,0.843c-0.147,-0.02 -0.29,-0.057 -0.427,-0.112c-0.003,-0.12 -0.026,-0.237 -0.069,-0.349" style="fill:#c14e4e;fill-rule:nonzero;"/><path d="M22.264,1.254c0.138,0.055 0.28,0.093 0.427,0.112c0.017,0.156 0.032,0.312 0.049,0.468c-0.014,0.162 -0.027,0.324 -0.041,0.486c-0.056,0.11 -0.089,0.226 -0.099,0.349c-0.141,0.037 -0.284,0.049 -0.429,0.037c0.031,-0.485 0.062,-0.968 0.093,-1.452" style="fill:#e6b0b0;fill-rule:nonzero;"/><path d="M21.828,2.846c-0.363,-0.004 -0.728,-0.008 -1.091,-0.011c0.363,0.004 0.727,0.008 1.091,0.011" style="fill:#e6b0b0;fill-rule:nonzero;"/><path d="M20.312,2.783c-0.137,-0.332 -0.272,-0.664 -0.408,-0.997c0.149,0.174 0.298,0.349 0.447,0.523c-0.014,0.158 -0.026,0.317 -0.039,0.474" style="fill:#d05353;fill-rule:nonzero;"/><path d="M20.312,2.783c0.013,-0.157 0.025,-0.316 0.039,-0.474c0.131,0.179 0.261,0.359 0.392,0.539c-0.149,0.015 -0.292,-0.007 -0.431,-0.065" style="fill:#e6b0b0;fill-rule:nonzero;"/><path d="M17.145,26.149c-0.659,-0.124 -1.317,-0.248 -1.975,-0.372c0,0 0.023,-0.154 0.023,-0.153c0.584,-0.411 1.167,-0.824 2.181,-1.538c-0.987,-0.342 -1.559,-0.54 -2.131,-0.738c0.137,-0.141 0.275,-0.282 0.412,-0.423c0.458,0.011 0.915,0.022 1.374,0.033c0.162,0.567 0.394,1.125 0.466,1.703c0.072,0.589 0.194,1.027 0.884,1.046c-0.009,0.186 -0.018,0.372 -0.027,0.557c-0.402,-0.038 -0.805,-0.076 -1.207,-0.115" style="fill:#952a2a;fill-rule:nonzero;"/><path d="M18.353,26.265c0.008,-0.186 0.016,-0.372 0.025,-0.558c0.001,0 0.07,0.045 0.07,0.045c0.154,-0.158 0.307,-0.315 0.461,-0.474c0.155,0.001 0.309,0 0.463,-0.005c0.157,0.47 0.316,0.941 0.473,1.411c-0.155,0.157 -0.311,0.313 -0.466,0.469c-0.152,-0.001 -0.303,0 -0.454,0.003c-0.191,-0.297 -0.382,-0.594 -0.572,-0.891" style="fill:#3c2c2c;fill-rule:nonzero;"/><path d="M11.841,6.033c0.327,0.324 0.655,0.648 0.984,0.972c-0.755,0.473 -0.139,0.928 0.017,1.389c-0.009,0.146 -0.013,0.291 -0.011,0.436c-0.614,-0.148 -1.227,-0.297 -1.842,-0.445c-0.328,-0.155 -0.657,-0.309 -0.984,-0.464c-0.398,-0.429 -0.955,-0.814 -0.412,-1.5c0.14,0.047 0.285,0.072 0.433,0.075l0.009,0.013c0.44,0.145 0.879,0.292 1.318,0.437l0.483,-0.924l0.005,0.011Z" style="fill:#991616;fill-rule:nonzero;"/><path d="M10.026,6.496c-0.148,-0.002 -0.293,-0.028 -0.433,-0.075l-0.024,-0.806c0.105,-0.039 0.21,-0.081 0.315,-0.123c0.067,0.055 0.136,0.111 0.204,0.165c-0.02,0.28 -0.041,0.559 -0.062,0.839" style="fill:#c89595;fill-rule:nonzero;"/><path d="M8.707,5.649c0.111,-0.032 0.226,-0.049 0.343,-0.05c-0.115,0.016 -0.229,0.033 -0.343,0.05" style="fill:#631818;fill-rule:nonzero;"/><path d="M30.613,7.021c0.461,0.612 0.435,1.228 0.015,1.848c-0.468,0.003 -0.935,0.007 -1.401,0.011c0,0 -0.015,-0.013 -0.015,-0.012c-0.153,-0.311 -0.306,-0.623 -0.459,-0.933c0.153,-0.311 0.307,-0.621 0.462,-0.932l0.008,-0.004c0.463,0.007 0.926,0.014 1.39,0.022" style="fill:#b22f2f;fill-rule:nonzero;"/><path d="M29.211,9.826c-0.156,0.022 -0.312,0.044 -0.468,0.065c-0.306,-0.025 -0.611,-0.05 -0.917,-0.075c-0.654,-0.311 -1.309,-0.621 -1.962,-0.932l0.11,-0.037c1.028,0.433 1.364,-0.36 1.782,-1.007c0.083,0.912 0.69,1.081 1.456,1.028l0.015,0.012c-0.005,0.315 -0.01,0.631 -0.016,0.946" style="fill:#b22f2f;fill-rule:nonzero;"/><path d="M31.562,8.849c0.051,-2.412 0.051,-2.412 1.868,-2.788c-0.464,0.471 -0.928,0.941 -1.391,1.41c-0.004,0.156 -0.005,0.311 -0.004,0.466c-0.157,0.304 -0.315,0.608 -0.473,0.912" style="fill:#ba3939;fill-rule:nonzero;"/><path d="M27.908,1.292c0.143,0.164 0.287,0.329 0.43,0.493c0.001,0 -0.112,0.111 -0.111,0.111c-0.106,-0.05 -0.214,-0.096 -0.324,-0.138c-0.027,-0.128 -0.057,-0.255 -0.09,-0.381l0.095,-0.085Z" style="fill:#ba5757;fill-rule:nonzero;"/><path d="M19.845,26.684c-0.157,-0.47 -0.316,-0.941 -0.473,-1.411c0.159,-0.466 0.317,-0.934 0.475,-1.401c0.242,-0.335 0.456,-0.696 0.736,-0.996c0.172,-0.184 0.443,-0.277 0.671,-0.41c0.042,0.949 0.722,0.946 1.403,0.94c0.001,0.155 0.001,0.31 0,0.466c-0.311,0.156 -0.622,0.312 -0.932,0.468l-0.003,0.002c-1.479,0.463 -1.584,0.672 -0.937,1.871c0.154,0.155 0.307,0.31 0.46,0.465c-0.309,0.003 -0.618,0.007 -0.928,0.01c-0.158,-0.001 -0.314,-0.003 -0.472,-0.004" style="fill:#2f2323;fill-rule:nonzero;"/><path d="M19.845,26.684c0.158,0.001 0.314,0.003 0.472,0.004l-0.938,0.465c0.155,-0.156 0.311,-0.313 0.466,-0.469" style="fill:#422321;fill-rule:nonzero;"/><path d="M22.6,2.669c0.01,-0.123 0.043,-0.239 0.099,-0.349c0.058,-0.044 0.169,-0.096 0.164,-0.13c-0.02,-0.121 -0.079,-0.238 -0.123,-0.355c-0.016,-0.156 -0.032,-0.312 -0.049,-0.469c0.774,-0.281 1.548,-0.562 2.322,-0.843c0.162,0.021 0.324,0.042 0.486,0.062c-0.167,0.417 -0.336,0.834 -0.504,1.251c-1.398,0.705 -0.816,2.242 -1.384,3.295c-0.009,0.619 -0.017,1.239 -0.026,1.858c-0.177,-0.031 -0.354,-0.063 -0.532,-0.093c0.17,-0.953 0.415,-1.932 -0.854,-2.363c0.134,-0.622 0.267,-1.243 0.401,-1.864" style="fill:#b82f2f;fill-rule:nonzero;"/><path d="M26.872,11.682l-1.87,1.413l-0.001,-0.004c-0.155,-0.155 -0.31,-0.309 -0.464,-0.464c-0.157,-0.002 -0.314,-0.004 -0.471,-0.006c-0.468,-0.621 -0.935,-1.243 -1.401,-1.864l-0.003,-0.009c0.775,-0.14 1.55,-0.281 2.325,-0.422c0.474,0 0.95,0 1.425,-0.002c0.148,0.133 0.296,0.266 0.444,0.399l0.052,0.05c-0.012,0.303 -0.024,0.606 -0.036,0.909" style="fill:#523b3b;fill-rule:nonzero;"/><path d="M26.411,10.325c-0.474,0.001 -0.95,0.001 -1.423,0.001c-0.78,0.004 -1.56,0.008 -2.34,0.012c-0.47,-0.041 -0.94,-0.081 -1.409,-0.122c0.009,-0.13 0.021,-0.262 0.034,-0.392c0.307,-0.005 0.612,-0.009 0.917,-0.014c0.466,-0.153 0.932,-0.306 1.398,-0.458c0.154,-1.246 1.122,-0.871 1.869,-0.938l0.407,0.47c0.654,0.311 1.309,0.621 1.963,0.932c-0.027,0.145 -0.058,0.29 -0.095,0.433l-0.196,-0.007l-0.192,0.03c-0.159,0.006 -0.318,0.013 -0.477,0.019c-0.154,-0.022 -0.306,-0.011 -0.456,0.034" style="fill:#a32020;fill-rule:nonzero;"/><path d="M27.732,10.249c0.037,-0.143 0.068,-0.287 0.094,-0.434c0.306,0.026 0.611,0.051 0.918,0.077c-0.339,0.12 -0.675,0.238 -1.012,0.357" style="fill:#351c1c;fill-rule:nonzero;"/><path d="M26.868,10.291c0.158,-0.006 0.317,-0.013 0.476,-0.019c-0.146,0.167 -0.291,0.333 -0.436,0.501l-0.052,-0.05c0.016,-0.143 0.019,-0.287 0.012,-0.432" style="fill:#523b3b;fill-rule:nonzero;"/><path d="M23.611,5.131c0.569,-1.053 -0.015,-2.591 1.384,-3.295c0.149,0.155 0.299,0.311 0.449,0.467l0.115,0.063c-0.007,0.231 -0.013,0.462 -0.02,0.693c0.124,0.222 0.247,0.444 0.371,0.665c0.188,0.144 0.377,0.288 0.566,0.433c-0.179,0.322 -0.358,0.645 -0.538,0.967l-1.871,0.002c-0.152,0 -0.304,0.001 -0.456,0.005" style="fill:#aa2929;fill-rule:nonzero;"/><path d="M26.447,1.02c0.3,-0.062 0.6,-0.125 0.899,-0.188c0.022,0.157 0.043,0.313 0.064,0.471c0,0.001 -0.107,0.13 -0.107,0.129c-0.268,0.02 -0.534,0.041 -0.802,0.061l-0.11,-0.136c0.033,-0.11 0.052,-0.222 0.056,-0.337" style="fill:#d59797;fill-rule:nonzero;"/><path d="M25.444,2.303c0.096,-0.148 0.193,-0.297 0.289,-0.445c0,-0.001 0.146,0.021 0.146,0.021l0.135,-0.057l-0.455,0.543l-0.115,-0.062Z" style="fill:#ad3333;fill-rule:nonzero;"/><path d="M25.733,1.857c0.22,-0.167 0.439,-0.333 0.658,-0.5c0,0 0.11,0.137 0.109,0.136c-0.162,0.109 -0.324,0.219 -0.486,0.329l-0.135,0.057l-0.146,-0.022Z" style="fill:#d59797;fill-rule:nonzero;"/><path d="M8.139,23.404c0.002,0.155 0.003,0.311 0.002,0.466c-0.008,0.155 -0.009,0.31 -0.004,0.464l-0.015,0.001l-0.22,0l-0.22,-0.008c-0.01,-0.303 -0.02,-0.607 -0.029,-0.911c0.16,-0.469 0.322,-0.94 0.484,-1.41c0,0.466 0.001,0.932 0.002,1.398" style="fill:#ad3434;fill-rule:nonzero;"/><path d="M9.048,25.74c0.016,0.152 0.001,0.3 -0.044,0.446c-0.086,0.007 -0.168,-0.006 -0.246,-0.041c-0.033,-0.154 -0.067,-0.307 -0.101,-0.46c0.128,0.032 0.259,0.051 0.391,0.055" style="fill:#6f3030;fill-rule:nonzero;"/><path d="M27.813,1.377c0.033,0.126 0.063,0.253 0.089,0.382c0,0 -0.131,0.118 -0.131,0.118c-0.156,-0.148 -0.313,-0.296 -0.469,-0.444c0,0 0.108,-0.13 0.108,-0.13c0.135,0.024 0.269,0.048 0.403,0.074" style="fill:#d59797;fill-rule:nonzero;"/><path d="M10.475,4.65l0.933,0.007c-0.003,0.163 -0.007,0.326 -0.01,0.489c-0.303,0.005 -0.605,0.011 -0.908,0.017c-0.16,-0.012 -0.319,-0.025 -0.479,-0.037c-0.002,-0.157 -0.004,-0.313 -0.007,-0.469l0.471,-0.007Z" style="fill:#a45757;fill-rule:nonzero;"/><path d="M10.011,5.126c0.16,0.013 0.319,0.025 0.479,0.037c-0.135,0.165 -0.269,0.33 -0.402,0.494c-0.068,-0.055 -0.136,-0.11 -0.204,-0.166c0.009,-0.133 0.051,-0.255 0.127,-0.365" style="fill:#c89595;fill-rule:nonzero;"/><path d="M10.99,8.385c0.613,0.148 1.227,0.297 1.841,0.445c1.113,0.289 2.226,0.578 3.339,0.866c0.28,0.043 0.559,0.087 0.838,0.13c0.031,0.14 0.071,0.276 0.12,0.411l-1.967,0.045c-0.614,-0.036 -1.227,-0.07 -1.841,-0.105c-0.139,0.021 -0.278,0.016 -0.416,-0.012c-0.327,-0.137 -0.652,-0.273 -0.979,-0.41c-0.64,-0.295 -1.28,-0.589 -1.919,-0.884c0.327,-0.162 0.656,-0.324 0.984,-0.486" style="fill:#310806;fill-rule:nonzero;"/><path d="M11.925,9.755c0.327,0.137 0.652,0.273 0.979,0.41c-0.34,0.505 -0.681,1.01 -1.022,1.513c-0.431,0.152 -0.556,1.058 -1.269,0.517c-0.104,-0.298 -0.208,-0.596 -0.313,-0.894c0.284,-0.257 0.572,-0.508 0.849,-0.771c0.264,-0.252 0.518,-0.516 0.776,-0.775" style="fill:#993535;fill-rule:nonzero;"/><path d="M10.006,11.165c-0.616,0.039 -1.232,0.079 -1.847,0.12c0.565,-0.816 1.188,-0.737 1.847,-0.12" style="fill:#993535;fill-rule:nonzero;"/><path d="M8.191,11.251c-0.155,0.192 -0.31,0.385 -0.464,0.578c0.154,-0.193 0.309,-0.386 0.464,-0.578" style="fill:#993535;fill-rule:nonzero;"/><path d="M10.474,20.122c-0.47,-0.156 -0.938,-0.313 -1.408,-0.471c0.287,-0.449 0.573,-0.898 0.86,-1.347c0,0 0.117,-0.08 0.116,-0.08c0.144,0.32 0.288,0.64 0.432,0.96c0.002,0.161 0.004,0.321 0.007,0.482c-0.006,0.152 -0.009,0.304 -0.007,0.456" style="fill:#c73e3e;fill-rule:nonzero;"/><path d="M8.132,19.732c-0.085,0.184 -0.171,0.368 -0.256,0.552c-0.222,-0.238 -0.443,-0.476 -0.665,-0.713l0.921,0.161Z" style="fill:#d53535;fill-rule:nonzero;"/><path d="M7.034,19.199l-0.323,-0.454l0.323,0.454Z" style="fill:#d16060;fill-rule:nonzero;"/><path d="M10.474,19.184c-0.144,-0.32 -0.288,-0.64 -0.432,-0.959c-0.004,-0.314 -0.008,-0.628 -0.011,-0.942c1.378,0.54 1.378,0.54 1.843,-0.908c0.143,0.001 0.287,0.001 0.429,0.002l0.53,0.537c0.209,0.114 0.417,0.228 0.625,0.341l0.126,-0.059l0.127,0.057c-0.142,0.488 -0.284,0.975 -0.425,1.462l0,0.002c-0.469,-0.124 -0.938,-0.749 -1.406,0c-0.469,0.156 -0.937,0.312 -1.406,0.467" style="fill:#c73939;fill-rule:nonzero;"/><path d="M12.303,16.377c-0.142,0 -0.286,-0.001 -0.429,-0.001c0.127,-0.463 0.255,-0.925 0.382,-1.387c0.085,-0.012 0.164,-0.037 0.24,-0.077c-0.064,0.488 -0.128,0.976 -0.193,1.465" style="fill:#c33f3f;fill-rule:nonzero;"/><path d="M12.423,14.523c0.127,-0.008 0.254,-0.022 0.379,-0.044c0,0 0.074,0.097 0.074,0.096c-0.127,0.113 -0.254,0.225 -0.38,0.337c-0.075,0.039 -0.155,0.065 -0.24,0.077c0.056,-0.155 0.111,-0.311 0.167,-0.466" style="fill:#e5c6c6;fill-rule:nonzero;"/><path d="M13.286,18.716c0.141,-0.488 0.283,-0.975 0.425,-1.462l-0.003,0.016c0.327,-0.144 0.655,-0.287 0.981,-0.43c0.04,-0.107 0.066,-0.216 0.077,-0.329c0.116,-0.638 0.233,-1.275 0.35,-1.912c0.016,-0.348 0.031,-0.695 0.047,-1.042c1.441,-0.196 1.881,0.853 2.338,1.88c0.157,0.624 0.313,1.248 0.47,1.872c-1.608,-0.09 -2.92,0.412 -3.748,1.878c-0.156,0 -0.312,0 -0.469,0c-0.156,-0.158 -0.312,-0.315 -0.468,-0.471" style="fill:#bf3333;fill-rule:nonzero;"/><path d="M12.355,13.103c-0.746,-0.466 -0.151,-0.941 -0.009,-1.413c0.958,-0.001 1.916,-0.003 2.873,-0.004c0.303,0.156 0.606,0.312 0.908,0.469c-0.006,0.136 -0.003,0.273 0.007,0.41l-0.973,0.066l-2.806,0.472Z" style="fill:#c84848;fill-rule:nonzero;"/><path d="M15.161,12.631l0.973,-0.066c0.434,0.361 0.868,0.721 1.302,1.081c0.319,0.462 0.638,0.924 0.957,1.386c-0.007,0.139 0.018,0.273 0.076,0.401c-0.032,0.16 -0.062,0.321 -0.094,0.481c-0.291,-0.159 -0.582,-0.318 -0.874,-0.477c-0.457,-1.027 -0.897,-2.076 -2.338,-1.881c-0.001,-0.308 -0.002,-0.617 -0.002,-0.925" style="fill:#b24141;fill-rule:nonzero;"/><path d="M12.802,14.479c0.638,-0.695 1.267,-0.659 1.891,0.018l-0.094,0.093c-0.574,-0.004 -1.149,-0.009 -1.722,-0.014l-0.075,-0.097Z" style="fill:#e5c6c6;fill-rule:nonzero;"/><path d="M15.117,14.599c-0.117,0.637 -0.234,1.275 -0.351,1.912c-0.056,-0.64 -0.111,-1.28 -0.166,-1.921l0.093,-0.093c0.144,0.021 0.285,0.055 0.424,0.102" style="fill:#e5c6c6;fill-rule:nonzero;"/><path d="M15.219,11.686c-0.957,0.002 -1.915,0.003 -2.873,0.005c-0.155,-0.006 -0.309,-0.009 -0.464,-0.012c0.341,-0.504 0.681,-1.008 1.022,-1.513c0.139,0.027 0.277,0.031 0.416,0.011c0.633,0.503 1.266,1.006 1.899,1.509" style="fill:#b05454;fill-rule:nonzero;"/><path d="M22.657,23.406c-0.681,0.006 -1.361,0.009 -1.403,-0.94c0.156,-0.469 0.312,-0.937 0.468,-1.406c0.78,0 1.56,0 2.34,0.001l0.01,-0.001c-0.156,0.468 -0.312,0.936 -0.469,1.404c-0.002,0.157 -0.004,0.314 -0.006,0.471l0,-0.001c-0.314,0.157 -0.627,0.314 -0.94,0.472" style="fill:#3a2c2c;fill-rule:nonzero;"/><path d="M23.135,17.309c0.464,-0.154 0.928,-0.309 1.392,-0.464c-0.075,1.27 -0.924,1.427 -1.949,1.396c-0.907,-0.027 -1.816,0.008 -2.725,0.016c-0.004,-0.158 -0.008,-0.316 -0.012,-0.474l3.294,-0.474Z" style="fill:#1b1414;fill-rule:nonzero;"/><path d="M19.842,17.783c0.003,0.158 0.007,0.316 0.011,0.474c-0.002,1.559 -0.004,3.118 -0.005,4.677c-0.174,-0.004 -0.348,-0.008 -0.522,-0.011c0.007,-0.915 0.014,-1.827 0.021,-2.742c0.012,-0.801 0.024,-1.602 0.036,-2.403c0.153,0.002 0.306,0.003 0.459,0.005" style="fill:#1f0707;fill-rule:nonzero;"/><path d="M21.722,20.122c0.073,-0.41 0.147,-0.819 0.313,-1.754c0.707,0.796 1.133,1.277 1.56,1.757c-0.468,-0.001 -0.937,-0.002 -1.405,-0.003c-0.156,0 -0.312,0 -0.468,0" style="fill:#392525;fill-rule:nonzero;"/><path d="M22.19,20.123c0.468,0.001 0.937,0.001 1.405,0.002c0.155,0.312 0.311,0.623 0.467,0.935c-0.78,0 -1.56,0 -2.34,0c0,-0.156 0.001,-0.312 0.001,-0.468c0.156,-0.156 0.312,-0.313 0.467,-0.469" style="fill:#422b2b;fill-rule:nonzero;"/><path d="M19.326,22.922c0.173,0.004 0.348,0.008 0.521,0.011l0,0.939c-0.158,0.467 -0.316,0.934 -0.475,1.401c-0.154,0.005 -0.309,0.006 -0.463,0.006l-0.039,-1.46c0.014,-0.15 0.008,-0.297 -0.017,-0.445c0.067,-0.115 0.099,-0.24 0.096,-0.373c0.123,-0.038 0.249,-0.064 0.377,-0.079" style="fill:#341212;fill-rule:nonzero;"/><path d="M23.603,22.464c0.157,-0.468 0.313,-0.936 0.469,-1.404c0.312,0.157 0.623,0.314 0.935,0.471l-0.004,0.935l-1.4,-0.002Z" style="fill:#311d1d;fill-rule:nonzero;"/><path d="M26.408,21.057c-0.156,0.156 -0.312,0.311 -0.468,0.465c0.156,-0.154 0.312,-0.309 0.468,-0.465" style="fill:#250d0d;fill-rule:nonzero;"/><path d="M22.19,20.123c-0.155,0.156 -0.311,0.313 -0.467,0.469c0,-0.157 -0.001,-0.313 -0.001,-0.469c0.156,0 0.312,0 0.468,0" style="fill:#3a2c2c;fill-rule:nonzero;"/><path d="M13.754,19.186c0.157,0 0.313,0.001 0.469,0.001c0.013,0.734 0.026,1.456 -1.078,1.253c-0.071,-0.012 -0.21,0.345 -0.315,0.53l-1.328,0.229l-1.024,-0.605c-0.001,-0.157 -0.003,-0.314 -0.004,-0.472c-0.002,-0.152 0.001,-0.304 0.007,-0.457c1.091,-0.16 2.182,-0.319 3.273,-0.479" style="fill:#b03a3a;fill-rule:nonzero;"/><path d="M10.478,20.593l1.024,0.606c-0.055,0.424 -0.111,0.848 -0.166,1.272c-0.753,-1.206 -1.513,-0.272 -2.271,-0.007c-0.004,-0.167 -0.009,-0.332 -0.013,-0.499c0.475,-0.457 0.951,-0.914 1.426,-1.372" style="fill:#992424;fill-rule:nonzero;"/><path d="M9.052,21.965c0.005,0.167 0.009,0.333 0.014,0.499c-0.31,0.314 -0.618,0.626 -0.927,0.94c-0.001,-0.466 -0.002,-0.932 -0.002,-1.398l0.915,-0.041Z" style="fill:#9f2525;fill-rule:nonzero;"/><path d="M23.603,22.464l1.4,0.002c-0.157,0.156 -0.313,0.312 -0.469,0.469c-0.313,0 -0.625,0 -0.937,-0.001c0.002,-0.157 0.004,-0.314 0.006,-0.47" style="fill:#341c1c;fill-rule:nonzero;"/><path d="M23.597,22.934c0.312,0 0.624,0 0.937,0l0,0.468l-0.934,0.01c-0.001,-0.16 -0.002,-0.319 -0.003,-0.478l0,0Z" style="fill:#311d1d;fill-rule:nonzero;"/><path d="M20.785,26.213c-0.647,-1.199 -0.542,-1.408 0.937,-1.87c0.746,1.154 -0.599,1.26 -0.937,1.87" style="fill:#311d1d;fill-rule:nonzero;"/><path d="M21.725,24.341c0.31,-0.156 0.621,-0.313 0.932,-0.469c0.158,0.001 0.316,0.001 0.473,0.001c-0.157,0.156 -0.313,0.312 -0.471,0.469c-0.311,-0.001 -0.623,-0.001 -0.934,-0.001" style="fill:#311d1d;fill-rule:nonzero;"/><path d="M23.13,23.873c-0.157,0 -0.315,0 -0.473,0c0.001,-0.156 0.001,-0.312 0,-0.468c0.313,-0.156 0.626,-0.314 0.94,-0.471c0.001,0.159 0.002,0.318 0.003,0.478c-0.156,0.154 -0.313,0.308 -0.47,0.461" style="fill:#341c1c;fill-rule:nonzero;"/><path d="M17.436,13.647c-0.434,-0.361 -0.868,-0.721 -1.302,-1.082c-0.01,-0.137 -0.012,-0.273 -0.006,-0.411c0.704,-0.048 1.409,-0.097 2.113,-0.147c0.008,-0.141 0.017,-0.284 0.026,-0.426c-1.035,-0.434 -2.071,-0.867 -3.106,-1.299c0.655,-0.015 1.311,-0.03 1.966,-0.045c0.132,-0.012 0.258,0.012 0.377,0.072c0.311,0.148 0.622,0.295 0.933,0.444c0.621,0.622 1.242,1.245 1.863,1.869c-1.028,-0.034 -2.03,0.017 -2.756,0.903l-0.108,0.122Z" style="fill:#270808;fill-rule:nonzero;"/><path d="M19.842,17.783c-0.153,-0.002 -0.306,-0.003 -0.459,-0.005c-0.132,-0.002 -0.265,-0.008 -0.397,-0.016c-0.006,-0.156 -0.013,-0.313 -0.019,-0.469c0.053,-0.046 0.159,-0.113 0.15,-0.135c-0.044,-0.113 -0.118,-0.215 -0.182,-0.321l-0.037,0.021c0.025,-0.163 0.051,-0.325 0.076,-0.489c0.616,-0.028 1.234,-0.055 1.852,-0.083c-0.205,-0.527 -0.358,-0.923 -0.512,-1.317c0.158,-0.002 0.316,-0.004 0.473,-0.005c1.407,0.158 1.71,1.419 2.348,2.346c-1.097,0.157 -2.195,0.315 -3.293,0.473" style="fill:#200e0e;fill-rule:nonzero;"/><path d="M17.009,9.827c-0.28,-0.044 -0.559,-0.088 -0.839,-0.131c0.749,-0.255 1.499,-0.51 2.249,-0.766c0.48,-0.008 0.96,-0.016 1.441,-0.024c0.147,0.449 0.293,0.898 0.441,1.348c-0.625,0.031 -1.249,0.063 -1.874,0.094l0.016,-0.151c-0.478,-0.123 -0.956,-0.246 -1.434,-0.37" style="fill:#c95050;fill-rule:nonzero;"/><path d="M24.065,12.621c0.158,0.002 0.315,0.004 0.471,0.006c0.155,0.155 0.309,0.309 0.465,0.464l0.001,0.004c-0.78,0.309 -1.559,0.618 -2.339,0.927c-0.863,-0.345 -0.985,-1.06 -0.929,-1.863c0.777,0.154 1.554,0.308 2.331,0.462" style="fill:#3d3232;fill-rule:nonzero;"/><path d="M20.787,14.964c-0.157,0.001 -0.316,0.003 -0.473,0.004c-0.65,-0.268 -1.31,-0.85 -1.921,0.063c-0.319,-0.461 -0.638,-0.923 -0.957,-1.384c0,0 0.108,-0.121 0.107,-0.121c0.922,0.012 1.845,0.024 2.769,0.036c0.158,0.467 0.316,0.934 0.475,1.402" style="fill:#2e0d0b;fill-rule:nonzero;"/><path d="M24.065,12.621c-0.777,-0.154 -1.554,-0.308 -2.331,-0.462c-0.216,-0.384 -0.433,-0.768 -0.741,-1.315c0.659,-0.035 1.164,-0.061 1.671,-0.087c0.467,0.621 0.934,1.243 1.401,1.864" style="fill:#423232;fill-rule:nonzero;"/><path d="M20.312,13.562c-0.923,-0.012 -1.847,-0.024 -2.768,-0.036c0.726,-0.887 1.728,-0.938 2.756,-0.904c0.004,0.313 0.007,0.627 0.012,0.94" style="fill:#180808;fill-rule:nonzero;"/><path d="M20.301,10.254c-0.147,-0.45 -0.294,-0.899 -0.441,-1.348c0.127,-0.183 0.253,-0.366 0.379,-0.549l0.135,0.086c0.135,0.143 0.272,0.287 0.409,0.431c0.157,0.001 0.314,0.003 0.47,0.004c0.156,0.154 0.312,0.308 0.468,0.461c0.156,0.003 0.313,0.006 0.47,0.008l0,0.463c-0.306,0.006 -0.611,0.009 -0.917,0.014c-0.159,0.132 -0.318,0.264 -0.476,0.396c-0.166,0.011 -0.331,0.022 -0.497,0.034" style="fill:#c03131;fill-rule:nonzero;"/><path d="M22.648,10.338c0.78,-0.004 1.559,-0.008 2.339,-0.011c-0.775,0.14 -1.55,0.281 -2.325,0.421c-0.002,-0.137 -0.006,-0.274 -0.014,-0.41" style="fill:#472626;fill-rule:nonzero;"/><path d="M18.437,10.752c-0.311,-0.147 -0.622,-0.295 -0.933,-0.443c0.313,-0.037 0.626,-0.074 0.94,-0.111c0,-0.001 -0.018,0.15 -0.018,0.15c0.007,0.135 0.011,0.269 0.011,0.404" style="fill:#310806;fill-rule:nonzero;"/><path d="M20.798,10.22c0.158,-0.132 0.317,-0.264 0.476,-0.396c-0.014,0.13 -0.025,0.262 -0.036,0.393c0,-0.001 -0.219,0.033 -0.219,0.033l-0.221,-0.03Z" style="fill:#be2b2b;fill-rule:nonzero;"/><path d="M22.199,4.533c1.269,0.431 1.024,1.41 0.854,2.362c0,0 0.001,-0.002 0.001,-0.001c-0.604,0.052 -1.209,0.103 -1.814,0.154l-0.04,-0.018c-0.15,-0.164 -0.3,-0.327 -0.45,-0.491c-0.024,-0.309 -0.046,-0.617 -0.069,-0.927c0.505,-0.36 1.011,-0.719 1.518,-1.079" style="fill:#e4bfbf;fill-rule:nonzero;"/><path d="M17.506,4.656c0.156,-0.312 0.313,-0.624 0.469,-0.936l2.202,0c0.375,1.488 -1.282,1.134 -1.738,1.871c-0.303,-0.149 -0.607,-0.299 -0.911,-0.448c-0.007,-0.163 -0.015,-0.325 -0.022,-0.487" style="fill:#c44040;fill-rule:nonzero;"/><path d="M17.529,5.143c0.303,0.149 0.607,0.299 0.91,0.448c0.62,0.164 1.239,0.328 1.859,0.493c0.006,0.147 0.012,0.295 0.018,0.443c0,0.157 -0.001,0.315 -0.002,0.472l0.002,0c-0.153,0.001 -0.307,0 -0.461,-0.004c-0.172,0.013 -0.343,0.028 -0.516,0.041l0.029,-0.021c-0.625,-0.32 -1.251,-0.64 -1.875,-0.96c0.012,-0.304 0.023,-0.608 0.036,-0.912" style="fill:#c03131;fill-rule:nonzero;"/><path d="M20.316,6.527c-0.007,-0.148 -0.013,-0.296 -0.018,-0.443c0.128,-0.157 0.254,-0.315 0.382,-0.471c0.024,0.309 0.046,0.617 0.07,0.926c-0.144,-0.003 -0.29,-0.008 -0.434,-0.012" style="fill:#cf4343;fill-rule:nonzero;"/><path d="M15.655,22.925c-0.137,0.141 -0.274,0.281 -0.412,0.422c0.572,0.199 1.145,0.397 2.13,0.739c-1.013,0.715 -1.596,1.127 -2.18,1.538c-0.169,0.041 -0.337,0.082 -0.506,0.124c-0.473,-0.773 -0.947,-1.546 -1.419,-2.318c0.16,-0.168 0.321,-0.336 0.481,-0.504c0.004,-0.465 0.008,-0.93 0.012,-1.396c0.308,0.002 0.616,0.004 0.924,0.007c0.151,0.165 0.302,0.33 0.453,0.496c0.113,0.131 0.226,0.264 0.339,0.396c0.06,0.166 0.119,0.331 0.178,0.496" style="fill:#8a2727;fill-rule:nonzero;"/><path d="M13.749,22.926c-0.16,0.168 -0.321,0.335 -0.481,0.503c-0.466,-0.005 -0.932,-0.01 -1.397,-0.016c0.002,-0.128 0.006,-0.255 0.01,-0.381c0.46,-0.036 0.92,-0.072 1.382,-0.107c0.162,0.001 0.324,0.001 0.486,0.001" style="fill:#952a2a;fill-rule:nonzero;"/><path d="M17.493,6.055c0.624,0.319 1.25,0.64 1.875,0.96c-0.256,0.022 -0.513,0.044 -0.768,0.067c-0.834,1.215 -1.81,1.611 -3.312,1.027c-0.677,-0.262 -1.623,0.169 -2.446,0.285c-0.156,-0.461 -0.772,-0.916 -0.018,-1.389l2.334,-0.429l0.026,-0.092c0.293,0.008 0.587,0.017 0.881,0.025c0.305,-0.176 0.61,-0.353 0.915,-0.53l-0.019,0.011l0.532,0.065Z" style="fill:#c22828;fill-rule:nonzero;"/><path d="M10.088,5.657c0.133,-0.165 0.267,-0.329 0.401,-0.494c0.303,-0.006 0.606,-0.012 0.909,-0.018l0.037,-0.018c0.13,0.218 0.259,0.436 0.388,0.655c-0.081,0.089 -0.075,0.172 0.018,0.25c0,0 -0.005,-0.01 -0.004,-0.01c-0.155,0.162 -0.311,0.323 -0.467,0.483c-0.445,0.001 -0.89,0.003 -1.335,0.003l-0.009,-0.012c0.021,-0.279 0.042,-0.559 0.062,-0.839" style="fill:#dcc0c0;fill-rule:nonzero;"/><path d="M14.188,5.638c-0.017,-0.334 -0.034,-0.669 -0.05,-1.003l0.144,0.046c-0.012,0.299 -0.023,0.597 -0.035,0.895l-0.059,0.062Z" style="fill:#c13838;fill-rule:nonzero;"/><path d="M15.158,6.576c-0.177,-0.153 -0.354,-0.306 -0.531,-0.459c0,0 0.057,-0.045 0.056,-0.045l0.501,0.412l-0.026,0.092Z" style="fill:#c13838;fill-rule:nonzero;"/><path d="M14.627,6.116c-0.146,-0.159 -0.293,-0.318 -0.439,-0.478c0,0.001 0.059,-0.062 0.059,-0.062c0.146,0.165 0.291,0.331 0.437,0.496l-0.057,0.044Z" style="fill:#c13838;fill-rule:nonzero;"/><path d="M11.824,5.781c-0.13,-0.218 -0.26,-0.436 -0.389,-0.654c0.129,0.219 0.259,0.436 0.389,0.654" style="fill:#c13838;fill-rule:nonzero;"/><path d="M14.138,4.635c0.155,-0.175 0.311,-0.349 0.465,-0.524c0,-0.001 0.081,0.066 0.081,0.066c-0.134,0.168 -0.268,0.336 -0.402,0.504l-0.144,-0.046Z" style="fill:#cd4a4a;fill-rule:nonzero;"/><path d="M14.282,4.682c0.135,-0.168 0.267,-0.336 0.402,-0.504c0.475,-0.044 0.95,-0.088 1.425,-0.132c0.149,0.055 0.297,0.11 0.445,0.165c0.157,0.153 0.314,0.306 0.47,0.46l-0.003,-0.006c-0.021,0.441 -0.04,0.884 -0.06,1.325c0,0 0.02,-0.011 0.02,-0.01c-0.306,0.177 -0.611,0.353 -0.917,0.53c-0.294,-0.009 -0.586,-0.017 -0.88,-0.026l-0.501,-0.412c-0.145,-0.165 -0.29,-0.33 -0.436,-0.496c0.012,-0.298 0.023,-0.596 0.035,-0.894" style="fill:#e7c0c0;fill-rule:nonzero;"/><path d="M16.961,5.99c0.019,-0.442 0.04,-0.883 0.06,-1.325c0.161,-0.003 0.323,-0.005 0.485,-0.008c0.007,0.162 0.014,0.324 0.022,0.486l-0.035,0.912l-0.532,-0.065Z" style="fill:#cd4a4a;fill-rule:nonzero;"/><path d="M13.262,22.925c-0.46,0.035 -0.921,0.071 -1.381,0.107l-0.545,-0.561c0.055,-0.424 0.111,-0.848 0.166,-1.272l1.328,-0.228c0.083,0.104 0.192,0.153 0.325,0.148c0.036,0.602 0.071,1.204 0.107,1.806" style="fill:#dec8c8;fill-rule:nonzero;"/><path d="M8.138,24.334c-0.006,-0.155 -0.005,-0.309 0.003,-0.464c0.06,0.112 0.13,0.22 0.17,0.338c0.007,0.02 -0.112,0.083 -0.173,0.126" style="fill:#9f2525;fill-rule:nonzero;"/><path d="M23.611,5.131c0.152,-0.004 0.304,-0.005 0.456,-0.005c0.936,1.124 0.936,1.124 1.871,-0.002c0.18,-0.322 0.359,-0.645 0.538,-0.967c0.141,-0.015 0.276,0.008 0.404,0.067c0.154,-0.001 0.309,-0.001 0.463,-0.003c0.155,-0.026 0.309,-0.052 0.462,-0.079c-0.099,0.501 -0.197,1.002 -0.315,1.602c0.552,0.403 1.138,0.831 1.725,1.26c-0.155,0.31 -0.309,0.62 -0.463,0.93c-0.341,-0.123 -0.683,-0.248 -1.023,-0.372l0.022,0c-0.156,-0.175 -0.315,-0.35 -0.473,-0.525l0.04,0.036c-0.448,-0.705 -0.902,-0.705 -1.359,-0.009c0.005,0.594 0.01,1.189 0.014,1.783l-0.109,0.037c-0.136,-0.157 -0.271,-0.314 -0.407,-0.47c0.174,-1.524 -0.878,-1.436 -1.872,-1.425c0.009,-0.619 0.017,-1.239 0.026,-1.858" style="fill:#ae2424;fill-rule:nonzero;"/><path d="M31.081,5.142l0.075,0.924c-0.093,0.069 -0.132,0.16 -0.117,0.276c-0.6,0.05 -1.2,0.099 -1.8,0.147c-0.069,-2.025 0.077,-2.131 1.842,-1.347" style="fill:#dbb0b0;fill-rule:nonzero;"/><path d="M27.805,4.143c-0.154,0.026 -0.307,0.052 -0.462,0.078c-0.154,-0.042 -0.308,-0.041 -0.463,0.003c-0.128,-0.059 -0.263,-0.081 -0.404,-0.067c-0.188,-0.145 -0.377,-0.289 -0.565,-0.434c-0.022,-0.154 -0.018,-0.308 0.009,-0.462c0.971,0.012 1.827,-0.13 1.851,-1.384l0.132,-0.118c0.109,0.041 0.218,0.087 0.324,0.137c0.009,0.597 0.018,1.194 0.027,1.79c-0.15,0.152 -0.3,0.304 -0.449,0.457" style="fill:#d59797;fill-rule:nonzero;"/><path d="M29.239,6.49c0.6,-0.049 1.2,-0.098 1.8,-0.148c-0.142,0.226 -0.284,0.452 -0.426,0.679c-0.464,-0.008 -0.927,-0.015 -1.389,-0.022c0.004,-0.17 0.009,-0.339 0.015,-0.509" style="fill:#ba3939;fill-rule:nonzero;"/><path d="M22.74,1.835c0.045,0.117 0.103,0.234 0.123,0.355c0.006,0.034 -0.107,0.086 -0.164,0.129c0.014,-0.161 0.027,-0.323 0.041,-0.484" style="fill:#c14e4e;fill-rule:nonzero;"/><path d="M18.852,23.374c0.026,0.147 0.032,0.295 0.018,0.444c-0.14,0.645 -0.282,1.29 -0.422,1.934c0,0 -0.069,-0.044 -0.07,-0.044c-0.689,-0.021 -0.811,-0.459 -0.883,-1.047c-0.072,-0.579 -0.304,-1.136 -0.466,-1.704c0.013,-0.141 0.038,-0.279 0.078,-0.416c0.297,-0.342 0.595,-0.684 0.892,-1.026c0.147,0.006 0.294,0.011 0.44,0.014c0.138,0.615 0.275,1.23 0.413,1.845" style="fill:#b04545;fill-rule:nonzero;"/><path d="M17.107,22.542c-0.04,0.136 -0.066,0.274 -0.078,0.416c-0.459,-0.011 -0.916,-0.022 -1.374,-0.033c-0.06,-0.165 -0.119,-0.331 -0.178,-0.496l0.117,-0.019l0.118,0.015c0.441,0.015 0.884,0.031 1.327,0.046l0.068,0.071Z" style="fill:#bf4e4e;fill-rule:nonzero;"/><path d="M18.448,25.752c0.14,-0.644 0.282,-1.289 0.422,-1.933c0.013,0.486 0.026,0.973 0.039,1.459c-0.154,0.159 -0.307,0.317 -0.461,0.474" style="fill:#521f1f;fill-rule:nonzero;"/><path d="M12.842,8.394c0.823,-0.116 1.769,-0.547 2.446,-0.285c1.502,0.585 2.478,0.188 3.312,-1.028l-0.18,1.849c-0.75,0.256 -1.5,0.511 -2.25,0.766c-1.113,-0.288 -2.226,-0.577 -3.339,-0.865c-0.002,-0.146 0.002,-0.291 0.011,-0.437" style="fill:#c03131;fill-rule:nonzero;"/><path d="M10.035,6.509c0.446,-0.001 0.89,-0.003 1.335,-0.003c0.024,0.147 0.019,0.294 -0.017,0.44c-0.439,-0.146 -0.878,-0.292 -1.318,-0.437" style="fill:#c89595;fill-rule:nonzero;"/><path d="M11.353,6.946c0.036,-0.145 0.042,-0.292 0.017,-0.44c0.155,-0.161 0.311,-0.322 0.467,-0.483c-0.162,0.308 -0.323,0.615 -0.484,0.923" style="fill:#c13838;fill-rule:nonzero;"/><path d="M27.729,7.562c0.341,0.125 0.682,0.248 1.023,0.373c0.153,0.31 0.307,0.622 0.461,0.933c-0.766,0.053 -1.374,-0.116 -1.458,-1.028c-0.054,-0.088 -0.063,-0.181 -0.026,-0.278" style="fill:#b41e1e;fill-rule:nonzero;"/><path d="M27.729,7.562c-0.037,0.097 -0.028,0.19 0.026,0.278c-0.417,0.648 -0.753,1.44 -1.782,1.007c-0.004,-0.594 -0.009,-1.189 -0.014,-1.783c0.452,0.003 0.906,0.006 1.359,0.01c0,0 -0.04,-0.037 -0.04,-0.037c0.159,0.175 0.316,0.35 0.474,0.524l-0.023,0.001Z" style="fill:#e3c3c3;fill-rule:nonzero;"/><path d="M23.585,6.989c0.994,-0.011 2.047,-0.099 1.872,1.425c-0.746,0.066 -1.715,-0.309 -1.869,0.938c-0.154,-0.005 -0.308,-0.008 -0.462,-0.009c-0.308,-0.602 -0.616,-1.202 -0.923,-1.803c0.284,-0.216 0.567,-0.431 0.85,-0.647l-0.001,0.003c0.178,0.03 0.356,0.062 0.533,0.093" style="fill:#b51f1f;fill-rule:nonzero;"/><path d="M25.001,13.091c-0.156,-0.155 -0.31,-0.309 -0.465,-0.464c0.155,0.155 0.309,0.309 0.465,0.464" style="fill:#423232;fill-rule:nonzero;"/><path d="M26.868,10.291c0.007,0.145 0.004,0.289 -0.012,0.432c-0.148,-0.133 -0.296,-0.266 -0.444,-0.399c0.149,-0.044 0.301,-0.055 0.456,-0.033" style="fill:#8c6d6d;fill-rule:nonzero;"/><path d="M23.126,9.343c0.153,0.002 0.308,0.005 0.462,0.009c-0.466,0.152 -0.932,0.305 -1.398,0.458l0,-0.464c0.312,-0.001 0.624,-0.002 0.936,-0.003" style="fill:#be2b2b;fill-rule:nonzero;"/><path d="M27.772,1.877c-0.024,1.254 -0.881,1.396 -1.852,1.384c-0.126,-0.069 -0.254,-0.135 -0.381,-0.201c0.007,-0.231 0.013,-0.463 0.02,-0.694l0.455,-0.544c0.162,-0.11 0.324,-0.22 0.487,-0.329c0.268,-0.02 0.535,-0.041 0.802,-0.061c0.156,0.149 0.313,0.297 0.469,0.445" style="fill:#e0bfbf;fill-rule:nonzero;"/><path d="M25.938,5.124c-0.934,1.126 -0.934,1.126 -1.87,0.002l1.87,-0.002Z" style="fill:#b22828;fill-rule:nonzero;"/><path d="M25.539,3.06c0.128,0.066 0.255,0.132 0.381,0.201c-0.027,0.154 -0.031,0.308 -0.01,0.462c-0.123,-0.221 -0.247,-0.442 -0.371,-0.663" style="fill:#ad3333;fill-rule:nonzero;"/><path d="M15.161,10.281c1.035,0.433 2.07,0.867 3.106,1.299c-0.009,0.143 -0.018,0.285 -0.026,0.428c-0.704,0.049 -1.409,0.097 -2.114,0.146c-0.302,-0.156 -0.606,-0.312 -0.908,-0.468c-0.633,-0.503 -1.266,-1.006 -1.899,-1.509c0.614,0.035 1.227,0.07 1.841,0.104" style="fill:#1f0909;fill-rule:nonzero;"/><path d="M18.443,10.198c-0.313,0.037 -0.626,0.074 -0.939,0.111c-0.119,-0.06 -0.245,-0.083 -0.377,-0.072c-0.048,-0.134 -0.088,-0.272 -0.118,-0.41l1.434,0.371Z" style="fill:#c03131;fill-rule:nonzero;"/><path d="M13.754,19.186c-1.091,0.16 -2.182,0.319 -3.273,0.479c-0.003,-0.16 -0.005,-0.32 -0.007,-0.481c0.469,-0.155 0.937,-0.311 1.406,-0.466c0.468,0.601 0.937,0.601 1.406,0l0,-0.003c0.156,0.157 0.312,0.315 0.468,0.471" style="fill:#c33f3f;fill-rule:nonzero;"/><path d="M14.6,14.591c0.054,0.64 0.11,1.28 0.166,1.92c-0.011,0.113 -0.037,0.222 -0.077,0.329c-0.326,0.143 -0.654,0.286 -0.98,0.43l0.002,-0.016l-0.127,-0.057c0,0 -0.125,0.058 -0.126,0.058c-0.209,-0.114 -0.417,-0.227 -0.625,-0.341l-0.53,-0.538c0.065,-0.488 0.128,-0.975 0.193,-1.464c0.126,-0.112 0.253,-0.225 0.379,-0.336c0.576,0.005 1.149,0.01 1.725,0.015" style="fill:#ecd4d4;fill-rule:nonzero;"/><path d="M13.286,18.718c-0.469,0.601 -0.938,0.601 -1.406,0c0.468,-0.75 0.937,-0.125 1.406,0" style="fill:#c73e3e;fill-rule:nonzero;"/><path d="M12.833,16.914c0.208,0.114 0.416,0.228 0.625,0.341c-0.207,-0.113 -0.416,-0.227 -0.625,-0.341" style="fill:#c33f3f;fill-rule:nonzero;"/><path d="M13.155,21.119c-0.133,0.005 -0.242,-0.044 -0.326,-0.148c0.107,-0.186 0.245,-0.543 0.315,-0.53c1.106,0.203 1.091,-0.52 1.079,-1.253c0.828,-1.466 2.139,-1.969 3.748,-1.88l0.002,0.003c-0.084,1.018 0.354,2.212 -0.948,2.821l0.003,0.003c-0.307,-0.03 -0.615,-0.058 -0.921,-0.088c-0.337,0.336 -0.673,0.672 -1.009,1.008c-0.137,0.003 -0.272,0.004 -0.408,0.006c-0.312,0 -0.625,-0.001 -0.938,-0.001c-0.198,0.019 -0.397,0.04 -0.597,0.059" style="fill:#b12f2f;fill-rule:nonzero;"/><path d="M17.501,15.437c0.292,0.159 0.583,0.318 0.874,0.477c0.044,0.278 0.088,0.557 0.132,0.835c-0.178,0.188 -0.356,0.375 -0.535,0.561l-0.001,-0.002c-0.157,-0.623 -0.313,-1.247 -0.47,-1.871" style="fill:#c94141;fill-rule:nonzero;"/><path d="M13.708,17.269c0.327,-0.143 0.654,-0.286 0.981,-0.429c-0.327,0.143 -0.654,0.286 -0.981,0.429" style="fill:#c33f3f;fill-rule:nonzero;"/><path d="M18.393,15.032c0.61,-0.913 1.271,-0.332 1.921,-0.063c0.154,0.395 0.307,0.79 0.513,1.317c-0.619,0.028 -1.236,0.056 -1.854,0.084c-0.168,-0.312 -0.336,-0.624 -0.504,-0.937c-0.058,-0.128 -0.084,-0.261 -0.076,-0.401" style="fill:#1f0707;fill-rule:nonzero;"/><path d="M18.469,15.433c0.168,0.313 0.335,0.625 0.504,0.937c-0.024,0.162 -0.05,0.325 -0.075,0.487c-0.132,-0.028 -0.263,-0.064 -0.391,-0.108c-0.044,-0.278 -0.088,-0.556 -0.132,-0.835c0.032,-0.16 0.062,-0.321 0.094,-0.481" style="fill:#341c1c;fill-rule:nonzero;"/><path d="M18.507,16.749c0.128,0.044 0.259,0.08 0.391,0.108c0,0.001 0.037,-0.02 0.037,-0.02c-0.039,0.155 -0.029,0.308 0.032,0.456c0.006,0.156 0.013,0.313 0.019,0.469c0.12,0.806 0.24,1.612 0.36,2.419c-0.006,0.914 -0.012,1.827 -0.02,2.741c-0.128,0.015 -0.254,0.041 -0.377,0.079c-0.02,-0.435 -0.019,-0.873 -0.08,-1.302c-0.01,-0.075 -0.28,-0.114 -0.43,-0.17c-0.146,-0.004 -0.293,-0.008 -0.44,-0.013c-0.172,-0.305 -0.345,-0.609 -0.517,-0.913c-0.152,-0.157 -0.305,-0.314 -0.458,-0.471c1.303,-0.609 0.865,-1.803 0.948,-2.822c0.179,-0.186 0.357,-0.373 0.535,-0.561" style="fill:#b13a3a;fill-rule:nonzero;"/><path d="M19.346,20.182c-0.12,-0.807 -0.24,-1.614 -0.36,-2.421c0.132,0.009 0.264,0.015 0.397,0.017c-0.012,0.802 -0.024,1.603 -0.037,2.404" style="fill:#341c1c;fill-rule:nonzero;"/><path d="M18.439,21.529c0.15,0.055 0.42,0.094 0.43,0.17c0.061,0.429 0.06,0.866 0.08,1.301c0.004,0.134 -0.029,0.259 -0.096,0.374c-0.139,-0.615 -0.276,-1.23 -0.414,-1.845" style="fill:#bf4e4e;fill-rule:nonzero;"/><path d="M18.967,17.293c-0.061,-0.148 -0.072,-0.301 -0.032,-0.456c0.064,0.106 0.138,0.207 0.182,0.32c0.009,0.023 -0.097,0.09 -0.15,0.136" style="fill:#1f0707;fill-rule:nonzero;"/><path d="M18.419,8.93l0.18,-1.849c0.257,-0.022 0.513,-0.044 0.77,-0.066l-0.03,0.021c0.179,0.125 0.357,0.249 0.535,0.375l0.035,0.027c0.12,0.193 0.238,0.385 0.356,0.577c-0.045,0.111 -0.053,0.225 -0.026,0.342c-0.126,0.183 -0.252,0.366 -0.379,0.549c-0.481,0.008 -0.961,0.016 -1.441,0.024" style="fill:#ebcccc;fill-rule:nonzero;"/><path d="M20.239,8.357c-0.027,-0.117 -0.018,-0.231 0.027,-0.342c0.022,-0.188 0.045,-0.377 0.069,-0.564c-0.013,-0.151 -0.019,-0.301 -0.018,-0.452l-0.003,0c0.295,0.01 0.591,0.021 0.885,0.031c0,0 0.041,0.019 0.041,0.018c0.322,0.164 0.642,0.328 0.964,0.492c0.306,0.601 0.614,1.202 0.922,1.803c-0.312,0.001 -0.623,0.002 -0.935,0.003l-0.47,-0.006c-0.156,-0.154 -0.312,-0.308 -0.468,-0.462c-0.156,-0.002 -0.313,-0.004 -0.47,-0.005c-0.137,-0.143 -0.274,-0.287 -0.409,-0.43l-0.135,-0.086Z" style="fill:#c72323;fill-rule:nonzero;"/><path d="M21.253,8.878c0.156,0.154 0.312,0.308 0.467,0.462c-0.155,-0.154 -0.311,-0.308 -0.467,-0.462" style="fill:#be2b2b;fill-rule:nonzero;"/><path d="M20.373,8.443c0.137,0.144 0.273,0.287 0.41,0.43c-0.137,-0.143 -0.273,-0.286 -0.41,-0.43" style="fill:#be2b2b;fill-rule:nonzero;"/><path d="M22.204,7.54c-0.322,-0.164 -0.642,-0.328 -0.964,-0.491c0.604,-0.052 1.21,-0.103 1.814,-0.155c-0.283,0.215 -0.567,0.43 -0.85,0.646" style="fill:#d33737;fill-rule:nonzero;"/><path d="M21.2,7.03c-0.296,-0.01 -0.591,-0.021 -0.886,-0.031c0.001,-0.157 0.001,-0.315 0.002,-0.472c0.145,0.004 0.29,0.009 0.434,0.012c0.15,0.163 0.3,0.328 0.45,0.491" style="fill:#d33737;fill-rule:nonzero;"/><path d="M20.316,6.999c-0.001,0.151 0.006,0.301 0.018,0.452c-0.142,0 -0.283,-0.003 -0.424,-0.012l-0.036,-0.029c-0.01,-0.138 -0.016,-0.277 -0.019,-0.416c0.154,0.004 0.307,0.006 0.461,0.005" style="fill:#d33737;fill-rule:nonzero;"/><path d="M19.855,6.995c0.003,0.138 0.01,0.277 0.019,0.415c-0.177,-0.124 -0.356,-0.25 -0.534,-0.374c0.171,-0.014 0.343,-0.027 0.515,-0.041" style="fill:#cf4343;fill-rule:nonzero;"/><path d="M13.155,21.119l0.598,-0.059c0.002,0.157 0.005,0.313 0.008,0.469c-0.004,0.466 -0.008,0.932 -0.012,1.398c-0.162,-0.001 -0.324,-0.001 -0.486,-0.002c-0.036,-0.602 -0.072,-1.204 -0.108,-1.806" style="fill:#b03a3a;fill-rule:nonzero;"/><path d="M13.76,21.53c-0.003,-0.156 -0.005,-0.313 -0.007,-0.47c0.312,0 0.625,0.001 0.937,0.001c0,0.155 0,0.311 0.003,0.467l-0.008,0.009l-0.925,-0.007Z" style="fill:#952a2a;fill-rule:nonzero;"/><path d="M15.138,22.033c-0.151,-0.165 -0.302,-0.33 -0.453,-0.496l0.007,-0.009c0.136,0.001 0.271,0.004 0.406,0.008c0.084,0.121 0.127,0.254 0.131,0.401l-0.091,0.096Z" style="fill:#952a2a;fill-rule:nonzero;"/><path d="M15.477,22.429c-0.112,-0.132 -0.226,-0.265 -0.339,-0.396l0.091,-0.096c0.16,0.163 0.322,0.325 0.482,0.488l-0.117,-0.015l-0.117,0.019Z" style="fill:#952a2a;fill-rule:nonzero;"/><path d="M16.064,6.51c0.306,-0.176 0.611,-0.353 0.917,-0.53c-0.306,0.176 -0.611,0.353 -0.917,0.53" style="fill:#cd4a4a;fill-rule:nonzero;"/><path d="M27.318,7.074c-0.453,-0.003 -0.907,-0.007 -1.359,-0.01c0.458,-0.695 0.911,-0.695 1.359,0.01" style="fill:#b22f2f;fill-rule:nonzero;"/><path d="M27.752,7.561c-0.158,-0.174 -0.315,-0.349 -0.474,-0.524c0.158,0.175 0.316,0.35 0.474,0.524" style="fill:#b22f2f;fill-rule:nonzero;"/><path d="M26.88,4.224c0.155,-0.044 0.308,-0.045 0.463,-0.003c-0.154,0.002 -0.308,0.002 -0.463,0.003" style="fill:#b22f2f;fill-rule:nonzero;"/><path d="M17.482,20.603c0.171,0.305 0.345,0.608 0.517,0.913c-0.298,0.341 -0.595,0.683 -0.892,1.025c0,0.001 -0.068,-0.07 -0.068,-0.07c0.147,-0.622 0.295,-1.245 0.443,-1.868" style="fill:#bf4e4e;fill-rule:nonzero;"/><path d="M17.482,20.603c-0.148,0.623 -0.296,1.246 -0.443,1.868c-0.443,-0.015 -0.886,-0.03 -1.327,-0.046c-0.162,-0.163 -0.323,-0.325 -0.483,-0.488c-0.004,-0.147 -0.047,-0.28 -0.131,-0.4c0,-0.161 0,-0.322 -0.001,-0.482c0.337,-0.336 0.673,-0.672 1.009,-1.008c0.307,0.03 0.614,0.058 0.923,0.087l-0.004,-0.002c0.152,0.157 0.304,0.314 0.457,0.471" style="fill:#e6d2d2;fill-rule:nonzero;"/><path d="M17.028,20.135c-0.307,-0.03 -0.615,-0.059 -0.921,-0.088c0.306,0.029 0.614,0.058 0.921,0.088" style="fill:#b13a3a;fill-rule:nonzero;"/><path d="M15.098,21.055c0,0.16 0,0.321 0,0.481c-0.135,-0.004 -0.27,-0.007 -0.405,-0.009c-0.003,-0.155 -0.003,-0.311 -0.003,-0.467c0.136,-0.001 0.271,-0.003 0.408,-0.005" style="fill:#b03a3a;fill-rule:nonzero;"/><path d="M19.91,7.438c0.141,0.009 0.282,0.013 0.424,0.013c-0.023,0.188 -0.046,0.376 -0.068,0.564c-0.119,-0.192 -0.238,-0.385 -0.356,-0.577" style="fill:#cf4343;fill-rule:nonzero;"/></svg>