<?xml version="1.0" encoding="UTF-8" standalone="no"?><!DOCTYPE svg PUBLIC "-//W3C//DTD SVG 1.1//EN" "http://www.w3.org/Graphics/SVG/1.1/DTD/svg11.dtd"><svg width="100%" height="100%" viewBox="0 0 73 39" version="1.1" xmlns="http://www.w3.org/2000/svg" xmlns:xlink="http://www.w3.org/1999/xlink" xml:space="preserve" style="fill-rule:evenodd;clip-rule:evenodd;stroke-linejoin:round;stroke-miterlimit:1.41421;"><path d="M61.995,12.396c-0.838,0 -1.516,0.679 -1.516,1.516c0,0.838 0.678,1.516 1.516,1.516c0.836,0 1.516,-0.678 1.516,-1.516c0,-0.837 -0.68,-1.516 -1.516,-1.516" style="fill:#434040;fill-rule:nonzero;"/><path d="M51.981,3.402c-1.811,0 -3.279,1.402 -3.279,3.131c0,1.729 1.468,3.131 3.279,3.131c1.811,0 3.281,-1.403 3.281,-3.131c0,-1.729 -1.469,-3.131 -3.281,-3.131" style="fill:#db9fa5;fill-rule:nonzero;"/><path d="M61.995,15.428c-0.838,0 -1.516,-0.678 -1.516,-1.515c0,-0.838 0.678,-1.517 1.516,-1.517c0.836,0 1.516,0.679 1.516,1.517c0,0.837 -0.68,1.515 -1.516,1.515m-10.014,-5.765c-1.811,0 -3.28,-1.401 -3.28,-3.13c0,-1.729 1.469,-3.131 3.28,-3.131c1.812,0 3.281,1.402 3.281,3.131c0,1.728 -1.47,3.13 -3.281,3.13m13.666,0.546c1.69,-2.632 2.386,-9.988 -3.876,-9.988c-3.329,0 -3.776,3.579 -3.776,4.323c0,0.746 -0.994,-5.814 -7.008,-4.323c0,0 -4.571,1.392 -4.571,5.219l-1.093,-0.647c0,0 -6.561,-6.063 -18.885,1.491c-12.324,7.553 -8.745,18.585 -8.548,19.282c0.199,0.695 -1.789,5.963 -8.25,3.28c-6.459,-2.684 -8.049,0.895 -9.44,2.484c-1.392,1.591 4.77,-2.981 9.937,0.696c5.168,3.676 8.945,-0.895 9.145,-1.691c0.199,-0.795 7.901,6.958 12.226,7.902c4.322,0.945 7.851,0.797 7.851,-1.291c0,-2.087 4.72,1.192 4.373,-1.79c-0.347,-2.981 -8.399,-2.484 -3.479,-3.826c4.92,-1.342 5.814,7.474 13.517,7.465c7.702,-0.01 6.46,-1.601 6.163,-2.297c-0.299,-0.694 5.913,1.393 5.913,-0.943c0,-2.337 -7.902,-1.244 -7.902,-5.667c0,-4.422 2.336,-4.92 3.281,-4.82c0.943,0.098 11.578,1.64 11.578,-1.939c0,-3.578 -5.07,-10.833 -7.156,-12.92" style="fill:#bfbcbb;fill-rule:nonzero;"/></svg>