<?xml version="1.0" encoding="UTF-8" standalone="no"?><!DOCTYPE svg PUBLIC "-//W3C//DTD SVG 1.1//EN" "http://www.w3.org/Graphics/SVG/1.1/DTD/svg11.dtd"><svg width="100%" height="100%" viewBox="0 0 164 285" version="1.1" xmlns="http://www.w3.org/2000/svg" xmlns:xlink="http://www.w3.org/1999/xlink" xml:space="preserve" style="fill-rule:evenodd;clip-rule:evenodd;stroke-linejoin:round;stroke-miterlimit:1.41421;"><path d="M125.229,69.959c-3.769,0 -6.832,-3.062 -6.832,-6.822c0,-3.765 3.063,-6.824 6.832,-6.824c3.765,0 6.828,3.059 6.828,6.824c0,3.76 -3.063,6.822 -6.828,6.822Zm-8.816,54.375c-13.103,7.635 -23.453,13.651 -34.341,13.651l-0.559,0l-2.453,0c-11.063,0.212 -21.559,-5.882 -34.884,-13.651c-7.854,-4.578 -11.922,-10.193 -12.079,-16.718c-0.243,-10.088 9.047,-16.122 13.016,-18.694l0.609,-0.353c7.479,-4.131 9.782,-9.15 11.307,-12.469l0.268,-0.578c4.51,-11.5 14.779,-15.728 22.263,-15.85c6.681,0 18.791,3.347 23.716,15.844l0.268,0.584c1.528,3.319 3.844,8.338 11.31,12.469l0.612,0.353c3.956,2.572 13.25,8.606 13.003,18.694c-0.134,6.525 -4.2,12.14 -12.056,16.718Zm-78.306,-68.021c3.778,0 6.837,3.059 6.837,6.824c0,3.76 -3.059,6.822 -6.837,6.822c-3.766,0 -6.831,-3.062 -6.831,-6.822c0,-3.765 3.065,-6.824 6.831,-6.824Zm115.656,26.846c-0.781,-4.553 0.094,-9.771 4.116,-15.649c4.031,-6.329 5.178,-17.854 -8.066,-32.257c-8.653,-9.225 -68.562,-77.215 -143.466,4.616c0,0 -12.1,13.534 -2.887,24.481c3.756,4.034 9.809,17.862 0.578,32.553c-4.034,7.488 -8.641,13.25 13.825,33.416c0,0 63.388,62.222 131.95,-0.581c5.2,-5.2 14.334,-15.638 13.363,-26.128c-0.588,-6.282 -8.357,-14.238 -9.413,-20.451Z" style="fill:#eaf7fb;fill-rule:nonzero;"/><path d="M100.335,109.312c-1.619,1.229 -5.406,-0.831 -5.047,-3.693c0.356,-2.866 3.409,-3.4 4.909,-1.803c1.519,1.587 1.775,4.262 0.138,5.496Zm-37.813,0c-1.631,-1.234 -1.371,-3.909 0.132,-5.503c1.509,-1.59 4.559,-1.056 4.918,1.797c0.372,2.863 -3.421,4.935 -5.05,3.706Zm47.529,-12.031c-11.141,-6.15 -14.216,-14.203 -15.944,-17.865c-3.453,-9.21 -12.947,-9.81 -14.378,-9.794c-1.438,0.028 -9.794,0.584 -13.247,9.794c-1.741,3.662 -4.806,11.715 -15.947,17.865c-7.103,4.616 -14.213,10.953 -1.344,18.441c12.866,7.487 21.706,12.481 29.772,12.294l2.666,0c8.065,0.187 16.903,-4.807 29.772,-12.294c12.868,-7.488 5.759,-13.831 -1.35,-18.441Z" style="fill:#ef3b23;fill-rule:nonzero;"/><path d="M125.332,158.491c-13.069,6.168 -26.628,9.284 -40.563,9.284c-16.478,0 -31.084,-4.387 -42.884,-9.813c-5.725,-2.64 -7.153,-1.087 -4.041,4.394c4.169,7.338 7.366,15.2 9.475,26.122c3.378,17.488 3.935,43.066 1.75,84.366c-0.328,6.29 4.466,11.453 10.769,11.528l24.197,0.303l0.344,0l24.203,-0.303c6.3,-0.081 11.09,-5.238 10.753,-11.528c-2.266,-42.422 -1.778,-67.556 1.553,-85.244c1.931,-10.184 4.831,-17.759 8.584,-24.747c2.979,-5.547 1.563,-7.053 -4.14,-4.362Z" style="fill:#757c7e;fill-rule:nonzero;"/><path d="M117.597,53.306c5.197,0 9.404,4.21 9.404,9.407c0,5.193 -4.207,9.403 -9.404,9.403c-5.193,0 -9.403,-4.21 -9.403,-9.403c-0.003,-5.194 4.21,-9.407 9.403,-9.407Z" style="fill:#030404;fill-rule:nonzero;"/><path d="M117.597,53.306l0,1.563c4.332,0.009 7.835,3.512 7.841,7.844c-0.006,4.328 -3.509,7.831 -7.841,7.84c-4.328,-0.009 -7.831,-3.512 -7.84,-7.84l0,-0.022l0,-0.019l-1.335,0.034l1.335,0l0,-0.034l-1.335,0.034l1.335,0c0.009,-4.325 3.512,-7.828 7.84,-7.837l0,-1.563l0,-1.562c-6.056,0.003 -10.962,4.909 -10.965,10.962l0,0.044l1.562,-0.037l-1.562,0c0,6.056 4.909,10.965 10.965,10.965c6.06,0 10.966,-4.909 10.966,-10.965c0,-6.06 -4.906,-10.966 -10.966,-10.969l0,1.562Z" style="fill:#030404;fill-rule:nonzero;"/><path d="M44.944,53.306c5.197,0 9.407,4.21 9.407,9.407c0,5.193 -4.21,9.403 -9.407,9.403c-5.19,0 -9.4,-4.21 -9.4,-9.403c-0.006,-5.194 4.21,-9.407 9.4,-9.407Z" style="fill:#030404;fill-rule:nonzero;"/><path d="M44.944,53.306l0,1.563c4.335,0.009 7.835,3.512 7.844,7.844c-0.009,4.328 -3.509,7.831 -7.844,7.84c-4.328,-0.009 -7.831,-3.512 -7.837,-7.84l0,-0.016l0,-0.013l-1.056,0.019l1.056,0l0,-0.019l-1.056,0.019l1.056,0c0.006,-4.322 3.512,-7.825 7.837,-7.834l0,-1.563l0,-1.562c-6.053,0.003 -10.962,4.906 -10.962,10.959l0,0.035l1.562,-0.025l-1.562,0c0,6.056 4.906,10.965 10.962,10.965c6.06,0 10.966,-4.909 10.969,-10.965c-0.003,-6.06 -4.909,-10.966 -10.969,-10.969l0,1.562Z" style="fill:#030404;fill-rule:nonzero;"/></svg>