<?xml version="1.0" encoding="UTF-8" standalone="no"?>
<!DOCTYPE svg PUBLIC "-//W3C//DTD SVG 1.1//EN" "http://www.w3.org/Graphics/SVG/1.1/DTD/svg11.dtd">
<svg width="100%" height="100%" viewBox="0 0 83 83" version="1.1" xmlns="http://www.w3.org/2000/svg" xmlns:xlink="http://www.w3.org/1999/xlink" xml:space="preserve" xmlns:serif="http://www.serif.com/" style="fill-rule:evenodd;clip-rule:evenodd;stroke-linejoin:round;stroke-miterlimit:1.41421;">
    <g transform="matrix(1,0,0,1,14.5,0)">
        <path d="M40.962,38.629L12.476,39.289C9.489,43.316 5.739,52.026 5.739,57.643C5.739,60.788 6.3,63.786 7.324,66.526C10.48,75.012 18.033,80.985 26.845,80.985C34.608,80.985 41.393,76.348 45.054,69.443C46.895,65.982 47.95,61.951 47.95,57.643C47.95,52.026 43.949,42.656 40.962,38.629" style="fill:rgb(208,182,149);fill-rule:nonzero;"/>
    </g>
    <g transform="matrix(1,0,0,1,14.5,0)">
        <path d="M50.154,20.295L50.154,0.142L41.356,9.336C37.313,6.757 32.29,5.228 26.845,5.228C21.421,5.228 16.414,6.745 12.381,9.305L3.476,0L3.476,20.463L3.481,20.461C2.949,22.154 2.662,23.93 2.662,25.765C2.662,37.107 13.489,46.302 26.845,46.302C40.201,46.302 51.028,37.107 51.028,25.765C51.028,23.87 50.719,22.037 50.154,20.295" style="fill:rgb(208,182,149);fill-rule:nonzero;"/>
    </g>
    <g transform="matrix(1,0,0,1,14.5,0)">
        <path d="M37.098,7.178C34.026,5.953 30.607,5.252 26.994,5.234C26.944,5.235 26.895,5.236 26.844,5.237C26.795,5.236 26.745,5.235 26.695,5.234C23.082,5.252 19.664,5.953 16.591,7.178C19.886,8.633 25.281,11.422 26.844,14.656C28.409,11.422 33.803,8.633 37.098,7.178" style="fill:rgb(188,157,126);fill-rule:nonzero;"/>
    </g>
    <g transform="matrix(1,0,0,1,14.5,0)">
        <path d="M36.075,18.394C31.724,18.394 28.048,21.254 26.845,25.184C25.642,21.254 21.966,18.394 17.615,18.394C12.286,18.394 7.966,22.684 7.966,27.976C7.966,33.267 12.286,37.557 17.615,37.557C21.966,37.557 25.642,34.697 26.845,30.767C28.048,34.697 31.724,37.557 36.075,37.557C41.404,37.557 45.724,33.267 45.724,27.976C45.724,22.684 41.404,18.394 36.075,18.394" style="fill:white;fill-rule:nonzero;"/>
    </g>
    <g transform="matrix(1,0,0,1,14.5,0)">
        <path d="M34.013,33.98C34.013,33.98 33.999,34.001 33.975,34.05C33.658,34.618 31.264,38.63 26.844,38.63C23.193,38.63 19.676,34.05 19.676,34.05C19.676,34.05 23.452,30.199 26.844,30.199C30.232,30.199 34.013,33.98 34.013,33.98" style="fill:rgb(253,226,159);fill-rule:nonzero;"/>
    </g>
    <g transform="matrix(1,0,0,1,14.5,0)">
        <path d="M33.975,34.05C33.658,34.618 31.264,38.63 26.844,38.63C23.193,38.63 19.676,34.05 19.676,34.05L33.975,34.05Z" style="fill:rgb(252,210,124);fill-rule:nonzero;"/>
    </g>
    <g transform="matrix(1,0,0,1,14.5,0)">
        <path d="M23.064,27.976C23.064,31.138 20.499,33.703 17.337,33.703C14.174,33.703 11.61,31.138 11.61,27.976C11.61,24.813 14.174,22.249 17.337,22.249C20.499,22.249 23.064,24.813 23.064,27.976" style="fill:rgb(61,59,55);fill-rule:nonzero;"/>
    </g>
    <g transform="matrix(1,0,0,1,14.5,0)">
        <path d="M15.85,23.968C15.85,24.835 15.148,25.537 14.282,25.537C13.415,25.537 12.713,24.835 12.713,23.968C12.713,23.102 13.415,22.399 14.282,22.399C15.148,22.399 15.85,23.102 15.85,23.968" style="fill:white;fill-rule:nonzero;"/>
    </g>
    <g transform="matrix(1,0,0,1,14.5,0)">
        <path d="M42.326,27.976C42.326,31.138 39.761,33.703 36.599,33.703C33.436,33.703 30.872,31.138 30.872,27.976C30.872,24.813 33.436,22.249 36.599,22.249C39.761,22.249 42.326,24.813 42.326,27.976" style="fill:rgb(61,59,55);fill-rule:nonzero;"/>
    </g>
    <g transform="matrix(1,0,0,1,14.5,0)">
        <path d="M35.112,23.968C35.112,24.835 34.41,25.537 33.544,25.537C32.677,25.537 31.975,24.835 31.975,23.968C31.975,23.102 32.677,22.399 33.544,22.399C34.41,22.399 35.112,23.102 35.112,23.968" style="fill:white;fill-rule:nonzero;"/>
    </g>
    <g transform="matrix(1,0,0,1,14.5,0)">
        <path d="M26.845,49.028C16.952,49.028 8.932,57.746 8.932,68.498C8.932,69.03 8.957,69.555 8.996,70.076C12.731,76.627 19.325,80.985 26.844,80.985C34.367,80.985 40.961,76.626 44.695,70.074C44.733,69.554 44.758,69.029 44.758,68.498C44.758,57.746 36.738,49.028 26.845,49.028" style="fill:rgb(194,170,139);fill-rule:nonzero;"/>
    </g>
    <g transform="matrix(1,0,0,1,14.5,0)">
        <path d="M12.83,41.53C11.642,40.617 10.126,40.262 8.59,41.066C6.312,42.259 4.767,44.757 3.557,46.923C-1.903,56.698 -0.076,75.191 2.421,76.175C2.421,76.175 15.947,63.238 15.932,53.011C15.927,50.047 15.899,46.825 14.726,44.032C14.32,43.063 13.654,42.163 12.83,41.53" style="fill:rgb(188,157,126);fill-rule:nonzero;"/>
    </g>
    <g transform="matrix(1,0,0,1,14.5,0)">
        <path d="M40.859,41.53C42.048,40.617 43.564,40.262 45.1,41.066C47.377,42.259 48.922,44.757 50.132,46.923C55.592,56.698 53.765,75.191 51.268,76.175C51.268,76.175 37.742,63.238 37.758,53.011C37.762,50.047 37.791,46.825 38.963,44.032C39.37,43.063 40.036,42.163 40.859,41.53" style="fill:rgb(188,157,126);fill-rule:nonzero;"/>
    </g>
    <g transform="matrix(1,0,0,1,14.5,0)">
        <path d="M19.23,73.681C18.401,73.681 17.696,74.197 17.408,74.924C17.121,74.197 16.415,73.681 15.587,73.681C14.757,73.681 14.051,74.197 13.765,74.924C13.478,74.197 12.772,73.681 11.942,73.681C10.859,73.681 9.981,74.559 9.981,75.643L9.981,80.373C9.981,81.456 10.859,82.334 11.942,82.334C12.772,82.334 13.478,81.818 13.765,81.091C14.051,81.818 14.757,82.334 15.587,82.334C16.415,82.334 17.121,81.818 17.408,81.091C17.696,81.818 18.401,82.334 19.23,82.334C20.314,82.334 21.192,81.456 21.192,80.373L21.192,75.643C21.192,74.559 20.314,73.681 19.23,73.681" style="fill:rgb(252,210,124);fill-rule:nonzero;"/>
    </g>
    <g transform="matrix(1,0,0,1,14.5,0)">
        <path d="M41.672,73.681C40.842,73.681 40.137,74.197 39.85,74.924C39.563,74.197 38.857,73.681 38.028,73.681C37.199,73.681 36.493,74.197 36.206,74.924C35.919,74.197 35.213,73.681 34.384,73.681C33.301,73.681 32.423,74.559 32.423,75.643L32.423,80.373C32.423,81.456 33.301,82.334 34.384,82.334C35.213,82.334 35.919,81.818 36.206,81.091C36.493,81.818 37.199,82.334 38.028,82.334C38.857,82.334 39.563,81.818 39.85,81.091C40.137,81.818 40.842,82.334 41.672,82.334C42.755,82.334 43.634,81.456 43.634,80.373L43.634,75.643C43.634,74.559 42.755,73.681 41.672,73.681" style="fill:rgb(252,210,124);fill-rule:nonzero;"/>
    </g>
    <g transform="matrix(1,0,0,1,14.5,0)">
        <path d="M22.898,7.324C22.898,7.324 22.989,7.292 23.12,7.307C23.248,7.321 23.414,7.377 23.542,7.487C23.674,7.594 23.76,7.746 23.796,7.87C23.833,7.994 23.82,8.091 23.82,8.091C23.803,8.092 23.501,7.948 23.303,7.775C23.097,7.61 22.901,7.34 22.898,7.324" style="fill:white;fill-rule:nonzero;"/>
    </g>
    <g transform="matrix(1,0,0,1,14.5,0)">
        <path d="M24.569,9.67C24.569,9.67 24.677,9.661 24.825,9.71C24.97,9.758 25.15,9.861 25.282,10.015C25.417,10.165 25.496,10.357 25.525,10.507C25.554,10.657 25.532,10.766 25.532,10.766C25.516,10.765 25.214,10.513 25.001,10.262C24.779,10.016 24.569,9.686 24.569,9.67" style="fill:white;fill-rule:nonzero;"/>
    </g>
    <g transform="matrix(1,0,0,1,14.5,0)">
        <path d="M26.689,11.776C26.704,11.772 26.94,11.941 26.985,12.16C27.055,12.372 26.932,12.636 26.918,12.64C26.904,12.644 26.666,12.476 26.623,12.256C26.553,12.043 26.675,11.78 26.689,11.776" style="fill:white;fill-rule:nonzero;"/>
    </g>
    <g transform="matrix(1,0,0,1,14.5,0)">
        <path d="M26.621,7.559C26.621,7.559 26.716,7.595 26.818,7.686C26.919,7.775 27.033,7.913 27.097,8.075C27.166,8.235 27.184,8.413 27.174,8.547C27.165,8.683 27.124,8.776 27.124,8.776C27.109,8.775 26.859,8.507 26.751,8.218C26.625,7.937 26.611,7.571 26.621,7.559" style="fill:white;fill-rule:nonzero;"/>
    </g>
    <g transform="matrix(1,0,0,1,14.5,0)">
        <path d="M28.81,8.702C28.81,8.702 28.795,8.841 28.735,9.028C28.673,9.213 28.576,9.451 28.442,9.667C28.313,9.885 28.146,10.083 28.01,10.221C27.949,10.289 27.888,10.335 27.865,10.383C27.836,10.428 27.825,10.464 27.825,10.464C27.82,10.476 27.747,10.316 27.829,10.112C27.89,9.925 27.988,9.688 28.122,9.472C28.252,9.255 28.418,9.058 28.555,8.919C28.693,8.779 28.81,8.702 28.81,8.702" style="fill:white;fill-rule:nonzero;"/>
    </g>
    <g transform="matrix(1,0,0,1,14.5,0)">
        <path d="M31.568,6.947C31.579,6.956 31.515,7.323 31.298,7.562C31.101,7.817 30.752,7.944 30.741,7.935C30.729,7.925 30.793,7.559 31.011,7.321C31.208,7.066 31.557,6.938 31.568,6.947" style="fill:white;fill-rule:nonzero;"/>
    </g>
    <g transform="matrix(1,0,0,1,14.5,0)">
        <path d="M32.517,7.769C32.517,7.769 32.479,7.9 32.389,8.065C32.299,8.229 32.164,8.436 31.998,8.614C31.835,8.794 31.642,8.947 31.486,9.052C31.33,9.156 31.203,9.205 31.203,9.205C31.203,9.205 31.24,9.075 31.33,8.91C31.42,8.745 31.555,8.539 31.722,8.361C31.884,8.179 32.078,8.027 32.234,7.923C32.391,7.819 32.517,7.769 32.517,7.769" style="fill:white;fill-rule:nonzero;"/>
    </g>
    <g transform="matrix(1,0,0,1,14.5,0)">
        <path d="M20.403,56.896C20.403,56.896 20.467,57.007 20.519,57.175C20.569,57.343 20.619,57.568 20.625,57.795C20.636,58.021 20.605,58.25 20.567,58.421C20.529,58.593 20.473,58.708 20.473,58.708C20.473,58.708 20.408,58.597 20.356,58.429C20.305,58.261 20.257,58.036 20.251,57.81C20.24,57.583 20.271,57.355 20.309,57.183C20.347,57.012 20.403,56.896 20.403,56.896" style="fill:white;fill-rule:nonzero;"/>
    </g>
    <g transform="matrix(1,0,0,1,14.5,0)">
        <path d="M23.707,56.647C23.721,56.647 23.907,56.928 23.894,57.209C23.908,57.49 23.722,57.772 23.707,57.772C23.692,57.772 23.506,57.49 23.519,57.209C23.506,56.928 23.692,56.647 23.707,56.647" style="fill:white;fill-rule:nonzero;"/>
    </g>
    <g transform="matrix(1,0,0,1,14.5,0)">
        <path d="M21.1,61.824C21.1,61.824 21.205,61.885 21.313,62.02C21.421,62.152 21.532,62.355 21.576,62.577C21.624,62.799 21.603,63.029 21.556,63.193C21.51,63.358 21.437,63.457 21.437,63.457C21.437,63.457 21.389,63.345 21.345,63.193C21.301,63.04 21.247,62.846 21.209,62.653C21.167,62.461 21.142,62.261 21.121,62.103C21.102,61.947 21.1,61.824 21.1,61.824" style="fill:white;fill-rule:nonzero;"/>
    </g>
    <g transform="matrix(1,0,0,1,14.5,0)">
        <path d="M25.133,62.341C25.133,62.341 25.222,62.364 25.308,62.462C25.392,62.555 25.465,62.717 25.457,62.886C25.453,63.055 25.369,63.211 25.278,63.297C25.187,63.386 25.095,63.406 25.095,63.406C25.093,63.387 25.076,63.085 25.083,62.873C25.084,62.759 25.104,62.639 25.111,62.536C25.123,62.437 25.133,62.341 25.133,62.341" style="fill:white;fill-rule:nonzero;"/>
    </g>
    <g transform="matrix(1,0,0,1,14.5,0)">
        <path d="M17.977,64.061C17.977,64.061 18.101,64.103 18.25,64.226C18.397,64.346 18.563,64.546 18.66,64.78C18.76,65.014 18.786,65.272 18.769,65.461C18.753,65.651 18.695,65.772 18.695,65.772C18.695,65.772 18.631,65.655 18.56,65.494C18.491,65.332 18.397,65.129 18.314,64.926C18.227,64.724 18.148,64.515 18.081,64.351C18.017,64.189 17.977,64.061 17.977,64.061" style="fill:white;fill-rule:nonzero;"/>
    </g>
    <g transform="matrix(1,0,0,1,14.5,0)">
        <path d="M22.912,68.333C22.979,68.45 23.038,68.552 23.088,68.657C23.146,68.758 23.2,68.856 23.252,68.953C23.356,69.147 23.466,69.33 23.578,69.533L23.539,69.505C23.643,69.58 23.741,69.669 23.83,69.778C23.689,69.782 23.558,69.766 23.433,69.736L23.394,69.708C23.173,69.566 23.014,69.342 22.923,69.099C22.836,68.856 22.818,68.581 22.912,68.333" style="fill:white;fill-rule:nonzero;"/>
    </g>
    <g transform="matrix(1,0,0,1,14.5,0)">
        <path d="M26.664,66.399C26.664,66.399 26.711,66.546 26.723,66.771C26.734,66.993 26.713,67.292 26.63,67.575C26.552,67.86 26.413,68.126 26.285,68.309C26.159,68.493 26.04,68.595 26.04,68.595C26.04,68.595 26.05,68.439 26.091,68.227C26.133,68.015 26.192,67.74 26.27,67.473C26.344,67.205 26.439,66.941 26.515,66.738C26.591,66.537 26.664,66.399 26.664,66.399" style="fill:white;fill-rule:nonzero;"/>
    </g>
    <g transform="matrix(1,0,0,1,14.5,0)">
        <path d="M24.518,72.646C24.518,72.646 24.562,72.749 24.567,72.905C24.573,73.06 24.545,73.265 24.457,73.449C24.374,73.633 24.235,73.789 24.113,73.883C23.991,73.978 23.883,74.013 23.883,74.013C23.876,73.999 23.964,73.603 24.117,73.291C24.258,72.972 24.503,72.65 24.518,72.646" style="fill:white;fill-rule:nonzero;"/>
    </g>
    <g transform="matrix(1,0,0,1,14.5,0)">
        <path d="M19.516,70.711C19.53,70.707 19.772,70.872 19.824,71.094C19.902,71.308 19.787,71.579 19.774,71.584C19.759,71.587 19.516,71.422 19.465,71.2C19.388,70.986 19.502,70.714 19.516,70.711" style="fill:white;fill-rule:nonzero;"/>
    </g>
    <g transform="matrix(1,0,0,1,14.5,0)">
        <path d="M30.081,58.959C30.081,58.959 30.145,59.054 30.193,59.202C30.239,59.35 30.277,59.55 30.266,59.75C30.259,59.95 30.204,60.146 30.143,60.289C30.083,60.431 30.01,60.521 30.01,60.521C30.01,60.521 29.964,60.416 29.934,60.266C29.905,60.118 29.881,59.924 29.891,59.733C29.898,59.542 29.94,59.351 29.982,59.205C30.025,59.06 30.081,58.959 30.081,58.959" style="fill:white;fill-rule:nonzero;"/>
    </g>
    <g transform="matrix(1,0,0,1,14.5,0)">
        <path d="M26.888,54.71C26.888,54.71 26.961,54.786 27.012,54.922C27.064,55.056 27.099,55.248 27.069,55.434C27.043,55.621 26.955,55.794 26.867,55.907C26.778,56.022 26.686,56.074 26.686,56.074C26.676,56.062 26.646,55.688 26.698,55.379C26.738,55.068 26.874,54.719 26.888,54.71" style="fill:white;fill-rule:nonzero;"/>
    </g>
    <g transform="matrix(1,0,0,1,14.5,0)">
        <path d="M29.652,53.332C29.652,53.332 29.732,53.419 29.803,53.566C29.873,53.713 29.939,53.917 29.952,54.129C29.969,54.339 29.932,54.552 29.882,54.706C29.834,54.862 29.765,54.958 29.765,54.958C29.765,54.958 29.713,54.853 29.672,54.701C29.631,54.549 29.59,54.352 29.578,54.154C29.562,53.958 29.577,53.757 29.595,53.601C29.615,53.446 29.652,53.332 29.652,53.332" style="fill:white;fill-rule:nonzero;"/>
    </g>
    <g transform="matrix(1,0,0,1,14.5,0)">
        <path d="M34.789,60.018C34.789,60.018 34.875,60.133 34.94,60.333C35.005,60.531 35.051,60.809 35.022,61.085C34.996,61.361 34.899,61.625 34.795,61.806C34.693,61.988 34.586,62.085 34.586,62.085C34.586,62.085 34.582,61.941 34.594,61.745C34.608,61.548 34.622,61.296 34.649,61.048C34.671,60.8 34.707,60.549 34.731,60.354C34.757,60.161 34.789,60.018 34.789,60.018" style="fill:white;fill-rule:nonzero;"/>
    </g>
    <g transform="matrix(1,0,0,1,14.5,0)">
        <path d="M31.509,64.21C31.509,64.21 31.589,64.339 31.642,64.557C31.695,64.771 31.722,65.07 31.671,65.361C31.625,65.653 31.504,65.927 31.383,66.112C31.263,66.299 31.145,66.397 31.145,66.397C31.145,66.397 31.155,66.244 31.186,66.037C31.219,65.83 31.256,65.563 31.302,65.299C31.344,65.036 31.396,64.771 31.432,64.564C31.47,64.36 31.509,64.21 31.509,64.21" style="fill:white;fill-rule:nonzero;"/>
    </g>
    <g transform="matrix(1,0,0,1,14.5,0)">
        <path d="M29.892,70.459C29.892,70.459 29.961,70.512 30.01,70.617C30.058,70.718 30.089,70.867 30.057,71.008C30.03,71.152 29.944,71.277 29.859,71.35C29.774,71.425 29.689,71.449 29.689,71.449C29.681,71.434 29.64,71.141 29.69,70.933C29.727,70.722 29.879,70.47 29.892,70.459" style="fill:white;fill-rule:nonzero;"/>
    </g>
    <g transform="matrix(1,0,0,1,14.5,0)">
        <path d="M27.846,75.272C27.846,75.272 27.904,75.357 27.937,75.491C27.969,75.624 27.984,75.805 27.944,75.976C27.909,76.149 27.821,76.308 27.736,76.414C27.651,76.522 27.562,76.576 27.562,76.576C27.55,76.567 27.502,76.2 27.578,75.897C27.635,75.589 27.831,75.277 27.846,75.272" style="fill:white;fill-rule:nonzero;"/>
    </g>
    <g transform="matrix(1,0,0,1,14.5,0)">
        <path d="M33.447,68.461C33.447,68.461 33.517,68.496 33.577,68.566C33.636,68.635 33.692,68.738 33.7,68.847C33.712,68.956 33.676,69.067 33.629,69.145C33.583,69.224 33.52,69.271 33.52,69.271C33.505,69.267 33.331,69.065 33.326,68.881C33.299,68.698 33.434,68.469 33.447,68.461" style="fill:white;fill-rule:nonzero;"/>
    </g>
    <g transform="matrix(1,0,0,1,14.5,0)">
        <path d="M35.465,65.457C35.465,65.457 35.555,65.554 35.64,65.721C35.725,65.887 35.811,66.12 35.841,66.362C35.874,66.604 35.853,66.852 35.814,67.034C35.775,67.216 35.712,67.334 35.712,67.334C35.712,67.334 35.654,67.215 35.603,67.041C35.553,66.867 35.496,66.64 35.469,66.412C35.436,66.183 35.433,65.949 35.436,65.768C35.44,65.588 35.465,65.457 35.465,65.457" style="fill:white;fill-rule:nonzero;"/>
    </g>
</svg>
