<?xml version="1.0" encoding="UTF-8" standalone="no"?><!DOCTYPE svg PUBLIC "-//W3C//DTD SVG 1.1//EN" "http://www.w3.org/Graphics/SVG/1.1/DTD/svg11.dtd"><svg width="100%" height="100%" viewBox="0 0 54 83" version="1.1" xmlns="http://www.w3.org/2000/svg" xmlns:xlink="http://www.w3.org/1999/xlink" xml:space="preserve" style="fill-rule:evenodd;clip-rule:evenodd;stroke-linejoin:round;stroke-miterlimit:1.41421;"><path d="M40.962,38.629l-28.486,0.66c-2.987,4.027 -6.737,12.737 -6.737,18.354c0,3.145 0.561,6.143 1.585,8.883c3.156,8.486 10.709,14.459 19.521,14.459c7.763,0 14.548,-4.637 18.209,-11.542c1.841,-3.461 2.896,-7.492 2.896,-11.8c0,-5.617 -4.001,-14.987 -6.988,-19.014" style="fill:#d0b695;fill-rule:nonzero;"/><path d="M50.154,20.295l0,-20.153l-8.798,9.194c-4.043,-2.579 -9.066,-4.108 -14.511,-4.108c-5.424,0 -10.431,1.517 -14.464,4.077l0,0l-8.905,-9.305l0,20.463l0.005,-0.002c-0.532,1.693 -0.819,3.469 -0.819,5.304c0,11.342 10.827,20.537 24.183,20.537c13.356,0 24.183,-9.195 24.183,-20.537c0,-1.895 -0.309,-3.728 -0.874,-5.47" style="fill:#d0b695;fill-rule:nonzero;"/><path d="M37.098,7.178c-3.072,-1.225 -6.491,-1.926 -10.104,-1.944c-0.05,0.001 -0.099,0.002 -0.15,0.003c-0.049,-0.001 -0.099,-0.002 -0.149,-0.003c-3.613,0.018 -7.031,0.719 -10.104,1.944c3.295,1.455 8.69,4.244 10.253,7.478c1.565,-3.234 6.959,-6.023 10.254,-7.478" style="fill:#bc9d7e;fill-rule:nonzero;"/><path d="M36.075,18.394c-4.351,0 -8.027,2.86 -9.23,6.79c-1.203,-3.93 -4.879,-6.79 -9.23,-6.79c-5.329,0 -9.649,4.29 -9.649,9.582c0,5.291 4.32,9.581 9.649,9.581c4.351,0 8.027,-2.86 9.23,-6.79c1.203,3.93 4.879,6.79 9.23,6.79c5.329,0 9.649,-4.29 9.649,-9.581c0,-5.292 -4.32,-9.582 -9.649,-9.582" style="fill:#fff;fill-rule:nonzero;"/><path d="M34.013,33.98c0,0 -0.014,0.021 -0.038,0.07c-0.317,0.568 -2.711,4.58 -7.131,4.58c-3.651,0 -7.168,-4.58 -7.168,-4.58c0,0 3.776,-3.851 7.168,-3.851c3.388,0 7.169,3.781 7.169,3.781" style="fill:#fde29f;fill-rule:nonzero;"/><path d="M33.975,34.05c-0.317,0.568 -2.711,4.58 -7.131,4.58c-3.651,0 -7.168,-4.58 -7.168,-4.58l14.299,0Z" style="fill:#fcd27c;fill-rule:nonzero;"/><path d="M23.064,27.976c0,3.162 -2.565,5.727 -5.727,5.727c-3.163,0 -5.727,-2.565 -5.727,-5.727c0,-3.163 2.564,-5.727 5.727,-5.727c3.162,0 5.727,2.564 5.727,5.727" style="fill:#3d3b37;fill-rule:nonzero;"/><path d="M15.85,23.968c0,0.867 -0.702,1.569 -1.568,1.569c-0.867,0 -1.569,-0.702 -1.569,-1.569c0,-0.866 0.702,-1.569 1.569,-1.569c0.866,0 1.568,0.703 1.568,1.569" style="fill:#fff;fill-rule:nonzero;"/><path d="M42.326,27.976c0,3.162 -2.565,5.727 -5.727,5.727c-3.163,0 -5.727,-2.565 -5.727,-5.727c0,-3.163 2.564,-5.727 5.727,-5.727c3.162,0 5.727,2.564 5.727,5.727" style="fill:#3d3b37;fill-rule:nonzero;"/><path d="M35.112,23.968c0,0.867 -0.702,1.569 -1.568,1.569c-0.867,0 -1.569,-0.702 -1.569,-1.569c0,-0.866 0.702,-1.569 1.569,-1.569c0.866,0 1.568,0.703 1.568,1.569" style="fill:#fff;fill-rule:nonzero;"/><path d="M26.845,49.028c-9.893,0 -17.913,8.718 -17.913,19.47c0,0.532 0.025,1.057 0.064,1.578c3.735,6.551 10.329,10.909 17.848,10.909c7.523,0 14.117,-4.359 17.851,-10.911c0.038,-0.52 0.063,-1.045 0.063,-1.576c0,-10.752 -8.02,-19.47 -17.913,-19.47" style="fill:#c2aa8b;fill-rule:nonzero;"/><path d="M12.83,41.53c-1.188,-0.913 -2.704,-1.268 -4.24,-0.464c-2.278,1.193 -3.823,3.691 -5.033,5.857c-5.46,9.775 -3.633,28.268 -1.136,29.252c0,0 13.526,-12.937 13.511,-23.164c-0.005,-2.964 -0.033,-6.186 -1.206,-8.979c-0.406,-0.969 -1.072,-1.869 -1.896,-2.502" style="fill:#bc9d7e;fill-rule:nonzero;"/><path d="M40.859,41.53c1.189,-0.913 2.705,-1.268 4.241,-0.464c2.277,1.193 3.822,3.691 5.032,5.857c5.46,9.775 3.633,28.268 1.136,29.252c0,0 -13.526,-12.937 -13.51,-23.164c0.004,-2.964 0.033,-6.186 1.205,-8.979c0.407,-0.969 1.073,-1.869 1.896,-2.502" style="fill:#bc9d7e;fill-rule:nonzero;"/><path d="M19.23,73.681c-0.829,0 -1.534,0.516 -1.822,1.243c-0.287,-0.727 -0.993,-1.243 -1.821,-1.243c-0.83,0 -1.536,0.516 -1.822,1.243c-0.287,-0.727 -0.993,-1.243 -1.823,-1.243c-1.083,0 -1.961,0.878 -1.961,1.962l0,4.73c0,1.083 0.878,1.961 1.961,1.961c0.83,0 1.536,-0.516 1.823,-1.243c0.286,0.727 0.992,1.243 1.822,1.243c0.828,0 1.534,-0.516 1.821,-1.243c0.288,0.727 0.993,1.243 1.822,1.243c1.084,0 1.962,-0.878 1.962,-1.961l0,-4.73c0,-1.084 -0.878,-1.962 -1.962,-1.962" style="fill:#fcd27c;fill-rule:nonzero;"/><path d="M41.672,73.681c-0.83,0 -1.535,0.516 -1.822,1.243c-0.287,-0.727 -0.993,-1.243 -1.822,-1.243c-0.829,0 -1.535,0.516 -1.822,1.243c-0.287,-0.727 -0.993,-1.243 -1.822,-1.243c-1.083,0 -1.961,0.878 -1.961,1.962l0,4.73c0,1.083 0.878,1.961 1.961,1.961c0.829,0 1.535,-0.516 1.822,-1.243c0.287,0.727 0.993,1.243 1.822,1.243c0.829,0 1.535,-0.516 1.822,-1.243c0.287,0.727 0.992,1.243 1.822,1.243c1.083,0 1.962,-0.878 1.962,-1.961l0,-4.73c0,-1.084 -0.879,-1.962 -1.962,-1.962" style="fill:#fcd27c;fill-rule:nonzero;"/><path d="M22.898,7.324c0,0 0.091,-0.032 0.222,-0.017c0.128,0.014 0.294,0.07 0.422,0.18c0.132,0.107 0.218,0.259 0.254,0.383c0.037,0.124 0.024,0.221 0.024,0.221c-0.017,0.001 -0.319,-0.143 -0.517,-0.316c-0.206,-0.165 -0.402,-0.435 -0.405,-0.451" style="fill:#fff;fill-rule:nonzero;"/><path d="M24.569,9.67c0,0 0.108,-0.009 0.256,0.04c0.145,0.048 0.325,0.151 0.457,0.305c0.135,0.15 0.214,0.342 0.243,0.492c0.029,0.15 0.007,0.259 0.007,0.259c-0.016,-0.001 -0.318,-0.253 -0.531,-0.504c-0.222,-0.246 -0.432,-0.576 -0.432,-0.592" style="fill:#fff;fill-rule:nonzero;"/><path d="M26.689,11.776c0.015,-0.004 0.251,0.165 0.296,0.384c0.07,0.212 -0.053,0.476 -0.067,0.48c-0.014,0.004 -0.252,-0.164 -0.295,-0.384c-0.07,-0.213 0.052,-0.476 0.066,-0.48" style="fill:#fff;fill-rule:nonzero;"/><path d="M26.621,7.559c0,0 0.095,0.036 0.197,0.127c0.101,0.089 0.215,0.227 0.279,0.389c0.069,0.16 0.087,0.338 0.077,0.472c-0.009,0.136 -0.05,0.229 -0.05,0.229c-0.015,-0.001 -0.265,-0.269 -0.373,-0.558c-0.126,-0.281 -0.14,-0.647 -0.13,-0.659" style="fill:#fff;fill-rule:nonzero;"/><path d="M28.81,8.702c0,0 -0.015,0.139 -0.075,0.326c-0.062,0.185 -0.159,0.423 -0.293,0.639c-0.129,0.218 -0.296,0.416 -0.432,0.554c-0.061,0.068 -0.122,0.114 -0.145,0.162c-0.029,0.045 -0.04,0.081 -0.04,0.081c-0.005,0.012 -0.078,-0.148 0.004,-0.352c0.061,-0.187 0.159,-0.424 0.293,-0.64c0.13,-0.217 0.296,-0.414 0.433,-0.553c0.138,-0.14 0.255,-0.217 0.255,-0.217" style="fill:#fff;fill-rule:nonzero;"/><path d="M31.568,6.947c0.011,0.009 -0.053,0.376 -0.27,0.615c-0.197,0.255 -0.546,0.382 -0.557,0.373c-0.012,-0.01 0.052,-0.376 0.27,-0.614c0.197,-0.255 0.546,-0.383 0.557,-0.374" style="fill:#fff;fill-rule:nonzero;"/><path d="M32.517,7.769c0,0 -0.038,0.131 -0.128,0.296c-0.09,0.164 -0.225,0.371 -0.391,0.549c-0.163,0.18 -0.356,0.333 -0.512,0.438c-0.156,0.104 -0.283,0.153 -0.283,0.153c0,0 0.037,-0.13 0.127,-0.295c0.09,-0.165 0.225,-0.371 0.392,-0.549c0.162,-0.182 0.356,-0.334 0.512,-0.438c0.157,-0.104 0.283,-0.154 0.283,-0.154" style="fill:#fff;fill-rule:nonzero;"/><path d="M20.403,56.896c0,0 0.064,0.111 0.116,0.279c0.05,0.168 0.1,0.393 0.106,0.62c0.011,0.226 -0.02,0.455 -0.058,0.626c-0.038,0.172 -0.094,0.287 -0.094,0.287c0,0 -0.065,-0.111 -0.117,-0.279c-0.051,-0.168 -0.099,-0.393 -0.105,-0.619c-0.011,-0.227 0.02,-0.455 0.058,-0.627c0.038,-0.171 0.094,-0.287 0.094,-0.287" style="fill:#fff;fill-rule:nonzero;"/><path d="M23.707,56.647c0.014,0 0.2,0.281 0.187,0.562c0.014,0.281 -0.172,0.563 -0.187,0.563c-0.015,0 -0.201,-0.282 -0.188,-0.563c-0.013,-0.281 0.173,-0.562 0.188,-0.562" style="fill:#fff;fill-rule:nonzero;"/><path d="M21.1,61.824c0,0 0.105,0.061 0.213,0.196c0.108,0.132 0.219,0.335 0.263,0.557c0.048,0.222 0.027,0.452 -0.02,0.616c-0.046,0.165 -0.119,0.264 -0.119,0.264c0,0 -0.048,-0.112 -0.092,-0.264c-0.044,-0.153 -0.098,-0.347 -0.136,-0.54c-0.042,-0.192 -0.067,-0.392 -0.088,-0.55c-0.019,-0.156 -0.021,-0.279 -0.021,-0.279" style="fill:#fff;fill-rule:nonzero;"/><path d="M25.133,62.341c0,0 0.089,0.023 0.175,0.121c0.084,0.093 0.157,0.255 0.149,0.424c-0.004,0.169 -0.088,0.325 -0.179,0.411c-0.091,0.089 -0.183,0.109 -0.183,0.109c-0.002,-0.019 -0.019,-0.321 -0.012,-0.533c0.001,-0.114 0.021,-0.234 0.028,-0.337c0.012,-0.099 0.022,-0.195 0.022,-0.195" style="fill:#fff;fill-rule:nonzero;"/><path d="M17.977,64.061c0,0 0.124,0.042 0.273,0.165c0.147,0.12 0.313,0.32 0.41,0.554c0.1,0.234 0.126,0.492 0.109,0.681c-0.016,0.19 -0.074,0.311 -0.074,0.311c0,0 -0.064,-0.117 -0.135,-0.278c-0.069,-0.162 -0.163,-0.365 -0.246,-0.568c-0.087,-0.202 -0.166,-0.411 -0.233,-0.575c-0.064,-0.162 -0.104,-0.29 -0.104,-0.29" style="fill:#fff;fill-rule:nonzero;"/><path d="M22.912,68.333c0.067,0.117 0.126,0.219 0.176,0.324c0.058,0.101 0.112,0.199 0.164,0.296c0.104,0.194 0.214,0.377 0.326,0.58l-0.039,-0.028c0.104,0.075 0.202,0.164 0.291,0.273c-0.141,0.004 -0.272,-0.012 -0.397,-0.042l-0.039,-0.028c-0.221,-0.142 -0.38,-0.366 -0.471,-0.609c-0.087,-0.243 -0.105,-0.518 -0.011,-0.766" style="fill:#fff;fill-rule:nonzero;"/><path d="M26.664,66.399c0,0 0.047,0.147 0.059,0.372c0.011,0.222 -0.01,0.521 -0.093,0.804c-0.078,0.285 -0.217,0.551 -0.345,0.734c-0.126,0.184 -0.245,0.286 -0.245,0.286c0,0 0.01,-0.156 0.051,-0.368c0.042,-0.212 0.101,-0.487 0.179,-0.754c0.074,-0.268 0.169,-0.532 0.245,-0.735c0.076,-0.201 0.149,-0.339 0.149,-0.339" style="fill:#fff;fill-rule:nonzero;"/><path d="M24.518,72.646c0,0 0.044,0.103 0.049,0.259c0.006,0.155 -0.022,0.36 -0.11,0.544c-0.083,0.184 -0.222,0.34 -0.344,0.434c-0.122,0.095 -0.23,0.13 -0.23,0.13c-0.007,-0.014 0.081,-0.41 0.234,-0.722c0.141,-0.319 0.386,-0.641 0.401,-0.645" style="fill:#fff;fill-rule:nonzero;"/><path d="M19.516,70.711c0.014,-0.004 0.256,0.161 0.308,0.383c0.078,0.214 -0.037,0.485 -0.05,0.49c-0.015,0.003 -0.258,-0.162 -0.309,-0.384c-0.077,-0.214 0.037,-0.486 0.051,-0.489" style="fill:#fff;fill-rule:nonzero;"/><path d="M30.081,58.959c0,0 0.064,0.095 0.112,0.243c0.046,0.148 0.084,0.348 0.073,0.548c-0.007,0.2 -0.062,0.396 -0.123,0.539c-0.06,0.142 -0.133,0.232 -0.133,0.232c0,0 -0.046,-0.105 -0.076,-0.255c-0.029,-0.148 -0.053,-0.342 -0.043,-0.533c0.007,-0.191 0.049,-0.382 0.091,-0.528c0.043,-0.145 0.099,-0.246 0.099,-0.246" style="fill:#fff;fill-rule:nonzero;"/><path d="M26.888,54.71c0,0 0.073,0.076 0.124,0.212c0.052,0.134 0.087,0.326 0.057,0.512c-0.026,0.187 -0.114,0.36 -0.202,0.473c-0.089,0.115 -0.181,0.167 -0.181,0.167c-0.01,-0.012 -0.04,-0.386 0.012,-0.695c0.04,-0.311 0.176,-0.66 0.19,-0.669" style="fill:#fff;fill-rule:nonzero;"/><path d="M29.652,53.332c0,0 0.08,0.087 0.151,0.234c0.07,0.147 0.136,0.351 0.149,0.563c0.017,0.21 -0.02,0.423 -0.07,0.577c-0.048,0.156 -0.117,0.252 -0.117,0.252c0,0 -0.052,-0.105 -0.093,-0.257c-0.041,-0.152 -0.082,-0.349 -0.094,-0.547c-0.016,-0.196 -0.001,-0.397 0.017,-0.553c0.02,-0.155 0.057,-0.269 0.057,-0.269" style="fill:#fff;fill-rule:nonzero;"/><path d="M34.789,60.018c0,0 0.086,0.115 0.151,0.315c0.065,0.198 0.111,0.476 0.082,0.752c-0.026,0.276 -0.123,0.54 -0.227,0.721c-0.102,0.182 -0.209,0.279 -0.209,0.279c0,0 -0.004,-0.144 0.008,-0.34c0.014,-0.197 0.028,-0.449 0.055,-0.697c0.022,-0.248 0.058,-0.499 0.082,-0.694c0.026,-0.193 0.058,-0.336 0.058,-0.336" style="fill:#fff;fill-rule:nonzero;"/><path d="M31.509,64.21c0,0 0.08,0.129 0.133,0.347c0.053,0.214 0.08,0.513 0.029,0.804c-0.046,0.292 -0.167,0.566 -0.288,0.751c-0.12,0.187 -0.238,0.285 -0.238,0.285c0,0 0.01,-0.153 0.041,-0.36c0.033,-0.207 0.07,-0.474 0.116,-0.738c0.042,-0.263 0.094,-0.528 0.13,-0.735c0.038,-0.204 0.077,-0.354 0.077,-0.354" style="fill:#fff;fill-rule:nonzero;"/><path d="M29.892,70.459c0,0 0.069,0.053 0.118,0.158c0.048,0.101 0.079,0.25 0.047,0.391c-0.027,0.144 -0.113,0.269 -0.198,0.342c-0.085,0.075 -0.17,0.099 -0.17,0.099c-0.008,-0.015 -0.049,-0.308 0.001,-0.516c0.037,-0.211 0.189,-0.463 0.202,-0.474" style="fill:#fff;fill-rule:nonzero;"/><path d="M27.846,75.272c0,0 0.058,0.085 0.091,0.219c0.032,0.133 0.047,0.314 0.007,0.485c-0.035,0.173 -0.123,0.332 -0.208,0.438c-0.085,0.108 -0.174,0.162 -0.174,0.162c-0.012,-0.009 -0.06,-0.376 0.016,-0.679c0.057,-0.308 0.253,-0.62 0.268,-0.625" style="fill:#fff;fill-rule:nonzero;"/><path d="M33.447,68.461c0,0 0.07,0.035 0.13,0.105c0.059,0.069 0.115,0.172 0.123,0.281c0.012,0.109 -0.024,0.22 -0.071,0.298c-0.046,0.079 -0.109,0.126 -0.109,0.126c-0.015,-0.004 -0.189,-0.206 -0.194,-0.39c-0.027,-0.183 0.108,-0.412 0.121,-0.42" style="fill:#fff;fill-rule:nonzero;"/><path d="M35.465,65.457c0,0 0.09,0.097 0.175,0.264c0.085,0.166 0.171,0.399 0.201,0.641c0.033,0.242 0.012,0.49 -0.027,0.672c-0.039,0.182 -0.102,0.3 -0.102,0.3c0,0 -0.058,-0.119 -0.109,-0.293c-0.05,-0.174 -0.107,-0.401 -0.134,-0.629c-0.033,-0.229 -0.036,-0.463 -0.033,-0.644c0.004,-0.18 0.029,-0.311 0.029,-0.311" style="fill:#fff;fill-rule:nonzero;"/></svg>