<?xml version="1.0" encoding="UTF-8" standalone="no"?><!DOCTYPE svg PUBLIC "-//W3C//DTD SVG 1.1//EN" "http://www.w3.org/Graphics/SVG/1.1/DTD/svg11.dtd"><svg width="100%" height="100%" viewBox="0 0 78 80" version="1.1" xmlns="http://www.w3.org/2000/svg" xmlns:xlink="http://www.w3.org/1999/xlink" xml:space="preserve" style="fill-rule:evenodd;clip-rule:evenodd;stroke-linejoin:round;stroke-miterlimit:1.41421;"><path d="M72.652,19.005c3.56,-4.44 2.849,-10.925 -1.591,-14.488c-4.439,-3.561 -10.925,-2.849 -14.487,1.591l-2.12,2.643c-4.257,-1.713 -8.904,-2.666 -13.775,-2.666c-4.872,0 -9.517,0.953 -13.776,2.666l-2.119,-2.643c-3.563,-4.44 -10.049,-5.152 -14.488,-1.591c-4.44,3.563 -5.15,10.048 -1.591,14.488l1.984,2.473c-4.362,6.064 -6.939,13.497 -6.939,21.537c0,18.728 13.945,34.19 32.015,36.593c0.193,0.027 0.386,0.051 0.579,0.074c0.315,0.037 0.63,0.072 0.947,0.1c0.319,0.03 0.642,0.052 0.964,0.074c0.231,0.015 0.462,0.034 0.693,0.043c0.574,0.027 1.151,0.045 1.731,0.045c0.58,0 1.155,-0.018 1.729,-0.045c0.233,-0.009 0.465,-0.029 0.697,-0.043c0.321,-0.022 0.64,-0.044 0.958,-0.074c0.321,-0.028 0.638,-0.063 0.955,-0.101c0.189,-0.022 0.377,-0.046 0.565,-0.071c18.075,-2.401 32.023,-17.864 32.023,-36.595c0,-8.04 -2.577,-15.473 -6.939,-21.537l1.985,-2.473Z" style="fill:#1b0000;fill-opacity:0.2;"/><path d="M0,40.765c0,-20.395 16.533,-36.929 36.928,-36.929c20.396,0 36.929,16.534 36.929,36.929c0,20.395 -16.533,36.928 -36.929,36.928c-20.395,0 -36.928,-16.533 -36.928,-36.928" style="fill:#fff;fill-rule:nonzero;"/><path d="M8.161,41.056c0,-5.195 4.211,-9.405 9.406,-9.405c5.191,0 9.404,4.21 9.404,9.405c0,5.194 -4.213,9.407 -9.404,9.407c-5.195,0 -9.406,-4.213 -9.406,-9.407" style="fill:#3c3c3b;fill-rule:nonzero;"/><path d="M46.885,41.056c0,-5.195 4.212,-9.405 9.406,-9.405c5.191,0 9.404,4.21 9.404,9.405c0,5.194 -4.213,9.407 -9.404,9.407c-5.194,0 -9.406,-4.213 -9.406,-9.407" style="fill:#3c3c3b;fill-rule:nonzero;"/><path d="M36.929,51.504c-6.583,0 -11.921,5.131 -11.921,11.462l0,12.718c3.72,1.3 7.734,2.01 11.921,2.01c4.185,0 8.198,-0.71 11.918,-2.01l0,-12.718c0,-6.331 -5.337,-11.462 -11.918,-11.462" style="fill:#f6f6f6;fill-rule:nonzero;"/><path d="M6.546,2.267c4.44,-3.561 10.925,-2.849 14.487,1.591l3.236,4.034l-16.079,12.897l-3.234,-4.035c-3.56,-4.44 -2.85,-10.924 1.59,-14.487" style="fill:#3c3c3b;fill-rule:nonzero;"/><path d="M67.311,2.267c-4.439,-3.561 -10.925,-2.849 -14.486,1.591l-3.236,4.034l16.077,12.897l3.236,-4.035c3.56,-4.44 2.849,-10.924 -1.591,-14.487" style="fill:#3c3c3b;fill-rule:nonzero;"/><path d="M14.046,40.747c0.296,-1.488 1.741,-2.454 3.228,-2.159c1.49,0.296 2.457,1.742 2.16,3.23c-0.039,0.191 -0.096,0.371 -0.168,0.542c-0.345,-0.464 -0.889,-0.821 -1.667,-0.977c-1.402,-0.277 -2.551,0.319 -3.262,1.227c-0.305,-0.547 -0.425,-1.202 -0.291,-1.863m1.845,4.801c2.356,0.469 4.645,-1.06 5.115,-3.416c0.468,-2.357 -1.062,-4.646 -3.418,-5.115c-2.356,-0.47 -4.644,1.06 -5.114,3.417c-0.469,2.356 1.06,4.645 3.417,5.114" style="fill:#fff;fill-rule:nonzero;"/><path d="M17.599,41.383c0.778,0.155 1.322,0.513 1.668,0.977c0.071,-0.171 0.129,-0.351 0.166,-0.542c0.298,-1.488 -0.669,-2.934 -2.159,-3.23c-1.487,-0.296 -2.933,0.671 -3.228,2.158c-0.134,0.662 -0.014,1.317 0.291,1.865c0.711,-0.908 1.861,-1.505 3.262,-1.228" style="fill-rule:nonzero;"/><path d="M58.893,42.611c-0.71,-0.909 -1.86,-1.505 -3.262,-1.228c-0.778,0.155 -1.321,0.513 -1.667,0.977c-0.072,-0.171 -0.129,-0.352 -0.167,-0.542c-0.297,-1.488 0.67,-2.934 2.159,-3.23c1.487,-0.296 2.933,0.671 3.229,2.159c0.133,0.661 0.013,1.316 -0.292,1.864m1.863,-2.177c-0.47,-2.356 -2.757,-3.886 -5.113,-3.417c-2.357,0.47 -3.887,2.758 -3.419,5.114c0.47,2.357 2.76,3.886 5.115,3.417c2.357,-0.468 3.886,-2.759 3.417,-5.114" style="fill:#fff;fill-rule:nonzero;"/><path d="M55.631,41.383c-0.778,0.155 -1.321,0.513 -1.667,0.977c-0.071,-0.171 -0.129,-0.351 -0.167,-0.542c-0.297,-1.488 0.669,-2.934 2.16,-3.23c1.486,-0.296 2.932,0.671 3.228,2.158c0.133,0.662 0.013,1.317 -0.291,1.865c-0.711,-0.908 -1.861,-1.505 -3.263,-1.228" style="fill-rule:nonzero;"/><path d="M36.929,56.595c-0.205,-0.011 -0.411,-0.017 -0.612,-0.02l-0.002,9.635c-1.246,2.183 -2.82,3.42 -4.683,3.679c-3.957,0.539 -9.407,-4.155 -9.607,-3.954c4.219,4.709 10.92,7.628 14.904,1.62c3.983,6.008 10.683,3.089 14.903,-1.62c-0.2,-0.201 -5.65,4.493 -9.608,3.954c-1.862,-0.259 -3.436,-1.496 -4.683,-3.679l0,-9.635c-0.204,0.003 -0.409,0.009 -0.612,0.02"/><path d="M36.927,47.302c-10.1,-0.107 -10.012,3.552 -4.728,7.281c1.925,1.359 3.552,2.266 4.728,2.841c1.176,-0.575 2.805,-1.482 4.731,-2.841c5.283,-3.729 5.371,-7.388 -4.731,-7.281" style="fill:#3c3c3b;"/></svg>