<?xml version="1.0" encoding="UTF-8" standalone="no"?><!DOCTYPE svg PUBLIC "-//W3C//DTD SVG 1.1//EN" "http://www.w3.org/Graphics/SVG/1.1/DTD/svg11.dtd"><svg width="100%" height="100%" viewBox="0 0 48 96" version="1.1" xmlns="http://www.w3.org/2000/svg" xmlns:xlink="http://www.w3.org/1999/xlink" xml:space="preserve" style="fill-rule:evenodd;clip-rule:evenodd;stroke-linejoin:round;stroke-miterlimit:1.41421;"><path d="M31.531,57.912l-6.869,0l-0.313,0l-6.869,0c0,0 -7.317,8.401 -6.639,20.867c0.634,11.668 12.188,11.822 13.664,11.793c1.477,0.029 13.031,-0.125 13.665,-11.793c0.678,-12.466 -6.639,-20.867 -6.639,-20.867" style="fill:#d0b695;fill-rule:nonzero;"/><path d="M32.956,77.548c0,5.742 -3.784,10.398 -8.45,10.398c-4.668,0 -8.451,-4.656 -8.451,-10.398c0,-5.743 3.783,-10.398 8.451,-10.398c4.666,0 8.45,4.655 8.45,10.398" style="fill:#f5f5f5;fill-rule:nonzero;"/><path d="M41.284,1.295c-11.59,-8.767 -13.882,29.852 -13.882,29.852l3.19,4.061c0,0 22.281,-25.145 10.692,-33.913" style="fill:#d0b695;fill-rule:nonzero;"/><path d="M38.641,11.028c-6.481,-4.902 -7.762,16.692 -7.762,16.692l1.784,2.271c0,0 12.459,-14.06 5.978,-18.963" style="fill:#a38561;fill-rule:nonzero;"/><path d="M6.898,1.295c11.589,-8.767 13.881,29.852 13.881,29.852l-3.189,4.061c0,0 -22.282,-25.145 -10.692,-33.913" style="fill:#d0b695;fill-rule:nonzero;"/><path d="M9.54,11.028c6.481,-4.902 7.762,16.692 7.762,16.692l-1.783,2.271c0,0 -12.459,-14.06 -5.979,-18.963" style="fill:#a38561;fill-rule:nonzero;"/><path d="M43.076,41.251c-6.595,-14.436 -14.098,-15.965 -16.92,-15.981c-1.204,-0.09 -3.527,0.006 -3.527,0.006c-2.99,0.104 -10.263,1.936 -16.676,15.975c-1.538,3.366 -2.25,7.241 -0.75,10.749c1.225,2.869 3.66,5.01 6.293,6.576c3.445,2.049 7.338,3.789 11.417,4.152c4.28,0.381 8.378,-1.107 12.203,-2.883c2.976,-1.383 5.898,-3.289 7.744,-6.065c2.13,-3.203 2.196,-7.048 0.982,-10.615c-0.221,-0.651 -0.48,-1.289 -0.766,-1.914" style="fill:#d0b695;fill-rule:nonzero;"/><path d="M7.876,50.109c-3.561,-1.656 -7.753,-0.762 -7.795,-0.753l-0.081,-0.366c0.176,-0.039 4.361,-0.93 8.034,0.78l-0.158,0.339Z" style="fill:#a38561;fill-rule:nonzero;"/><path d="M0.208,54.573l-0.189,-0.324c0.156,-0.091 3.866,-2.221 7.886,-1.722l-0.046,0.372c-3.896,-0.481 -7.614,1.653 -7.651,1.674" style="fill:#a38561;fill-rule:nonzero;"/><path d="M2.355,60.234l-0.299,-0.225c0.108,-0.144 2.701,-3.545 6.603,-4.641l0.101,0.361c-3.777,1.061 -6.379,4.471 -6.405,4.505" style="fill:#a38561;fill-rule:nonzero;"/><path d="M39.978,50.109l-0.158,-0.339c3.675,-1.71 7.857,-0.819 8.033,-0.78l-0.08,0.366c-0.042,-0.009 -4.239,-0.901 -7.795,0.753" style="fill:#a38561;fill-rule:nonzero;"/><path d="M47.645,54.573c-0.037,-0.022 -3.758,-2.157 -7.651,-1.674l-0.045,-0.372c4.018,-0.498 7.729,1.631 7.885,1.722l-0.189,0.324Z" style="fill:#a38561;fill-rule:nonzero;"/><path d="M45.499,60.234c-0.026,-0.034 -2.629,-3.444 -6.405,-4.505l0.101,-0.361c3.902,1.096 6.495,4.497 6.603,4.641l-0.299,0.225Z" style="fill:#a38561;fill-rule:nonzero;"/><path d="M17.363,43.158c0,1.036 -0.84,1.876 -1.876,1.876c-1.037,0 -1.876,-0.84 -1.876,-1.876c0,-1.036 0.839,-1.876 1.876,-1.876c1.036,0 1.876,0.84 1.876,1.876" style="fill:#3d3b37;fill-rule:nonzero;"/><path d="M35.4,43.158c0,1.036 -0.84,1.876 -1.876,1.876c-1.035,0 -1.875,-0.84 -1.875,-1.876c0,-1.036 0.84,-1.876 1.875,-1.876c1.036,0 1.876,0.84 1.876,1.876" style="fill:#3d3b37;fill-rule:nonzero;"/><path d="M29.193,54.464c0,3.669 -2.482,6.643 -5.543,6.643c-3.062,0 -5.543,-2.974 -5.543,-6.643c0,-3.669 2.481,-6.643 5.543,-6.643c3.061,0 5.543,2.974 5.543,6.643" style="fill:#fff;fill-rule:nonzero;"/><path d="M21.551,50.958c0.034,-0.576 1.61,-0.748 2.185,-0.748c0.576,0 1.993,0.212 2.013,0.748c0.023,0.585 -1.668,1.438 -2.099,1.438c-0.431,0 -2.134,-0.855 -2.099,-1.438" style="fill:#3d3b37;fill-rule:nonzero;"/><path d="M13.024,77.547c-0.794,-1.435 -3.282,-1.474 -4.708,-1.327c-1.706,0.177 -3.832,1.303 -4.387,3.029c-0.462,1.435 0.23,3.045 0.941,4.265c1.615,2.771 4.129,4.949 6.496,7.06c0,0 -10.616,2.291 -9.161,4.189c1.455,1.899 18.328,-1.119 16.867,-5.024c-1.461,-3.901 -6.035,-12.169 -6.048,-12.192" style="fill:#d0b695;fill-rule:nonzero;"/><path d="M36.241,77.547c0.795,-1.435 3.283,-1.474 4.709,-1.327c1.705,0.177 3.832,1.303 4.387,3.029c0.462,1.435 -0.229,3.045 -0.942,4.265c-1.614,2.771 -4.128,4.949 -6.495,7.06c0,0 10.616,2.291 9.161,4.189c-1.455,1.899 -18.329,-1.119 -16.867,-5.024c1.46,-3.901 6.035,-12.169 6.047,-12.192" style="fill:#d0b695;fill-rule:nonzero;"/><path d="M21.079,73.47c-4.129,-2.29 -3.911,-8.938 -3.911,-8.938l0,-0.369l-4.516,7.682c5.17,11.375 12.557,3.915 8.427,1.625" style="fill:#d0b695;fill-rule:nonzero;"/><path d="M28.957,73.47c4.13,-2.29 3.912,-8.938 3.912,-8.938l0,-0.369l4.516,7.682c-5.17,11.375 -12.557,3.915 -8.428,1.625" style="fill:#d0b695;fill-rule:nonzero;"/><path d="M22.588,29.575c0,0 0.1,-0.05 0.245,-0.08c0.145,-0.028 0.336,-0.048 0.523,-0.026c0.188,0.018 0.371,0.077 0.506,0.137c0.135,0.06 0.222,0.131 0.222,0.131c0,0 -0.1,0.049 -0.245,0.079c-0.145,0.029 -0.337,0.048 -0.523,0.026c-0.187,-0.018 -0.37,-0.078 -0.505,-0.138c-0.136,-0.06 -0.223,-0.129 -0.223,-0.129" style="fill:#fff;fill-rule:nonzero;"/><path d="M23.466,30.825c0,0 0.094,-0.041 0.234,-0.047c0.137,-0.007 0.319,0.012 0.483,0.084c0.164,0.068 0.306,0.184 0.396,0.288c0.09,0.105 0.128,0.202 0.128,0.202c-0.011,0.01 -0.384,-0.013 -0.671,-0.145c-0.294,-0.115 -0.569,-0.367 -0.57,-0.382" style="fill:#fff;fill-rule:nonzero;"/><path d="M22.586,32.846c0,0 0.102,-0.034 0.242,-0.043c0.141,-0.007 0.323,0.001 0.494,0.05c0.348,0.08 0.642,0.354 0.639,0.368c-0.004,0.014 -0.397,0.101 -0.737,-0.007c-0.172,-0.045 -0.334,-0.13 -0.451,-0.208c-0.117,-0.079 -0.187,-0.16 -0.187,-0.16" style="fill:#fff;fill-rule:nonzero;"/><path d="M25.463,34.076c0,0 0.102,-0.049 0.261,-0.058c0.156,-0.011 0.368,0.015 0.555,0.107c0.189,0.087 0.343,0.233 0.434,0.361c0.091,0.129 0.118,0.24 0.118,0.24c-0.015,0.005 -0.404,-0.11 -0.714,-0.263c-0.313,-0.144 -0.648,-0.372 -0.654,-0.387" style="fill:#fff;fill-rule:nonzero;"/><path d="M25.976,32.669c0.005,-0.014 0.333,-0.109 0.605,-0.014c0.279,0.07 0.5,0.331 0.496,0.345c-0.004,0.014 -0.333,0.11 -0.604,0.014c-0.279,-0.07 -0.501,-0.331 -0.497,-0.345" style="fill:#fff;fill-rule:nonzero;"/><path d="M25.824,30.113c0.008,-0.012 0.335,-0.01 0.548,0.154c0.228,0.142 0.342,0.449 0.334,0.461c-0.008,0.012 -0.335,0.011 -0.548,-0.154c-0.228,-0.143 -0.342,-0.449 -0.334,-0.461" style="fill:#fff;fill-rule:nonzero;"/><path d="M34.165,66.773c0,0 0.18,0.077 0.413,0.252c0.231,0.172 0.514,0.441 0.734,0.759c0.224,0.315 0.381,0.671 0.465,0.948c0.085,0.277 0.097,0.474 0.097,0.474c0,0 -0.125,-0.153 -0.286,-0.381c-0.16,-0.225 -0.371,-0.526 -0.583,-0.826c-0.21,-0.301 -0.421,-0.602 -0.578,-0.828c-0.16,-0.229 -0.262,-0.398 -0.262,-0.398" style="fill:#fff;fill-rule:nonzero;"/><path d="M33.564,68.621c0,0 0.207,0.101 0.482,0.303c0.273,0.201 0.615,0.501 0.908,0.846c0.295,0.343 0.538,0.728 0.694,1.03c0.157,0.302 0.224,0.523 0.224,0.523c0.001,0 -0.17,-0.157 -0.397,-0.402c-0.226,-0.246 -0.523,-0.572 -0.806,-0.907c-0.287,-0.332 -0.561,-0.677 -0.77,-0.939c-0.206,-0.262 -0.335,-0.454 -0.335,-0.454" style="fill:#fff;fill-rule:nonzero;"/><path d="M34.261,71.943c0,0 0.099,0.052 0.206,0.161c0.106,0.109 0.225,0.27 0.297,0.453c0.075,0.182 0.101,0.381 0.099,0.533c-0.001,0.152 -0.037,0.259 -0.037,0.259c0,0 -0.082,-0.078 -0.166,-0.199c-0.082,-0.121 -0.178,-0.282 -0.244,-0.453c-0.071,-0.169 -0.112,-0.352 -0.136,-0.497c-0.024,-0.144 -0.019,-0.257 -0.019,-0.257" style="fill:#fff;fill-rule:nonzero;"/><path d="M5.719,80.098c0,0 0.022,0.19 0.066,0.444c0.038,0.258 0.124,0.584 0.232,0.898c0.113,0.313 0.252,0.62 0.384,0.845c0.136,0.233 0.227,0.387 0.227,0.387c0,0 -0.178,-0.066 -0.39,-0.252c-0.214,-0.183 -0.449,-0.495 -0.574,-0.855c-0.129,-0.36 -0.14,-0.749 -0.09,-1.025c0.049,-0.282 0.145,-0.442 0.145,-0.442" style="fill:#fff;fill-rule:nonzero;"/><path d="M6.205,83.602c0,0 0.111,0.019 0.246,0.079c0.134,0.062 0.3,0.158 0.439,0.285c0.142,0.125 0.255,0.28 0.33,0.407c0.074,0.129 0.104,0.236 0.104,0.236c0,0 -0.11,-0.018 -0.245,-0.079c-0.135,-0.061 -0.301,-0.157 -0.439,-0.285c-0.142,-0.124 -0.255,-0.28 -0.33,-0.407c-0.075,-0.128 -0.105,-0.236 -0.105,-0.236" style="fill:#fff;fill-rule:nonzero;"/><path d="M7.469,80.839c0,0 0.115,0.039 0.253,0.127c0.137,0.089 0.306,0.22 0.444,0.379c0.141,0.156 0.25,0.34 0.321,0.488c0.07,0.148 0.095,0.267 0.095,0.267c0,0 -0.115,-0.039 -0.254,-0.127c-0.138,-0.089 -0.306,-0.221 -0.443,-0.38c-0.141,-0.156 -0.25,-0.34 -0.321,-0.488c-0.07,-0.148 -0.095,-0.266 -0.095,-0.266" style="fill:#fff;fill-rule:nonzero;"/><path d="M9.089,84.468c0,0 0.123,0.053 0.276,0.145c0.152,0.094 0.346,0.219 0.523,0.361c0.18,0.138 0.347,0.296 0.476,0.422c0.126,0.126 0.206,0.232 0.206,0.232c0,0 -0.134,0.003 -0.314,-0.051c-0.179,-0.051 -0.407,-0.155 -0.599,-0.309c-0.196,-0.15 -0.349,-0.348 -0.443,-0.509c-0.095,-0.163 -0.125,-0.291 -0.125,-0.291" style="fill:#fff;fill-rule:nonzero;"/></svg>