<?xml version="1.0" encoding="UTF-8" standalone="no"?><!DOCTYPE svg PUBLIC "-//W3C//DTD SVG 1.1//EN" "http://www.w3.org/Graphics/SVG/1.1/DTD/svg11.dtd"><svg width="100%" height="100%" viewBox="0 0 343 304" version="1.1" xmlns="http://www.w3.org/2000/svg" xmlns:xlink="http://www.w3.org/1999/xlink" xml:space="preserve" style="fill-rule:evenodd;clip-rule:evenodd;stroke-linejoin:round;stroke-miterlimit:1.41421;"><path d="M279.534,109.459c-4.834,0 -8.781,-3.94 -8.781,-8.784c0,-4.838 3.947,-8.775 8.781,-8.775c4.844,0 8.775,3.937 8.775,8.775c0,4.844 -3.931,8.784 -8.775,8.784Zm44.897,-5.103l-0.134,-0.181c-2.85,-3.919 -5.819,-7.972 -8.934,-12.497c-14.363,-20.85 -27.672,-30.981 -40.716,-30.981c-0.594,0 -1.185,0.012 -1.785,0.069c-3.156,-4.797 -13.043,-22.341 -21.45,-37.666c-9.278,-14.184 -17.962,-21.725 -26.634,-23.034l-0.828,-0.066c-3.087,0 -5.759,2.2 -7.937,6.597c-0.901,2.319 -0.301,6.037 8.381,25.859c-6.4,-10.709 -13.647,-21.212 -22.7,-24.587c-2.241,-0.844 -4.119,-1.232 -5.8,-1.232c-3.482,0 -5.278,1.725 -6.169,3.188c-2.566,4.15 -0.941,11.884 4.931,23.578c6.032,14.116 11.181,26.306 14.481,34.328c5.216,12.856 5.401,17.069 5.701,23.478l0.021,0.678c0.091,1.441 0.15,2.975 0.3,4.813c0.11,0.794 -0.784,1.747 -2.512,2.7c-1.522,0.831 -2.972,1.291 -4.078,1.291c-0.347,0 -0.66,-0.038 -0.853,-0.125c-9.391,-4.172 -16.563,-7.475 -21.363,-9.85l-0.656,-0.257c-17.697,-4.09 -34.075,-6.165 -48.644,-6.165c-67.041,0 -86.006,43.619 -96.206,67.062l-0.756,1.775l-0.185,0.575c-4.487,21.316 -7.337,42.285 -8.484,62.347c-2.038,-1.959 -4.316,-4.331 -6.344,-6.447c-7.525,-7.869 -11.619,-11.965 -15.3,-11.965c-6.491,0 -9.778,5.606 -9.778,16.662c0,11.05 12.716,32.625 29.109,43.863c3.46,2.487 7.647,2.453 11.95,-0.085c1.503,-0.919 2.41,-1.253 2.866,-1.381c7.787,7.247 14.341,12.847 19.494,16.616c1.981,2.675 4.087,5.312 6.218,7.868c3.288,4.172 6.085,6.753 8.557,7.907c7.6,3.306 18.859,5.771 34.434,7.568c7.747,0.982 19.247,2.835 28.484,4.31l1.422,0.209c4.653,0.75 7.435,1.197 9.088,1.45l0.031,0.531l0.75,-0.034c1.322,-0.069 2.703,-0.172 3.734,-0.75c4.566,-1.175 7.916,-3.834 9.994,-7.984c3.841,-7.744 1.581,-12.65 -1,-15.429c-1.293,-1.337 -4.484,-3.859 -9.744,-7.675c-2.046,-1.496 -4.712,-2.693 -7.109,-3.709c39.828,4.391 70.059,9.147 74.669,11.728c5.162,12.007 15.844,19.15 31.891,21.294c7.553,0 12.781,-2.928 15.465,-8.684c2.65,-5.235 0.428,-11.097 -6.628,-17.528l-10.569,-7.826c-3.565,-2.521 -5.84,-5.056 -7.25,-8.178c-3.262,-4.759 -3.031,-6.675 -2.962,-7.006c0.043,-0.175 0.109,-0.416 0.6,-0.694c11.475,-6.268 21.869,-16.181 30.865,-29.481c8.282,-12.222 12.847,-24.45 13.575,-36.381c10.438,-0.675 24.725,-8.706 34.994,-15.378c12.672,-8.238 19.091,-17.95 19.091,-28.85c0.012,-12.191 -7.753,-22.816 -17.588,-36.238Z" style="fill:#9edae0;fill-rule:nonzero;"/><path d="M287.584,97.275c0,3.128 -2.537,5.666 -5.665,5.666c-3.128,0 -5.663,-2.538 -5.663,-5.666c0,-3.125 2.535,-5.662 5.663,-5.662c3.128,0 5.665,2.537 5.665,5.662Z" style="fill:#343b3d;fill-rule:nonzero;"/><path d="M263.925,132.756c0,6.253 -5.075,11.325 -11.331,11.325c-6.253,0 -11.325,-5.072 -11.325,-11.325c0,-6.259 5.072,-11.328 11.325,-11.328c6.256,0 11.331,5.069 11.331,11.328Z" style="fill:#f7a7ac;fill-rule:nonzero;"/><path d="M267.756,125.887l55.031,5.21c0.429,0.04 0.81,-0.278 0.85,-0.71c0.041,-0.428 -0.275,-0.809 -0.703,-0.85l-55.031,-5.209c-0.428,-0.04 -0.809,0.275 -0.85,0.703c-0.04,0.431 0.275,0.816 0.703,0.856Z" style="fill:#6b7f85;fill-rule:nonzero;"/><path d="M269.047,153.956l53.159,-20.465c0.403,-0.154 0.603,-0.607 0.45,-1.01c-0.156,-0.4 -0.609,-0.603 -1.009,-0.447l-53.163,20.463c-0.403,0.156 -0.603,0.609 -0.446,1.012c0.153,0.4 0.606,0.604 1.009,0.447Z" style="fill:#6b7f85;fill-rule:nonzero;"/><path d="M286.706,162.247l37.185,-28.869c0.34,-0.262 0.403,-0.753 0.137,-1.094c-0.265,-0.34 -0.756,-0.403 -1.097,-0.137l-37.184,28.865c-0.341,0.263 -0.403,0.754 -0.138,1.097c0.266,0.341 0.757,0.4 1.097,0.138Z" style="fill:#6b7f85;fill-rule:nonzero;"/><path d="M336.466,122.144l-14.3,8.028l19.693,13.197c0,0 -3.762,-18.447 -5.393,-21.225Z" style="fill:#f26e75;fill-rule:nonzero;"/><path d="M224.628,79.641l20.834,-11.46c0,0 -17.709,-36.456 -34.375,-45.831c-16.668,-9.375 4.166,40.625 13.541,57.291Z" style="fill:#c5c9c9;fill-rule:nonzero;"/><path d="M248.728,63.034l15.197,-9.85c0,0 -12.916,-31.334 -25.072,-39.39c-12.156,-8.06 3.041,34.915 9.875,49.24Z" style="fill:#c5c9c9;fill-rule:nonzero;"/><path d="M334.497,159.619l-11.088,0l2.963,7.422l8.125,-7.422Z" style="fill:#6b7f85;fill-rule:nonzero;"/><path d="M164.472,285.831l-13.081,-4.569l13.081,9.691l0,-5.122Z" style="fill:#6b7f85;fill-rule:nonzero;"/><path d="M163.578,296.016l-11.297,-5.063l10,7.197l1.297,-2.134Z" style="fill:#6b7f85;fill-rule:nonzero;"/><path d="M267.853,280.794l-10.284,0l11.637,2.325l-1.353,-2.325Z" style="fill:#6b7f85;fill-rule:nonzero;"/><path d="M270.281,290.022l-10.106,-4.844l9.216,7.431l0.89,-2.587Z" style="fill:#6b7f85;fill-rule:nonzero;"/></svg>