<?xml version="1.0" encoding="UTF-8" standalone="no"?><!DOCTYPE svg PUBLIC "-//W3C//DTD SVG 1.1//EN" "http://www.w3.org/Graphics/SVG/1.1/DTD/svg11.dtd"><svg width="100%" height="100%" viewBox="0 0 826 601" version="1.1" xmlns="http://www.w3.org/2000/svg" xmlns:xlink="http://www.w3.org/1999/xlink" xml:space="preserve" style="fill-rule:evenodd;clip-rule:evenodd;stroke-linejoin:round;stroke-miterlimit:1.41421;"><path d="M398.204,466.349c12.203,7.584 25.725,13.106 39.978,14.25c4.794,18.478 6.444,37.768 4.86,56.796c-23.428,2.869 -47.11,4.041 -70.735,3.447c1.722,-2.828 3.157,-5.872 4.522,-8.887c9.544,-21.044 19.216,-42.741 21.375,-65.606Z" style="fill:#b8a28e;fill-rule:nonzero;"/><path d="M4.248,252.636c-6.047,-35.975 -5.797,-72.909 1.772,-108.606c2.056,-9.713 4.672,-19.419 9.375,-28.16c12.456,-23.146 38.772,-36.765 65.003,-38.421c26.231,-1.66 52.219,7.287 74.988,20.422c11.206,6.462 21.671,13.903 31.484,22.112c-2.537,5.619 -6.287,10.678 -10.184,15.5c-44.319,54.838 -105.157,96.094 -172.438,117.153Z" style="fill:#b8a28e;fill-rule:nonzero;"/><path d="M322.864,371.314c9.459,20.96 21.006,41.35 35.475,59.125c-12.263,38.256 -33.656,73.55 -61.91,102.11c-26.759,-5.25 -53.006,-12.972 -78.237,-23.4c-12.491,-5.16 -24.703,-11.022 -36.597,-17.482c59.138,-22.1 110.05,-65.481 141.269,-120.353Z" style="fill:#b8a28e;fill-rule:nonzero;"/><path d="M48.954,332.08c4.207,1.275 8.55,2.078 12.935,2.39c-2.463,-4.224 -3.585,-9.218 -3.166,-14.09c3.519,4.437 8.963,7.294 14.616,7.665c0.059,-5.121 0.115,-10.246 0.175,-15.371c2.319,4.353 7.84,6.184 12.74,5.621c4.903,-0.562 9.347,-3.031 13.647,-5.45c15.866,-8.934 31.735,-17.865 47.6,-26.796c13.494,-7.597 27.022,-15.216 39.497,-24.385c16.441,-12.087 30.828,-26.703 45.138,-41.25c6.69,-6.8 13.378,-13.6 20.068,-20.4c11.888,20.535 22.003,42.228 30.547,64.163c2.419,6.209 4.716,12.465 6.981,18.737c-0.353,0.769 -0.7,1.541 -1.074,2.297c-15.16,30.556 -40.975,54.613 -68.876,74.238c-1.768,1.243 -3.8,2.534 -5.931,2.159c-2.44,-0.428 -4.781,-2.962 -6.95,-1.762c-0.681,2.921 -0.897,5.949 -0.637,8.937c-3.8,0.947 -7.841,0.919 -11.628,-0.084c0.193,5.393 -5.491,9.503 -10.885,9.653c-5.394,0.15 -10.422,-2.503 -15.159,-5.085c-0.663,8.132 -1.572,16.869 -6.934,23.013c-3.038,3.481 -7.21,5.744 -11.335,7.825c-18.165,9.153 -37.384,16.2 -57.147,21.015c-18.043,-18.446 -34.097,-38.796 -47.5,-60.896c-4.309,-7.11 -8.284,-14.422 -12.025,-21.857c6.066,-1.581 11.6,-5.222 15.303,-10.287Z" style="fill:#b8a28e;fill-rule:nonzero;"/><path d="M358.339,430.439c9.215,11.322 19.606,21.588 31.415,30.241c2.729,2 5.563,3.875 8.45,5.669c-2.159,22.865 -11.831,44.562 -21.375,65.606c-1.365,3.015 -2.8,6.059 -4.522,8.887c-25.49,-0.643 -50.909,-3.39 -75.878,-8.293c28.254,-28.56 49.647,-63.854 61.91,-102.11Z" style="fill:#7e6960;fill-rule:nonzero;"/><path d="M176.686,135.483c3.897,-4.822 7.647,-9.881 10.184,-15.5c26.334,22.022 47.797,49.741 65.334,80.031c-6.69,6.8 -13.378,13.6 -20.068,20.4c-14.31,14.547 -28.697,29.163 -45.138,41.25c-12.475,9.169 -26.003,16.788 -39.497,24.385c-15.865,8.931 -31.734,17.862 -47.6,26.796c-4.3,2.419 -8.744,4.888 -13.647,5.45c-4.9,0.563 -10.421,-1.268 -12.74,-5.621c-0.06,5.125 -0.116,10.25 -0.175,15.371c-5.653,-0.371 -11.097,-3.228 -14.616,-7.665c-0.419,4.872 0.703,9.866 3.166,14.09c-4.385,-0.312 -8.728,-1.115 -12.935,-2.39c-3.703,5.065 -9.237,8.706 -15.303,10.287c-14.197,-28.234 -24.172,-58.609 -29.403,-89.731c67.281,-21.059 128.119,-62.315 172.438,-117.153Z" style="fill:#7e6960;fill-rule:nonzero;"/><path d="M161.658,396.28c5.362,-6.144 6.271,-14.881 6.934,-23.013c4.737,2.582 9.765,5.235 15.159,5.085c5.394,-0.15 11.078,-4.26 10.885,-9.653c3.787,1.003 7.828,1.031 11.628,0.084c-0.26,-2.988 -0.044,-6.016 0.637,-8.937c2.169,-1.2 4.51,1.334 6.95,1.762c2.131,0.375 4.163,-0.916 5.931,-2.159c27.901,-19.625 53.716,-43.682 68.876,-74.238c0.374,-0.756 0.721,-1.528 1.074,-2.297c10.607,29.375 20.026,59.213 32.81,87.697l0.322,0.703c-31.219,54.872 -82.131,98.253 -141.269,120.353c-32.575,-17.687 -62.575,-40.125 -88.419,-66.547c19.763,-4.815 38.982,-11.862 57.147,-21.015c4.125,-2.081 8.297,-4.344 11.335,-7.825Z" style="fill:#7e6960;fill-rule:nonzero;"/><path d="M498.054,247.167c-22.875,26.669 -36.35,60.1 -46.428,93.76c-20.625,68.872 -29.403,143.128 -6.64,211.322c-13.663,-3.254 -28.175,-2.863 -41.641,1.118c-6.078,1.797 -12.228,4.528 -16.031,9.6c-7.666,10.219 -2.838,24.682 2.24,36.403c99.219,-6.596 198.832,-13.193 297.997,-5.843c24.875,1.843 49.741,4.565 74.682,4.272c3.559,-0.041 7.35,-0.216 10.262,-2.266c6.75,-4.753 4.166,-15.45 -0.516,-22.253c-11.225,-16.306 -30.837,-26.488 -50.634,-26.281c28.566,-59.454 27.725,-129.404 12.944,-193.685c-8.666,-37.69 -23.188,-76.244 -53.122,-100.731c-23.216,12.3 -46.691,20.45 -69.906,32.75c-9.457,5.009 -17.207,11.556 -27.663,13.831c-1.678,0.366 -2.644,3.381 -4.156,2.569c-1.553,-0.838 -2.338,-2.578 -3.225,-4.103c-4.753,-8.181 -14.325,-11.925 -22.484,-16.719c-18.616,-10.941 -34.263,-30.978 -55.679,-33.744Z" style="fill:#a18675;fill-rule:nonzero;"/><path d="M709.032,545.605c13.525,-0.197 27.307,1.525 39.588,7.194c12.281,5.668 22.953,15.637 27.488,28.381c0.915,2.578 1.584,5.362 1.028,8.044c-0.875,4.225 -4.685,7.346 -8.794,8.656c-4.11,1.312 -8.522,1.134 -12.831,0.947c-16.475,-0.725 -35.144,-3.278 -51.619,-4.003c-9.425,-0.416 -19.259,-2.369 -25.778,-2.232c1.4,-11.622 4.481,-21.781 9.397,-32.406c2.278,-4.919 5.181,-9.944 9.987,-12.447c3.5,-1.822 7.588,-2.075 11.534,-2.134Z" style="fill:#7e6960;fill-rule:nonzero;"/><path d="M434.642,547.317c-13.525,-0.2 -27.309,1.522 -39.588,7.191c-12.281,5.669 -22.956,15.637 -27.487,28.381c-0.916,2.582 -1.585,5.363 -1.028,8.047c0.875,4.222 4.684,7.347 8.793,8.656c4.11,1.31 8.525,1.135 12.832,0.944c16.475,-0.725 35.144,-3.278 51.619,-4.003c9.424,-0.413 19.259,-2.369 25.778,-2.228c-1.404,-11.625 -4.482,-21.781 -9.397,-32.41c-2.278,-4.915 -5.181,-9.943 -9.988,-12.446c-3.5,-1.822 -7.587,-2.075 -11.534,-2.132Z" style="fill:#7e6960;fill-rule:nonzero;"/><path d="M506.132,592.464c-9.171,-30.347 -12.487,-61.081 -9.649,-92.653c2.837,-31.575 13.281,-62.75 32.059,-88.291c6.59,-8.965 14.45,-17.418 24.544,-22.096c6.556,-3.038 13.803,-4.357 21.018,-4.725c16.91,-0.866 34.047,3.478 48.507,12.287c21.846,13.316 36.625,35.903 46.24,59.613c2.56,6.309 4.813,12.775 6.135,19.453c1.462,7.393 1.765,14.968 1.834,22.503c0.281,31.662 -3.553,63.356 -11.375,94.037c0,0 -133.912,-2.84 -159.313,-0.128Z" style="fill:#e6d3bb;fill-rule:nonzero;"/><path d="M680.861,407.574c-0.322,1.968 -0.804,3.99 -2.038,5.556c-1.937,2.456 -5.237,3.253 -8.209,4.228c-17.263,5.644 -30.016,22.937 -30.313,41.094c-0.093,5.778 0.95,11.572 0.31,17.312c-0.638,5.744 -3.472,11.766 -8.819,13.953c-6.325,2.585 -13.869,-1.397 -17.303,-7.3c-3.438,-5.906 -3.65,-13.122 -3.116,-19.931c2.06,-26.209 14.231,-51.497 33.428,-69.456c6.61,-6.184 14.166,-11.6 22.791,-14.347c2.494,-0.797 5.378,-1.319 7.606,0.056c1.738,1.072 2.666,3.056 3.372,4.972c2.797,7.581 3.594,15.888 2.291,23.863Z" style="fill:#7e6960;fill-rule:nonzero;"/><path d="M564.598,486.914c-5.969,4.069 -14.703,1.297 -19.215,-4.344c-4.513,-5.643 -5.685,-13.237 -5.875,-20.459c-0.188,-7.219 0.428,-14.547 -1.179,-21.591c-4.14,-18.168 -21.443,-29.715 -32.653,-44.6c-1.519,-2.015 -2.997,-4.334 -2.781,-6.846c0.147,-1.703 1.063,-3.238 2.053,-4.632c3.106,-4.362 7.209,-8.009 11.91,-10.578c1.209,-0.665 2.515,-1.269 3.893,-1.265c1.95,0.006 3.669,1.206 5.225,2.387c15.257,11.584 28.588,26.044 37.188,43.163c8.6,17.118 12.247,37.012 8.4,55.778c-1.016,4.937 -2.797,10.15 -6.966,12.987Z" style="fill:#7e6960;fill-rule:nonzero;"/><path d="M404.204,86.002c0.519,0.562 1.144,1.165 1.907,1.137c0.887,-0.028 1.493,-0.878 1.962,-1.631c12.522,-20.203 29.806,-37.431 50.047,-49.887c-7.972,-7.741 -16.188,-15.644 -26.384,-20.063c-10.2,-4.419 -22.969,-4.672 -31.638,2.281c-9.35,7.497 -11.428,20.863 -10.975,32.835c0.247,6.537 1.069,13.153 3.65,19.162c2.619,6.094 6.928,11.294 11.431,16.166Z" style="fill:#7e6960;fill-rule:nonzero;"/><path d="M414.498,76.242c8.478,-11.459 17.681,-22.384 27.535,-32.684c-4.86,-4.566 -9.897,-9.156 -16.016,-11.813c-6.116,-2.653 -13.6,-3.071 -19.188,0.563c-7.175,4.672 -9.162,14.781 -6.718,22.987c2.443,8.204 8.356,14.872 14.387,20.947Z" style="fill:#e6d3bb;fill-rule:nonzero;"/><path d="M773.383,100.174c-15.141,-21.357 -31.575,-41.8 -49.179,-61.179c8.241,-11.856 21.729,-19.925 36.075,-21.581c4.46,-0.515 9.072,-0.422 13.316,1.038c7.166,2.468 12.622,8.712 15.388,15.768c2.765,7.057 3.093,14.86 2.337,22.4c-1.584,15.844 -7.903,31.188 -17.937,43.554Z" style="fill:#7e6960;fill-rule:nonzero;"/><path d="M779.951,54.53c-0.034,13.294 -4.84,26.525 -13.347,36.741c-12.1,-13.416 -23.781,-27.21 -35.018,-41.354c7.218,-10.031 19.562,-16.156 31.915,-15.84c2.794,0.072 5.647,0.472 8.119,1.778c6.341,3.353 8.347,11.5 8.331,18.675Z" style="fill:#e6d3bb;fill-rule:nonzero;"/><path d="M519.007,8.258c46.672,-11.331 96.129,-10.994 142.644,0.966c14.003,3.603 27.8,8.262 40.616,14.959c45.809,23.925 74.397,70.803 98.625,116.453c12.937,24.378 25.612,50.419 24.64,77.997c-86.893,9.322 -171.424,39.981 -244.087,88.541c-61.8,-53.263 -136.534,-91.41 -215.922,-110.21c7.003,-21.553 14.01,-43.109 21.275,-64.578c6.85,-20.234 14.063,-40.65 26.085,-58.312c23.962,-35.207 64.74,-55.766 106.124,-65.816Z" style="fill:#b8a28e;fill-rule:nonzero;"/><path d="M664.226,262.446c-12.006,-11.207 -23.097,-23.391 -33.125,-36.397c-4.525,-5.866 -8.859,-11.941 -12.003,-18.65c-4.141,-8.822 -6.122,-18.557 -6.631,-28.288c-0.731,-13.922 1.556,-28.134 7.7,-40.65c6.144,-12.512 16.281,-23.231 28.95,-29.047c6.194,-2.844 12.878,-4.494 19.609,-5.543c13.103,-2.041 26.55,-1.847 39.585,0.574c23.893,4.441 46.003,16.275 64.856,31.61c18.853,15.331 34.65,34.1 48.987,53.719c0,0 5.172,16.134 3.378,28.859c0,0 -94.934,9.613 -161.306,43.813Z" style="fill:#7e6960;fill-rule:nonzero;"/><path d="M379.554,155.405c23.472,-28.066 57.997,-46.625 94.354,-50.725c16.456,-1.856 33.49,-0.788 48.903,5.269c15.412,6.053 29.078,17.431 35.934,32.506c9.222,20.29 5.006,44.797 -6.281,64.016c-11.288,19.218 -28.803,33.953 -46.938,46.909c0,0 -65.947,-42.475 -140.003,-56.416l14.031,-41.559Z" style="fill:#7e6960;fill-rule:nonzero;"/><path d="M502.848,176.824c-1.062,2.593 -3.534,4.556 -6.303,5.006c-2.766,0.447 -5.731,-0.634 -7.563,-2.76c-2.534,-2.94 -2.553,-7.74 -0.04,-10.703c2.509,-2.962 7.247,-3.728 10.562,-1.712c3.319,2.019 4.819,6.575 3.344,10.169Z" style="fill:#403e3f;fill-rule:nonzero;"/><path d="M702.533,185.552c-1.066,2.594 -3.538,4.556 -6.304,5.006c-2.768,0.45 -5.734,-0.631 -7.562,-2.756c-2.535,-2.944 -2.553,-7.741 -0.044,-10.703c2.513,-2.963 7.247,-3.732 10.566,-1.716c3.319,2.019 4.818,6.578 3.344,10.169Z" style="fill:#403e3f;fill-rule:nonzero;"/><path d="M451.07,204.014c0.119,-3.281 1.453,-6.622 4.047,-8.628c2.6,-2.006 6.081,-2.456 9.362,-2.322c2.272,0.094 4.569,0.444 6.638,1.388c5.825,2.662 8.694,10.297 6.262,16.225c-2.431,5.925 -9.625,9.344 -15.818,7.706c-6.191,-1.634 -10.719,-7.969 -10.491,-14.369Z" style="fill:#e19273;fill-rule:nonzero;"/><path d="M705.539,210.214c0.115,-3.281 1.45,-6.622 4.047,-8.628c2.596,-2.006 6.081,-2.456 9.359,-2.322c2.275,0.094 4.572,0.441 6.641,1.388c5.825,2.662 8.693,10.3 6.262,16.225c-2.431,5.925 -9.628,9.347 -15.819,7.709c-6.193,-1.637 -10.718,-7.972 -10.49,-14.372Z" style="fill:#e19273;fill-rule:nonzero;"/><path d="M605.439,294.177c1.456,2.484 2.2,5.334 2.559,8.193c1.188,9.416 -2.172,19.766 -9.975,25.169c-5.097,3.531 -11.531,4.669 -17.728,4.488c-3.363,-0.1 -6.831,-0.607 -9.669,-2.41c-3.609,-2.3 -5.678,-6.365 -7.118,-10.393c-3.207,-8.963 -3.819,-19.813 2.156,-27.225c1.465,-1.819 3.259,-3.341 5.109,-4.763c2.266,-1.744 4.678,-3.372 7.406,-4.228c5.319,-1.666 11.135,-0.169 16.191,2.172c4.384,2.025 8.625,4.831 11.069,8.997Z" style="fill:#403e3f;fill-rule:nonzero;"/><path d="M624.154,33.745c2.422,2.975 4.113,6.56 4.86,10.322c0.168,0.847 0.99,1.397 1.837,1.228c0.847,-0.168 1.397,-0.99 1.228,-1.837c-0.85,-4.269 -2.753,-8.309 -5.5,-11.688c-0.543,-0.668 -1.528,-0.768 -2.196,-0.224c-0.672,0.543 -0.772,1.528 -0.229,2.199Z" style="fill:#a18675;fill-rule:nonzero;"/><path d="M615.851,42.283c1.381,4.381 2.244,8.931 2.563,13.512c0.059,0.863 0.806,1.513 1.665,1.454c0.863,-0.063 1.51,-0.807 1.45,-1.669c-0.334,-4.831 -1.24,-9.619 -2.696,-14.238c-0.26,-0.822 -1.138,-1.281 -1.963,-1.021c-0.822,0.262 -1.278,1.137 -1.019,1.962Z" style="fill:#a18675;fill-rule:nonzero;"/><path d="M606.782,55.108c-0.328,4.609 -0.653,9.219 -0.978,13.828c-0.059,0.863 0.588,1.609 1.45,1.669c0.86,0.062 1.607,-0.588 1.669,-1.447c0.325,-4.612 0.65,-9.222 0.975,-13.831c0.06,-0.86 -0.587,-1.61 -1.45,-1.669c-0.859,-0.059 -1.606,0.587 -1.666,1.45Z" style="fill:#a18675;fill-rule:nonzero;"/><path d="M593.754,45.614c-0.059,1.841 -0.09,3.685 -0.09,5.528c0,2.816 0.072,5.635 0.215,8.454c0.044,0.859 0.782,1.521 1.641,1.478c0.862,-0.044 1.525,-0.778 1.481,-1.641c-0.144,-2.763 -0.212,-5.528 -0.212,-8.291c0,-1.809 0.028,-3.615 0.09,-5.425c0.028,-0.862 -0.647,-1.584 -1.509,-1.612c-0.862,-0.028 -1.584,0.647 -1.616,1.509Z" style="fill:#a18675;fill-rule:nonzero;"/><path d="M591.423,74.692c-0.187,4.079 -1.309,8.125 -3.25,11.719c-0.409,0.759 -0.125,1.709 0.635,2.119c0.759,0.409 1.706,0.125 2.115,-0.634c2.166,-4.013 3.41,-8.507 3.622,-13.06c0.038,-0.862 -0.628,-1.594 -1.491,-1.634c-0.862,-0.041 -1.59,0.628 -1.631,1.49Z" style="fill:#a18675;fill-rule:nonzero;"/><path d="M576.123,59.411c-0.087,1.572 -0.131,3.147 -0.131,4.719c0,2.487 0.109,4.972 0.328,7.45c0.075,0.859 0.834,1.494 1.694,1.419c0.859,-0.075 1.493,-0.835 1.419,-1.694c-0.213,-2.388 -0.316,-4.781 -0.316,-7.175c0,-1.516 0.04,-3.031 0.125,-4.544c0.05,-0.862 -0.61,-1.6 -1.472,-1.647c-0.863,-0.047 -1.6,0.613 -1.647,1.472Z" style="fill:#a18675;fill-rule:nonzero;"/><path d="M567.292,84.074c0.644,4.453 1.284,8.903 1.928,13.353c0.122,0.853 0.916,1.447 1.769,1.325c0.853,-0.125 1.447,-0.916 1.325,-1.772c-0.644,-4.45 -1.285,-8.9 -1.928,-13.35c-0.122,-0.856 -0.916,-1.447 -1.769,-1.325c-0.853,0.125 -1.447,0.915 -1.325,1.769Z" style="fill:#a18675;fill-rule:nonzero;"/><path d="M616.964,79.027c-1.906,4.619 -4.078,9.125 -6.503,13.49c-0.419,0.757 -0.147,1.707 0.606,2.125c0.753,0.419 1.706,0.147 2.125,-0.606c2.481,-4.472 4.706,-9.087 6.659,-13.816c0.331,-0.796 -0.05,-1.712 -0.847,-2.04c-0.797,-0.328 -1.712,0.05 -2.04,0.847Z" style="fill:#a18675;fill-rule:nonzero;"/><path d="M600.514,93.789c-0.147,4.541 -1.522,9.05 -3.935,12.897c-0.459,0.731 -0.24,1.697 0.491,2.153c0.731,0.46 1.697,0.238 2.156,-0.49c2.71,-4.325 4.244,-9.357 4.41,-14.457c0.028,-0.862 -0.65,-1.584 -1.513,-1.612c-0.862,-0.028 -1.581,0.65 -1.609,1.512l0,-0.003Z" style="fill:#a18675;fill-rule:nonzero;"/><path d="M597.917,20.324c1.065,4.281 1.772,8.653 2.106,13.05c0.066,0.862 0.816,1.506 1.675,1.44c0.86,-0.065 1.506,-0.815 1.441,-1.675c-0.347,-4.575 -1.082,-9.119 -2.191,-13.572c-0.206,-0.837 -1.056,-1.347 -1.894,-1.137c-0.837,0.209 -1.346,1.056 -1.137,1.894Z" style="fill:#a18675;fill-rule:nonzero;"/><path d="M583.661,21.286c-1.894,4.016 -3.06,8.369 -3.422,12.794c-0.072,0.859 0.569,1.615 1.428,1.684c0.859,0.072 1.616,-0.568 1.687,-1.428c0.332,-4.05 1.397,-8.044 3.132,-11.719c0.368,-0.781 0.034,-1.712 -0.747,-2.078c-0.781,-0.368 -1.713,-0.034 -2.078,0.747Z" style="fill:#a18675;fill-rule:nonzero;"/><path d="M569.858,28.27c-1.935,3.041 -2.96,6.616 -2.96,10.207c0,0.709 0.041,1.415 0.122,2.122c0.097,0.856 0.872,1.472 1.728,1.372c0.859,-0.097 1.475,-0.872 1.375,-1.732c-0.069,-0.584 -0.1,-1.172 -0.1,-1.762c-0.003,-2.994 0.863,-6.007 2.472,-8.525c0.462,-0.728 0.25,-1.694 -0.478,-2.16c-0.728,-0.462 -1.694,-0.25 -2.159,0.478Z" style="fill:#a18675;fill-rule:nonzero;"/><path d="M557.089,28.167c-2.569,3.172 -3.991,7.207 -3.994,11.285l0.006,0.543c0.025,0.863 0.75,1.538 1.613,1.51c0.862,-0.025 1.537,-0.747 1.512,-1.609l-0.006,-0.444c-0.003,-3.347 1.188,-6.719 3.297,-9.316c0.544,-0.669 0.441,-1.653 -0.231,-2.197c-0.669,-0.543 -1.654,-0.44 -2.197,0.228Z" style="fill:#a18675;fill-rule:nonzero;"/><path d="M541.779,45.114c-0.087,1.694 -0.128,3.391 -0.128,5.088c0,2.672 0.107,5.34 0.31,8.003c0.068,0.862 0.822,1.503 1.681,1.437c0.859,-0.065 1.503,-0.818 1.437,-1.678c-0.2,-2.581 -0.303,-5.172 -0.303,-7.762c0,-1.644 0.041,-3.291 0.122,-4.935c0.041,-0.862 -0.622,-1.593 -1.484,-1.637c-0.86,-0.044 -1.591,0.622 -1.635,1.484Z" style="fill:#a18675;fill-rule:nonzero;"/><path d="M649.17,27.702c0.294,2.625 0.441,5.268 0.441,7.909c0,1.413 -0.041,2.825 -0.125,4.234c-0.053,0.863 0.606,1.604 1.465,1.654c0.863,0.053 1.603,-0.607 1.653,-1.466c0.088,-1.472 0.132,-2.947 0.132,-4.422c0,-2.756 -0.154,-5.516 -0.46,-8.256c-0.097,-0.86 -0.869,-1.475 -1.728,-1.378c-0.856,0.093 -1.475,0.868 -1.378,1.725Z" style="fill:#a18675;fill-rule:nonzero;"/><path d="M660.626,47.464c-0.331,4.388 -1.54,8.716 -3.534,12.638c-0.391,0.768 -0.084,1.709 0.684,2.1c0.769,0.39 1.71,0.084 2.1,-0.685c2.185,-4.293 3.503,-9.015 3.866,-13.818c0.066,-0.86 -0.581,-1.61 -1.441,-1.675c-0.859,-0.063 -1.609,0.581 -1.675,1.44Z" style="fill:#a18675;fill-rule:nonzero;"/><path d="M685.276,44.427c-0.634,3.515 -1.637,6.965 -2.99,10.272c-0.329,0.8 0.056,1.712 0.853,2.037c0.8,0.328 1.712,-0.053 2.037,-0.853c1.438,-3.509 2.503,-7.169 3.175,-10.903c0.153,-0.85 -0.412,-1.663 -1.262,-1.816c-0.85,-0.15 -1.66,0.413 -1.813,1.263Z" style="fill:#a18675;fill-rule:nonzero;"/><path d="M519.045,24.895c-0.328,1.716 -0.491,3.46 -0.491,5.2c0,3.6 0.691,7.201 2.057,10.541c0.325,0.797 1.237,1.181 2.037,0.856c0.797,-0.328 1.181,-1.237 0.856,-2.037c-1.209,-2.956 -1.825,-6.159 -1.825,-9.36c0,-1.546 0.144,-3.093 0.435,-4.612c0.162,-0.847 -0.394,-1.666 -1.241,-1.828c-0.847,-0.163 -1.665,0.394 -1.828,1.24Z" style="fill:#a18675;fill-rule:nonzero;"/><path d="M526.189,56.892c2.328,4.325 4.659,8.647 6.987,12.969c0.41,0.76 1.356,1.044 2.116,0.638c0.759,-0.41 1.044,-1.36 0.634,-2.119c-2.328,-4.322 -4.656,-8.644 -6.984,-12.969c-0.41,-0.759 -1.36,-1.044 -2.119,-0.634c-0.759,0.409 -1.044,1.356 -0.634,2.119l0,-0.004Z" style="fill:#a18675;fill-rule:nonzero;"/><path d="M506.954,58.502c1.294,4.54 3.632,8.768 6.791,12.281c0.575,0.641 1.563,0.694 2.206,0.116c0.641,-0.575 0.694,-1.566 0.116,-2.207c-2.834,-3.153 -4.947,-6.968 -6.11,-11.05c-0.234,-0.828 -1.1,-1.309 -1.931,-1.072c-0.828,0.235 -1.309,1.101 -1.072,1.932Z" style="fill:#a18675;fill-rule:nonzero;"/><path d="M651.782,81.874c-0.106,3.634 -2.237,7.25 -5.365,9.1c-0.741,0.44 -0.984,1.4 -0.544,2.143c0.444,0.741 1.403,0.982 2.144,0.541c4.075,-2.444 6.722,-6.931 6.887,-11.681c0.029,-0.863 -0.646,-1.585 -1.509,-1.613c-0.862,-0.028 -1.584,0.647 -1.613,1.51Z" style="fill:#a18675;fill-rule:nonzero;"/><path d="M591.57,158.983c-0.647,4.403 -0.972,8.85 -0.972,13.3c0,0.409 0.003,0.819 0.006,1.231c0.013,0.863 0.722,1.55 1.585,1.541c0.862,-0.013 1.553,-0.722 1.54,-1.584c-0.003,-0.397 -0.006,-0.794 -0.006,-1.188c0,-4.297 0.313,-8.594 0.938,-12.844c0.125,-0.856 -0.466,-1.647 -1.319,-1.775c-0.853,-0.125 -1.647,0.466 -1.772,1.319Z" style="fill:#a18675;fill-rule:nonzero;"/><path d="M576.151,152.074c0.966,2.737 1.463,5.646 1.463,8.556c0,0.894 -0.047,1.784 -0.141,2.675c-0.09,0.856 0.531,1.625 1.388,1.715c0.859,0.091 1.628,-0.531 1.718,-1.387c0.107,-1 0.16,-2.003 0.16,-3.003c-0.003,-3.263 -0.553,-6.519 -1.641,-9.597c-0.287,-0.816 -1.181,-1.241 -1.994,-0.953c-0.815,0.287 -1.24,1.178 -0.953,1.994Z" style="fill:#a18675;fill-rule:nonzero;"/><path d="M581.257,179.642c0.394,1.485 0.594,3.025 0.594,4.566c0,1.263 -0.134,2.525 -0.4,3.756c-0.181,0.844 0.353,1.675 1.197,1.856c0.844,0.185 1.675,-0.353 1.86,-1.196c0.312,-1.45 0.468,-2.935 0.468,-4.416c0,-1.806 -0.234,-3.616 -0.697,-5.366c-0.222,-0.834 -1.078,-1.331 -1.912,-1.112c-0.834,0.222 -1.331,1.078 -1.11,1.912Z" style="fill:#a18675;fill-rule:nonzero;"/><path d="M553.657,57.589c0,4.294 0,8.585 0,12.878c0,0.863 0.697,1.563 1.563,1.563c0.862,0 1.562,-0.7 1.562,-1.563c0,-4.293 0,-8.587 0,-12.878c0,-0.862 -0.7,-1.562 -1.562,-1.562c-0.866,0 -1.563,0.7 -1.563,1.562Z" style="fill:#a18675;fill-rule:nonzero;"/><path d="M545.514,74.214c-0.025,0.588 -0.038,1.175 -0.038,1.763c0,4.593 0.75,9.181 2.216,13.537c0.275,0.819 1.159,1.26 1.975,0.985c0.819,-0.275 1.262,-1.163 0.987,-1.982c-1.356,-4.031 -2.053,-8.287 -2.053,-12.54c0,-0.544 0.013,-1.088 0.038,-1.631c0.031,-0.863 -0.635,-1.591 -1.497,-1.626c-0.863,-0.037 -1.591,0.635 -1.625,1.494l-0.003,0Z" style="fill:#a18675;fill-rule:nonzero;"/><path d="M555.586,100.399c1.112,4.787 3.065,9.375 5.734,13.506c0.469,0.725 1.438,0.931 2.163,0.462c0.721,-0.468 0.931,-1.434 0.462,-2.159c-2.475,-3.825 -4.284,-8.084 -5.316,-12.519c-0.196,-0.84 -1.037,-1.365 -1.878,-1.169c-0.84,0.197 -1.362,1.038 -1.165,1.879Z" style="fill:#a18675;fill-rule:nonzero;"/><path d="M582.914,105.036c-0.731,4.103 -1.928,8.122 -3.563,11.956c-0.337,0.797 0.031,1.713 0.825,2.05c0.794,0.341 1.713,-0.031 2.05,-0.825c1.725,-4.05 2.991,-8.297 3.763,-12.634c0.15,-0.85 -0.416,-1.663 -1.266,-1.812c-0.847,-0.151 -1.659,0.415 -1.809,1.265Z" style="fill:#a18675;fill-rule:nonzero;"/><path d="M598.664,122.233c-1.566,3.116 -3.413,6.091 -5.506,8.881c-0.519,0.691 -0.379,1.669 0.312,2.188c0.688,0.519 1.669,0.378 2.187,-0.313c2.204,-2.937 4.147,-6.069 5.801,-9.353c0.387,-0.769 0.074,-1.709 -0.694,-2.097c-0.772,-0.387 -1.713,-0.078 -2.1,0.694Z" style="fill:#a18675;fill-rule:nonzero;"/><path d="M581.373,129.917c-0.119,1.05 -0.175,2.11 -0.175,3.166c0,3.744 0.731,7.481 2.156,10.947c0.328,0.8 1.241,1.178 2.041,0.85c0.797,-0.328 1.178,-1.241 0.85,-2.038c-1.269,-3.081 -1.922,-6.425 -1.922,-9.759c0,-0.944 0.05,-1.884 0.156,-2.819c0.097,-0.856 -0.521,-1.631 -1.378,-1.725c-0.859,-0.097 -1.631,0.519 -1.728,1.378Z" style="fill:#a18675;fill-rule:nonzero;"/><path d="M623.298,9.977c0.969,2.697 1.466,5.565 1.466,8.434l-0.006,0.516c-0.016,0.862 0.668,1.575 1.531,1.594c0.862,0.015 1.578,-0.669 1.594,-1.532l0.006,-0.578c0,-3.228 -0.56,-6.453 -1.65,-9.491c-0.291,-0.812 -1.185,-1.234 -1.997,-0.943c-0.813,0.29 -1.234,1.187 -0.944,2Z" style="fill:#a18675;fill-rule:nonzero;"/><path d="M638.164,58.105c0.009,0.347 0.012,0.694 0.015,1.044c0,4.981 -0.937,9.965 -2.75,14.606c-0.315,0.806 0.085,1.712 0.888,2.025c0.803,0.312 1.709,-0.085 2.022,-0.888c1.956,-5.006 2.962,-10.372 2.962,-15.743c0,-0.375 -0.003,-0.75 -0.012,-1.125c-0.022,-0.863 -0.741,-1.544 -1.603,-1.522c-0.863,0.022 -1.544,0.74 -1.522,1.603Z" style="fill:#a18675;fill-rule:nonzero;"/><path d="M541.367,13.936c-0.735,4.281 -1.106,8.625 -1.106,12.966c0,0.543 0.003,1.084 0.015,1.628c0.022,0.862 0.735,1.547 1.597,1.528c0.866,-0.019 1.55,-0.734 1.528,-1.597c-0.012,-0.519 -0.015,-1.037 -0.015,-1.559c0,-4.166 0.353,-8.332 1.062,-12.435c0.147,-0.85 -0.428,-1.659 -1.275,-1.806c-0.85,-0.144 -1.659,0.425 -1.806,1.275Z" style="fill:#a18675;fill-rule:nonzero;"/><path d="M572.054,7.002c-1.137,2.884 -1.74,5.975 -1.768,9.078c-0.01,0.862 0.684,1.569 1.547,1.575c0.862,0.009 1.568,-0.684 1.578,-1.547c0.025,-2.716 0.553,-5.434 1.55,-7.959c0.315,-0.804 -0.079,-1.713 -0.882,-2.029c-0.8,-0.315 -1.709,0.079 -2.025,0.882Z" style="fill:#a18675;fill-rule:nonzero;"/><path d="M644.576,311.027c2.485,4.806 3.872,10.194 4.016,15.603c0.022,0.862 0.74,1.544 1.603,1.522c0.862,-0.025 1.544,-0.741 1.522,-1.603c-0.16,-5.891 -1.663,-11.725 -4.366,-16.957c-0.397,-0.768 -1.337,-1.068 -2.106,-0.672c-0.766,0.397 -1.066,1.341 -0.669,2.107Z" style="fill:#7e6960;fill-rule:nonzero;"/><path d="M633.154,323.561c0.9,4.96 1.46,9.978 1.669,15.013c0.038,0.862 0.766,1.534 1.628,1.497c0.86,-0.035 1.532,-0.763 1.494,-1.626c-0.216,-5.178 -0.791,-10.343 -1.716,-15.44c-0.156,-0.85 -0.968,-1.413 -1.818,-1.259c-0.847,0.153 -1.41,0.968 -1.257,1.815Z" style="fill:#7e6960;fill-rule:nonzero;"/><path d="M625.076,315.602c0.488,1.787 0.735,3.643 0.735,5.5c0,2.04 -0.297,4.081 -0.885,6.031c-0.247,0.828 0.219,1.7 1.047,1.947c0.825,0.25 1.697,-0.219 1.947,-1.044c0.675,-2.25 1.016,-4.591 1.016,-6.934c0,-2.131 -0.282,-4.263 -0.844,-6.322c-0.228,-0.834 -1.088,-1.325 -1.919,-1.097c-0.831,0.228 -1.322,1.087 -1.097,1.919Z" style="fill:#7e6960;fill-rule:nonzero;"/><path d="M614.623,330.702c0.391,2.162 0.588,4.359 0.588,6.559c0,2.084 -0.175,4.172 -0.528,6.228c-0.147,0.85 0.424,1.656 1.278,1.803c0.85,0.144 1.656,-0.425 1.803,-1.278c0.381,-2.231 0.572,-4.49 0.572,-6.753c0,-2.384 -0.213,-4.769 -0.638,-7.116c-0.153,-0.849 -0.965,-1.412 -1.815,-1.259c-0.847,0.153 -1.413,0.966 -1.26,1.816Z" style="fill:#7e6960;fill-rule:nonzero;"/><path d="M623.404,343.696c-0.2,4.562 -1.54,9.081 -3.859,13.015c-0.438,0.744 -0.191,1.703 0.553,2.141c0.744,0.437 1.7,0.19 2.141,-0.553c2.578,-4.382 4.062,-9.388 4.287,-14.466c0.038,-0.863 -0.631,-1.591 -1.494,-1.628c-0.862,-0.041 -1.59,0.628 -1.628,1.491Z" style="fill:#7e6960;fill-rule:nonzero;"/><path d="M603.523,358.717c0.069,0.516 0.103,1.038 0.103,1.563c0.003,3.134 -1.219,6.306 -3.353,8.584c-0.587,0.628 -0.553,1.619 0.078,2.206c0.628,0.591 1.619,0.557 2.207,-0.075c2.696,-2.893 4.19,-6.784 4.193,-10.715c0,-0.656 -0.043,-1.316 -0.128,-1.972c-0.115,-0.856 -0.9,-1.459 -1.756,-1.344c-0.853,0.113 -1.456,0.897 -1.344,1.753Z" style="fill:#7e6960;fill-rule:nonzero;"/><path d="M592.27,345.114c-0.175,3.656 -0.35,7.313 -0.522,10.969c-0.044,0.862 0.622,1.594 1.484,1.634c0.863,0.041 1.594,-0.625 1.635,-1.484c0.175,-3.656 0.35,-7.312 0.525,-10.969c0.041,-0.862 -0.625,-1.594 -1.488,-1.634c-0.859,-0.044 -1.593,0.622 -1.634,1.484Z" style="fill:#7e6960;fill-rule:nonzero;"/><path d="M571.786,347.03c-0.032,0.734 -0.047,1.472 -0.047,2.206c0,3.391 0.34,6.778 1.022,10.1c0.171,0.847 0.996,1.391 1.843,1.219c0.844,-0.175 1.391,-1 1.216,-1.844c-0.638,-3.115 -0.956,-6.297 -0.956,-9.475c0,-0.691 0.012,-1.378 0.044,-2.069c0.037,-0.862 -0.629,-1.593 -1.491,-1.631c-0.863,-0.037 -1.594,0.631 -1.631,1.494Z" style="fill:#7e6960;fill-rule:nonzero;"/><path d="M552.792,332.28l-0.003,0.612c0,4.935 1.281,9.844 3.694,14.147c0.421,0.753 1.374,1.022 2.128,0.6c0.753,-0.422 1.018,-1.375 0.596,-2.128c-2.146,-3.828 -3.293,-8.228 -3.293,-12.619l0.003,-0.543c0.022,-0.863 -0.663,-1.578 -1.525,-1.597c-0.863,-0.019 -1.578,0.665 -1.6,1.528Z" style="fill:#7e6960;fill-rule:nonzero;"/><path d="M581.351,360.855c0.406,1.537 0.606,3.134 0.606,4.731c0,1.988 -0.312,3.975 -0.934,5.856c-0.269,0.822 0.175,1.704 0.994,1.975c0.822,0.272 1.703,-0.175 1.975,-0.993c0.728,-2.207 1.09,-4.522 1.09,-6.838c0,-1.859 -0.234,-3.722 -0.709,-5.525c-0.219,-0.834 -1.072,-1.334 -1.906,-1.116c-0.835,0.222 -1.335,1.076 -1.116,1.91Z" style="fill:#7e6960;fill-rule:nonzero;"/><path d="M637.598,361.074c0.047,0.509 0.072,1.022 0.072,1.534c0.003,4.019 -1.437,8.069 -4,11.156c-0.553,0.666 -0.459,1.65 0.203,2.2c0.666,0.553 1.65,0.46 2.2,-0.203c3.044,-3.678 4.719,-8.397 4.722,-13.153c0,-0.606 -0.028,-1.216 -0.084,-1.822c-0.079,-0.859 -0.841,-1.491 -1.697,-1.412c-0.863,0.081 -1.494,0.84 -1.416,1.7Z" style="fill:#7e6960;fill-rule:nonzero;"/><path d="M633.376,286.852c0.866,3.968 1.325,8.028 1.372,12.09c0.009,0.863 0.716,1.557 1.578,1.547c0.866,-0.009 1.556,-0.718 1.547,-1.581c-0.047,-4.275 -0.531,-8.544 -1.444,-12.722c-0.184,-0.844 -1.015,-1.378 -1.859,-1.194c-0.844,0.185 -1.378,1.016 -1.194,1.86Z" style="fill:#7e6960;fill-rule:nonzero;"/><path d="M537.489,303.624c-0.088,1.831 -0.131,3.665 -0.131,5.5c0,3.009 0.115,6.018 0.353,9.018c0.065,0.86 0.815,1.503 1.678,1.438c0.859,-0.069 1.503,-0.822 1.434,-1.681c-0.228,-2.919 -0.344,-5.847 -0.344,-8.775c0,-1.785 0.041,-3.569 0.128,-5.35c0.044,-0.863 -0.621,-1.597 -1.487,-1.638c-0.862,-0.041 -1.591,0.625 -1.631,1.488Z" style="fill:#7e6960;fill-rule:nonzero;"/><path d="M540.798,335.986c-0.062,0.625 -0.09,1.253 -0.09,1.881c0,2.716 0.537,5.425 1.575,7.938c0.325,0.797 1.24,1.178 2.04,0.85c0.797,-0.331 1.178,-1.244 0.844,-2.041c-0.875,-2.131 -1.334,-4.44 -1.334,-6.747c0,-0.534 0.028,-1.065 0.078,-1.593c0.078,-0.86 -0.553,-1.622 -1.413,-1.7c-0.859,-0.078 -1.622,0.553 -1.7,1.412Z" style="fill:#7e6960;fill-rule:nonzero;"/><path d="M556.483,365.396c0.446,4.128 1.837,8.137 4.04,11.656c0.459,0.731 1.425,0.953 2.156,0.493c0.732,-0.456 0.95,-1.421 0.494,-2.153c-1.95,-3.112 -3.19,-6.681 -3.584,-10.334c-0.094,-0.856 -0.863,-1.478 -1.722,-1.384c-0.856,0.093 -1.481,0.862 -1.384,1.722Z" style="fill:#7e6960;fill-rule:nonzero;"/><path d="M515.661,331.924c0.268,5.153 1.575,10.243 3.818,14.89c0.225,0.463 0.519,0.963 0.969,1.428c0.438,0.45 1.122,0.957 2.094,0.966l0.694,-0.097c0.834,-0.231 1.318,-1.091 1.087,-1.922c-0.228,-0.831 -1.091,-1.318 -1.922,-1.087l0.141,0.503l0,-0.522l-0.141,0.019l0.141,0.503l0,-0.522l0,0.456l0.215,-0.409l-0.215,-0.047l0,0.456l0.215,-0.409l-0.006,0.012l0.01,-0.012l-0.004,0l-0.006,0.012l0.01,-0.012c-0.053,-0.019 -0.322,-0.35 -0.469,-0.675c-2.063,-4.269 -3.263,-8.959 -3.509,-13.694c-0.044,-0.862 -0.782,-1.525 -1.641,-1.481c-0.863,0.047 -1.525,0.781 -1.481,1.644Z" style="fill:#7e6960;fill-rule:nonzero;"/><path d="M516.339,286.742c-2.135,3.485 -3.272,7.547 -3.275,11.632c0,0.368 0.009,0.74 0.028,1.109c0.047,0.862 0.781,1.525 1.64,1.481c0.863,-0.043 1.526,-0.778 1.482,-1.64c-0.016,-0.316 -0.025,-0.635 -0.025,-0.95c0,-3.5 0.984,-7.016 2.815,-9.997c0.45,-0.735 0.219,-1.697 -0.515,-2.147c-0.735,-0.453 -1.697,-0.222 -2.15,0.512Z" style="fill:#7e6960;fill-rule:nonzero;"/><path d="M506.539,291.149c-1.647,3.978 -4.703,8.178 -4.753,13.303c0,0.456 0.025,0.915 0.081,1.381c0.1,0.856 0.878,1.469 1.737,1.366c0.857,-0.104 1.466,-0.882 1.366,-1.738c-0.041,-0.337 -0.059,-0.672 -0.059,-1.009c-0.05,-3.75 2.597,-7.706 4.503,-12.082c0.337,-0.793 -0.032,-1.709 -0.825,-2.046c-0.794,-0.338 -1.713,0.031 -2.05,0.825Z" style="fill:#7e6960;fill-rule:nonzero;"/><path d="M490.77,297.808c-2.272,3.581 -3.819,7.613 -4.528,11.794c-0.147,0.85 0.428,1.659 1.278,1.803c0.85,0.144 1.656,-0.428 1.803,-1.278c0.638,-3.772 2.041,-7.419 4.088,-10.647c0.462,-0.728 0.246,-1.694 -0.485,-2.156c-0.728,-0.463 -1.694,-0.247 -2.156,0.484Z" style="fill:#7e6960;fill-rule:nonzero;"/><path d="M493.761,270.561c-3.185,4.019 -5.541,8.684 -6.879,13.634c-0.224,0.832 0.269,1.691 1.101,1.916c0.834,0.225 1.69,-0.269 1.915,-1.1c1.228,-4.537 3.391,-8.825 6.313,-12.506c0.534,-0.678 0.422,-1.66 -0.253,-2.197c-0.676,-0.534 -1.66,-0.422 -2.197,0.253Z" style="fill:#7e6960;fill-rule:nonzero;"/><path d="M477.298,314.324c-1.628,3.206 -2.472,6.781 -2.472,10.368c0,1.019 0.069,2.041 0.207,3.057c0.118,0.853 0.906,1.45 1.762,1.334c0.853,-0.116 1.453,-0.906 1.334,-1.759c-0.118,-0.872 -0.178,-1.753 -0.178,-2.632c0,-3.097 0.732,-6.2 2.132,-8.953c0.39,-0.768 0.084,-1.709 -0.685,-2.1c-0.769,-0.39 -1.709,-0.084 -2.1,0.685Z" style="fill:#7e6960;fill-rule:nonzero;"/><path d="M486.176,328.12c-1.153,4.038 -1.74,8.232 -1.74,12.429c0,0.615 0.012,1.231 0.037,1.847c0.035,0.859 0.763,1.531 1.625,1.496c0.863,-0.037 1.535,-0.765 1.497,-1.628c-0.022,-0.572 -0.034,-1.144 -0.034,-1.715c0,-3.907 0.546,-7.813 1.622,-11.569c0.234,-0.828 -0.244,-1.694 -1.076,-1.931c-0.828,-0.238 -1.693,0.243 -1.931,1.071Z" style="fill:#7e6960;fill-rule:nonzero;"/><path d="M677.307,293.38c2.472,5.456 4.447,11.137 5.894,16.95c0.21,0.837 1.06,1.347 1.897,1.14c0.838,-0.209 1.347,-1.056 1.138,-1.893c-1.494,-5.997 -3.532,-11.857 -6.082,-17.488c-0.356,-0.787 -1.281,-1.134 -2.068,-0.778c-0.785,0.356 -1.135,1.281 -0.779,2.069Z" style="fill:#7e6960;fill-rule:nonzero;"/><path d="M666.608,296.811c1.903,2.988 3.334,6.281 4.218,9.713c0.216,0.837 1.066,1.337 1.903,1.125c0.835,-0.216 1.338,-1.069 1.122,-1.904c-0.965,-3.753 -2.528,-7.346 -4.609,-10.612c-0.463,-0.728 -1.428,-0.944 -2.156,-0.478c-0.729,0.462 -0.944,1.428 -0.478,2.156Z" style="fill:#7e6960;fill-rule:nonzero;"/><path d="M652.617,292.261c1.7,2.331 2.653,5.225 2.675,8.109c0.009,0.863 0.712,1.557 1.575,1.55c0.866,-0.009 1.559,-0.712 1.55,-1.578c-0.031,-3.547 -1.188,-7.047 -3.272,-9.918c-0.506,-0.7 -1.484,-0.854 -2.181,-0.344c-0.7,0.506 -0.853,1.484 -0.347,2.181Z" style="fill:#7e6960;fill-rule:nonzero;"/><path d="M695.62,308.014c2.913,3.725 5.009,8.094 6.091,12.697c0.2,0.838 1.04,1.359 1.881,1.163c0.837,-0.2 1.359,-1.041 1.162,-1.882c-1.19,-5.043 -3.481,-9.818 -6.672,-13.903c-0.534,-0.678 -1.515,-0.8 -2.193,-0.269c-0.681,0.532 -0.8,1.516 -0.269,2.194Z" style="fill:#7e6960;fill-rule:nonzero;"/><path d="M689.295,324.624c0.966,3.175 1.931,6.353 2.897,9.528c0.25,0.825 1.122,1.29 1.95,1.04c0.825,-0.25 1.291,-1.125 1.04,-1.95c-0.965,-3.175 -1.931,-6.353 -2.899,-9.528c-0.251,-0.825 -1.122,-1.29 -1.947,-1.04c-0.828,0.253 -1.294,1.125 -1.041,1.95Z" style="fill:#7e6960;fill-rule:nonzero;"/><path d="M678.182,274.924c3.632,2.968 6.522,6.856 8.319,11.19c0.328,0.797 1.244,1.175 2.041,0.847c0.797,-0.331 1.175,-1.247 0.847,-2.044c-1.997,-4.815 -5.191,-9.112 -9.228,-12.415c-0.666,-0.544 -1.65,-0.447 -2.197,0.222c-0.547,0.668 -0.447,1.653 0.218,2.2Z" style="fill:#7e6960;fill-rule:nonzero;"/><path d="M710.314,343.605c0.837,3.491 1.259,7.084 1.259,10.675c0,0.912 -0.028,1.825 -0.081,2.737c-0.053,0.863 0.603,1.603 1.466,1.653c0.862,0.054 1.603,-0.603 1.653,-1.465c0.059,-0.975 0.087,-1.95 0.087,-2.925c0,-3.838 -0.45,-7.672 -1.347,-11.403c-0.2,-0.841 -1.044,-1.357 -1.881,-1.156c-0.841,0.203 -1.356,1.043 -1.156,1.884Z" style="fill:#7e6960;fill-rule:nonzero;"/><path d="M659.57,320.614c0.362,2.466 0.544,4.96 0.544,7.453c0,1.219 -0.044,2.438 -0.131,3.654c-0.06,0.862 0.587,1.609 1.446,1.671c0.863,0.063 1.61,-0.587 1.672,-1.447c0.091,-1.29 0.138,-2.584 0.138,-3.878c0,-2.647 -0.194,-5.29 -0.578,-7.909c-0.125,-0.853 -0.919,-1.444 -1.772,-1.319c-0.853,0.128 -1.444,0.922 -1.319,1.775Z" style="fill:#7e6960;fill-rule:nonzero;"/><path d="M650.557,342.402l0.019,0.787c0.003,3.356 -1.053,6.735 -2.975,9.485c-0.493,0.706 -0.322,1.681 0.385,2.175c0.709,0.493 1.681,0.322 2.178,-0.385c2.293,-3.29 3.537,-7.269 3.537,-11.275c0,-0.312 -0.006,-0.628 -0.022,-0.94c-0.043,-0.863 -0.775,-1.529 -1.637,-1.485c-0.863,0.041 -1.525,0.775 -1.485,1.638Z" style="fill:#7e6960;fill-rule:nonzero;"/><path d="M463.445,346.408c-2.528,3.641 -3.878,8.041 -3.881,12.459c0,0.8 0.043,1.6 0.134,2.4c0.097,0.857 0.872,1.472 1.728,1.375c0.86,-0.096 1.475,-0.871 1.378,-1.728c-0.078,-0.678 -0.115,-1.362 -0.115,-2.047c-0.003,-3.778 1.168,-7.581 3.322,-10.678c0.49,-0.709 0.315,-1.681 -0.394,-2.175c-0.706,-0.49 -1.681,-0.315 -2.172,0.394Z" style="fill:#7e6960;fill-rule:nonzero;"/><path d="M500.414,338.861c-1.36,3.463 -2.053,7.175 -2.057,10.894c0,1.078 0.06,2.159 0.179,3.234c0.093,0.856 0.868,1.475 1.725,1.382c0.856,-0.094 1.475,-0.866 1.381,-1.725c-0.106,-0.96 -0.16,-1.926 -0.16,-2.891c0,-3.328 0.626,-6.659 1.841,-9.753c0.313,-0.803 -0.081,-1.71 -0.884,-2.025c-0.803,-0.316 -1.713,0.081 -2.025,0.884Z" style="fill:#7e6960;fill-rule:nonzero;"/><path d="M471.136,358.077c-1.269,4.265 -1.916,8.709 -1.916,13.159c0,0.447 0.006,0.897 0.022,1.347c0.025,0.862 0.744,1.541 1.606,1.516c0.863,-0.029 1.541,-0.747 1.516,-1.61c-0.013,-0.419 -0.019,-0.834 -0.019,-1.253c0,-4.147 0.603,-8.294 1.787,-12.265c0.247,-0.829 -0.224,-1.697 -1.053,-1.944c-0.825,-0.247 -1.696,0.225 -1.943,1.05Z" style="fill:#7e6960;fill-rule:nonzero;"/><path d="M671.332,327.736c0.494,2.363 0.741,4.778 0.741,7.191c0,1.465 -0.09,2.931 -0.275,4.387c-0.106,0.856 0.5,1.638 1.356,1.744c0.857,0.106 1.638,-0.5 1.744,-1.356c0.2,-1.585 0.3,-3.178 0.3,-4.775c0,-2.628 -0.269,-5.253 -0.806,-7.828c-0.175,-0.844 -1.003,-1.388 -1.847,-1.21c-0.847,0.175 -1.388,1.003 -1.213,1.847Z" style="fill:#7e6960;fill-rule:nonzero;"/><path d="M509.604,314.927c-1.087,3.659 -1.643,7.472 -1.643,11.29c0,0.403 0.006,0.81 0.018,1.216c0.029,0.862 0.75,1.541 1.613,1.516c0.862,-0.029 1.537,-0.75 1.512,-1.613c-0.012,-0.372 -0.018,-0.747 -0.018,-1.119c0,-3.515 0.512,-7.031 1.512,-10.4c0.247,-0.828 -0.225,-1.697 -1.05,-1.943c-0.828,-0.244 -1.697,0.225 -1.944,1.053Z" style="fill:#7e6960;fill-rule:nonzero;"/><path d="M452.123,408.042c-0.1,1.435 -0.15,2.869 -0.15,4.303c0,2.279 0.125,4.557 0.375,6.825c0.094,0.857 0.866,1.475 1.722,1.382c0.859,-0.094 1.478,-0.866 1.384,-1.725c-0.237,-2.15 -0.356,-4.316 -0.356,-6.482c0,-1.362 0.047,-2.728 0.141,-4.087c0.059,-0.859 -0.591,-1.606 -1.45,-1.666c-0.863,-0.059 -1.607,0.591 -1.666,1.45Z" style="fill:#7e6960;fill-rule:nonzero;"/><path d="M445.892,411.47c-1.413,3.957 -2.141,8.154 -2.141,12.354l0.003,0.234c0.007,0.866 0.713,1.559 1.575,1.55c0.863,-0.006 1.557,-0.713 1.55,-1.575l-0.003,-0.209c0,-3.841 0.666,-7.685 1.96,-11.3c0.29,-0.813 -0.135,-1.707 -0.947,-1.997c-0.813,-0.291 -1.707,0.131 -1.997,0.943Z" style="fill:#7e6960;fill-rule:nonzero;"/><path d="M728.036,402.677c0.5,3.118 0.747,6.281 0.747,9.44c0,1.191 -0.035,2.378 -0.107,3.569c-0.05,0.86 0.607,1.6 1.469,1.65c0.863,0.053 1.6,-0.603 1.653,-1.466c0.072,-1.249 0.11,-2.503 0.11,-3.753c0,-3.325 -0.263,-6.65 -0.785,-9.931c-0.134,-0.853 -0.937,-1.434 -1.787,-1.297c-0.854,0.135 -1.435,0.938 -1.297,1.788l-0.003,0Z" style="fill:#7e6960;fill-rule:nonzero;"/><path d="M717.379,394.855c1.657,3.409 2.697,7.122 3.05,10.897c0.082,0.859 0.844,1.49 1.704,1.409c0.859,-0.081 1.49,-0.844 1.409,-1.703c-0.391,-4.15 -1.531,-8.222 -3.353,-11.969c-0.378,-0.778 -1.313,-1.1 -2.088,-0.722c-0.775,0.375 -1.1,1.313 -0.722,2.088Z" style="fill:#7e6960;fill-rule:nonzero;"/><path d="M719.173,420.033c0.503,1.778 0.756,3.634 0.756,5.487c0,1.541 -0.175,3.082 -0.525,4.579c-0.196,0.84 0.329,1.681 1.169,1.878c0.841,0.194 1.678,-0.328 1.875,-1.169c0.403,-1.734 0.606,-3.509 0.606,-5.288c0,-2.137 -0.29,-4.275 -0.875,-6.337c-0.234,-0.831 -1.096,-1.313 -1.928,-1.078c-0.831,0.234 -1.312,1.097 -1.078,1.928Z" style="fill:#7e6960;fill-rule:nonzero;"/><path d="M508.095,487.296c-1.422,3.771 -2.153,7.793 -2.153,11.821l0.006,0.638c0.016,0.862 0.731,1.547 1.594,1.531c0.862,-0.019 1.547,-0.731 1.531,-1.594l-0.006,-0.575c0,-3.65 0.665,-7.306 1.953,-10.718c0.303,-0.81 -0.103,-1.71 -0.909,-2.016c-0.81,-0.303 -1.71,0.103 -2.016,0.913Z" style="fill:#b8a28e;fill-rule:nonzero;"/><path d="M516.023,498.658c-0.097,1.309 -0.144,2.622 -0.144,3.934c0,2.625 0.191,5.253 0.572,7.853c0.125,0.854 0.919,1.444 1.772,1.319c0.853,-0.125 1.444,-0.919 1.319,-1.772c-0.356,-2.45 -0.538,-4.925 -0.538,-7.4c0,-1.237 0.044,-2.475 0.135,-3.709c0.062,-0.859 -0.585,-1.606 -1.444,-1.669c-0.863,-0.062 -1.609,0.585 -1.672,1.444Z" style="fill:#b8a28e;fill-rule:nonzero;"/><path d="M508.842,513.97l-0.013,0.604c0.003,4.025 1.522,7.993 4.222,10.99c0.578,0.638 1.566,0.688 2.206,0.11c0.641,-0.578 0.691,-1.566 0.113,-2.207c-2.169,-2.393 -3.419,-5.659 -3.416,-8.893l0.01,-0.482c0.034,-0.862 -0.638,-1.587 -1.5,-1.622c-0.863,-0.034 -1.588,0.638 -1.622,1.5Z" style="fill:#b8a28e;fill-rule:nonzero;"/><path d="M652.27,513.539c0.416,1.5 0.622,3.06 0.622,4.622c0,2.303 -0.45,4.606 -1.331,6.719c-0.332,0.797 0.046,1.712 0.843,2.044c0.797,0.331 1.71,-0.044 2.041,-0.841c1.047,-2.509 1.572,-5.216 1.572,-7.922c0,-1.837 -0.244,-3.675 -0.734,-5.453c-0.229,-0.831 -1.091,-1.319 -1.922,-1.091c-0.832,0.232 -1.319,1.091 -1.091,1.925l0,-0.003Z" style="fill:#b8a28e;fill-rule:nonzero;"/><path d="M596.983,403.874l0.003,0.353c0,3.947 -0.819,7.903 -2.388,11.528c-0.341,0.791 0.022,1.709 0.816,2.053c0.79,0.344 1.709,-0.022 2.053,-0.813c1.737,-4.021 2.641,-8.39 2.644,-12.768l-0.003,-0.391c-0.013,-0.862 -0.719,-1.553 -1.582,-1.544c-0.862,0.013 -1.553,0.719 -1.543,1.582Z" style="fill:#b8a28e;fill-rule:nonzero;"/><path d="M587.52,410.055c0,3.022 0,6.041 0,9.062c0,0.863 0.7,1.563 1.562,1.563c0.863,0 1.563,-0.7 1.563,-1.563c0,-3.021 0,-6.04 0,-9.062c0,-0.863 -0.7,-1.563 -1.563,-1.563c-0.862,0 -1.562,0.7 -1.562,1.563Z" style="fill:#b8a28e;fill-rule:nonzero;"/><path d="M578.639,417.496c0.665,3.206 1.328,6.415 1.994,9.621c0.175,0.844 1.003,1.388 1.846,1.213c0.847,-0.175 1.388,-1.003 1.213,-1.847c-0.666,-3.209 -1.328,-6.416 -1.994,-9.622c-0.175,-0.844 -1.003,-1.387 -1.847,-1.212c-0.847,0.175 -1.387,1.003 -1.212,1.847Z" style="fill:#b8a28e;fill-rule:nonzero;"/><path d="M597.526,430.727c0.06,0.55 0.088,1.103 0.088,1.656c0,2.913 -0.788,5.844 -2.266,8.347c-0.437,0.744 -0.187,1.703 0.556,2.14c0.744,0.438 1.7,0.191 2.138,-0.553c1.765,-3.003 2.694,-6.462 2.697,-9.934c0,-0.659 -0.035,-1.319 -0.103,-1.978c-0.088,-0.86 -0.857,-1.481 -1.716,-1.394c-0.859,0.091 -1.481,0.856 -1.394,1.716Z" style="fill:#b8a28e;fill-rule:nonzero;"/><path d="M587.464,433.305c-0.347,4.606 -0.697,9.215 -1.044,13.825c-0.066,0.859 0.581,1.609 1.441,1.675c0.859,0.065 1.612,-0.581 1.675,-1.441c0.35,-4.609 0.697,-9.215 1.043,-13.825c0.066,-0.859 -0.578,-1.609 -1.44,-1.675c-0.86,-0.065 -1.61,0.578 -1.675,1.441Z" style="fill:#b8a28e;fill-rule:nonzero;"/><path d="M565.758,395.974c-0.297,1.634 -0.444,3.293 -0.444,4.95c0,2.978 0.475,5.956 1.412,8.79c0.272,0.819 1.156,1.263 1.975,0.991c0.819,-0.272 1.263,-1.156 0.994,-1.975c-0.834,-2.51 -1.256,-5.16 -1.256,-7.806c0,-1.472 0.131,-2.947 0.394,-4.394c0.153,-0.85 -0.41,-1.663 -1.26,-1.816c-0.85,-0.153 -1.662,0.41 -1.815,1.26Z" style="fill:#b8a28e;fill-rule:nonzero;"/><path d="M643.77,508.952c0.081,0.784 0.122,1.572 0.122,2.362c0,1.46 -0.141,2.919 -0.419,4.35c-0.162,0.847 0.391,1.669 1.238,1.831c0.847,0.166 1.665,-0.387 1.831,-1.234c0.315,-1.631 0.475,-3.287 0.475,-4.947c0,-0.897 -0.047,-1.794 -0.141,-2.687c-0.09,-0.86 -0.856,-1.482 -1.715,-1.394c-0.86,0.091 -1.482,0.859 -1.391,1.719Z" style="fill:#b8a28e;fill-rule:nonzero;"/><path d="M613.245,521.789c0.081,1.025 0.122,2.053 0.122,3.085c0,2.037 -0.16,4.078 -0.478,6.093c-0.135,0.853 0.447,1.653 1.3,1.788c0.85,0.134 1.65,-0.447 1.787,-1.297c0.344,-2.178 0.516,-4.381 0.516,-6.584c0,-1.113 -0.044,-2.225 -0.131,-3.335c-0.069,-0.859 -0.822,-1.5 -1.682,-1.431c-0.859,0.069 -1.503,0.822 -1.434,1.681Z" style="fill:#b8a28e;fill-rule:nonzero;"/><path d="M518.973,450.98c-1.369,3.422 -2.075,7.097 -2.075,10.781l0.013,0.803c0.021,0.863 0.743,1.544 1.606,1.519c0.862,-0.025 1.54,-0.744 1.515,-1.606l-0.009,-0.716c0,-3.284 0.631,-6.572 1.853,-9.622c0.319,-0.8 -0.068,-1.709 -0.872,-2.031c-0.8,-0.319 -1.709,0.069 -2.031,0.872Z" style="fill:#b8a28e;fill-rule:nonzero;"/><path d="M55.279,351.039c2.366,4.122 5.169,7.991 8.347,11.525c0.575,0.644 1.563,0.694 2.206,0.119c0.641,-0.578 0.694,-1.566 0.116,-2.206c-3.028,-3.372 -5.703,-7.063 -7.959,-10.994c-0.428,-0.747 -1.385,-1.006 -2.131,-0.578c-0.751,0.431 -1.007,1.384 -0.579,2.134Z" style="fill:#a18675;fill-rule:nonzero;"/><path d="M70.204,355.074c1.15,4.634 3.757,8.868 7.375,11.981c0.657,0.562 1.641,0.487 2.204,-0.169c0.562,-0.653 0.49,-1.64 -0.166,-2.203c-3.119,-2.678 -5.394,-6.369 -6.378,-10.363c-0.21,-0.837 -1.056,-1.346 -1.894,-1.14c-0.838,0.209 -1.347,1.056 -1.141,1.894Z" style="fill:#a18675;fill-rule:nonzero;"/><path d="M72.126,380.836c2.991,4.96 7.047,9.266 11.822,12.547c0.713,0.488 1.685,0.306 2.172,-0.403c0.491,-0.713 0.309,-1.685 -0.403,-2.172c-4.403,-3.028 -8.156,-7.009 -10.916,-11.587c-0.443,-0.738 -1.406,-0.975 -2.143,-0.532c-0.741,0.447 -0.979,1.406 -0.532,2.147Z" style="fill:#a18675;fill-rule:nonzero;"/><path d="M89.508,383.974c3.021,3.178 6.046,6.356 9.068,9.531c0.597,0.628 1.585,0.65 2.21,0.056c0.625,-0.594 0.65,-1.584 0.056,-2.209c-3.025,-3.178 -6.047,-6.353 -9.072,-9.531c-0.594,-0.625 -1.584,-0.651 -2.209,-0.057c-0.625,0.597 -0.647,1.585 -0.053,2.21Z" style="fill:#a18675;fill-rule:nonzero;"/><path d="M86.17,352.245c1.35,5.85 4.006,11.388 7.725,16.104c0.537,0.675 1.519,0.79 2.197,0.256c0.675,-0.535 0.791,-1.516 0.256,-2.194c-3.431,-4.347 -5.89,-9.472 -7.131,-14.869c-0.194,-0.84 -1.035,-1.365 -1.875,-1.172c-0.841,0.194 -1.366,1.035 -1.172,1.875Z" style="fill:#a18675;fill-rule:nonzero;"/><path d="M107.936,391.752c2.537,4.384 5.862,8.306 9.768,11.534c0.666,0.547 1.65,0.453 2.2,-0.212c0.55,-0.666 0.457,-1.65 -0.209,-2.197c-3.619,-2.988 -6.703,-6.632 -9.056,-10.691c-0.431,-0.747 -1.388,-1.003 -2.135,-0.572c-0.747,0.435 -1.003,1.391 -0.568,2.138Z" style="fill:#a18675;fill-rule:nonzero;"/><path d="M96.932,407.324c1.907,4.293 4.763,8.15 8.313,11.228c0.653,0.562 1.641,0.494 2.206,-0.16c0.566,-0.65 0.494,-1.637 -0.159,-2.203c-3.2,-2.772 -5.785,-6.265 -7.503,-10.134c-0.35,-0.788 -1.275,-1.144 -2.063,-0.794c-0.79,0.353 -1.144,1.275 -0.794,2.063Z" style="fill:#a18675;fill-rule:nonzero;"/><path d="M123.651,354.911c2.338,4.816 5.657,9.141 9.7,12.647c0.653,0.566 1.638,0.494 2.203,-0.156c0.566,-0.653 0.494,-1.641 -0.156,-2.207c-3.722,-3.225 -6.784,-7.218 -8.934,-11.646c-0.378,-0.779 -1.313,-1.104 -2.088,-0.725c-0.778,0.375 -1.1,1.312 -0.725,2.087Z" style="fill:#a18675;fill-rule:nonzero;"/><path d="M19.867,187.755c-0.047,1.325 -0.072,2.647 -0.072,3.972c0,4.178 0.237,8.356 0.709,12.509c0.097,0.856 0.872,1.472 1.729,1.375c0.856,-0.097 1.475,-0.872 1.375,-1.728c-0.457,-4.034 -0.688,-8.097 -0.688,-12.156c0,-1.288 0.025,-2.575 0.069,-3.86c0.031,-0.862 -0.641,-1.587 -1.503,-1.618c-0.863,-0.032 -1.588,0.643 -1.619,1.506Z" style="fill:#a18675;fill-rule:nonzero;"/><path d="M21.264,213.355c0.756,4.522 2.262,8.912 4.443,12.947c0.41,0.759 1.36,1.04 2.119,0.631c0.76,-0.412 1.041,-1.359 0.631,-2.119c-2.018,-3.728 -3.412,-7.794 -4.109,-11.975c-0.144,-0.85 -0.95,-1.425 -1.8,-1.284c-0.85,0.144 -1.425,0.95 -1.284,1.8Z" style="fill:#a18675;fill-rule:nonzero;"/><path d="M29.417,202.564l-0.003,0.453c0,4.438 0.753,8.869 2.225,13.057c0.165,0.453 0.394,0.828 0.725,1.187c0.337,0.331 0.781,0.76 1.69,0.797c0.516,0.012 1.094,-0.25 1.419,-0.606c0.603,-0.619 0.594,-1.606 -0.025,-2.21c-0.616,-0.603 -1.606,-0.59 -2.209,0.025l0.815,0.797l0,-1.131c-0.3,-0.016 -0.671,0.169 -0.815,0.334l0.815,0.797l0,-1.131l0,0.984l0.494,-0.862l-0.494,-0.122l0,0.984l0.494,-0.862l-0.222,0.39l0.31,-0.331l-0.088,-0.059l-0.222,0.39l0.31,-0.331l-0.025,-0.034l-0.025,-0.041c-1.35,-3.853 -2.047,-7.937 -2.047,-12.022l0.003,-0.415c0.009,-0.863 -0.681,-1.572 -1.544,-1.582c-0.862,-0.009 -1.572,0.682 -1.581,1.544Z" style="fill:#a18675;fill-rule:nonzero;"/><path d="M43.642,210.717c1.215,4.119 3.006,8.066 5.309,11.691c0.463,0.728 1.428,0.944 2.156,0.481c0.729,-0.462 0.944,-1.428 0.482,-2.156c-2.147,-3.378 -3.819,-7.059 -4.947,-10.897c-0.247,-0.828 -1.116,-1.303 -1.941,-1.059c-0.828,0.243 -1.303,1.112 -1.059,1.94Z" style="fill:#a18675;fill-rule:nonzero;"/><path d="M33.445,171.911c-0.35,3.431 -0.525,6.881 -0.525,10.331c0,2.369 0.081,4.738 0.247,7.103c0.062,0.863 0.809,1.51 1.669,1.45c0.862,-0.059 1.509,-0.806 1.45,-1.668c-0.163,-2.291 -0.241,-4.588 -0.241,-6.885c0,-3.343 0.169,-6.687 0.509,-10.012c0.088,-0.86 -0.537,-1.625 -1.393,-1.713c-0.86,-0.087 -1.629,0.538 -1.716,1.394Z" style="fill:#a18675;fill-rule:nonzero;"/><path d="M61.517,182.536l0,0.363c0,5.209 1.15,10.403 3.35,15.125c0.362,0.784 1.294,1.121 2.075,0.756c0.781,-0.363 1.122,-1.294 0.756,-2.075c-2.006,-4.303 -3.059,-9.06 -3.056,-13.806l0,-0.332c0.009,-0.862 -0.685,-1.568 -1.547,-1.578c-0.863,-0.009 -1.569,0.681 -1.578,1.547Z" style="fill:#a18675;fill-rule:nonzero;"/><path d="M38.198,119.511c-3.206,5.5 -4.959,11.816 -5.053,18.181c-0.013,0.863 0.675,1.572 1.538,1.585c0.862,0.012 1.574,-0.678 1.587,-1.541c0.081,-5.819 1.697,-11.625 4.628,-16.653c0.434,-0.744 0.181,-1.7 -0.562,-2.138c-0.747,-0.431 -1.703,-0.181 -2.138,0.566Z" style="fill:#a18675;fill-rule:nonzero;"/><path d="M26.842,137.433c-1.644,2.916 -2.491,6.241 -2.494,9.572c0,1.309 0.131,2.622 0.403,3.909c0.175,0.844 1.003,1.385 1.847,1.21c0.844,-0.175 1.388,-1.004 1.209,-1.85c-0.221,-1.072 -0.334,-2.169 -0.334,-3.269c0,-2.8 0.722,-5.61 2.091,-8.035c0.425,-0.753 0.159,-1.703 -0.594,-2.128c-0.75,-0.425 -1.703,-0.159 -2.128,0.591Z" style="fill:#a18675;fill-rule:nonzero;"/><path d="M253.611,505.77c-6.538,-1.787 -12.732,-4.862 -18.11,-8.99c-0.684,-0.525 -1.665,-0.397 -2.19,0.287c-0.525,0.685 -0.397,1.666 0.287,2.194c5.703,4.375 12.256,7.628 19.188,9.525c0.834,0.228 1.693,-0.262 1.922,-1.094c0.224,-0.834 -0.263,-1.693 -1.097,-1.922Z" style="fill:#a18675;fill-rule:nonzero;"/><path d="M273.998,503.411c-4.325,-0.497 -8.466,-2.878 -11.062,-6.372c-0.516,-0.694 -1.497,-0.834 -2.188,-0.319c-0.691,0.516 -0.834,1.494 -0.319,2.188c3.141,4.2 8,6.997 13.21,7.606c0.856,0.1 1.631,-0.512 1.731,-1.372c0.1,-0.856 -0.516,-1.631 -1.372,-1.731Z" style="fill:#a18675;fill-rule:nonzero;"/><path d="M288.926,520.424c-3.29,-0.85 -6.475,-2.119 -9.453,-3.76l-0.706,-0.544l-0.138,-0.187l-0.003,-0.006l-0.306,0.115l0.322,0l-0.016,-0.115l-0.306,0.115l0.322,0l-0.503,0l0.431,0.263l0.072,-0.263l-0.503,0l0.431,0.263c0.45,-0.735 0.219,-1.697 -0.519,-2.147c-0.737,-0.45 -1.7,-0.216 -2.147,0.522c-0.256,0.409 -0.39,0.906 -0.387,1.362c0.015,0.988 0.481,1.666 0.931,2.175c0.466,0.51 0.991,0.891 1.516,1.185c3.206,1.768 6.634,3.131 10.178,4.05c0.834,0.215 1.687,-0.288 1.903,-1.122c0.216,-0.838 -0.284,-1.688 -1.119,-1.903l0,-0.003Z" style="fill:#a18675;fill-rule:nonzero;"/><path d="M297.739,512.139c-2.516,-1.478 -5.032,-2.956 -7.547,-4.434c-0.747,-0.435 -1.703,-0.188 -2.141,0.556c-0.437,0.744 -0.187,1.703 0.556,2.141c2.516,1.478 5.035,2.953 7.55,4.431c0.744,0.437 1.701,0.191 2.138,-0.556c0.438,-0.744 0.188,-1.7 -0.556,-2.138Z" style="fill:#a18675;fill-rule:nonzero;"/><path d="M278.832,493.611c-4.853,-2.606 -9.24,-6.078 -12.89,-10.2c-0.572,-0.647 -1.56,-0.706 -2.206,-0.134c-0.644,0.572 -0.707,1.559 -0.135,2.203c3.897,4.403 8.572,8.103 13.753,10.884c0.76,0.406 1.707,0.122 2.116,-0.637c0.406,-0.763 0.122,-1.71 -0.638,-2.116Z" style="fill:#a18675;fill-rule:nonzero;"/><path d="M245.982,489.058c-5.487,-1.484 -10.593,-4.412 -14.646,-8.397c-0.616,-0.603 -1.607,-0.594 -2.213,0.022c-0.603,0.616 -0.594,1.606 0.022,2.209c4.444,4.363 10.009,7.553 16.019,9.185c0.834,0.225 1.69,-0.269 1.919,-1.1c0.224,-0.835 -0.266,-1.691 -1.101,-1.916l0,-0.003Z" style="fill:#a18675;fill-rule:nonzero;"/><path d="M217.839,495.205c-3.35,-0.853 -6.578,-2.178 -9.56,-3.928c-0.743,-0.438 -1.7,-0.188 -2.137,0.556c-0.438,0.744 -0.188,1.703 0.556,2.141c3.235,1.896 6.734,3.334 10.369,4.259c0.837,0.213 1.687,-0.291 1.9,-1.128c0.212,-0.838 -0.294,-1.688 -1.128,-1.9Z" style="fill:#a18675;fill-rule:nonzero;"/><path d="M312.026,482.474c-4.734,-0.166 -9.428,-2.075 -12.934,-5.26c-0.638,-0.581 -1.628,-0.534 -2.206,0.106c-0.582,0.638 -0.532,1.629 0.106,2.207c4.072,3.69 9.431,5.872 14.925,6.068c0.862,0.032 1.584,-0.64 1.615,-1.503c0.032,-0.862 -0.643,-1.587 -1.506,-1.618Z" style="fill:#a18675;fill-rule:nonzero;"/><path d="M405.579,528.855c-1.168,0.297 -2.378,0.444 -3.593,0.444c-3.038,0.003 -6.094,-0.922 -8.569,-2.644c-0.71,-0.494 -1.681,-0.316 -2.175,0.394c-0.491,0.706 -0.316,1.681 0.394,2.172c3.031,2.103 6.684,3.203 10.35,3.203c1.465,0 2.934,-0.175 4.362,-0.541c0.838,-0.213 1.344,-1.063 1.131,-1.897c-0.212,-0.837 -1.062,-1.344 -1.9,-1.131Z" style="fill:#a18675;fill-rule:nonzero;"/><path d="M404.426,518.199c-2.878,-0.738 -5.753,-1.478 -8.628,-2.219c-0.837,-0.216 -1.687,0.29 -1.903,1.125c-0.216,0.837 0.287,1.687 1.125,1.903c2.875,0.737 5.75,1.478 8.628,2.219c0.834,0.212 1.688,-0.291 1.9,-1.125c0.216,-0.838 -0.287,-1.688 -1.122,-1.903Z" style="fill:#a18675;fill-rule:nonzero;"/></svg>