<?xml version="1.0" encoding="UTF-8" standalone="no"?>
<!DOCTYPE svg PUBLIC "-//W3C//DTD SVG 1.1//EN" "http://www.w3.org/Graphics/SVG/1.1/DTD/svg11.dtd">
<svg width="100%" height="100%" viewBox="0 0 139 139" version="1.1" xmlns="http://www.w3.org/2000/svg" xmlns:xlink="http://www.w3.org/1999/xlink" xml:space="preserve" xmlns:serif="http://www.serif.com/" style="fill-rule:evenodd;clip-rule:evenodd;stroke-linejoin:round;stroke-miterlimit:1.41421;">
    <g transform="matrix(1,0,0,1,0,13.5)">
        <path d="M114.866,29.121C115.414,27.649 115.294,25.95 114.367,24.535C112.834,22.168 109.664,21.514 107.301,23.059C107.195,23.127 107.113,23.215 107.017,23.288C106.974,23.238 106.931,23.184 106.887,23.135C106.969,23.051 107.062,22.988 107.142,22.898C108.98,20.754 108.748,17.542 106.615,15.688C104.47,13.85 101.242,14.083 99.406,16.213C99.328,16.302 99.277,16.404 99.207,16.496C99.152,16.461 99.101,16.428 99.053,16.394C99.103,16.299 99.162,16.211 99.213,16.112C100.441,13.572 99.392,10.506 96.849,9.279C94.324,8.04 91.258,9.092 90.033,11.631C89.984,11.728 89.961,11.832 89.922,11.932C89.857,11.908 89.793,11.883 89.726,11.861C89.754,11.767 89.793,11.684 89.814,11.586C90.428,8.827 88.691,6.098 85.931,5.5C83.172,4.887 80.443,6.625 79.844,9.383C79.824,9.478 79.826,9.572 79.81,9.668C79.738,9.66 79.668,9.65 79.597,9.642C79.601,9.545 79.625,9.451 79.625,9.353C79.625,1.163 65.521,0.605 65.521,9.353C65.521,9.451 65.545,9.545 65.551,9.642C65.48,9.65 65.406,9.66 65.338,9.668C65.322,9.572 65.324,9.478 65.303,9.383C64.705,6.625 61.974,4.887 59.217,5.5C56.455,6.098 54.72,8.827 55.332,11.586C55.353,11.684 55.392,11.767 55.42,11.861C55.353,11.883 55.289,11.908 55.224,11.932C55.187,11.832 55.162,11.728 55.113,11.631C53.888,9.092 50.822,8.04 48.297,9.279C45.756,10.506 44.707,13.572 45.935,16.112C45.982,16.211 46.043,16.299 46.095,16.394C46.045,16.428 45.994,16.461 45.939,16.496C45.871,16.404 45.818,16.302 45.74,16.213C43.904,14.083 40.676,13.85 38.531,15.688C36.4,17.542 36.168,20.754 38.006,22.898C38.084,22.988 38.178,23.051 38.26,23.135C38.217,23.184 38.172,23.238 38.129,23.288C38.035,23.215 37.951,23.127 37.845,23.059C35.482,21.514 32.312,22.168 30.781,24.535C30.011,25.713 29.788,27.091 30.05,28.368C30.034,28.373 30.019,28.376 30.004,28.381C15.004,32.92 -0.574,68.992 6.961,74.608C9.637,77.533 18.119,69.66 25.973,60.124C26.907,61.511 28.47,62.398 30.197,62.398C30.476,62.398 30.767,62.371 31.058,62.31C31.107,62.303 31.148,62.283 31.193,62.273C31.205,62.331 31.215,62.391 31.23,62.447C28.484,63.055 26.74,65.776 27.336,68.528L27.351,68.528C27.861,70.924 29.976,72.543 32.328,72.543C32.67,72.543 33.013,72.514 33.355,72.439C33.363,72.497 33.377,72.561 33.39,72.625C33.373,72.628 33.355,72.627 33.338,72.631C30.576,73.228 28.826,75.942 29.437,78.705C29.949,81.099 32.068,82.731 34.416,82.731C34.781,82.731 35.146,82.688 35.51,82.615C35.517,82.615 35.523,82.611 35.533,82.609C35.545,82.692 35.558,82.778 35.576,82.862C34.683,83.065 33.842,83.479 33.191,84.132C32.226,85.081 31.683,86.41 31.683,87.754C31.683,89.097 32.226,90.409 33.191,91.359C33.475,91.642 34.253,92.067 34.267,92.137L34.801,92.163C34.799,92.231 34.797,92.299 34.797,92.368C34.797,95.061 36.978,97.243 39.672,97.243C41.015,97.243 42.232,96.699 43.115,95.819C43.377,98.262 45.447,100.165 47.961,100.165C49.136,100.165 50.198,99.731 51.041,99.038C56.805,106.043 63.721,111.039 71.502,111.258C78.258,111.068 84.361,107.274 89.626,101.693C91.473,101.527 93.027,100.346 93.703,98.698C94.588,99.602 95.82,100.165 97.187,100.165C99.701,100.165 101.769,98.262 102.033,95.819C102.916,96.699 104.133,97.243 105.476,97.243C108.17,97.243 110.351,95.061 110.351,92.368C110.351,92.299 110.349,92.231 110.347,92.163L110.88,92.137C110.895,92.067 111.673,91.642 111.957,91.359C112.92,90.409 113.463,89.097 113.463,87.754C113.463,86.41 112.92,85.081 111.957,84.132C111.304,83.479 110.463,83.065 109.572,82.862C109.59,82.778 109.603,82.692 109.615,82.609C109.625,82.611 109.629,82.615 109.637,82.615C110,82.688 110.365,82.731 110.73,82.731C113.08,82.731 115.199,81.099 115.709,78.705C116.322,75.942 114.57,73.228 111.81,72.631C111.793,72.627 111.775,72.628 111.758,72.625C111.771,72.561 111.785,72.497 111.793,72.439C112.133,72.514 112.478,72.543 112.818,72.543C115.17,72.543 117.285,70.924 117.795,68.528L117.812,68.528C118.408,65.776 116.664,63.055 113.918,62.447C113.931,62.391 113.943,62.331 113.953,62.273C114,62.283 114.039,62.303 114.088,62.31C114.381,62.371 114.672,62.398 114.951,62.398C116.098,62.398 117.171,62 118.04,61.334C125.599,70.311 133.482,77.408 136.043,74.608C143.267,69.225 129.251,35.874 114.866,29.121" style="fill:rgb(27,0,0);fill-opacity:0.2;"/>
    </g>
    <g transform="matrix(1,0,0,1,0,13.5)">
        <path d="M34.267,92.137L34.167,92.132C34.249,92.157 34.27,92.152 34.267,92.137" style="fill:rgb(27,0,0);fill-opacity:0.2;"/>
    </g>
    <g transform="matrix(1,0,0,1,0,13.5)">
        <path d="M110.978,92.132L110.879,92.137C110.876,92.152 110.896,92.156 110.978,92.132" style="fill:rgb(27,0,0);fill-opacity:0.2;"/>
    </g>
    <g transform="matrix(1,0,0,1,0,13.5)">
        <path d="M131.042,71.608C125.683,77.468 97.013,39.985 96.78,32.617C96.78,32.617 93.007,20.841 108.001,25.38C122.999,29.92 138.579,65.992 131.042,71.608" style="fill:rgb(243,231,227);"/>
    </g>
    <g transform="matrix(1,0,0,1,0,13.5)">
        <path d="M123.699,69.213C115.474,62.633 103.385,46.849 98.719,37.883C98.638,35.525 99.709,32.118 107.365,34.436C118.51,37.809 130.088,64.614 124.486,68.787C124.273,69.022 124.008,69.156 123.699,69.213" style="fill:rgb(214,90,111);"/>
    </g>
    <g transform="matrix(1,0,0,1,0,13.5)">
        <path d="M1.96,71.608C7.321,77.468 35.991,39.985 36.222,32.617C36.222,32.617 39.995,20.841 25.003,25.38C10.003,29.92 -5.575,65.992 1.96,71.608" style="fill:rgb(243,231,227);"/>
    </g>
    <g transform="matrix(1,0,0,1,0,13.5)">
        <path d="M9.306,69.213C17.529,62.633 29.618,46.849 34.286,37.883C34.365,35.525 33.296,32.118 25.638,34.436C14.493,37.809 2.915,64.614 8.517,68.787C8.732,69.022 8.997,69.156 9.306,69.213" style="fill:rgb(214,90,111);"/>
    </g>
    <g transform="matrix(1,0,0,1,0,13.5)">
        <path d="M60.521,6.353C60.521,6.451 60.544,6.544 60.55,6.642C60.48,6.65 60.406,6.66 60.337,6.667C60.322,6.572 60.324,6.478 60.302,6.382C59.705,3.624 56.974,1.886 54.216,2.499C51.455,3.097 49.72,5.827 50.332,8.585C50.353,8.683 50.392,8.767 50.419,8.861C50.353,8.882 50.289,8.908 50.224,8.931C50.187,8.832 50.162,8.728 50.113,8.63C48.888,6.091 45.822,5.04 43.296,6.279C40.755,7.505 39.707,10.572 40.935,13.112C40.982,13.21 41.042,13.298 41.095,13.394C41.044,13.427 40.994,13.46 40.939,13.496C40.871,13.404 40.818,13.301 40.74,13.212C38.904,11.082 35.675,10.85 33.531,12.688C31.4,14.541 31.167,17.753 33.005,19.898C33.084,19.988 33.177,20.05 33.259,20.134C33.216,20.183 33.171,20.238 33.128,20.288C33.035,20.214 32.951,20.126 32.845,20.059C30.482,18.513 27.312,19.167 25.781,21.535C24.234,23.898 24.89,27.065 27.255,28.615C27.361,28.683 27.474,28.734 27.582,28.793C27.558,28.849 27.527,28.905 27.501,28.962C27.384,28.915 27.277,28.854 27.152,28.818C24.453,28.015 21.609,29.564 20.802,32.263C20.001,34.977 21.546,37.81 24.263,38.611C24.382,38.649 24.505,38.667 24.63,38.695C24.621,38.757 24.611,38.822 24.605,38.882C24.48,38.873 24.361,38.845 24.234,38.845C21.404,38.861 19.125,41.152 19.14,43.968C19.14,46.786 21.429,49.064 24.248,49.064L24.263,49.064C24.351,49.064 24.435,49.041 24.521,49.037C24.527,49.101 24.535,49.164 24.542,49.226C24.474,49.235 24.414,49.229 24.351,49.239C21.56,49.72 19.695,52.362 20.162,55.136L20.162,55.15C20.597,57.632 22.746,59.398 25.197,59.398C25.476,59.398 25.767,59.371 26.058,59.31C26.107,59.302 26.148,59.283 26.193,59.273C26.205,59.331 26.214,59.39 26.23,59.447C23.484,60.054 21.74,62.776 22.335,65.528L22.351,65.528C22.861,67.923 24.976,69.542 27.328,69.542C27.669,69.542 28.013,69.513 28.355,69.439C28.363,69.497 28.376,69.561 28.39,69.624C28.373,69.627 28.355,69.626 28.337,69.63C25.576,70.228 23.826,72.942 24.437,75.705C24.949,78.098 27.068,79.731 29.416,79.731C29.781,79.731 30.146,79.688 30.509,79.615C30.517,79.615 30.523,79.611 30.533,79.609C30.544,79.692 30.558,79.778 30.576,79.862C29.683,80.065 28.841,80.479 28.191,81.131C27.226,82.081 26.683,83.41 26.683,84.753C26.683,86.096 27.226,87.409 28.191,88.359C28.537,88.704 29.63,89.266 29.167,89.131L29.8,89.163C29.798,89.231 29.796,89.298 29.796,89.368C29.796,92.061 31.978,94.243 34.671,94.243C36.015,94.243 37.232,93.699 38.115,92.819C38.376,95.261 40.447,97.165 42.96,97.165C44.326,97.165 45.558,96.602 46.445,95.698C47.173,97.474 48.917,98.726 50.957,98.726C51.941,98.726 52.857,98.432 53.625,97.93C54.496,99.251 55.992,100.122 57.693,100.122C60.386,100.122 62.568,97.939 62.568,95.247C62.568,92.554 60.386,90.372 57.693,90.372C56.708,90.372 55.792,90.664 55.027,91.166C54.66,90.611 54.181,90.134 53.625,89.77C57.507,89.786 61.582,89.758 65.625,89.658C66.275,89.675 66.923,89.689 67.574,89.701C68.222,89.689 68.873,89.675 69.521,89.658C73.566,89.758 77.638,89.786 81.523,89.77C80.964,90.134 80.486,90.611 80.121,91.166C79.353,90.664 78.439,90.372 77.453,90.372C74.761,90.372 72.58,92.554 72.58,95.247C72.58,97.939 74.761,100.122 77.453,100.122C79.154,100.122 80.652,99.251 81.523,97.93C82.289,98.432 83.205,98.726 84.189,98.726C86.228,98.726 87.974,97.474 88.703,95.698C89.587,96.602 90.82,97.165 92.187,97.165C94.701,97.165 96.769,95.261 97.033,92.819C97.916,93.699 99.132,94.243 100.476,94.243C103.169,94.243 105.351,92.061 105.351,89.368C105.351,89.298 105.349,89.231 105.347,89.163L105.978,89.131C105.517,89.266 106.611,88.704 106.957,88.359C107.919,87.409 108.462,86.096 108.462,84.753C108.462,83.41 107.919,82.081 106.957,81.131C106.304,80.479 105.462,80.065 104.572,79.862C104.589,79.778 104.603,79.692 104.615,79.609C104.625,79.611 104.628,79.615 104.636,79.615C105,79.688 105.365,79.731 105.73,79.731C108.08,79.731 110.199,78.098 110.709,75.705C111.322,72.942 109.57,70.228 106.81,69.63C106.792,69.626 106.775,69.627 106.757,69.624C106.771,69.561 106.785,69.497 106.792,69.439C107.132,69.513 107.478,69.542 107.818,69.542C110.169,69.542 112.285,67.923 112.794,65.528L112.812,65.528C113.408,62.776 111.664,60.054 108.917,59.447C108.931,59.39 108.943,59.331 108.953,59.273C109,59.283 109.039,59.302 109.087,59.31C109.38,59.371 109.671,59.398 109.951,59.398C112.402,59.398 114.548,57.632 114.986,55.15L114.986,55.136C115.453,52.362 113.585,49.72 110.794,49.239C110.732,49.229 110.671,49.235 110.605,49.226C110.611,49.164 110.621,49.101 110.626,49.037C110.712,49.041 110.794,49.064 110.882,49.064L110.9,49.064C113.718,49.064 116.007,46.786 116.007,43.968C116.023,41.152 113.744,38.861 110.914,38.845C110.787,38.845 110.666,38.873 110.542,38.882C110.535,38.822 110.525,38.757 110.517,38.695C110.64,38.667 110.763,38.649 110.882,38.611C113.599,37.81 115.144,34.977 114.343,32.263C113.539,29.564 110.695,28.015 107.994,28.818C107.871,28.854 107.761,28.915 107.644,28.962C107.619,28.905 107.589,28.849 107.564,28.793C107.671,28.734 107.787,28.683 107.892,28.615C110.255,27.065 110.914,23.898 109.367,21.535C107.834,19.167 104.664,18.513 102.3,20.059C102.195,20.126 102.113,20.214 102.017,20.288C101.974,20.238 101.931,20.183 101.886,20.134C101.968,20.05 102.062,19.988 102.142,19.898C103.98,17.753 103.748,14.541 101.615,12.688C99.47,10.85 96.242,11.082 94.406,13.212C94.328,13.301 94.277,13.404 94.207,13.496C94.152,13.46 94.101,13.427 94.052,13.394C94.103,13.298 94.162,13.21 94.212,13.112C95.441,10.572 94.392,7.505 91.849,6.279C89.324,5.04 86.257,6.091 85.033,8.63C84.984,8.728 84.96,8.832 84.921,8.931C84.857,8.908 84.792,8.882 84.726,8.861C84.753,8.767 84.792,8.683 84.814,8.585C85.427,5.827 83.691,3.097 80.931,2.499C78.171,1.886 75.443,3.624 74.843,6.382C74.824,6.478 74.826,6.572 74.81,6.667C74.738,6.66 74.667,6.65 74.597,6.642C74.601,6.544 74.625,6.451 74.625,6.353C74.625,-1.837 60.521,-2.395 60.521,6.353" style="fill:white;"/>
    </g>
    <g transform="matrix(1,0,0,1,0,13.5)">
        <path d="M66.501,32.52L47.038,32.52C36.286,32.52 27.567,41.234 27.567,51.984C27.567,63.901 43.142,107.603 66.501,108.258C89.86,107.603 105.435,63.901 105.435,51.984C105.435,41.234 96.718,32.52 85.966,32.52L66.501,32.52Z" style="fill:rgb(253,207,154);"/>
    </g>
    <g transform="matrix(1,0,0,1,0,13.5)">
        <path d="M67.574,30.679C69.078,30.679 70.426,31.342 71.33,32.388C71.767,30.151 73.767,28.461 76.17,28.461C77.879,28.461 79.385,29.316 80.269,30.615C80.818,28.526 82.748,26.982 85.043,26.982C86.5,26.982 87.806,27.604 88.709,28.59C89.613,27.508 90.984,26.817 92.519,26.817C95.242,26.817 97.449,28.987 97.449,31.664C97.449,34.341 95.242,36.512 92.519,36.512C91.064,36.512 89.754,35.89 88.853,34.904C87.949,35.985 86.578,36.676 85.043,36.676C83.334,36.676 81.828,35.82 80.943,34.521C80.394,36.611 78.467,38.155 76.17,38.155C74.666,38.155 73.318,37.491 72.414,36.446C71.976,38.683 69.976,40.373 67.574,40.373L67.508,40.372L67.443,40.373C65.041,40.373 63.041,38.683 62.603,36.446C61.699,37.491 60.351,38.155 58.845,38.155C56.551,38.155 54.621,36.611 54.072,34.521C53.189,35.82 51.683,36.676 49.974,36.676C48.439,36.676 47.068,35.985 46.164,34.904C45.262,35.89 43.953,36.512 42.498,36.512C39.775,36.512 37.568,34.341 37.568,31.664C37.568,28.987 39.775,26.817 42.498,26.817C44.031,26.817 45.404,27.508 46.306,28.59C47.209,27.604 48.517,26.982 49.974,26.982C52.269,26.982 54.199,28.526 54.748,30.615C55.631,29.316 57.136,28.461 58.845,28.461C61.248,28.461 63.25,30.151 63.685,32.388C64.59,31.342 65.937,30.679 67.443,30.679L67.574,30.679Z" style="fill:white;"/>
    </g>
    <g transform="matrix(1,0,0,1,0,13.5)">
        <path d="M36.222,32.617C36.659,31.605 41.945,40.297 31.814,41.543C30.876,41.658 35.023,45.476 30.661,48.966C29.37,50.001 33.275,53.017 30.376,55.703C29.101,56.885 33.036,57.373 31.185,62.603C31.175,62.634 34.775,69.365 30.335,68.819C29.003,68.654 25.784,63.275 26.843,60.425C27.56,58.488 23.632,50.291 26.884,41.887C29.202,35.896 24.945,37.076 34.279,33.027C34.531,32.918 36.298,32.427 36.579,32.539L36.222,32.617Z" style="fill:white;"/>
    </g>
    <g transform="matrix(1,0,0,1,0,13.5)">
        <path d="M96.009,30.653C95.573,29.642 90.286,38.335 100.419,39.581C101.355,39.696 97.208,43.513 101.568,47.003C102.863,48.039 98.956,51.053 101.855,53.739C103.13,54.921 99.197,55.411 101.048,60.64C101.058,60.67 97.456,67.402 101.898,66.855C103.23,66.693 106.448,61.311 105.39,58.462C104.671,56.525 108.599,48.327 105.347,39.924C103.029,33.932 107.286,35.114 97.952,31.065C97.7,30.955 95.935,30.465 95.652,30.575L96.009,30.653Z" style="fill:white;"/>
    </g>
    <g transform="matrix(1,0,0,1,0,13.5)">
        <path d="M43.847,54.662C44.242,52.679 46.169,51.39 48.152,51.784C50.138,52.179 51.427,54.106 51.031,56.091C50.98,56.345 50.904,56.585 50.808,56.813C50.347,56.194 49.622,55.718 48.585,55.511C46.716,55.141 45.183,55.936 44.236,57.147C43.829,56.417 43.669,55.544 43.847,54.662M46.308,61.064C49.449,61.689 52.501,59.65 53.128,56.509C53.751,53.366 51.712,50.315 48.57,49.689C45.429,49.063 42.378,51.103 41.751,54.245C41.126,57.386 43.165,60.439 46.308,61.064" style="fill:white;fill-rule:nonzero;"/>
    </g>
    <g transform="matrix(1,0,0,1,0,13.5)">
        <path d="M48.585,55.511C49.622,55.718 50.347,56.195 50.808,56.814C50.903,56.585 50.98,56.345 51.03,56.091C51.427,54.107 50.138,52.179 48.151,51.784C46.169,51.39 44.241,52.679 43.847,54.662C43.669,55.544 43.829,56.417 44.235,57.148C45.183,55.937 46.716,55.142 48.585,55.511" style="fill-rule:nonzero;"/>
    </g>
    <g transform="matrix(1,0,0,1,0,13.5)">
        <path d="M89.644,57.147C88.697,55.936 87.164,55.141 85.294,55.51C84.257,55.717 83.533,56.194 83.072,56.813C82.976,56.585 82.9,56.344 82.849,56.09C82.453,54.106 83.742,52.178 85.728,51.784C87.71,51.389 89.638,52.678 90.033,54.662C90.21,55.543 90.05,56.417 89.644,57.147M92.128,54.245C91.501,51.103 88.451,49.063 85.31,49.689C82.167,50.315 80.128,53.366 80.751,56.508C81.378,59.65 84.431,61.689 87.572,61.064C90.714,60.439 92.753,57.385 92.128,54.245" style="fill:white;fill-rule:nonzero;"/>
    </g>
    <g transform="matrix(1,0,0,1,0,13.5)">
        <path d="M85.294,55.511C84.257,55.718 83.532,56.195 83.071,56.814C82.976,56.585 82.899,56.345 82.849,56.091C82.452,54.107 83.741,52.179 85.728,51.784C87.71,51.39 89.638,52.679 90.032,54.662C90.21,55.544 90.05,56.417 89.644,57.148C88.696,55.937 87.163,55.142 85.294,55.511" style="fill-rule:nonzero;"/>
    </g>
    <g transform="matrix(1,0,0,1,0,13.5)">
        <path d="M66.501,78.654C66.229,78.639 65.955,78.631 65.686,78.627L65.684,91.473C64.023,94.384 61.923,96.034 59.439,96.379C54.163,97.097 46.896,90.839 46.63,91.107C52.256,97.386 61.19,101.278 66.501,93.267C71.812,101.278 80.746,97.386 86.372,91.107C86.106,90.839 78.839,97.097 73.563,96.379C71.079,96.034 68.98,94.384 67.318,91.473L67.318,78.627C67.047,78.631 66.773,78.639 66.501,78.654"/>
    </g>
    <g transform="matrix(1,0,0,1,0,13.5)">
        <path d="M66.5,66.263C53.033,66.121 53.149,70.999 60.195,75.971C62.762,77.783 64.932,78.992 66.5,79.759C68.068,78.992 70.239,77.783 72.806,75.971C79.852,70.999 79.968,66.121 66.5,66.263" style="fill:rgb(214,90,111);"/>
    </g>
</svg>
