<?xml version="1.0" encoding="UTF-8" standalone="no"?><!DOCTYPE svg PUBLIC "-//W3C//DTD SVG 1.1//EN" "http://www.w3.org/Graphics/SVG/1.1/DTD/svg11.dtd"><svg width="100%" height="100%" viewBox="0 0 139 112" version="1.1" xmlns="http://www.w3.org/2000/svg" xmlns:xlink="http://www.w3.org/1999/xlink" xml:space="preserve" style="fill-rule:evenodd;clip-rule:evenodd;stroke-linejoin:round;stroke-miterlimit:1.41421;"><path d="M114.866,29.121c0.548,-1.472 0.428,-3.171 -0.499,-4.586c-1.533,-2.367 -4.703,-3.021 -7.066,-1.476c-0.106,0.068 -0.188,0.156 -0.284,0.229c-0.043,-0.05 -0.086,-0.104 -0.13,-0.153c0.082,-0.084 0.175,-0.147 0.255,-0.237c1.838,-2.144 1.606,-5.356 -0.527,-7.21c-2.145,-1.838 -5.373,-1.605 -7.209,0.525c-0.078,0.089 -0.129,0.191 -0.199,0.283c-0.055,-0.035 -0.106,-0.068 -0.154,-0.102c0.05,-0.095 0.109,-0.183 0.16,-0.282c1.228,-2.54 0.179,-5.606 -2.364,-6.833c-2.525,-1.239 -5.591,-0.187 -6.816,2.352c-0.049,0.097 -0.072,0.201 -0.111,0.301c-0.065,-0.024 -0.129,-0.049 -0.196,-0.071c0.028,-0.094 0.067,-0.177 0.088,-0.275c0.614,-2.759 -1.123,-5.488 -3.883,-6.086c-2.759,-0.613 -5.488,1.125 -6.087,3.883c-0.02,0.095 -0.018,0.189 -0.034,0.285c-0.072,-0.008 -0.142,-0.018 -0.213,-0.026c0.004,-0.097 0.028,-0.191 0.028,-0.289c0,-8.19 -14.104,-8.748 -14.104,0c0,0.098 0.024,0.192 0.03,0.289c-0.071,0.008 -0.145,0.018 -0.213,0.026c-0.016,-0.096 -0.014,-0.19 -0.035,-0.285c-0.598,-2.758 -3.329,-4.496 -6.086,-3.883c-2.762,0.598 -4.497,3.327 -3.885,6.086c0.021,0.098 0.06,0.181 0.088,0.275c-0.067,0.022 -0.131,0.047 -0.196,0.071c-0.037,-0.1 -0.062,-0.204 -0.111,-0.301c-1.225,-2.539 -4.291,-3.591 -6.816,-2.352c-2.541,1.227 -3.59,4.293 -2.362,6.833c0.047,0.099 0.108,0.187 0.16,0.282c-0.05,0.034 -0.101,0.067 -0.156,0.102c-0.068,-0.092 -0.121,-0.194 -0.199,-0.283c-1.836,-2.13 -5.064,-2.363 -7.209,-0.525c-2.131,1.854 -2.363,5.066 -0.525,7.21c0.078,0.09 0.172,0.153 0.254,0.237c-0.043,0.049 -0.088,0.103 -0.131,0.153c-0.094,-0.073 -0.178,-0.161 -0.284,-0.229c-2.363,-1.545 -5.533,-0.891 -7.064,1.476c-0.77,1.178 -0.993,2.556 -0.731,3.833c-0.016,0.005 -0.031,0.008 -0.046,0.013c-15,4.539 -30.578,40.611 -23.043,46.227c2.676,2.925 11.158,-4.948 19.012,-14.484c0.934,1.387 2.497,2.274 4.224,2.274c0.279,0 0.57,-0.027 0.861,-0.088c0.049,-0.007 0.09,-0.027 0.135,-0.037c0.012,0.058 0.022,0.118 0.037,0.174c-2.746,0.608 -4.49,3.329 -3.894,6.081l0.015,0c0.51,2.396 2.625,4.015 4.977,4.015c0.342,0 0.685,-0.029 1.027,-0.104c0.008,0.058 0.022,0.122 0.035,0.186c-0.017,0.003 -0.035,0.002 -0.052,0.006c-2.762,0.597 -4.512,3.311 -3.901,6.074c0.512,2.394 2.631,4.026 4.979,4.026c0.365,0 0.73,-0.043 1.094,-0.116c0.007,0 0.013,-0.004 0.023,-0.006c0.012,0.083 0.025,0.169 0.043,0.253c-0.893,0.203 -1.734,0.617 -2.385,1.27c-0.965,0.949 -1.508,2.278 -1.508,3.622c0,1.343 0.543,2.655 1.508,3.605c0.284,0.283 1.062,0.708 1.076,0.778l0.534,0.026c-0.002,0.068 -0.004,0.136 -0.004,0.205c0,2.693 2.181,4.875 4.875,4.875c1.343,0 2.56,-0.544 3.443,-1.424c0.262,2.443 2.332,4.346 4.846,4.346c1.175,0 2.237,-0.434 3.08,-1.127c5.764,7.005 12.68,12.001 20.461,12.22c6.756,-0.19 12.859,-3.984 18.124,-9.565c1.847,-0.166 3.401,-1.347 4.077,-2.995c0.885,0.904 2.117,1.467 3.484,1.467c2.514,0 4.582,-1.903 4.846,-4.346c0.883,0.88 2.1,1.424 3.443,1.424c2.694,0 4.875,-2.182 4.875,-4.875c0,-0.069 -0.002,-0.137 -0.004,-0.205l0.533,-0.026c0.015,-0.07 0.793,-0.495 1.077,-0.778c0.963,-0.95 1.506,-2.262 1.506,-3.605c0,-1.344 -0.543,-2.673 -1.506,-3.622c-0.653,-0.653 -1.494,-1.067 -2.385,-1.27c0.018,-0.084 0.031,-0.17 0.043,-0.253c0.01,0.002 0.014,0.006 0.022,0.006c0.363,0.073 0.728,0.116 1.093,0.116c2.35,0 4.469,-1.632 4.979,-4.026c0.613,-2.763 -1.139,-5.477 -3.899,-6.074c-0.017,-0.004 -0.035,-0.003 -0.052,-0.006c0.013,-0.064 0.027,-0.128 0.035,-0.186c0.34,0.075 0.685,0.104 1.025,0.104c2.352,0 4.467,-1.619 4.977,-4.015l0.017,0c0.596,-2.752 -1.148,-5.473 -3.894,-6.081c0.013,-0.056 0.025,-0.116 0.035,-0.174c0.047,0.01 0.086,0.03 0.135,0.037c0.293,0.061 0.584,0.088 0.863,0.088c1.147,0 2.22,-0.398 3.089,-1.064c7.559,8.977 15.442,16.074 18.003,13.274c7.224,-5.383 -6.792,-38.734 -21.177,-45.487" style="fill:#1b0000;fill-opacity:0.2;"/><path d="M34.267,92.137l-0.1,-0.005c0.082,0.025 0.103,0.02 0.1,0.005" style="fill:#1b0000;fill-opacity:0.2;"/><path d="M110.978,92.132l-0.099,0.005c-0.003,0.015 0.017,0.019 0.099,-0.005" style="fill:#1b0000;fill-opacity:0.2;"/><path d="M131.042,71.608c-5.359,5.86 -34.029,-31.623 -34.262,-38.991c0,0 -3.773,-11.776 11.221,-7.237c14.998,4.54 30.578,40.612 23.041,46.228" style="fill:#f3e7e3;"/><path d="M123.699,69.213c-8.225,-6.58 -20.314,-22.364 -24.98,-31.33c-0.081,-2.358 0.99,-5.765 8.646,-3.447c11.145,3.373 22.723,30.178 17.121,34.351c-0.213,0.235 -0.478,0.369 -0.787,0.426" style="fill:#d65a6f;"/><path d="M1.96,71.608c5.361,5.86 34.031,-31.623 34.262,-38.991c0,0 3.773,-11.776 -11.219,-7.237c-15,4.54 -30.578,40.612 -23.043,46.228" style="fill:#f3e7e3;"/><path d="M9.306,69.213c8.223,-6.58 20.312,-22.364 24.98,-31.33c0.079,-2.358 -0.99,-5.765 -8.648,-3.447c-11.145,3.373 -22.723,30.178 -17.121,34.351c0.215,0.235 0.48,0.369 0.789,0.426" style="fill:#d65a6f;"/><path d="M60.521,6.353c0,0.098 0.023,0.191 0.029,0.289c-0.07,0.008 -0.144,0.018 -0.213,0.025c-0.015,-0.095 -0.013,-0.189 -0.035,-0.285c-0.597,-2.758 -3.328,-4.496 -6.086,-3.883c-2.761,0.598 -4.496,3.328 -3.884,6.086c0.021,0.098 0.06,0.182 0.087,0.276c-0.066,0.021 -0.13,0.047 -0.195,0.07c-0.037,-0.099 -0.062,-0.203 -0.111,-0.301c-1.225,-2.539 -4.291,-3.59 -6.817,-2.351c-2.541,1.226 -3.589,4.293 -2.361,6.833c0.047,0.098 0.107,0.186 0.16,0.282c-0.051,0.033 -0.101,0.066 -0.156,0.102c-0.068,-0.092 -0.121,-0.195 -0.199,-0.284c-1.836,-2.13 -5.065,-2.362 -7.209,-0.524c-2.131,1.853 -2.364,5.065 -0.526,7.21c0.079,0.09 0.172,0.152 0.254,0.236c-0.043,0.049 -0.088,0.104 -0.131,0.154c-0.093,-0.074 -0.177,-0.162 -0.283,-0.229c-2.363,-1.546 -5.533,-0.892 -7.064,1.476c-1.547,2.363 -0.891,5.53 1.474,7.08c0.106,0.068 0.219,0.119 0.327,0.178c-0.024,0.056 -0.055,0.112 -0.081,0.169c-0.117,-0.047 -0.224,-0.108 -0.349,-0.144c-2.699,-0.803 -5.543,0.746 -6.35,3.445c-0.801,2.714 0.744,5.547 3.461,6.348c0.119,0.038 0.242,0.056 0.367,0.084c-0.009,0.062 -0.019,0.127 -0.025,0.187c-0.125,-0.009 -0.244,-0.037 -0.371,-0.037c-2.83,0.016 -5.109,2.307 -5.094,5.123c0,2.818 2.289,5.096 5.108,5.096l0.015,0c0.088,0 0.172,-0.023 0.258,-0.027c0.006,0.064 0.014,0.127 0.021,0.189c-0.068,0.009 -0.128,0.003 -0.191,0.013c-2.791,0.481 -4.656,3.123 -4.189,5.897l0,0.014c0.435,2.482 2.584,4.248 5.035,4.248c0.279,0 0.57,-0.027 0.861,-0.088c0.049,-0.008 0.09,-0.027 0.135,-0.037c0.012,0.058 0.021,0.117 0.037,0.174c-2.746,0.607 -4.49,3.329 -3.895,6.081l0.016,0c0.51,2.395 2.625,4.014 4.977,4.014c0.341,0 0.685,-0.029 1.027,-0.103c0.008,0.058 0.021,0.122 0.035,0.185c-0.017,0.003 -0.035,0.002 -0.053,0.006c-2.761,0.598 -4.511,3.312 -3.9,6.075c0.512,2.393 2.631,4.026 4.979,4.026c0.365,0 0.73,-0.043 1.093,-0.116c0.008,0 0.014,-0.004 0.024,-0.006c0.011,0.083 0.025,0.169 0.043,0.253c-0.893,0.203 -1.735,0.617 -2.385,1.269c-0.965,0.95 -1.508,2.279 -1.508,3.622c0,1.343 0.543,2.656 1.508,3.606c0.346,0.345 1.439,0.907 0.976,0.772l0.633,0.032c-0.002,0.068 -0.004,0.135 -0.004,0.205c0,2.693 2.182,4.875 4.875,4.875c1.344,0 2.561,-0.544 3.444,-1.424c0.261,2.442 2.332,4.346 4.845,4.346c1.366,0 2.598,-0.563 3.485,-1.467c0.728,1.776 2.472,3.028 4.512,3.028c0.984,0 1.9,-0.294 2.668,-0.796c0.871,1.321 2.367,2.192 4.068,2.192c2.693,0 4.875,-2.183 4.875,-4.875c0,-2.693 -2.182,-4.875 -4.875,-4.875c-0.985,0 -1.901,0.292 -2.666,0.794c-0.367,-0.555 -0.846,-1.032 -1.402,-1.396c3.882,0.016 7.957,-0.012 12,-0.112c0.65,0.017 1.298,0.031 1.949,0.043c0.648,-0.012 1.299,-0.026 1.947,-0.043c4.045,0.1 8.117,0.128 12.002,0.112c-0.559,0.364 -1.037,0.841 -1.402,1.396c-0.768,-0.502 -1.682,-0.794 -2.668,-0.794c-2.692,0 -4.873,2.182 -4.873,4.875c0,2.692 2.181,4.875 4.873,4.875c1.701,0 3.199,-0.871 4.07,-2.192c0.766,0.502 1.682,0.796 2.666,0.796c2.039,0 3.785,-1.252 4.514,-3.028c0.884,0.904 2.117,1.467 3.484,1.467c2.514,0 4.582,-1.904 4.846,-4.346c0.883,0.88 2.099,1.424 3.443,1.424c2.693,0 4.875,-2.182 4.875,-4.875c0,-0.07 -0.002,-0.137 -0.004,-0.205l0.631,-0.032c-0.461,0.135 0.633,-0.427 0.979,-0.772c0.962,-0.95 1.505,-2.263 1.505,-3.606c0,-1.343 -0.543,-2.672 -1.505,-3.622c-0.653,-0.652 -1.495,-1.066 -2.385,-1.269c0.017,-0.084 0.031,-0.17 0.043,-0.253c0.01,0.002 0.013,0.006 0.021,0.006c0.364,0.073 0.729,0.116 1.094,0.116c2.35,0 4.469,-1.633 4.979,-4.026c0.613,-2.763 -1.139,-5.477 -3.899,-6.075c-0.018,-0.004 -0.035,-0.003 -0.053,-0.006c0.014,-0.063 0.028,-0.127 0.035,-0.185c0.34,0.074 0.686,0.103 1.026,0.103c2.351,0 4.467,-1.619 4.976,-4.014l0.018,0c0.596,-2.752 -1.148,-5.474 -3.895,-6.081c0.014,-0.057 0.026,-0.116 0.036,-0.174c0.047,0.01 0.086,0.029 0.134,0.037c0.293,0.061 0.584,0.088 0.864,0.088c2.451,0 4.597,-1.766 5.035,-4.248l0,-0.014c0.467,-2.774 -1.401,-5.416 -4.192,-5.897c-0.062,-0.01 -0.123,-0.004 -0.189,-0.013c0.006,-0.062 0.016,-0.125 0.021,-0.189c0.086,0.004 0.168,0.027 0.256,0.027l0.018,0c2.818,0 5.107,-2.278 5.107,-5.096c0.016,-2.816 -2.263,-5.107 -5.093,-5.123c-0.127,0 -0.248,0.028 -0.372,0.037c-0.007,-0.06 -0.017,-0.125 -0.025,-0.187c0.123,-0.028 0.246,-0.046 0.365,-0.084c2.717,-0.801 4.262,-3.634 3.461,-6.348c-0.804,-2.699 -3.648,-4.248 -6.349,-3.445c-0.123,0.036 -0.233,0.097 -0.35,0.144c-0.025,-0.057 -0.055,-0.113 -0.08,-0.169c0.107,-0.059 0.223,-0.11 0.328,-0.178c2.363,-1.55 3.022,-4.717 1.475,-7.08c-1.533,-2.368 -4.703,-3.022 -7.067,-1.476c-0.105,0.067 -0.187,0.155 -0.283,0.229c-0.043,-0.05 -0.086,-0.105 -0.131,-0.154c0.082,-0.084 0.176,-0.146 0.256,-0.236c1.838,-2.145 1.606,-5.357 -0.527,-7.21c-2.145,-1.838 -5.373,-1.606 -7.209,0.524c-0.078,0.089 -0.129,0.192 -0.199,0.284c-0.055,-0.036 -0.106,-0.069 -0.155,-0.102c0.051,-0.096 0.11,-0.184 0.16,-0.282c1.229,-2.54 0.18,-5.607 -2.363,-6.833c-2.525,-1.239 -5.592,-0.188 -6.816,2.351c-0.049,0.098 -0.073,0.202 -0.112,0.301c-0.064,-0.023 -0.129,-0.049 -0.195,-0.07c0.027,-0.094 0.066,-0.178 0.088,-0.276c0.613,-2.758 -1.123,-5.488 -3.883,-6.086c-2.76,-0.613 -5.488,1.125 -6.088,3.883c-0.019,0.096 -0.017,0.19 -0.033,0.285c-0.072,-0.007 -0.143,-0.017 -0.213,-0.025c0.004,-0.098 0.028,-0.191 0.028,-0.289c0,-8.19 -14.104,-8.748 -14.104,0" style="fill:#fff;"/><path d="M66.501,32.52l-19.463,0c-10.752,0 -19.471,8.714 -19.471,19.464c0,11.917 15.575,55.619 38.934,56.274c23.359,-0.655 38.934,-44.357 38.934,-56.274c0,-10.75 -8.717,-19.464 -19.469,-19.464l-19.465,0Z" style="fill:#fdcf9a;"/><path d="M67.574,30.679c1.504,0 2.852,0.663 3.756,1.709c0.437,-2.237 2.437,-3.927 4.84,-3.927c1.709,0 3.215,0.855 4.099,2.154c0.549,-2.089 2.479,-3.633 4.774,-3.633c1.457,0 2.763,0.622 3.666,1.608c0.904,-1.082 2.275,-1.773 3.81,-1.773c2.723,0 4.93,2.17 4.93,4.847c0,2.677 -2.207,4.848 -4.93,4.848c-1.455,0 -2.765,-0.622 -3.666,-1.608c-0.904,1.081 -2.275,1.772 -3.81,1.772c-1.709,0 -3.215,-0.856 -4.1,-2.155c-0.549,2.09 -2.476,3.634 -4.773,3.634c-1.504,0 -2.852,-0.664 -3.756,-1.709c-0.438,2.237 -2.438,3.927 -4.84,3.927l-0.066,-0.001l-0.065,0.001c-2.402,0 -4.402,-1.69 -4.84,-3.927c-0.904,1.045 -2.252,1.709 -3.758,1.709c-2.294,0 -4.224,-1.544 -4.773,-3.634c-0.883,1.299 -2.389,2.155 -4.098,2.155c-1.535,0 -2.906,-0.691 -3.81,-1.772c-0.902,0.986 -2.211,1.608 -3.666,1.608c-2.723,0 -4.93,-2.171 -4.93,-4.848c0,-2.677 2.207,-4.847 4.93,-4.847c1.533,0 2.906,0.691 3.808,1.773c0.903,-0.986 2.211,-1.608 3.668,-1.608c2.295,0 4.225,1.544 4.774,3.633c0.883,-1.299 2.388,-2.154 4.097,-2.154c2.403,0 4.405,1.69 4.84,3.927c0.905,-1.046 2.252,-1.709 3.758,-1.709l0.131,0Z" style="fill:#fff;"/><path d="M36.222,32.617c0.437,-1.012 5.723,7.68 -4.408,8.926c-0.938,0.115 3.209,3.933 -1.153,7.423c-1.291,1.035 2.614,4.051 -0.285,6.737c-1.275,1.182 2.66,1.67 0.809,6.9c-0.01,0.031 3.59,6.762 -0.85,6.216c-1.332,-0.165 -4.551,-5.544 -3.492,-8.394c0.717,-1.937 -3.211,-10.134 0.041,-18.538c2.318,-5.991 -1.939,-4.811 7.395,-8.86c0.252,-0.109 2.019,-0.6 2.3,-0.488l-0.357,0.078Z" style="fill:#fff;"/><path d="M96.009,30.653c-0.436,-1.011 -5.723,7.682 4.41,8.928c0.936,0.115 -3.211,3.932 1.149,7.422c1.295,1.036 -2.612,4.05 0.287,6.736c1.275,1.182 -2.658,1.672 -0.807,6.901c0.01,0.03 -3.592,6.762 0.85,6.215c1.332,-0.162 4.55,-5.544 3.492,-8.393c-0.719,-1.937 3.209,-10.135 -0.043,-18.538c-2.318,-5.992 1.939,-4.81 -7.395,-8.859c-0.252,-0.11 -2.017,-0.6 -2.3,-0.49l0.357,0.078Z" style="fill:#fff;"/><path d="M43.847,54.662c0.395,-1.983 2.322,-3.272 4.305,-2.878c1.986,0.395 3.275,2.322 2.879,4.307c-0.051,0.254 -0.127,0.494 -0.223,0.722c-0.461,-0.619 -1.186,-1.095 -2.223,-1.302c-1.869,-0.37 -3.402,0.425 -4.349,1.636c-0.407,-0.73 -0.567,-1.603 -0.389,-2.485m2.461,6.402c3.141,0.625 6.193,-1.414 6.82,-4.555c0.623,-3.143 -1.416,-6.194 -4.558,-6.82c-3.141,-0.626 -6.192,1.414 -6.819,4.556c-0.625,3.141 1.414,6.194 4.557,6.819" style="fill:#fff;fill-rule:nonzero;"/><path d="M48.585,55.511c1.037,0.207 1.762,0.684 2.223,1.303c0.095,-0.229 0.172,-0.469 0.222,-0.723c0.397,-1.984 -0.892,-3.912 -2.879,-4.307c-1.982,-0.394 -3.91,0.895 -4.304,2.878c-0.178,0.882 -0.018,1.755 0.388,2.486c0.948,-1.211 2.481,-2.006 4.35,-1.637" style="fill-rule:nonzero;"/><path d="M89.644,57.147c-0.947,-1.211 -2.48,-2.006 -4.35,-1.637c-1.037,0.207 -1.761,0.684 -2.222,1.303c-0.096,-0.228 -0.172,-0.469 -0.223,-0.723c-0.396,-1.984 0.893,-3.912 2.879,-4.306c1.982,-0.395 3.91,0.894 4.305,2.878c0.177,0.881 0.017,1.755 -0.389,2.485m2.484,-2.902c-0.627,-3.142 -3.677,-5.182 -6.818,-4.556c-3.143,0.626 -5.182,3.677 -4.559,6.819c0.627,3.142 3.68,5.181 6.821,4.556c3.142,-0.625 5.181,-3.679 4.556,-6.819" style="fill:#fff;fill-rule:nonzero;"/><path d="M85.294,55.511c-1.037,0.207 -1.762,0.684 -2.223,1.303c-0.095,-0.229 -0.172,-0.469 -0.222,-0.723c-0.397,-1.984 0.892,-3.912 2.879,-4.307c1.982,-0.394 3.91,0.895 4.304,2.878c0.178,0.882 0.018,1.755 -0.388,2.486c-0.948,-1.211 -2.481,-2.006 -4.35,-1.637" style="fill-rule:nonzero;"/><path d="M66.501,78.654c-0.272,-0.015 -0.546,-0.023 -0.815,-0.027l-0.002,12.846c-1.661,2.911 -3.761,4.561 -6.245,4.906c-5.276,0.718 -12.543,-5.54 -12.809,-5.272c5.626,6.279 14.56,10.171 19.871,2.16c5.311,8.011 14.245,4.119 19.871,-2.16c-0.266,-0.268 -7.533,5.99 -12.809,5.272c-2.484,-0.345 -4.583,-1.995 -6.245,-4.906l0,-12.846c-0.271,0.004 -0.545,0.012 -0.817,0.027"/><path d="M66.5,66.263c-13.467,-0.142 -13.351,4.736 -6.305,9.708c2.567,1.812 4.737,3.021 6.305,3.788c1.568,-0.767 3.739,-1.976 6.306,-3.788c7.046,-4.972 7.162,-9.85 -6.306,-9.708" style="fill:#d65a6f;"/></svg>