<?xml version="1.0" encoding="UTF-8" standalone="no"?><!DOCTYPE svg PUBLIC "-//W3C//DTD SVG 1.1//EN" "http://www.w3.org/Graphics/SVG/1.1/DTD/svg11.dtd"><svg width="100%" height="100%" viewBox="0 0 371 196" version="1.1" xmlns="http://www.w3.org/2000/svg" xmlns:xlink="http://www.w3.org/1999/xlink" xml:space="preserve" style="fill-rule:evenodd;clip-rule:evenodd;stroke-linejoin:round;stroke-miterlimit:1.41421;"><path d="M296.925,154.249c-4.291,0 -7.788,-3.494 -7.788,-7.778c0,-4.312 3.497,-7.787 7.788,-7.787c4.306,0 7.781,3.475 7.781,7.787c0,4.284 -3.475,7.778 -7.781,7.778Zm70.825,-67.769c-3.047,-3.056 -7.963,-3.056 -11.01,0c-2.64,2.629 -2.843,6.625 -0.915,9.632l-34.719,34.737c-1.041,-0.712 -2.169,-1.234 -3.228,-1.815l10.437,-38.957c3.569,0.172 6.928,-2.025 7.872,-5.59c1.15,-4.163 -1.331,-8.425 -5.494,-9.532c-4.156,-1.14 -8.418,1.344 -9.525,5.516c-0.956,3.591 0.835,7.141 4.038,8.797l-10.241,38.184c-4.281,-1.893 -8.997,-3.034 -13.94,-3.315c-35.197,-1.941 -29.838,34.759 -43.957,34.759c-3.284,0 -19.809,-7.462 -19.809,-7.462l-11.341,2.321c-39.475,5.729 -76.643,-21.812 -78.068,-22.875l-4.507,-3.415c0,0 -7.625,14.715 -21.115,22.081c-9.991,5.425 -21.497,6.553 -29.391,6.553c-14.459,0 -32.706,-4.025 -40.869,-13.037c-1.287,-1.422 -2.306,-2.953 -3.487,-4.419c-41.65,21.312 -58.728,56.547 -42.303,56.547c26.74,0 294.837,0 294.837,0c19.61,0 35.516,-15.913 35.516,-35.528c0,-10.985 -5.1,-20.344 -12.925,-26.75l34.487,-34.51c3.01,1.963 6.991,1.725 9.632,-0.89c3.065,-3.06 3.065,-7.997 0.025,-11.032Z" style="fill:#f4bf72;fill-rule:nonzero;"/><path d="M118.481,142.69c33.072,-17.985 20.922,-85.103 -19.444,-61.769c40.353,-33.537 57.319,32.772 53.503,43.713c0,0 35.472,26.8 72.228,21.381c0,-46.553 -16.443,-122.575 -83.909,-141.906c-89.953,-25.772 -135.65,75.843 -83.137,133.718c8.871,9.769 41.625,15.3 60.759,4.863Z" style="fill:#c1bdbc;fill-rule:nonzero;"/><path d="M303.484,150.227c0,3.069 -2.494,5.56 -5.563,5.56c-3.074,0 -5.562,-2.491 -5.562,-5.56c0,-3.075 2.488,-5.562 5.562,-5.562c3.069,0 5.563,2.487 5.563,5.562Z" style="fill:#725534;fill-rule:nonzero;"/></svg>