<?xml version="1.0" encoding="UTF-8" standalone="no"?><!DOCTYPE svg PUBLIC "-//W3C//DTD SVG 1.1//EN" "http://www.w3.org/Graphics/SVG/1.1/DTD/svg11.dtd"><svg width="100%" height="100%" viewBox="0 0 57 79" version="1.1" xmlns="http://www.w3.org/2000/svg" xmlns:xlink="http://www.w3.org/1999/xlink" xml:space="preserve" style="fill-rule:evenodd;clip-rule:evenodd;stroke-linejoin:round;stroke-miterlimit:1.41421;"><path d="M29.716,0.594c-0.992,0.848 -1.922,2.515 -2.699,4.365c-0.798,1.894 -1.526,4.282 -1.526,4.282c0,0 7.925,-0.59 9.249,-1.367c1.433,-0.843 0.914,-2.066 0.149,-3.684c-0.855,-1.809 -2.754,-5.664 -5.173,-3.596" style="fill:#ad7b51;fill-rule:nonzero;"/><path d="M35.012,7.378c0.843,-0.406 1.865,-0.238 1.865,-0.238c0,0 -0.733,-0.682 -1.556,-0.865c-0.9,-0.2 -4.365,0.915 -3.571,0.152c0.376,-0.361 1.892,-0.305 1.892,-0.305c0,0 -0.489,-0.488 -1.282,-0.611c-0.793,-0.122 -3.113,1.282 -3.235,0.855c-0.11,-0.384 1.251,-0.998 1.251,-0.998c0,0 -0.824,-0.436 -2.685,0.205c-1.793,0.617 -6.782,3.444 -6.782,5.65l0.003,0c-5.058,3.612 -8.808,9.085 -8.808,14.193c0,8.621 9.808,13.977 19.431,13.977c4.491,0 10.143,-0.981 14.887,-2.904c4.976,-2.019 8.951,-5.079 9.551,-9.131c0.058,-0.349 0.084,-0.709 0.084,-1.078c0,-7.866 -11.688,-17.307 -21.045,-18.902" style="fill:#d19563;fill-rule:nonzero;"/><path d="M36.186,67.471c3.51,3.01 15.145,2.217 14.424,5.952c-0.265,1.376 -15.324,-0.071 -20.818,-1.005c-1.084,-0.183 -8.231,-17.49 6.394,-4.947" style="fill:#ad7b51;fill-rule:nonzero;"/><path d="M46.111,72.343c2.939,-4.76 0.095,-8.761 -1.884,-13.28c-1.951,-2.551 -2.506,-6.603 -3.039,-8.733c-0.997,-3.987 -4.329,-11.339 -4.907,-13.644c-0.092,-0.364 -0.301,-0.678 -0.611,-0.945c-1.637,-1.413 -6.038,-1.485 -9.983,-0.86c0,0 -11.337,16.503 -10.502,27.691c0.832,11.185 10.303,15.84 18.277,15.755c3.233,-0.034 6.588,-1.313 9.384,-3.212c1.213,-0.823 2.317,-1.765 3.265,-2.772" style="fill:#d19563;fill-rule:nonzero;"/><path d="M46.111,72.343c4.892,-7.925 -1.203,-16 -4.846,-22.917c-0.782,-1.484 -1.289,-3.082 -1.907,-4.64c-0.763,-1.927 -1.967,-4.256 -4.431,-3.658c-4.084,0.99 -4.497,10.229 -4.655,13.003c-0.154,2.684 -2.584,16.956 12.574,20.984c1.213,-0.823 2.317,-1.765 3.265,-2.772" style="fill:#fff;fill-rule:nonzero;"/><path d="M33.489,72.446c3.51,3.01 15.145,2.216 14.424,5.952c-0.266,1.376 -15.324,-0.071 -20.818,-1.005c-1.084,-0.183 -8.23,-17.49 6.394,-4.947" style="fill:#d19563;fill-rule:nonzero;"/><path d="M11.158,12.683c0.027,1.304 0.727,3.08 1.665,4.854c0.96,1.817 2.345,3.894 2.345,3.894c0,0 4.567,-6.504 4.804,-8.02c0.258,-1.643 -1.017,-2.017 -2.754,-2.45c-1.941,-0.485 -6.127,-1.46 -6.06,1.722" style="fill:#d19563;fill-rule:nonzero;"/><path d="M26.158,41.54c0,0 4.122,1.982 7.235,6.657c3.113,4.676 5.335,7.986 9.462,9.806c4.126,1.819 -0.324,6.193 -4.859,3.489c-4.535,-2.703 -11.448,-7.769 -15.437,-11.768c-3.989,-3.999 3.599,-8.184 3.599,-8.184" style="fill:#d19563;fill-rule:nonzero;"/><path d="M33.837,19.597c0,1.013 -0.821,1.835 -1.834,1.835c-1.013,0 -1.834,-0.822 -1.834,-1.835c0,-1.013 0.821,-1.834 1.834,-1.834c1.013,0 1.834,0.821 1.834,1.834" style="fill:#3d3b37;fill-rule:nonzero;"/><path d="M43.661,12.957c0,1.013 -0.821,1.835 -1.834,1.835c-1.013,0 -1.834,-0.822 -1.834,-1.835c0,-1.013 0.821,-1.834 1.834,-1.834c1.013,0 1.834,0.821 1.834,1.834" style="fill:#3d3b37;fill-rule:nonzero;"/><path d="M49.139,29.667c0,1.749 0.604,3.354 1.608,4.608c2.818,-1.83 4.815,-4.14 5.226,-6.917c0.058,-0.349 0.084,-0.709 0.084,-1.078c0,-1.241 -0.292,-2.521 -0.819,-3.804c-3.446,0.5 -6.099,3.525 -6.099,7.191" style="fill:#fff;fill-rule:nonzero;"/><path d="M51.677,23.647c-0.341,-0.788 1.159,-1.805 1.748,-2.092c0.589,-0.286 2.177,-0.712 2.548,-0.004c0.405,0.771 -0.769,2.756 -1.21,2.971c-0.442,0.215 -2.741,-0.076 -3.086,-0.875" style="fill:#3d3b37;fill-rule:nonzero;"/><path d="M21.4,70.62l-0.464,-5.527c0,0 -2.59,3.886 -6.649,2.795c-4.059,-1.09 -3.627,-6.94 0.853,-18.079c1.311,-3.259 2.336,-9.098 -0.48,-12.021c-4.101,-4.259 -12.01,0.082 -13.108,5.11c0,0 1.767,-2.024 3.58,-1.357c0,0 -2.489,0.925 -3.361,2.911c0,0 2.412,-0.406 2.843,1.826c0.432,2.233 -8.981,19.94 -2.072,27.711c6.909,7.771 18.858,-3.369 18.858,-3.369" style="fill:#d19563;fill-rule:nonzero;"/><path d="M14.536,24.919c0,0 0.157,0.081 0.279,0.312c0.123,0.225 0.187,0.557 0.226,0.849c0.02,0.144 0.053,0.273 0.091,0.401c0.04,0.123 0.081,0.238 0.142,0.322c0.108,0.179 0.264,0.257 0.264,0.257c0.008,-0.006 -0.183,0.055 -0.413,-0.106c-0.104,-0.081 -0.221,-0.195 -0.295,-0.34c-0.081,-0.141 -0.13,-0.315 -0.159,-0.478c-0.048,-0.325 -0.029,-0.62 -0.057,-0.84c-0.019,-0.219 -0.078,-0.377 -0.078,-0.377" style="fill:#fff;fill-rule:nonzero;"/><path d="M17.034,29.31c0,0 0.121,0.04 0.269,0.131c0.147,0.091 0.33,0.226 0.483,0.391c0.155,0.161 0.281,0.35 0.363,0.503c0.083,0.153 0.116,0.276 0.116,0.276c0,0 -0.121,-0.04 -0.269,-0.131c-0.148,-0.091 -0.33,-0.227 -0.483,-0.391c-0.155,-0.161 -0.279,-0.351 -0.363,-0.504c-0.082,-0.153 -0.116,-0.275 -0.116,-0.275" style="fill:#fff;fill-rule:nonzero;"/><path d="M15.917,31.374c0,0 0.143,0.076 0.327,0.207c0.185,0.133 0.423,0.311 0.642,0.507c0.222,0.193 0.428,0.405 0.583,0.571c0.154,0.168 0.247,0.3 0.247,0.3c0,0 -0.159,-0.031 -0.371,-0.129c-0.211,-0.097 -0.478,-0.256 -0.708,-0.461c-0.231,-0.202 -0.423,-0.447 -0.546,-0.644c-0.123,-0.198 -0.174,-0.351 -0.174,-0.351" style="fill:#fff;fill-rule:nonzero;"/><path d="M19.331,29.311c0,0 0.04,-0.014 0.117,-0.011c0.075,0.007 0.193,0.023 0.308,0.093c0.112,0.069 0.238,0.161 0.344,0.271c0.111,0.109 0.206,0.224 0.314,0.321c0.21,0.198 0.449,0.377 0.649,0.496c0.197,0.121 0.349,0.202 0.349,0.202c0,0 -0.169,0.04 -0.422,-0.004c-0.252,-0.041 -0.582,-0.178 -0.835,-0.424c-0.124,-0.122 -0.228,-0.259 -0.308,-0.38c-0.084,-0.12 -0.149,-0.236 -0.223,-0.318c-0.134,-0.173 -0.293,-0.246 -0.293,-0.246" style="fill:#fff;fill-rule:nonzero;"/><path d="M18.244,25.946c0,0 0.122,0.035 0.274,0.12c0.151,0.085 0.339,0.213 0.498,0.371c0.162,0.154 0.295,0.339 0.383,0.488c0.089,0.149 0.127,0.271 0.127,0.271c0,0 -0.122,-0.035 -0.274,-0.12c-0.151,-0.085 -0.339,-0.213 -0.498,-0.371c-0.162,-0.155 -0.294,-0.34 -0.383,-0.489c-0.089,-0.15 -0.127,-0.27 -0.127,-0.27" style="fill:#fff;fill-rule:nonzero;"/><path d="M21.4,36.125c0.007,-0.013 0.336,-0.176 0.636,-0.233c0.297,-0.07 0.666,-0.055 0.678,-0.045c0,0 -0.047,0.094 -0.153,0.187c-0.104,0.094 -0.267,0.189 -0.447,0.225c-0.179,0.04 -0.366,0.017 -0.5,-0.025c-0.136,-0.042 -0.214,-0.109 -0.214,-0.109" style="fill:#fff;fill-rule:nonzero;"/><path d="M13.6,48.403c-0.006,0.001 0.058,0.027 0.08,0.135c0.018,0.102 -0.013,0.261 -0.086,0.402c-0.126,0.291 -0.311,0.668 -0.532,1.023c-0.217,0.357 -0.469,0.693 -0.672,0.936c-0.202,0.243 -0.363,0.39 -0.363,0.39c0,0 0.058,-0.21 0.183,-0.501c0.126,-0.29 0.312,-0.666 0.533,-1.022c0.217,-0.357 0.47,-0.692 0.672,-0.936c0.098,-0.119 0.177,-0.209 0.192,-0.292c0.022,-0.081 -0.007,-0.135 -0.007,-0.135" style="fill:#fff;fill-rule:nonzero;"/><path d="M9.924,55.406c0,0 0.034,0.158 0.041,0.386c0.006,0.228 -0.004,0.529 -0.057,0.823c-0.048,0.295 -0.136,0.583 -0.218,0.796c-0.082,0.214 -0.167,0.35 -0.167,0.35c0,0 -0.035,-0.156 -0.041,-0.385c-0.007,-0.228 0.005,-0.53 0.057,-0.824c0.048,-0.294 0.138,-0.582 0.219,-0.795c0.082,-0.213 0.166,-0.351 0.166,-0.351" style="fill:#fff;fill-rule:nonzero;"/><path d="M12.433,54.491c0,0 0.008,0.123 -0.021,0.288c-0.029,0.165 -0.086,0.376 -0.18,0.569c-0.091,0.195 -0.219,0.373 -0.329,0.499c-0.11,0.126 -0.211,0.197 -0.211,0.197c0,0 -0.008,-0.123 0.021,-0.288c0.029,-0.165 0.086,-0.376 0.18,-0.569c0.091,-0.195 0.22,-0.372 0.33,-0.499c0.11,-0.126 0.21,-0.197 0.21,-0.197" style="fill:#fff;fill-rule:nonzero;"/><path d="M10.465,52.139c0,0 0.039,0.113 0.045,0.278c0.006,0.165 -0.014,0.382 -0.085,0.584c-0.067,0.204 -0.183,0.389 -0.289,0.515c-0.105,0.127 -0.206,0.193 -0.206,0.193c0,0 -0.008,-0.12 0.013,-0.278c0.022,-0.159 0.06,-0.361 0.127,-0.551c0.063,-0.191 0.157,-0.374 0.236,-0.513c0.08,-0.138 0.159,-0.228 0.159,-0.228" style="fill:#fff;fill-rule:nonzero;"/><path d="M9.579,61.603c0,0 0.095,0.157 0.195,0.402c0.098,0.245 0.212,0.575 0.283,0.915c0.076,0.338 0.111,0.686 0.122,0.95c0.011,0.264 -0.01,0.446 -0.01,0.446c0,0 -0.096,-0.157 -0.196,-0.401c-0.099,-0.246 -0.211,-0.576 -0.282,-0.915c-0.076,-0.339 -0.11,-0.687 -0.122,-0.951c-0.012,-0.264 0.01,-0.446 0.01,-0.446" style="fill:#fff;fill-rule:nonzero;"/><path d="M11.032,67.289c0,0 0.108,0.039 0.236,0.109c0.128,0.074 0.287,0.171 0.427,0.29c0.142,0.114 0.27,0.251 0.366,0.363c0.094,0.112 0.151,0.211 0.151,0.211c0,0 -0.113,0.008 -0.263,-0.032c-0.149,-0.039 -0.338,-0.123 -0.492,-0.254c-0.158,-0.126 -0.275,-0.296 -0.343,-0.435c-0.068,-0.14 -0.082,-0.252 -0.082,-0.252" style="fill:#fff;fill-rule:nonzero;"/><path d="M13.996,69.851c0,-0.014 0.258,-0.2 0.515,-0.188c0.258,-0.013 0.516,0.174 0.516,0.188c0,0.015 -0.258,0.201 -0.516,0.187c-0.257,0.013 -0.515,-0.173 -0.515,-0.187" style="fill:#fff;fill-rule:nonzero;"/><path d="M8.407,65.847c0,0 0.123,0.124 0.274,0.317c0.151,0.196 0.344,0.455 0.513,0.727c0.174,0.269 0.327,0.553 0.44,0.773c0.111,0.22 0.169,0.384 0.169,0.384c0,0 -0.151,-0.086 -0.337,-0.256c-0.187,-0.169 -0.411,-0.418 -0.588,-0.7c-0.18,-0.281 -0.309,-0.591 -0.383,-0.831c-0.074,-0.242 -0.088,-0.414 -0.088,-0.414" style="fill:#fff;fill-rule:nonzero;"/><path d="M14.559,73.233c-0.002,-0.015 0.31,-0.228 0.64,-0.243c0.326,-0.042 0.669,0.116 0.671,0.13c0.001,0.015 -0.311,0.229 -0.64,0.243c-0.326,0.041 -0.67,-0.116 -0.671,-0.13" style="fill:#fff;fill-rule:nonzero;"/><path d="M9.49,71.079c0,0 0.144,0.007 0.338,0.052c0.194,0.046 0.442,0.116 0.676,0.197c0.235,0.076 0.463,0.161 0.648,0.211c0.183,0.053 0.322,0.092 0.322,0.092c0,0 -0.121,0.082 -0.33,0.119c-0.209,0.04 -0.498,0.024 -0.759,-0.067c-0.263,-0.086 -0.491,-0.237 -0.649,-0.363c-0.158,-0.128 -0.246,-0.241 -0.246,-0.241" style="fill:#fff;fill-rule:nonzero;"/></svg>