<?xml version="1.0" encoding="UTF-8" standalone="no"?><!DOCTYPE svg PUBLIC "-//W3C//DTD SVG 1.1//EN" "http://www.w3.org/Graphics/SVG/1.1/DTD/svg11.dtd"><svg width="100%" height="100%" viewBox="0 0 106 82" version="1.1" xmlns="http://www.w3.org/2000/svg" xmlns:xlink="http://www.w3.org/1999/xlink" xml:space="preserve" style="fill-rule:evenodd;clip-rule:evenodd;stroke-linejoin:round;stroke-miterlimit:1.41421;"><path d="M100.505,56.515c-1.27,-1.633 -5.626,-6.896 -5.626,-6.896l10.164,-2.905l-3.449,-2.721c-3.448,-2.724 -12.704,-6.354 -12.704,-6.354c0,0 -0.094,-0.825 -0.317,-2.122c-0.001,-0.006 -0.002,-0.014 -0.004,-0.019c-0.039,-0.226 -0.082,-0.467 -0.129,-0.72c-0.017,-0.094 -0.037,-0.193 -0.055,-0.29c-0.033,-0.167 -0.065,-0.335 -0.101,-0.512c-0.023,-0.12 -0.049,-0.243 -0.076,-0.368c-0.033,-0.162 -0.067,-0.325 -0.104,-0.492c-0.031,-0.141 -0.062,-0.282 -0.094,-0.427c-0.037,-0.161 -0.076,-0.325 -0.114,-0.492c-0.036,-0.152 -0.073,-0.304 -0.111,-0.46c-0.042,-0.171 -0.087,-0.344 -0.132,-0.518c-0.039,-0.155 -0.078,-0.307 -0.12,-0.463c-0.056,-0.209 -0.116,-0.42 -0.176,-0.632c-0.058,-0.204 -0.117,-0.406 -0.178,-0.612c-0.069,-0.228 -0.137,-0.456 -0.21,-0.687c0,0 -0.001,0.001 -0.001,0.002c-0.133,-0.416 -0.271,-0.83 -0.419,-1.244c0,0 -0.001,-0.001 -0.001,-0.002c-0.209,-0.579 -0.433,-1.152 -0.675,-1.711c-0.004,-0.009 -0.007,-0.016 -0.01,-0.024c-0.109,-0.252 -0.223,-0.501 -0.34,-0.747c4.02,-1.896 6.815,-6.045 6.815,-10.871c0,-6.615 -5.241,-11.978 -11.706,-11.978c-4.88,0 -9.059,3.058 -10.817,7.402c-0.117,-0.047 -0.225,-0.098 -0.344,-0.144c-2.079,-0.795 -4.044,-1.338 -5.851,-1.727c0,-0.003 0.001,-0.007 0.001,-0.01c-0.252,-0.054 -0.496,-0.102 -0.741,-0.15c-0.139,-0.027 -0.277,-0.055 -0.412,-0.081c-0.237,-0.043 -0.471,-0.084 -0.7,-0.123c-0.143,-0.024 -0.281,-0.045 -0.419,-0.067c-0.449,-0.069 -0.882,-0.131 -1.297,-0.181c-0.074,-0.009 -0.153,-0.019 -0.226,-0.028c-0.208,-0.024 -0.407,-0.045 -0.607,-0.064c-0.117,-0.012 -0.235,-0.023 -0.351,-0.034c-0.196,-0.017 -0.39,-0.034 -0.576,-0.047c-0.078,-0.006 -0.151,-0.011 -0.227,-0.016c-0.434,-0.029 -0.844,-0.049 -1.216,-0.061l0,0c-1.164,-0.038 -2.013,-0.006 -2.453,0.022c-0.439,-0.028 -1.288,-0.06 -2.452,-0.022l0,0c-0.371,0.012 -0.779,0.032 -1.212,0.061c-0.078,0.005 -0.152,0.01 -0.232,0.016c-0.185,0.013 -0.378,0.03 -0.573,0.047c-0.117,0.011 -0.237,0.022 -0.357,0.035c-0.198,0.019 -0.395,0.039 -0.602,0.063c-0.084,0.009 -0.173,0.021 -0.259,0.033c-0.405,0.048 -0.825,0.108 -1.26,0.175c-0.141,0.023 -0.281,0.044 -0.425,0.068c-0.228,0.039 -0.461,0.08 -0.696,0.123c-0.138,0.026 -0.278,0.054 -0.418,0.081c-0.244,0.048 -0.487,0.096 -0.738,0.15c0,0.003 0.001,0.007 0.001,0.01c-1.808,0.388 -3.773,0.932 -5.851,1.727c-0.119,0.046 -0.227,0.097 -0.344,0.144c-1.758,-4.344 -5.937,-7.402 -10.817,-7.402c-6.466,0 -11.706,5.363 -11.706,11.978c0,4.826 2.795,8.975 6.815,10.871c-0.117,0.246 -0.231,0.495 -0.34,0.747c-0.003,0.008 -0.006,0.015 -0.01,0.024c-0.242,0.559 -0.466,1.132 -0.675,1.711c0,0.001 -0.001,0.002 -0.001,0.002c-0.148,0.414 -0.288,0.828 -0.42,1.243l0,-0.001c-0.005,0.014 -0.009,0.027 -0.013,0.041c-0.095,0.3 -0.186,0.6 -0.273,0.897c-0.024,0.083 -0.047,0.165 -0.071,0.247c-0.061,0.214 -0.121,0.427 -0.178,0.639c-0.027,0.1 -0.053,0.198 -0.079,0.298c-0.05,0.19 -0.099,0.379 -0.146,0.565c-0.026,0.106 -0.052,0.21 -0.077,0.314c-0.044,0.179 -0.087,0.356 -0.126,0.53c-0.024,0.101 -0.047,0.2 -0.069,0.299c-0.041,0.177 -0.079,0.35 -0.116,0.523c-0.019,0.088 -0.039,0.177 -0.058,0.265c-0.037,0.182 -0.074,0.358 -0.108,0.532c-0.015,0.068 -0.029,0.138 -0.042,0.205c-0.043,0.219 -0.084,0.431 -0.122,0.635c-0.002,0.015 -0.006,0.03 -0.008,0.045c-0.308,1.671 -0.435,2.779 -0.435,2.779c0,0 -9.257,3.63 -12.704,6.354l-3.449,2.721l10.164,2.905c0,0 -4.356,5.263 -5.626,6.896c-1.269,1.634 -1.815,2.904 -1.815,2.904l8.53,0c0,0 -0.137,0.216 -0.363,0.584l-0.003,0.003c-0.44,0.718 -1.217,2.017 -1.99,3.453l-0.084,0.156c-0.094,0.176 -0.187,0.354 -0.281,0.534c-0.034,0.066 -0.068,0.132 -0.103,0.198c-0.093,0.182 -0.183,0.363 -0.273,0.544c-0.028,0.056 -0.057,0.111 -0.084,0.168c-0.114,0.234 -0.227,0.469 -0.334,0.701c-0.014,0.03 -0.027,0.059 -0.041,0.089c-0.09,0.197 -0.176,0.392 -0.258,0.584c-0.032,0.072 -0.06,0.144 -0.09,0.216c-0.063,0.149 -0.122,0.296 -0.178,0.441c-0.03,0.077 -0.059,0.153 -0.087,0.228c-0.053,0.144 -0.101,0.283 -0.147,0.42c-0.021,0.066 -0.044,0.132 -0.065,0.195c-0.06,0.194 -0.114,0.383 -0.156,0.561c-0.636,2.698 -0.576,4.982 -0.551,5.511c0.004,0.075 0.007,0.115 0.007,0.115c0,0 0.391,-0.156 1.109,-0.395c0.308,-0.102 0.677,-0.22 1.1,-0.347c3.108,-0.927 9.19,-2.354 16.302,-1.98c5.212,0.274 9.452,2.114 12.891,4.081c0.491,0.281 0.966,0.565 1.425,0.847c2.705,1.663 4.862,3.271 6.555,3.964c0.015,0.006 0.028,0.01 0.042,0.017c0.306,0.124 0.591,0.233 0.867,0.335c0.084,0.031 0.166,0.061 0.247,0.089c0.239,0.086 0.468,0.165 0.685,0.235c0.037,0.011 0.078,0.026 0.115,0.037c0.246,0.079 0.475,0.145 0.692,0.204c0.06,0.016 0.117,0.031 0.175,0.046c0.174,0.045 0.339,0.085 0.492,0.12c0.038,0.007 0.077,0.018 0.113,0.025c0.184,0.039 0.352,0.071 0.509,0.097c0.03,0.004 0.058,0.008 0.088,0.013c0.134,0.021 0.261,0.037 0.376,0.05c0.018,0.001 0.037,0.004 0.055,0.005c0.272,0.028 0.481,0.033 0.636,0.029c0.156,0.004 0.367,-0.001 0.639,-0.029c0.017,-0.001 0.033,-0.003 0.05,-0.005c0.117,-0.013 0.246,-0.029 0.385,-0.051c0.026,-0.005 0.051,-0.008 0.079,-0.012c0.158,-0.026 0.33,-0.058 0.517,-0.098c0.03,-0.006 0.064,-0.015 0.096,-0.022c0.161,-0.035 0.333,-0.077 0.514,-0.125c0.053,-0.013 0.104,-0.027 0.158,-0.041c0.222,-0.061 0.455,-0.128 0.706,-0.208c0.027,-0.008 0.057,-0.019 0.085,-0.028c0.227,-0.072 0.469,-0.155 0.72,-0.245c0.074,-0.027 0.148,-0.054 0.224,-0.081c0.293,-0.109 0.595,-0.224 0.92,-0.357c0.499,-0.204 1.038,-0.488 1.619,-0.828c1.016,-0.597 2.162,-1.37 3.45,-2.201c3.866,-2.491 9.013,-5.506 15.802,-5.863c7.112,-0.374 13.194,1.053 16.302,1.98c0.423,0.127 0.792,0.245 1.1,0.347c0.718,0.239 1.109,0.395 1.109,0.395c0,0 0.007,-0.089 0.012,-0.255c0.024,-0.717 0.034,-2.866 -0.555,-5.371c-0.043,-0.182 -0.098,-0.375 -0.161,-0.573c-0.016,-0.049 -0.033,-0.1 -0.05,-0.15c-0.05,-0.152 -0.104,-0.308 -0.163,-0.468c-0.025,-0.064 -0.049,-0.129 -0.074,-0.194c-0.061,-0.159 -0.126,-0.32 -0.195,-0.484c-0.025,-0.06 -0.049,-0.12 -0.075,-0.181c-0.09,-0.21 -0.185,-0.423 -0.284,-0.639c-0.006,-0.013 -0.011,-0.024 -0.017,-0.037c-0.109,-0.237 -0.224,-0.476 -0.341,-0.715c-0.023,-0.048 -0.047,-0.094 -0.071,-0.141c-0.094,-0.191 -0.188,-0.381 -0.286,-0.569c-0.033,-0.064 -0.066,-0.127 -0.099,-0.19c-0.092,-0.18 -0.186,-0.357 -0.279,-0.532c-0.03,-0.056 -0.06,-0.113 -0.09,-0.168c-0.115,-0.213 -0.229,-0.422 -0.342,-0.628l-0.018,-0.033c-0.256,-0.46 -0.504,-0.893 -0.735,-1.291c-0.014,-0.024 -0.027,-0.047 -0.041,-0.07c-0.101,-0.173 -0.197,-0.338 -0.29,-0.493c-0.013,-0.022 -0.026,-0.045 -0.04,-0.067c-0.2,-0.337 -0.379,-0.633 -0.522,-0.865l-0.001,-0.001c-0.227,-0.37 -0.364,-0.586 -0.364,-0.586l8.53,0c0,0 -0.545,-1.27 -1.815,-2.904" style="fill:#1b0000;fill-opacity:0.2;"/><path d="M75.431,7.072c3.673,0 6.652,3.049 6.652,6.809c0,2.101 -0.93,3.978 -2.391,5.227c0.564,0.909 1.081,1.819 1.562,2.715c0.025,0.045 0.05,0.091 0.075,0.137c0.004,0.006 0.007,0.014 0.01,0.02c0.15,0.284 0.295,0.575 0.435,0.869c4.018,-1.896 6.814,-6.044 6.814,-10.871c0,-6.615 -5.241,-11.978 -11.706,-11.978c-4.88,0 -9.06,3.058 -10.816,7.401c1.561,0.622 2.975,1.333 4.259,2.117c1.22,-1.494 3.054,-2.446 5.106,-2.446" style="fill:#b85e26;fill-rule:nonzero;"/><path d="M82.083,13.881c0,-3.76 -2.979,-6.808 -6.652,-6.808c-2.052,0 -3.886,0.951 -5.106,2.445c4.34,2.652 7.21,6.115 9.367,9.59c1.461,-1.249 2.391,-3.126 2.391,-5.227" style="fill:#fff;fill-rule:nonzero;"/><path d="M19.964,21.96c0.028,-0.053 0.058,-0.106 0.086,-0.159l0.001,0c0.477,-0.888 0.991,-1.791 1.551,-2.694c-1.462,-1.248 -2.393,-3.126 -2.393,-5.226c0,-3.76 2.979,-6.809 6.653,-6.809c2.053,0 3.886,0.952 5.106,2.446c1.284,-0.785 2.699,-1.496 4.261,-2.117c-1.758,-4.343 -5.937,-7.401 -10.818,-7.401c-6.465,0 -11.706,5.363 -11.706,11.978c0,4.826 2.795,8.974 6.814,10.872c0.14,-0.296 0.284,-0.587 0.435,-0.87c0.003,-0.006 0.006,-0.014 0.01,-0.02" style="fill:#b85e26;fill-rule:nonzero;"/><path d="M25.862,7.072c-3.673,0 -6.652,3.049 -6.652,6.809c0,2.101 0.93,3.978 2.391,5.227c2.157,-3.475 5.027,-6.938 9.367,-9.59c-1.22,-1.494 -3.054,-2.446 -5.106,-2.446" style="fill:#fff;fill-rule:nonzero;"/><path d="M93.147,62.662c0.024,0.046 0.048,0.094 0.071,0.14c-0.023,-0.046 -0.047,-0.094 -0.071,-0.14" style="fill:#ffac45;fill-rule:nonzero;"/><path d="M93.559,63.518c0.006,0.013 0.011,0.024 0.017,0.037c-0.006,-0.013 -0.011,-0.024 -0.017,-0.037" style="fill:#ffac45;fill-rule:nonzero;"/><path d="M92.762,61.902c0.033,0.063 0.066,0.127 0.099,0.191c-0.033,-0.064 -0.066,-0.127 -0.099,-0.191" style="fill:#ffac45;fill-rule:nonzero;"/><path d="M93.859,64.194c0.027,0.061 0.051,0.121 0.077,0.181c-0.026,-0.06 -0.05,-0.12 -0.077,-0.181" style="fill:#ffac45;fill-rule:nonzero;"/><path d="M94.13,64.859c0.025,0.065 0.049,0.13 0.074,0.194c-0.025,-0.065 -0.049,-0.129 -0.074,-0.194" style="fill:#ffac45;fill-rule:nonzero;"/><path d="M90.927,58.621c0.014,0.022 0.027,0.045 0.04,0.068c-0.013,-0.023 -0.026,-0.046 -0.04,-0.068" style="fill:#ffac45;fill-rule:nonzero;"/><path d="M92.033,60.542l0.017,0.033l-0.017,-0.033Z" style="fill:#ffac45;fill-rule:nonzero;"/><path d="M92.393,61.203c0.03,0.055 0.059,0.112 0.089,0.168c-0.03,-0.057 -0.059,-0.113 -0.089,-0.168" style="fill:#ffac45;fill-rule:nonzero;"/><path d="M91.257,59.181c0.014,0.023 0.027,0.046 0.041,0.07c-0.014,-0.024 -0.027,-0.047 -0.041,-0.07" style="fill:#ffac45;fill-rule:nonzero;"/><path d="M94.368,65.521c0.015,0.05 0.033,0.101 0.048,0.149c-0.015,-0.048 -0.033,-0.099 -0.048,-0.149" style="fill:#ffac45;fill-rule:nonzero;"/><path d="M55.469,4.827c0.2,0.019 0.399,0.04 0.607,0.064c-0.209,-0.024 -0.406,-0.045 -0.607,-0.064" style="fill:#ffac45;fill-rule:nonzero;"/><path d="M76.61,69.147c-9.052,0.477 -15.186,5.677 -19.252,8.064c4.066,-2.387 10.2,-7.587 19.252,-8.063c7.112,-0.374 13.195,1.052 16.301,1.981c-3.106,-0.929 -9.189,-2.356 -16.301,-1.982" style="fill:#ffac45;fill-rule:nonzero;"/><path d="M56.302,4.919c0.416,0.05 0.848,0.111 1.297,0.181c-0.449,-0.07 -0.881,-0.131 -1.297,-0.181" style="fill:#ffac45;fill-rule:nonzero;"/><path d="M54.541,4.746c0.186,0.014 0.381,0.03 0.578,0.047c-0.198,-0.017 -0.39,-0.033 -0.578,-0.047" style="fill:#ffac45;fill-rule:nonzero;"/><path d="M98.57,57.169c0,0 -0.545,-1.27 -1.815,-2.904c-1.27,-1.633 -5.626,-6.896 -5.626,-6.896l10.164,-2.905l-3.45,-2.721c-3.447,-2.724 -12.703,-6.354 -12.703,-6.354c0,0 -0.094,-0.825 -0.317,-2.122c-1.435,0.858 -3.416,1.451 -4.408,1.938c-1.485,0.727 -3.058,1.311 -4.57,1.926c0.037,-1.568 2.491,-4.022 3.369,-5.321c1.08,-1.59 2.344,-3.14 3.53,-4.621c0.138,-0.173 0.298,-0.406 0.475,-0.614c0.803,2.515 1.31,4.988 1.6,6.672c-0.337,-1.962 -0.97,-4.995 -2.02,-7.914c-1.17,0.692 -2.706,1.175 -3.739,1.677c-1.32,0.642 -3.09,1.708 -4.552,1.767c0.16,-1.078 5.025,-5.915 6.734,-6.975c0.003,0.007 0.008,0.013 0.011,0.021c-0.48,-0.896 -0.998,-1.806 -1.562,-2.715c-2.156,-3.475 -5.025,-6.939 -9.366,-9.59c-1.284,-0.784 -2.698,-1.495 -4.26,-2.116c-0.117,-0.047 -0.225,-0.098 -0.344,-0.144c-2.362,-0.904 -4.591,-1.495 -6.591,-1.887c0.245,0.048 0.489,0.096 0.741,0.15c-0.276,3.012 -1.105,5.953 -1.864,8.883c-0.62,2.392 -1.147,5.011 -2.271,7.21c-0.999,-4.04 -1.511,-8.284 -2.069,-12.424c-0.19,-1.41 -0.324,-3.014 -0.568,-4.521c0.372,0.012 0.782,0.032 1.216,0.061c-1.792,-0.12 -3.087,-0.076 -3.668,-0.039c-0.581,-0.037 -1.874,-0.081 -3.665,0.039c0.433,-0.029 0.841,-0.049 1.212,-0.061c-0.244,1.507 -0.378,3.111 -0.568,4.521c-0.558,4.14 -1.07,8.384 -2.069,12.424c-1.124,-2.199 -1.651,-4.818 -2.271,-7.21c-0.759,-2.93 -1.588,-5.871 -1.864,-8.883c0.251,-0.054 0.494,-0.102 0.738,-0.15c-2,0.393 -4.227,0.983 -6.588,1.887c-0.119,0.046 -0.227,0.097 -0.344,0.144c-1.561,0.621 -2.976,1.332 -4.261,2.116c-4.34,2.651 -7.209,6.115 -9.365,9.59c-0.56,0.903 -1.075,1.804 -1.551,2.694c1.71,1.061 6.574,5.897 6.733,6.975c-1.461,-0.059 -3.23,-1.125 -4.551,-1.767c-1.033,-0.502 -2.569,-0.985 -3.739,-1.677c-0.148,0.414 -0.288,0.828 -0.42,1.243c0.176,0.207 0.336,0.44 0.476,0.613c1.185,1.481 2.449,3.031 3.529,4.621c0.879,1.299 3.332,3.753 3.369,5.321c-1.512,-0.615 -3.084,-1.199 -4.57,-1.926c-0.993,-0.487 -2.973,-1.08 -4.407,-1.938c0.288,-1.676 0.793,-4.142 1.59,-6.651c-1.416,4.452 -1.908,8.773 -1.908,8.773c0,0 -9.256,3.63 -12.704,6.354l-3.449,2.721l10.164,2.905c0,0 -4.356,5.263 -5.626,6.896c-1.269,1.634 -1.815,2.904 -1.815,2.904l8.53,0c0,0 -0.136,0.216 -0.363,0.584c8.423,-9.627 26.259,-11.06 39.757,-10.505c13.498,-0.555 31.336,0.878 39.757,10.507c-0.226,-0.37 -0.364,-0.586 -0.364,-0.586l8.53,0Z" style="fill:#e67a25;fill-rule:nonzero;"/><path d="M82.123,23.619c0.241,0.56 0.466,1.134 0.674,1.712c-0.208,-0.578 -0.433,-1.152 -0.674,-1.712" style="fill:#ffac45;fill-rule:nonzero;"/><path d="M55.739,78.04c-0.326,0.133 -0.628,0.248 -0.92,0.357c0.292,-0.109 0.594,-0.224 0.92,-0.357" style="fill:#ffac45;fill-rule:nonzero;"/><path d="M58.018,5.167c0.229,0.039 0.462,0.079 0.7,0.124c-0.238,-0.045 -0.47,-0.085 -0.7,-0.124" style="fill:#ffac45;fill-rule:nonzero;"/><path d="M54.595,78.478c-0.251,0.09 -0.493,0.172 -0.72,0.245c0.227,-0.073 0.468,-0.155 0.72,-0.245" style="fill:#ffac45;fill-rule:nonzero;"/><path d="M53.79,78.752c-0.251,0.078 -0.484,0.146 -0.705,0.207c0.221,-0.061 0.454,-0.129 0.705,-0.207" style="fill:#ffac45;fill-rule:nonzero;"/><path d="M94.012,71.475c-0.309,-0.103 -0.677,-0.22 -1.101,-0.346c0.424,0.126 0.792,0.243 1.101,0.346" style="fill:#ffac45;fill-rule:nonzero;"/><path d="M52.316,79.147c-0.187,0.04 -0.36,0.072 -0.517,0.098c0.158,-0.026 0.33,-0.058 0.517,-0.098" style="fill:#ffac45;fill-rule:nonzero;"/><path d="M52.926,79.001c-0.181,0.046 -0.354,0.088 -0.514,0.124c0.16,-0.036 0.332,-0.078 0.514,-0.124" style="fill:#ffac45;fill-rule:nonzero;"/><path d="M51.72,79.257c-0.139,0.021 -0.268,0.038 -0.385,0.05c0.117,-0.012 0.246,-0.029 0.385,-0.05" style="fill:#ffac45;fill-rule:nonzero;"/><path d="M82.113,23.596c-0.11,-0.252 -0.223,-0.5 -0.339,-0.746c-0.141,-0.296 -0.285,-0.586 -0.435,-0.87c0.276,0.519 0.534,1.06 0.774,1.616" style="fill:#ffac45;fill-rule:nonzero;"/><path d="M8.813,61.365l0.084,-0.156l-0.084,0.156Z" style="fill:#ffac45;fill-rule:nonzero;"/><path d="M18.495,25.331c0.208,-0.578 0.433,-1.152 0.675,-1.711c-0.242,0.559 -0.466,1.133 -0.675,1.711" style="fill:#ffac45;fill-rule:nonzero;"/><path d="M7.697,63.599c0.014,-0.03 0.026,-0.059 0.041,-0.089c-0.015,0.03 -0.027,0.059 -0.041,0.089" style="fill:#ffac45;fill-rule:nonzero;"/><path d="M8.43,62.097c0.034,-0.067 0.069,-0.133 0.102,-0.199c-0.034,0.066 -0.068,0.132 -0.102,0.199" style="fill:#ffac45;fill-rule:nonzero;"/><path d="M8.072,62.808c0.027,-0.055 0.056,-0.111 0.083,-0.167c-0.027,0.056 -0.056,0.112 -0.083,0.167" style="fill:#ffac45;fill-rule:nonzero;"/><path d="M42.577,5.291c0.236,-0.045 0.468,-0.085 0.698,-0.124c-0.23,0.039 -0.462,0.079 -0.698,0.124" style="fill:#ffac45;fill-rule:nonzero;"/><path d="M7.349,64.398c0.03,-0.072 0.058,-0.143 0.09,-0.216c-0.032,0.074 -0.06,0.144 -0.09,0.216" style="fill:#ffac45;fill-rule:nonzero;"/><path d="M45.218,4.891c0.207,-0.024 0.404,-0.044 0.602,-0.063c-0.198,0.018 -0.395,0.039 -0.602,0.063" style="fill:#ffac45;fill-rule:nonzero;"/><path d="M43.699,5.099c0.435,-0.067 0.855,-0.126 1.26,-0.175c-0.405,0.049 -0.825,0.108 -1.26,0.175" style="fill:#ffac45;fill-rule:nonzero;"/><path d="M46.177,4.793c0.195,-0.017 0.388,-0.034 0.573,-0.047c-0.186,0.013 -0.376,0.03 -0.573,0.047" style="fill:#ffac45;fill-rule:nonzero;"/><path d="M8.381,71.129c3.108,-0.928 9.19,-2.355 16.302,-1.981c5.957,0.313 10.644,2.671 14.316,4.928c-3.672,-2.257 -8.359,-4.616 -14.316,-4.93c-7.112,-0.373 -13.194,1.055 -16.302,1.983" style="fill:#ffac45;fill-rule:nonzero;"/><path d="M46.463,78.392c-0.275,-0.102 -0.561,-0.211 -0.866,-0.335c0.305,0.124 0.591,0.233 0.866,0.335" style="fill:#ffac45;fill-rule:nonzero;"/><path d="M6.872,65.682c0.02,-0.063 0.044,-0.129 0.065,-0.194c-0.021,0.065 -0.045,0.131 -0.065,0.194" style="fill:#ffac45;fill-rule:nonzero;"/><path d="M8.381,71.129c-0.423,0.126 -0.792,0.243 -1.1,0.346c0.308,-0.103 0.677,-0.22 1.1,-0.346" style="fill:#ffac45;fill-rule:nonzero;"/><path d="M48.87,79.122c-0.154,-0.034 -0.32,-0.075 -0.493,-0.119c0.173,0.045 0.338,0.085 0.493,0.119" style="fill:#ffac45;fill-rule:nonzero;"/><path d="M47.394,78.716c-0.216,-0.07 -0.445,-0.149 -0.684,-0.234c0.239,0.085 0.468,0.163 0.684,0.234" style="fill:#ffac45;fill-rule:nonzero;"/><path d="M48.202,78.957c-0.217,-0.059 -0.447,-0.125 -0.693,-0.203c0.247,0.078 0.476,0.144 0.693,0.203" style="fill:#ffac45;fill-rule:nonzero;"/><path d="M7.084,65.069c0.028,-0.076 0.056,-0.152 0.086,-0.229c-0.03,0.077 -0.058,0.153 -0.086,0.229" style="fill:#ffac45;fill-rule:nonzero;"/><path d="M49.491,79.245c-0.156,-0.026 -0.326,-0.058 -0.51,-0.097c0.184,0.04 0.354,0.071 0.51,0.097" style="fill:#ffac45;fill-rule:nonzero;"/><path d="M49.954,79.308c-0.114,-0.013 -0.24,-0.03 -0.375,-0.05c0.135,0.02 0.261,0.037 0.375,0.05" style="fill:#ffac45;fill-rule:nonzero;"/><path d="M19.954,21.98c-0.15,0.284 -0.295,0.575 -0.435,0.869c-0.116,0.246 -0.23,0.495 -0.339,0.747c0.24,-0.556 0.498,-1.097 0.774,-1.616" style="fill:#ffac45;fill-rule:nonzero;"/><path d="M50.646,79.342c-0.154,0.004 -0.366,-0.001 -0.636,-0.028c0.272,0.027 0.481,0.033 0.636,0.028c0.156,0.005 0.366,-0.001 0.639,-0.028c-0.271,0.027 -0.483,0.032 -0.639,0.028" style="fill:#ffac45;fill-rule:nonzero;"/><path d="M50.646,68.9c-3.983,6.008 -10.683,3.089 -14.903,-1.62c0.2,-0.202 5.65,4.492 9.607,3.953c1.863,-0.258 3.438,-1.495 4.684,-3.679l0.001,-9.1c-1.107,-0.575 -2.498,-1.383 -4.118,-2.527c-5.285,-3.729 -5.372,-7.387 4.729,-7.281c10.101,-0.106 10.014,3.552 4.729,7.281c-1.619,1.143 -3.009,1.951 -4.116,2.525l0,9.102c1.247,2.184 2.821,3.421 4.684,3.679c3.957,0.539 9.407,-4.155 9.607,-3.953c-4.22,4.709 -10.92,7.628 -14.904,1.62m0,-21.651c-13.497,-0.555 -31.332,0.877 -39.756,10.504l-0.003,0.003c-0.441,0.718 -1.218,2.016 -1.99,3.453l-0.083,0.156c-0.095,0.176 -0.188,0.354 -0.282,0.534c-0.033,0.066 -0.068,0.132 -0.102,0.198c-0.093,0.182 -0.184,0.363 -0.274,0.544c-0.028,0.056 -0.056,0.112 -0.084,0.167c-0.115,0.235 -0.227,0.47 -0.335,0.702c-0.013,0.03 -0.026,0.06 -0.04,0.09c-0.09,0.196 -0.176,0.39 -0.258,0.582c-0.032,0.073 -0.06,0.144 -0.09,0.216c-0.062,0.15 -0.122,0.297 -0.179,0.442c-0.03,0.077 -0.058,0.153 -0.086,0.229c-0.053,0.143 -0.102,0.283 -0.147,0.419c-0.022,0.065 -0.045,0.131 -0.064,0.194c-0.061,0.195 -0.116,0.384 -0.157,0.561c-0.636,2.7 -0.576,4.983 -0.551,5.512c0.003,0.075 0.006,0.115 0.006,0.115c0,0 0.392,-0.156 1.11,-0.395c0.309,-0.102 0.677,-0.219 1.1,-0.346c3.107,-0.929 9.19,-2.356 16.302,-1.982c5.956,0.313 10.643,2.673 14.316,4.929c2.704,1.663 4.861,3.271 6.555,3.964c0.015,0.005 0.028,0.01 0.043,0.017c0.305,0.123 0.591,0.234 0.866,0.335c0.084,0.031 0.166,0.061 0.247,0.089c0.239,0.086 0.468,0.165 0.684,0.235c0.038,0.012 0.079,0.026 0.115,0.037c0.247,0.078 0.476,0.144 0.692,0.204c0.06,0.016 0.117,0.03 0.176,0.046c0.173,0.044 0.339,0.085 0.493,0.119c0.037,0.009 0.075,0.018 0.111,0.026c0.184,0.039 0.354,0.071 0.51,0.097c0.03,0.004 0.057,0.009 0.087,0.013c0.135,0.02 0.262,0.037 0.376,0.05c0.019,0.001 0.038,0.004 0.056,0.006c0.27,0.027 0.482,0.032 0.636,0.028c0.156,0.004 0.368,-0.001 0.639,-0.028c0.016,-0.002 0.033,-0.004 0.05,-0.006c0.117,-0.013 0.246,-0.03 0.385,-0.051c0.027,-0.004 0.051,-0.008 0.078,-0.012c0.159,-0.026 0.331,-0.058 0.518,-0.098c0.031,-0.007 0.064,-0.015 0.096,-0.022c0.16,-0.036 0.333,-0.078 0.514,-0.124c0.052,-0.014 0.104,-0.027 0.159,-0.042c0.221,-0.061 0.453,-0.128 0.705,-0.207c0.027,-0.009 0.057,-0.02 0.085,-0.029c0.227,-0.072 0.469,-0.155 0.72,-0.245c0.074,-0.028 0.148,-0.054 0.224,-0.082c0.292,-0.108 0.594,-0.223 0.92,-0.356c0.499,-0.205 1.038,-0.488 1.618,-0.829c4.067,-2.387 10.201,-7.587 19.253,-8.064c7.112,-0.374 13.195,1.053 16.302,1.982c0.423,0.127 0.791,0.244 1.099,0.346c0.719,0.239 1.11,0.395 1.11,0.395c0,0 0.007,-0.089 0.012,-0.255c0.024,-0.717 0.033,-2.865 -0.555,-5.372c-0.042,-0.18 -0.099,-0.374 -0.162,-0.573c-0.015,-0.048 -0.033,-0.099 -0.048,-0.149c-0.051,-0.152 -0.105,-0.308 -0.165,-0.469c-0.024,-0.063 -0.048,-0.129 -0.073,-0.193c-0.062,-0.159 -0.126,-0.32 -0.194,-0.484c-0.026,-0.06 -0.051,-0.12 -0.077,-0.181c-0.09,-0.21 -0.184,-0.423 -0.283,-0.639c-0.006,-0.013 -0.011,-0.024 -0.017,-0.037c-0.109,-0.237 -0.224,-0.476 -0.341,-0.716c-0.023,-0.046 -0.047,-0.093 -0.071,-0.14c-0.093,-0.19 -0.189,-0.38 -0.286,-0.569c-0.033,-0.064 -0.066,-0.128 -0.099,-0.191c-0.092,-0.178 -0.186,-0.356 -0.28,-0.531c-0.03,-0.056 -0.059,-0.112 -0.089,-0.168c-0.115,-0.213 -0.23,-0.423 -0.343,-0.628l-0.017,-0.033c-0.256,-0.46 -0.503,-0.893 -0.735,-1.291c-0.014,-0.024 -0.027,-0.047 -0.041,-0.07c-0.101,-0.173 -0.197,-0.337 -0.29,-0.492c-0.013,-0.024 -0.026,-0.046 -0.04,-0.068c-0.201,-0.337 -0.38,-0.634 -0.522,-0.865l0,0c-8.422,-9.63 -26.26,-11.062 -39.759,-10.507" style="fill:#fff;fill-rule:nonzero;"/><path d="M82.744,27.189c-1.186,1.481 -2.451,3.031 -3.529,4.622c-0.879,1.298 -3.333,3.753 -3.369,5.32c1.511,-0.615 3.084,-1.2 4.569,-1.926c0.993,-0.487 2.973,-1.08 4.407,-1.938c0,-0.006 -0.001,-0.013 -0.003,-0.019c-0.29,-1.685 -0.798,-4.158 -1.6,-6.672c-0.177,0.207 -0.336,0.441 -0.475,0.613" style="fill-rule:nonzero;"/><path d="M81.339,21.98c-0.003,-0.007 -0.006,-0.014 -0.01,-0.02c-0.025,-0.046 -0.05,-0.092 -0.075,-0.137c-0.004,-0.008 -0.008,-0.015 -0.012,-0.021c-1.709,1.06 -6.575,5.897 -6.734,6.975c1.462,-0.059 3.231,-1.125 4.552,-1.767c1.034,-0.502 2.57,-0.985 3.738,-1.677c0,0 -0.001,-0.001 -0.001,-0.002c-0.207,-0.579 -0.432,-1.152 -0.674,-1.711c-0.004,-0.009 -0.007,-0.016 -0.01,-0.024c-0.24,-0.556 -0.498,-1.097 -0.774,-1.616" style="fill-rule:nonzero;"/><path d="M53.667,9.191c0.558,4.14 1.07,8.383 2.068,12.423c1.125,-2.199 1.652,-4.818 2.271,-7.21c0.76,-2.93 1.589,-5.871 1.865,-8.883c-0.251,-0.054 -0.497,-0.102 -0.741,-0.15c-0.138,-0.028 -0.277,-0.055 -0.413,-0.08c-0.237,-0.045 -0.471,-0.085 -0.699,-0.124c-0.143,-0.023 -0.281,-0.045 -0.42,-0.067c-0.447,-0.07 -0.881,-0.13 -1.296,-0.181c-0.075,-0.009 -0.153,-0.02 -0.226,-0.028c-0.208,-0.025 -0.407,-0.044 -0.607,-0.064c-0.118,-0.012 -0.235,-0.024 -0.35,-0.034c-0.197,-0.018 -0.392,-0.033 -0.578,-0.048c-0.078,-0.006 -0.15,-0.009 -0.226,-0.015c-0.434,-0.029 -0.844,-0.05 -1.217,-0.061c0.245,1.507 0.378,3.111 0.569,4.522" style="fill-rule:nonzero;"/><path d="M20.878,35.205c1.485,0.727 3.058,1.311 4.57,1.926c-0.037,-1.567 -2.491,-4.022 -3.369,-5.32c-1.08,-1.591 -2.344,-3.141 -3.529,-4.622c-0.14,-0.173 -0.3,-0.406 -0.476,-0.613l0,-0.001c-0.005,0.014 -0.009,0.027 -0.013,0.041c-0.797,2.51 -1.302,4.975 -1.59,6.651c1.434,0.859 3.414,1.452 4.407,1.938" style="fill-rule:nonzero;"/><path d="M26.784,28.777c-0.159,-1.078 -5.023,-5.914 -6.733,-6.976l-0.001,0c-0.028,0.054 -0.059,0.106 -0.086,0.159c-0.004,0.006 -0.007,0.014 -0.009,0.02c-0.277,0.52 -0.534,1.06 -0.775,1.616c-0.004,0.008 -0.006,0.015 -0.01,0.023c-0.242,0.56 -0.466,1.134 -0.675,1.712c0,0.001 -0.001,0.001 -0.001,0.002c1.17,0.692 2.706,1.175 3.739,1.678c1.32,0.641 3.09,1.708 4.551,1.766" style="fill-rule:nonzero;"/><path d="M43.286,14.404c0.62,2.392 1.147,5.012 2.271,7.21c0.999,-4.04 1.511,-8.284 2.069,-12.423c0.19,-1.411 0.324,-3.015 0.568,-4.522c-0.371,0.011 -0.779,0.032 -1.212,0.062c-0.078,0.004 -0.152,0.009 -0.232,0.015c-0.185,0.014 -0.378,0.03 -0.573,0.048c-0.117,0.009 -0.237,0.021 -0.357,0.033c-0.198,0.021 -0.395,0.039 -0.602,0.063c-0.084,0.01 -0.173,0.023 -0.259,0.033c-0.405,0.05 -0.825,0.109 -1.26,0.177c-0.141,0.021 -0.281,0.043 -0.425,0.068c-0.228,0.037 -0.461,0.079 -0.696,0.123c-0.138,0.025 -0.278,0.053 -0.418,0.08c-0.244,0.049 -0.487,0.096 -0.738,0.15c0.276,3.012 1.105,5.954 1.864,8.883" style="fill-rule:nonzero;"/><path d="M55.943,71.233c-1.863,-0.258 -3.438,-1.495 -4.683,-3.678l0,-9.102c-0.21,0.108 -0.427,0.224 -0.614,0.315c-0.187,-0.091 -0.403,-0.206 -0.611,-0.314l-0.002,9.101c-1.245,2.183 -2.82,3.42 -4.683,3.678c-3.957,0.54 -9.408,-4.155 -9.607,-3.953c4.219,4.709 10.921,7.628 14.903,1.62c3.983,6.008 10.685,3.089 14.904,-1.62c-0.199,-0.202 -5.65,4.493 -9.607,3.953" style="fill-rule:nonzero;"/><path d="M50.646,58.768c0.186,-0.091 0.404,-0.206 0.613,-0.315c1.107,-0.575 2.497,-1.383 4.116,-2.526c5.285,-3.729 5.372,-7.387 -4.729,-7.281c-10.101,-0.106 -10.014,3.552 -4.729,7.281c1.62,1.143 3.011,1.952 4.118,2.527c0.208,0.109 0.425,0.223 0.611,0.314" style="fill:#d65a6f;fill-rule:nonzero;"/><path d="M32.252,36.09c0.296,-1.487 1.741,-2.454 3.228,-2.158c1.49,0.296 2.457,1.741 2.16,3.23c-0.039,0.191 -0.096,0.371 -0.168,0.542c-0.345,-0.465 -0.889,-0.822 -1.667,-0.977c-1.402,-0.277 -2.551,0.319 -3.262,1.227c-0.305,-0.547 -0.425,-1.202 -0.291,-1.864m1.845,4.802c2.356,0.469 4.645,-1.061 5.115,-3.416c0.468,-2.358 -1.062,-4.646 -3.418,-5.115c-2.356,-0.47 -4.644,1.06 -5.114,3.417c-0.469,2.355 1.06,4.645 3.417,5.114" style="fill:#fff;fill-rule:nonzero;"/><path d="M35.805,36.727c0.778,0.155 1.322,0.513 1.668,0.977c0.071,-0.172 0.129,-0.352 0.166,-0.542c0.298,-1.488 -0.669,-2.934 -2.159,-3.23c-1.487,-0.296 -2.933,0.671 -3.228,2.158c-0.134,0.662 -0.014,1.316 0.291,1.865c0.711,-0.909 1.861,-1.505 3.262,-1.228" style="fill-rule:nonzero;"/><path d="M66.599,37.954c-0.71,-0.908 -1.86,-1.504 -3.262,-1.227c-0.778,0.155 -1.321,0.513 -1.667,0.977c-0.072,-0.171 -0.129,-0.352 -0.167,-0.542c-0.297,-1.488 0.67,-2.934 2.159,-3.23c1.487,-0.296 2.933,0.671 3.229,2.159c0.133,0.66 0.013,1.316 -0.292,1.863m1.863,-2.176c-0.47,-2.357 -2.757,-3.887 -5.113,-3.417c-2.357,0.469 -3.887,2.758 -3.419,5.114c0.47,2.357 2.76,3.886 5.115,3.417c2.357,-0.469 3.886,-2.759 3.417,-5.114" style="fill:#fff;fill-rule:nonzero;"/><path d="M63.337,36.727c-0.778,0.155 -1.321,0.513 -1.667,0.977c-0.071,-0.172 -0.129,-0.352 -0.167,-0.542c-0.297,-1.488 0.669,-2.934 2.16,-3.23c1.486,-0.296 2.932,0.671 3.228,2.158c0.133,0.662 0.013,1.316 -0.291,1.865c-0.711,-0.909 -1.861,-1.505 -3.263,-1.228" style="fill-rule:nonzero;"/></svg>