<?xml version="1.0" encoding="UTF-8" standalone="no"?>
<!DOCTYPE svg PUBLIC "-//W3C//DTD SVG 1.1//EN" "http://www.w3.org/Graphics/SVG/1.1/DTD/svg11.dtd">
<svg width="100%" height="100%" viewBox="0 0 106 106" version="1.1" xmlns="http://www.w3.org/2000/svg" xmlns:xlink="http://www.w3.org/1999/xlink" xml:space="preserve" xmlns:serif="http://www.serif.com/" style="fill-rule:evenodd;clip-rule:evenodd;stroke-linejoin:round;stroke-miterlimit:1.41421;">
    <g transform="matrix(1,0,0,1,0,12)">
        <path d="M100.505,56.515C99.235,54.882 94.879,49.619 94.879,49.619L105.043,46.714L101.594,43.993C98.146,41.269 88.89,37.639 88.89,37.639C88.89,37.639 88.796,36.814 88.573,35.517C88.572,35.511 88.571,35.503 88.569,35.498C88.53,35.272 88.487,35.031 88.44,34.778C88.423,34.684 88.403,34.585 88.385,34.488C88.352,34.321 88.32,34.153 88.284,33.976C88.261,33.856 88.235,33.733 88.208,33.608C88.175,33.446 88.141,33.283 88.104,33.116C88.073,32.975 88.042,32.834 88.01,32.689C87.973,32.528 87.934,32.364 87.896,32.197C87.86,32.045 87.823,31.893 87.785,31.737C87.743,31.566 87.698,31.393 87.653,31.219C87.614,31.064 87.575,30.912 87.533,30.756C87.477,30.547 87.417,30.336 87.357,30.124C87.299,29.92 87.24,29.718 87.179,29.512C87.11,29.284 87.042,29.056 86.969,28.825C86.969,28.825 86.968,28.826 86.968,28.827C86.835,28.411 86.697,27.997 86.549,27.583C86.549,27.583 86.548,27.582 86.548,27.581C86.339,27.002 86.115,26.429 85.873,25.87C85.869,25.861 85.866,25.854 85.863,25.846C85.754,25.594 85.64,25.345 85.523,25.099C89.543,23.203 92.338,19.054 92.338,14.228C92.338,7.613 87.097,2.25 80.632,2.25C75.752,2.25 71.573,5.308 69.815,9.652C69.698,9.605 69.59,9.554 69.471,9.508C67.392,8.713 65.427,8.17 63.62,7.781C63.62,7.778 63.621,7.774 63.621,7.771C63.369,7.717 63.125,7.669 62.88,7.621C62.741,7.594 62.603,7.566 62.468,7.54C62.231,7.497 61.997,7.456 61.768,7.417C61.625,7.393 61.487,7.372 61.349,7.35C60.9,7.281 60.467,7.219 60.052,7.169C59.978,7.16 59.899,7.15 59.826,7.141C59.618,7.117 59.419,7.096 59.219,7.077C59.102,7.065 58.984,7.054 58.868,7.043C58.672,7.026 58.478,7.009 58.292,6.996C58.214,6.99 58.141,6.985 58.065,6.98C57.631,6.951 57.221,6.931 56.849,6.919C55.685,6.881 54.836,6.913 54.396,6.941C53.957,6.913 53.108,6.881 51.944,6.919C51.573,6.931 51.165,6.951 50.732,6.98C50.654,6.985 50.58,6.99 50.5,6.996C50.315,7.009 50.122,7.026 49.927,7.043C49.81,7.054 49.69,7.065 49.57,7.078C49.372,7.097 49.175,7.117 48.968,7.141C48.884,7.15 48.795,7.162 48.709,7.174C48.304,7.222 47.884,7.282 47.449,7.349C47.308,7.372 47.168,7.393 47.024,7.417C46.796,7.456 46.563,7.497 46.328,7.54C46.19,7.566 46.05,7.594 45.91,7.621C45.666,7.669 45.423,7.717 45.172,7.771C45.172,7.774 45.173,7.778 45.173,7.781C43.365,8.169 41.4,8.713 39.322,9.508C39.203,9.554 39.095,9.605 38.978,9.652C37.22,5.308 33.041,2.25 28.161,2.25C21.695,2.25 16.455,7.613 16.455,14.228C16.455,19.054 19.25,23.203 23.27,25.099C23.153,25.345 23.039,25.594 22.93,25.846C22.927,25.854 22.924,25.861 22.92,25.87C22.678,26.429 22.454,27.002 22.245,27.581C22.245,27.582 22.244,27.583 22.244,27.583C22.096,27.997 21.956,28.411 21.824,28.826L21.824,28.825C21.819,28.839 21.815,28.852 21.811,28.866C21.716,29.166 21.625,29.466 21.538,29.763C21.514,29.846 21.491,29.928 21.467,30.01C21.406,30.224 21.346,30.437 21.289,30.649C21.262,30.749 21.236,30.847 21.21,30.947C21.16,31.137 21.111,31.326 21.064,31.512C21.038,31.618 21.012,31.722 20.987,31.826C20.943,32.005 20.9,32.182 20.861,32.356C20.837,32.457 20.814,32.556 20.792,32.655C20.751,32.832 20.713,33.005 20.676,33.178C20.657,33.266 20.637,33.355 20.618,33.443C20.581,33.625 20.544,33.801 20.51,33.975C20.495,34.043 20.481,34.113 20.468,34.18C20.425,34.399 20.384,34.611 20.346,34.815C20.344,34.83 20.34,34.845 20.338,34.86C20.03,36.531 19.903,37.639 19.903,37.639C19.903,37.639 10.646,41.269 7.199,43.993L3.75,46.714L13.914,49.619C13.914,49.619 9.558,54.882 8.288,56.515C7.019,58.149 6.473,59.419 6.473,59.419L15.003,59.419C15.003,59.419 14.866,59.635 14.64,60.003L14.637,60.006C14.197,60.724 13.42,62.023 12.647,63.459L12.563,63.615C12.469,63.791 12.376,63.969 12.282,64.149C12.248,64.215 12.214,64.281 12.179,64.347C12.086,64.529 11.996,64.71 11.906,64.891C11.878,64.947 11.849,65.002 11.822,65.059C11.708,65.293 11.595,65.528 11.488,65.76C11.474,65.79 11.461,65.819 11.447,65.849C11.357,66.046 11.271,66.241 11.189,66.433C11.157,66.505 11.129,66.577 11.099,66.649C11.036,66.798 10.977,66.945 10.921,67.09C10.891,67.167 10.862,67.243 10.834,67.318C10.781,67.462 10.733,67.601 10.687,67.738C10.666,67.804 10.643,67.87 10.622,67.933C10.562,68.127 10.508,68.316 10.466,68.494C9.83,71.192 9.89,73.476 9.915,74.005C9.919,74.08 9.922,74.12 9.922,74.12C9.922,74.12 10.313,73.964 11.031,73.725C11.339,73.623 11.708,73.505 12.131,73.378C15.239,72.451 21.321,71.024 28.433,71.398C33.645,71.672 37.885,73.512 41.324,75.479C41.815,75.76 42.29,76.044 42.749,76.326C45.454,77.989 47.611,79.597 49.304,80.29C49.319,80.296 49.332,80.3 49.346,80.307C49.652,80.431 49.937,80.54 50.213,80.642C50.297,80.673 50.379,80.703 50.46,80.731C50.699,80.817 50.928,80.896 51.145,80.966C51.182,80.977 51.223,80.992 51.26,81.003C51.506,81.082 51.735,81.148 51.952,81.207C52.012,81.223 52.069,81.238 52.127,81.253C52.301,81.298 52.466,81.338 52.619,81.373C52.657,81.38 52.696,81.391 52.732,81.398C52.916,81.437 53.084,81.469 53.241,81.495C53.271,81.499 53.299,81.503 53.329,81.508C53.463,81.529 53.59,81.545 53.705,81.558C53.723,81.559 53.742,81.562 53.76,81.563C54.032,81.591 54.241,81.596 54.396,81.592C54.552,81.596 54.763,81.591 55.035,81.563C55.052,81.562 55.068,81.56 55.085,81.558C55.202,81.545 55.331,81.529 55.47,81.507C55.496,81.502 55.521,81.499 55.549,81.495C55.707,81.469 55.879,81.437 56.066,81.397C56.096,81.391 56.13,81.382 56.162,81.375C56.323,81.34 56.495,81.298 56.676,81.25C56.729,81.237 56.78,81.223 56.834,81.209C57.056,81.148 57.289,81.081 57.54,81.001C57.567,80.993 57.597,80.982 57.625,80.973C57.852,80.901 58.094,80.818 58.345,80.728C58.419,80.701 58.493,80.674 58.569,80.647C58.862,80.538 59.164,80.423 59.489,80.29C59.988,80.086 60.527,79.802 61.108,79.462C62.124,78.865 63.27,78.092 64.558,77.261C68.424,74.77 73.571,71.755 80.36,71.398C87.472,71.024 93.554,72.451 96.662,73.378C97.085,73.505 97.454,73.623 97.762,73.725C98.48,73.964 98.871,74.12 98.871,74.12C98.871,74.12 98.878,74.031 98.883,73.865C98.907,73.148 98.917,70.999 98.328,68.494C98.285,68.312 98.23,68.119 98.167,67.921C98.151,67.872 98.134,67.821 98.117,67.771C98.067,67.619 98.013,67.463 97.954,67.303C97.929,67.239 97.905,67.174 97.88,67.109C97.819,66.95 97.754,66.789 97.685,66.625C97.66,66.565 97.636,66.505 97.61,66.444C97.52,66.234 97.425,66.021 97.326,65.805C97.32,65.792 97.315,65.781 97.309,65.768C97.2,65.531 97.085,65.292 96.968,65.053C96.945,65.005 96.921,64.959 96.897,64.912C96.803,64.721 96.709,64.531 96.611,64.343C96.578,64.279 96.545,64.216 96.512,64.153C96.42,63.973 96.326,63.796 96.233,63.621C96.203,63.565 96.173,63.508 96.143,63.453C96.028,63.24 95.914,63.031 95.801,62.825L95.783,62.792C95.527,62.332 95.279,61.899 95.048,61.501C95.034,61.477 95.021,61.454 95.007,61.431C94.906,61.258 94.81,61.093 94.717,60.938C94.704,60.916 94.691,60.893 94.677,60.871C94.477,60.534 94.298,60.238 94.155,60.006L94.154,60.005C93.927,59.635 93.79,59.419 93.79,59.419L102.32,59.419C102.32,59.419 101.775,58.149 100.505,56.515" style="fill:rgb(27,0,0);fill-opacity:0.2;"/>
    </g>
    <g transform="matrix(1,0,0,1,0,12)">
        <path d="M75.431,7.072C79.104,7.072 82.083,10.121 82.083,13.881C82.083,15.982 81.153,17.859 79.692,19.108C80.256,20.017 80.773,20.927 81.254,21.823C81.279,21.868 81.304,21.914 81.329,21.96C81.333,21.966 81.336,21.974 81.339,21.98C81.489,22.264 81.634,22.555 81.774,22.849C85.792,20.953 88.588,16.805 88.588,11.978C88.588,5.363 83.347,0 76.882,0C72.002,0 67.822,3.058 66.066,7.401C67.627,8.023 69.041,8.734 70.325,9.518C71.545,8.024 73.379,7.072 75.431,7.072" style="fill:rgb(184,94,38);fill-rule:nonzero;"/>
    </g>
    <g transform="matrix(1,0,0,1,0,12)">
        <path d="M82.083,13.881C82.083,10.121 79.104,7.073 75.431,7.073C73.379,7.073 71.545,8.024 70.325,9.518C74.665,12.17 77.535,15.633 79.692,19.108C81.153,17.859 82.083,15.982 82.083,13.881" style="fill:white;fill-rule:nonzero;"/>
    </g>
    <g transform="matrix(1,0,0,1,0,12)">
        <path d="M19.964,21.96C19.992,21.907 20.022,21.854 20.05,21.801L20.051,21.801C20.528,20.913 21.042,20.01 21.602,19.107C20.14,17.859 19.209,15.981 19.209,13.881C19.209,10.121 22.188,7.072 25.862,7.072C27.915,7.072 29.748,8.024 30.968,9.518C32.252,8.733 33.667,8.022 35.229,7.401C33.471,3.058 29.292,0 24.411,0C17.946,0 12.705,5.363 12.705,11.978C12.705,16.804 15.5,20.952 19.519,22.85C19.659,22.554 19.803,22.263 19.954,21.98C19.957,21.974 19.96,21.966 19.964,21.96" style="fill:rgb(184,94,38);fill-rule:nonzero;"/>
    </g>
    <g transform="matrix(1,0,0,1,0,12)">
        <path d="M25.862,7.072C22.189,7.072 19.21,10.121 19.21,13.881C19.21,15.982 20.14,17.859 21.601,19.108C23.758,15.633 26.628,12.17 30.968,9.518C29.748,8.024 27.914,7.072 25.862,7.072" style="fill:white;fill-rule:nonzero;"/>
    </g>
    <g transform="matrix(1,0,0,1,0,12)">
        <path d="M93.147,62.662C93.171,62.708 93.195,62.756 93.218,62.802C93.195,62.756 93.171,62.708 93.147,62.662" style="fill:rgb(255,172,69);fill-rule:nonzero;"/>
    </g>
    <g transform="matrix(1,0,0,1,0,12)">
        <path d="M93.559,63.518C93.565,63.531 93.57,63.542 93.576,63.555C93.57,63.542 93.565,63.531 93.559,63.518" style="fill:rgb(255,172,69);fill-rule:nonzero;"/>
    </g>
    <g transform="matrix(1,0,0,1,0,12)">
        <path d="M92.762,61.902C92.795,61.965 92.828,62.029 92.861,62.093C92.828,62.029 92.795,61.966 92.762,61.902" style="fill:rgb(255,172,69);fill-rule:nonzero;"/>
    </g>
    <g transform="matrix(1,0,0,1,0,12)">
        <path d="M93.859,64.194C93.886,64.255 93.91,64.315 93.936,64.375C93.91,64.315 93.886,64.255 93.859,64.194" style="fill:rgb(255,172,69);fill-rule:nonzero;"/>
    </g>
    <g transform="matrix(1,0,0,1,0,12)">
        <path d="M94.13,64.859C94.155,64.924 94.179,64.989 94.204,65.053C94.179,64.988 94.155,64.924 94.13,64.859" style="fill:rgb(255,172,69);fill-rule:nonzero;"/>
    </g>
    <g transform="matrix(1,0,0,1,0,12)">
        <path d="M90.927,58.621C90.941,58.643 90.954,58.666 90.967,58.689C90.954,58.666 90.941,58.643 90.927,58.621" style="fill:rgb(255,172,69);fill-rule:nonzero;"/>
    </g>
    <g transform="matrix(1,0,0,1,0,12)">
        <path d="M92.033,60.542L92.05,60.575L92.033,60.542Z" style="fill:rgb(255,172,69);fill-rule:nonzero;"/>
    </g>
    <g transform="matrix(1,0,0,1,0,12)">
        <path d="M92.393,61.203C92.423,61.258 92.452,61.315 92.482,61.371C92.452,61.314 92.423,61.258 92.393,61.203" style="fill:rgb(255,172,69);fill-rule:nonzero;"/>
    </g>
    <g transform="matrix(1,0,0,1,0,12)">
        <path d="M91.257,59.181C91.271,59.204 91.284,59.227 91.298,59.251C91.284,59.227 91.271,59.204 91.257,59.181" style="fill:rgb(255,172,69);fill-rule:nonzero;"/>
    </g>
    <g transform="matrix(1,0,0,1,0,12)">
        <path d="M94.368,65.521C94.383,65.571 94.401,65.622 94.416,65.67C94.401,65.622 94.383,65.571 94.368,65.521" style="fill:rgb(255,172,69);fill-rule:nonzero;"/>
    </g>
    <g transform="matrix(1,0,0,1,0,12)">
        <path d="M55.469,4.827C55.669,4.846 55.868,4.867 56.076,4.891C55.867,4.867 55.67,4.846 55.469,4.827" style="fill:rgb(255,172,69);fill-rule:nonzero;"/>
    </g>
    <g transform="matrix(1,0,0,1,0,12)">
        <path d="M76.61,69.147C67.558,69.624 61.424,74.824 57.358,77.211C61.424,74.824 67.558,69.624 76.61,69.148C83.722,68.774 89.805,70.2 92.911,71.129C89.805,70.2 83.722,68.773 76.61,69.147" style="fill:rgb(255,172,69);fill-rule:nonzero;"/>
    </g>
    <g transform="matrix(1,0,0,1,0,12)">
        <path d="M56.302,4.919C56.718,4.969 57.15,5.03 57.599,5.1C57.15,5.03 56.718,4.969 56.302,4.919" style="fill:rgb(255,172,69);fill-rule:nonzero;"/>
    </g>
    <g transform="matrix(1,0,0,1,0,12)">
        <path d="M54.541,4.746C54.727,4.76 54.922,4.776 55.119,4.793C54.921,4.776 54.729,4.76 54.541,4.746" style="fill:rgb(255,172,69);fill-rule:nonzero;"/>
    </g>
    <g transform="matrix(1,0,0,1,0,12)">
        <path d="M98.57,57.169C98.57,57.169 98.025,55.899 96.755,54.265C95.485,52.632 91.129,47.369 91.129,47.369L101.293,44.464L97.843,41.743C94.396,39.019 85.14,35.389 85.14,35.389C85.14,35.389 85.046,34.564 84.823,33.267C83.388,34.125 81.407,34.718 80.415,35.205C78.93,35.932 77.357,36.516 75.845,37.131C75.882,35.563 78.336,33.109 79.214,31.81C80.294,30.22 81.558,28.67 82.744,27.189C82.882,27.016 83.042,26.783 83.219,26.575C84.022,29.09 84.529,31.563 84.819,33.247C84.482,31.285 83.849,28.252 82.799,25.333C81.629,26.025 80.093,26.508 79.06,27.01C77.74,27.652 75.97,28.718 74.508,28.777C74.668,27.699 79.533,22.862 81.242,21.802C81.245,21.809 81.25,21.815 81.253,21.823C80.773,20.927 80.255,20.017 79.691,19.108C77.535,15.633 74.666,12.169 70.325,9.518C69.041,8.734 67.627,8.023 66.065,7.402C65.948,7.355 65.84,7.304 65.721,7.258C63.359,6.354 61.13,5.763 59.13,5.371C59.375,5.419 59.619,5.467 59.871,5.521C59.595,8.533 58.766,11.474 58.007,14.404C57.387,16.796 56.86,19.415 55.736,21.614C54.737,17.574 54.225,13.33 53.667,9.19C53.477,7.78 53.343,6.176 53.099,4.669C53.471,4.681 53.881,4.701 54.315,4.73C52.523,4.61 51.228,4.654 50.647,4.691C50.066,4.654 48.773,4.61 46.982,4.73C47.415,4.701 47.823,4.681 48.194,4.669C47.95,6.176 47.816,7.78 47.626,9.19C47.068,13.33 46.556,17.574 45.557,21.614C44.433,19.415 43.906,16.796 43.286,14.404C42.527,11.474 41.698,8.533 41.422,5.521C41.673,5.467 41.916,5.419 42.16,5.371C40.16,5.764 37.933,6.354 35.572,7.258C35.453,7.304 35.345,7.355 35.228,7.402C33.667,8.023 32.252,8.734 30.967,9.518C26.627,12.169 23.758,15.633 21.602,19.108C21.042,20.011 20.527,20.912 20.051,21.802C21.761,22.863 26.625,27.699 26.784,28.777C25.323,28.718 23.554,27.652 22.233,27.01C21.2,26.508 19.664,26.025 18.494,25.333C18.346,25.747 18.206,26.161 18.074,26.576C18.25,26.783 18.41,27.016 18.55,27.189C19.735,28.67 20.999,30.22 22.079,31.81C22.958,33.109 25.411,35.563 25.448,37.131C23.936,36.516 22.364,35.932 20.878,35.205C19.885,34.718 17.905,34.125 16.471,33.267C16.759,31.591 17.264,29.125 18.061,26.616C16.645,31.068 16.153,35.389 16.153,35.389C16.153,35.389 6.897,39.019 3.449,41.743L0,44.464L10.164,47.369C10.164,47.369 5.808,52.632 4.538,54.265C3.269,55.899 2.723,57.169 2.723,57.169L11.253,57.169C11.253,57.169 11.117,57.385 10.89,57.753C19.313,48.126 37.149,46.693 50.647,47.248C64.145,46.693 81.983,48.126 90.404,57.755C90.178,57.385 90.04,57.169 90.04,57.169L98.57,57.169Z" style="fill:rgb(230,122,37);fill-rule:nonzero;"/>
    </g>
    <g transform="matrix(1,0,0,1,0,12)">
        <path d="M82.123,23.619C82.364,24.179 82.589,24.753 82.797,25.331C82.589,24.753 82.364,24.179 82.123,23.619" style="fill:rgb(255,172,69);fill-rule:nonzero;"/>
    </g>
    <g transform="matrix(1,0,0,1,0,12)">
        <path d="M55.739,78.04C55.413,78.173 55.111,78.288 54.819,78.397C55.111,78.288 55.413,78.173 55.739,78.04" style="fill:rgb(255,172,69);fill-rule:nonzero;"/>
    </g>
    <g transform="matrix(1,0,0,1,0,12)">
        <path d="M58.018,5.167C58.247,5.206 58.48,5.246 58.718,5.291C58.48,5.246 58.248,5.206 58.018,5.167" style="fill:rgb(255,172,69);fill-rule:nonzero;"/>
    </g>
    <g transform="matrix(1,0,0,1,0,12)">
        <path d="M54.595,78.478C54.344,78.568 54.102,78.65 53.875,78.723C54.102,78.65 54.343,78.568 54.595,78.478" style="fill:rgb(255,172,69);fill-rule:nonzero;"/>
    </g>
    <g transform="matrix(1,0,0,1,0,12)">
        <path d="M53.79,78.752C53.539,78.83 53.306,78.898 53.085,78.959C53.306,78.898 53.539,78.83 53.79,78.752" style="fill:rgb(255,172,69);fill-rule:nonzero;"/>
    </g>
    <g transform="matrix(1,0,0,1,0,12)">
        <path d="M94.012,71.475C93.703,71.372 93.335,71.255 92.911,71.129C93.335,71.255 93.703,71.372 94.012,71.475" style="fill:rgb(255,172,69);fill-rule:nonzero;"/>
    </g>
    <g transform="matrix(1,0,0,1,0,12)">
        <path d="M52.316,79.147C52.129,79.187 51.956,79.219 51.799,79.245C51.957,79.219 52.129,79.187 52.316,79.147" style="fill:rgb(255,172,69);fill-rule:nonzero;"/>
    </g>
    <g transform="matrix(1,0,0,1,0,12)">
        <path d="M52.926,79.001C52.745,79.047 52.572,79.089 52.412,79.125C52.572,79.089 52.744,79.047 52.926,79.001" style="fill:rgb(255,172,69);fill-rule:nonzero;"/>
    </g>
    <g transform="matrix(1,0,0,1,0,12)">
        <path d="M51.72,79.257C51.581,79.278 51.452,79.295 51.335,79.307C51.452,79.295 51.581,79.278 51.72,79.257" style="fill:rgb(255,172,69);fill-rule:nonzero;"/>
    </g>
    <g transform="matrix(1,0,0,1,0,12)">
        <path d="M82.113,23.596C82.003,23.344 81.89,23.096 81.774,22.85C81.633,22.554 81.489,22.264 81.339,21.98C81.615,22.499 81.873,23.04 82.113,23.596" style="fill:rgb(255,172,69);fill-rule:nonzero;"/>
    </g>
    <g transform="matrix(1,0,0,1,0,12)">
        <path d="M8.813,61.365L8.897,61.209L8.813,61.365Z" style="fill:rgb(255,172,69);fill-rule:nonzero;"/>
    </g>
    <g transform="matrix(1,0,0,1,0,12)">
        <path d="M18.495,25.331C18.703,24.753 18.928,24.179 19.17,23.62C18.928,24.179 18.704,24.753 18.495,25.331" style="fill:rgb(255,172,69);fill-rule:nonzero;"/>
    </g>
    <g transform="matrix(1,0,0,1,0,12)">
        <path d="M7.697,63.599C7.711,63.569 7.723,63.54 7.738,63.51C7.723,63.54 7.711,63.569 7.697,63.599" style="fill:rgb(255,172,69);fill-rule:nonzero;"/>
    </g>
    <g transform="matrix(1,0,0,1,0,12)">
        <path d="M8.43,62.097C8.464,62.03 8.499,61.964 8.532,61.898C8.498,61.964 8.464,62.03 8.43,62.097" style="fill:rgb(255,172,69);fill-rule:nonzero;"/>
    </g>
    <g transform="matrix(1,0,0,1,0,12)">
        <path d="M8.072,62.808C8.099,62.753 8.128,62.697 8.155,62.641C8.128,62.697 8.099,62.753 8.072,62.808" style="fill:rgb(255,172,69);fill-rule:nonzero;"/>
    </g>
    <g transform="matrix(1,0,0,1,0,12)">
        <path d="M42.577,5.291C42.813,5.246 43.045,5.206 43.275,5.167C43.045,5.206 42.813,5.246 42.577,5.291" style="fill:rgb(255,172,69);fill-rule:nonzero;"/>
    </g>
    <g transform="matrix(1,0,0,1,0,12)">
        <path d="M7.349,64.398C7.379,64.326 7.407,64.255 7.439,64.182C7.407,64.256 7.379,64.326 7.349,64.398" style="fill:rgb(255,172,69);fill-rule:nonzero;"/>
    </g>
    <g transform="matrix(1,0,0,1,0,12)">
        <path d="M45.218,4.891C45.425,4.867 45.622,4.847 45.82,4.828C45.622,4.846 45.425,4.867 45.218,4.891" style="fill:rgb(255,172,69);fill-rule:nonzero;"/>
    </g>
    <g transform="matrix(1,0,0,1,0,12)">
        <path d="M43.699,5.099C44.134,5.032 44.554,4.973 44.959,4.924C44.554,4.973 44.134,5.032 43.699,5.099" style="fill:rgb(255,172,69);fill-rule:nonzero;"/>
    </g>
    <g transform="matrix(1,0,0,1,0,12)">
        <path d="M46.177,4.793C46.372,4.776 46.565,4.759 46.75,4.746C46.564,4.759 46.374,4.776 46.177,4.793" style="fill:rgb(255,172,69);fill-rule:nonzero;"/>
    </g>
    <g transform="matrix(1,0,0,1,0,12)">
        <path d="M8.381,71.129C11.489,70.201 17.571,68.774 24.683,69.148C30.64,69.461 35.327,71.819 38.999,74.076C35.327,71.819 30.64,69.46 24.683,69.146C17.571,68.773 11.489,70.201 8.381,71.129" style="fill:rgb(255,172,69);fill-rule:nonzero;"/>
    </g>
    <g transform="matrix(1,0,0,1,0,12)">
        <path d="M46.463,78.392C46.188,78.29 45.902,78.181 45.597,78.057C45.902,78.181 46.188,78.29 46.463,78.392" style="fill:rgb(255,172,69);fill-rule:nonzero;"/>
    </g>
    <g transform="matrix(1,0,0,1,0,12)">
        <path d="M6.872,65.682C6.892,65.619 6.916,65.553 6.937,65.488C6.916,65.553 6.892,65.619 6.872,65.682" style="fill:rgb(255,172,69);fill-rule:nonzero;"/>
    </g>
    <g transform="matrix(1,0,0,1,0,12)">
        <path d="M8.381,71.129C7.958,71.255 7.589,71.372 7.281,71.475C7.589,71.372 7.958,71.255 8.381,71.129" style="fill:rgb(255,172,69);fill-rule:nonzero;"/>
    </g>
    <g transform="matrix(1,0,0,1,0,12)">
        <path d="M48.87,79.122C48.716,79.088 48.55,79.047 48.377,79.003C48.55,79.048 48.715,79.088 48.87,79.122" style="fill:rgb(255,172,69);fill-rule:nonzero;"/>
    </g>
    <g transform="matrix(1,0,0,1,0,12)">
        <path d="M47.394,78.716C47.178,78.646 46.949,78.567 46.71,78.482C46.949,78.567 47.178,78.645 47.394,78.716" style="fill:rgb(255,172,69);fill-rule:nonzero;"/>
    </g>
    <g transform="matrix(1,0,0,1,0,12)">
        <path d="M48.202,78.957C47.985,78.898 47.755,78.832 47.509,78.754C47.756,78.832 47.985,78.898 48.202,78.957" style="fill:rgb(255,172,69);fill-rule:nonzero;"/>
    </g>
    <g transform="matrix(1,0,0,1,0,12)">
        <path d="M7.084,65.069C7.112,64.993 7.14,64.917 7.17,64.84C7.14,64.917 7.112,64.993 7.084,65.069" style="fill:rgb(255,172,69);fill-rule:nonzero;"/>
    </g>
    <g transform="matrix(1,0,0,1,0,12)">
        <path d="M49.491,79.245C49.335,79.219 49.165,79.187 48.981,79.148C49.165,79.188 49.335,79.219 49.491,79.245" style="fill:rgb(255,172,69);fill-rule:nonzero;"/>
    </g>
    <g transform="matrix(1,0,0,1,0,12)">
        <path d="M49.954,79.308C49.84,79.295 49.714,79.278 49.579,79.258C49.714,79.278 49.84,79.295 49.954,79.308" style="fill:rgb(255,172,69);fill-rule:nonzero;"/>
    </g>
    <g transform="matrix(1,0,0,1,0,12)">
        <path d="M19.954,21.98C19.804,22.264 19.659,22.555 19.519,22.849C19.403,23.095 19.289,23.344 19.18,23.596C19.42,23.04 19.678,22.499 19.954,21.98" style="fill:rgb(255,172,69);fill-rule:nonzero;"/>
    </g>
    <g transform="matrix(1,0,0,1,0,12)">
        <path d="M50.646,79.342C50.492,79.346 50.28,79.341 50.01,79.314C50.282,79.341 50.491,79.347 50.646,79.342C50.802,79.347 51.012,79.341 51.285,79.314C51.014,79.341 50.802,79.346 50.646,79.342" style="fill:rgb(255,172,69);fill-rule:nonzero;"/>
    </g>
    <g transform="matrix(1,0,0,1,0,12)">
        <path d="M50.646,68.9C46.663,74.908 39.963,71.989 35.743,67.28C35.943,67.078 41.393,71.772 45.35,71.233C47.213,70.975 48.788,69.738 50.034,67.554L50.035,58.454C48.928,57.879 47.537,57.071 45.917,55.927C40.632,52.198 40.545,48.54 50.646,48.646C60.747,48.54 60.66,52.198 55.375,55.927C53.756,57.07 52.366,57.878 51.259,58.452L51.259,67.554C52.506,69.738 54.08,70.975 55.943,71.233C59.9,71.772 65.35,67.078 65.55,67.28C61.33,71.989 54.63,74.908 50.646,68.9M50.646,47.249C37.149,46.694 19.314,48.126 10.89,57.753L10.887,57.756C10.446,58.474 9.669,59.772 8.897,61.209L8.814,61.365C8.719,61.541 8.626,61.719 8.532,61.899C8.499,61.965 8.464,62.031 8.43,62.097C8.337,62.279 8.246,62.46 8.156,62.641C8.128,62.697 8.1,62.753 8.072,62.808C7.957,63.043 7.845,63.278 7.737,63.51C7.724,63.54 7.711,63.57 7.697,63.6C7.607,63.796 7.521,63.99 7.439,64.182C7.407,64.255 7.379,64.326 7.349,64.398C7.287,64.548 7.227,64.695 7.17,64.84C7.14,64.917 7.112,64.993 7.084,65.069C7.031,65.212 6.982,65.352 6.937,65.488C6.915,65.553 6.892,65.619 6.873,65.682C6.812,65.877 6.757,66.066 6.716,66.243C6.08,68.943 6.14,71.226 6.165,71.755C6.168,71.83 6.171,71.87 6.171,71.87C6.171,71.87 6.563,71.714 7.281,71.475C7.59,71.373 7.958,71.256 8.381,71.129C11.488,70.2 17.571,68.773 24.683,69.147C30.639,69.46 35.326,71.82 38.999,74.076C41.703,75.739 43.86,77.347 45.554,78.04C45.569,78.045 45.582,78.05 45.597,78.057C45.902,78.18 46.188,78.291 46.463,78.392C46.547,78.423 46.629,78.453 46.71,78.481C46.949,78.567 47.178,78.646 47.394,78.716C47.432,78.728 47.473,78.742 47.509,78.753C47.756,78.831 47.985,78.897 48.201,78.957C48.261,78.973 48.318,78.987 48.377,79.003C48.55,79.047 48.716,79.088 48.87,79.122C48.907,79.131 48.945,79.14 48.981,79.148C49.165,79.187 49.335,79.219 49.491,79.245C49.521,79.249 49.548,79.254 49.578,79.258C49.713,79.278 49.84,79.295 49.954,79.308C49.973,79.309 49.992,79.312 50.01,79.314C50.28,79.341 50.492,79.346 50.646,79.342C50.802,79.346 51.014,79.341 51.285,79.314C51.301,79.312 51.318,79.31 51.335,79.308C51.452,79.295 51.581,79.278 51.72,79.257C51.747,79.253 51.771,79.249 51.798,79.245C51.957,79.219 52.129,79.187 52.316,79.147C52.347,79.14 52.38,79.132 52.412,79.125C52.572,79.089 52.745,79.047 52.926,79.001C52.978,78.987 53.03,78.974 53.085,78.959C53.306,78.898 53.538,78.831 53.79,78.752C53.817,78.743 53.847,78.732 53.875,78.723C54.102,78.651 54.344,78.568 54.595,78.478C54.669,78.45 54.743,78.424 54.819,78.396C55.111,78.288 55.413,78.173 55.739,78.04C56.238,77.835 56.777,77.552 57.357,77.211C61.424,74.824 67.558,69.624 76.61,69.147C83.722,68.773 89.805,70.2 92.912,71.129C93.335,71.256 93.703,71.373 94.011,71.475C94.73,71.714 95.121,71.87 95.121,71.87C95.121,71.87 95.128,71.781 95.133,71.615C95.157,70.898 95.166,68.75 94.578,66.243C94.536,66.063 94.479,65.869 94.416,65.67C94.401,65.622 94.383,65.571 94.368,65.521C94.317,65.369 94.263,65.213 94.203,65.052C94.179,64.989 94.155,64.923 94.13,64.859C94.068,64.7 94.004,64.539 93.936,64.375C93.91,64.315 93.885,64.255 93.859,64.194C93.769,63.984 93.675,63.771 93.576,63.555C93.57,63.542 93.565,63.531 93.559,63.518C93.45,63.281 93.335,63.042 93.218,62.802C93.195,62.756 93.171,62.709 93.147,62.662C93.054,62.472 92.958,62.282 92.861,62.093C92.828,62.029 92.795,61.965 92.762,61.902C92.67,61.724 92.576,61.546 92.482,61.371C92.452,61.315 92.423,61.259 92.393,61.203C92.278,60.99 92.163,60.78 92.05,60.575L92.033,60.542C91.777,60.082 91.53,59.649 91.298,59.251C91.284,59.227 91.271,59.204 91.257,59.181C91.156,59.008 91.06,58.844 90.967,58.689C90.954,58.665 90.941,58.643 90.927,58.621C90.726,58.284 90.547,57.987 90.405,57.756C81.983,48.126 64.145,46.694 50.646,47.249" style="fill:white;fill-rule:nonzero;"/>
    </g>
    <g transform="matrix(1,0,0,1,0,12)">
        <path d="M82.744,27.189C81.558,28.67 80.293,30.22 79.215,31.811C78.336,33.109 75.882,35.564 75.846,37.131C77.357,36.516 78.93,35.931 80.415,35.205C81.408,34.718 83.388,34.125 84.822,33.267C84.822,33.261 84.821,33.254 84.819,33.248C84.529,31.563 84.021,29.09 83.219,26.576C83.042,26.783 82.883,27.017 82.744,27.189" style="fill-rule:nonzero;"/>
    </g>
    <g transform="matrix(1,0,0,1,0,12)">
        <path d="M81.339,21.98C81.336,21.973 81.333,21.966 81.329,21.96C81.304,21.914 81.279,21.868 81.254,21.823C81.25,21.815 81.246,21.808 81.242,21.802C79.533,22.862 74.667,27.699 74.508,28.777C75.97,28.718 77.739,27.652 79.06,27.01C80.094,26.508 81.63,26.025 82.798,25.333C82.798,25.333 82.797,25.332 82.797,25.331C82.59,24.752 82.365,24.179 82.123,23.62C82.119,23.611 82.116,23.604 82.113,23.596C81.873,23.04 81.615,22.499 81.339,21.98" style="fill-rule:nonzero;"/>
    </g>
    <g transform="matrix(1,0,0,1,0,12)">
        <path d="M53.667,9.191C54.225,13.331 54.737,17.574 55.735,21.614C56.86,19.415 57.387,16.796 58.006,14.404C58.766,11.474 59.595,8.533 59.871,5.521C59.62,5.467 59.374,5.419 59.13,5.371C58.992,5.343 58.853,5.316 58.717,5.291C58.48,5.246 58.246,5.206 58.018,5.167C57.875,5.144 57.737,5.122 57.598,5.1C57.151,5.03 56.717,4.97 56.302,4.919C56.227,4.91 56.149,4.899 56.076,4.891C55.868,4.866 55.669,4.847 55.469,4.827C55.351,4.815 55.234,4.803 55.119,4.793C54.922,4.775 54.727,4.76 54.541,4.745C54.463,4.739 54.391,4.736 54.315,4.73C53.881,4.701 53.471,4.68 53.098,4.669C53.343,6.176 53.476,7.78 53.667,9.191" style="fill-rule:nonzero;"/>
    </g>
    <g transform="matrix(1,0,0,1,0,12)">
        <path d="M20.878,35.205C22.363,35.932 23.936,36.516 25.448,37.131C25.411,35.564 22.957,33.109 22.079,31.811C20.999,30.22 19.735,28.67 18.55,27.189C18.41,27.016 18.25,26.783 18.074,26.576L18.074,26.575C18.069,26.589 18.065,26.602 18.061,26.616C17.264,29.126 16.759,31.591 16.471,33.267C17.905,34.126 19.885,34.719 20.878,35.205" style="fill-rule:nonzero;"/>
    </g>
    <g transform="matrix(1,0,0,1,0,12)">
        <path d="M26.784,28.777C26.625,27.699 21.761,22.863 20.051,21.801L20.05,21.801C20.022,21.855 19.991,21.907 19.964,21.96C19.96,21.966 19.957,21.974 19.955,21.98C19.678,22.5 19.421,23.04 19.18,23.596C19.176,23.604 19.174,23.611 19.17,23.619C18.928,24.179 18.704,24.753 18.495,25.331C18.495,25.332 18.494,25.332 18.494,25.333C19.664,26.025 21.2,26.508 22.233,27.011C23.553,27.652 25.323,28.719 26.784,28.777" style="fill-rule:nonzero;"/>
    </g>
    <g transform="matrix(1,0,0,1,0,12)">
        <path d="M43.286,14.404C43.906,16.796 44.433,19.416 45.557,21.614C46.556,17.574 47.068,13.33 47.626,9.191C47.816,7.78 47.95,6.176 48.194,4.669C47.823,4.68 47.415,4.701 46.982,4.731C46.904,4.735 46.83,4.74 46.75,4.746C46.565,4.76 46.372,4.776 46.177,4.794C46.06,4.803 45.94,4.815 45.82,4.827C45.622,4.848 45.425,4.866 45.218,4.89C45.134,4.9 45.045,4.913 44.959,4.923C44.554,4.973 44.134,5.032 43.699,5.1C43.558,5.121 43.418,5.143 43.274,5.168C43.046,5.205 42.813,5.247 42.578,5.291C42.44,5.316 42.3,5.344 42.16,5.371C41.916,5.42 41.673,5.467 41.422,5.521C41.698,8.533 42.527,11.475 43.286,14.404" style="fill-rule:nonzero;"/>
    </g>
    <g transform="matrix(1,0,0,1,0,12)">
        <path d="M55.943,71.233C54.08,70.975 52.505,69.738 51.26,67.555L51.26,58.453C51.05,58.561 50.833,58.677 50.646,58.768C50.459,58.677 50.243,58.562 50.035,58.454L50.033,67.555C48.788,69.738 47.213,70.975 45.35,71.233C41.393,71.773 35.942,67.078 35.743,67.28C39.962,71.989 46.664,74.908 50.646,68.9C54.629,74.908 61.331,71.989 65.55,67.28C65.351,67.078 59.9,71.773 55.943,71.233" style="fill-rule:nonzero;"/>
    </g>
    <g transform="matrix(1,0,0,1,0,12)">
        <path d="M50.646,58.768C50.832,58.677 51.05,58.562 51.259,58.453C52.366,57.878 53.756,57.07 55.375,55.927C60.66,52.198 60.747,48.54 50.646,48.646C40.545,48.54 40.632,52.198 45.917,55.927C47.537,57.07 48.928,57.879 50.035,58.454C50.243,58.563 50.46,58.677 50.646,58.768" style="fill:rgb(214,90,111);fill-rule:nonzero;"/>
    </g>
    <g transform="matrix(1,0,0,1,0,12)">
        <path d="M32.252,36.09C32.548,34.603 33.993,33.636 35.48,33.932C36.97,34.228 37.937,35.673 37.64,37.162C37.601,37.353 37.544,37.533 37.472,37.704C37.127,37.239 36.583,36.882 35.805,36.727C34.403,36.45 33.254,37.046 32.543,37.954C32.238,37.407 32.118,36.752 32.252,36.09M34.097,40.892C36.453,41.361 38.742,39.831 39.212,37.476C39.68,35.118 38.15,32.83 35.794,32.361C33.438,31.891 31.15,33.421 30.68,35.778C30.211,38.133 31.74,40.423 34.097,40.892" style="fill:white;fill-rule:nonzero;"/>
    </g>
    <g transform="matrix(1,0,0,1,0,12)">
        <path d="M35.805,36.727C36.583,36.882 37.127,37.24 37.473,37.704C37.544,37.532 37.602,37.352 37.639,37.162C37.937,35.674 36.97,34.228 35.48,33.932C33.993,33.636 32.547,34.603 32.252,36.09C32.118,36.752 32.238,37.406 32.543,37.955C33.254,37.046 34.404,36.45 35.805,36.727" style="fill-rule:nonzero;"/>
    </g>
    <g transform="matrix(1,0,0,1,0,12)">
        <path d="M66.599,37.954C65.889,37.046 64.739,36.45 63.337,36.727C62.559,36.882 62.016,37.24 61.67,37.704C61.598,37.533 61.541,37.352 61.503,37.162C61.206,35.674 62.173,34.228 63.662,33.932C65.149,33.636 66.595,34.603 66.891,36.091C67.024,36.751 66.904,37.407 66.599,37.954M68.462,35.778C67.992,33.421 65.705,31.891 63.349,32.361C60.992,32.83 59.462,35.119 59.93,37.475C60.4,39.832 62.69,41.361 65.045,40.892C67.402,40.423 68.931,38.133 68.462,35.778" style="fill:white;fill-rule:nonzero;"/>
    </g>
    <g transform="matrix(1,0,0,1,0,12)">
        <path d="M63.337,36.727C62.559,36.882 62.016,37.24 61.67,37.704C61.599,37.532 61.541,37.352 61.503,37.162C61.206,35.674 62.172,34.228 63.663,33.932C65.149,33.636 66.595,34.603 66.891,36.09C67.024,36.752 66.904,37.406 66.6,37.955C65.889,37.046 64.739,36.45 63.337,36.727" style="fill-rule:nonzero;"/>
    </g>
</svg>
