<?xml version="1.0" encoding="UTF-8" standalone="no"?><!DOCTYPE svg PUBLIC "-//W3C//DTD SVG 1.1//EN" "http://www.w3.org/Graphics/SVG/1.1/DTD/svg11.dtd"><svg width="100%" height="100%" viewBox="0 0 161 273" version="1.1" xmlns="http://www.w3.org/2000/svg" xmlns:xlink="http://www.w3.org/1999/xlink" xml:space="preserve" style="fill-rule:evenodd;clip-rule:evenodd;stroke-linejoin:round;stroke-miterlimit:1.41421;"><path d="M118.326,126.054c-0.085,-5.846 -3.241,-14.228 -7.622,-18.097c-24.9,-21.975 -47.103,-10.206 -58.244,-1.1c-4.522,3.697 -8.369,12.051 -9.088,17.857c-8.531,68.631 14.663,118.184 30.091,143.797c3.025,4.996 8.966,5.518 12.469,0.846c31.831,-42.481 32.815,-114.875 32.394,-143.303Z" style="fill:#f2675e;fill-rule:nonzero;"/><path d="M108.404,74.417c-3.913,0 -7.103,-3.184 -7.103,-7.106c0,-3.91 3.187,-7.107 7.103,-7.107c3.915,0 7.106,3.191 7.106,7.107c0,3.922 -3.191,7.106 -7.106,7.106Zm-56.382,0c-3.918,0 -7.1,-3.184 -7.1,-7.106c0,-3.91 3.182,-7.107 7.1,-7.107c3.922,0 7.107,3.191 7.107,7.107c0,3.922 -3.185,7.106 -7.107,7.106Zm98.997,-16.641c-10.543,-54.634 -47.784,-57.734 -71.353,-57.734c-61.453,-1.863 -72.619,58.959 -72.619,58.959c-22.965,107.369 16.75,162.594 26.063,169.416c2.334,1.872 4.69,3.562 7.056,5.053c4.047,2.55 5.841,-0.238 3.978,-5.775c-12.284,-36.375 -15.293,-75.306 -8.647,-115.041c0.269,-1.597 0.938,-3.106 1.95,-4.368c0.728,-0.922 18.179,-22.394 43.825,-22.394c15.694,0 30.516,7.837 44.041,23.309c1.513,1.735 2.353,3.963 2.353,6.272c0,0.903 0.028,2.275 0.066,4.038c0.278,12.265 0.919,40.947 -3.85,72.784c-1.825,12.159 -4.235,23.447 -7.225,33.841c-1.628,5.615 -2.547,9.765 -1.772,9.322c0.525,-0.294 0.994,-0.572 1.384,-0.832c68.263,-49.625 37.228,-165.068 34.75,-176.85Z" style="fill:#54c1ee;fill-rule:nonzero;"/><path d="M51.019,59.458c5.235,0 9.475,4.24 9.475,9.474c0,5.235 -4.24,9.482 -9.475,9.482c-5.234,0 -9.478,-4.247 -9.478,-9.482c0,-5.234 4.244,-9.474 9.478,-9.474Z" style="fill:#fff;fill-rule:nonzero;"/><path d="M110.485,59.458c5.237,0 9.481,4.24 9.481,9.474c0,5.235 -4.244,9.482 -9.481,9.482c-5.228,0 -9.475,-4.247 -9.475,-9.482c0,-5.234 4.247,-9.474 9.475,-9.474Z" style="fill:#fff;fill-rule:nonzero;"/><path d="M110.485,64.432c3.866,0 6.991,3.132 6.991,6.991c0,3.859 -3.125,6.991 -6.991,6.991c-3.856,0 -6.988,-3.132 -6.988,-6.991c0,-3.859 3.132,-6.991 6.988,-6.991Z" style="fill:#392e2a;fill-rule:nonzero;"/><path d="M51.019,64.432c3.863,0 6.988,3.132 6.988,6.991c0,3.859 -3.125,6.991 -6.988,6.991c-3.859,0 -6.99,-3.132 -6.99,-6.991c0,-3.859 3.131,-6.991 6.99,-6.991Z" style="fill:#392e2a;fill-rule:nonzero;"/></svg>