<?xml version="1.0" encoding="UTF-8" standalone="no"?>
<!DOCTYPE svg PUBLIC "-//W3C//DTD SVG 1.1//EN" "http://www.w3.org/Graphics/SVG/1.1/DTD/svg11.dtd">
<svg width="100%" height="100%" viewBox="0 0 273 273" version="1.1" xmlns="http://www.w3.org/2000/svg" xmlns:xlink="http://www.w3.org/1999/xlink" xml:space="preserve" xmlns:serif="http://www.serif.com/" style="fill-rule:evenodd;clip-rule:evenodd;stroke-linejoin:round;stroke-miterlimit:1.41421;">
    <g transform="matrix(1,0,0,1,56,0)">
        <path d="M118.326,126.054C118.241,120.208 115.085,111.826 110.704,107.957C85.804,85.982 63.601,97.751 52.46,106.857C47.938,110.554 44.091,118.908 43.372,124.714C34.841,193.345 58.035,242.898 73.463,268.511C76.488,273.507 82.429,274.029 85.932,269.357C117.763,226.876 118.747,154.482 118.326,126.054Z" style="fill:rgb(242,103,94);fill-rule:nonzero;"/>
    </g>
    <g transform="matrix(1,0,0,1,56,0)">
        <path d="M108.404,74.417C104.491,74.417 101.301,71.233 101.301,67.311C101.301,63.401 104.488,60.204 108.404,60.204C112.319,60.204 115.51,63.395 115.51,67.311C115.51,71.233 112.319,74.417 108.404,74.417ZM52.022,74.417C48.104,74.417 44.922,71.233 44.922,67.311C44.922,63.401 48.104,60.204 52.022,60.204C55.944,60.204 59.129,63.395 59.129,67.311C59.129,71.233 55.944,74.417 52.022,74.417ZM151.019,57.776C140.476,3.142 103.235,0.042 79.666,0.042C18.213,-1.821 7.047,59.001 7.047,59.001C-15.918,166.37 23.797,221.595 33.11,228.417C35.444,230.289 37.8,231.979 40.166,233.47C44.213,236.02 46.007,233.232 44.144,227.695C31.86,191.32 28.851,152.389 35.497,112.654C35.766,111.057 36.435,109.548 37.447,108.286C38.175,107.364 55.626,85.892 81.272,85.892C96.966,85.892 111.788,93.729 125.313,109.201C126.826,110.936 127.666,113.164 127.666,115.473C127.666,116.376 127.694,117.748 127.732,119.511C128.01,131.776 128.651,160.458 123.882,192.295C122.057,204.454 119.647,215.742 116.657,226.136C115.029,231.751 114.11,235.901 114.885,235.458C115.41,235.164 115.879,234.886 116.269,234.626C184.532,185.001 153.497,69.558 151.019,57.776Z" style="fill:rgb(84,193,238);fill-rule:nonzero;"/>
    </g>
    <g transform="matrix(1,0,0,1,56,0)">
        <path d="M51.019,59.458C56.254,59.458 60.494,63.698 60.494,68.932C60.494,74.167 56.254,78.414 51.019,78.414C45.785,78.414 41.541,74.167 41.541,68.932C41.541,63.698 45.785,59.458 51.019,59.458Z" style="fill:white;fill-rule:nonzero;"/>
    </g>
    <g transform="matrix(1,0,0,1,56,0)">
        <path d="M110.485,59.458C115.722,59.458 119.966,63.698 119.966,68.932C119.966,74.167 115.722,78.414 110.485,78.414C105.257,78.414 101.01,74.167 101.01,68.932C101.01,63.698 105.257,59.458 110.485,59.458Z" style="fill:white;fill-rule:nonzero;"/>
    </g>
    <g transform="matrix(1,0,0,1,56,0)">
        <path d="M110.485,64.432C114.351,64.432 117.476,67.564 117.476,71.423C117.476,75.282 114.351,78.414 110.485,78.414C106.629,78.414 103.497,75.282 103.497,71.423C103.497,67.564 106.629,64.432 110.485,64.432Z" style="fill:rgb(57,46,42);fill-rule:nonzero;"/>
    </g>
    <g transform="matrix(1,0,0,1,56,0)">
        <path d="M51.019,64.432C54.882,64.432 58.007,67.564 58.007,71.423C58.007,75.282 54.882,78.414 51.019,78.414C47.16,78.414 44.029,75.282 44.029,71.423C44.029,67.564 47.16,64.432 51.019,64.432Z" style="fill:rgb(57,46,42);fill-rule:nonzero;"/>
    </g>
</svg>
