<?xml version="1.0" encoding="UTF-8" standalone="no"?><!DOCTYPE svg PUBLIC "-//W3C//DTD SVG 1.1//EN" "http://www.w3.org/Graphics/SVG/1.1/DTD/svg11.dtd"><svg width="100%" height="100%" viewBox="0 0 126 90" version="1.1" xmlns="http://www.w3.org/2000/svg" xmlns:xlink="http://www.w3.org/1999/xlink" xml:space="preserve" style="fill-rule:evenodd;clip-rule:evenodd;stroke-linejoin:round;stroke-miterlimit:1.41421;"><path d="M38.596,28.74c0,0 4.013,20.457 -0.985,36.332c-4.998,15.875 -4.029,14.846 -4.587,14.846l-11.175,0c0,0 -0.249,-4.364 6.355,-4.998l0,-23.595l10.392,-22.585Z" style="fill:#9c9aa4;fill-rule:nonzero;"/><path d="M82.582,32.634c0,0 4.014,20.456 -0.984,36.331c-4.998,15.875 -4.029,14.846 -4.587,14.846l-11.175,0c0,0 -0.249,-4.364 6.354,-4.998l0,-16.022l10.392,-30.157Z" style="fill:#9c9aa4;fill-rule:nonzero;"/><path d="M118.478,48.127c0,0 3.858,10.789 -3.381,12.348c-9.555,2.058 -9.684,-11.321 -13.524,-22.22c-3.839,-10.899 -20.285,-9.53 -20.726,-9.383c0,0 -1.323,6.026 5.845,12.59c7.168,6.563 0.184,13.915 5.326,25.292c5.143,11.376 25.284,16.652 31.709,1.281c6.424,-15.371 -5.249,-19.908 -5.249,-19.908" style="fill:#9c9aa4;fill-rule:nonzero;"/><path d="M118.478,48.127c0,0 3.858,10.789 -3.381,12.348c-3.08,0.663 -5.178,-0.283 -6.738,-2.228c-2.499,0.002 -6.198,-0.018 -6.198,-0.018l4.851,5.816l-9.996,2.709l6.188,4.011l-4.445,3.483c8.14,5.221 20.25,5.075 24.968,-6.213c6.424,-15.371 -5.249,-19.908 -5.249,-19.908" style="fill:#ebedec;fill-rule:nonzero;"/><path d="M91.431,38.255c-1.764,-12.665 -15.848,-12.892 -15.848,-12.892l0.001,0.003c-7.823,-0.722 -15.755,2.295 -23.447,2.295c-8.82,0 -20.519,-6.046 -20.519,-6.046c0,0 -20.933,0.938 -9.027,21.949c0.649,1.145 1.343,2.283 2.081,3.399l-0.001,0c0,0 3.001,6.015 4.986,10.315c1.984,4.299 2.368,12.554 2.368,12.554l0,14.603c-6.603,0.634 -6.354,4.998 -6.354,4.998l11.175,0c0.558,0 -0.411,1.029 4.587,-14.846c1.665,-5.291 2.327,-11.088 2.473,-16.469c6.593,-1.016 16.843,-1.858 24.517,0.911c3.618,8.431 10.219,9.384 10.219,9.384l0,16.022c-6.603,0.634 -6.354,4.998 -6.354,4.998l11.175,0c0.558,0 -0.411,1.029 4.587,-14.846c0.488,-1.55 0.888,-3.144 1.215,-4.758l0.001,0.003c0,0 3.929,-18.912 2.165,-31.577" style="fill:#c5c5ca;fill-rule:nonzero;"/><path d="M11.738,8.39c0,0 -2.213,-2.554 -4.556,-4.774c-4.335,-4.582 -6.377,-3.653 -6.886,-3.28c-0.364,-0.032 -0.372,-0.035 -0.135,0.113c2.589,1.611 0.611,7.076 2.328,10.811c1.523,3.312 3.904,4.485 3.904,4.485c0,0 5.762,-0.57 5.345,-7.355" style="fill:#9c9aa4;fill-rule:nonzero;"/><path d="M29.73,8.39c0,0 2.213,-2.554 4.556,-4.774c4.335,-4.582 6.377,-3.653 6.886,-3.28c0.364,-0.032 0.372,-0.035 0.135,0.113c-2.589,1.611 -0.611,7.076 -2.328,10.811c-1.523,3.312 -3.904,4.485 -3.904,4.485c0,0 -5.762,-0.57 -5.345,-7.355" style="fill:#9c9aa4;fill-rule:nonzero;"/><path d="M20.675,15.745c0,0 -12.864,-6.204 -18.418,5.304c0,0 3.034,26.52 18.418,30.054c15.384,-3.534 18.419,-30.054 18.419,-30.054c-5.555,-11.508 -18.419,-5.304 -18.419,-5.304" style="fill:#ebedec;fill-rule:nonzero;"/><path d="M39.094,21.048c-0.009,0.086 0.014,-0.087 0,0c-1.07,-4.953 -12.626,-3.246 -14.617,0.926c-1.845,3.877 -0.066,26.604 -3.852,26.604c-3.751,0 -3.899,-23.339 -4.975,-25.847c-1.275,-2.97 -7.887,-7.928 -13.392,-1.683c-0.166,-4.001 -0.051,-4.094 0.618,-6.208c0.363,-1.148 1.058,-2.059 1.713,-3.032c5.085,-7.506 21.423,-8.758 29.4,-2.973c2.147,1.548 3.687,3.615 4.242,6.201c0.435,2.035 0.783,3.108 0.863,6.012" style="fill:#c5c5ca;fill-rule:nonzero;"/><path d="M17.092,48.648c0.059,-0.984 2.749,-1.277 3.731,-1.277c0.983,0 3.403,0.361 3.437,1.277c0.039,0.998 -2.848,2.454 -3.585,2.454c-0.736,0 -3.644,-1.457 -3.583,-2.454" style="fill:#3d3b37;fill-rule:nonzero;"/><path d="M12.322,25.453c0,1.114 -0.903,2.018 -2.018,2.018c-1.114,0 -2.017,-0.904 -2.017,-2.018c0,-1.115 0.903,-2.019 2.017,-2.019c1.115,0 2.018,0.904 2.018,2.019" style="fill:#3d3b37;fill-rule:nonzero;"/><path d="M31.727,25.453c0,1.114 -0.904,2.018 -2.019,2.018c-1.113,0 -2.017,-0.904 -2.017,-2.018c0,-1.115 0.904,-2.019 2.017,-2.019c1.115,0 2.019,0.904 2.019,2.019" style="fill:#3d3b37;fill-rule:nonzero;"/><path d="M44.576,29.804c0,0 0.133,-0.06 0.332,-0.105c0.199,-0.044 0.465,-0.085 0.731,-0.082c0.265,-0.003 0.531,0.036 0.73,0.081c0.199,0.045 0.332,0.106 0.332,0.106c0,0 -0.133,0.06 -0.332,0.106c-0.199,0.045 -0.465,0.084 -0.73,0.082c-0.266,0.002 -0.532,-0.039 -0.731,-0.083c-0.199,-0.045 -0.332,-0.105 -0.332,-0.105" style="fill:#fff;fill-rule:nonzero;"/><path d="M46.945,31.694c0,0 0.173,0.004 0.411,0.034c0.239,0.032 0.551,0.075 0.856,0.136c0.307,0.058 0.612,0.134 0.846,0.195c0.233,0.061 0.393,0.122 0.393,0.122c0,0 -0.161,0.06 -0.408,0.088c-0.246,0.029 -0.579,0.029 -0.902,-0.036c-0.324,-0.061 -0.632,-0.186 -0.85,-0.305c-0.22,-0.119 -0.346,-0.234 -0.346,-0.234" style="fill:#fff;fill-rule:nonzero;"/><path d="M52.826,29.554c0,0 0.11,-0.06 0.274,-0.105c0.163,-0.044 0.382,-0.085 0.601,-0.082c0.219,-0.003 0.438,0.036 0.602,0.081c0.163,0.045 0.273,0.106 0.273,0.106c0,0 -0.11,0.061 -0.273,0.106c-0.164,0.045 -0.383,0.084 -0.602,0.082c-0.219,0.002 -0.438,-0.039 -0.601,-0.083c-0.164,-0.045 -0.274,-0.105 -0.274,-0.105" style="fill:#fff;fill-rule:nonzero;"/><path d="M52.201,31.804c0,0 0.117,-0.06 0.293,-0.105c0.176,-0.044 0.41,-0.085 0.645,-0.082c0.234,-0.003 0.468,0.036 0.644,0.081c0.176,0.045 0.293,0.106 0.293,0.106c0,0 -0.117,0.061 -0.293,0.106c-0.176,0.045 -0.41,0.084 -0.644,0.082c-0.235,0.002 -0.469,-0.039 -0.645,-0.083c-0.176,-0.045 -0.293,-0.105 -0.293,-0.105" style="fill:#fff;fill-rule:nonzero;"/><path d="M61.467,28.845c0,0 0.102,-0.105 0.272,-0.221c0.17,-0.114 0.403,-0.25 0.652,-0.346c0.248,-0.1 0.51,-0.162 0.713,-0.194c0.203,-0.031 0.349,-0.024 0.349,-0.024c0,0 -0.102,0.105 -0.271,0.221c-0.17,0.115 -0.404,0.25 -0.653,0.346c-0.247,0.099 -0.511,0.16 -0.713,0.193c-0.203,0.032 -0.349,0.025 -0.349,0.025" style="fill:#fff;fill-rule:nonzero;"/><path d="M59.326,30.68c0,0 0.109,-0.052 0.257,-0.098c0.152,-0.045 0.344,-0.099 0.538,-0.128c0.193,-0.034 0.392,-0.044 0.55,-0.049c0.157,-0.003 0.276,0.013 0.276,0.013c0,0 -0.073,0.096 -0.211,0.188c-0.137,0.093 -0.34,0.185 -0.555,0.218c-0.215,0.037 -0.436,0.012 -0.595,-0.032c-0.162,-0.045 -0.26,-0.112 -0.26,-0.112" style="fill:#fff;fill-rule:nonzero;"/><path d="M67.081,27.706c0,0 0.107,-0.078 0.274,-0.151c0.167,-0.073 0.395,-0.151 0.628,-0.187c0.233,-0.04 0.472,-0.04 0.655,-0.025c0.182,0.016 0.308,0.056 0.308,0.056c0,0 -0.107,0.079 -0.274,0.152c-0.168,0.074 -0.394,0.15 -0.628,0.187c-0.233,0.04 -0.473,0.039 -0.655,0.024c-0.182,-0.016 -0.308,-0.056 -0.308,-0.056" style="fill:#fff;fill-rule:nonzero;"/><path d="M60.701,33.055c0,0 0.078,-0.083 0.207,-0.164c0.128,-0.08 0.304,-0.169 0.492,-0.217c0.186,-0.052 0.382,-0.064 0.534,-0.059c0.152,0.006 0.261,0.04 0.261,0.04c0,0 -0.078,0.083 -0.207,0.164c-0.128,0.081 -0.304,0.169 -0.492,0.217c-0.186,0.052 -0.383,0.063 -0.534,0.058c-0.152,-0.006 -0.261,-0.039 -0.261,-0.039" style="fill:#fff;fill-rule:nonzero;"/><path d="M53.576,35.179c0,0 0.133,-0.06 0.332,-0.105c0.199,-0.044 0.465,-0.085 0.731,-0.082c0.265,-0.003 0.531,0.036 0.73,0.081c0.199,0.045 0.332,0.106 0.332,0.106c0,0 -0.133,0.061 -0.332,0.106c-0.199,0.045 -0.465,0.084 -0.73,0.082c-0.266,0.002 -0.532,-0.039 -0.731,-0.083c-0.199,-0.045 -0.332,-0.105 -0.332,-0.105" style="fill:#fff;fill-rule:nonzero;"/><path d="M68.201,31.182c0,0 0.162,-0.065 0.391,-0.137c0.233,-0.069 0.534,-0.163 0.836,-0.243c0.302,-0.083 0.609,-0.154 0.846,-0.21c0.235,-0.054 0.406,-0.078 0.406,-0.078c0,0 -0.114,0.13 -0.322,0.271c-0.207,0.142 -0.509,0.294 -0.832,0.38c-0.323,0.088 -0.66,0.106 -0.91,0.089c-0.252,-0.017 -0.415,-0.072 -0.415,-0.072" style="fill:#fff;fill-rule:nonzero;"/><path d="M64.701,35.184c0,0 0.193,-0.051 0.464,-0.112c0.274,-0.059 0.628,-0.15 0.978,-0.24c0.35,-0.096 0.702,-0.195 0.969,-0.279c0.267,-0.084 0.458,-0.135 0.458,-0.135c0,0 -0.126,0.154 -0.365,0.324c-0.236,0.17 -0.586,0.353 -0.965,0.451c-0.377,0.104 -0.772,0.118 -1.063,0.089c-0.292,-0.029 -0.476,-0.098 -0.476,-0.098" style="fill:#fff;fill-rule:nonzero;"/><path d="M73.951,28.685c0.004,-0.014 0.341,-0.193 0.668,-0.22c0.325,-0.048 0.695,0.052 0.702,0.065c0,0 -0.069,0.08 -0.19,0.15c-0.12,0.072 -0.291,0.14 -0.469,0.158c-0.178,0.022 -0.36,-0.008 -0.493,-0.049c-0.134,-0.042 -0.218,-0.104 -0.218,-0.104" style="fill:#fff;fill-rule:nonzero;"/><path d="M77.704,28.516c0,0 0.201,-0.048 0.504,-0.063c0.303,-0.016 0.707,-0.003 1.103,0.07c0.396,0.069 0.78,0.196 1.058,0.316c0.279,0.118 0.452,0.234 0.452,0.234c0,0 -0.207,0 -0.504,-0.03c-0.297,-0.032 -0.687,-0.08 -1.072,-0.151c-0.386,-0.067 -0.768,-0.158 -1.058,-0.23c-0.288,-0.075 -0.483,-0.146 -0.483,-0.146" style="fill:#fff;fill-rule:nonzero;"/><path d="M76.951,31.429c0,-0.014 0.281,-0.2 0.563,-0.187c0.281,-0.014 0.562,0.173 0.562,0.187c0,0.015 -0.281,0.201 -0.562,0.188c-0.282,0.012 -0.563,-0.174 -0.563,-0.188" style="fill:#fff;fill-rule:nonzero;"/><path d="M13.582,11.319c-0.001,0.007 0.031,-0.062 0.146,-0.053c0.103,0.009 0.247,0.102 0.349,0.212c0.232,0.215 0.513,0.535 0.729,0.899c0.221,0.361 0.374,0.758 0.456,1.064c0.083,0.307 0.094,0.522 0.094,0.522c0,0 -0.125,-0.175 -0.287,-0.438c-0.16,-0.26 -0.371,-0.607 -0.584,-0.954c-0.208,-0.35 -0.416,-0.699 -0.572,-0.961c-0.082,-0.137 -0.13,-0.233 -0.206,-0.275c-0.067,-0.042 -0.125,-0.016 -0.125,-0.016" style="fill:#fff;fill-rule:nonzero;"/><path d="M17.578,17.304c0,0 0.088,0.168 0.165,0.434c0.076,0.265 0.148,0.626 0.16,0.992c0.017,0.366 -0.025,0.732 -0.081,1.002c-0.055,0.271 -0.13,0.447 -0.13,0.447c0,0 -0.046,-0.185 -0.081,-0.454c-0.033,-0.27 -0.07,-0.625 -0.082,-0.98c-0.017,-0.354 -0.007,-0.711 0.005,-0.983c0.014,-0.27 0.044,-0.458 0.044,-0.458" style="fill:#fff;fill-rule:nonzero;"/><path d="M18.576,22.304c0,0 0.06,0.101 0.105,0.254c0.044,0.153 0.085,0.355 0.083,0.558c0.002,0.204 -0.037,0.407 -0.082,0.559c-0.045,0.152 -0.106,0.254 -0.106,0.254c0,0 -0.06,-0.102 -0.106,-0.254c-0.045,-0.152 -0.084,-0.355 -0.081,-0.559c-0.003,-0.203 0.038,-0.405 0.082,-0.558c0.045,-0.153 0.105,-0.254 0.105,-0.254" style="fill:#fff;fill-rule:nonzero;"/><path d="M21.211,19.179c0,0 0.064,0.108 0.103,0.28c0.039,0.172 0.059,0.406 0.018,0.634c-0.036,0.228 -0.129,0.444 -0.222,0.593c-0.093,0.15 -0.189,0.232 -0.189,0.232c0,0 -0.017,-0.125 -0.013,-0.293c0.005,-0.169 0.018,-0.385 0.055,-0.593c0.033,-0.21 0.091,-0.419 0.141,-0.58c0.051,-0.159 0.107,-0.273 0.107,-0.273" style="fill:#fff;fill-rule:nonzero;"/><path d="M21.726,13.938c0,0 0.008,0.144 0.014,0.328c0.002,0.188 0.018,0.426 0.032,0.66c0.019,0.233 0.035,0.471 0.058,0.658c0.021,0.186 0.03,0.327 0.03,0.327c0,0 -0.115,-0.082 -0.228,-0.254c-0.113,-0.17 -0.217,-0.431 -0.234,-0.705c-0.021,-0.275 0.048,-0.548 0.137,-0.732c0.088,-0.187 0.191,-0.282 0.191,-0.282" style="fill:#fff;fill-rule:nonzero;"/><path d="M24.372,17.551c0,0 0.003,0.049 -0.001,0.132c-0.006,0.076 -0.023,0.216 -0.084,0.348c-0.107,0.28 -0.346,0.595 -0.596,0.86c-0.246,0.27 -0.496,0.511 -0.601,0.74c-0.053,0.114 -0.095,0.22 -0.102,0.3c-0.011,0.078 -0.022,0.129 -0.022,0.129c0,0 -0.022,-0.042 -0.051,-0.124c-0.023,-0.08 -0.057,-0.212 -0.028,-0.364c0.025,-0.151 0.081,-0.329 0.182,-0.485c0.094,-0.164 0.222,-0.308 0.346,-0.449c0.254,-0.276 0.523,-0.507 0.69,-0.714c0.084,-0.105 0.156,-0.183 0.196,-0.261c0.042,-0.072 0.071,-0.112 0.071,-0.112" style="fill:#fff;fill-rule:nonzero;"/><path d="M21.076,25.804c0,0 0.06,0.14 0.105,0.352c0.044,0.211 0.085,0.492 0.083,0.773c0.002,0.281 -0.038,0.563 -0.082,0.773c-0.046,0.212 -0.106,0.352 -0.106,0.352c0,0 -0.061,-0.14 -0.106,-0.352c-0.045,-0.21 -0.084,-0.492 -0.081,-0.773c-0.003,-0.281 0.038,-0.562 0.082,-0.773c0.045,-0.212 0.105,-0.352 0.105,-0.352" style="fill:#fff;fill-rule:nonzero;"/><path d="M19.689,31.806c0,0 0.08,0.115 0.138,0.31c0.059,0.192 0.096,0.462 0.063,0.727c-0.028,0.266 -0.127,0.52 -0.229,0.693c-0.101,0.175 -0.206,0.269 -0.206,0.269c0,0 -0.007,-0.14 0.005,-0.33c0.012,-0.192 0.027,-0.436 0.058,-0.675c0.026,-0.241 0.068,-0.483 0.099,-0.671c0.034,-0.186 0.072,-0.323 0.072,-0.323" style="fill:#fff;fill-rule:nonzero;"/><path d="M19.984,36.942c0,0 0.022,0.108 0.013,0.252c-0.01,0.144 -0.041,0.328 -0.111,0.497c-0.066,0.17 -0.171,0.325 -0.263,0.436c-0.093,0.111 -0.183,0.173 -0.183,0.173c0,0 -0.022,-0.107 -0.013,-0.251c0.009,-0.144 0.041,-0.329 0.111,-0.498c0.066,-0.17 0.171,-0.325 0.264,-0.435c0.093,-0.111 0.182,-0.174 0.182,-0.174" style="fill:#fff;fill-rule:nonzero;"/></svg>