<?xml version="1.0" encoding="UTF-8" standalone="no"?>
<!DOCTYPE svg PUBLIC "-//W3C//DTD SVG 1.1//EN" "http://www.w3.org/Graphics/SVG/1.1/DTD/svg11.dtd">
<svg width="100%" height="100%" viewBox="0 0 582 582" version="1.1" xmlns="http://www.w3.org/2000/svg" xmlns:xlink="http://www.w3.org/1999/xlink" xml:space="preserve" xmlns:serif="http://www.serif.com/" style="fill-rule:evenodd;clip-rule:evenodd;stroke-linejoin:round;stroke-miterlimit:1.41421;">
    <g transform="matrix(4.16667,0,0,4.16667,-1382.58,-2385.66)">
        <path d="M452.933,652.292C452.933,676.422 429.979,711.505 401.661,711.505C373.343,711.505 350.387,676.422 350.387,652.292C350.387,628.161 373.343,608.599 401.661,608.599C429.979,608.599 452.933,628.161 452.933,652.292Z" style="fill:rgb(41,160,130);fill-rule:nonzero;"/>
    </g>
    <g transform="matrix(4.16667,0,0,4.16667,-1382.58,-2385.66)">
        <path d="M400.844,652.711C400.462,652.701 400.094,652.663 399.728,652.611C375.704,651.64 362.801,632.946 362.801,632.946C359.268,643.577 359.253,655.538 359.253,655.538C359.809,678.493 378.576,712.228 401.662,712.228L401.662,652.659C401.481,652.669 401.314,652.711 401.137,652.711C401.037,652.711 400.94,652.711 400.844,652.711Z" style="fill:rgb(156,166,82);fill-rule:nonzero;"/>
    </g>
    <g transform="matrix(4.16667,0,0,4.16667,-1382.58,-2385.66)">
        <path d="M372.413,599.36L372.4,599.342C372.4,599.342 372.402,599.428 372.402,599.561C372.341,600.349 372.284,601.14 372.284,601.945C372.284,602.189 372.309,602.429 372.313,602.674C372.147,605.635 371.708,610.259 370.421,615.135C369.513,618.555 368.194,622.099 366.242,625.281C364.824,627.599 363.7,630.232 362.801,632.946C362.801,632.946 375.704,651.64 399.728,652.611L399.731,652.611C400.095,652.663 400.463,652.701 400.844,652.711C400.94,652.711 401.037,652.711 401.137,652.711C401.314,652.711 401.481,652.669 401.662,652.659L401.662,629.597L401.662,572.568C386.31,572.568 373.724,584.348 372.413,599.36Z" style="fill:rgb(239,76,109);fill-rule:nonzero;"/>
    </g>
    <g transform="matrix(4.16667,0,0,4.16667,-1382.58,-2385.66)">
        <path d="M440.691,633.413C440.691,633.413 426.929,652.659 401.662,652.659L401.662,712.228C424.767,712.228 443.544,678.461 444.068,655.486C444.068,655.486 444.056,643.91 440.691,633.413Z" style="fill:rgb(182,190,90);fill-rule:nonzero;"/>
    </g>
    <g transform="matrix(4.16667,0,0,4.16667,-1382.58,-2385.66)">
        <path d="M437.11,625.281C435.328,622.354 434.064,619.124 433.169,615.967C431.638,610.578 431.175,605.396 431.025,602.3C431.025,602.181 431.039,602.063 431.039,601.945C431.039,601.41 430.986,600.885 430.959,600.357C430.947,599.724 430.956,599.342 430.956,599.342L430.911,599.409C429.62,584.371 417.031,572.568 401.662,572.568L401.662,652.659C426.929,652.659 440.691,633.413 440.691,633.413C439.771,630.537 438.607,627.738 437.11,625.281Z" style="fill:rgb(243,122,129);fill-rule:nonzero;"/>
    </g>
    <g transform="matrix(4.16667,0,0,4.16667,-1382.58,-2385.66)">
        <path d="M397.604,595.598L392.283,599.108C390.145,600.521 389.468,603.478 390.779,605.681L399.108,619.668C399.766,620.775 400.63,621.327 401.495,621.327L401.495,594.536C400.079,594.536 398.675,594.89 397.604,595.598Z" style="fill:rgb(199,177,154);fill-rule:nonzero;"/>
    </g>
    <g transform="matrix(4.16667,0,0,4.16667,-1382.58,-2385.66)">
        <path d="M403.881,619.668L412.211,605.681C413.525,603.478 412.847,600.521 410.707,599.108L405.385,595.598C404.314,594.89 402.904,594.536 401.495,594.536L401.495,621.327C402.359,621.327 403.226,620.775 403.881,619.668Z" style="fill:rgb(217,200,182);fill-rule:nonzero;"/>
    </g>
    <g transform="matrix(4.16667,0,0,4.16667,-1382.58,-2385.66)">
        <path d="M378.191,592.803C378.191,597.298 380.443,600.942 383.224,600.942C386.004,600.942 388.256,597.298 388.256,592.803C388.256,588.309 386.004,584.665 383.224,584.665C380.443,584.665 378.191,588.309 378.191,592.803Z" style="fill:rgb(199,177,154);fill-rule:nonzero;"/>
    </g>
    <g transform="matrix(4.16667,0,0,4.16667,-1382.58,-2385.66)">
        <path d="M379.888,592.803C379.888,595.782 381.381,598.197 383.224,598.197C385.065,598.197 386.559,595.782 386.559,592.803C386.559,589.824 385.065,587.411 383.224,587.411C381.381,587.411 379.888,589.824 379.888,592.803Z" style="fill:rgb(13,18,28);fill-rule:nonzero;"/>
    </g>
    <g transform="matrix(4.16667,0,0,4.16667,-1382.58,-2385.66)">
        <path d="M383.462,590.712C383.462,591.511 382.812,592.161 382.013,592.161C381.213,592.161 380.564,591.511 380.564,590.712C380.564,589.912 381.213,589.264 382.013,589.264C382.812,589.264 383.462,589.912 383.462,590.712Z" style="fill:white;fill-rule:nonzero;"/>
    </g>
    <g transform="matrix(4.16667,0,0,4.16667,-1382.58,-2385.66)">
        <path d="M415.064,592.803C415.064,597.298 417.318,600.942 420.098,600.942C422.878,600.942 425.131,597.298 425.131,592.803C425.131,588.309 422.878,584.665 420.098,584.665C417.318,584.665 415.064,588.309 415.064,592.803Z" style="fill:rgb(217,200,182);fill-rule:nonzero;"/>
    </g>
    <g transform="matrix(4.16667,0,0,4.16667,-1382.58,-2385.66)">
        <path d="M416.763,592.803C416.763,595.782 418.256,598.197 420.098,598.197C421.939,598.197 423.434,595.782 423.434,592.803C423.434,589.824 421.939,587.411 420.098,587.411C418.256,587.411 416.763,589.824 416.763,592.803Z" style="fill:rgb(13,18,28);fill-rule:nonzero;"/>
    </g>
    <g transform="matrix(4.16667,0,0,4.16667,-1382.58,-2385.66)">
        <path d="M420.336,590.712C420.336,591.511 419.686,592.161 418.887,592.161C418.087,592.161 417.439,591.511 417.439,590.712C417.439,589.912 418.087,589.264 418.887,589.264C419.686,589.264 420.336,589.912 420.336,590.712Z" style="fill:white;fill-rule:nonzero;"/>
    </g>
    <g transform="matrix(4.16667,0,0,4.16667,-1382.58,-2385.66)">
        <path d="M384.881,709.239C384.881,710.889 383.543,712.228 381.892,712.228C380.24,712.228 378.901,710.889 378.901,709.239L378.901,703.843C378.901,702.193 380.24,700.854 381.892,700.854C383.543,700.854 384.881,702.193 384.881,703.843L384.881,709.239Z" style="fill:rgb(199,177,154);fill-rule:nonzero;"/>
    </g>
    <g transform="matrix(4.16667,0,0,4.16667,-1382.58,-2385.66)">
        <path d="M390.862,709.239C390.862,710.889 389.523,712.228 387.873,712.228C386.221,712.228 384.881,710.889 384.881,709.239L384.881,703.843C384.881,702.193 386.221,700.854 387.873,700.854C389.523,700.854 390.862,702.193 390.862,703.843L390.862,709.239Z" style="fill:rgb(199,177,154);fill-rule:nonzero;"/>
    </g>
    <g transform="matrix(4.16667,0,0,4.16667,-1382.58,-2385.66)">
        <path d="M396.844,709.239C396.844,710.889 395.505,712.228 393.854,712.228C392.201,712.228 390.862,710.889 390.862,709.239L390.862,703.843C390.862,702.193 392.201,700.854 393.854,700.854C395.505,700.854 396.844,702.193 396.844,703.843L396.844,709.239Z" style="fill:rgb(199,177,154);fill-rule:nonzero;"/>
    </g>
    <g transform="matrix(4.16667,0,0,4.16667,-1382.58,-2385.66)">
        <path d="M412.458,709.239C412.458,710.889 411.12,712.228 409.469,712.228C407.816,712.228 406.479,710.889 406.479,709.239L406.479,703.843C406.479,702.193 407.816,700.854 409.469,700.854C411.12,700.854 412.458,702.193 412.458,703.843L412.458,709.239Z" style="fill:rgb(217,200,182);fill-rule:nonzero;"/>
    </g>
    <g transform="matrix(4.16667,0,0,4.16667,-1382.58,-2385.66)">
        <path d="M418.439,709.239C418.439,710.889 417.101,712.228 415.45,712.228C413.797,712.228 412.458,710.889 412.458,709.239L412.458,703.843C412.458,702.193 413.797,700.854 415.45,700.854C417.101,700.854 418.439,702.193 418.439,703.843L418.439,709.239Z" style="fill:rgb(217,200,182);fill-rule:nonzero;"/>
    </g>
    <g transform="matrix(4.16667,0,0,4.16667,-1382.58,-2385.66)">
        <path d="M424.421,709.239C424.421,710.889 423.082,712.228 421.43,712.228C419.778,712.228 418.439,710.889 418.439,709.239L418.439,703.843C418.439,702.193 419.778,700.854 421.43,700.854C423.082,700.854 424.421,702.193 424.421,703.843L424.421,709.239Z" style="fill:rgb(217,200,182);fill-rule:nonzero;"/>
    </g>
</svg>
