<?xml version="1.0" encoding="UTF-8" standalone="no"?>
<!DOCTYPE svg PUBLIC "-//W3C//DTD SVG 1.1//EN" "http://www.w3.org/Graphics/SVG/1.1/DTD/svg11.dtd">
<svg width="100%" height="100%" viewBox="0 0 700 700" version="1.1" xmlns="http://www.w3.org/2000/svg" xmlns:xlink="http://www.w3.org/1999/xlink" xml:space="preserve" xmlns:serif="http://www.serif.com/" style="fill-rule:evenodd;clip-rule:evenodd;stroke-linejoin:round;stroke-miterlimit:1.41421;">
    <g transform="matrix(4.16667,0,0,4.16667,-2284.02,-2272.46)">
        <path d="M612.286,563.862C614.566,562.988 616.724,563.19 618.682,563.727C620.636,564.298 622.402,565.331 623.876,566.692C625.351,568.049 626.519,569.756 627.234,571.68C627.917,573.62 628.202,575.764 627.495,578.08C625.238,577.21 623.675,576.31 622.243,575.397C620.832,574.483 619.622,573.543 618.497,572.491C617.368,571.442 616.326,570.284 615.304,568.927C614.282,567.543 613.315,566.023 612.286,563.862Z" style="fill:rgb(214,183,74);fill-rule:nonzero;"/>
    </g>
    <g transform="matrix(4.16667,0,0,4.16667,-2284.02,-2272.46)">
        <path d="M632.44,550.014C634.591,551.63 635.925,553.548 636.985,555.54C638.013,557.544 638.688,559.661 639.032,561.856C639.368,564.049 639.364,566.33 638.897,568.629C638.393,570.894 637.492,573.343 635.409,575.115C634.235,572.73 633.367,570.896 632.679,568.927C632.006,566.989 631.509,565.048 631.208,563.048C630.91,561.049 630.794,558.995 630.925,556.853C631.083,554.7 631.427,552.49 632.44,550.014Z" style="fill:rgb(214,183,74);fill-rule:nonzero;"/>
    </g>
    <g transform="matrix(4.16667,0,0,4.16667,-2284.02,-2272.46)">
        <path d="M640.724,554.713C642.432,556.601 643.279,558.603 643.84,560.614C644.368,562.63 644.527,564.676 644.329,566.722C644.135,568.767 643.577,570.822 642.537,572.779C641.483,574.658 639.915,576.738 637.388,577.461C637.083,574.985 636.632,573.259 636.472,571.388C636.294,569.559 636.272,567.765 636.456,565.95C636.637,564.136 637.009,562.308 637.642,560.446C638.304,558.582 639.157,556.701 640.724,554.713Z" style="fill:rgb(214,183,74);fill-rule:nonzero;"/>
    </g>
    <g transform="matrix(4.16667,0,0,4.16667,-2284.02,-2272.46)">
        <path d="M683.438,652.915C683.438,677.044 660.484,712.127 632.166,712.127C603.848,712.127 580.892,677.044 580.892,652.915C580.892,628.783 603.848,609.221 632.166,609.221C660.484,609.221 683.438,628.783 683.438,652.915Z" style="fill:rgb(111,112,112);fill-rule:nonzero;"/>
    </g>
    <g transform="matrix(4.16667,0,0,4.16667,-2284.02,-2272.46)">
        <path d="M631.349,653.333C630.967,653.323 630.599,653.285 630.232,653.233C606.209,652.262 593.306,633.568 593.306,633.568C589.772,644.199 589.758,656.16 589.758,656.16C590.313,679.115 609.081,712.85 632.167,712.85L632.167,653.281C631.986,653.292 631.819,653.333 631.642,653.333C631.542,653.333 631.445,653.333 631.349,653.333Z" style="fill:rgb(111,112,112);fill-rule:nonzero;"/>
    </g>
    <g transform="matrix(4.16667,0,0,4.16667,-2284.02,-2272.46)">
        <path d="M602.918,599.982L602.905,599.964C602.905,599.964 602.907,600.05 602.907,600.183C602.846,600.971 602.789,601.762 602.789,602.567C602.789,602.811 602.813,603.051 602.818,603.296C602.652,606.257 602.213,610.881 600.926,615.757C600.018,619.177 598.699,622.721 596.747,625.903C595.329,628.221 594.205,630.854 593.306,633.568C593.306,633.568 606.209,652.262 630.232,653.233L630.236,653.233C630.6,653.285 630.968,653.323 631.349,653.333C631.445,653.333 631.542,653.333 631.642,653.333C631.819,653.333 631.986,653.292 632.167,653.281L632.167,630.219L632.167,573.19C616.814,573.19 604.229,584.97 602.918,599.982Z" style="fill:rgb(250,207,80);fill-rule:nonzero;"/>
    </g>
    <g transform="matrix(4.16667,0,0,4.16667,-2284.02,-2272.46)">
        <path d="M671.196,634.035C671.196,634.035 657.434,653.281 632.167,653.281L632.167,712.85C655.271,712.85 674.049,679.083 674.573,656.108C674.573,656.108 674.561,644.532 671.196,634.035Z" style="fill:rgb(150,153,155);fill-rule:nonzero;"/>
    </g>
    <g transform="matrix(4.16667,0,0,4.16667,-2284.02,-2272.46)">
        <path d="M667.615,625.903C665.833,622.976 664.569,619.746 663.674,616.589C662.143,611.2 661.68,606.018 661.53,602.922C661.53,602.803 661.544,602.685 661.544,602.567C661.544,602.032 661.491,601.507 661.464,600.979C661.452,600.346 661.461,599.964 661.461,599.964L661.416,600.031C660.125,584.993 647.536,573.19 632.167,573.19L632.167,653.281C657.434,653.281 671.196,634.035 671.196,634.035C670.275,631.159 669.112,628.36 667.615,625.903Z" style="fill:rgb(237,231,195);fill-rule:nonzero;"/>
    </g>
    <g transform="matrix(4.16667,0,0,4.16667,-2284.02,-2272.46)">
        <path d="M628.109,596.22L622.788,599.73C620.649,601.143 619.973,604.1 621.284,606.303L629.613,620.291C630.271,621.397 631.135,621.949 632,621.949L632,595.158C630.584,595.158 629.18,595.512 628.109,596.22Z" style="fill:rgb(199,177,154);fill-rule:nonzero;"/>
    </g>
    <g transform="matrix(4.16667,0,0,4.16667,-2284.02,-2272.46)">
        <path d="M634.386,620.291L642.716,606.303C644.03,604.1 643.352,601.143 641.212,599.73L635.89,596.22C634.819,595.512 633.409,595.158 632,595.158L632,621.949C632.864,621.949 633.73,621.397 634.386,620.291Z" style="fill:rgb(217,200,182);fill-rule:nonzero;"/>
    </g>
    <g transform="matrix(4.16667,0,0,4.16667,-2284.02,-2272.46)">
        <path d="M608.696,593.425C608.696,597.92 610.948,601.564 613.729,601.564C616.509,601.564 618.761,597.92 618.761,593.425C618.761,588.931 616.509,585.287 613.729,585.287C610.948,585.287 608.696,588.931 608.696,593.425Z" style="fill:rgb(199,177,154);fill-rule:nonzero;"/>
    </g>
    <g transform="matrix(4.16667,0,0,4.16667,-2284.02,-2272.46)">
        <path d="M610.393,593.425C610.393,596.404 611.886,598.819 613.729,598.819C615.57,598.819 617.063,596.404 617.063,593.425C617.063,590.446 615.57,588.033 613.729,588.033C611.886,588.033 610.393,590.446 610.393,593.425Z" style="fill:rgb(13,18,28);fill-rule:nonzero;"/>
    </g>
    <g transform="matrix(4.16667,0,0,4.16667,-2284.02,-2272.46)">
        <path d="M613.967,591.334C613.967,592.133 613.316,592.783 612.518,592.783C611.718,592.783 611.069,592.133 611.069,591.334C611.069,590.534 611.718,589.886 612.518,589.886C613.316,589.886 613.967,590.534 613.967,591.334Z" style="fill:white;fill-rule:nonzero;"/>
    </g>
    <g transform="matrix(4.16667,0,0,4.16667,-2284.02,-2272.46)">
        <path d="M645.569,593.425C645.569,597.92 647.823,601.564 650.603,601.564C653.383,601.564 655.636,597.92 655.636,593.425C655.636,588.931 653.383,585.287 650.603,585.287C647.823,585.287 645.569,588.931 645.569,593.425Z" style="fill:rgb(217,200,182);fill-rule:nonzero;"/>
    </g>
    <g transform="matrix(4.16667,0,0,4.16667,-2284.02,-2272.46)">
        <path d="M647.268,593.425C647.268,596.404 648.761,598.819 650.603,598.819C652.444,598.819 653.938,596.404 653.938,593.425C653.938,590.446 652.444,588.033 650.603,588.033C648.761,588.033 647.268,590.446 647.268,593.425Z" style="fill:rgb(13,18,28);fill-rule:nonzero;"/>
    </g>
    <g transform="matrix(4.16667,0,0,4.16667,-2284.02,-2272.46)">
        <path d="M650.841,591.334C650.841,592.133 650.19,592.783 649.392,592.783C648.592,592.783 647.944,592.133 647.944,591.334C647.944,590.534 648.592,589.886 649.392,589.886C650.19,589.886 650.841,590.534 650.841,591.334Z" style="fill:white;fill-rule:nonzero;"/>
    </g>
    <g transform="matrix(4.16667,0,0,4.16667,-2284.02,-2272.46)">
        <path d="M615.386,709.861C615.386,711.511 614.048,712.85 612.396,712.85C610.745,712.85 609.406,711.511 609.406,709.861L609.406,704.465C609.406,702.815 610.745,701.476 612.396,701.476C614.048,701.476 615.386,702.815 615.386,704.465L615.386,709.861Z" style="fill:rgb(199,177,154);fill-rule:nonzero;"/>
    </g>
    <g transform="matrix(4.16667,0,0,4.16667,-2284.02,-2272.46)">
        <path d="M621.367,709.861C621.367,711.511 620.028,712.85 618.378,712.85C616.726,712.85 615.386,711.511 615.386,709.861L615.386,704.465C615.386,702.815 616.726,701.476 618.378,701.476C620.028,701.476 621.367,702.815 621.367,704.465L621.367,709.861Z" style="fill:rgb(199,177,154);fill-rule:nonzero;"/>
    </g>
    <g transform="matrix(4.16667,0,0,4.16667,-2284.02,-2272.46)">
        <path d="M627.349,709.861C627.349,711.511 626.01,712.85 624.358,712.85C622.706,712.85 621.367,711.511 621.367,709.861L621.367,704.465C621.367,702.815 622.706,701.476 624.358,701.476C626.01,701.476 627.349,702.815 627.349,704.465L627.349,709.861Z" style="fill:rgb(199,177,154);fill-rule:nonzero;"/>
    </g>
    <g transform="matrix(4.16667,0,0,4.16667,-2284.02,-2272.46)">
        <path d="M642.963,709.861C642.963,711.511 641.625,712.85 639.974,712.85C638.321,712.85 636.983,711.511 636.983,709.861L636.983,704.465C636.983,702.815 638.321,701.476 639.974,701.476C641.625,701.476 642.963,702.815 642.963,704.465L642.963,709.861Z" style="fill:rgb(217,200,182);fill-rule:nonzero;"/>
    </g>
    <g transform="matrix(4.16667,0,0,4.16667,-2284.02,-2272.46)">
        <path d="M648.944,709.861C648.944,711.511 647.605,712.85 645.955,712.85C644.302,712.85 642.963,711.511 642.963,709.861L642.963,704.465C642.963,702.815 644.302,701.476 645.955,701.476C647.605,701.476 648.944,702.815 648.944,704.465L648.944,709.861Z" style="fill:rgb(217,200,182);fill-rule:nonzero;"/>
    </g>
    <g transform="matrix(4.16667,0,0,4.16667,-2284.02,-2272.46)">
        <path d="M654.926,709.861C654.926,711.511 653.587,712.85 651.935,712.85C650.283,712.85 648.944,711.511 648.944,709.861L648.944,704.465C648.944,702.815 650.283,701.476 651.935,701.476C653.587,701.476 654.926,702.815 654.926,704.465L654.926,709.861Z" style="fill:rgb(217,200,182);fill-rule:nonzero;"/>
    </g>
    <g transform="matrix(4.16667,0,0,4.16667,-2284.02,-2272.46)">
        <path d="M659.675,610.384C659.675,616.771 658.611,621.949 657.301,621.949C655.989,621.949 654.926,616.771 654.926,610.384C654.926,603.997 655.989,598.819 657.301,598.819C658.611,598.819 659.675,603.997 659.675,610.384Z" style="fill:rgb(240,82,73);fill-rule:nonzero;"/>
    </g>
    <g transform="matrix(4.16667,0,0,4.16667,-2284.02,-2272.46)">
        <path d="M609.406,610.384C609.406,616.771 608.343,621.949 607.032,621.949C605.721,621.949 604.657,616.771 604.657,610.384C604.657,603.997 605.721,598.819 607.032,598.819C608.343,598.819 609.406,603.997 609.406,610.384Z" style="fill:rgb(240,82,73);fill-rule:nonzero;"/>
    </g>
    <g transform="matrix(4.16667,0,0,4.16667,-2284.02,-2272.46)">
        <path d="M613.001,545.933C616.896,548.071 619.861,550.569 622.579,552.684C623.244,553.211 623.903,553.687 624.468,554.083C624.769,554.296 625.016,554.396 625.287,554.581L626.387,555.311C627.972,556.383 629.806,557.936 631.295,559.81C634.358,563.596 635.755,568.323 635.821,572.582C635.868,576.894 634.868,580.989 632.44,584.755C629.927,581.056 628.347,577.65 626.724,574.671C625.136,571.663 623.659,569.275 622.019,567.213C621.179,566.15 620.262,565.15 619.017,563.79L618.007,562.67C617.587,562.224 617.164,561.67 616.834,561.195C616.128,560.222 615.605,559.243 615.146,558.275C613.405,554.386 612.581,550.407 613.001,545.933Z" style="fill:rgb(250,207,80);fill-rule:nonzero;"/>
    </g>
</svg>
