<?xml version="1.0" encoding="UTF-8" standalone="no"?>
<!DOCTYPE svg PUBLIC "-//W3C//DTD SVG 1.1//EN" "http://www.w3.org/Graphics/SVG/1.1/DTD/svg11.dtd">
<svg width="100%" height="100%" viewBox="0 0 582 582" version="1.1" xmlns="http://www.w3.org/2000/svg" xmlns:xlink="http://www.w3.org/1999/xlink" xml:space="preserve" xmlns:serif="http://www.serif.com/" style="fill-rule:evenodd;clip-rule:evenodd;stroke-linejoin:round;stroke-miterlimit:1.41421;">
    <g transform="matrix(4.16667,0,0,4.16667,-2344.42,-1622.95)">
        <path d="M632.336,514.763C611.008,514.763 592.285,499.932 581.588,477.582C583.574,500.701 594.658,528.466 632.502,528.466C669.838,528.466 681.484,500.085 683.449,476.819C672.816,499.596 653.906,514.763 632.336,514.763Z" style="fill:rgb(247,146,53);fill-rule:nonzero;"/>
    </g>
    <g transform="matrix(4.16667,0,0,4.16667,-2344.42,-1622.95)">
        <path d="M682.871,456.932C672.139,479.036 653.521,493.67 632.336,493.67C611.434,493.67 593.023,479.432 582.229,457.823C581.543,461.535 581.227,465.373 581.227,469.253C581.227,471.916 581.342,474.714 581.588,477.582C592.285,499.932 611.008,514.763 632.336,514.763C653.906,514.763 672.816,499.596 683.449,476.819C683.668,474.218 683.773,471.679 683.773,469.253C683.773,465.061 683.512,460.919 682.871,456.932Z" style="fill:rgb(6,179,133);fill-rule:nonzero;"/>
    </g>
    <g transform="matrix(4.16667,0,0,4.16667,-2344.42,-1622.95)">
        <path d="M632.502,422.56C599.553,422.56 585.801,438.451 582.229,457.823C593.023,479.432 611.434,493.67 632.336,493.67C653.521,493.67 672.139,479.036 682.871,456.932C679.82,437.967 667.969,422.56 632.502,422.56Z" style="fill:rgb(0,133,156);fill-rule:nonzero;"/>
    </g>
    <g transform="matrix(4.16667,0,0,4.16667,-2344.42,-1622.95)">
        <path d="M630.568,469.572L630.572,469.572C630.936,469.624 631.303,469.662 631.684,469.672C631.303,469.662 630.934,469.624 630.568,469.572ZM603.254,416.321L603.24,416.303C603.24,416.303 603.242,416.389 603.242,416.522C603.182,417.31 603.125,418.101 603.125,418.906C603.125,419.15 603.148,419.39 603.154,419.635C602.988,422.596 602.549,427.22 601.262,432.096C600.354,435.516 599.035,439.06 597.082,442.242C595.664,444.56 594.541,447.193 593.641,449.907C590.107,460.538 590.094,472.499 590.094,472.499C590.648,495.454 609.416,529.189 632.502,529.189L632.502,469.62L632.502,446.558L632.502,389.529C617.15,389.529 604.564,401.309 603.254,416.321Z" style="fill:rgb(0,133,156);fill-rule:nonzero;"/>
    </g>
    <g transform="matrix(4.16667,0,0,4.16667,-2344.42,-1622.95)">
        <path d="M671.531,450.374C670.611,447.498 669.447,444.699 667.951,442.242C666.168,439.315 664.904,436.084 664.01,432.928C662.479,427.539 662.016,422.357 661.865,419.261C661.865,419.142 661.879,419.024 661.879,418.906C661.879,418.371 661.826,417.846 661.799,417.318C661.787,416.685 661.797,416.303 661.797,416.303L661.752,416.37C660.461,401.332 647.871,389.529 632.502,389.529L632.502,529.189C655.607,529.189 674.385,495.422 674.908,472.447C674.908,472.447 674.896,460.871 671.531,450.374Z" style="fill:rgb(0,166,171);fill-rule:nonzero;"/>
    </g>
    <g transform="matrix(4.16667,0,0,4.16667,-2344.42,-1622.95)">
        <path d="M615.721,526.2C615.721,527.85 614.383,529.189 612.732,529.189C611.08,529.189 609.742,527.85 609.742,526.2L609.742,520.805C609.742,519.154 611.08,517.815 612.732,517.815C614.383,517.815 615.721,519.154 615.721,520.805L615.721,526.2Z" style="fill:rgb(111,112,112);fill-rule:nonzero;"/>
    </g>
    <g transform="matrix(4.16667,0,0,4.16667,-2344.42,-1622.95)">
        <path d="M621.703,526.2C621.703,527.85 620.363,529.189 618.713,529.189C617.061,529.189 615.721,527.85 615.721,526.2L615.721,520.805C615.721,519.154 617.061,517.815 618.713,517.815C620.363,517.815 621.703,519.154 621.703,520.805L621.703,526.2Z" style="fill:rgb(111,112,112);fill-rule:nonzero;"/>
    </g>
    <g transform="matrix(4.16667,0,0,4.16667,-2344.42,-1622.95)">
        <path d="M627.684,526.2C627.684,527.85 626.346,529.189 624.693,529.189C623.041,529.189 621.703,527.85 621.703,526.2L621.703,520.805C621.703,519.154 623.041,517.815 624.693,517.815C626.346,517.815 627.684,519.154 627.684,520.805L627.684,526.2Z" style="fill:rgb(111,112,112);fill-rule:nonzero;"/>
    </g>
    <g transform="matrix(4.16667,0,0,4.16667,-2344.42,-1622.95)">
        <path d="M643.299,526.2C643.299,527.85 641.961,529.189 640.309,529.189C638.656,529.189 637.318,527.85 637.318,526.2L637.318,520.805C637.318,519.154 638.656,517.815 640.309,517.815C641.961,517.815 643.299,519.154 643.299,520.805L643.299,526.2Z" style="fill:rgb(150,153,155);fill-rule:nonzero;"/>
    </g>
    <g transform="matrix(4.16667,0,0,4.16667,-2344.42,-1622.95)">
        <path d="M649.279,526.2C649.279,527.85 647.941,529.189 646.291,529.189C644.637,529.189 643.299,527.85 643.299,526.2L643.299,520.805C643.299,519.154 644.637,517.815 646.291,517.815C647.941,517.815 649.279,519.154 649.279,520.805L649.279,526.2Z" style="fill:rgb(150,153,155);fill-rule:nonzero;"/>
    </g>
    <g transform="matrix(4.16667,0,0,4.16667,-2344.42,-1622.95)">
        <path d="M655.262,526.2C655.262,527.85 653.922,529.189 652.27,529.189C650.619,529.189 649.279,527.85 649.279,526.2L649.279,520.805C649.279,519.154 650.619,517.815 652.27,517.815C653.922,517.815 655.262,519.154 655.262,520.805L655.262,526.2Z" style="fill:rgb(150,153,155);fill-rule:nonzero;"/>
    </g>
    <g transform="matrix(4.16667,0,0,4.16667,-2344.42,-1622.95)">
        <path d="M645.59,397.753C639.686,397.793 634.645,401.242 632.514,406.112C630.31,401.271 625.223,397.896 619.318,397.938C611.445,397.994 605.102,404.107 605.154,411.589C605.208,419.072 611.638,425.089 619.509,425.036C625.414,424.994 630.483,425.822 632.62,420.948C634.818,425.792 639.878,424.891 645.781,424.849C653.655,424.793 659.999,418.684 659.946,411.203C659.894,403.718 653.464,397.697 645.59,397.753Z" style="fill:rgb(250,236,229);fill-rule:nonzero;"/>
    </g>
    <g transform="matrix(4.16667,0,0,4.16667,-2344.42,-1622.95)">
        <path d="M624.494,411.364C624.515,414.386 622.083,416.854 619.061,416.875C616.034,416.898 613.569,414.463 613.549,411.441C613.527,408.418 615.957,405.95 618.984,405.928C622.005,405.908 624.473,408.341 624.494,411.364Z" style="fill:rgb(59,57,62);fill-rule:nonzero;"/>
    </g>
    <g transform="matrix(4.16667,0,0,4.16667,-2344.42,-1622.95)">
        <path d="M651.706,411.17C651.728,414.193 649.292,416.663 646.27,416.684C643.245,416.705 640.777,414.271 640.757,411.249C640.735,408.226 643.167,405.757 646.191,405.736C649.214,405.714 651.685,408.148 651.706,411.17Z" style="fill:rgb(59,57,62);fill-rule:nonzero;"/>
    </g>
    <g transform="matrix(4.16667,0,0,4.16667,-2344.42,-1622.95)">
        <path d="M623.144,409.477C623.151,410.524 622.31,411.378 621.265,411.386C620.218,411.393 619.364,410.551 619.356,409.504C619.35,408.46 620.19,407.606 621.237,407.598C622.282,407.592 623.138,408.432 623.144,409.477Z" style="fill:white;fill-rule:nonzero;"/>
    </g>
    <g transform="matrix(4.16667,0,0,4.16667,-2344.42,-1622.95)">
        <path d="M650.3,409.285C650.307,410.332 649.466,411.185 648.419,411.195C647.373,411.202 646.52,410.359 646.513,409.312C646.505,408.267 647.347,407.415 648.392,407.407C649.438,407.4 650.293,408.24 650.3,409.285Z" style="fill:white;fill-rule:nonzero;"/>
    </g>
    <g transform="matrix(4.16667,0,0,4.16667,-2344.42,-1622.95)">
        <path d="M632.561,523.857C632.561,523.857 618.021,506.467 610.522,498.857C602.605,490.823 594.457,467.486 602.132,442.812C603.946,436.98 609.218,423.857 624.425,424.607L632.425,430.607" style="fill:rgb(247,146,53);fill-rule:nonzero;"/>
    </g>
    <g transform="matrix(4.16667,0,0,4.16667,-2344.42,-1622.95)">
        <path d="M632.5,523.857C632.5,523.857 646.9,507.157 654.538,498.857C661.824,490.939 670.604,467.486 662.929,442.812C661.114,436.98 655.843,423.857 640.636,424.607L632.425,430.607L632.5,512.857L632.5,523.857Z" style="fill:rgb(254,197,80);fill-rule:nonzero;"/>
    </g>
    <g transform="matrix(4.16667,0,0,4.16667,-2344.42,-1622.95)">
        <path d="M625.123,417.069C624.22,419.919 623.309,423.439 624.619,425.642L629.949,436.629C630.605,437.736 631.471,438.288 632.336,438.288L632.336,404.497C629.502,404.497 625.675,415.327 625.123,417.069Z" style="fill:rgb(59,57,62);fill-rule:nonzero;"/>
    </g>
    <g transform="matrix(4.16667,0,0,4.16667,-2344.42,-1622.95)">
        <path d="M634.721,436.629L640.051,425.642C641.365,423.439 640.595,420.107 639.547,417.069C639.09,415.745 634.701,404.497 632.336,404.497L632.336,438.288C633.199,438.288 634.066,437.736 634.721,436.629Z" style="fill:rgb(111,112,112);fill-rule:nonzero;"/>
    </g>
</svg>
