<?xml version="1.0" encoding="UTF-8" standalone="no"?>
<!DOCTYPE svg PUBLIC "-//W3C//DTD SVG 1.1//EN" "http://www.w3.org/Graphics/SVG/1.1/DTD/svg11.dtd">
<svg width="100%" height="100%" viewBox="0 0 582 582" version="1.1" xmlns="http://www.w3.org/2000/svg" xmlns:xlink="http://www.w3.org/1999/xlink" xml:space="preserve" xmlns:serif="http://www.serif.com/" style="fill-rule:evenodd;clip-rule:evenodd;stroke-linejoin:round;stroke-miterlimit:1.41421;">
    <g transform="matrix(4.16667,0,0,4.16667,-434.333,-2385.66)">
        <path d="M225.353,652.292C225.353,676.422 202.4,711.505 174.082,711.505C145.763,711.505 122.807,676.422 122.807,652.292C122.807,628.161 145.763,608.599 174.082,608.599C202.4,608.599 225.353,628.161 225.353,652.292Z" style="fill:rgb(247,146,53);fill-rule:nonzero;"/>
    </g>
    <g transform="matrix(4.16667,0,0,4.16667,-434.333,-2385.66)">
        <path d="M172.148,652.611L172.152,652.611C172.515,652.663 172.883,652.701 173.264,652.711C172.882,652.701 172.514,652.663 172.148,652.611ZM144.833,599.36L144.821,599.342C144.821,599.342 144.823,599.428 144.823,599.561C144.761,600.349 144.705,601.14 144.705,601.945C144.705,602.189 144.729,602.429 144.734,602.674C144.568,605.635 144.128,610.259 142.841,615.135C141.933,618.555 140.615,622.099 138.663,625.281C137.245,627.599 136.121,630.232 135.221,632.946C131.688,643.577 131.673,655.538 131.673,655.538C132.229,678.493 150.997,712.228 174.083,712.228L174.083,652.659L174.083,629.597L174.083,572.568C158.73,572.568 146.144,584.348 144.833,599.36Z" style="fill:rgb(249,160,51);fill-rule:nonzero;"/>
    </g>
    <g transform="matrix(4.16667,0,0,4.16667,-434.333,-2385.66)">
        <path d="M213.112,633.413C212.191,630.537 211.028,627.738 209.531,625.281C207.749,622.354 206.485,619.124 205.589,615.967C204.058,610.578 203.595,605.396 203.446,602.3C203.446,602.181 203.459,602.063 203.459,601.945C203.459,601.41 203.407,600.885 203.379,600.357C203.368,599.724 203.376,599.342 203.376,599.342L203.332,599.409C202.041,584.371 189.452,572.568 174.083,572.568L174.083,712.228C197.187,712.228 215.964,678.461 216.489,655.486C216.489,655.486 216.476,643.91 213.112,633.413Z" style="fill:rgb(254,197,80);fill-rule:nonzero;"/>
    </g>
    <g transform="matrix(4.16667,0,0,4.16667,-434.333,-2385.66)">
        <path d="M170.025,595.598L164.704,599.108C162.565,600.521 161.888,603.478 163.2,605.681L171.529,619.668C172.186,620.775 173.05,621.327 173.916,621.327L173.916,594.536C172.5,594.536 171.095,594.89 170.025,595.598Z" style="fill:rgb(244,135,147);fill-rule:nonzero;"/>
    </g>
    <g transform="matrix(4.16667,0,0,4.16667,-434.333,-2385.66)">
        <path d="M176.301,619.668L184.631,605.681C185.946,603.478 185.267,600.521 183.127,599.108L177.805,595.598C176.735,594.89 175.325,594.536 173.916,594.536L173.916,621.327C174.78,621.327 175.646,620.775 176.301,619.668Z" style="fill:rgb(249,179,167);fill-rule:nonzero;"/>
    </g>
    <g transform="matrix(4.16667,0,0,4.16667,-434.333,-2385.66)">
        <path d="M152.308,592.803C152.308,595.782 153.801,598.197 155.644,598.197C157.486,598.197 158.979,595.782 158.979,592.803C158.979,589.824 157.486,587.411 155.644,587.411C153.801,587.411 152.308,589.824 152.308,592.803Z" style="fill:rgb(13,18,28);fill-rule:nonzero;"/>
    </g>
    <g transform="matrix(4.16667,0,0,4.16667,-434.333,-2385.66)">
        <path d="M155.882,590.712C155.882,591.511 155.232,592.161 154.433,592.161C153.633,592.161 152.985,591.511 152.985,590.712C152.985,589.912 153.633,589.264 154.433,589.264C155.232,589.264 155.882,589.912 155.882,590.712Z" style="fill:white;fill-rule:nonzero;"/>
    </g>
    <g transform="matrix(4.16667,0,0,4.16667,-434.333,-2385.66)">
        <path d="M189.183,592.803C189.183,595.782 190.676,598.197 192.518,598.197C194.36,598.197 195.854,595.782 195.854,592.803C195.854,589.824 194.36,587.411 192.518,587.411C190.676,587.411 189.183,589.824 189.183,592.803Z" style="fill:rgb(13,18,28);fill-rule:nonzero;"/>
    </g>
    <g transform="matrix(4.16667,0,0,4.16667,-434.333,-2385.66)">
        <path d="M192.756,590.712C192.756,591.511 192.106,592.161 191.307,592.161C190.507,592.161 189.86,591.511 189.86,590.712C189.86,589.912 190.507,589.264 191.307,589.264C192.106,589.264 192.756,589.912 192.756,590.712Z" style="fill:white;fill-rule:nonzero;"/>
    </g>
    <g transform="matrix(4.16667,0,0,4.16667,-434.333,-2385.66)">
        <path d="M157.301,709.239C157.301,710.889 155.963,712.228 154.312,712.228C152.661,712.228 151.322,710.889 151.322,709.239L151.322,703.843C151.322,702.193 152.661,700.854 154.312,700.854C155.963,700.854 157.301,702.193 157.301,703.843L157.301,709.239Z" style="fill:rgb(244,135,147);fill-rule:nonzero;"/>
    </g>
    <g transform="matrix(4.16667,0,0,4.16667,-434.333,-2385.66)">
        <path d="M163.283,709.239C163.283,710.889 161.944,712.228 160.293,712.228C158.641,712.228 157.301,710.889 157.301,709.239L157.301,703.843C157.301,702.193 158.641,700.854 160.293,700.854C161.944,700.854 163.283,702.193 163.283,703.843L163.283,709.239Z" style="fill:rgb(244,135,147);fill-rule:nonzero;"/>
    </g>
    <g transform="matrix(4.16667,0,0,4.16667,-434.333,-2385.66)">
        <path d="M169.264,709.239C169.264,710.889 167.925,712.228 166.274,712.228C164.622,712.228 163.283,710.889 163.283,709.239L163.283,703.843C163.283,702.193 164.622,700.854 166.274,700.854C167.925,700.854 169.264,702.193 169.264,703.843L169.264,709.239Z" style="fill:rgb(244,135,147);fill-rule:nonzero;"/>
    </g>
    <g transform="matrix(4.16667,0,0,4.16667,-434.333,-2385.66)">
        <path d="M184.878,709.239C184.878,710.889 183.541,712.228 181.889,712.228C180.237,712.228 178.899,710.889 178.899,709.239L178.899,703.843C178.899,702.193 180.237,700.854 181.889,700.854C183.541,700.854 184.878,702.193 184.878,703.843L184.878,709.239Z" style="fill:rgb(249,179,167);fill-rule:nonzero;"/>
    </g>
    <g transform="matrix(4.16667,0,0,4.16667,-434.333,-2385.66)">
        <path d="M190.86,709.239C190.86,710.889 189.521,712.228 187.871,712.228C186.217,712.228 184.878,710.889 184.878,709.239L184.878,703.843C184.878,702.193 186.217,700.854 187.871,700.854C189.521,700.854 190.86,702.193 190.86,703.843L190.86,709.239Z" style="fill:rgb(249,179,167);fill-rule:nonzero;"/>
    </g>
    <g transform="matrix(4.16667,0,0,4.16667,-434.333,-2385.66)">
        <path d="M196.841,709.239C196.841,710.889 195.502,712.228 193.85,712.228C192.199,712.228 190.86,710.889 190.86,709.239L190.86,703.843C190.86,702.193 192.199,700.854 193.85,700.854C195.502,700.854 196.841,702.193 196.841,703.843L196.841,709.239Z" style="fill:rgb(249,179,167);fill-rule:nonzero;"/>
    </g>
</svg>
