<?xml version="1.0" encoding="UTF-8" standalone="no"?>
<!DOCTYPE svg PUBLIC "-//W3C//DTD SVG 1.1//EN" "http://www.w3.org/Graphics/SVG/1.1/DTD/svg11.dtd">
<svg width="100%" height="100%" viewBox="0 0 582 582" version="1.1" xmlns="http://www.w3.org/2000/svg" xmlns:xlink="http://www.w3.org/1999/xlink" xml:space="preserve" xmlns:serif="http://www.serif.com/" style="fill-rule:evenodd;clip-rule:evenodd;stroke-linejoin:round;stroke-miterlimit:1.41421;">
    <g transform="matrix(4.16667,0,0,4.16667,-430.608,-1620.87)">
        <path d="M224.459,468.745C224.459,492.874 201.506,527.958 173.188,527.958C144.87,527.958 121.913,492.874 121.913,468.745C121.913,444.612 144.87,425.051 173.188,425.051C201.506,425.051 224.459,444.612 224.459,468.745Z" style="fill:rgb(59,57,62);fill-rule:nonzero;"/>
    </g>
    <g transform="matrix(4.16667,0,0,4.16667,-430.608,-1620.87)">
        <path d="M171.254,469.063L171.258,469.063C171.622,469.114 171.989,469.153 172.37,469.163C171.989,469.153 171.62,469.114 171.254,469.063ZM143.94,415.811L143.926,415.793C143.926,415.793 143.928,415.879 143.928,416.012C143.868,416.801 143.811,417.592 143.811,418.397C143.811,418.641 143.834,418.881 143.84,419.125C143.674,422.086 143.235,426.711 141.948,431.586C141.04,435.006 139.721,438.551 137.768,441.733C136.35,444.051 135.227,446.684 134.327,449.397C130.793,460.028 130.78,471.989 130.78,471.989C131.334,494.944 150.102,528.68 173.188,528.68L173.188,469.11L173.188,446.049L173.188,389.02C157.836,389.02 145.25,400.799 143.94,415.811Z" style="fill:rgb(59,57,62);fill-rule:nonzero;"/>
    </g>
    <g transform="matrix(4.16667,0,0,4.16667,-430.608,-1620.87)">
        <path d="M212.217,449.864C211.297,446.989 210.133,444.19 208.637,441.733C206.854,438.805 205.59,435.575 204.696,432.418C203.165,427.03 202.702,421.848 202.551,418.752C202.551,418.633 202.565,418.514 202.565,418.397C202.565,417.862 202.512,417.336 202.485,416.809C202.473,416.176 202.483,415.793 202.483,415.793L202.438,415.86C201.147,400.823 188.557,389.02 173.188,389.02L173.188,528.68C196.293,528.68 215.071,494.913 215.594,471.938C215.594,471.938 215.583,460.362 212.217,449.864Z" style="fill:rgb(111,112,112);fill-rule:nonzero;"/>
    </g>
    <g transform="matrix(4.16667,0,0,4.16667,-430.608,-1620.87)">
        <path d="M173.022,400.987C173.022,400.987 158.26,397.526 151.985,407.114C145.709,416.702 148.709,429.369 146.543,434.869C144.375,440.369 125.667,474.036 173.022,501.87L173.022,400.987Z" style="fill:rgb(216,170,73);fill-rule:nonzero;"/>
    </g>
    <g transform="matrix(4.16667,0,0,4.16667,-430.608,-1620.87)">
        <path d="M173.127,400.987C173.127,400.987 187.889,397.526 194.165,407.114C200.44,416.702 197.438,429.369 199.606,434.869C201.772,440.369 220.481,474.036 173.127,501.87L173.127,400.987Z" style="fill:rgb(250,207,80);fill-rule:nonzero;"/>
    </g>
    <g transform="matrix(4.16667,0,0,4.16667,-430.608,-1620.87)">
        <path d="M195.151,410.431C195.151,414.332 191.989,417.496 188.088,417.496C184.188,417.496 181.026,414.332 181.026,410.431C181.026,406.531 184.188,403.369 188.088,403.369C191.989,403.369 195.151,406.531 195.151,410.431Z" style="fill:rgb(6,179,133);fill-rule:nonzero;"/>
    </g>
    <g transform="matrix(4.16667,0,0,4.16667,-430.608,-1620.87)">
        <path d="M165.282,410.432C165.282,414.333 162.118,417.497 158.219,417.497C154.317,417.497 151.155,414.333 151.155,410.432C151.155,406.532 154.317,403.37 158.219,403.37C162.118,403.37 165.282,406.532 165.282,410.432Z" style="fill:rgb(41,160,130);fill-rule:nonzero;"/>
    </g>
    <g transform="matrix(4.16667,0,0,4.16667,-430.608,-1620.87)">
        <path d="M162.518,410.432C162.518,412.807 160.594,414.733 158.219,414.733C155.844,414.733 153.918,412.807 153.918,410.432C153.918,408.059 155.844,406.135 158.219,406.135C160.594,406.135 162.518,408.059 162.518,410.432Z" style="fill:rgb(59,57,62);fill-rule:nonzero;"/>
    </g>
    <g transform="matrix(4.16667,0,0,4.16667,-430.608,-1620.87)">
        <path d="M192.387,410.431C192.387,412.806 190.461,414.732 188.088,414.732C185.713,414.732 183.788,412.806 183.788,410.431C183.788,408.058 185.713,406.134 188.088,406.134C190.461,406.134 192.387,408.058 192.387,410.431Z" style="fill:rgb(59,57,62);fill-rule:nonzero;"/>
    </g>
    <g transform="matrix(4.16667,0,0,4.16667,-430.608,-1620.87)">
        <path d="M160.965,408.673C160.965,409.644 160.176,410.432 159.204,410.432C158.235,410.432 157.446,409.644 157.446,408.673C157.446,407.703 158.235,406.915 159.204,406.915C160.176,406.915 160.965,407.703 160.965,408.673Z" style="fill:white;fill-rule:nonzero;"/>
    </g>
    <g transform="matrix(4.16667,0,0,4.16667,-430.608,-1620.87)">
        <path d="M190.852,408.672C190.852,409.643 190.063,410.431 189.092,410.431C188.12,410.431 187.333,409.643 187.333,408.672C187.333,407.702 188.12,406.914 189.092,406.914C190.063,406.914 190.852,407.702 190.852,408.672Z" style="fill:white;fill-rule:nonzero;"/>
    </g>
    <g transform="matrix(4.16667,0,0,4.16667,-430.608,-1620.87)">
        <path d="M156.407,525.69C156.407,527.34 155.069,528.68 153.418,528.68C151.766,528.68 150.428,527.34 150.428,525.69L150.428,520.295C150.428,518.646 151.766,517.305 153.418,517.305C155.069,517.305 156.407,518.646 156.407,520.295L156.407,525.69Z" style="fill:rgb(199,177,154);fill-rule:nonzero;"/>
    </g>
    <g transform="matrix(4.16667,0,0,4.16667,-430.608,-1620.87)">
        <path d="M162.389,525.69C162.389,527.34 161.049,528.68 159.399,528.68C157.747,528.68 156.407,527.34 156.407,525.69L156.407,520.295C156.407,518.646 157.747,517.305 159.399,517.305C161.049,517.305 162.389,518.646 162.389,520.295L162.389,525.69Z" style="fill:rgb(199,177,154);fill-rule:nonzero;"/>
    </g>
    <g transform="matrix(4.16667,0,0,4.16667,-430.608,-1620.87)">
        <path d="M168.37,525.69C168.37,527.34 167.032,528.68 165.379,528.68C163.727,528.68 162.389,527.34 162.389,525.69L162.389,520.295C162.389,518.646 163.727,517.305 165.379,517.305C167.032,517.305 168.37,518.646 168.37,520.295L168.37,525.69Z" style="fill:rgb(199,177,154);fill-rule:nonzero;"/>
    </g>
    <g transform="matrix(4.16667,0,0,4.16667,-430.608,-1620.87)">
        <path d="M183.985,525.69C183.985,527.34 182.647,528.68 180.995,528.68C179.342,528.68 178.004,527.34 178.004,525.69L178.004,520.295C178.004,518.646 179.342,517.305 180.995,517.305C182.647,517.305 183.985,518.646 183.985,520.295L183.985,525.69Z" style="fill:rgb(217,200,182);fill-rule:nonzero;"/>
    </g>
    <g transform="matrix(4.16667,0,0,4.16667,-430.608,-1620.87)">
        <path d="M189.965,525.69C189.965,527.34 188.627,528.68 186.977,528.68C185.323,528.68 183.985,527.34 183.985,525.69L183.985,520.295C183.985,518.646 185.323,517.305 186.977,517.305C188.627,517.305 189.965,518.646 189.965,520.295L189.965,525.69Z" style="fill:rgb(217,200,182);fill-rule:nonzero;"/>
    </g>
    <g transform="matrix(4.16667,0,0,4.16667,-430.608,-1620.87)">
        <path d="M195.948,525.69C195.948,527.34 194.608,528.68 192.956,528.68C191.305,528.68 189.965,527.34 189.965,525.69L189.965,520.295C189.965,518.646 191.305,517.305 192.956,517.305C194.608,517.305 195.948,518.646 195.948,520.295L195.948,525.69Z" style="fill:rgb(217,200,182);fill-rule:nonzero;"/>
    </g>
    <g transform="matrix(4.16667,0,0,4.16667,-430.608,-1620.87)">
        <path d="M173.022,417.524L173.022,400.987C171.606,400.987 169.985,402.091 169.131,403.049C167.172,405.248 164.844,412.729 163.809,415.559C163.206,417.208 161.645,425.167 161.475,433.068C164.325,423.522 168.442,417.524 173.022,417.524Z" style="fill:rgb(41,160,130);fill-rule:nonzero;"/>
    </g>
    <g transform="matrix(4.16667,0,0,4.16667,-430.608,-1620.87)">
        <path d="M184.438,432.65C184.352,424.399 182.899,417.621 182.233,415.559C181.329,412.755 178.87,405.248 176.911,403.049C176.057,402.091 174.43,400.987 173.022,400.987L173.022,417.524C177.534,417.524 181.594,423.35 184.438,432.65Z" style="fill:rgb(6,179,133);fill-rule:nonzero;"/>
    </g>
    <g transform="matrix(4.16667,0,0,4.16667,-430.608,-1620.87)">
        <path d="M162.305,443.133C164.192,451.067 166.709,457.868 169.635,462.12C170.364,463.18 172.157,464.778 173.022,464.778L173.022,417.524C168.442,417.524 164.325,423.522 161.475,433.068C161.399,436.628 161.602,440.177 162.305,443.133Z" style="fill:rgb(204,56,56);fill-rule:nonzero;"/>
    </g>
    <g transform="matrix(4.16667,0,0,4.16667,-430.608,-1620.87)">
        <path d="M173.022,417.524L173.022,464.778C173.885,464.778 175.665,463.17 176.407,462.12C179.293,458.035 182.823,449.068 183.737,443.133C184.292,439.537 184.473,435.977 184.438,432.65C181.594,423.35 177.534,417.524 173.022,417.524Z" style="fill:rgb(240,77,92);fill-rule:nonzero;"/>
    </g>
</svg>
