<?xml version="1.0" encoding="UTF-8" standalone="no"?>
<!DOCTYPE svg PUBLIC "-//W3C//DTD SVG 1.1//EN" "http://www.w3.org/Graphics/SVG/1.1/DTD/svg11.dtd">
<svg width="100%" height="100%" viewBox="0 0 580 580" version="1.1" xmlns="http://www.w3.org/2000/svg" xmlns:xlink="http://www.w3.org/1999/xlink" xml:space="preserve" xmlns:serif="http://www.serif.com/" style="fill-rule:evenodd;clip-rule:evenodd;stroke-linejoin:round;stroke-miterlimit:1.41421;">
    <g transform="matrix(4.16667,0,0,4.16667,-2347.11,-836.827)">
        <path d="M682.986,268.026C679.953,249.17 668.17,233.852 632.907,233.852C600.148,233.852 586.476,249.651 582.924,268.912C582.242,272.602 581.928,276.417 581.928,280.276C581.928,282.922 582.042,285.706 582.287,288.556C584.262,311.542 607.09,339.147 632.907,339.147C658.588,339.147 681.607,310.93 683.561,287.797C683.778,285.212 683.883,282.688 683.883,280.276C683.883,276.108 683.623,271.99 682.986,268.026Z" style="fill:rgb(59,57,62);fill-rule:nonzero;"/>
    </g>
    <g transform="matrix(4.16667,0,0,4.16667,-2347.11,-836.827)">
        <path d="M630.984,280.592L630.988,280.592C631.35,280.644 631.714,280.682 632.093,280.693C631.714,280.682 631.348,280.644 630.984,280.592ZM632.906,273.335L626.063,267.524L619.029,273.499L611.998,267.524L604.962,273.498L597.927,267.524L591.594,272.903C590.749,278.913 590.743,283.502 590.743,283.502C591.295,306.325 609.953,339.866 632.906,339.866L632.906,280.64L632.906,273.335Z" style="fill:rgb(59,57,62);fill-rule:nonzero;"/>
    </g>
    <g transform="matrix(4.16667,0,0,4.16667,-2347.11,-836.827)">
        <path d="M661.24,273.497L654.203,267.523L647.17,273.499L640.133,267.523L633.099,273.499L632.906,273.335L632.906,339.866C655.879,339.866 674.548,306.293 675.068,283.451C675.068,283.451 675.063,278.556 674.131,272.258L668.285,267.521L661.24,273.497Z" style="fill:rgb(111,112,112);fill-rule:nonzero;"/>
    </g>
    <g transform="matrix(4.16667,0,0,4.16667,-2347.11,-836.827)">
        <path d="M604.962,273.498L611.998,267.524L619.029,273.499L626.063,267.524L632.906,273.335L632.906,257.711L632.906,201.011C617.644,201.011 605.13,212.723 603.827,227.649L603.813,227.631C603.813,227.631 603.815,227.716 603.815,227.848C603.755,228.632 603.699,229.418 603.699,230.219C603.699,230.461 603.723,230.701 603.729,230.944C603.563,233.888 603.126,238.485 601.847,243.333C600.943,246.733 599.633,250.256 597.691,253.42C596.281,255.725 595.164,258.342 594.27,261.041C592.938,265.045 592.111,269.238 591.594,272.903L597.927,267.524L604.962,273.498Z" style="fill:rgb(204,199,168);fill-rule:nonzero;"/>
    </g>
    <g transform="matrix(4.16667,0,0,4.16667,-2347.11,-836.827)">
        <path d="M668.151,253.42C666.378,250.51 665.122,247.298 664.232,244.161C662.71,238.801 662.25,233.65 662.101,230.572C662.101,230.454 662.113,230.336 662.113,230.219C662.113,229.687 662.062,229.166 662.034,228.64C662.022,228.011 662.032,227.631 662.032,227.631L661.987,227.698C660.704,212.746 648.187,201.011 632.906,201.011L632.906,273.335L633.099,273.499L640.133,267.523L647.17,273.499L654.203,267.523L661.24,273.497L668.285,267.521L674.131,272.258C673.634,268.897 672.875,265.136 671.711,261.505C670.796,258.646 669.639,255.863 668.151,253.42Z" style="fill:rgb(237,231,195);fill-rule:nonzero;"/>
    </g>
    <g transform="matrix(4.16667,0,0,4.16667,-2347.11,-836.827)">
        <path d="M622.709,220.439C621.34,222.836 620.906,225.782 622.208,227.968L630.49,241.875C631.143,242.975 632.002,243.523 632.863,243.523L632.863,215.893C630.045,215.893 623.609,218.861 622.709,220.439Z" style="fill:rgb(247,146,53);fill-rule:nonzero;"/>
    </g>
    <g transform="matrix(4.16667,0,0,4.16667,-2347.11,-836.827)">
        <path d="M635.233,241.875L643.516,227.968C644.822,225.778 644.653,223.357 643.015,220.439C642.333,219.224 635.215,215.893 632.863,215.893L632.863,243.523C633.721,243.523 634.583,242.975 635.233,241.875Z" style="fill:rgb(250,207,80);fill-rule:nonzero;"/>
    </g>
    <g transform="matrix(4.16667,0,0,4.16667,-2347.11,-836.827)">
        <path d="M614.523,336.149C614.523,338.201 612.859,339.866 610.809,339.866C608.753,339.866 607.09,338.201 607.09,336.149L607.09,329.439C607.09,327.387 608.753,325.722 610.809,325.722C612.859,325.722 614.523,327.387 614.523,329.439L614.523,336.149Z" style="fill:rgb(199,177,154);fill-rule:nonzero;"/>
    </g>
    <g transform="matrix(4.16667,0,0,4.16667,-2347.11,-836.827)">
        <path d="M621.963,336.149C621.963,338.201 620.297,339.866 618.244,339.866C616.189,339.866 614.523,338.201 614.523,336.149L614.523,329.439C614.523,327.387 616.189,325.722 618.244,325.722C620.297,325.722 621.963,327.387 621.963,329.439L621.963,336.149Z" style="fill:rgb(199,177,154);fill-rule:nonzero;"/>
    </g>
    <g transform="matrix(4.16667,0,0,4.16667,-2347.11,-836.827)">
        <path d="M629.399,336.149C629.399,338.201 627.736,339.866 625.681,339.866C623.626,339.866 621.963,338.201 621.963,336.149L621.963,329.439C621.963,327.387 623.626,325.722 625.681,325.722C627.736,325.722 629.399,327.387 629.399,329.439L629.399,336.149Z" style="fill:rgb(199,177,154);fill-rule:nonzero;"/>
    </g>
    <g transform="matrix(4.16667,0,0,4.16667,-2347.11,-836.827)">
        <path d="M643.846,336.149C643.846,338.201 642.182,339.866 640.127,339.866C638.072,339.866 636.408,338.201 636.408,336.149L636.408,329.439C636.408,327.387 638.072,325.722 640.127,325.722C642.182,325.722 643.846,327.387 643.846,329.439L643.846,336.149Z" style="fill:rgb(217,200,182);fill-rule:nonzero;"/>
    </g>
    <g transform="matrix(4.16667,0,0,4.16667,-2347.11,-836.827)">
        <path d="M651.282,336.149C651.282,338.201 649.619,339.866 647.566,339.866C645.509,339.866 643.846,338.201 643.846,336.149L643.846,329.439C643.846,327.387 645.509,325.722 647.566,325.722C649.619,325.722 651.282,327.387 651.282,329.439L651.282,336.149Z" style="fill:rgb(217,200,182);fill-rule:nonzero;"/>
    </g>
    <g transform="matrix(4.16667,0,0,4.16667,-2347.11,-836.827)">
        <path d="M658.722,336.149C658.722,338.201 657.056,339.866 655.001,339.866C652.948,339.866 651.282,338.201 651.282,336.149L651.282,329.439C651.282,327.387 652.948,325.722 655.001,325.722C657.056,325.722 658.722,327.387 658.722,329.439L658.722,336.149Z" style="fill:rgb(217,200,182);fill-rule:nonzero;"/>
    </g>
    <g transform="matrix(4.16667,0,0,4.16667,-2347.11,-836.827)">
        <path d="M611.566,220.034C611.566,223.046 614.008,225.489 617.021,225.489C620.033,225.489 622.475,223.046 622.475,220.034C622.475,217.828 620.426,216.101 617.021,214.58C614.271,213.351 611.566,217.022 611.566,220.034Z" style="fill:rgb(247,146,53);fill-rule:nonzero;"/>
    </g>
    <g transform="matrix(4.16667,0,0,4.16667,-2347.11,-836.827)">
        <path d="M614.621,220.034C614.621,221.358 615.695,222.433 617.021,222.433C618.347,222.433 619.421,221.358 619.421,220.034C619.421,218.709 618.347,217.634 617.021,217.634C615.695,217.634 614.621,218.709 614.621,220.034Z" style="fill:rgb(59,57,62);fill-rule:nonzero;"/>
    </g>
    <g transform="matrix(4.16667,0,0,4.16667,-2347.11,-836.827)">
        <path d="M654.257,220.034C654.257,223.046 651.815,225.489 648.803,225.489C645.791,225.489 643.349,223.046 643.349,220.034C643.349,217.828 645.397,216.101 648.803,214.58C651.553,213.351 654.257,217.022 654.257,220.034Z" style="fill:rgb(250,207,80);fill-rule:nonzero;"/>
    </g>
    <g transform="matrix(4.16667,0,0,4.16667,-2347.11,-836.827)">
        <path d="M646.402,220.034C646.402,221.358 647.477,222.433 648.803,222.433C650.129,222.433 651.203,221.358 651.203,220.034C651.203,218.709 650.129,217.634 648.803,217.634C647.477,217.634 646.402,218.709 646.402,220.034Z" style="fill:rgb(59,57,62);fill-rule:nonzero;"/>
    </g>
</svg>
