<?xml version="1.0" encoding="UTF-8" standalone="no"?>
<!DOCTYPE svg PUBLIC "-//W3C//DTD SVG 1.1//EN" "http://www.w3.org/Graphics/SVG/1.1/DTD/svg11.dtd">
<svg width="100%" height="100%" viewBox="0 0 580 580" version="1.1" xmlns="http://www.w3.org/2000/svg" xmlns:xlink="http://www.w3.org/1999/xlink" xml:space="preserve" xmlns:serif="http://www.serif.com/" style="fill-rule:evenodd;clip-rule:evenodd;stroke-linejoin:round;stroke-miterlimit:1.41421;">
    <g transform="matrix(4.16667,0,0,4.16667,-1383.58,-839.073)">
        <path d="M451.74,268.565C448.707,249.709 436.924,234.391 401.661,234.391C368.902,234.391 355.229,250.19 351.678,269.451C350.996,273.141 350.682,276.957 350.682,280.815C350.682,283.461 350.796,286.245 351.041,289.095C353.016,312.081 375.844,339.686 401.661,339.686C427.342,339.686 450.361,311.469 452.314,288.336C452.532,285.751 452.637,283.227 452.637,280.815C452.637,276.647 452.377,272.529 451.74,268.565Z" style="fill:rgb(109,63,60);fill-rule:nonzero;"/>
    </g>
    <g transform="matrix(4.16667,0,0,4.16667,-1383.58,-839.073)">
        <path d="M399.738,281.131L399.742,281.131C400.104,281.183 400.468,281.221 400.847,281.232C400.468,281.221 400.102,281.183 399.738,281.131ZM401.66,273.875L394.817,268.063L387.783,274.038L380.752,268.063L373.716,274.037L366.681,268.063L360.348,273.442C359.503,279.452 359.497,284.042 359.497,284.042C360.049,306.864 378.707,340.405 401.66,340.405L401.66,281.179L401.66,273.875Z" style="fill:rgb(109,63,60);fill-rule:nonzero;"/>
    </g>
    <g transform="matrix(4.16667,0,0,4.16667,-1383.58,-839.073)">
        <path d="M429.994,274.036L422.957,268.062L415.924,274.038L408.887,268.062L401.853,274.038L401.66,273.875L401.66,340.405C424.633,340.405 443.302,306.833 443.822,283.99C443.822,283.99 443.816,279.095 442.885,272.797L437.039,268.06L429.994,274.036Z" style="fill:rgb(151,87,94);fill-rule:nonzero;"/>
    </g>
    <g transform="matrix(4.16667,0,0,4.16667,-1383.58,-839.073)">
        <path d="M373.716,274.037L380.752,268.063L387.783,274.038L394.817,268.063L401.66,273.875L401.66,258.25L401.66,201.55C386.397,201.55 373.884,213.262 372.581,228.188L372.567,228.17C372.567,228.17 372.569,228.255 372.569,228.387C372.509,229.171 372.453,229.958 372.453,230.758C372.453,231 372.477,231.24 372.482,231.483C372.316,234.427 371.88,239.024 370.601,243.872C369.697,247.272 368.387,250.795 366.445,253.959C365.035,256.264 363.918,258.881 363.023,261.58C361.692,265.584 360.865,269.777 360.348,273.442L366.681,268.063L373.716,274.037Z" style="fill:rgb(159,116,120);fill-rule:nonzero;"/>
    </g>
    <g transform="matrix(4.16667,0,0,4.16667,-1383.58,-839.073)">
        <path d="M436.905,253.959C435.132,251.049 433.876,247.837 432.986,244.7C431.464,239.34 431.004,234.189 430.854,231.111C430.854,230.993 430.867,230.875 430.867,230.758C430.867,230.226 430.815,229.705 430.788,229.179C430.776,228.55 430.786,228.17 430.786,228.17L430.741,228.237C429.458,213.285 416.94,201.55 401.66,201.55L401.66,273.875L401.853,274.038L408.887,268.062L415.924,274.038L422.957,268.062L429.994,274.036L437.039,268.06L442.885,272.797C442.388,269.436 441.629,265.675 440.465,262.044C439.55,259.185 438.393,256.402 436.905,253.959Z" style="fill:rgb(167,154,157);fill-rule:nonzero;"/>
    </g>
    <g transform="matrix(4.16667,0,0,4.16667,-1383.58,-839.073)">
        <path d="M393.678,278.131C394.468,280.192 393.928,282.776 392.405,284.675C390.875,286.593 388.435,287.803 385.813,287.784C383.375,287.808 380.798,286.597 379.311,284.678C377.786,282.78 377.245,280.192 378.041,278.131C378.815,280.17 379.964,281.651 381.352,282.639C382.749,283.632 384.239,284.111 385.906,284.117C387.386,284.117 389.014,283.636 390.372,282.643C391.763,281.656 392.909,280.17 393.678,278.131Z" style="fill:rgb(82,21,19);fill-rule:nonzero;"/>
    </g>
    <g transform="matrix(4.16667,0,0,4.16667,-1383.58,-839.073)">
        <path d="M409.315,278.131C410.104,280.192 409.565,282.776 408.043,284.675C406.514,286.593 404.073,287.803 401.451,287.784C399.013,287.808 396.438,286.597 394.947,284.678C393.422,282.78 392.886,280.192 393.678,278.131C394.452,280.17 395.603,281.651 396.989,282.639C398.387,283.632 399.879,284.111 401.544,284.117C403.022,284.117 404.652,283.636 406.012,282.643C407.398,281.656 408.548,280.17 409.315,278.131Z" style="fill:rgb(82,21,19);fill-rule:nonzero;"/>
    </g>
    <g transform="matrix(4.16667,0,0,4.16667,-1383.58,-839.073)">
        <path d="M385.886,288.017C386.675,290.079 386.136,292.664 384.611,294.563C383.085,296.481 380.642,297.691 378.02,297.669C375.583,297.695 373.007,296.486 371.518,294.567C369.994,292.667 369.452,290.079 370.248,288.017C371.023,290.059 372.17,291.538 373.556,292.525C374.958,293.518 376.449,294 378.112,294.002C379.593,294.002 381.221,293.525 382.578,292.529C383.968,291.542 385.116,290.059 385.886,288.017Z" style="fill:rgb(82,21,19);fill-rule:nonzero;"/>
    </g>
    <g transform="matrix(4.16667,0,0,4.16667,-1383.58,-839.073)">
        <path d="M401.523,288.017C402.313,290.081 401.773,292.664 400.249,294.563C398.722,296.481 396.279,297.691 393.658,297.669C391.222,297.695 388.644,296.486 387.157,294.567C385.632,292.667 385.092,290.079 385.886,288.017C386.66,290.059 387.808,291.538 389.194,292.525C390.596,293.518 392.087,294 393.752,294.002C395.23,294.002 396.858,293.525 398.216,292.529C399.607,291.542 400.753,290.059 401.523,288.017Z" style="fill:rgb(82,21,19);fill-rule:nonzero;"/>
    </g>
    <g transform="matrix(4.16667,0,0,4.16667,-1383.58,-839.073)">
        <path d="M417.11,288.017C417.899,290.081 417.357,292.664 415.833,294.563C414.306,296.481 411.866,297.691 409.243,297.669C406.807,297.695 404.228,296.486 402.741,294.567C401.217,292.668 400.677,290.081 401.47,288.017C402.244,290.059 403.395,291.538 404.78,292.525C406.18,293.518 407.673,294 409.336,294.002C410.816,294.002 412.442,293.525 413.802,292.529C415.188,291.542 416.337,290.059 417.11,288.017Z" style="fill:rgb(82,21,19);fill-rule:nonzero;"/>
    </g>
    <g transform="matrix(4.16667,0,0,4.16667,-1383.58,-839.073)">
        <path d="M432.747,288.017C433.535,290.081 432.997,292.664 431.474,294.563C429.944,296.481 427.504,297.691 424.882,297.669C422.444,297.695 419.868,296.486 418.379,294.567C416.853,292.668 416.313,290.081 417.11,288.017C417.884,290.059 419.031,291.538 420.417,292.525C421.817,293.518 423.31,294 424.975,294.002C426.455,294.002 428.082,293.525 429.439,292.529C430.829,291.542 431.975,290.059 432.747,288.017Z" style="fill:rgb(82,21,19);fill-rule:nonzero;"/>
    </g>
    <g transform="matrix(4.16667,0,0,4.16667,-1383.58,-839.073)">
        <path d="M401.497,307.927C402.284,309.989 401.747,312.574 400.222,314.472C398.695,316.391 396.254,317.601 393.632,317.581C391.195,317.606 388.616,316.396 387.13,314.475C385.604,312.578 385.065,309.989 385.858,307.927C386.633,309.967 387.782,311.448 389.168,312.438C390.57,313.429 392.062,313.907 393.725,313.913C395.204,313.913 396.831,313.432 398.19,312.441C399.58,311.453 400.726,309.967 401.497,307.927Z" style="fill:rgb(82,21,19);fill-rule:nonzero;"/>
    </g>
    <g transform="matrix(4.16667,0,0,4.16667,-1383.58,-839.073)">
        <path d="M409.315,317.647C410.105,319.708 409.565,322.292 408.042,324.19C406.514,326.111 404.073,327.318 401.451,327.298C399.014,327.325 396.438,326.114 394.948,324.194C393.424,322.296 392.885,319.708 393.678,317.647C394.452,319.686 395.602,321.169 396.987,322.157C398.389,323.148 399.88,323.626 401.544,323.632C403.022,323.632 404.652,323.152 406.01,322.16C407.397,321.171 408.547,319.686 409.315,317.647Z" style="fill:rgb(82,21,19);fill-rule:nonzero;"/>
    </g>
    <g transform="matrix(4.16667,0,0,4.16667,-1383.58,-839.073)">
        <path d="M417.135,307.927C417.925,309.989 417.385,312.574 415.862,314.472C414.332,316.391 411.892,317.601 409.269,317.581C406.833,317.606 404.254,316.396 402.768,314.475C401.243,312.578 400.702,309.989 401.497,307.927C402.271,309.967 403.421,311.448 404.808,312.438C406.207,313.429 407.699,313.907 409.363,313.913C410.844,313.913 412.47,313.432 413.827,312.441C415.218,311.453 416.364,309.967 417.135,307.927Z" style="fill:rgb(82,21,19);fill-rule:nonzero;"/>
    </g>
    <g transform="matrix(4.16667,0,0,4.16667,-1383.58,-839.073)">
        <path d="M424.954,278.131C425.741,280.192 425.201,282.776 423.68,284.675C422.149,286.593 419.71,287.803 417.088,287.784C414.651,287.808 412.072,286.597 410.586,284.678C409.062,282.78 408.522,280.192 409.315,278.131C410.089,280.17 411.238,281.651 412.626,282.639C414.023,283.632 415.518,284.111 417.182,284.117C418.661,284.117 420.287,283.636 421.647,282.643C423.036,281.656 424.184,280.17 424.954,278.131Z" style="fill:rgb(82,21,19);fill-rule:nonzero;"/>
    </g>
    <g transform="matrix(4.16667,0,0,4.16667,-1383.58,-839.073)">
        <path d="M393.678,298.208C394.468,300.27 393.928,302.855 392.405,304.754C390.875,306.673 388.435,307.881 385.813,307.86C383.375,307.884 380.798,306.678 379.311,304.757C377.786,302.859 377.245,300.27 378.041,298.208C378.815,300.249 379.964,301.729 381.352,302.719C382.749,303.71 384.239,304.188 385.906,304.195C387.386,304.193 389.014,303.716 390.372,302.721C391.763,301.734 392.909,300.249 393.678,298.208Z" style="fill:rgb(82,21,19);fill-rule:nonzero;"/>
    </g>
    <g transform="matrix(4.16667,0,0,4.16667,-1383.58,-839.073)">
        <path d="M409.315,298.208C410.104,300.27 409.565,302.855 408.043,304.754C406.514,306.673 404.073,307.881 401.451,307.86C399.013,307.884 396.438,306.678 394.947,304.757C393.422,302.859 392.886,300.27 393.678,298.208C394.452,300.249 395.603,301.729 396.989,302.719C398.387,303.71 399.879,304.188 401.544,304.195C403.022,304.193 404.652,303.716 406.012,302.721C407.398,301.734 408.548,300.249 409.315,298.208Z" style="fill:rgb(82,21,19);fill-rule:nonzero;"/>
    </g>
    <g transform="matrix(4.16667,0,0,4.16667,-1383.58,-839.073)">
        <path d="M424.954,298.208C425.741,300.27 425.201,302.855 423.68,304.754C422.149,306.673 419.71,307.881 417.088,307.86C414.651,307.884 412.072,306.678 410.586,304.757C409.062,302.859 408.522,300.27 409.315,298.208C410.089,300.249 411.238,301.729 412.626,302.719C414.023,303.71 415.518,304.188 417.182,304.195C418.661,304.193 420.287,303.716 421.647,302.721C423.036,301.734 424.184,300.249 424.954,298.208Z" style="fill:rgb(82,21,19);fill-rule:nonzero;"/>
    </g>
    <g transform="matrix(4.16667,0,0,4.16667,-1383.58,-839.073)">
        <path d="M391.463,220.978C390.094,223.375 389.66,226.321 390.962,228.507L399.244,242.414C399.896,243.514 400.756,244.062 401.617,244.062L401.617,216.432C398.799,216.432 392.363,219.4 391.463,220.978Z" style="fill:rgb(59,57,62);fill-rule:nonzero;"/>
    </g>
    <g transform="matrix(4.16667,0,0,4.16667,-1383.58,-839.073)">
        <path d="M403.987,242.414L412.27,228.507C413.576,226.317 413.407,223.896 411.769,220.978C411.087,219.763 403.969,216.432 401.617,216.432L401.617,244.062C402.475,244.062 403.337,243.514 403.987,242.414Z" style="fill:rgb(111,112,112);fill-rule:nonzero;"/>
    </g>
    <g transform="matrix(4.16667,0,0,4.16667,-1383.58,-839.073)">
        <path d="M383.277,336.688C383.277,338.74 381.613,340.405 379.563,340.405C377.507,340.405 375.844,338.74 375.844,336.688L375.844,329.978C375.844,327.926 377.507,326.261 379.563,326.261C381.613,326.261 383.277,327.926 383.277,329.978L383.277,336.688Z" style="fill:rgb(247,146,53);fill-rule:nonzero;"/>
    </g>
    <g transform="matrix(4.16667,0,0,4.16667,-1383.58,-839.073)">
        <path d="M390.717,336.688C390.717,338.74 389.051,340.405 386.998,340.405C384.943,340.405 383.277,338.74 383.277,336.688L383.277,329.978C383.277,327.926 384.943,326.261 386.998,326.261C389.051,326.261 390.717,327.926 390.717,329.978L390.717,336.688Z" style="fill:rgb(247,146,53);fill-rule:nonzero;"/>
    </g>
    <g transform="matrix(4.16667,0,0,4.16667,-1383.58,-839.073)">
        <path d="M398.153,336.688C398.153,338.74 396.49,340.405 394.435,340.405C392.38,340.405 390.717,338.74 390.717,336.688L390.717,329.978C390.717,327.926 392.38,326.261 394.435,326.261C396.49,326.261 398.153,327.926 398.153,329.978L398.153,336.688Z" style="fill:rgb(247,146,53);fill-rule:nonzero;"/>
    </g>
    <g transform="matrix(4.16667,0,0,4.16667,-1383.58,-839.073)">
        <path d="M412.6,336.688C412.6,338.74 410.936,340.405 408.881,340.405C406.826,340.405 405.162,338.74 405.162,336.688L405.162,329.978C405.162,327.926 406.826,326.261 408.881,326.261C410.936,326.261 412.6,327.926 412.6,329.978L412.6,336.688Z" style="fill:rgb(250,207,80);fill-rule:nonzero;"/>
    </g>
    <g transform="matrix(4.16667,0,0,4.16667,-1383.58,-839.073)">
        <path d="M420.036,336.688C420.036,338.74 418.373,340.405 416.32,340.405C414.263,340.405 412.6,338.74 412.6,336.688L412.6,329.978C412.6,327.926 414.263,326.261 416.32,326.261C418.373,326.261 420.036,327.926 420.036,329.978L420.036,336.688Z" style="fill:rgb(250,207,80);fill-rule:nonzero;"/>
    </g>
    <g transform="matrix(4.16667,0,0,4.16667,-1383.58,-839.073)">
        <path d="M427.476,336.688C427.476,338.74 425.81,340.405 423.755,340.405C421.702,340.405 420.036,338.74 420.036,336.688L420.036,329.978C420.036,327.926 421.702,326.261 423.755,326.261C425.81,326.261 427.476,327.926 427.476,329.978L427.476,336.688Z" style="fill:rgb(250,207,80);fill-rule:nonzero;"/>
    </g>
    <g transform="matrix(4.16667,0,0,4.16667,-1383.58,-839.073)">
        <path d="M380.32,220.573C380.32,223.585 382.762,226.028 385.775,226.028C388.787,226.028 391.229,223.585 391.229,220.573C391.229,218.367 389.18,216.64 385.775,215.119C383.024,213.89 380.32,217.561 380.32,220.573Z" style="fill:rgb(247,146,53);fill-rule:nonzero;"/>
    </g>
    <g transform="matrix(4.16667,0,0,4.16667,-1383.58,-839.073)">
        <path d="M383.375,220.573C383.375,221.897 384.449,222.972 385.775,222.972C387.101,222.972 388.175,221.897 388.175,220.573C388.175,219.249 387.101,218.173 385.775,218.173C384.449,218.173 383.375,219.249 383.375,220.573Z" style="fill:rgb(59,57,62);fill-rule:nonzero;"/>
    </g>
    <g transform="matrix(4.16667,0,0,4.16667,-1383.58,-839.073)">
        <path d="M423.011,220.573C423.011,223.585 420.569,226.028 417.557,226.028C414.545,226.028 412.103,223.585 412.103,220.573C412.103,218.367 414.151,216.64 417.557,215.119C420.307,213.89 423.011,217.561 423.011,220.573Z" style="fill:rgb(250,207,80);fill-rule:nonzero;"/>
    </g>
    <g transform="matrix(4.16667,0,0,4.16667,-1383.58,-839.073)">
        <path d="M415.156,220.573C415.156,221.897 416.23,222.972 417.557,222.972C418.883,222.972 419.957,221.897 419.957,220.573C419.957,219.249 418.883,218.173 417.557,218.173C416.23,218.173 415.156,219.249 415.156,220.573Z" style="fill:rgb(59,57,62);fill-rule:nonzero;"/>
    </g>
</svg>
