<?xml version="1.0" encoding="UTF-8" standalone="no"?>
<!DOCTYPE svg PUBLIC "-//W3C//DTD SVG 1.1//EN" "http://www.w3.org/Graphics/SVG/1.1/DTD/svg11.dtd">
<svg width="100%" height="100%" viewBox="0 0 580 580" version="1.1" xmlns="http://www.w3.org/2000/svg" xmlns:xlink="http://www.w3.org/1999/xlink" xml:space="preserve" xmlns:serif="http://www.serif.com/" style="fill-rule:evenodd;clip-rule:evenodd;stroke-linejoin:round;stroke-miterlimit:1.41421;">
    <g transform="matrix(4.16667,0,0,4.16667,-435.094,-836.196)">
        <path d="M213.24,200.779L191.327,207.949L197.922,220.451C197.922,220.451 207.023,214.628 213.24,200.779Z" style="fill:rgb(209,188,184);fill-rule:nonzero;"/>
    </g>
    <g transform="matrix(4.16667,0,0,4.16667,-435.094,-836.196)">
        <path d="M135.494,200.779L157.407,207.949L150.812,220.451C150.812,220.451 141.709,214.628 135.494,200.779Z" style="fill:rgb(150,153,155);fill-rule:nonzero;"/>
    </g>
    <g transform="matrix(4.16667,0,0,4.16667,-435.094,-836.196)">
        <path d="M231.928,268.642C231.928,297.05 206.003,338.798 174.024,338.798C142.042,338.798 116.117,297.05 116.117,268.642C116.117,240.236 142.042,217.208 174.024,217.208C206.003,217.208 231.928,240.236 231.928,268.642Z" style="fill:rgb(111,112,112);fill-rule:nonzero;"/>
    </g>
    <g transform="matrix(4.16667,0,0,4.16667,-435.094,-836.196)">
        <path d="M202.05,323.74C213.403,305.887 218.865,271.455 217.697,256.692C214.76,219.498 199.097,208.457 181.766,205.181C179.166,204.691 176.577,204.48 174.024,204.477L174.024,339.795L175.197,339.795C190.511,339.425 193.202,337.661 202.05,323.74Z" style="fill:rgb(209,188,184);fill-rule:nonzero;"/>
    </g>
    <g transform="matrix(4.16667,0,0,4.16667,-435.094,-836.196)">
        <path d="M145.992,323.74C134.643,305.887 129.181,271.455 130.348,256.692C133.285,219.498 148.948,208.457 166.279,205.181C168.881,204.691 171.468,204.48 174.021,204.477L174.021,339.795L172.85,339.795C157.534,339.425 154.842,337.661 145.992,323.74Z" style="fill:rgb(150,153,155);fill-rule:nonzero;"/>
    </g>
    <g transform="matrix(4.16667,0,0,4.16667,-435.094,-836.196)">
        <path d="M191.691,219.498C183.75,219.498 176.936,224.085 174.024,230.617C171.106,224.085 164.295,219.498 156.353,219.498C145.764,219.498 137.173,227.658 137.173,237.724C137.173,247.788 145.764,255.945 156.353,255.945C164.295,255.945 171.106,257.108 174.024,250.572C176.936,257.108 183.75,255.945 191.691,255.945C202.282,255.945 210.872,247.788 210.872,237.724C210.872,227.658 202.282,219.498 191.691,219.498Z" style="fill:rgb(250,236,229);fill-rule:nonzero;"/>
    </g>
    <g transform="matrix(4.16667,0,0,4.16667,-435.094,-836.196)">
        <path d="M170.623,251.513L165.98,254.581C164.112,255.812 163.518,258.398 164.666,260.324L171.939,272.535C172.51,273.496 173.266,273.977 174.024,273.977L174.024,250.587C172.792,250.587 171.559,250.896 170.623,251.513Z" style="fill:rgb(59,57,62);fill-rule:nonzero;"/>
    </g>
    <g transform="matrix(4.16667,0,0,4.16667,-435.094,-836.196)">
        <path d="M176.106,272.535L183.376,260.324C184.524,258.398 183.933,255.812 182.065,254.581L177.42,251.513C176.487,250.896 175.254,250.587 174.024,250.587L174.024,273.977C174.777,273.977 175.534,273.496 176.106,272.535Z" style="fill:rgb(59,57,62);fill-rule:nonzero;"/>
    </g>
    <g transform="matrix(4.16667,0,0,4.16667,-435.094,-836.196)">
        <path d="M168.806,237.603C168.806,244.771 162.994,250.587 155.827,250.587C148.655,250.587 142.841,244.771 142.841,237.603C142.841,230.431 148.655,224.619 155.827,224.619C162.994,224.621 168.806,230.431 168.806,237.603Z" style="fill:rgb(244,119,59);fill-rule:nonzero;"/>
    </g>
    <g transform="matrix(4.16667,0,0,4.16667,-435.094,-836.196)">
        <path d="M163.186,237.603C163.186,241.669 159.891,244.966 155.827,244.966C151.756,244.966 148.464,241.669 148.464,237.603C148.464,233.539 151.756,230.241 155.827,230.241C159.891,230.241 163.186,233.539 163.186,237.603Z" style="fill:rgb(59,57,62);fill-rule:nonzero;"/>
    </g>
    <g transform="matrix(4.16667,0,0,4.16667,-435.094,-836.196)">
        <path d="M205.201,237.603C205.201,244.771 199.388,250.587 192.218,250.587C185.049,250.587 179.235,244.771 179.235,237.603C179.235,230.431 185.049,224.621 192.218,224.621C199.388,224.621 205.201,230.431 205.201,237.603Z" style="fill:rgb(244,119,59);fill-rule:nonzero;"/>
    </g>
    <g transform="matrix(4.16667,0,0,4.16667,-435.094,-836.196)">
        <path d="M199.789,237.603C199.789,241.669 196.489,244.966 192.423,244.966C188.356,244.966 185.061,241.669 185.061,237.603C185.061,233.539 188.356,230.241 192.423,230.241C196.489,230.241 199.789,233.539 199.789,237.603Z" style="fill:rgb(59,57,62);fill-rule:nonzero;"/>
    </g>
    <g transform="matrix(4.16667,0,0,4.16667,-435.094,-836.196)">
        <path d="M161.389,235.054C161.389,236.462 160.249,237.603 158.843,237.603C157.435,237.603 156.295,236.462 156.295,235.054C156.295,233.649 157.435,232.509 158.843,232.509C160.249,232.509 161.389,233.649 161.389,235.054Z" style="fill:white;fill-rule:nonzero;"/>
    </g>
    <g transform="matrix(4.16667,0,0,4.16667,-435.094,-836.196)">
        <path d="M197.916,235.054C197.916,236.462 196.775,237.603 195.368,237.603C193.961,237.603 192.821,236.462 192.821,235.054C192.821,233.649 193.961,232.509 195.368,232.509C196.775,232.509 197.916,233.649 197.916,235.054Z" style="fill:white;fill-rule:nonzero;"/>
    </g>
    <g transform="matrix(4.16667,0,0,4.16667,-435.094,-836.196)">
        <path d="M164.823,271.411C165.752,273.835 165.117,276.876 163.325,279.111C161.525,281.369 158.653,282.792 155.568,282.769C152.699,282.798 149.667,281.373 147.916,279.115C146.122,276.88 145.486,273.835 146.421,271.411C147.333,273.81 148.685,275.552 150.318,276.715C151.961,277.884 153.716,278.447 155.677,278.454C157.418,278.454 159.334,277.889 160.933,276.72C162.569,275.558 163.918,273.81 164.823,271.411Z" style="fill:rgb(111,112,112);fill-rule:nonzero;"/>
    </g>
    <g transform="matrix(4.16667,0,0,4.16667,-435.094,-836.196)">
        <path d="M183.225,271.411C184.152,273.835 183.519,276.876 181.727,279.111C179.927,281.369 177.055,282.792 173.97,282.769C171.101,282.798 168.07,281.373 166.317,279.115C164.522,276.88 163.89,273.835 164.823,271.411C165.734,273.81 167.088,275.552 168.72,276.715C170.364,277.884 172.12,278.447 174.08,278.454C175.82,278.454 177.737,277.889 179.337,276.72C180.969,275.558 182.321,273.81 183.225,271.411Z" style="fill:rgb(111,112,112);fill-rule:nonzero;"/>
    </g>
    <g transform="matrix(4.16667,0,0,4.16667,-435.094,-836.196)">
        <path d="M155.654,283.044C156.582,285.47 155.948,288.511 154.154,290.747C152.357,293.004 149.482,294.427 146.397,294.403C143.53,294.432 140.498,293.009 138.746,290.751C136.953,288.515 136.315,285.47 137.251,283.044C138.164,285.447 139.513,287.187 141.144,288.349C142.793,289.517 144.548,290.083 146.506,290.087C148.249,290.087 150.164,289.525 151.761,288.353C153.396,287.192 154.748,285.447 155.654,283.044Z" style="fill:rgb(111,112,112);fill-rule:nonzero;"/>
    </g>
    <g transform="matrix(4.16667,0,0,4.16667,-435.094,-836.196)">
        <path d="M174.055,283.044C174.984,285.472 174.349,288.511 172.556,290.747C170.758,293.004 167.884,294.427 164.799,294.403C161.933,294.432 158.899,293.009 157.149,290.751C155.354,288.515 154.719,285.47 155.654,283.044C156.565,285.447 157.916,287.187 159.547,288.349C161.196,289.517 162.951,290.083 164.91,290.087C166.65,290.087 168.566,289.525 170.164,288.353C171.8,287.192 173.149,285.447 174.055,283.044Z" style="fill:rgb(111,112,112);fill-rule:nonzero;"/>
    </g>
    <g transform="matrix(4.16667,0,0,4.16667,-435.094,-836.196)">
        <path d="M192.397,283.044C193.326,285.472 192.688,288.511 190.894,290.747C189.097,293.004 186.226,294.427 183.139,294.403C180.272,294.432 177.238,293.009 175.489,290.751C173.695,288.517 173.059,285.472 173.992,283.044C174.904,285.447 176.257,287.187 177.888,288.349C179.535,289.517 181.292,290.083 183.249,290.087C184.991,290.087 186.905,289.525 188.503,288.353C190.136,287.192 191.488,285.447 192.397,283.044Z" style="fill:rgb(111,112,112);fill-rule:nonzero;"/>
    </g>
    <g transform="matrix(4.16667,0,0,4.16667,-435.094,-836.196)">
        <path d="M210.798,283.044C211.726,285.472 211.092,288.511 209.3,290.747C207.5,293.004 204.628,294.427 201.542,294.403C198.674,294.432 195.643,293.009 193.89,290.751C192.094,288.517 191.458,285.472 192.397,283.044C193.307,285.447 194.658,287.187 196.289,288.349C197.937,289.517 199.693,290.083 201.652,290.087C203.394,290.087 205.309,289.525 206.906,288.353C208.542,287.192 209.889,285.447 210.798,283.044Z" style="fill:rgb(111,112,112);fill-rule:nonzero;"/>
    </g>
    <g transform="matrix(4.16667,0,0,4.16667,-435.094,-836.196)">
        <path d="M174.024,306.474C174.951,308.9 174.319,311.941 172.524,314.175C170.727,316.434 167.854,317.857 164.768,317.833C161.902,317.863 158.867,316.439 157.117,314.179C155.323,311.946 154.688,308.9 155.622,306.474C156.533,308.875 157.885,310.617 159.516,311.782C161.166,312.948 162.92,313.51 164.877,313.517C166.619,313.517 168.534,312.952 170.133,311.785C171.768,310.622 173.117,308.875 174.024,306.474Z" style="fill:rgb(111,112,112);fill-rule:nonzero;"/>
    </g>
    <g transform="matrix(4.16667,0,0,4.16667,-435.094,-836.196)">
        <path d="M183.225,317.912C184.155,320.337 183.519,323.377 181.726,325.611C179.927,327.872 177.055,329.292 173.97,329.269C171.102,329.3 168.07,327.875 166.318,325.616C164.524,323.382 163.889,320.337 164.823,317.912C165.734,320.311 167.086,322.056 168.717,323.218C170.367,324.385 172.122,324.948 174.08,324.955C175.82,324.955 177.737,324.389 179.334,323.222C180.968,322.059 182.32,320.311 183.225,317.912Z" style="fill:rgb(111,112,112);fill-rule:nonzero;"/>
    </g>
    <g transform="matrix(4.16667,0,0,4.16667,-435.094,-836.196)">
        <path d="M192.426,306.474C193.356,308.9 192.72,311.941 190.929,314.175C189.128,316.434 186.256,317.857 183.169,317.833C180.303,317.863 177.268,316.439 175.519,314.179C173.725,311.946 173.089,308.9 174.024,306.474C174.934,308.875 176.288,310.617 177.919,311.782C179.567,312.948 181.323,313.51 183.281,313.517C185.023,313.517 186.937,312.952 188.534,311.785C190.17,310.622 191.519,308.875 192.426,306.474Z" style="fill:rgb(111,112,112);fill-rule:nonzero;"/>
    </g>
    <g transform="matrix(4.16667,0,0,4.16667,-435.094,-836.196)">
        <path d="M201.627,271.411C202.554,273.835 201.918,276.876 200.128,279.111C198.328,281.369 195.457,282.792 192.371,282.769C189.504,282.798 186.469,281.373 184.72,279.115C182.926,276.88 182.292,273.835 183.225,271.411C184.135,273.81 185.488,275.552 187.121,276.715C188.765,277.884 190.523,278.447 192.481,278.454C194.222,278.454 196.136,277.889 197.737,276.72C199.371,275.558 200.721,273.81 201.627,271.411Z" style="fill:rgb(111,112,112);fill-rule:nonzero;"/>
    </g>
    <g transform="matrix(4.16667,0,0,4.16667,-435.094,-836.196)">
        <path d="M164.823,295.037C165.752,297.462 165.117,300.504 163.325,302.74C161.525,304.998 158.653,306.419 155.568,306.394C152.699,306.423 149.667,305.003 147.916,302.744C146.122,300.509 145.486,297.462 146.421,295.037C147.333,297.438 148.685,299.18 150.318,300.345C151.961,301.511 153.716,302.074 155.677,302.082C157.418,302.08 159.334,301.518 160.933,300.347C162.569,299.185 163.918,297.438 164.823,295.037Z" style="fill:rgb(111,112,112);fill-rule:nonzero;"/>
    </g>
    <g transform="matrix(4.16667,0,0,4.16667,-435.094,-836.196)">
        <path d="M183.225,295.037C184.152,297.462 183.519,300.504 181.727,302.74C179.927,304.998 177.055,306.419 173.97,306.394C171.101,306.423 168.07,305.003 166.317,302.744C164.522,300.509 163.89,297.462 164.823,295.037C165.734,297.438 167.088,299.18 168.72,300.345C170.364,301.511 172.12,302.074 174.08,302.082C175.82,302.08 177.737,301.518 179.337,300.347C180.969,299.185 182.321,297.438 183.225,295.037Z" style="fill:rgb(111,112,112);fill-rule:nonzero;"/>
    </g>
    <g transform="matrix(4.16667,0,0,4.16667,-435.094,-836.196)">
        <path d="M201.627,295.037C202.554,297.462 201.918,300.504 200.128,302.74C198.328,304.998 195.457,306.419 192.371,306.394C189.504,306.423 186.469,305.003 184.72,302.744C182.926,300.509 182.292,297.462 183.225,295.037C184.135,297.438 185.488,299.18 187.121,300.345C188.765,301.511 190.523,302.074 192.481,302.082C194.222,302.08 196.136,301.518 197.737,300.347C199.371,299.185 200.721,297.438 201.627,295.037Z" style="fill:rgb(111,112,112);fill-rule:nonzero;"/>
    </g>
</svg>
