<?xml version="1.0" encoding="UTF-8" standalone="no"?>
<!DOCTYPE svg PUBLIC "-//W3C//DTD SVG 1.1//EN" "http://www.w3.org/Graphics/SVG/1.1/DTD/svg11.dtd">
<svg width="100%" height="100%" viewBox="0 0 650 650" version="1.1" xmlns="http://www.w3.org/2000/svg" xmlns:xlink="http://www.w3.org/1999/xlink" xml:space="preserve" xmlns:serif="http://www.serif.com/" style="fill-rule:evenodd;clip-rule:evenodd;stroke-linejoin:round;stroke-miterlimit:1.41421;">
    <g transform="matrix(4.16667,0,0,4.16667,-1349.41,-1554.68)">
        <path d="M401.693,514.617C380.365,514.617 361.643,499.787 350.945,477.436C352.932,500.555 364.016,528.321 401.859,528.321C439.195,528.321 450.842,499.94 452.807,476.673C442.174,499.451 423.264,514.617 401.693,514.617Z" style="fill:rgb(41,160,130);fill-rule:nonzero;"/>
    </g>
    <g transform="matrix(4.16667,0,0,4.16667,-1349.41,-1554.68)">
        <path d="M452.229,456.787C441.496,478.89 422.879,493.525 401.693,493.525C380.791,493.525 362.381,479.287 351.586,457.677C350.9,461.389 350.584,465.227 350.584,469.108C350.584,471.77 350.699,474.569 350.945,477.436C361.643,499.787 380.365,514.617 401.693,514.617C423.264,514.617 442.174,499.451 452.807,476.673C453.025,474.073 453.131,471.534 453.131,469.108C453.131,464.916 452.869,460.774 452.229,456.787Z" style="fill:rgb(6,179,133);fill-rule:nonzero;"/>
    </g>
    <g transform="matrix(4.16667,0,0,4.16667,-1349.41,-1554.68)">
        <path d="M401.859,422.415C368.91,422.415 355.158,438.305 351.586,457.677C362.381,479.287 380.791,493.525 401.693,493.525C422.879,493.525 441.496,478.89 452.229,456.787C449.178,437.822 437.326,422.415 401.859,422.415Z" style="fill:rgb(204,56,56);fill-rule:nonzero;"/>
    </g>
    <g transform="matrix(4.16667,0,0,4.16667,-1349.41,-1554.68)">
        <path d="M412.082,373.205C412.371,374.919 411.793,379.253 407.633,383.966C405.799,386.042 405.965,385.621 405.264,386.666C404.561,387.714 403.693,388.652 402.637,389.462C401.561,390.259 401.201,390.728 399.494,391.099C399.199,389.38 398.977,389.05 398.855,386.917C398.783,385.589 399.078,383.73 399.783,382.687C400.492,381.644 401.275,380.535 402.975,379.376C404.055,378.58 410.551,376.101 412.082,373.205Z" style="fill:rgb(204,56,56);fill-rule:nonzero;"/>
    </g>
    <g transform="matrix(4.16667,0,0,4.16667,-1349.41,-1554.68)">
        <path d="M399.926,469.426L399.93,469.426C400.293,469.478 400.66,469.516 401.041,469.527C400.66,469.516 400.291,469.478 399.926,469.426ZM372.611,416.175L372.598,416.158C372.598,416.158 372.6,416.244 372.6,416.376C372.539,417.165 372.482,417.956 372.482,418.76C372.482,419.004 372.506,419.245 372.512,419.49C372.346,422.451 371.906,427.075 370.619,431.951C369.711,435.371 368.393,438.915 366.439,442.096C365.021,444.415 363.898,447.047 362.998,449.761C359.465,460.392 359.451,472.353 359.451,472.353C360.006,495.308 378.773,529.043 401.859,529.043L401.859,469.474L401.859,446.413L401.859,389.383C386.508,389.383 373.922,401.164 372.611,416.175Z" style="fill:rgb(204,56,56);fill-rule:nonzero;"/>
    </g>
    <g transform="matrix(4.16667,0,0,4.16667,-1349.41,-1554.68)">
        <path d="M440.889,450.228C439.969,447.352 438.805,444.553 437.309,442.096C435.525,439.169 434.262,435.939 433.367,432.783C431.836,427.393 431.373,422.211 431.223,419.116C431.223,418.997 431.236,418.878 431.236,418.76C431.236,418.225 431.184,417.701 431.156,417.172C431.145,416.54 431.154,416.158 431.154,416.158L431.109,416.224C429.818,401.186 417.229,389.383 401.859,389.383L401.859,529.043C424.965,529.043 443.742,495.277 444.266,472.301C444.266,472.301 444.254,460.725 440.889,450.228Z" style="fill:rgb(240,77,92);fill-rule:nonzero;"/>
    </g>
    <g transform="matrix(4.16667,0,0,4.16667,-1349.41,-1554.68)">
        <path d="M392.48,413.923C391.104,416.335 389.666,420.293 390.977,422.497L399.307,436.484C399.963,437.59 400.828,438.142 401.693,438.142L401.693,404.351C398.859,404.351 393.387,412.336 392.48,413.923Z" style="fill:rgb(199,177,154);fill-rule:nonzero;"/>
    </g>
    <g transform="matrix(4.16667,0,0,4.16667,-1349.41,-1554.68)">
        <path d="M404.078,436.484L412.408,422.497C413.723,420.293 412.553,416.859 410.904,413.923C410.219,412.702 404.059,404.351 401.693,404.351L401.693,438.142C402.557,438.142 403.424,437.59 404.078,436.484Z" style="fill:rgb(217,200,182);fill-rule:nonzero;"/>
    </g>
    <g transform="matrix(4.16667,0,0,4.16667,-1349.41,-1554.68)">
        <path d="M380.086,409.619C380.086,412.597 381.578,415.012 383.422,415.012C385.264,415.012 386.756,412.597 386.756,409.619C386.756,406.639 385.264,404.226 383.422,404.226C381.578,404.226 380.086,406.639 380.086,409.619Z" style="fill:rgb(13,18,28);fill-rule:nonzero;"/>
    </g>
    <g transform="matrix(4.16667,0,0,4.16667,-1349.41,-1554.68)">
        <path d="M383.66,407.528C383.66,408.327 383.01,408.976 382.211,408.976C381.41,408.976 380.762,408.327 380.762,407.528C380.762,406.727 381.41,406.08 382.211,406.08C383.01,406.08 383.66,406.727 383.66,407.528Z" style="fill:white;fill-rule:nonzero;"/>
    </g>
    <g transform="matrix(4.16667,0,0,4.16667,-1349.41,-1554.68)">
        <path d="M416.961,409.619C416.961,412.597 418.453,415.012 420.295,415.012C422.137,415.012 423.631,412.597 423.631,409.619C423.631,406.639 422.137,404.226 420.295,404.226C418.453,404.226 416.961,406.639 416.961,409.619Z" style="fill:rgb(13,18,28);fill-rule:nonzero;"/>
    </g>
    <g transform="matrix(4.16667,0,0,4.16667,-1349.41,-1554.68)">
        <path d="M420.533,407.528C420.533,408.327 419.883,408.976 419.084,408.976C418.285,408.976 417.637,408.327 417.637,407.528C417.637,406.727 418.285,406.08 419.084,406.08C419.883,406.08 420.533,406.727 420.533,407.528Z" style="fill:white;fill-rule:nonzero;"/>
    </g>
    <g transform="matrix(4.16667,0,0,4.16667,-1349.41,-1554.68)">
        <path d="M385.078,526.054C385.078,527.705 383.74,529.043 382.09,529.043C380.438,529.043 379.1,527.705 379.1,526.054L379.1,520.659C379.1,519.008 380.438,517.669 382.09,517.669C383.74,517.669 385.078,519.008 385.078,520.659L385.078,526.054Z" style="fill:rgb(199,177,154);fill-rule:nonzero;"/>
    </g>
    <g transform="matrix(4.16667,0,0,4.16667,-1349.41,-1554.68)">
        <path d="M391.061,526.054C391.061,527.705 389.721,529.043 388.07,529.043C386.418,529.043 385.078,527.705 385.078,526.054L385.078,520.659C385.078,519.008 386.418,517.669 388.07,517.669C389.721,517.669 391.061,519.008 391.061,520.659L391.061,526.054Z" style="fill:rgb(199,177,154);fill-rule:nonzero;"/>
    </g>
    <g transform="matrix(4.16667,0,0,4.16667,-1349.41,-1554.68)">
        <path d="M397.041,526.054C397.041,527.705 395.703,529.043 394.051,529.043C392.398,529.043 391.061,527.705 391.061,526.054L391.061,520.659C391.061,519.008 392.398,517.669 394.051,517.669C395.703,517.669 397.041,519.008 397.041,520.659L397.041,526.054Z" style="fill:rgb(199,177,154);fill-rule:nonzero;"/>
    </g>
    <g transform="matrix(4.16667,0,0,4.16667,-1349.41,-1554.68)">
        <path d="M412.656,526.054C412.656,527.705 411.318,529.043 409.666,529.043C408.014,529.043 406.676,527.705 406.676,526.054L406.676,520.659C406.676,519.008 408.014,517.669 409.666,517.669C411.318,517.669 412.656,519.008 412.656,520.659L412.656,526.054Z" style="fill:rgb(217,200,182);fill-rule:nonzero;"/>
    </g>
    <g transform="matrix(4.16667,0,0,4.16667,-1349.41,-1554.68)">
        <path d="M418.637,526.054C418.637,527.705 417.299,529.043 415.648,529.043C413.994,529.043 412.656,527.705 412.656,526.054L412.656,520.659C412.656,519.008 413.994,517.669 415.648,517.669C417.299,517.669 418.637,519.008 418.637,520.659L418.637,526.054Z" style="fill:rgb(217,200,182);fill-rule:nonzero;"/>
    </g>
    <g transform="matrix(4.16667,0,0,4.16667,-1349.41,-1554.68)">
        <path d="M424.619,526.054C424.619,527.705 423.279,529.043 421.627,529.043C419.977,529.043 418.637,527.705 418.637,526.054L418.637,520.659C418.637,519.008 419.977,517.669 421.627,517.669C423.279,517.669 424.619,519.008 424.619,520.659L424.619,526.054Z" style="fill:rgb(217,200,182);fill-rule:nonzero;"/>
    </g>
    <g transform="matrix(4.16667,0,0,4.16667,-1349.41,-1554.68)">
        <path d="M415.852,378.646C416.145,380.359 414.016,386.84 411.754,389.328C410.857,390.312 406.484,394.887 402.008,395.753C401.713,394.033 401.357,391.247 401.693,389.95C402.047,388.668 403.016,386.595 406.463,385.068C411.459,382.857 413.574,381.542 415.852,378.646Z" style="fill:rgb(240,77,92);fill-rule:nonzero;"/>
    </g>
</svg>
