<?xml version="1.0" encoding="UTF-8" standalone="no"?>
<!DOCTYPE svg PUBLIC "-//W3C//DTD SVG 1.1//EN" "http://www.w3.org/Graphics/SVG/1.1/DTD/svg11.dtd">
<svg width="100%" height="100%" viewBox="0 0 1121 1121" version="1.1" xmlns="http://www.w3.org/2000/svg" xmlns:xlink="http://www.w3.org/1999/xlink" xml:space="preserve" xmlns:serif="http://www.serif.com/" style="fill-rule:evenodd;clip-rule:evenodd;stroke-linejoin:round;stroke-miterlimit:1.41421;">
    <g transform="matrix(1,0,0,1,137,0)">
        <path d="M159.13,889.012C147.165,947.728 135.199,1006.45 123.23,1065.17C133.758,1067.87 144.543,1069.52 155.402,1070.05C170.593,1012.14 180.924,952.947 186.137,893.303C177.568,890 168.299,888.528 159.13,889.012Z" style="fill:rgb(150,110,96);fill-rule:nonzero;"/>
    </g>
    <g transform="matrix(1,0,0,1,137,0)">
        <path d="M113.44,1113.22C123.496,1116.07 136.202,1118.16 142.762,1110.03C144.933,1107.33 145.974,1103.92 146.952,1100.6C149.94,1090.47 152.721,1080.28 155.402,1070.06C144.543,1069.52 133.758,1067.87 123.23,1065.17C119.968,1081.18 116.705,1097.2 113.44,1113.22Z" style="fill:rgb(64,62,63);fill-rule:nonzero;"/>
    </g>
    <g transform="matrix(1,0,0,1,137,0)">
        <path d="M573.702,1119.27C583.262,1119.84 592.896,1119.13 602.268,1117.18C605.021,1102.72 607.63,1088.23 610.121,1073.72C600.671,1074.8 591.171,1075.39 581.661,1075.49C579.196,1090.12 576.596,1104.72 573.702,1119.27Z" style="fill:rgb(64,62,63);fill-rule:nonzero;"/>
    </g>
    <g transform="matrix(1,0,0,1,137,0)">
        <path d="M606.783,824.441C605.462,826.953 604.174,829.519 603.521,832.281C602.899,834.909 602.871,837.637 602.837,840.337C601.899,919.112 594.755,997.8 581.661,1075.48C591.171,1075.39 600.671,1074.8 610.121,1073.72C627.149,974.494 638.077,874.225 642.802,773.662C628.627,788.9 616.48,806.025 606.783,824.441Z" style="fill:rgb(171,122,100);fill-rule:nonzero;"/>
    </g>
    <g transform="matrix(1,0,0,1,137,0)">
        <path d="M2.205,637.122C4.252,646.594 7.662,655.928 13.512,663.653C20.221,672.512 30.074,678.941 40.883,681.512C47.602,661.266 58.468,642.409 72.615,626.447C59.099,612.731 58.752,591.181 59.265,571.931C53.874,574.097 48.993,577.512 45.105,581.831C44.612,572.331 44.121,562.831 43.627,553.331C43.499,550.866 43.277,548.172 41.574,546.381C38.099,542.725 31.977,545.647 28.218,549.012C4.312,570.416 -4.57,605.756 2.205,637.122Z" style="fill:rgb(150,110,96);fill-rule:nonzero;"/>
    </g>
    <g transform="matrix(1,0,0,1,137,0)">
        <path d="M652.093,732.369C651.74,691.125 647.286,647.147 621.624,614.856C609.683,599.834 593.699,588.262 576.224,580.334C545.305,566.306 505.683,555.494 475.474,570.987C454.683,581.65 431.455,586.462 408.471,590.672C312.518,608.253 215.008,617.344 117.458,617.806C101.865,617.878 85.58,617.887 71.69,624.975C56.643,632.647 46.658,647.531 39.14,662.656C14.186,712.828 9.705,772.816 26.927,826.134C33.443,846.309 43.518,866.247 60.474,878.972C68.655,885.109 78.14,889.344 86.283,895.528C99.693,905.709 108.677,920.525 117.14,935.081C143.624,980.637 168.108,1027.35 190.677,1074.97C201.346,1073.37 211.805,1070.54 221.824,1066.54C197.174,1010.45 170.577,955.216 142.055,900.997C140.149,897.381 138.205,893.122 139.849,889.384C247.277,916.294 358.405,902.525 467.84,885.516C509.737,879.003 552.462,872.053 590.015,852.372C608.624,842.619 626.046,829.409 636.858,811.397C650.849,788.091 652.327,759.553 652.093,732.369Z" style="fill:rgb(171,122,100);fill-rule:nonzero;"/>
    </g>
    <g transform="matrix(1,0,0,1,137,0)">
        <path d="M137.577,889.059C169.127,877.681 194.346,850.137 202.908,817.716C302.871,798.556 405.19,791.734 506.808,797.45C511.133,823.691 516.752,849.719 523.637,875.406C523.637,875.406 303.915,928.872 137.577,889.059Z" style="fill:rgb(238,209,186);fill-rule:nonzero;"/>
    </g>
    <g transform="matrix(1,0,0,1,137,0)">
        <path d="M225.874,650.266C226.146,645.391 221.908,641.472 217.64,639.106C203.733,631.397 185.402,632.528 172.552,641.891C168.249,645.025 164.24,650.178 165.902,655.237C167.424,659.878 172.818,661.822 177.558,662.991C184.918,664.806 192.458,666.262 200.033,665.925C207.605,665.584 215.287,663.312 221.055,658.391C223.518,656.291 225.693,653.5 225.874,650.266Z" style="fill:rgb(198,144,119);fill-rule:nonzero;"/>
    </g>
    <g transform="matrix(1,0,0,1,137,0)">
        <path d="M250.29,655.453C254.546,656.353 259.268,656.172 262.871,653.731C266.471,651.294 268.408,646.15 266.283,642.356C265.052,640.156 262.746,638.766 260.39,637.875C253.59,635.316 245.54,636.384 239.643,640.631C237.896,643.722 238.765,647.825 241.065,650.531C243.365,653.234 246.818,654.719 250.29,655.453Z" style="fill:rgb(198,144,119);fill-rule:nonzero;"/>
    </g>
    <g transform="matrix(1,0,0,1,137,0)">
        <path d="M289.874,626.25C286.908,625.253 283.743,624.247 280.711,625.019C277.683,625.791 275.099,629.131 276.321,632.009C279.046,633.672 282.077,635.125 285.268,635.022C288.462,634.919 291.78,632.797 292.271,629.641C292.396,628.847 292.318,627.972 291.815,627.347C291.343,626.759 290.587,626.491 289.874,626.25Z" style="fill:rgb(198,144,119);fill-rule:nonzero;"/>
    </g>
    <g transform="matrix(1,0,0,1,137,0)">
        <path d="M311.833,672.884C314.065,672.828 316.393,672.644 318.308,671.497C320.205,670.356 321.458,668.409 322.54,666.478C324.243,663.431 325.699,659.637 324.03,656.572C322.336,653.459 318.308,652.659 314.793,652.197C309.502,651.503 304.127,650.806 298.855,651.637C293.583,652.466 288.34,655.053 285.536,659.591C284.605,661.097 283.955,662.875 284.23,664.622C284.827,668.403 289.152,670.209 292.886,671.041C299.096,672.422 305.474,673.044 311.833,672.884Z" style="fill:rgb(198,144,119);fill-rule:nonzero;"/>
    </g>
    <g transform="matrix(1,0,0,1,137,0)">
        <path d="M346.765,627.797C346.155,628.531 345.608,629.366 345.468,630.306C345.024,633.275 348.477,635.184 351.352,636.05C356.496,637.603 362.112,638.766 367.161,636.931C369.402,636.116 371.415,634.497 372.774,632.516C375.29,628.847 373.115,623.837 368.774,622.856C365.768,622.178 362.715,621.775 359.646,621.944C354.799,622.209 349.865,624.062 346.765,627.797Z" style="fill:rgb(198,144,119);fill-rule:nonzero;"/>
    </g>
    <g transform="matrix(1,0,0,1,137,0)">
        <path d="M559.236,815.706C568.511,821.581 577.787,827.453 587.065,833.325C608.562,818.747 626.055,798.322 637.155,774.837C639.49,779.816 640.858,785.241 641.161,790.728C657.518,747.903 651.549,700.347 650.246,654.522C648.58,595.794 655.049,536.837 669.408,479.865C597.996,505.794 516.908,503.987 446.724,474.903C469.493,548.281 474.452,625.769 482.474,702.178C484.412,720.634 486.658,739.494 494.865,756.137C507.971,782.712 534.202,799.859 559.236,815.706Z" style="fill:rgb(238,209,186);fill-rule:nonzero;"/>
    </g>
    <g transform="matrix(1,0,0,1,137,0)">
        <path d="M195.94,1085.93C200.486,1095.68 205.19,1105.8 213.386,1112.78C221.583,1119.75 234.365,1122.61 243.136,1116.37C236.211,1099.68 229.093,1083.08 221.824,1066.54C211.805,1070.54 201.346,1073.37 190.677,1074.97C192.415,1078.63 194.227,1082.26 195.94,1085.93Z" style="fill:rgb(64,62,63);fill-rule:nonzero;"/>
    </g>
    <g transform="matrix(1,0,0,1,137,0)">
        <path d="M139.112,891.256C167.627,880.312 191.237,857.341 202.955,829.131C208.633,815.456 211.458,800.666 211.458,785.878C211.458,770.162 208.265,754.444 201.886,740.059C201.536,739.272 200.612,738.916 199.824,739.266C199.036,739.616 198.68,740.537 199.03,741.328C205.224,755.291 208.333,770.584 208.333,785.878C208.333,800.269 205.58,814.656 200.068,827.934C188.702,855.325 165.683,877.725 137.993,888.337C137.187,888.647 136.78,889.553 137.09,890.356C137.399,891.162 138.302,891.566 139.112,891.256Z" style="fill:rgb(150,110,96);fill-rule:nonzero;"/>
    </g>
    <g transform="matrix(1,0,0,1,137,0)">
        <path d="M512.44,1072.07C514.262,1084.45 516.083,1096.84 517.902,1109.23C518.274,1111.75 518.683,1114.38 520.046,1116.47C525.63,1125.01 538.305,1116.5 547.587,1119.37C549.24,1103.92 549.124,1088.39 548.149,1072.87C536.271,1074.13 524.243,1073.9 512.44,1072.07Z" style="fill:rgb(64,62,63);fill-rule:nonzero;"/>
    </g>
    <g transform="matrix(1,0,0,1,137,0)">
        <path d="M548.149,1072.87C547.221,1058.11 545.515,1043.36 543.765,1028.69C535.596,960.226 526.699,891.857 517.083,823.613C515.771,814.276 514.358,804.682 509.911,796.563C505.621,788.732 498.862,782.926 492.255,777.304C483.521,769.873 474.79,762.445 466.058,755.013C469.143,777.632 472.465,800.213 475.783,822.795C477.78,836.376 479.78,849.96 481.777,863.541C491.996,933.051 502.218,1002.56 512.44,1072.07C524.243,1073.9 536.271,1074.13 548.149,1072.87Z" style="fill:rgb(171,122,100);fill-rule:nonzero;"/>
    </g>
    <g transform="matrix(1,0,0,1,137,0)">
        <path d="M743.412,163.144C742.005,163.953 740.499,164.737 738.874,164.775C737.115,164.816 735.462,163.978 733.968,163.05C722.08,155.662 715.874,142.066 707.152,131.119C704.98,128.391 702.508,125.722 699.274,124.422C696.036,123.122 691.865,123.572 689.705,126.309C686.171,130.794 689.952,137.194 693.63,141.562C701.021,150.334 708.411,159.106 715.805,167.878C719.249,171.969 722.921,176.884 721.833,182.119C721.283,184.759 719.577,186.987 717.921,189.116C711.077,197.903 703.924,206.95 694.052,212.103C691.955,213.197 689.33,214.078 687.324,212.822C686.137,212.078 685.474,210.75 684.865,209.487C682.78,205.156 680.696,200.822 678.611,196.491C673.18,196.134 666.349,196.587 664.262,201.616C662.574,205.684 665.265,210.222 668.312,213.403C671.358,216.584 675.071,219.603 676.012,223.906C676.749,227.291 675.593,230.766 674.449,234.034C672.333,240.084 670.218,246.134 668.105,252.184C676.38,253.262 684.415,256.175 691.458,260.653C697.93,245.866 705.112,230.269 718.621,221.437C723.855,218.016 729.771,215.809 735.518,213.337C768.696,199.059 797.483,174.762 817.13,144.453C836.777,114.147 847.208,77.947 846.699,41.831C846.524,29.184 844.921,16.181 838.805,5.109C837.54,2.822 835.78,0.422 833.19,0.047C830.549,-0.334 828.027,1.669 826.93,4.103C825.833,6.537 825.833,9.303 825.868,11.972C826.068,28.356 826.668,44.916 823.336,60.959C820.002,77.003 812.215,92.791 798.808,102.216C793.802,105.737 787.458,108.344 781.621,106.497C778.08,105.375 775.227,102.769 772.661,100.087C759.727,86.581 750.952,69.144 747.815,50.709C747.521,48.975 747.249,47.169 746.265,45.709C743.605,41.775 736.999,42.762 734.055,46.491C731.111,50.219 730.918,55.384 731.265,60.119C733.105,85.166 747.105,109.037 768.068,122.866C769.737,123.965 771.543,125.119 772.321,126.959C773.361,129.412 772.23,132.212 770.983,134.569C764.715,146.425 755.036,156.453 743.412,163.144Z" style="fill:rgb(238,209,186);fill-rule:nonzero;"/>
    </g>
    <g transform="matrix(1,0,0,1,137,0)">
        <path d="M292.868,136.191C295.033,143.097 303.618,146.331 310.68,144.734C317.74,143.141 323.424,137.981 328.233,132.569C333.94,126.147 338.927,119.081 343.068,111.553C344.54,108.878 345.971,106.062 348.358,104.159C350.746,102.256 354.418,101.562 356.808,103.459C358.308,104.65 359.005,106.587 359.368,108.469C360.468,114.212 359.077,120.14 357.224,125.69C353.94,135.522 349.174,144.859 343.14,153.284C339.249,158.716 334.599,164.519 335.19,171.169C335.63,176.1 338.924,180.278 342.365,183.837C350.446,192.203 360.143,199 370.762,203.744C375.643,205.925 381.18,207.687 386.265,206.028C390.443,204.665 393.543,201.244 396.774,198.262C401.933,193.497 407.874,189.578 414.287,186.712C415.89,185.997 417.712,185.341 419.352,185.966C420.49,186.4 421.33,187.391 421.955,188.437C424.943,193.434 423.949,200.006 421.087,205.075C418.224,210.144 413.771,214.078 409.568,218.106C406.605,220.947 403.605,224.1 402.696,228.103C402.08,230.822 402.502,233.662 403.105,236.384C404.933,244.612 408.433,252.466 413.33,259.328C406.205,262.862 399.083,266.397 391.958,269.928C384.702,254.144 377.121,237.906 364.293,226.19C353.505,216.344 339.786,210.422 326.218,205.015C289.308,190.303 249.818,177.016 222.933,147.759C216.068,140.284 210.208,131.934 204.93,123.265C190.436,99.465 180.23,73.141 174.133,45.95C173.168,41.65 172.308,37.153 173.377,32.875C174.443,28.6 177.999,24.625 182.402,24.519C187.615,24.394 191.399,29.294 193.987,33.819C209.612,61.169 215.686,94.337 237.177,117.365C241.086,121.55 245.699,125.45 251.293,126.681C258.668,128.306 266.49,124.831 271.674,119.334C276.855,113.841 279.78,106.6 281.855,99.337C286.59,82.787 287.474,65.15 284.418,48.209C283.78,44.672 283.043,40.741 284.977,37.712C286.936,34.641 291.19,33.644 294.696,34.634C298.199,35.625 301.037,38.212 303.327,41.044C311.974,51.731 314.318,66.506 312.243,80.094C310.171,93.684 304.118,106.331 297.415,118.334C294.33,123.859 290.98,130.15 292.868,136.191Z" style="fill:rgb(238,209,186);fill-rule:nonzero;"/>
    </g>
    <g transform="matrix(1,0,0,1,137,0)">
        <path d="M791.061,263.044C796.011,262.519 801.012,262.453 805.977,262.853C810.733,263.234 816.399,264.837 817.627,269.45C818.702,273.481 815.683,277.353 812.837,280.403C799.386,294.819 784.662,308.891 777.115,327.106C763.537,312.291 748.555,298.762 732.436,286.759C750.615,275.737 769.921,265.281 791.061,263.044Z" style="fill:rgb(150,110,96);fill-rule:nonzero;"/>
    </g>
    <g transform="matrix(1,0,0,1,137,0)">
        <path d="M775.18,314.578C772.84,317.106 770.352,320.009 770.427,323.453C761.774,315.487 753.118,307.525 744.462,299.559C759.199,284.369 779.796,275.012 800.93,273.906C803.693,273.762 807.302,274.403 807.749,277.134C808.037,278.894 806.74,280.475 805.527,281.781C795.415,292.712 785.296,303.647 775.18,314.578Z" style="fill:rgb(235,194,175);fill-rule:nonzero;"/>
    </g>
    <g transform="matrix(1,0,0,1,137,0)">
        <path d="M339.243,274.725C332.221,272.128 324.752,270.931 317.29,270.297C300.03,268.825 282.146,270.403 266.458,277.747C263.252,279.25 259.724,281.678 259.79,285.215C259.855,288.775 263.48,291.05 266.621,292.719C288.061,304.109 307.796,318.697 324.974,335.853C334.43,318.631 347.496,303.403 363.08,291.444C356.743,283.95 348.446,278.131 339.243,274.725Z" style="fill:rgb(150,110,96);fill-rule:nonzero;"/>
    </g>
    <g transform="matrix(1,0,0,1,137,0)">
        <path d="M286.846,287.5C285.255,288.5 283.68,289.9 283.468,291.769C283.171,294.369 285.561,296.406 287.699,297.915C301.499,307.662 315.302,317.406 329.102,327.153C335.705,316.444 343.59,306.525 352.53,297.675C338.849,288.434 322.408,283.34 305.899,283.219C299.299,283.172 292.433,283.987 286.846,287.5Z" style="fill:rgb(235,194,175);fill-rule:nonzero;"/>
    </g>
    <g transform="matrix(1,0,0,1,137,0)">
        <path d="M793.643,355.806C792.637,349.937 789.696,344.597 786.577,339.528C760.355,296.919 718.265,265.575 671.446,247.531C641.849,284.228 624.027,329.134 609.346,374.037C594.321,419.978 581.949,467.172 578.905,515.412C570.202,513.897 560.924,513.769 552.405,516.119C552.352,514.644 552.299,513.169 552.218,511.697C551.012,490.203 543.624,469.597 536.155,449.406C522.318,412 507.874,374.65 488.471,339.803C470.133,306.869 447.055,276.156 417.968,252.256C404.127,258.216 391.049,265.684 379.293,275.194C370.393,282.394 352.821,295.987 344.849,304.203C334.018,315.375 329.661,319.862 318.827,331.031C311.646,338.437 307.287,347.644 304.699,357.631C300.674,373.166 309.468,388.991 319.115,401.816C345.793,437.291 381.946,465.569 422.802,482.919C434.574,487.916 446.702,492.019 458.818,496.116C488.877,506.278 518.94,516.444 548.999,526.606C557.493,529.478 566.362,532.391 575.243,531.191C581.715,530.316 587.674,527.316 593.49,524.347C661.127,489.812 729.437,451.937 778.202,393.716C787.255,382.906 796.024,369.706 793.643,355.806Z" style="fill:rgb(171,122,100);fill-rule:nonzero;"/>
    </g>
    <g transform="matrix(1,0,0,1,137,0)">
        <path d="M488.471,339.803C507.874,374.65 522.318,412 536.155,449.406C543.624,469.597 551.012,490.203 552.218,511.697C552.299,513.169 552.352,514.644 552.405,516.119C560.924,513.769 570.202,513.897 578.905,515.412C581.949,467.172 594.321,419.978 609.346,374.037C624.027,329.134 641.849,284.228 671.446,247.531C665.571,245.269 659.637,243.181 653.636,241.344C599.805,224.837 541.965,224.566 486.383,233.559C463.065,237.331 439.58,242.944 417.968,252.256C447.055,276.156 470.133,306.869 488.471,339.803Z" style="fill:rgb(198,144,119);fill-rule:nonzero;"/>
    </g>
    <g transform="matrix(1,0,0,1,137,0)">
        <path d="M548.943,538.275C550.924,540.722 553.465,542.753 556.402,543.884C559.055,544.906 561.933,545.169 564.774,545.316C567.818,545.469 570.915,545.497 573.858,544.7C579.749,543.103 584.421,538.25 586.762,532.612C589.105,526.975 589.333,520.641 588.474,514.6C588.218,512.781 587.858,510.956 587.074,509.3C585.393,505.747 581.918,503.331 578.258,501.897C568.415,498.037 556.187,500.865 549.43,508.997C542.674,517.131 542.287,530.062 548.943,538.275Z" style="fill:rgb(64,62,63);fill-rule:nonzero;"/>
    </g>
    <g transform="matrix(1,0,0,1,137,0)">
        <path d="M664.655,392.787C663.193,388.972 658.333,386.872 654.555,388.425C650.771,389.975 648.79,394.884 650.43,398.628C652.024,402.259 656.727,404.159 660.393,402.653C664.061,401.147 666.074,396.491 664.655,392.787Z" style="fill:rgb(64,62,63);fill-rule:nonzero;"/>
    </g>
    <g transform="matrix(1,0,0,1,137,0)">
        <path d="M448.193,392.787C446.733,388.972 441.874,386.872 438.093,388.425C434.312,389.975 432.327,394.884 433.971,398.628C435.561,402.259 440.265,404.159 443.933,402.653C447.602,401.147 449.612,396.491 448.193,392.787Z" style="fill:rgb(64,62,63);fill-rule:nonzero;"/>
    </g>
    <g transform="matrix(1,0,0,1,137,0)">
        <path d="M683.03,458.275C685.674,459.344 688.493,460.009 691.343,460.097C700.927,460.4 710.261,453.441 712.708,444.175C715.155,434.9 710.471,424.244 701.987,419.778C700.221,418.847 698.312,418.166 696.333,417.887C689.612,416.956 683.108,420.828 678.218,425.537C674.902,428.728 671.949,432.503 670.78,436.956C669.671,441.162 670.286,445.797 672.452,449.572C674.771,453.603 678.718,456.534 683.03,458.275Z" style="fill:rgb(225,146,115);fill-rule:nonzero;"/>
    </g>
    <g transform="matrix(1,0,0,1,137,0)">
        <path d="M452.274,443.15C451.412,441.569 450.362,440.087 449.083,438.822C446.315,436.075 442.552,434.453 438.696,433.872C433.886,433.147 428.918,433.972 424.39,435.75C420.683,437.209 417.136,439.384 414.808,442.616C409.993,449.294 411.808,459.365 417.752,465.062C423.693,470.759 432.755,472.384 440.808,470.665C442.293,470.35 443.758,469.928 445.14,469.3C449.758,467.203 453.165,462.787 454.38,457.866C455.596,452.94 454.699,447.6 452.274,443.15Z" style="fill:rgb(225,146,115);fill-rule:nonzero;"/>
    </g>
    <g transform="matrix(1,0,0,1,137,0)">
        <path d="M492.458,276.522C495.986,281.825 499.302,287.269 502.396,292.834C502.815,293.591 503.768,293.859 504.521,293.441C505.277,293.022 505.546,292.072 505.127,291.315C501.993,285.678 498.633,280.166 495.062,274.794C494.583,274.075 493.615,273.878 492.896,274.356C492.177,274.834 491.98,275.803 492.458,276.522Z" style="fill:rgb(150,110,96);fill-rule:nonzero;"/>
    </g>
    <g transform="matrix(1,0,0,1,137,0)">
        <path d="M507.583,281.691C511.243,285.694 513.621,290.887 514.268,296.272C514.371,297.128 515.149,297.74 516.005,297.637C516.861,297.534 517.474,296.756 517.371,295.897C516.64,289.853 513.996,284.081 509.89,279.584C509.308,278.947 508.321,278.9 507.683,279.484C507.046,280.066 507.002,281.053 507.583,281.691Z" style="fill:rgb(150,110,96);fill-rule:nonzero;"/>
    </g>
    <g transform="matrix(1,0,0,1,137,0)">
        <path d="M525.88,282.522C527.924,287.066 529.261,291.934 529.827,296.884C529.924,297.744 530.699,298.359 531.555,298.259C532.415,298.162 533.03,297.387 532.93,296.531C532.33,291.256 530.908,286.081 528.73,281.237C528.374,280.453 527.449,280.1 526.665,280.453C525.877,280.809 525.524,281.734 525.88,282.522Z" style="fill:rgb(150,110,96);fill-rule:nonzero;"/>
    </g>
    <g transform="matrix(1,0,0,1,137,0)">
        <path d="M522.63,312.4C524.765,317.515 526.461,322.819 527.693,328.228C527.883,329.069 528.721,329.594 529.562,329.403C530.402,329.212 530.93,328.375 530.74,327.534C529.468,321.95 527.718,316.478 525.515,311.197C525.183,310.4 524.268,310.022 523.471,310.356C522.674,310.687 522.299,311.603 522.63,312.4Z" style="fill:rgb(150,110,96);fill-rule:nonzero;"/>
    </g>
    <g transform="matrix(1,0,0,1,137,0)">
        <path d="M537.437,305.906C537.336,307.141 537.286,308.378 537.286,309.619C537.286,313.347 537.733,317.078 538.624,320.703C538.83,321.541 539.677,322.053 540.515,321.847C541.352,321.641 541.865,320.794 541.658,319.956C540.83,316.578 540.411,313.097 540.411,309.619C540.411,308.462 540.458,307.306 540.549,306.156C540.618,305.297 539.977,304.544 539.118,304.472C538.258,304.403 537.505,305.044 537.437,305.906Z" style="fill:rgb(150,110,96);fill-rule:nonzero;"/>
    </g>
    <g transform="matrix(1,0,0,1,137,0)">
        <path d="M551.952,318.316C551.555,321.875 551.355,325.456 551.355,329.041C551.355,330.953 551.412,332.869 551.524,334.778C551.577,335.641 552.318,336.297 553.177,336.244C554.04,336.194 554.696,335.453 554.646,334.591C554.533,332.744 554.48,330.89 554.48,329.041C554.48,325.575 554.674,322.109 555.058,318.662C555.152,317.806 554.537,317.034 553.677,316.937C552.821,316.84 552.049,317.459 551.952,318.316Z" style="fill:rgb(150,110,96);fill-rule:nonzero;"/>
    </g>
    <g transform="matrix(1,0,0,1,137,0)">
        <path d="M540.946,334.497C540.827,335.415 540.768,336.341 540.768,337.266C540.771,340.975 541.699,344.672 543.48,347.934C543.896,348.691 544.843,348.969 545.602,348.556C546.358,348.141 546.636,347.194 546.224,346.434C544.699,343.647 543.893,340.45 543.893,337.266C543.893,336.472 543.943,335.678 544.043,334.894C544.152,334.037 543.549,333.253 542.693,333.144C541.836,333.034 541.055,333.641 540.946,334.497Z" style="fill:rgb(150,110,96);fill-rule:nonzero;"/>
    </g>
    <g transform="matrix(1,0,0,1,137,0)">
        <path d="M529.555,345.753C530.962,350.684 532.368,355.619 533.777,360.55C534.012,361.381 534.877,361.862 535.708,361.625C536.536,361.387 537.018,360.522 536.78,359.694C535.374,354.759 533.968,349.828 532.558,344.894C532.324,344.066 531.458,343.584 530.627,343.822C529.799,344.056 529.318,344.922 529.555,345.753Z" style="fill:rgb(150,110,96);fill-rule:nonzero;"/>
    </g>
    <g transform="matrix(1,0,0,1,137,0)">
        <path d="M504.452,319.497C507.827,323.859 510.508,328.766 512.358,333.966C512.649,334.778 513.543,335.203 514.355,334.912C515.168,334.622 515.593,333.728 515.302,332.916C513.34,327.406 510.502,322.212 506.924,317.584C506.396,316.9 505.415,316.775 504.73,317.303C504.049,317.831 503.924,318.812 504.452,319.497Z" style="fill:rgb(150,110,96);fill-rule:nonzero;"/>
    </g>
    <g transform="matrix(1,0,0,1,137,0)">
        <path d="M550.924,271.059C550.749,272.822 550.662,274.591 550.662,276.362C550.662,280.403 551.115,284.444 552.012,288.384C552.202,289.225 553.04,289.753 553.88,289.559C554.724,289.369 555.249,288.531 555.058,287.691C554.212,283.978 553.787,280.169 553.787,276.362C553.787,274.694 553.868,273.025 554.033,271.366C554.118,270.506 553.49,269.741 552.63,269.656C551.774,269.572 551.008,270.2 550.924,271.059Z" style="fill:rgb(150,110,96);fill-rule:nonzero;"/>
    </g>
    <g transform="matrix(1,0,0,1,137,0)">
        <path d="M566.783,281.894C565.349,286.762 564.618,291.837 564.618,296.916L564.618,297.253L564.618,297.244C564.621,297.534 564.621,297.822 564.621,298.103C564.637,299.669 564.477,300.956 563.896,301.715C563.386,302.412 563.543,303.391 564.24,303.9C564.937,304.409 565.915,304.253 566.424,303.556C567.702,301.762 567.733,299.753 567.746,298.103C567.746,297.8 567.746,297.506 567.743,297.225L567.743,297.215L567.743,296.916C567.743,292.137 568.43,287.359 569.78,282.778C570.024,281.95 569.552,281.081 568.724,280.837C567.896,280.594 567.027,281.065 566.783,281.894Z" style="fill:rgb(150,110,96);fill-rule:nonzero;"/>
    </g>
    <g transform="matrix(1,0,0,1,137,0)">
        <path d="M532.752,259.444C532.946,264.247 533.836,269.019 535.387,273.572C535.665,274.387 536.552,274.825 537.371,274.547C538.187,274.266 538.624,273.378 538.346,272.562C536.893,268.297 536.055,263.819 535.874,259.319C535.836,258.456 535.112,257.784 534.249,257.822C533.387,257.856 532.715,258.581 532.752,259.444Z" style="fill:rgb(150,110,96);fill-rule:nonzero;"/>
    </g>
    <g transform="matrix(1,0,0,1,137,0)">
        <path d="M564.38,253.209C563.546,255.741 563.127,258.397 563.127,261.053C563.127,263.353 563.44,265.653 564.071,267.872C564.305,268.7 565.171,269.181 566.002,268.947C566.83,268.709 567.312,267.847 567.077,267.015C566.527,265.084 566.252,263.069 566.252,261.053C566.252,258.725 566.621,256.394 567.349,254.191C567.621,253.372 567.174,252.487 566.355,252.216C565.537,251.947 564.652,252.391 564.383,253.209L564.38,253.209Z" style="fill:rgb(150,110,96);fill-rule:nonzero;"/>
    </g>
    <g transform="matrix(1,0,0,1,137,0)">
        <path d="M587.143,258.606C584.44,263.375 582.918,268.794 582.743,274.272C582.715,275.134 583.393,275.856 584.255,275.884C585.118,275.909 585.84,275.234 585.865,274.372C586.021,269.406 587.408,264.469 589.862,260.147C590.287,259.397 590.024,258.444 589.274,258.019C588.524,257.591 587.568,257.856 587.143,258.606Z" style="fill:rgb(150,110,96);fill-rule:nonzero;"/>
    </g>
    <g transform="matrix(1,0,0,1,137,0)">
        <path d="M585.371,293.641C583.499,297.65 582.521,302.062 582.521,306.487C582.521,306.775 582.524,307.062 582.533,307.353C582.562,308.216 583.28,308.894 584.143,308.866C585.005,308.84 585.683,308.119 585.658,307.256L585.646,306.487C585.646,302.525 586.524,298.553 588.202,294.962C588.568,294.181 588.23,293.25 587.446,292.884C586.665,292.519 585.737,292.859 585.371,293.641Z" style="fill:rgb(150,110,96);fill-rule:nonzero;"/>
    </g>
    <g transform="matrix(1,0,0,1,137,0)">
        <path d="M568.896,314.772C568.896,318.922 568.896,323.072 568.896,327.219C568.896,328.081 569.596,328.781 570.458,328.781C571.321,328.781 572.021,328.081 572.021,327.219C572.021,323.072 572.021,318.922 572.021,314.772C572.021,313.909 571.321,313.209 570.458,313.209C569.596,313.209 568.896,313.909 568.896,314.772Z" style="fill:rgb(150,110,96);fill-rule:nonzero;"/>
    </g>
    <g transform="matrix(1,0,0,1,137,0)">
        <path d="M585.155,325.766C582.58,330.372 581.043,335.541 580.69,340.806C580.63,341.665 581.28,342.409 582.143,342.469C583.002,342.528 583.749,341.875 583.805,341.016C584.13,336.219 585.533,331.487 587.883,327.291C588.302,326.537 588.033,325.587 587.28,325.165C586.527,324.744 585.577,325.012 585.155,325.766Z" style="fill:rgb(150,110,96);fill-rule:nonzero;"/>
    </g>
    <g transform="matrix(1,0,0,1,137,0)">
        <path d="M568.324,342.769C566.54,347.028 565.624,351.634 565.624,356.25C565.624,357.628 565.705,359.012 565.874,360.384C565.977,361.241 566.755,361.853 567.612,361.747C568.468,361.644 569.08,360.866 568.974,360.009C568.824,358.762 568.749,357.506 568.749,356.25C568.749,352.05 569.586,347.844 571.208,343.978C571.54,343.181 571.165,342.266 570.371,341.931C569.574,341.597 568.658,341.972 568.324,342.769Z" style="fill:rgb(150,110,96);fill-rule:nonzero;"/>
    </g>
    <g transform="matrix(1,0,0,1,137,0)">
        <path d="M553.871,354.112C554.258,359.037 555.036,363.934 556.202,368.737C556.405,369.575 557.249,370.091 558.09,369.887C558.927,369.684 559.443,368.837 559.24,368C558.115,363.359 557.361,358.628 556.987,353.869C556.918,353.006 556.168,352.366 555.305,352.431C554.446,352.5 553.805,353.253 553.871,354.112Z" style="fill:rgb(150,110,96);fill-rule:nonzero;"/>
    </g>
    <g transform="matrix(1,0,0,1,137,0)">
        <path d="M577.552,357.984C576.687,361.916 575.821,365.85 574.955,369.784C574.771,370.628 575.305,371.462 576.146,371.647C576.99,371.831 577.824,371.3 578.008,370.456C578.874,366.522 579.74,362.587 580.602,358.653C580.79,357.812 580.255,356.978 579.412,356.794C578.571,356.606 577.737,357.141 577.552,357.984Z" style="fill:rgb(150,110,96);fill-rule:nonzero;"/>
    </g>
    <g transform="matrix(1,0,0,1,137,0)">
        <path d="M603.952,288.844C600.346,293.597 598.058,299.319 597.393,305.247C597.296,306.103 597.915,306.878 598.771,306.972C599.63,307.069 600.402,306.453 600.499,305.594C601.099,300.234 603.18,295.028 606.443,290.734C606.965,290.047 606.83,289.065 606.143,288.544C605.455,288.022 604.474,288.156 603.952,288.844Z" style="fill:rgb(150,110,96);fill-rule:nonzero;"/>
    </g>
    <g transform="matrix(1,0,0,1,137,0)">
        <path d="M518.805,253.919C520.708,258.569 522.158,263.409 523.127,268.344C523.293,269.191 524.111,269.741 524.958,269.575C525.805,269.409 526.358,268.587 526.193,267.741C525.186,262.609 523.68,257.575 521.699,252.734C521.371,251.934 520.458,251.553 519.661,251.881C518.861,252.206 518.48,253.119 518.805,253.919Z" style="fill:rgb(150,110,96);fill-rule:nonzero;"/>
    </g>
    <g transform="matrix(1,0,0,1,137,0)">
        <path d="M549.14,383.562C550.111,387.728 551.08,391.891 552.052,396.056C552.249,396.897 553.09,397.419 553.93,397.222C554.771,397.028 555.293,396.187 555.096,395.347C554.124,391.181 553.152,387.016 552.183,382.853C551.987,382.012 551.146,381.491 550.305,381.684C549.465,381.881 548.943,382.722 549.14,383.562Z" style="fill:rgb(150,110,96);fill-rule:nonzero;"/>
    </g>
    <g transform="matrix(1,0,0,1,137,0)">
        <path d="M560.118,387.944C559.712,390.384 559.508,392.856 559.508,395.331C559.508,398.719 559.89,402.109 560.649,405.412C560.843,406.253 561.68,406.778 562.521,406.587C563.361,406.394 563.887,405.553 563.693,404.712C562.986,401.641 562.633,398.484 562.633,395.331C562.633,393.028 562.824,390.725 563.202,388.456C563.343,387.606 562.768,386.8 561.918,386.659C561.065,386.516 560.261,387.091 560.118,387.944Z" style="fill:rgb(150,110,96);fill-rule:nonzero;"/>
    </g>
    <g transform="matrix(1,0,0,1,137,0)">
        <path d="M608.202,305.575C606.565,310.534 605.371,315.641 604.643,320.815C604.524,321.669 605.118,322.459 605.974,322.578C606.827,322.7 607.618,322.103 607.736,321.25C608.44,316.262 609.59,311.337 611.168,306.553C611.44,305.734 610.993,304.85 610.174,304.581C609.355,304.309 608.471,304.753 608.202,305.575Z" style="fill:rgb(150,110,96);fill-rule:nonzero;"/>
    </g>
    <g transform="matrix(1,0,0,1,137,0)">
        <path d="M475.452,279.809C480.08,282.509 483.69,287 485.33,292.1C485.596,292.922 486.477,293.372 487.299,293.109C488.118,292.844 488.571,291.962 488.305,291.14C486.415,285.287 482.337,280.215 477.027,277.109C476.283,276.675 475.324,276.925 474.89,277.672C474.455,278.416 474.705,279.372 475.452,279.809Z" style="fill:rgb(150,110,96);fill-rule:nonzero;"/>
    </g>
    <g transform="matrix(1,0,0,1,137,0)">
        <path d="M604.918,247.937C602.149,253.2 600.065,258.816 598.721,264.609C598.527,265.45 599.052,266.287 599.893,266.481C600.733,266.678 601.571,266.153 601.768,265.312C603.046,259.781 605.04,254.416 607.683,249.391C608.083,248.625 607.79,247.681 607.027,247.281C606.262,246.878 605.318,247.172 604.918,247.937Z" style="fill:rgb(150,110,96);fill-rule:nonzero;"/>
    </g>
    <g transform="matrix(1,0,0,1,137,0)">
        <path d="M494.583,248.1C497.199,250.756 499.043,254.194 499.811,257.841C499.99,258.684 500.818,259.225 501.662,259.05C502.505,258.872 503.046,258.041 502.868,257.197C501.974,252.953 499.852,249 496.812,245.909C496.205,245.294 495.218,245.284 494.602,245.891C493.987,246.497 493.98,247.484 494.583,248.1Z" style="fill:rgb(150,110,96);fill-rule:nonzero;"/>
    </g>
    <g transform="matrix(1,0,0,1,137,0)">
        <path d="M500.411,562.444C501.627,568.031 502.843,573.619 504.062,579.206C504.243,580.05 505.074,580.584 505.918,580.4C506.761,580.219 507.296,579.384 507.115,578.544C505.896,572.956 504.68,567.369 503.465,561.781C503.28,560.937 502.449,560.403 501.605,560.587C500.761,560.769 500.227,561.603 500.411,562.444Z" style="fill:rgb(198,144,119);fill-rule:nonzero;"/>
    </g>
    <g transform="matrix(1,0,0,1,137,0)">
        <path d="M517.965,567.503C518.802,572.1 519.643,576.694 520.48,581.291C520.636,582.141 521.449,582.703 522.299,582.547C523.146,582.394 523.708,581.578 523.555,580.731C522.715,576.134 521.877,571.537 521.04,566.944C520.883,566.094 520.071,565.531 519.221,565.687C518.371,565.841 517.808,566.656 517.965,567.503Z" style="fill:rgb(198,144,119);fill-rule:nonzero;"/>
    </g>
    <g transform="matrix(1,0,0,1,137,0)">
        <path d="M536.899,574.328C536.421,579.916 535.94,585.506 535.462,591.094C535.39,591.953 536.027,592.709 536.886,592.784C537.746,592.856 538.502,592.219 538.577,591.359C539.055,585.772 539.533,580.184 540.011,574.594C540.086,573.734 539.449,572.978 538.587,572.906C537.727,572.831 536.971,573.469 536.899,574.328Z" style="fill:rgb(198,144,119);fill-rule:nonzero;"/>
    </g>
    <g transform="matrix(1,0,0,1,137,0)">
        <path d="M525.471,590.397C525.34,592.137 525.274,593.884 525.274,595.631C525.274,599.122 525.536,602.612 526.058,606.066C526.186,606.919 526.983,607.506 527.837,607.378C528.69,607.247 529.277,606.453 529.149,605.6C528.649,602.3 528.399,598.966 528.399,595.631C528.399,593.962 528.462,592.297 528.586,590.634C528.652,589.772 528.008,589.022 527.146,588.956C526.287,588.894 525.536,589.537 525.471,590.397Z" style="fill:rgb(198,144,119);fill-rule:nonzero;"/>
    </g>
    <g transform="matrix(1,0,0,1,137,0)">
        <path d="M506.246,595.356C506.452,600.416 507.865,605.406 510.349,609.816C510.771,610.569 511.724,610.834 512.477,610.412C513.227,609.987 513.496,609.034 513.071,608.284C510.833,604.309 509.552,599.787 509.371,595.231C509.333,594.369 508.608,593.7 507.746,593.734C506.883,593.769 506.212,594.497 506.246,595.356Z" style="fill:rgb(198,144,119);fill-rule:nonzero;"/>
    </g>
    <g transform="matrix(1,0,0,1,137,0)">
        <path d="M547.227,595.591L547.221,596.341C547.221,601.906 548.065,607.469 549.718,612.784C549.974,613.609 550.849,614.069 551.674,613.812C552.499,613.556 552.958,612.681 552.702,611.856C551.143,606.844 550.346,601.591 550.346,596.341L550.352,595.634C550.362,594.772 549.674,594.062 548.811,594.05C547.946,594.037 547.237,594.728 547.227,595.591Z" style="fill:rgb(198,144,119);fill-rule:nonzero;"/>
    </g>
    <g transform="matrix(1,0,0,1,137,0)">
        <path d="M537.765,611.578C537.746,611.991 537.737,612.406 537.737,612.825C537.737,618.019 539.14,623.197 541.777,627.678C542.215,628.422 543.171,628.672 543.915,628.234C544.658,627.797 544.908,626.837 544.471,626.094C542.121,622.103 540.862,617.456 540.862,612.825C540.862,612.453 540.871,612.084 540.887,611.712C540.924,610.853 540.255,610.122 539.393,610.084C538.53,610.047 537.802,610.716 537.765,611.578Z" style="fill:rgb(198,144,119);fill-rule:nonzero;"/>
    </g>
    <g transform="matrix(1,0,0,1,137,0)">
        <path d="M527.561,626.825C527.527,627.281 527.508,627.734 527.508,628.191C527.511,631.95 528.708,635.678 530.924,638.725C531.43,639.425 532.408,639.578 533.105,639.072C533.802,638.562 533.958,637.584 533.449,636.887C531.633,634.394 530.63,631.281 530.633,628.191C530.633,627.819 530.649,627.444 530.677,627.072C530.746,626.212 530.102,625.459 529.243,625.391C528.383,625.325 527.63,625.966 527.561,626.825Z" style="fill:rgb(198,144,119);fill-rule:nonzero;"/>
    </g>
    <g transform="matrix(1,0,0,1,137,0)">
        <path d="M512.268,630.556L512.261,630.931C512.265,634.319 513.424,637.666 515.53,640.328C516.068,641.003 517.049,641.119 517.727,640.581C518.402,640.047 518.515,639.062 517.98,638.387C516.321,636.297 515.383,633.6 515.386,630.931L515.39,630.637C515.411,629.775 514.73,629.056 513.868,629.034C513.005,629.012 512.29,629.694 512.268,630.556Z" style="fill:rgb(198,144,119);fill-rule:nonzero;"/>
    </g>
    <g transform="matrix(1,0,0,1,137,0)">
        <path d="M520.652,659.291C522.033,665.556 525.411,671.341 530.19,675.622C530.83,676.2 531.818,676.144 532.396,675.503C532.971,674.859 532.918,673.872 532.274,673.297C527.99,669.462 524.937,664.231 523.702,658.619C523.518,657.775 522.683,657.244 521.843,657.428C520.999,657.616 520.468,658.447 520.652,659.291Z" style="fill:rgb(198,144,119);fill-rule:nonzero;"/>
    </g>
    <g transform="matrix(1,0,0,1,137,0)">
        <path d="M539.668,665.597C540.146,670.084 541.924,674.403 544.74,677.928C545.28,678.603 546.261,678.712 546.936,678.172C547.612,677.634 547.721,676.65 547.18,675.978C544.74,672.928 543.186,669.15 542.777,665.266C542.683,664.409 541.915,663.787 541.058,663.878C540.199,663.969 539.577,664.737 539.668,665.597Z" style="fill:rgb(198,144,119);fill-rule:nonzero;"/>
    </g>
    <g transform="matrix(1,0,0,1,137,0)">
        <path d="M548.793,647.609C548.883,652.128 549.474,656.634 550.546,661.022C550.752,661.859 551.599,662.375 552.437,662.169C553.274,661.966 553.787,661.119 553.583,660.281C552.565,656.116 552.005,651.834 551.918,647.547C551.899,646.684 551.186,646 550.324,646.016C549.461,646.034 548.774,646.747 548.793,647.609Z" style="fill:rgb(198,144,119);fill-rule:nonzero;"/>
    </g>
    <g transform="matrix(1,0,0,1,137,0)">
        <path d="M574.274,658.934C573.983,664.031 573.69,669.131 573.399,674.231C573.349,675.091 574.008,675.831 574.868,675.878C575.73,675.928 576.468,675.272 576.518,674.409C576.808,669.309 577.102,664.209 577.393,659.112C577.443,658.25 576.783,657.512 575.924,657.462C575.061,657.412 574.324,658.072 574.274,658.934Z" style="fill:rgb(198,144,119);fill-rule:nonzero;"/>
    </g>
    <g transform="matrix(1,0,0,1,137,0)">
        <path d="M564.512,644.303C564.23,647.966 563.949,651.625 563.668,655.284C563.602,656.144 564.246,656.897 565.105,656.962C565.965,657.028 566.718,656.384 566.783,655.525C567.065,651.862 567.346,648.203 567.627,644.544C567.693,643.684 567.049,642.931 566.186,642.866C565.327,642.8 564.577,643.444 564.512,644.303Z" style="fill:rgb(198,144,119);fill-rule:nonzero;"/>
    </g>
    <g transform="matrix(1,0,0,1,137,0)">
        <path d="M595.187,672.669C594.599,677.853 593.065,682.937 590.693,687.587C590.299,688.356 590.605,689.297 591.374,689.687C592.143,690.081 593.083,689.775 593.474,689.006C596.021,684.022 597.658,678.584 598.293,673.022C598.39,672.166 597.774,671.391 596.918,671.294C596.058,671.197 595.286,671.812 595.187,672.669Z" style="fill:rgb(198,144,119);fill-rule:nonzero;"/>
    </g>
    <g transform="matrix(1,0,0,1,137,0)">
        <path d="M581.118,689.869C579.665,695.737 577.28,701.375 574.093,706.509C573.637,707.244 573.862,708.206 574.593,708.662C575.327,709.116 576.29,708.891 576.746,708.159C580.108,702.747 582.618,696.806 584.152,690.622C584.358,689.784 583.849,688.937 583.012,688.731C582.174,688.522 581.327,689.031 581.118,689.869Z" style="fill:rgb(198,144,119);fill-rule:nonzero;"/>
    </g>
    <g transform="matrix(1,0,0,1,137,0)">
        <path d="M590.29,706.534C587.952,712.697 583.949,718.241 578.833,722.394C578.162,722.937 578.062,723.922 578.605,724.594C579.149,725.262 580.133,725.366 580.802,724.822C586.355,720.309 590.674,714.328 593.211,707.644C593.518,706.834 593.112,705.934 592.302,705.628C591.496,705.322 590.596,705.728 590.29,706.534Z" style="fill:rgb(198,144,119);fill-rule:nonzero;"/>
    </g>
    <g transform="matrix(1,0,0,1,137,0)">
        <path d="M553.308,698.337L553.302,698.869C553.305,704.506 555.54,710.066 559.449,714.131C560.049,714.753 561.037,714.772 561.658,714.172C562.28,713.575 562.299,712.584 561.699,711.962C558.365,708.506 556.424,703.675 556.427,698.869L556.433,698.419C556.455,697.556 555.774,696.837 554.912,696.816C554.049,696.794 553.33,697.475 553.308,698.337Z" style="fill:rgb(198,144,119);fill-rule:nonzero;"/>
    </g>
    <g transform="matrix(1,0,0,1,137,0)">
        <path d="M564.083,685.144C564.083,688.547 564.083,691.947 564.083,695.347C564.083,696.209 564.783,696.909 565.646,696.909C566.508,696.909 567.208,696.209 567.208,695.347C567.208,691.947 567.208,688.547 567.208,685.144C567.208,684.281 566.508,683.581 565.646,683.581C564.783,683.581 564.083,684.281 564.083,685.144Z" style="fill:rgb(198,144,119);fill-rule:nonzero;"/>
    </g>
    <g transform="matrix(1,0,0,1,137,0)">
        <path d="M594.58,635.853C594.661,636.712 594.702,637.575 594.702,638.441C594.702,642.553 593.777,646.678 592.008,650.387C591.64,651.169 591.968,652.1 592.749,652.472C593.527,652.844 594.458,652.512 594.83,651.734C596.802,647.594 597.824,643.019 597.827,638.441C597.827,637.478 597.78,636.516 597.69,635.559C597.608,634.7 596.846,634.069 595.986,634.15C595.127,634.231 594.496,634.994 594.58,635.853Z" style="fill:rgb(198,144,119);fill-rule:nonzero;"/>
    </g>
    <g transform="matrix(1,0,0,1,137,0)">
        <path d="M610.602,623.572C610.815,624.894 610.918,626.234 610.918,627.572C610.918,631.156 610.168,634.744 608.708,638.009C608.358,638.8 608.712,639.722 609.502,640.075C610.29,640.425 611.211,640.072 611.565,639.284C613.202,635.606 614.043,631.591 614.043,627.572C614.043,626.069 613.927,624.566 613.686,623.078C613.552,622.225 612.749,621.647 611.896,621.784C611.046,621.919 610.465,622.722 610.602,623.572Z" style="fill:rgb(198,144,119);fill-rule:nonzero;"/>
    </g>
    <g transform="matrix(1,0,0,1,137,0)">
        <path d="M599.59,612.003C599.896,613.491 600.046,615.009 600.046,616.531C600.046,618.969 599.655,621.406 598.883,623.709C598.608,624.528 599.052,625.416 599.871,625.687C600.687,625.962 601.574,625.522 601.849,624.703C602.727,622.072 603.171,619.303 603.171,616.531C603.171,614.803 602.999,613.072 602.649,611.372C602.474,610.528 601.649,609.984 600.805,610.159C599.958,610.331 599.415,611.159 599.59,612.003Z" style="fill:rgb(198,144,119);fill-rule:nonzero;"/>
    </g>
    <g transform="matrix(1,0,0,1,137,0)">
        <path d="M580.033,616.872C580.146,618.319 580.202,619.772 580.202,621.225C580.202,625.259 579.774,629.297 578.924,633.241C578.743,634.084 579.28,634.916 580.124,635.097C580.968,635.278 581.799,634.744 581.98,633.9C582.874,629.737 583.327,625.481 583.327,621.225C583.327,619.694 583.268,618.159 583.152,616.634C583.083,615.772 582.333,615.128 581.474,615.194C580.612,615.259 579.968,616.012 580.033,616.872Z" style="fill:rgb(198,144,119);fill-rule:nonzero;"/>
    </g>
    <g transform="matrix(1,0,0,1,137,0)">
        <path d="M591.008,596.341C591.008,599.256 591.008,602.172 591.008,605.087C591.008,605.95 591.708,606.65 592.571,606.65C593.433,606.65 594.133,605.95 594.133,605.087C594.133,602.172 594.133,599.256 594.133,596.341C594.133,595.478 593.433,594.781 592.571,594.781C591.708,594.781 591.008,595.478 591.008,596.341Z" style="fill:rgb(198,144,119);fill-rule:nonzero;"/>
    </g>
    <g transform="matrix(1,0,0,1,137,0)">
        <path d="M616.78,584.131C616.846,584.869 616.877,585.606 616.877,586.347C616.88,590.681 615.755,595.031 613.633,598.806C613.212,599.559 613.48,600.512 614.23,600.934C614.983,601.356 615.937,601.091 616.358,600.334C618.746,596.078 620.002,591.219 620.002,586.347C620.002,585.516 619.968,584.684 619.893,583.856C619.815,582.997 619.058,582.362 618.199,582.437C617.34,582.516 616.702,583.272 616.78,584.134L616.78,584.131Z" style="fill:rgb(198,144,119);fill-rule:nonzero;"/>
    </g>
    <g transform="matrix(1,0,0,1,137,0)">
        <path d="M560.399,589.781C560.399,593.912 560.399,598.044 560.399,602.172C560.399,603.034 561.099,603.734 561.961,603.734C562.824,603.734 563.524,603.034 563.524,602.172C563.524,598.044 563.524,593.912 563.524,589.781C563.524,588.919 562.824,588.219 561.961,588.219C561.099,588.219 560.399,588.919 560.399,589.781Z" style="fill:rgb(198,144,119);fill-rule:nonzero;"/>
    </g>
    <g transform="matrix(1,0,0,1,137,0)">
        <path d="M584.149,567.656C583.777,570.297 583.593,572.966 583.593,575.631C583.593,577.234 583.658,578.834 583.793,580.434C583.865,581.294 584.621,581.931 585.48,581.859C586.343,581.787 586.98,581.031 586.908,580.172C586.78,578.662 586.718,577.147 586.718,575.631C586.718,573.109 586.893,570.587 587.243,568.091C587.361,567.234 586.768,566.447 585.911,566.325C585.058,566.206 584.268,566.803 584.149,567.656Z" style="fill:rgb(198,144,119);fill-rule:nonzero;"/>
    </g>
    <g transform="matrix(1,0,0,1,137,0)">
        <path d="M536.886,699.684C538.315,704.016 540.499,708.087 543.318,711.672C543.852,712.35 544.833,712.469 545.512,711.934C546.19,711.403 546.308,710.419 545.774,709.741C543.183,706.444 541.168,702.687 539.855,698.706C539.587,697.884 538.702,697.441 537.883,697.709C537.062,697.981 536.618,698.866 536.886,699.684Z" style="fill:rgb(198,144,119);fill-rule:nonzero;"/>
    </g>
    <g transform="matrix(1,0,0,1,137,0)">
        <path d="M505.63,654.028C505.927,658.569 507.624,662.981 510.446,666.55C510.98,667.228 511.965,667.344 512.64,666.806C513.318,666.272 513.43,665.287 512.896,664.612C510.474,661.553 508.999,657.719 508.749,653.825C508.693,652.966 507.949,652.312 507.09,652.369C506.227,652.422 505.574,653.166 505.63,654.028Z" style="fill:rgb(198,144,119);fill-rule:nonzero;"/>
    </g>
    <g transform="matrix(1,0,0,1,137,0)">
        <path d="M552.536,561.716C551.868,564.25 551.536,566.869 551.536,569.484C551.536,571.525 551.74,573.569 552.146,575.572C552.321,576.419 553.146,576.962 553.99,576.791C554.837,576.619 555.38,575.794 555.208,574.947C554.843,573.153 554.661,571.319 554.661,569.484C554.661,567.134 554.961,564.781 555.558,562.512C555.777,561.678 555.28,560.822 554.446,560.603C553.611,560.384 552.755,560.881 552.536,561.716Z" style="fill:rgb(198,144,119);fill-rule:nonzero;"/>
    </g>
    <g transform="matrix(1,0,0,1,137,0)">
        <path d="M561.015,616.766C561.065,621.525 562.318,626.25 564.633,630.409C565.052,631.162 566.005,631.434 566.758,631.016C567.511,630.594 567.783,629.644 567.365,628.887C565.305,625.194 564.183,620.962 564.14,616.734C564.133,615.872 563.424,615.178 562.561,615.187C561.699,615.197 561.008,615.903 561.018,616.766L561.015,616.766Z" style="fill:rgb(198,144,119);fill-rule:nonzero;"/>
    </g>
    <g transform="matrix(1,0,0,1,137,0)">
        <path d="M626.718,673.009C626.805,674.006 626.849,675.006 626.849,676.009C626.849,680.931 625.78,685.866 623.727,690.337C623.368,691.122 623.711,692.047 624.496,692.409C625.28,692.769 626.208,692.425 626.568,691.641C628.812,686.75 629.974,681.384 629.974,676.009C629.974,674.916 629.927,673.822 629.83,672.731C629.752,671.872 628.993,671.237 628.133,671.312C627.274,671.391 626.64,672.15 626.718,673.009Z" style="fill:rgb(198,144,119);fill-rule:nonzero;"/>
    </g>
    <g transform="matrix(1,0,0,1,137,0)">
        <path d="M506.574,717.406C506.943,724.025 509.387,730.481 513.49,735.684C514.024,736.362 515.008,736.478 515.686,735.944C516.362,735.409 516.477,734.425 515.943,733.75C512.246,729.062 510.024,723.194 509.696,717.234C509.649,716.372 508.912,715.712 508.049,715.762C507.187,715.809 506.527,716.547 506.577,717.409L506.574,717.406Z" style="fill:rgb(198,144,119);fill-rule:nonzero;"/>
    </g>
    <g transform="matrix(1,0,0,1,137,0)">
        <path d="M522.262,730.059C523.474,734.056 525.574,737.772 528.371,740.872C528.949,741.512 529.936,741.562 530.577,740.984C531.218,740.406 531.268,739.419 530.69,738.778C528.205,736.025 526.33,732.706 525.252,729.153C525.002,728.328 524.13,727.862 523.305,728.112C522.48,728.362 522.011,729.234 522.262,730.059Z" style="fill:rgb(198,144,119);fill-rule:nonzero;"/>
    </g>
    <g transform="matrix(1,0,0,1,137,0)">
        <path d="M17.199,584.681C15.368,589.172 14.424,594.016 14.424,598.862C14.424,599.759 14.455,600.659 14.521,601.556C14.583,602.419 15.333,603.066 16.193,603C17.055,602.937 17.702,602.191 17.64,601.328C17.58,600.509 17.549,599.684 17.549,598.862C17.549,594.419 18.415,589.972 20.093,585.859C20.418,585.062 20.033,584.15 19.233,583.825C18.437,583.497 17.524,583.881 17.199,584.681Z" style="fill:rgb(171,122,100);fill-rule:nonzero;"/>
    </g>
    <g transform="matrix(1,0,0,1,137,0)">
        <path d="M24.08,595.331C23.487,598.431 23.186,601.584 23.186,604.737C23.186,605.609 23.208,606.484 23.255,607.356C23.302,608.219 24.036,608.881 24.899,608.834C25.761,608.791 26.421,608.053 26.377,607.191C26.333,606.375 26.311,605.556 26.311,604.737C26.311,601.781 26.593,598.825 27.149,595.922C27.312,595.075 26.758,594.256 25.912,594.094C25.061,593.931 24.243,594.484 24.08,595.331Z" style="fill:rgb(171,122,100);fill-rule:nonzero;"/>
    </g>
    <g transform="matrix(1,0,0,1,137,0)">
        <path d="M15.43,615.778C15.23,616.9 15.137,618.034 15.137,619.166C15.14,623.947 16.846,628.703 19.98,632.35C20.543,633.006 21.527,633.078 22.183,632.516C22.836,631.953 22.912,630.966 22.349,630.312C19.724,627.269 18.258,623.2 18.258,619.166C18.258,618.209 18.343,617.259 18.508,616.322C18.658,615.472 18.09,614.662 17.24,614.512C16.39,614.362 15.58,614.928 15.43,615.778Z" style="fill:rgb(171,122,100);fill-rule:nonzero;"/>
    </g>
    <g transform="matrix(1,0,0,1,137,0)">
        <path d="M27.527,621.044L27.511,621.753C27.518,626.441 29.621,631.028 33.202,634.069C33.858,634.628 34.846,634.547 35.402,633.887C35.962,633.228 35.88,632.244 35.221,631.684C32.368,629.278 30.627,625.494 30.636,621.753L30.649,621.191C30.69,620.328 30.024,619.597 29.162,619.556C28.299,619.516 27.568,620.181 27.527,621.044Z" style="fill:rgb(171,122,100);fill-rule:nonzero;"/>
    </g>
    <g transform="matrix(1,0,0,1,137,0)">
        <path d="M38.705,602.003C38.615,602.762 38.571,603.522 38.571,604.284C38.574,608.716 40.068,613.116 42.821,616.612C43.355,617.287 44.336,617.406 45.015,616.872C45.693,616.337 45.808,615.353 45.274,614.675C42.971,611.762 41.693,608.009 41.696,604.284C41.696,603.647 41.733,603.006 41.808,602.375C41.911,601.516 41.299,600.741 40.443,600.637C39.587,600.534 38.808,601.147 38.705,602.003Z" style="fill:rgb(171,122,100);fill-rule:nonzero;"/>
    </g>
    <g transform="matrix(1,0,0,1,137,0)">
        <path d="M49.552,768.172C49.399,769.506 49.324,770.847 49.324,772.187C49.324,777.916 50.705,783.634 53.355,788.722C53.752,789.487 54.696,789.784 55.461,789.387C56.227,788.987 56.524,788.044 56.127,787.278C53.711,782.65 52.446,777.412 52.449,772.187C52.449,770.966 52.518,769.744 52.655,768.528C52.755,767.672 52.14,766.897 51.283,766.8C50.427,766.7 49.652,767.316 49.552,768.172Z" style="fill:rgb(150,110,96);fill-rule:nonzero;"/>
    </g>
    <g transform="matrix(1,0,0,1,137,0)">
        <path d="M60.405,773.384C60.393,773.697 60.387,774.009 60.387,774.325C60.393,780.269 62.565,786.153 66.446,790.662C67.012,791.316 67.996,791.387 68.652,790.825C69.305,790.262 69.377,789.275 68.815,788.622C65.43,784.703 63.508,779.503 63.512,774.325L63.53,773.506C63.562,772.644 62.89,771.919 62.027,771.884C61.165,771.85 60.44,772.522 60.405,773.384Z" style="fill:rgb(150,110,96);fill-rule:nonzero;"/>
    </g>
    <g transform="matrix(1,0,0,1,137,0)">
        <path d="M40.702,790.231C40.793,795.837 43.962,801.178 48.843,803.941C49.593,804.366 50.546,804.097 50.968,803.347C51.393,802.594 51.127,801.641 50.374,801.219C46.502,799.056 43.871,794.622 43.827,790.191C43.815,789.328 43.105,788.637 42.243,788.647C41.38,788.659 40.69,789.369 40.702,790.231Z" style="fill:rgb(150,110,96);fill-rule:nonzero;"/>
    </g>
    <g transform="matrix(1,0,0,1,137,0)">
        <path d="M60.227,801.616C62.73,805.275 65.43,808.8 68.315,812.169C68.874,812.825 69.861,812.9 70.518,812.341C71.171,811.778 71.249,810.794 70.687,810.137C67.877,806.853 65.246,803.419 62.808,799.85C62.321,799.137 61.349,798.956 60.637,799.444C59.924,799.928 59.743,800.903 60.227,801.616Z" style="fill:rgb(150,110,96);fill-rule:nonzero;"/>
    </g>
    <g transform="matrix(1,0,0,1,137,0)">
        <path d="M84.752,781.244C84.661,782.087 84.615,782.937 84.615,783.784C84.621,789.684 86.796,795.541 90.721,799.975C91.293,800.619 92.28,800.678 92.924,800.106C93.571,799.534 93.63,798.547 93.058,797.9C89.658,794.072 87.736,788.909 87.74,783.784C87.74,783.047 87.78,782.312 87.858,781.584C87.952,780.725 87.333,779.953 86.477,779.859C85.618,779.766 84.846,780.387 84.752,781.244Z" style="fill:rgb(150,110,96);fill-rule:nonzero;"/>
    </g>
    <g transform="matrix(1,0,0,1,137,0)">
        <path d="M70.736,748.425C70.515,749.747 70.405,751.084 70.405,752.422C70.408,756.956 71.649,761.481 74.021,765.362C74.471,766.1 75.433,766.331 76.168,765.881C76.905,765.431 77.137,764.472 76.686,763.734C74.627,760.362 73.53,756.384 73.53,752.422C73.53,751.253 73.627,750.087 73.818,748.937C73.958,748.087 73.383,747.281 72.533,747.141C71.683,746.997 70.877,747.572 70.736,748.425Z" style="fill:rgb(150,110,96);fill-rule:nonzero;"/>
    </g>
    <g transform="matrix(1,0,0,1,137,0)">
        <path d="M88.152,752.137C88.052,753.012 88.002,753.891 88.002,754.769C88.002,758.437 88.858,762.097 90.502,765.384C90.89,766.156 91.83,766.469 92.599,766.081C93.371,765.694 93.683,764.756 93.296,763.984C91.874,761.144 91.127,757.95 91.127,754.769C91.127,754.006 91.171,753.247 91.255,752.491C91.352,751.631 90.736,750.859 89.88,750.759C89.024,750.662 88.249,751.278 88.152,752.137Z" style="fill:rgb(150,110,96);fill-rule:nonzero;"/>
    </g>
    <g transform="matrix(1,0,0,1,137,0)">
        <path d="M134.721,802.781C134.868,804.059 134.943,805.347 134.943,806.631C134.943,810.05 134.433,813.469 133.433,816.737C133.18,817.562 133.643,818.434 134.468,818.687C135.29,818.941 136.168,818.478 136.421,817.653C137.512,814.084 138.068,810.359 138.068,806.631C138.068,805.228 137.99,803.825 137.83,802.428C137.733,801.572 136.958,800.956 136.102,801.053C135.246,801.15 134.624,801.925 134.721,802.781Z" style="fill:rgb(150,110,96);fill-rule:nonzero;"/>
    </g>
    <g transform="matrix(1,0,0,1,137,0)">
        <path d="M123.068,809.362C123.19,810.303 123.246,811.253 123.246,812.203C123.246,814.953 122.749,817.709 121.78,820.281C121.474,821.087 121.883,821.991 122.69,822.294C123.496,822.6 124.399,822.194 124.702,821.384C125.808,818.453 126.371,815.331 126.371,812.203C126.371,811.122 126.305,810.041 126.168,808.969C126.062,808.112 125.28,807.506 124.424,807.616C123.565,807.722 122.962,808.506 123.068,809.362Z" style="fill:rgb(150,110,96);fill-rule:nonzero;"/>
    </g>
    <g transform="matrix(1,0,0,1,137,0)">
        <path d="M106.946,815.112C107.349,820.612 109.387,825.956 112.746,830.325C113.274,831.009 114.255,831.137 114.937,830.609C115.621,830.084 115.749,829.103 115.224,828.419C112.236,824.547 110.415,819.762 110.062,814.884C109.999,814.025 109.252,813.378 108.39,813.441C107.53,813.503 106.883,814.253 106.946,815.112Z" style="fill:rgb(150,110,96);fill-rule:nonzero;"/>
    </g>
    <g transform="matrix(1,0,0,1,137,0)">
        <path d="M62.518,819.916L62.483,820.7C62.487,823.472 63.78,825.834 65.452,827.769C67.136,829.716 69.24,831.316 71.183,832.681C71.89,833.175 72.865,833.003 73.358,832.294C73.855,831.587 73.683,830.612 72.974,830.119C71.115,828.819 69.202,827.334 67.818,825.728C66.427,824.109 65.608,822.456 65.608,820.7L65.633,820.191C65.708,819.328 65.074,818.572 64.212,818.497C63.352,818.419 62.596,819.053 62.518,819.916Z" style="fill:rgb(150,110,96);fill-rule:nonzero;"/>
    </g>
    <g transform="matrix(1,0,0,1,137,0)">
        <path d="M58.365,731.334C56.69,735.572 55.836,740.119 55.836,744.669C55.836,746.859 56.033,749.05 56.433,751.206C56.593,752.056 57.405,752.616 58.255,752.459C59.102,752.3 59.665,751.487 59.508,750.637C59.143,748.672 58.961,746.672 58.961,744.669C58.961,740.509 59.743,736.347 61.271,732.484C61.59,731.684 61.196,730.775 60.393,730.459C59.59,730.141 58.683,730.534 58.365,731.337L58.365,731.334Z" style="fill:rgb(150,110,96);fill-rule:nonzero;"/>
    </g>
    <g transform="matrix(1,0,0,1,137,0)">
        <path d="M43.818,737.278C42.661,740.844 42.077,744.584 42.077,748.328C42.077,749.462 42.13,750.597 42.24,751.728C42.321,752.587 43.083,753.216 43.943,753.134C44.802,753.053 45.433,752.287 45.349,751.431C45.252,750.4 45.202,749.366 45.202,748.328C45.202,744.912 45.736,741.491 46.79,738.241C47.055,737.422 46.605,736.541 45.783,736.275C44.965,736.009 44.083,736.459 43.818,737.278Z" style="fill:rgb(150,110,96);fill-rule:nonzero;"/>
    </g>
    <g transform="matrix(1,0,0,1,137,0)">
        <path d="M147.943,819.372L147.943,819.525C147.943,824.55 146.465,829.591 143.755,833.822C143.29,834.55 143.499,835.516 144.227,835.981C144.952,836.447 145.921,836.237 146.383,835.509C149.424,830.762 151.065,825.159 151.068,819.525L151.068,819.353C151.062,818.491 150.358,817.797 149.496,817.8C148.633,817.803 147.937,818.506 147.943,819.372Z" style="fill:rgb(150,110,96);fill-rule:nonzero;"/>
    </g>
    <g transform="matrix(1,0,0,1,137,0)">
        <path d="M124.865,773.241C124.596,775.847 124.458,778.469 124.458,781.087C124.458,782.703 124.508,784.319 124.615,785.931C124.671,786.794 125.411,787.447 126.274,787.394C127.133,787.337 127.787,786.597 127.73,785.734C127.633,784.187 127.583,782.637 127.583,781.087C127.583,778.575 127.715,776.062 127.974,773.562C128.062,772.703 127.437,771.937 126.58,771.847C125.721,771.759 124.952,772.384 124.865,773.241Z" style="fill:rgb(150,110,96);fill-rule:nonzero;"/>
    </g>
    <g transform="matrix(1,0,0,1,137,0)">
        <path d="M322.152,618.572C327.246,616.003 332.749,614.231 338.386,613.344L338.321,612.897L338.321,613.35L338.393,613.344L338.321,612.897L338.321,613.35L338.321,613.225L338.296,613.35L338.321,613.35L338.321,613.225L338.296,613.35L338.474,613.434L338.477,613.434L339.158,612.756L338.249,612.756C338.283,613.322 338.48,613.409 338.477,613.434L339.158,612.756L338.249,612.756L339.533,612.756L338.562,611.916L338.249,612.756L339.533,612.756L338.562,611.916L339.349,612.597L338.993,611.606L338.562,611.916L339.349,612.597L338.993,611.606C338.18,611.897 337.758,612.794 338.052,613.606C338.343,614.416 339.237,614.837 340.049,614.547C340.327,614.447 340.646,614.281 340.927,613.959C341.208,613.644 341.383,613.159 341.374,612.756C341.362,612.122 341.111,611.744 340.902,611.466C340.571,611.056 340.205,610.8 339.79,610.587C339.371,610.384 338.899,610.228 338.321,610.225L337.896,610.256C331.94,611.197 326.133,613.066 320.743,615.781C319.974,616.172 319.665,617.109 320.052,617.881C320.44,618.653 321.38,618.962 322.152,618.572Z" style="fill:rgb(150,110,96);fill-rule:nonzero;"/>
    </g>
    <g transform="matrix(1,0,0,1,137,0)">
        <path d="M330.352,625.769C334.196,623.803 338.399,622.534 342.69,622.05C343.546,621.953 344.165,621.178 344.065,620.322C343.968,619.462 343.196,618.847 342.337,618.944C337.671,619.475 333.108,620.85 328.927,622.987C328.158,623.378 327.855,624.322 328.249,625.087C328.64,625.856 329.583,626.162 330.352,625.769Z" style="fill:rgb(150,110,96);fill-rule:nonzero;"/>
    </g>
    <g transform="matrix(1,0,0,1,137,0)">
        <path d="M355.361,613.428C359.486,612.528 363.708,612.072 367.93,612.072C368.221,612.072 368.511,612.075 368.802,612.078C369.665,612.094 370.374,611.406 370.39,610.544C370.405,609.681 369.718,608.969 368.855,608.953C368.543,608.95 368.236,608.947 367.93,608.947C363.483,608.947 359.04,609.425 354.696,610.375C353.852,610.559 353.318,611.391 353.502,612.234C353.686,613.078 354.521,613.612 355.365,613.428L355.361,613.428Z" style="fill:rgb(150,110,96);fill-rule:nonzero;"/>
    </g>
    <g transform="matrix(1,0,0,1,137,0)">
        <path d="M305.852,631.687C310.296,630.622 314.815,629.85 319.362,629.384C320.221,629.297 320.846,628.531 320.758,627.672C320.668,626.816 319.902,626.191 319.043,626.278C314.358,626.756 309.702,627.55 305.121,628.65C304.283,628.85 303.765,629.694 303.968,630.531C304.168,631.372 305.011,631.887 305.852,631.687Z" style="fill:rgb(150,110,96);fill-rule:nonzero;"/>
    </g>
    <g transform="matrix(1,0,0,1,137,0)">
        <path d="M319.624,641.744C324.53,640.687 329.549,640.144 334.571,640.131C335.433,640.128 336.13,639.425 336.13,638.562C336.127,637.7 335.424,637.003 334.561,637.006C329.324,637.022 324.086,637.584 318.965,638.691C318.121,638.872 317.583,639.703 317.765,640.547C317.949,641.391 318.78,641.928 319.624,641.744Z" style="fill:rgb(150,110,96);fill-rule:nonzero;"/>
    </g>
    <g transform="matrix(1,0,0,1,137,0)">
        <path d="M400.455,613.369C406.386,612.356 412.396,611.784 418.412,611.659C419.277,611.641 419.961,610.928 419.943,610.066C419.924,609.203 419.211,608.519 418.349,608.534C412.177,608.666 406.015,609.25 399.93,610.287C399.08,610.434 398.508,611.241 398.652,612.091C398.799,612.944 399.605,613.516 400.455,613.369Z" style="fill:rgb(150,110,96);fill-rule:nonzero;"/>
    </g>
    <g transform="matrix(1,0,0,1,137,0)">
        <path d="M410.365,619.769C415.224,619.769 420.083,619.769 424.943,619.769C425.805,619.769 426.505,619.069 426.505,618.206C426.505,617.344 425.805,616.644 424.943,616.644C420.083,616.644 415.224,616.644 410.365,616.644C409.502,616.644 408.802,617.344 408.802,618.206C408.802,619.069 409.502,619.769 410.365,619.769Z" style="fill:rgb(150,110,96);fill-rule:nonzero;"/>
    </g>
    <g transform="matrix(1,0,0,1,137,0)">
        <path d="M402.715,633.106C407.802,632.059 412.887,631.012 417.974,629.966C418.818,629.794 419.362,628.969 419.19,628.122C419.015,627.278 418.19,626.731 417.346,626.906C412.258,627.953 407.171,629 402.083,630.044C401.24,630.219 400.696,631.044 400.868,631.891C401.043,632.734 401.868,633.278 402.715,633.106Z" style="fill:rgb(150,110,96);fill-rule:nonzero;"/>
    </g>
    <g transform="matrix(1,0,0,1,137,0)">
        <path d="M415.583,643.094C419.468,642.806 423.349,642.522 427.233,642.234C428.096,642.172 428.74,641.422 428.677,640.562C428.615,639.7 427.865,639.056 427.005,639.119C423.121,639.403 419.236,639.691 415.352,639.978C414.493,640.041 413.846,640.791 413.908,641.65C413.974,642.512 414.721,643.156 415.583,643.094Z" style="fill:rgb(150,110,96);fill-rule:nonzero;"/>
    </g>
    <g transform="matrix(1,0,0,1,137,0)">
        <path d="M432.065,632.016C435.718,632.437 439.371,632.859 443.021,633.278C443.877,633.378 444.652,632.762 444.752,631.906C444.852,631.047 444.236,630.272 443.38,630.175C439.727,629.753 436.077,629.331 432.424,628.909C431.568,628.812 430.793,629.428 430.693,630.284C430.593,631.141 431.208,631.916 432.068,632.016L432.065,632.016Z" style="fill:rgb(150,110,96);fill-rule:nonzero;"/>
    </g>
    <g transform="matrix(1,0,0,1,137,0)">
        <path d="M228.158,626.328C232.774,626.328 237.39,626.328 242.005,626.328C242.868,626.328 243.568,625.628 243.568,624.766C243.568,623.903 242.868,623.203 242.005,623.203C237.39,623.203 232.774,623.203 228.158,623.203C227.296,623.203 226.596,623.903 226.596,624.766C226.596,625.628 227.296,626.328 228.158,626.328Z" style="fill:rgb(150,110,96);fill-rule:nonzero;"/>
    </g>
    <g transform="matrix(1,0,0,1,137,0)">
        <path d="M101.887,646.106C106.024,643.691 110.165,641.275 114.302,638.859C115.043,638.425 115.296,637.469 114.865,636.722C114.424,635.978 113.471,635.725 112.724,636.162C108.59,638.575 104.449,640.991 100.312,643.406C99.565,643.841 99.315,644.8 99.749,645.544C100.183,646.291 101.143,646.541 101.887,646.106Z" style="fill:rgb(150,110,96);fill-rule:nonzero;"/>
    </g>
    <g transform="matrix(1,0,0,1,137,0)">
        <path d="M107.34,651.562L108.265,652.212L107.608,651.297L107.34,651.562L108.265,652.212L107.608,651.297L108.427,652.441L108.427,651.037C108.061,651.034 107.768,651.178 107.608,651.297L108.427,652.441L108.427,651.037L108.427,652.462L109.43,651.441C109.261,651.266 108.877,651.031 108.427,651.037L108.427,652.462L109.43,651.441L108.63,652.256L109.743,651.95L109.43,651.441L108.63,652.256L109.743,651.95L109.296,652.072L109.765,652.072L109.743,651.95L109.296,652.072L109.765,652.072L109.452,652.072L109.74,652.181L109.765,652.072L109.452,652.072L109.74,652.181L108.977,651.894L109.449,652.544L109.74,652.181L108.977,651.894L109.449,652.544C112.224,650.506 115.562,649.225 118.983,648.872C119.837,648.784 120.465,648.019 120.374,647.159C120.29,646.3 119.521,645.675 118.662,645.766C114.677,646.175 110.833,647.656 107.605,650.022C107.177,650.334 106.943,650.737 106.815,651.084C106.683,651.437 106.64,651.759 106.64,652.072C106.643,652.384 106.674,652.675 106.821,653.041L107.243,653.672C107.465,653.906 107.915,654.169 108.427,654.162C108.852,654.162 109.208,654 109.427,653.837L109.896,653.356C110.393,652.65 110.221,651.675 109.515,651.181C108.808,650.684 107.833,650.856 107.34,651.562Z" style="fill:rgb(150,110,96);fill-rule:nonzero;"/>
    </g>
    <g transform="matrix(1,0,0,1,137,0)">
        <path d="M88.44,652.078C89.477,647.031 92.577,642.387 96.84,639.491C97.552,639.006 97.737,638.034 97.249,637.319C96.765,636.606 95.793,636.422 95.08,636.909C90.13,640.284 86.596,645.581 85.377,651.447C85.202,652.291 85.746,653.119 86.593,653.294C87.436,653.469 88.265,652.925 88.44,652.078Z" style="fill:rgb(150,110,96);fill-rule:nonzero;"/>
    </g>
    <g transform="matrix(1,0,0,1,137,0)">
        <path d="M71.518,663.366L71.515,663.075C71.512,658.766 73.23,654.428 76.193,651.303C76.783,650.675 76.755,649.684 76.13,649.094C75.502,648.5 74.515,648.528 73.921,649.156C70.399,652.891 68.396,657.947 68.39,663.075L68.393,663.422C68.408,664.284 69.121,664.972 69.983,664.956C70.846,664.941 71.533,664.231 71.518,663.366Z" style="fill:rgb(150,110,96);fill-rule:nonzero;"/>
    </g>
    <g transform="matrix(1,0,0,1,137,0)">
        <path d="M94.068,676.547C94.143,673.169 95.627,669.784 98.062,667.441C98.683,666.841 98.699,665.85 98.099,665.231C97.499,664.609 96.512,664.594 95.89,665.191C92.852,668.134 91.049,672.244 90.946,676.475C90.924,677.337 91.605,678.053 92.471,678.072C93.333,678.094 94.049,677.409 94.068,676.547Z" style="fill:rgb(150,110,96);fill-rule:nonzero;"/>
    </g>
    <g transform="matrix(1,0,0,1,137,0)">
        <path d="M131.677,634.012C136.218,632.962 140.758,631.909 145.302,630.859C146.143,630.666 146.668,629.825 146.471,628.984C146.277,628.144 145.44,627.622 144.593,627.816C140.052,628.866 135.515,629.916 130.974,630.969C130.13,631.162 129.608,632 129.802,632.844C129.999,633.684 130.837,634.206 131.677,634.012Z" style="fill:rgb(150,110,96);fill-rule:nonzero;"/>
    </g>
    <g transform="matrix(1,0,0,1,137,0)">
        <path d="M351.302,887.053L351.918,887.059C356.802,887.059 361.683,886.237 366.302,884.637C367.115,884.353 367.549,883.466 367.265,882.65C366.983,881.834 366.093,881.403 365.277,881.684C360.993,883.169 356.452,883.934 351.918,883.934L351.343,883.928C350.48,883.919 349.771,884.609 349.761,885.472C349.749,886.334 350.44,887.044 351.302,887.053Z" style="fill:rgb(198,144,119);fill-rule:nonzero;"/>
    </g>
    <g transform="matrix(1,0,0,1,137,0)">
        <path d="M357.093,876.334C357.446,876.35 357.799,876.356 358.152,876.356C363.327,876.353 368.468,874.7 372.668,871.666C373.368,871.162 373.524,870.184 373.018,869.484C372.512,868.784 371.537,868.628 370.837,869.134C367.186,871.775 362.658,873.234 358.152,873.231C357.843,873.231 357.537,873.225 357.23,873.212C356.368,873.172 355.636,873.841 355.599,874.703C355.562,875.566 356.23,876.297 357.093,876.334Z" style="fill:rgb(198,144,119);fill-rule:nonzero;"/>
    </g>
    <g transform="matrix(1,0,0,1,137,0)">
        <path d="M320.349,880.319C321.73,880.587 323.137,880.719 324.54,880.719C327.415,880.719 330.286,880.166 332.955,879.078C333.755,878.75 334.136,877.841 333.811,877.041C333.486,876.241 332.574,875.859 331.774,876.184C329.493,877.116 327.015,877.594 324.54,877.594C323.333,877.594 322.124,877.478 320.943,877.25C320.093,877.087 319.274,877.641 319.112,878.487C318.946,879.334 319.502,880.156 320.349,880.319Z" style="fill:rgb(198,144,119);fill-rule:nonzero;"/>
    </g>
    <g transform="matrix(1,0,0,1,137,0)">
        <path d="M329.293,871.122C330.724,871.291 332.168,871.375 333.608,871.375C336.252,871.375 338.893,871.094 341.474,870.531C342.318,870.35 342.855,869.519 342.671,868.675C342.49,867.831 341.658,867.297 340.815,867.478C338.449,867.991 336.03,868.25 333.608,868.25C332.29,868.25 330.968,868.172 329.658,868.019C328.799,867.919 328.024,868.531 327.924,869.387C327.824,870.247 328.437,871.022 329.293,871.122Z" style="fill:rgb(198,144,119);fill-rule:nonzero;"/>
    </g>
    <g transform="matrix(1,0,0,1,137,0)">
        <path d="M309.23,889.006C312.168,889.887 315.23,890.328 318.296,890.328C320.458,890.328 322.618,890.109 324.74,889.666C325.583,889.487 326.124,888.662 325.949,887.816C325.771,886.972 324.943,886.431 324.099,886.606C322.193,887.006 320.246,887.203 318.296,887.203C315.533,887.203 312.768,886.803 310.127,886.012C309.299,885.766 308.427,886.234 308.18,887.059C307.933,887.887 308.402,888.756 309.23,889.006Z" style="fill:rgb(198,144,119);fill-rule:nonzero;"/>
    </g>
    <g transform="matrix(1,0,0,1,137,0)">
        <path d="M277.852,884.606C283.152,886.328 288.721,887.212 294.296,887.212L294.477,887.212C295.34,887.212 296.04,886.516 296.043,885.653C296.046,884.791 295.349,884.091 294.487,884.087L294.296,884.087C289.052,884.087 283.805,883.256 278.818,881.634C277.996,881.366 277.115,881.816 276.849,882.637C276.58,883.456 277.03,884.337 277.852,884.606Z" style="fill:rgb(198,144,119);fill-rule:nonzero;"/>
    </g>
    <g transform="matrix(1,0,0,1,137,0)">
        <path d="M289.19,875.834C293.565,876.297 297.94,876.759 302.315,877.222C303.174,877.312 303.943,876.691 304.033,875.834C304.124,874.975 303.502,874.206 302.643,874.116C298.268,873.653 293.893,873.191 289.518,872.728C288.658,872.637 287.89,873.259 287.799,874.116C287.708,874.975 288.33,875.744 289.19,875.834Z" style="fill:rgb(198,144,119);fill-rule:nonzero;"/>
    </g>
    <g transform="matrix(1,0,0,1,137,0)">
        <path d="M306.524,862.703C308.749,863.134 311.018,863.35 313.283,863.35C315.902,863.35 318.518,863.062 321.074,862.487C321.918,862.297 322.446,861.462 322.258,860.622C322.068,859.778 321.233,859.25 320.39,859.437C318.062,859.962 315.671,860.225 313.283,860.225C311.215,860.225 309.146,860.028 307.118,859.634C306.271,859.469 305.452,860.022 305.286,860.872C305.124,861.719 305.677,862.537 306.524,862.703Z" style="fill:rgb(198,144,119);fill-rule:nonzero;"/>
    </g>
    <g transform="matrix(1,0,0,1,137,0)">
        <path d="M233.002,885.119C236.224,887.084 239.971,888.103 243.727,888.103C245.255,888.103 246.783,887.934 248.277,887.591C249.118,887.394 249.643,886.556 249.449,885.716C249.252,884.875 248.415,884.35 247.574,884.544C246.315,884.834 245.024,884.978 243.727,884.978C240.54,884.981 237.336,884.106 234.63,882.45C233.893,882 232.93,882.234 232.483,882.969C232.033,883.706 232.265,884.669 233.002,885.119Z" style="fill:rgb(198,144,119);fill-rule:nonzero;"/>
    </g>
    <g transform="matrix(1,0,0,1,137,0)">
        <path d="M247.93,876.975C250.59,878.106 253.465,878.681 256.346,878.681C257.48,878.681 258.615,878.591 259.737,878.412C260.586,878.275 261.168,877.472 261.03,876.622C260.893,875.769 260.09,875.191 259.24,875.328C258.283,875.481 257.315,875.556 256.346,875.556C253.883,875.556 251.415,875.062 249.155,874.1C248.361,873.762 247.443,874.131 247.105,874.925C246.768,875.719 247.137,876.637 247.93,876.975Z" style="fill:rgb(198,144,119);fill-rule:nonzero;"/>
    </g>
    <g transform="matrix(1,0,0,1,137,0)">
        <path d="M390.811,874.878C395.549,874.5 400.218,873.353 404.59,871.491C405.383,871.153 405.752,870.234 405.415,869.441C405.077,868.647 404.158,868.278 403.365,868.616C399.305,870.344 394.961,871.412 390.565,871.762C389.705,871.831 389.061,872.581 389.13,873.444C389.199,874.303 389.952,874.944 390.811,874.878Z" style="fill:rgb(198,144,119);fill-rule:nonzero;"/>
    </g>
    <g transform="matrix(1,0,0,1,137,0)">
        <path d="M378.94,850.097C379.586,850.131 380.233,850.15 380.877,850.15C384.599,850.15 388.315,849.562 391.855,848.416C392.677,848.15 393.127,847.269 392.861,846.447C392.593,845.625 391.712,845.175 390.893,845.444C387.665,846.491 384.271,847.025 380.877,847.025C380.286,847.025 379.699,847.009 379.112,846.975C378.249,846.928 377.511,847.587 377.465,848.45C377.418,849.312 378.077,850.05 378.94,850.097Z" style="fill:rgb(198,144,119);fill-rule:nonzero;"/>
    </g>
    <g transform="matrix(1,0,0,1,137,0)">
        <path d="M387.483,856.45C388.912,856.75 390.368,856.897 391.824,856.897C395.012,856.897 398.196,856.191 401.08,854.806C401.858,854.434 402.186,853.5 401.815,852.722C401.443,851.944 400.508,851.616 399.73,851.987C397.28,853.162 394.549,853.772 391.824,853.772C390.58,853.772 389.336,853.647 388.124,853.391C387.28,853.216 386.452,853.756 386.274,854.6C386.099,855.444 386.64,856.272 387.483,856.45Z" style="fill:rgb(198,144,119);fill-rule:nonzero;"/>
    </g>
    <g transform="matrix(1,0,0,1,137,0)">
        <path d="M251.533,855.666C255.524,856.987 259.724,857.656 263.924,857.656C265.927,857.656 267.933,857.503 269.918,857.197C270.771,857.066 271.355,856.266 271.221,855.412C271.09,854.559 270.293,853.975 269.44,854.109C267.615,854.391 265.771,854.531 263.924,854.531C260.055,854.531 256.183,853.912 252.515,852.7C251.693,852.428 250.811,852.875 250.54,853.694C250.268,854.512 250.712,855.397 251.533,855.666Z" style="fill:rgb(198,144,119);fill-rule:nonzero;"/>
    </g>
    <g transform="matrix(1,0,0,1,137,0)">
        <path d="M224.577,864.612C227.899,866.069 231.512,866.806 235.127,866.806C237.321,866.806 239.518,866.534 241.649,865.984C242.483,865.769 242.987,864.916 242.771,864.081C242.555,863.244 241.702,862.744 240.868,862.959C238.996,863.441 237.065,863.681 235.127,863.681C231.937,863.681 228.743,863.028 225.83,861.753C225.04,861.406 224.118,861.766 223.774,862.556C223.427,863.347 223.786,864.269 224.577,864.616L224.577,864.612Z" style="fill:rgb(198,144,119);fill-rule:nonzero;"/>
    </g>
    <g transform="matrix(1,0,0,1,137,0)">
        <path d="M296.393,845.447L296.521,844.791C296.524,844.509 296.44,844.181 296.277,843.922C296.033,843.525 295.693,843.322 295.44,843.225L294.768,843.103C294.399,843.109 294.08,843.181 293.708,843.409C293.352,843.612 292.871,844.178 292.88,844.903L292.918,845.272L294.446,844.941L292.902,845.191C292.958,845.559 293.14,845.912 293.352,846.156C293.674,846.525 294.008,846.687 294.271,846.794L294.961,846.972C296.349,847.191 297.752,847.297 299.155,847.297C302.793,847.297 306.427,846.575 309.79,845.159C310.583,844.825 310.958,843.909 310.621,843.116C310.286,842.319 309.371,841.947 308.577,842.281C305.608,843.531 302.38,844.172 299.155,844.172C297.912,844.172 296.671,844.078 295.446,843.884L295.387,843.875L295.227,844.431L295.574,843.978L295.387,843.875L295.227,844.431L295.574,843.978L294.896,844.866L295.986,844.687C295.943,844.359 295.708,844.069 295.574,843.978L294.896,844.866L295.986,844.687L295.971,844.606L294.605,844.903L296.005,844.903L295.971,844.606L294.605,844.903L296.005,844.903L294.665,844.903L295.393,846.041C295.621,845.922 296.011,845.475 296.005,844.903L294.665,844.903L295.393,846.041L294.768,845.069L294.768,846.228L295.393,846.041L294.768,845.069L294.768,846.228L294.768,844.916L294.09,846.031C294.408,846.216 294.615,846.222 294.768,846.228L294.768,844.916L294.09,846.031L294.84,844.8L293.608,845.55L294.09,846.031L294.84,844.8L293.608,845.55L294.852,844.791L293.396,844.791L293.608,845.55L294.852,844.791L293.396,844.791L294.777,844.791L293.496,844.272L293.396,844.791L294.777,844.791L293.496,844.272C293.171,845.072 293.558,845.984 294.358,846.309C295.158,846.631 296.068,846.247 296.393,845.447Z" style="fill:rgb(198,144,119);fill-rule:nonzero;"/>
    </g>
</svg>
