<?xml version="1.0" encoding="UTF-8" standalone="no"?><!DOCTYPE svg PUBLIC "-//W3C//DTD SVG 1.1//EN" "http://www.w3.org/Graphics/SVG/1.1/DTD/svg11.dtd"><svg width="100%" height="100%" viewBox="0 0 315 296" version="1.1" xmlns="http://www.w3.org/2000/svg" xmlns:xlink="http://www.w3.org/1999/xlink" xml:space="preserve" style="fill-rule:evenodd;clip-rule:evenodd;stroke-linejoin:round;stroke-miterlimit:1.41421;"><path d="M260.682,160.481c-28.081,-31.443 -64.106,-48.847 -83.781,-56.622c-0.572,-3.925 -1.231,-7.612 -1.928,-11.165l26.756,-6.45l45.263,17.065l46.081,-21.15l-2.462,-5.353l-43.841,20.119l-44.662,-16.837l-27.597,6.646c3.328,-6.228 5.39,-14.103 5.39,-22.784c0,-3.616 -0.365,-7.1 -1.012,-10.394l22.325,-4.706l9.634,-28.159l50.15,-15.05l-1.697,-5.641l-53.04,15.913l-9.529,27.853l-19.353,4.072c-2.187,-6.682 -5.653,-12.219 -9.946,-15.744c7.396,-2.241 12.475,-6.578 12.475,-11.628c0,-7.328 -10.56,-13.269 -23.585,-13.269c-13.022,0 -23.587,5.941 -23.587,13.269c0,5.05 5.078,9.387 12.472,11.628c-4.244,3.478 -7.663,8.928 -9.86,15.487l-18.147,-3.815l-9.522,-27.853l-53.065,-15.91l-1.691,5.641l50.144,15.047l9.634,28.159l21.107,4.447c-0.691,3.387 -1.079,6.944 -1.079,10.659c0,9.175 2.238,17.507 5.913,23.872c-0.181,0.791 -0.328,1.697 -0.5,2.531l-33.944,-8.168l-44.665,16.837l-43.832,-20.119l-2.462,5.354l46.084,21.15l45.26,-17.06l32.406,7.803c-0.485,2.775 -0.935,5.657 -1.35,8.613c-20.069,8.175 -54.485,25.406 -81.557,55.722c-36.409,40.772 -66.043,92.197 -49.268,107.193c2.556,2.285 5.981,3.447 10.178,3.447l0.012,0c19.835,0 56.31,-25.931 90.757,-64.5c11.534,-12.922 20.556,-26.897 27.578,-40.315c0.215,3.797 0.506,7.475 0.84,11.078c-5.196,13.95 -11.268,35.831 -11.44,62.603l-48.585,51.478l4.285,4.044l50.197,-53.188l0,-1.169c0,-19.59 3.378,-36.703 7.206,-49.84c4.028,27.328 11.65,45.844 20.469,45.844c9.387,0 17.462,-20.966 21.237,-51.257c4.469,13.669 8.891,32.847 8.891,55.253l0,1.169l50.194,53.182l4.284,-4.041l-48.584,-51.481c-0.197,-30.3 -7.938,-54.347 -13.432,-67.672c0.247,-3.194 0.456,-6.422 0.607,-9.753c7.268,14.537 16.878,29.943 29.493,44.065c34.45,38.569 70.922,64.5 90.757,64.5c4.206,0 7.631,-1.162 10.19,-3.447c16.775,-15.006 -12.862,-66.428 -49.266,-107.203Z" style="fill:#627378;fill-rule:nonzero;"/><path d="M101.358,202.697c-32.351,36.234 -68.669,62.522 -86.354,62.522c-2.715,0 -4.818,-0.653 -6.265,-1.941c-10.135,-9.059 7.806,-51.887 49.747,-98.875c32.678,-36.59 76.54,-53.656 90.734,-58.465c-3.178,14.653 -15.178,60.162 -47.862,96.759Z" style="fill:#c3e5ee;fill-rule:nonzero;"/><path d="M306.02,263.278c-1.444,1.288 -3.55,1.941 -6.262,1.941c-17.688,0 -54.01,-26.288 -86.357,-62.522c-32.681,-36.597 -44.681,-82.113 -47.859,-96.759c14.19,4.8 58.028,21.834 90.731,58.465c41.944,46.988 59.881,89.816 49.747,98.875Z" style="fill:#c3e5ee;fill-rule:nonzero;"/><path d="M153.798,12.847c0,2.728 -2.209,4.934 -4.931,4.934c-2.728,0 -4.938,-2.206 -4.938,-4.934c0,-2.725 2.21,-4.931 4.938,-4.931c2.722,0 4.931,2.206 4.931,4.931Z" style="fill:#fff;fill-rule:nonzero;"/><path d="M167.079,12.847c0,2.728 -2.209,4.934 -4.934,4.934c-2.725,0 -4.934,-2.206 -4.934,-4.934c0,-2.725 2.209,-4.931 4.934,-4.931c2.725,0 4.934,2.206 4.934,4.931Z" style="fill:#fff;fill-rule:nonzero;"/><path d="M164.404,10.175c0,1.247 -1.009,2.259 -2.259,2.259c-1.247,0 -2.256,-1.012 -2.256,-2.259c0,-1.25 1.009,-2.259 2.256,-2.259c1.25,0 2.259,1.009 2.259,2.259Z" style="fill:#404141;fill-rule:nonzero;"/><path d="M151.123,10.175c0,1.247 -1.009,2.259 -2.262,2.259c-1.244,0 -2.257,-1.012 -2.257,-2.259c0,-1.25 1.013,-2.259 2.257,-2.259c1.253,0 2.262,1.009 2.262,2.259Z" style="fill:#404141;fill-rule:nonzero;"/></svg>