<?xml version="1.0" encoding="UTF-8" standalone="no"?>
<!DOCTYPE svg PUBLIC "-//W3C//DTD SVG 1.1//EN" "http://www.w3.org/Graphics/SVG/1.1/DTD/svg11.dtd">
<svg width="100%" height="100%" viewBox="0 0 826 826" version="1.1" xmlns="http://www.w3.org/2000/svg" xmlns:xlink="http://www.w3.org/1999/xlink" xml:space="preserve" xmlns:serif="http://www.serif.com/" style="fill-rule:evenodd;clip-rule:evenodd;stroke-linejoin:round;stroke-miterlimit:1.41421;">
    <g transform="matrix(1,0,0,1,0,112.5)">
        <path d="M398.204,466.349C410.407,473.933 423.929,479.455 438.182,480.599C442.976,499.077 444.626,518.367 443.042,537.395C419.614,540.264 395.932,541.436 372.307,540.842C374.029,538.014 375.464,534.97 376.829,531.955C386.373,510.911 396.045,489.214 398.204,466.349Z" style="fill:rgb(184,162,142);fill-rule:nonzero;"/>
    </g>
    <g transform="matrix(1,0,0,1,0,112.5)">
        <path d="M4.248,252.636C-1.799,216.661 -1.549,179.727 6.02,144.03C8.076,134.317 10.692,124.611 15.395,115.87C27.851,92.724 54.167,79.105 80.398,77.449C106.629,75.789 132.617,84.736 155.386,97.871C166.592,104.333 177.057,111.774 186.87,119.983C184.333,125.602 180.583,130.661 176.686,135.483C132.367,190.321 71.529,231.577 4.248,252.636Z" style="fill:rgb(184,162,142);fill-rule:nonzero;"/>
    </g>
    <g transform="matrix(1,0,0,1,0,112.5)">
        <path d="M322.864,371.314C332.323,392.274 343.87,412.664 358.339,430.439C346.076,468.695 324.683,503.989 296.429,532.549C269.67,527.299 243.423,519.577 218.192,509.149C205.701,503.989 193.489,498.127 181.595,491.667C240.733,469.567 291.645,426.186 322.864,371.314Z" style="fill:rgb(184,162,142);fill-rule:nonzero;"/>
    </g>
    <g transform="matrix(1,0,0,1,0,112.5)">
        <path d="M48.954,332.08C53.161,333.355 57.504,334.158 61.889,334.47C59.426,330.246 58.304,325.252 58.723,320.38C62.242,324.817 67.686,327.674 73.339,328.045C73.398,322.924 73.454,317.799 73.514,312.674C75.833,317.027 81.354,318.858 86.254,318.295C91.157,317.733 95.601,315.264 99.901,312.845C115.767,303.911 131.636,294.98 147.501,286.049C160.995,278.452 174.523,270.833 186.998,261.664C203.439,249.577 217.826,234.961 232.136,220.414C238.826,213.614 245.514,206.814 252.204,200.014C264.092,220.549 274.207,242.242 282.751,264.177C285.17,270.386 287.467,276.642 289.732,282.914C289.379,283.683 289.032,284.455 288.658,285.211C273.498,315.767 247.683,339.824 219.782,359.449C218.014,360.692 215.982,361.983 213.851,361.608C211.411,361.18 209.07,358.646 206.901,359.846C206.22,362.767 206.004,365.795 206.264,368.783C202.464,369.73 198.423,369.702 194.636,368.699C194.829,374.092 189.145,378.202 183.751,378.352C178.357,378.502 173.329,375.849 168.592,373.267C167.929,381.399 167.02,390.136 161.658,396.28C158.62,399.761 154.448,402.024 150.323,404.105C132.158,413.258 112.939,420.305 93.176,425.12C75.133,406.674 59.079,386.324 45.676,364.224C41.367,357.114 37.392,349.802 33.651,342.367C39.717,340.786 45.251,337.145 48.954,332.08Z" style="fill:rgb(184,162,142);fill-rule:nonzero;"/>
    </g>
    <g transform="matrix(1,0,0,1,0,112.5)">
        <path d="M358.339,430.439C367.554,441.761 377.945,452.027 389.754,460.68C392.483,462.68 395.317,464.555 398.204,466.349C396.045,489.214 386.373,510.911 376.829,531.955C375.464,534.97 374.029,538.014 372.307,540.842C346.817,540.199 321.398,537.452 296.429,532.549C324.683,503.989 346.076,468.695 358.339,430.439Z" style="fill:rgb(126,105,96);fill-rule:nonzero;"/>
    </g>
    <g transform="matrix(1,0,0,1,0,112.5)">
        <path d="M176.686,135.483C180.583,130.661 184.333,125.602 186.87,119.983C213.204,142.005 234.667,169.724 252.204,200.014C245.514,206.814 238.826,213.614 232.136,220.414C217.826,234.961 203.439,249.577 186.998,261.664C174.523,270.833 160.995,278.452 147.501,286.049C131.636,294.98 115.767,303.911 99.901,312.845C95.601,315.264 91.157,317.733 86.254,318.295C81.354,318.858 75.833,317.027 73.514,312.674C73.454,317.799 73.398,322.924 73.339,328.045C67.686,327.674 62.242,324.817 58.723,320.38C58.304,325.252 59.426,330.246 61.889,334.47C57.504,334.158 53.161,333.355 48.954,332.08C45.251,337.145 39.717,340.786 33.651,342.367C19.454,314.133 9.479,283.758 4.248,252.636C71.529,231.577 132.367,190.321 176.686,135.483Z" style="fill:rgb(126,105,96);fill-rule:nonzero;"/>
    </g>
    <g transform="matrix(1,0,0,1,0,112.5)">
        <path d="M161.658,396.28C167.02,390.136 167.929,381.399 168.592,373.267C173.329,375.849 178.357,378.502 183.751,378.352C189.145,378.202 194.829,374.092 194.636,368.699C198.423,369.702 202.464,369.73 206.264,368.783C206.004,365.795 206.22,362.767 206.901,359.846C209.07,358.646 211.411,361.18 213.851,361.608C215.982,361.983 218.014,360.692 219.782,359.449C247.683,339.824 273.498,315.767 288.658,285.211C289.032,284.455 289.379,283.683 289.732,282.914C300.339,312.289 309.758,342.127 322.542,370.611L322.864,371.314C291.645,426.186 240.733,469.567 181.595,491.667C149.02,473.98 119.02,451.542 93.176,425.12C112.939,420.305 132.158,413.258 150.323,404.105C154.448,402.024 158.62,399.761 161.658,396.28Z" style="fill:rgb(126,105,96);fill-rule:nonzero;"/>
    </g>
    <g transform="matrix(1,0,0,1,0,112.5)">
        <path d="M498.054,247.167C475.179,273.836 461.704,307.267 451.626,340.927C431.001,409.799 422.223,484.055 444.986,552.249C431.323,548.995 416.811,549.386 403.345,553.367C397.267,555.164 391.117,557.895 387.314,562.967C379.648,573.186 384.476,587.649 389.554,599.37C488.773,592.774 588.386,586.177 687.551,593.527C712.426,595.37 737.292,598.092 762.233,597.799C765.792,597.758 769.583,597.583 772.495,595.533C779.245,590.78 776.661,580.083 771.979,573.28C760.754,556.974 741.142,546.792 721.345,546.999C749.911,487.545 749.07,417.595 734.289,353.314C725.623,315.624 711.101,277.07 681.167,252.583C657.951,264.883 634.476,273.033 611.261,285.333C601.804,290.342 594.054,296.889 583.598,299.164C581.92,299.53 580.954,302.545 579.442,301.733C577.889,300.895 577.104,299.155 576.217,297.63C571.464,289.449 561.892,285.705 553.733,280.911C535.117,269.97 519.47,249.933 498.054,247.167Z" style="fill:rgb(161,134,117);fill-rule:nonzero;"/>
    </g>
    <g transform="matrix(1,0,0,1,0,112.5)">
        <path d="M709.032,545.605C722.557,545.408 736.339,547.13 748.62,552.799C760.901,558.467 771.573,568.436 776.108,581.18C777.023,583.758 777.692,586.542 777.136,589.224C776.261,593.449 772.451,596.57 768.342,597.88C764.232,599.192 759.82,599.014 755.511,598.827C739.036,598.102 720.367,595.549 703.892,594.824C694.467,594.408 684.633,592.455 678.114,592.592C679.514,580.97 682.595,570.811 687.511,560.186C689.789,555.267 692.692,550.242 697.498,547.739C700.998,545.917 705.086,545.664 709.032,545.605Z" style="fill:rgb(126,105,96);fill-rule:nonzero;"/>
    </g>
    <g transform="matrix(1,0,0,1,0,112.5)">
        <path d="M434.642,547.317C421.117,547.117 407.333,548.839 395.054,554.508C382.773,560.177 372.098,570.145 367.567,582.889C366.651,585.471 365.982,588.252 366.539,590.936C367.414,595.158 371.223,598.283 375.332,599.592C379.442,600.902 383.857,600.727 388.164,600.536C404.639,599.811 423.308,597.258 439.783,596.533C449.207,596.12 459.042,594.164 465.561,594.305C464.157,582.68 461.079,572.524 456.164,561.895C453.886,556.98 450.983,551.952 446.176,549.449C442.676,547.627 438.589,547.374 434.642,547.317Z" style="fill:rgb(126,105,96);fill-rule:nonzero;"/>
    </g>
    <g transform="matrix(1,0,0,1,0,112.5)">
        <path d="M506.132,592.464C496.961,562.117 493.645,531.383 496.483,499.811C499.32,468.236 509.764,437.061 528.542,411.52C535.132,402.555 542.992,394.102 553.086,389.424C559.642,386.386 566.889,385.067 574.104,384.699C591.014,383.833 608.151,388.177 622.611,396.986C644.457,410.302 659.236,432.889 668.851,456.599C671.411,462.908 673.664,469.374 674.986,476.052C676.448,483.445 676.751,491.02 676.82,498.555C677.101,530.217 673.267,561.911 665.445,592.592C665.445,592.592 531.533,589.752 506.132,592.464Z" style="fill:rgb(230,211,187);fill-rule:nonzero;"/>
    </g>
    <g transform="matrix(1,0,0,1,0,112.5)">
        <path d="M680.861,407.574C680.539,409.542 680.057,411.564 678.823,413.13C676.886,415.586 673.586,416.383 670.614,417.358C653.351,423.002 640.598,440.295 640.301,458.452C640.208,464.23 641.251,470.024 640.611,475.764C639.973,481.508 637.139,487.53 631.792,489.717C625.467,492.302 617.923,488.32 614.489,482.417C611.051,476.511 610.839,469.295 611.373,462.486C613.433,436.277 625.604,410.989 644.801,393.03C651.411,386.846 658.967,381.43 667.592,378.683C670.086,377.886 672.97,377.364 675.198,378.739C676.936,379.811 677.864,381.795 678.57,383.711C681.367,391.292 682.164,399.599 680.861,407.574Z" style="fill:rgb(126,105,96);fill-rule:nonzero;"/>
    </g>
    <g transform="matrix(1,0,0,1,0,112.5)">
        <path d="M564.598,486.914C558.629,490.983 549.895,488.211 545.383,482.57C540.87,476.927 539.698,469.333 539.508,462.111C539.32,454.892 539.936,447.564 538.329,440.52C534.189,422.352 516.886,410.805 505.676,395.92C504.157,393.905 502.679,391.586 502.895,389.074C503.042,387.371 503.958,385.836 504.948,384.442C508.054,380.08 512.157,376.433 516.858,373.864C518.067,373.199 519.373,372.595 520.751,372.599C522.701,372.605 524.42,373.805 525.976,374.986C541.233,386.57 554.564,401.03 563.164,418.149C571.764,435.267 575.411,455.161 571.564,473.927C570.548,478.864 568.767,484.077 564.598,486.914Z" style="fill:rgb(126,105,96);fill-rule:nonzero;"/>
    </g>
    <g transform="matrix(1,0,0,1,0,112.5)">
        <path d="M404.204,86.002C404.723,86.564 405.348,87.167 406.111,87.139C406.998,87.111 407.604,86.261 408.073,85.508C420.595,65.305 437.879,48.077 458.12,35.621C450.148,27.88 441.932,19.977 431.736,15.558C421.536,11.139 408.767,10.886 400.098,17.839C390.748,25.336 388.67,38.702 389.123,50.674C389.37,57.211 390.192,63.827 392.773,69.836C395.392,75.93 399.701,81.13 404.204,86.002Z" style="fill:rgb(126,105,96);fill-rule:nonzero;"/>
    </g>
    <g transform="matrix(1,0,0,1,0,112.5)">
        <path d="M414.498,76.242C422.976,64.783 432.179,53.858 442.033,43.558C437.173,38.992 432.136,34.402 426.017,31.745C419.901,29.092 412.417,28.674 406.829,32.308C399.654,36.98 397.667,47.089 400.111,55.295C402.554,63.499 408.467,70.167 414.498,76.242Z" style="fill:rgb(230,211,187);fill-rule:nonzero;"/>
    </g>
    <g transform="matrix(1,0,0,1,0,112.5)">
        <path d="M773.383,100.174C758.242,78.817 741.808,58.374 724.204,38.995C732.445,27.139 745.933,19.07 760.279,17.414C764.739,16.899 769.351,16.992 773.595,18.452C780.761,20.92 786.217,27.164 788.983,34.22C791.748,41.277 792.076,49.08 791.32,56.62C789.736,72.464 783.417,87.808 773.383,100.174Z" style="fill:rgb(126,105,96);fill-rule:nonzero;"/>
    </g>
    <g transform="matrix(1,0,0,1,0,112.5)">
        <path d="M779.951,54.53C779.917,67.824 775.111,81.055 766.604,91.271C754.504,77.855 742.823,64.061 731.586,49.917C738.804,39.886 751.148,33.761 763.501,34.077C766.295,34.149 769.148,34.549 771.62,35.855C777.961,39.208 779.967,47.355 779.951,54.53Z" style="fill:rgb(230,211,187);fill-rule:nonzero;"/>
    </g>
    <g transform="matrix(1,0,0,1,0,112.5)">
        <path d="M519.007,8.258C565.679,-3.073 615.136,-2.736 661.651,9.224C675.654,12.827 689.451,17.486 702.267,24.183C748.076,48.108 776.664,94.986 800.892,140.636C813.829,165.014 826.504,191.055 825.532,218.633C738.639,227.955 654.108,258.614 581.445,307.174C519.645,253.911 444.911,215.764 365.523,196.964C372.526,175.411 379.533,153.855 386.798,132.386C393.648,112.152 400.861,91.736 412.883,74.074C436.845,38.867 477.623,18.308 519.007,8.258Z" style="fill:rgb(184,162,142);fill-rule:nonzero;"/>
    </g>
    <g transform="matrix(1,0,0,1,0,112.5)">
        <path d="M664.226,262.446C652.22,251.239 641.129,239.055 631.101,226.049C626.576,220.183 622.242,214.108 619.098,207.399C614.957,198.577 612.976,188.842 612.467,179.111C611.736,165.189 614.023,150.977 620.167,138.461C626.311,125.949 636.448,115.23 649.117,109.414C655.311,106.57 661.995,104.92 668.726,103.871C681.829,101.83 695.276,102.024 708.311,104.445C732.204,108.886 754.314,120.72 773.167,136.055C792.02,151.386 807.817,170.155 822.154,189.774C822.154,189.774 827.326,205.908 825.532,218.633C825.532,218.633 730.598,228.246 664.226,262.446Z" style="fill:rgb(126,105,96);fill-rule:nonzero;"/>
    </g>
    <g transform="matrix(1,0,0,1,0,112.5)">
        <path d="M379.554,155.405C403.026,127.339 437.551,108.78 473.908,104.68C490.364,102.824 507.398,103.892 522.811,109.949C538.223,116.002 551.889,127.38 558.745,142.455C567.967,162.745 563.751,187.252 552.464,206.471C541.176,225.689 523.661,240.424 505.526,253.38C505.526,253.38 439.579,210.905 365.523,196.964L379.554,155.405Z" style="fill:rgb(126,105,96);fill-rule:nonzero;"/>
    </g>
    <g transform="matrix(1,0,0,1,0,112.5)">
        <path d="M502.848,176.824C501.786,179.417 499.314,181.38 496.545,181.83C493.779,182.277 490.814,181.196 488.982,179.07C486.448,176.13 486.429,171.33 488.942,168.367C491.451,165.405 496.189,164.639 499.504,166.655C502.823,168.674 504.323,173.23 502.848,176.824Z" style="fill:rgb(64,62,63);fill-rule:nonzero;"/>
    </g>
    <g transform="matrix(1,0,0,1,0,112.5)">
        <path d="M702.533,185.552C701.467,188.146 698.995,190.108 696.229,190.558C693.461,191.008 690.495,189.927 688.667,187.802C686.132,184.858 686.114,180.061 688.623,177.099C691.136,174.136 695.87,173.367 699.189,175.383C702.508,177.402 704.007,181.961 702.533,185.552Z" style="fill:rgb(64,62,63);fill-rule:nonzero;"/>
    </g>
    <g transform="matrix(1,0,0,1,0,112.5)">
        <path d="M451.07,204.014C451.189,200.733 452.523,197.392 455.117,195.386C457.717,193.38 461.198,192.93 464.479,193.064C466.751,193.158 469.048,193.508 471.117,194.452C476.942,197.114 479.811,204.749 477.379,210.677C474.948,216.602 467.754,220.021 461.561,218.383C455.37,216.749 450.842,210.414 451.07,204.014Z" style="fill:rgb(225,146,115);fill-rule:nonzero;"/>
    </g>
    <g transform="matrix(1,0,0,1,0,112.5)">
        <path d="M705.539,210.214C705.654,206.933 706.989,203.592 709.586,201.586C712.182,199.58 715.667,199.13 718.945,199.264C721.22,199.358 723.517,199.705 725.586,200.652C731.411,203.314 734.279,210.952 731.848,216.877C729.417,222.802 722.22,226.224 716.029,224.586C709.836,222.949 705.311,216.614 705.539,210.214Z" style="fill:rgb(225,146,115);fill-rule:nonzero;"/>
    </g>
    <g transform="matrix(1,0,0,1,0,112.5)">
        <path d="M605.439,294.177C606.895,296.661 607.639,299.511 607.998,302.37C609.186,311.786 605.826,322.136 598.023,327.539C592.926,331.07 586.492,332.208 580.295,332.027C576.932,331.927 573.464,331.42 570.626,329.617C567.017,327.317 564.948,323.252 563.508,319.224C560.301,310.261 559.689,299.411 565.664,291.999C567.129,290.18 568.923,288.658 570.773,287.236C573.039,285.492 575.451,283.864 578.179,283.008C583.498,281.342 589.314,282.839 594.37,285.18C598.754,287.205 602.995,290.011 605.439,294.177Z" style="fill:rgb(64,62,63);fill-rule:nonzero;"/>
    </g>
    <g transform="matrix(1,0,0,1,0,112.5)">
        <path d="M624.154,33.745C626.576,36.72 628.267,40.305 629.014,44.067C629.182,44.914 630.004,45.464 630.851,45.295C631.698,45.127 632.248,44.305 632.079,43.458C631.229,39.189 629.326,35.149 626.579,31.77C626.036,31.102 625.051,31.002 624.383,31.546C623.711,32.089 623.611,33.074 624.154,33.745Z" style="fill:rgb(161,134,117);fill-rule:nonzero;"/>
    </g>
    <g transform="matrix(1,0,0,1,0,112.5)">
        <path d="M615.851,42.283C617.232,46.664 618.095,51.214 618.414,55.795C618.473,56.658 619.22,57.308 620.079,57.249C620.942,57.186 621.589,56.442 621.529,55.58C621.195,50.749 620.289,45.961 618.833,41.342C618.573,40.52 617.695,40.061 616.87,40.321C616.048,40.583 615.592,41.458 615.851,42.283Z" style="fill:rgb(161,134,117);fill-rule:nonzero;"/>
    </g>
    <g transform="matrix(1,0,0,1,0,112.5)">
        <path d="M606.782,55.108C606.454,59.717 606.129,64.327 605.804,68.936C605.745,69.799 606.392,70.545 607.254,70.605C608.114,70.667 608.861,70.017 608.923,69.158C609.248,64.546 609.573,59.936 609.898,55.327C609.958,54.467 609.311,53.717 608.448,53.658C607.589,53.599 606.842,54.245 606.782,55.108Z" style="fill:rgb(161,134,117);fill-rule:nonzero;"/>
    </g>
    <g transform="matrix(1,0,0,1,0,112.5)">
        <path d="M593.754,45.614C593.695,47.455 593.664,49.299 593.664,51.142C593.664,53.958 593.736,56.777 593.879,59.596C593.923,60.455 594.661,61.117 595.52,61.074C596.382,61.03 597.045,60.296 597.001,59.433C596.857,56.67 596.789,53.905 596.789,51.142C596.789,49.333 596.817,47.527 596.879,45.717C596.907,44.855 596.232,44.133 595.37,44.105C594.508,44.077 593.786,44.752 593.754,45.614Z" style="fill:rgb(161,134,117);fill-rule:nonzero;"/>
    </g>
    <g transform="matrix(1,0,0,1,0,112.5)">
        <path d="M591.423,74.692C591.236,78.771 590.114,82.817 588.173,86.411C587.764,87.17 588.048,88.12 588.808,88.53C589.567,88.939 590.514,88.655 590.923,87.896C593.089,83.883 594.333,79.389 594.545,74.836C594.583,73.974 593.917,73.242 593.054,73.202C592.192,73.161 591.464,73.83 591.423,74.692Z" style="fill:rgb(161,134,117);fill-rule:nonzero;"/>
    </g>
    <g transform="matrix(1,0,0,1,0,112.5)">
        <path d="M576.123,59.411C576.036,60.983 575.992,62.558 575.992,64.13C575.992,66.617 576.101,69.102 576.32,71.58C576.395,72.439 577.154,73.074 578.014,72.999C578.873,72.924 579.507,72.164 579.433,71.305C579.22,68.917 579.117,66.524 579.117,64.13C579.117,62.614 579.157,61.099 579.242,59.586C579.292,58.724 578.632,57.986 577.77,57.939C576.907,57.892 576.17,58.552 576.123,59.411Z" style="fill:rgb(161,134,117);fill-rule:nonzero;"/>
    </g>
    <g transform="matrix(1,0,0,1,0,112.5)">
        <path d="M567.292,84.074C567.936,88.527 568.576,92.977 569.22,97.427C569.342,98.28 570.136,98.874 570.989,98.752C571.842,98.627 572.436,97.836 572.314,96.98C571.67,92.53 571.029,88.08 570.386,83.63C570.264,82.774 569.47,82.183 568.617,82.305C567.764,82.43 567.17,83.22 567.292,84.074Z" style="fill:rgb(161,134,117);fill-rule:nonzero;"/>
    </g>
    <g transform="matrix(1,0,0,1,0,112.5)">
        <path d="M616.964,79.027C615.058,83.646 612.886,88.152 610.461,92.517C610.042,93.274 610.314,94.224 611.067,94.642C611.82,95.061 612.773,94.789 613.192,94.036C615.673,89.564 617.898,84.949 619.851,80.22C620.182,79.424 619.801,78.508 619.004,78.18C618.207,77.852 617.292,78.23 616.964,79.027Z" style="fill:rgb(161,134,117);fill-rule:nonzero;"/>
    </g>
    <g transform="matrix(1,0,0,1,0,112.5)">
        <path d="M600.514,93.789C600.367,98.33 598.992,102.839 596.579,106.686C596.12,107.417 596.339,108.383 597.07,108.839C597.801,109.299 598.767,109.077 599.226,108.349C601.936,104.024 603.47,98.992 603.636,93.892C603.664,93.03 602.986,92.308 602.123,92.28C601.261,92.252 600.542,92.93 600.514,93.792L600.514,93.789Z" style="fill:rgb(161,134,117);fill-rule:nonzero;"/>
    </g>
    <g transform="matrix(1,0,0,1,0,112.5)">
        <path d="M597.917,20.324C598.982,24.605 599.689,28.977 600.023,33.374C600.089,34.236 600.839,34.88 601.698,34.814C602.558,34.749 603.204,33.999 603.139,33.139C602.792,28.564 602.057,24.02 600.948,19.567C600.742,18.73 599.892,18.22 599.054,18.43C598.217,18.639 597.708,19.486 597.917,20.324Z" style="fill:rgb(161,134,117);fill-rule:nonzero;"/>
    </g>
    <g transform="matrix(1,0,0,1,0,112.5)">
        <path d="M583.661,21.286C581.767,25.302 580.601,29.655 580.239,34.08C580.167,34.939 580.808,35.695 581.667,35.764C582.526,35.836 583.283,35.196 583.354,34.336C583.686,30.286 584.751,26.292 586.486,22.617C586.854,21.836 586.52,20.905 585.739,20.539C584.958,20.171 584.026,20.505 583.661,21.286Z" style="fill:rgb(161,134,117);fill-rule:nonzero;"/>
    </g>
    <g transform="matrix(1,0,0,1,0,112.5)">
        <path d="M569.858,28.27C567.923,31.311 566.898,34.886 566.898,38.477C566.898,39.186 566.939,39.892 567.02,40.599C567.117,41.455 567.892,42.071 568.748,41.971C569.607,41.874 570.223,41.099 570.123,40.239C570.054,39.655 570.023,39.067 570.023,38.477C570.02,35.483 570.886,32.47 572.495,29.952C572.957,29.224 572.745,28.258 572.017,27.792C571.289,27.33 570.323,27.542 569.858,28.27Z" style="fill:rgb(161,134,117);fill-rule:nonzero;"/>
    </g>
    <g transform="matrix(1,0,0,1,0,112.5)">
        <path d="M557.089,28.167C554.52,31.339 553.098,35.374 553.095,39.452L553.101,39.995C553.126,40.858 553.851,41.533 554.714,41.505C555.576,41.48 556.251,40.758 556.226,39.896L556.22,39.452C556.217,36.105 557.408,32.733 559.517,30.136C560.061,29.467 559.958,28.483 559.286,27.939C558.617,27.396 557.632,27.499 557.089,28.167Z" style="fill:rgb(161,134,117);fill-rule:nonzero;"/>
    </g>
    <g transform="matrix(1,0,0,1,0,112.5)">
        <path d="M541.779,45.114C541.692,46.808 541.651,48.505 541.651,50.202C541.651,52.874 541.758,55.542 541.961,58.205C542.029,59.067 542.783,59.708 543.642,59.642C544.501,59.577 545.145,58.824 545.079,57.964C544.879,55.383 544.776,52.792 544.776,50.202C544.776,48.558 544.817,46.911 544.898,45.267C544.939,44.405 544.276,43.674 543.414,43.63C542.554,43.586 541.823,44.252 541.779,45.114Z" style="fill:rgb(161,134,117);fill-rule:nonzero;"/>
    </g>
    <g transform="matrix(1,0,0,1,0,112.5)">
        <path d="M649.17,27.702C649.464,30.327 649.611,32.97 649.611,35.611C649.611,37.024 649.57,38.436 649.486,39.845C649.433,40.708 650.092,41.449 650.951,41.499C651.814,41.552 652.554,40.892 652.604,40.033C652.692,38.561 652.736,37.086 652.736,35.611C652.736,32.855 652.582,30.095 652.276,27.355C652.179,26.495 651.407,25.88 650.548,25.977C649.692,26.07 649.073,26.845 649.17,27.702Z" style="fill:rgb(161,134,117);fill-rule:nonzero;"/>
    </g>
    <g transform="matrix(1,0,0,1,0,112.5)">
        <path d="M660.626,47.464C660.295,51.852 659.086,56.18 657.092,60.102C656.701,60.87 657.008,61.811 657.776,62.202C658.545,62.592 659.486,62.286 659.876,61.517C662.061,57.224 663.379,52.502 663.742,47.699C663.808,46.839 663.161,46.089 662.301,46.024C661.442,45.961 660.692,46.605 660.626,47.464Z" style="fill:rgb(161,134,117);fill-rule:nonzero;"/>
    </g>
    <g transform="matrix(1,0,0,1,0,112.5)">
        <path d="M685.276,44.427C684.642,47.942 683.639,51.392 682.286,54.699C681.957,55.499 682.342,56.411 683.139,56.736C683.939,57.064 684.851,56.683 685.176,55.883C686.614,52.374 687.679,48.714 688.351,44.98C688.504,44.13 687.939,43.317 687.089,43.164C686.239,43.014 685.429,43.577 685.276,44.427Z" style="fill:rgb(161,134,117);fill-rule:nonzero;"/>
    </g>
    <g transform="matrix(1,0,0,1,0,112.5)">
        <path d="M519.045,24.895C518.717,26.611 518.554,28.355 518.554,30.095C518.554,33.695 519.245,37.296 520.611,40.636C520.936,41.433 521.848,41.817 522.648,41.492C523.445,41.164 523.829,40.255 523.504,39.455C522.295,36.499 521.679,33.296 521.679,30.095C521.679,28.549 521.823,27.002 522.114,25.483C522.276,24.636 521.72,23.817 520.873,23.655C520.026,23.492 519.208,24.049 519.045,24.895Z" style="fill:rgb(161,134,117);fill-rule:nonzero;"/>
    </g>
    <g transform="matrix(1,0,0,1,0,112.5)">
        <path d="M526.189,56.892C528.517,61.217 530.848,65.539 533.176,69.861C533.586,70.621 534.532,70.905 535.292,70.499C536.051,70.089 536.336,69.139 535.926,68.38C533.598,64.058 531.27,59.736 528.942,55.411C528.532,54.652 527.582,54.367 526.823,54.777C526.064,55.186 525.779,56.133 526.189,56.896L526.189,56.892Z" style="fill:rgb(161,134,117);fill-rule:nonzero;"/>
    </g>
    <g transform="matrix(1,0,0,1,0,112.5)">
        <path d="M506.954,58.502C508.248,63.042 510.586,67.27 513.745,70.783C514.32,71.424 515.308,71.477 515.951,70.899C516.592,70.324 516.645,69.333 516.067,68.692C513.233,65.539 511.12,61.724 509.957,57.642C509.723,56.814 508.857,56.333 508.026,56.57C507.198,56.805 506.717,57.671 506.954,58.502Z" style="fill:rgb(161,134,117);fill-rule:nonzero;"/>
    </g>
    <g transform="matrix(1,0,0,1,0,112.5)">
        <path d="M651.782,81.874C651.676,85.508 649.545,89.124 646.417,90.974C645.676,91.414 645.433,92.374 645.873,93.117C646.317,93.858 647.276,94.099 648.017,93.658C652.092,91.214 654.739,86.727 654.904,81.977C654.933,81.114 654.258,80.392 653.395,80.364C652.533,80.336 651.811,81.011 651.782,81.874Z" style="fill:rgb(161,134,117);fill-rule:nonzero;"/>
    </g>
    <g transform="matrix(1,0,0,1,0,112.5)">
        <path d="M591.57,158.983C590.923,163.386 590.598,167.833 590.598,172.283C590.598,172.692 590.601,173.102 590.604,173.514C590.617,174.377 591.326,175.064 592.189,175.055C593.051,175.042 593.742,174.333 593.729,173.471C593.726,173.074 593.723,172.677 593.723,172.283C593.723,167.986 594.036,163.689 594.661,159.439C594.786,158.583 594.195,157.792 593.342,157.664C592.489,157.539 591.695,158.13 591.57,158.983Z" style="fill:rgb(161,134,117);fill-rule:nonzero;"/>
    </g>
    <g transform="matrix(1,0,0,1,0,112.5)">
        <path d="M576.151,152.074C577.117,154.811 577.614,157.72 577.614,160.63C577.614,161.524 577.567,162.414 577.473,163.305C577.383,164.161 578.004,164.93 578.861,165.02C579.72,165.111 580.489,164.489 580.579,163.633C580.686,162.633 580.739,161.63 580.739,160.63C580.736,157.367 580.186,154.111 579.098,151.033C578.811,150.217 577.917,149.792 577.104,150.08C576.289,150.367 575.864,151.258 576.151,152.074Z" style="fill:rgb(161,134,117);fill-rule:nonzero;"/>
    </g>
    <g transform="matrix(1,0,0,1,0,112.5)">
        <path d="M581.257,179.642C581.651,181.127 581.851,182.667 581.851,184.208C581.851,185.471 581.717,186.733 581.451,187.964C581.27,188.808 581.804,189.639 582.648,189.82C583.492,190.005 584.323,189.467 584.508,188.624C584.82,187.174 584.976,185.689 584.976,184.208C584.976,182.402 584.742,180.592 584.279,178.842C584.057,178.008 583.201,177.511 582.367,177.73C581.533,177.952 581.036,178.808 581.257,179.642Z" style="fill:rgb(161,134,117);fill-rule:nonzero;"/>
    </g>
    <g transform="matrix(1,0,0,1,0,112.5)">
        <path d="M553.657,57.589C553.657,61.883 553.657,66.174 553.657,70.467C553.657,71.33 554.354,72.03 555.22,72.03C556.082,72.03 556.782,71.33 556.782,70.467C556.782,66.174 556.782,61.88 556.782,57.589C556.782,56.727 556.082,56.027 555.22,56.027C554.354,56.027 553.657,56.727 553.657,57.589Z" style="fill:rgb(161,134,117);fill-rule:nonzero;"/>
    </g>
    <g transform="matrix(1,0,0,1,0,112.5)">
        <path d="M545.514,74.214C545.489,74.802 545.476,75.389 545.476,75.977C545.476,80.57 546.226,85.158 547.692,89.514C547.967,90.333 548.851,90.774 549.667,90.499C550.486,90.224 550.929,89.336 550.654,88.517C549.298,84.486 548.601,80.23 548.601,75.977C548.601,75.433 548.614,74.889 548.639,74.346C548.67,73.483 548.004,72.755 547.142,72.72C546.279,72.683 545.551,73.355 545.517,74.214L545.514,74.214Z" style="fill:rgb(161,134,117);fill-rule:nonzero;"/>
    </g>
    <g transform="matrix(1,0,0,1,0,112.5)">
        <path d="M555.586,100.399C556.698,105.186 558.651,109.774 561.32,113.905C561.789,114.63 562.758,114.836 563.483,114.367C564.204,113.899 564.414,112.933 563.945,112.208C561.47,108.383 559.661,104.124 558.629,99.689C558.433,98.849 557.592,98.324 556.751,98.52C555.911,98.717 555.389,99.558 555.586,100.399Z" style="fill:rgb(161,134,117);fill-rule:nonzero;"/>
    </g>
    <g transform="matrix(1,0,0,1,0,112.5)">
        <path d="M582.914,105.036C582.183,109.139 580.986,113.158 579.351,116.992C579.014,117.789 579.382,118.705 580.176,119.042C580.97,119.383 581.889,119.011 582.226,118.217C583.951,114.167 585.217,109.92 585.989,105.583C586.139,104.733 585.573,103.92 584.723,103.771C583.876,103.62 583.064,104.186 582.914,105.036Z" style="fill:rgb(161,134,117);fill-rule:nonzero;"/>
    </g>
    <g transform="matrix(1,0,0,1,0,112.5)">
        <path d="M598.664,122.233C597.098,125.349 595.251,128.324 593.158,131.114C592.639,131.805 592.779,132.783 593.47,133.302C594.158,133.821 595.139,133.68 595.657,132.989C597.861,130.052 599.804,126.92 601.458,123.636C601.845,122.867 601.532,121.927 600.764,121.539C599.992,121.152 599.051,121.461 598.664,122.233Z" style="fill:rgb(161,134,117);fill-rule:nonzero;"/>
    </g>
    <g transform="matrix(1,0,0,1,0,112.5)">
        <path d="M581.373,129.917C581.254,130.967 581.198,132.027 581.198,133.083C581.198,136.827 581.929,140.564 583.354,144.03C583.682,144.83 584.595,145.208 585.395,144.88C586.192,144.552 586.573,143.639 586.245,142.842C584.976,139.761 584.323,136.417 584.323,133.083C584.323,132.139 584.373,131.199 584.479,130.264C584.576,129.408 583.958,128.633 583.101,128.539C582.242,128.442 581.47,129.058 581.373,129.917Z" style="fill:rgb(161,134,117);fill-rule:nonzero;"/>
    </g>
    <g transform="matrix(1,0,0,1,0,112.5)">
        <path d="M623.298,9.977C624.267,12.674 624.764,15.542 624.764,18.411L624.758,18.927C624.742,19.789 625.426,20.502 626.289,20.521C627.151,20.536 627.867,19.852 627.883,18.989L627.889,18.411C627.889,15.183 627.329,11.958 626.239,8.92C625.948,8.108 625.054,7.686 624.242,7.977C623.429,8.267 623.008,9.164 623.298,9.977Z" style="fill:rgb(161,134,117);fill-rule:nonzero;"/>
    </g>
    <g transform="matrix(1,0,0,1,0,112.5)">
        <path d="M638.164,58.105C638.173,58.452 638.176,58.799 638.179,59.149C638.179,64.13 637.242,69.114 635.429,73.755C635.114,74.561 635.514,75.467 636.317,75.78C637.12,76.092 638.026,75.695 638.339,74.892C640.295,69.886 641.301,64.52 641.301,59.149C641.301,58.774 641.298,58.399 641.289,58.024C641.267,57.161 640.548,56.48 639.686,56.502C638.823,56.524 638.142,57.242 638.164,58.105Z" style="fill:rgb(161,134,117);fill-rule:nonzero;"/>
    </g>
    <g transform="matrix(1,0,0,1,0,112.5)">
        <path d="M541.367,13.936C540.632,18.217 540.261,22.561 540.261,26.902C540.261,27.445 540.264,27.986 540.276,28.53C540.298,29.392 541.011,30.077 541.873,30.058C542.739,30.039 543.423,29.324 543.401,28.461C543.389,27.942 543.386,27.424 543.386,26.902C543.386,22.736 543.739,18.57 544.448,14.467C544.595,13.617 544.02,12.808 543.173,12.661C542.323,12.517 541.514,13.086 541.367,13.936Z" style="fill:rgb(161,134,117);fill-rule:nonzero;"/>
    </g>
    <g transform="matrix(1,0,0,1,0,112.5)">
        <path d="M572.054,7.002C570.917,9.886 570.314,12.977 570.286,16.08C570.276,16.942 570.97,17.649 571.833,17.655C572.695,17.664 573.401,16.971 573.411,16.108C573.436,13.392 573.964,10.674 574.961,8.149C575.276,7.345 574.882,6.436 574.079,6.12C573.279,5.805 572.37,6.199 572.054,7.002Z" style="fill:rgb(161,134,117);fill-rule:nonzero;"/>
    </g>
    <g transform="matrix(1,0,0,1,0,112.5)">
        <path d="M644.576,311.027C647.061,315.833 648.448,321.221 648.592,326.63C648.614,327.492 649.332,328.174 650.195,328.152C651.057,328.127 651.739,327.411 651.717,326.549C651.557,320.658 650.054,314.824 647.351,309.592C646.954,308.824 646.014,308.524 645.245,308.92C644.479,309.317 644.179,310.261 644.576,311.027Z" style="fill:rgb(126,105,96);fill-rule:nonzero;"/>
    </g>
    <g transform="matrix(1,0,0,1,0,112.5)">
        <path d="M633.154,323.561C634.054,328.521 634.614,333.539 634.823,338.574C634.861,339.436 635.589,340.108 636.451,340.071C637.311,340.036 637.983,339.308 637.945,338.445C637.729,333.267 637.154,328.102 636.229,323.005C636.073,322.155 635.261,321.592 634.411,321.746C633.564,321.899 633.001,322.714 633.154,323.561Z" style="fill:rgb(126,105,96);fill-rule:nonzero;"/>
    </g>
    <g transform="matrix(1,0,0,1,0,112.5)">
        <path d="M625.076,315.602C625.564,317.389 625.811,319.245 625.811,321.102C625.811,323.142 625.514,325.183 624.926,327.133C624.679,327.961 625.145,328.833 625.973,329.08C626.798,329.33 627.67,328.861 627.92,328.036C628.595,325.786 628.936,323.445 628.936,321.102C628.936,318.971 628.654,316.839 628.092,314.78C627.864,313.946 627.004,313.455 626.173,313.683C625.342,313.911 624.851,314.77 625.076,315.602Z" style="fill:rgb(126,105,96);fill-rule:nonzero;"/>
    </g>
    <g transform="matrix(1,0,0,1,0,112.5)">
        <path d="M614.623,330.702C615.014,332.864 615.211,335.061 615.211,337.261C615.211,339.345 615.036,341.433 614.683,343.489C614.536,344.339 615.107,345.145 615.961,345.292C616.811,345.436 617.617,344.867 617.764,344.014C618.145,341.783 618.336,339.524 618.336,337.261C618.336,334.877 618.123,332.492 617.698,330.145C617.545,329.296 616.733,328.733 615.883,328.886C615.036,329.039 614.47,329.852 614.623,330.702Z" style="fill:rgb(126,105,96);fill-rule:nonzero;"/>
    </g>
    <g transform="matrix(1,0,0,1,0,112.5)">
        <path d="M623.404,343.696C623.204,348.258 621.864,352.777 619.545,356.711C619.107,357.455 619.354,358.414 620.098,358.852C620.842,359.289 621.798,359.042 622.239,358.299C624.817,353.917 626.301,348.911 626.526,343.833C626.564,342.97 625.895,342.242 625.032,342.205C624.17,342.164 623.442,342.833 623.404,343.696Z" style="fill:rgb(126,105,96);fill-rule:nonzero;"/>
    </g>
    <g transform="matrix(1,0,0,1,0,112.5)">
        <path d="M603.523,358.717C603.592,359.233 603.626,359.755 603.626,360.28C603.629,363.414 602.407,366.586 600.273,368.864C599.686,369.492 599.72,370.483 600.351,371.07C600.979,371.661 601.97,371.627 602.558,370.995C605.254,368.102 606.748,364.211 606.751,360.28C606.751,359.624 606.708,358.964 606.623,358.308C606.508,357.452 605.723,356.849 604.867,356.964C604.014,357.077 603.411,357.861 603.523,358.717Z" style="fill:rgb(126,105,96);fill-rule:nonzero;"/>
    </g>
    <g transform="matrix(1,0,0,1,0,112.5)">
        <path d="M592.27,345.114C592.095,348.77 591.92,352.427 591.748,356.083C591.704,356.945 592.37,357.677 593.232,357.717C594.095,357.758 594.826,357.092 594.867,356.233C595.042,352.577 595.217,348.921 595.392,345.264C595.433,344.402 594.767,343.67 593.904,343.63C593.045,343.586 592.311,344.252 592.27,345.114Z" style="fill:rgb(126,105,96);fill-rule:nonzero;"/>
    </g>
    <g transform="matrix(1,0,0,1,0,112.5)">
        <path d="M571.786,347.03C571.754,347.764 571.739,348.502 571.739,349.236C571.739,352.627 572.079,356.014 572.761,359.336C572.932,360.183 573.757,360.727 574.604,360.555C575.448,360.38 575.995,359.555 575.82,358.711C575.182,355.596 574.864,352.414 574.864,349.236C574.864,348.545 574.876,347.858 574.908,347.167C574.945,346.305 574.279,345.574 573.417,345.536C572.554,345.499 571.823,346.167 571.786,347.03Z" style="fill:rgb(126,105,96);fill-rule:nonzero;"/>
    </g>
    <g transform="matrix(1,0,0,1,0,112.5)">
        <path d="M552.792,332.28L552.789,332.892C552.789,337.827 554.07,342.736 556.483,347.039C556.904,347.792 557.857,348.061 558.611,347.639C559.364,347.217 559.629,346.264 559.207,345.511C557.061,341.683 555.914,337.283 555.914,332.892L555.917,332.349C555.939,331.486 555.254,330.771 554.392,330.752C553.529,330.733 552.814,331.417 552.792,332.28Z" style="fill:rgb(126,105,96);fill-rule:nonzero;"/>
    </g>
    <g transform="matrix(1,0,0,1,0,112.5)">
        <path d="M581.351,360.855C581.757,362.392 581.957,363.989 581.957,365.586C581.957,367.574 581.645,369.561 581.023,371.442C580.754,372.264 581.198,373.146 582.017,373.417C582.839,373.689 583.72,373.242 583.992,372.424C584.72,370.217 585.082,367.902 585.082,365.586C585.082,363.727 584.848,361.864 584.373,360.061C584.154,359.227 583.301,358.727 582.467,358.945C581.632,359.167 581.132,360.021 581.351,360.855Z" style="fill:rgb(126,105,96);fill-rule:nonzero;"/>
    </g>
    <g transform="matrix(1,0,0,1,0,112.5)">
        <path d="M637.598,361.074C637.645,361.583 637.67,362.096 637.67,362.608C637.673,366.627 636.233,370.677 633.67,373.764C633.117,374.43 633.211,375.414 633.873,375.964C634.539,376.517 635.523,376.424 636.073,375.761C639.117,372.083 640.792,367.364 640.795,362.608C640.795,362.002 640.767,361.392 640.711,360.786C640.632,359.927 639.87,359.295 639.014,359.374C638.151,359.455 637.52,360.214 637.598,361.074Z" style="fill:rgb(126,105,96);fill-rule:nonzero;"/>
    </g>
    <g transform="matrix(1,0,0,1,0,112.5)">
        <path d="M633.376,286.852C634.242,290.82 634.701,294.88 634.748,298.942C634.757,299.805 635.464,300.499 636.326,300.489C637.192,300.48 637.882,299.771 637.873,298.908C637.826,294.633 637.342,290.364 636.429,286.186C636.245,285.342 635.414,284.808 634.57,284.992C633.726,285.177 633.192,286.008 633.376,286.852Z" style="fill:rgb(126,105,96);fill-rule:nonzero;"/>
    </g>
    <g transform="matrix(1,0,0,1,0,112.5)">
        <path d="M537.489,303.624C537.401,305.455 537.358,307.289 537.358,309.124C537.358,312.133 537.473,315.142 537.711,318.142C537.776,319.002 538.526,319.645 539.389,319.58C540.248,319.511 540.892,318.758 540.823,317.899C540.595,314.98 540.479,312.052 540.479,309.124C540.479,307.339 540.52,305.555 540.607,303.774C540.651,302.911 539.986,302.177 539.12,302.136C538.258,302.095 537.529,302.761 537.489,303.624Z" style="fill:rgb(126,105,96);fill-rule:nonzero;"/>
    </g>
    <g transform="matrix(1,0,0,1,0,112.5)">
        <path d="M540.798,335.986C540.736,336.611 540.708,337.239 540.708,337.867C540.708,340.583 541.245,343.292 542.283,345.805C542.608,346.602 543.523,346.983 544.323,346.655C545.12,346.324 545.501,345.411 545.167,344.614C544.292,342.483 543.833,340.174 543.833,337.867C543.833,337.333 543.861,336.802 543.911,336.274C543.989,335.414 543.358,334.652 542.498,334.574C541.639,334.496 540.876,335.127 540.798,335.986Z" style="fill:rgb(126,105,96);fill-rule:nonzero;"/>
    </g>
    <g transform="matrix(1,0,0,1,0,112.5)">
        <path d="M556.483,365.396C556.929,369.524 558.32,373.533 560.523,377.052C560.982,377.783 561.948,378.005 562.679,377.545C563.411,377.089 563.629,376.124 563.173,375.392C561.223,372.28 559.983,368.711 559.589,365.058C559.495,364.202 558.726,363.58 557.867,363.674C557.011,363.767 556.386,364.536 556.483,365.396Z" style="fill:rgb(126,105,96);fill-rule:nonzero;"/>
    </g>
    <g transform="matrix(1,0,0,1,0,112.5)">
        <path d="M515.661,331.924C515.929,337.077 517.236,342.167 519.479,346.814C519.704,347.277 519.998,347.777 520.448,348.242C520.886,348.692 521.57,349.199 522.542,349.208L523.236,349.111C524.07,348.88 524.554,348.02 524.323,347.189C524.095,346.358 523.232,345.871 522.401,346.102L522.542,346.605L522.542,346.083L522.401,346.102L522.542,346.605L522.542,346.083L522.542,346.539L522.757,346.13L522.542,346.083L522.542,346.539L522.757,346.13L522.751,346.142L522.761,346.13L522.757,346.13L522.751,346.142L522.761,346.13C522.708,346.111 522.439,345.78 522.292,345.455C520.229,341.186 519.029,336.496 518.783,331.761C518.739,330.899 518.001,330.236 517.142,330.28C516.279,330.327 515.617,331.061 515.661,331.924Z" style="fill:rgb(126,105,96);fill-rule:nonzero;"/>
    </g>
    <g transform="matrix(1,0,0,1,0,112.5)">
        <path d="M516.339,286.742C514.204,290.227 513.067,294.289 513.064,298.374C513.064,298.742 513.073,299.114 513.092,299.483C513.139,300.345 513.873,301.008 514.732,300.964C515.595,300.921 516.258,300.186 516.214,299.324C516.198,299.008 516.189,298.689 516.189,298.374C516.189,294.874 517.173,291.358 519.004,288.377C519.454,287.642 519.223,286.68 518.489,286.23C517.754,285.777 516.792,286.008 516.339,286.742Z" style="fill:rgb(126,105,96);fill-rule:nonzero;"/>
    </g>
    <g transform="matrix(1,0,0,1,0,112.5)">
        <path d="M506.539,291.149C504.892,295.127 501.836,299.327 501.786,304.452C501.786,304.908 501.811,305.367 501.867,305.833C501.967,306.689 502.745,307.302 503.604,307.199C504.461,307.095 505.07,306.317 504.97,305.461C504.929,305.124 504.911,304.789 504.911,304.452C504.861,300.702 507.508,296.746 509.414,292.37C509.751,291.577 509.382,290.661 508.589,290.324C507.795,289.986 506.876,290.355 506.539,291.149Z" style="fill:rgb(126,105,96);fill-rule:nonzero;"/>
    </g>
    <g transform="matrix(1,0,0,1,0,112.5)">
        <path d="M490.77,297.808C488.498,301.389 486.951,305.421 486.242,309.602C486.095,310.452 486.67,311.261 487.52,311.405C488.37,311.549 489.176,310.977 489.323,310.127C489.961,306.355 491.364,302.708 493.411,299.48C493.873,298.752 493.657,297.786 492.926,297.324C492.198,296.861 491.232,297.077 490.77,297.808Z" style="fill:rgb(126,105,96);fill-rule:nonzero;"/>
    </g>
    <g transform="matrix(1,0,0,1,0,112.5)">
        <path d="M493.761,270.561C490.576,274.58 488.22,279.245 486.882,284.195C486.658,285.027 487.151,285.886 487.983,286.111C488.817,286.336 489.673,285.842 489.898,285.011C491.126,280.474 493.289,276.186 496.211,272.505C496.745,271.827 496.633,270.845 495.958,270.308C495.282,269.774 494.298,269.886 493.761,270.561Z" style="fill:rgb(126,105,96);fill-rule:nonzero;"/>
    </g>
    <g transform="matrix(1,0,0,1,0,112.5)">
        <path d="M477.298,314.324C475.67,317.53 474.826,321.105 474.826,324.692C474.826,325.711 474.895,326.733 475.033,327.749C475.151,328.602 475.939,329.199 476.795,329.083C477.648,328.967 478.248,328.177 478.129,327.324C478.011,326.452 477.951,325.571 477.951,324.692C477.951,321.595 478.683,318.492 480.083,315.739C480.473,314.971 480.167,314.03 479.398,313.639C478.629,313.249 477.689,313.555 477.298,314.324Z" style="fill:rgb(126,105,96);fill-rule:nonzero;"/>
    </g>
    <g transform="matrix(1,0,0,1,0,112.5)">
        <path d="M486.176,328.12C485.023,332.158 484.436,336.352 484.436,340.549C484.436,341.164 484.448,341.78 484.473,342.396C484.508,343.255 485.236,343.927 486.098,343.892C486.961,343.855 487.633,343.127 487.595,342.264C487.573,341.692 487.561,341.12 487.561,340.549C487.561,336.642 488.107,332.736 489.183,328.98C489.417,328.152 488.939,327.286 488.107,327.049C487.279,326.811 486.414,327.292 486.176,328.12Z" style="fill:rgb(126,105,96);fill-rule:nonzero;"/>
    </g>
    <g transform="matrix(1,0,0,1,0,112.5)">
        <path d="M677.307,293.38C679.779,298.836 681.754,304.517 683.201,310.33C683.411,311.167 684.261,311.677 685.098,311.47C685.936,311.261 686.445,310.414 686.236,309.577C684.742,303.58 682.704,297.72 680.154,292.089C679.798,291.302 678.873,290.955 678.086,291.311C677.301,291.667 676.951,292.592 677.307,293.38Z" style="fill:rgb(126,105,96);fill-rule:nonzero;"/>
    </g>
    <g transform="matrix(1,0,0,1,0,112.5)">
        <path d="M666.608,296.811C668.511,299.799 669.942,303.092 670.826,306.524C671.042,307.361 671.892,307.861 672.729,307.649C673.564,307.433 674.067,306.58 673.851,305.745C672.886,301.992 671.323,298.399 669.242,295.133C668.779,294.405 667.814,294.189 667.086,294.655C666.357,295.117 666.142,296.083 666.608,296.811Z" style="fill:rgb(126,105,96);fill-rule:nonzero;"/>
    </g>
    <g transform="matrix(1,0,0,1,0,112.5)">
        <path d="M652.617,292.261C654.317,294.592 655.27,297.486 655.292,300.37C655.301,301.233 656.004,301.927 656.867,301.92C657.733,301.911 658.426,301.208 658.417,300.342C658.386,296.795 657.229,293.295 655.145,290.424C654.639,289.724 653.661,289.57 652.964,290.08C652.264,290.586 652.111,291.564 652.617,292.261Z" style="fill:rgb(126,105,96);fill-rule:nonzero;"/>
    </g>
    <g transform="matrix(1,0,0,1,0,112.5)">
        <path d="M695.62,308.014C698.533,311.739 700.629,316.108 701.711,320.711C701.911,321.549 702.751,322.07 703.592,321.874C704.429,321.674 704.951,320.833 704.754,319.992C703.564,314.949 701.273,310.174 698.082,306.089C697.548,305.411 696.567,305.289 695.889,305.82C695.208,306.352 695.089,307.336 695.62,308.014Z" style="fill:rgb(126,105,96);fill-rule:nonzero;"/>
    </g>
    <g transform="matrix(1,0,0,1,0,112.5)">
        <path d="M689.295,324.624C690.261,327.799 691.226,330.977 692.192,334.152C692.442,334.977 693.314,335.442 694.142,335.192C694.967,334.942 695.433,334.067 695.182,333.242C694.217,330.067 693.251,326.889 692.283,323.714C692.032,322.889 691.161,322.424 690.336,322.674C689.508,322.927 689.042,323.799 689.295,324.624Z" style="fill:rgb(126,105,96);fill-rule:nonzero;"/>
    </g>
    <g transform="matrix(1,0,0,1,0,112.5)">
        <path d="M678.182,274.924C681.814,277.892 684.704,281.78 686.501,286.114C686.829,286.911 687.745,287.289 688.542,286.961C689.339,286.63 689.717,285.714 689.389,284.917C687.392,280.102 684.198,275.805 680.161,272.502C679.495,271.958 678.511,272.055 677.964,272.724C677.417,273.392 677.517,274.377 678.182,274.924Z" style="fill:rgb(126,105,96);fill-rule:nonzero;"/>
    </g>
    <g transform="matrix(1,0,0,1,0,112.5)">
        <path d="M710.314,343.605C711.151,347.096 711.573,350.689 711.573,354.28C711.573,355.192 711.545,356.105 711.492,357.017C711.439,357.88 712.095,358.62 712.958,358.67C713.82,358.724 714.561,358.067 714.611,357.205C714.67,356.23 714.698,355.255 714.698,354.28C714.698,350.442 714.248,346.608 713.351,342.877C713.151,342.036 712.307,341.52 711.47,341.721C710.629,341.924 710.114,342.764 710.314,343.605Z" style="fill:rgb(126,105,96);fill-rule:nonzero;"/>
    </g>
    <g transform="matrix(1,0,0,1,0,112.5)">
        <path d="M659.57,320.614C659.932,323.08 660.114,325.574 660.114,328.067C660.114,329.286 660.07,330.505 659.983,331.721C659.923,332.583 660.57,333.33 661.429,333.392C662.292,333.455 663.039,332.805 663.101,331.945C663.192,330.655 663.239,329.361 663.239,328.067C663.239,325.42 663.045,322.777 662.661,320.158C662.536,319.305 661.742,318.714 660.889,318.839C660.036,318.967 659.445,319.761 659.57,320.614Z" style="fill:rgb(126,105,96);fill-rule:nonzero;"/>
    </g>
    <g transform="matrix(1,0,0,1,0,112.5)">
        <path d="M650.557,342.402L650.576,343.189C650.579,346.545 649.523,349.924 647.601,352.674C647.108,353.38 647.279,354.355 647.986,354.849C648.695,355.342 649.667,355.171 650.164,354.464C652.457,351.174 653.701,347.195 653.701,343.189C653.701,342.877 653.695,342.561 653.679,342.249C653.636,341.386 652.904,340.72 652.042,340.764C651.179,340.805 650.517,341.539 650.557,342.402Z" style="fill:rgb(126,105,96);fill-rule:nonzero;"/>
    </g>
    <g transform="matrix(1,0,0,1,0,112.5)">
        <path d="M463.445,346.408C460.917,350.049 459.567,354.449 459.564,358.867C459.564,359.667 459.607,360.467 459.698,361.267C459.795,362.124 460.57,362.739 461.426,362.642C462.286,362.546 462.901,361.771 462.804,360.914C462.726,360.236 462.689,359.552 462.689,358.867C462.686,355.089 463.857,351.286 466.011,348.189C466.501,347.48 466.326,346.508 465.617,346.014C464.911,345.524 463.936,345.699 463.445,346.408Z" style="fill:rgb(126,105,96);fill-rule:nonzero;"/>
    </g>
    <g transform="matrix(1,0,0,1,0,112.5)">
        <path d="M500.414,338.861C499.054,342.324 498.361,346.036 498.357,349.755C498.357,350.833 498.417,351.914 498.536,352.989C498.629,353.845 499.404,354.464 500.261,354.371C501.117,354.277 501.736,353.505 501.642,352.646C501.536,351.686 501.482,350.72 501.482,349.755C501.482,346.427 502.108,343.096 503.323,340.002C503.636,339.199 503.242,338.292 502.439,337.977C501.636,337.661 500.726,338.058 500.414,338.861Z" style="fill:rgb(126,105,96);fill-rule:nonzero;"/>
    </g>
    <g transform="matrix(1,0,0,1,0,112.5)">
        <path d="M471.136,358.077C469.867,362.342 469.22,366.786 469.22,371.236C469.22,371.683 469.226,372.133 469.242,372.583C469.267,373.445 469.986,374.124 470.848,374.099C471.711,374.07 472.389,373.352 472.364,372.489C472.351,372.07 472.345,371.655 472.345,371.236C472.345,367.089 472.948,362.942 474.132,358.971C474.379,358.142 473.908,357.274 473.079,357.027C472.254,356.78 471.383,357.252 471.136,358.077Z" style="fill:rgb(126,105,96);fill-rule:nonzero;"/>
    </g>
    <g transform="matrix(1,0,0,1,0,112.5)">
        <path d="M671.332,327.736C671.826,330.099 672.073,332.514 672.073,334.927C672.073,336.392 671.983,337.858 671.798,339.314C671.692,340.17 672.298,340.952 673.154,341.058C674.011,341.164 674.792,340.558 674.898,339.702C675.098,338.117 675.198,336.524 675.198,334.927C675.198,332.299 674.929,329.674 674.392,327.099C674.217,326.255 673.389,325.711 672.545,325.889C671.698,326.064 671.157,326.892 671.332,327.736Z" style="fill:rgb(126,105,96);fill-rule:nonzero;"/>
    </g>
    <g transform="matrix(1,0,0,1,0,112.5)">
        <path d="M509.604,314.927C508.517,318.586 507.961,322.399 507.961,326.217C507.961,326.62 507.967,327.027 507.979,327.433C508.008,328.295 508.729,328.974 509.592,328.949C510.454,328.92 511.129,328.199 511.104,327.336C511.092,326.964 511.086,326.589 511.086,326.217C511.086,322.702 511.598,319.186 512.598,315.817C512.845,314.989 512.373,314.12 511.548,313.874C510.72,313.63 509.851,314.099 509.604,314.927Z" style="fill:rgb(126,105,96);fill-rule:nonzero;"/>
    </g>
    <g transform="matrix(1,0,0,1,0,112.5)">
        <path d="M452.123,408.042C452.023,409.477 451.973,410.911 451.973,412.345C451.973,414.624 452.098,416.902 452.348,419.17C452.442,420.027 453.214,420.645 454.07,420.552C454.929,420.458 455.548,419.686 455.454,418.827C455.217,416.677 455.098,414.511 455.098,412.345C455.098,410.983 455.145,409.617 455.239,408.258C455.298,407.399 454.648,406.652 453.789,406.592C452.926,406.533 452.182,407.183 452.123,408.042Z" style="fill:rgb(126,105,96);fill-rule:nonzero;"/>
    </g>
    <g transform="matrix(1,0,0,1,0,112.5)">
        <path d="M445.892,411.47C444.479,415.427 443.751,419.624 443.751,423.824L443.754,424.058C443.761,424.924 444.467,425.617 445.329,425.608C446.192,425.602 446.886,424.895 446.879,424.033L446.876,423.824C446.876,419.983 447.542,416.139 448.836,412.524C449.126,411.711 448.701,410.817 447.889,410.527C447.076,410.236 446.182,410.658 445.892,411.47Z" style="fill:rgb(126,105,96);fill-rule:nonzero;"/>
    </g>
    <g transform="matrix(1,0,0,1,0,112.5)">
        <path d="M728.036,402.677C728.536,405.795 728.783,408.958 728.783,412.117C728.783,413.308 728.748,414.495 728.676,415.686C728.626,416.546 729.283,417.286 730.145,417.336C731.008,417.389 731.745,416.733 731.798,415.87C731.87,414.621 731.908,413.367 731.908,412.117C731.908,408.792 731.645,405.467 731.123,402.186C730.989,401.333 730.186,400.752 729.336,400.889C728.482,401.024 727.901,401.827 728.039,402.677L728.036,402.677Z" style="fill:rgb(126,105,96);fill-rule:nonzero;"/>
    </g>
    <g transform="matrix(1,0,0,1,0,112.5)">
        <path d="M717.379,394.855C719.036,398.264 720.076,401.977 720.429,405.752C720.511,406.611 721.273,407.242 722.133,407.161C722.992,407.08 723.623,406.317 723.542,405.458C723.151,401.308 722.011,397.236 720.189,393.489C719.811,392.711 718.876,392.389 718.101,392.767C717.326,393.142 717.001,394.08 717.379,394.855Z" style="fill:rgb(126,105,96);fill-rule:nonzero;"/>
    </g>
    <g transform="matrix(1,0,0,1,0,112.5)">
        <path d="M719.173,420.033C719.676,421.811 719.929,423.667 719.929,425.52C719.929,427.061 719.754,428.602 719.404,430.099C719.208,430.939 719.733,431.78 720.573,431.977C721.414,432.171 722.251,431.649 722.448,430.808C722.851,429.074 723.054,427.299 723.054,425.52C723.054,423.383 722.764,421.245 722.179,419.183C721.945,418.352 721.083,417.87 720.251,418.105C719.42,418.339 718.939,419.202 719.173,420.033Z" style="fill:rgb(126,105,96);fill-rule:nonzero;"/>
    </g>
    <g transform="matrix(1,0,0,1,0,112.5)">
        <path d="M508.095,487.296C506.673,491.067 505.942,495.089 505.942,499.117L505.948,499.755C505.964,500.617 506.679,501.302 507.542,501.286C508.404,501.267 509.089,500.555 509.073,499.692L509.067,499.117C509.067,495.467 509.732,491.811 511.02,488.399C511.323,487.589 510.917,486.689 510.111,486.383C509.301,486.08 508.401,486.486 508.095,487.296Z" style="fill:rgb(184,162,142);fill-rule:nonzero;"/>
    </g>
    <g transform="matrix(1,0,0,1,0,112.5)">
        <path d="M516.023,498.658C515.926,499.967 515.879,501.28 515.879,502.592C515.879,505.217 516.07,507.845 516.451,510.445C516.576,511.299 517.37,511.889 518.223,511.764C519.076,511.639 519.667,510.845 519.542,509.992C519.186,507.542 519.004,505.067 519.004,502.592C519.004,501.355 519.048,500.117 519.139,498.883C519.201,498.024 518.554,497.277 517.695,497.214C516.832,497.152 516.086,497.799 516.023,498.658Z" style="fill:rgb(184,162,142);fill-rule:nonzero;"/>
    </g>
    <g transform="matrix(1,0,0,1,0,112.5)">
        <path d="M508.842,513.97L508.829,514.574C508.832,518.599 510.351,522.567 513.051,525.564C513.629,526.202 514.617,526.252 515.257,525.674C515.898,525.096 515.948,524.108 515.37,523.467C513.201,521.074 511.951,517.808 511.954,514.574L511.964,514.092C511.998,513.23 511.326,512.505 510.464,512.47C509.601,512.436 508.876,513.108 508.842,513.97Z" style="fill:rgb(184,162,142);fill-rule:nonzero;"/>
    </g>
    <g transform="matrix(1,0,0,1,0,112.5)">
        <path d="M652.27,513.539C652.686,515.039 652.892,516.599 652.892,518.161C652.892,520.464 652.442,522.767 651.561,524.88C651.229,525.677 651.607,526.592 652.404,526.924C653.201,527.255 654.114,526.88 654.445,526.083C655.492,523.574 656.017,520.867 656.017,518.161C656.017,516.324 655.773,514.486 655.283,512.708C655.054,511.877 654.192,511.389 653.361,511.617C652.529,511.849 652.042,512.708 652.27,513.542L652.27,513.539Z" style="fill:rgb(184,162,142);fill-rule:nonzero;"/>
    </g>
    <g transform="matrix(1,0,0,1,0,112.5)">
        <path d="M596.983,403.874L596.986,404.227C596.986,408.174 596.167,412.13 594.598,415.755C594.257,416.546 594.62,417.464 595.414,417.808C596.204,418.152 597.123,417.786 597.467,416.995C599.204,412.974 600.108,408.605 600.111,404.227L600.108,403.836C600.095,402.974 599.389,402.283 598.526,402.292C597.664,402.305 596.973,403.011 596.983,403.874Z" style="fill:rgb(184,162,142);fill-rule:nonzero;"/>
    </g>
    <g transform="matrix(1,0,0,1,0,112.5)">
        <path d="M587.52,410.055C587.52,413.077 587.52,416.096 587.52,419.117C587.52,419.98 588.22,420.68 589.082,420.68C589.945,420.68 590.645,419.98 590.645,419.117C590.645,416.096 590.645,413.077 590.645,410.055C590.645,409.192 589.945,408.492 589.082,408.492C588.22,408.492 587.52,409.192 587.52,410.055Z" style="fill:rgb(184,162,142);fill-rule:nonzero;"/>
    </g>
    <g transform="matrix(1,0,0,1,0,112.5)">
        <path d="M578.639,417.496C579.304,420.702 579.967,423.911 580.633,427.117C580.808,427.961 581.636,428.505 582.479,428.33C583.326,428.155 583.867,427.327 583.692,426.483C583.026,423.274 582.364,420.067 581.698,416.861C581.523,416.017 580.695,415.474 579.851,415.649C579.004,415.824 578.464,416.652 578.639,417.496Z" style="fill:rgb(184,162,142);fill-rule:nonzero;"/>
    </g>
    <g transform="matrix(1,0,0,1,0,112.5)">
        <path d="M597.526,430.727C597.586,431.277 597.614,431.83 597.614,432.383C597.614,435.296 596.826,438.227 595.348,440.73C594.911,441.474 595.161,442.433 595.904,442.87C596.648,443.308 597.604,443.061 598.042,442.317C599.807,439.314 600.736,435.855 600.739,432.383C600.739,431.724 600.704,431.064 600.636,430.405C600.548,429.545 599.779,428.924 598.92,429.011C598.061,429.102 597.439,429.867 597.526,430.727Z" style="fill:rgb(184,162,142);fill-rule:nonzero;"/>
    </g>
    <g transform="matrix(1,0,0,1,0,112.5)">
        <path d="M587.464,433.305C587.117,437.911 586.767,442.52 586.42,447.13C586.354,447.989 587.001,448.739 587.861,448.805C588.72,448.87 589.473,448.224 589.536,447.364C589.886,442.755 590.233,438.149 590.579,433.539C590.645,432.68 590.001,431.93 589.139,431.864C588.279,431.799 587.529,432.442 587.464,433.305Z" style="fill:rgb(184,162,142);fill-rule:nonzero;"/>
    </g>
    <g transform="matrix(1,0,0,1,0,112.5)">
        <path d="M565.758,395.974C565.461,397.608 565.314,399.267 565.314,400.924C565.314,403.902 565.789,406.88 566.726,409.714C566.998,410.533 567.882,410.977 568.701,410.705C569.52,410.433 569.964,409.549 569.695,408.73C568.861,406.22 568.439,403.57 568.439,400.924C568.439,399.452 568.57,397.977 568.833,396.53C568.986,395.68 568.423,394.867 567.573,394.714C566.723,394.561 565.911,395.124 565.758,395.974Z" style="fill:rgb(184,162,142);fill-rule:nonzero;"/>
    </g>
    <g transform="matrix(1,0,0,1,0,112.5)">
        <path d="M643.77,508.952C643.851,509.736 643.892,510.524 643.892,511.314C643.892,512.774 643.751,514.233 643.473,515.664C643.311,516.511 643.864,517.333 644.711,517.495C645.558,517.661 646.376,517.108 646.542,516.261C646.857,514.63 647.017,512.974 647.017,511.314C647.017,510.417 646.97,509.52 646.876,508.627C646.786,507.767 646.02,507.145 645.161,507.233C644.301,507.324 643.679,508.092 643.77,508.952Z" style="fill:rgb(184,162,142);fill-rule:nonzero;"/>
    </g>
    <g transform="matrix(1,0,0,1,0,112.5)">
        <path d="M613.245,521.789C613.326,522.814 613.367,523.842 613.367,524.874C613.367,526.911 613.207,528.952 612.889,530.967C612.754,531.82 613.336,532.62 614.189,532.755C615.039,532.889 615.839,532.308 615.976,531.458C616.32,529.28 616.492,527.077 616.492,524.874C616.492,523.761 616.448,522.649 616.361,521.539C616.292,520.68 615.539,520.039 614.679,520.108C613.82,520.177 613.176,520.93 613.245,521.789Z" style="fill:rgb(184,162,142);fill-rule:nonzero;"/>
    </g>
    <g transform="matrix(1,0,0,1,0,112.5)">
        <path d="M518.973,450.98C517.604,454.402 516.898,458.077 516.898,461.761L516.911,462.564C516.932,463.427 517.654,464.108 518.517,464.083C519.379,464.058 520.057,463.339 520.032,462.477L520.023,461.761C520.023,458.477 520.654,455.189 521.876,452.139C522.195,451.339 521.808,450.43 521.004,450.108C520.204,449.789 519.295,450.177 518.973,450.98Z" style="fill:rgb(184,162,142);fill-rule:nonzero;"/>
    </g>
    <g transform="matrix(1,0,0,1,0,112.5)">
        <path d="M55.279,351.039C57.645,355.161 60.448,359.03 63.626,362.564C64.201,363.208 65.189,363.258 65.832,362.683C66.473,362.105 66.526,361.117 65.948,360.477C62.92,357.105 60.245,353.414 57.989,349.483C57.561,348.736 56.604,348.477 55.858,348.905C55.107,349.336 54.851,350.289 55.279,351.039Z" style="fill:rgb(161,134,117);fill-rule:nonzero;"/>
    </g>
    <g transform="matrix(1,0,0,1,0,112.5)">
        <path d="M70.204,355.074C71.354,359.708 73.961,363.942 77.579,367.055C78.236,367.617 79.22,367.542 79.783,366.886C80.345,366.233 80.273,365.246 79.617,364.683C76.498,362.005 74.223,358.314 73.239,354.32C73.029,353.483 72.183,352.974 71.345,353.18C70.507,353.389 69.998,354.236 70.204,355.074Z" style="fill:rgb(161,134,117);fill-rule:nonzero;"/>
    </g>
    <g transform="matrix(1,0,0,1,0,112.5)">
        <path d="M72.126,380.836C75.117,385.796 79.173,390.102 83.948,393.383C84.661,393.871 85.633,393.689 86.12,392.98C86.611,392.267 86.429,391.295 85.717,390.808C81.314,387.78 77.561,383.799 74.801,379.221C74.358,378.483 73.395,378.246 72.658,378.689C71.917,379.136 71.679,380.095 72.126,380.836Z" style="fill:rgb(161,134,117);fill-rule:nonzero;"/>
    </g>
    <g transform="matrix(1,0,0,1,0,112.5)">
        <path d="M89.508,383.974C92.529,387.152 95.554,390.33 98.576,393.505C99.173,394.133 100.161,394.155 100.786,393.561C101.411,392.967 101.436,391.977 100.842,391.352C97.817,388.174 94.795,384.999 91.77,381.821C91.176,381.196 90.186,381.17 89.561,381.764C88.936,382.361 88.914,383.349 89.508,383.974Z" style="fill:rgb(161,134,117);fill-rule:nonzero;"/>
    </g>
    <g transform="matrix(1,0,0,1,0,112.5)">
        <path d="M86.17,352.245C87.52,358.095 90.176,363.633 93.895,368.349C94.432,369.024 95.414,369.139 96.092,368.605C96.767,368.07 96.883,367.089 96.348,366.411C92.917,362.064 90.458,356.939 89.217,351.542C89.023,350.702 88.182,350.177 87.342,350.37C86.501,350.564 85.976,351.405 86.17,352.245Z" style="fill:rgb(161,134,117);fill-rule:nonzero;"/>
    </g>
    <g transform="matrix(1,0,0,1,0,112.5)">
        <path d="M107.936,391.752C110.473,396.136 113.798,400.058 117.704,403.286C118.37,403.833 119.354,403.739 119.904,403.074C120.454,402.408 120.361,401.424 119.695,400.877C116.076,397.889 112.992,394.245 110.639,390.186C110.208,389.439 109.251,389.183 108.504,389.614C107.757,390.049 107.501,391.005 107.936,391.752Z" style="fill:rgb(161,134,117);fill-rule:nonzero;"/>
    </g>
    <g transform="matrix(1,0,0,1,0,112.5)">
        <path d="M96.932,407.324C98.839,411.617 101.695,415.474 105.245,418.552C105.898,419.114 106.886,419.046 107.451,418.392C108.017,417.742 107.945,416.755 107.292,416.189C104.092,413.417 101.507,409.924 99.789,406.055C99.439,405.267 98.514,404.911 97.726,405.261C96.936,405.614 96.582,406.536 96.932,407.324Z" style="fill:rgb(161,134,117);fill-rule:nonzero;"/>
    </g>
    <g transform="matrix(1,0,0,1,0,112.5)">
        <path d="M123.651,354.911C125.989,359.727 129.308,364.052 133.351,367.558C134.004,368.124 134.989,368.052 135.554,367.402C136.12,366.749 136.048,365.761 135.398,365.195C131.676,361.97 128.614,357.977 126.464,353.549C126.086,352.77 125.151,352.445 124.376,352.824C123.598,353.199 123.276,354.136 123.651,354.911Z" style="fill:rgb(161,134,117);fill-rule:nonzero;"/>
    </g>
    <g transform="matrix(1,0,0,1,0,112.5)">
        <path d="M19.867,187.755C19.82,189.08 19.795,190.402 19.795,191.727C19.795,195.905 20.032,200.083 20.504,204.236C20.601,205.092 21.376,205.708 22.233,205.611C23.089,205.514 23.708,204.739 23.608,203.883C23.151,199.849 22.92,195.786 22.92,191.727C22.92,190.439 22.945,189.152 22.989,187.867C23.02,187.005 22.348,186.28 21.486,186.249C20.623,186.217 19.898,186.892 19.867,187.755Z" style="fill:rgb(161,134,117);fill-rule:nonzero;"/>
    </g>
    <g transform="matrix(1,0,0,1,0,112.5)">
        <path d="M21.264,213.355C22.02,217.877 23.526,222.267 25.707,226.302C26.117,227.061 27.067,227.342 27.826,226.933C28.586,226.521 28.867,225.574 28.457,224.814C26.439,221.086 25.045,217.02 24.348,212.839C24.204,211.989 23.398,211.414 22.548,211.555C21.698,211.699 21.123,212.505 21.264,213.355Z" style="fill:rgb(161,134,117);fill-rule:nonzero;"/>
    </g>
    <g transform="matrix(1,0,0,1,0,112.5)">
        <path d="M29.417,202.564L29.414,203.017C29.414,207.455 30.167,211.886 31.639,216.074C31.804,216.527 32.033,216.902 32.364,217.261C32.701,217.592 33.145,218.021 34.054,218.058C34.57,218.07 35.148,217.808 35.473,217.452C36.076,216.833 36.067,215.846 35.448,215.242C34.832,214.639 33.842,214.652 33.239,215.267L34.054,216.064L34.054,214.933C33.754,214.917 33.383,215.102 33.239,215.267L34.054,216.064L34.054,214.933L34.054,215.917L34.548,215.055L34.054,214.933L34.054,215.917L34.548,215.055L34.326,215.445L34.636,215.114L34.548,215.055L34.326,215.445L34.636,215.114L34.611,215.08L34.586,215.039C33.236,211.186 32.539,207.102 32.539,203.017L32.542,202.602C32.551,201.739 31.861,201.03 30.998,201.02C30.136,201.011 29.426,201.702 29.417,202.564Z" style="fill:rgb(161,134,117);fill-rule:nonzero;"/>
    </g>
    <g transform="matrix(1,0,0,1,0,112.5)">
        <path d="M43.642,210.717C44.857,214.836 46.648,218.783 48.951,222.408C49.414,223.136 50.379,223.352 51.107,222.889C51.836,222.427 52.051,221.461 51.589,220.733C49.442,217.355 47.77,213.674 46.642,209.836C46.395,209.008 45.526,208.533 44.701,208.777C43.873,209.02 43.398,209.889 43.642,210.717Z" style="fill:rgb(161,134,117);fill-rule:nonzero;"/>
    </g>
    <g transform="matrix(1,0,0,1,0,112.5)">
        <path d="M33.445,171.911C33.095,175.342 32.92,178.792 32.92,182.242C32.92,184.611 33.001,186.98 33.167,189.345C33.229,190.208 33.976,190.855 34.836,190.795C35.698,190.736 36.345,189.989 36.286,189.127C36.123,186.836 36.045,184.539 36.045,182.242C36.045,178.899 36.214,175.555 36.554,172.23C36.642,171.37 36.017,170.605 35.161,170.517C34.301,170.43 33.532,171.055 33.445,171.911Z" style="fill:rgb(161,134,117);fill-rule:nonzero;"/>
    </g>
    <g transform="matrix(1,0,0,1,0,112.5)">
        <path d="M61.517,182.536L61.517,182.899C61.517,188.108 62.667,193.302 64.867,198.024C65.229,198.808 66.161,199.145 66.942,198.78C67.723,198.417 68.064,197.486 67.698,196.705C65.692,192.402 64.639,187.645 64.642,182.899L64.642,182.567C64.651,181.705 63.957,180.999 63.095,180.989C62.232,180.98 61.526,181.67 61.517,182.536Z" style="fill:rgb(161,134,117);fill-rule:nonzero;"/>
    </g>
    <g transform="matrix(1,0,0,1,0,112.5)">
        <path d="M38.198,119.511C34.992,125.011 33.239,131.327 33.145,137.692C33.132,138.555 33.82,139.264 34.683,139.277C35.545,139.289 36.257,138.599 36.27,137.736C36.351,131.917 37.967,126.111 40.898,121.083C41.332,120.339 41.079,119.383 40.336,118.945C39.589,118.514 38.633,118.764 38.198,119.511Z" style="fill:rgb(161,134,117);fill-rule:nonzero;"/>
    </g>
    <g transform="matrix(1,0,0,1,0,112.5)">
        <path d="M26.842,137.433C25.198,140.349 24.351,143.674 24.348,147.005C24.348,148.314 24.479,149.627 24.751,150.914C24.926,151.758 25.754,152.299 26.598,152.124C27.442,151.949 27.986,151.12 27.807,150.274C27.586,149.202 27.473,148.105 27.473,147.005C27.473,144.205 28.195,141.395 29.564,138.97C29.989,138.217 29.723,137.267 28.97,136.842C28.22,136.417 27.267,136.683 26.842,137.433Z" style="fill:rgb(161,134,117);fill-rule:nonzero;"/>
    </g>
    <g transform="matrix(1,0,0,1,0,112.5)">
        <path d="M253.611,505.77C247.073,503.983 240.879,500.908 235.501,496.78C234.817,496.255 233.836,496.383 233.311,497.067C232.786,497.752 232.914,498.733 233.598,499.261C239.301,503.636 245.854,506.889 252.786,508.786C253.62,509.014 254.479,508.524 254.708,507.692C254.932,506.858 254.445,505.999 253.611,505.77Z" style="fill:rgb(161,134,117);fill-rule:nonzero;"/>
    </g>
    <g transform="matrix(1,0,0,1,0,112.5)">
        <path d="M273.998,503.411C269.673,502.914 265.532,500.533 262.936,497.039C262.42,496.345 261.439,496.205 260.748,496.72C260.057,497.236 259.914,498.214 260.429,498.908C263.57,503.108 268.429,505.905 273.639,506.514C274.495,506.614 275.27,506.002 275.37,505.142C275.47,504.286 274.854,503.511 273.998,503.411Z" style="fill:rgb(161,134,117);fill-rule:nonzero;"/>
    </g>
    <g transform="matrix(1,0,0,1,0,112.5)">
        <path d="M288.926,520.424C285.636,519.574 282.451,518.305 279.473,516.664L278.767,516.12L278.629,515.933L278.626,515.927L278.32,516.042L278.642,516.042L278.626,515.927L278.32,516.042L278.642,516.042L278.139,516.042L278.57,516.305L278.642,516.042L278.139,516.042L278.57,516.305C279.02,515.57 278.789,514.608 278.051,514.158C277.314,513.708 276.351,513.942 275.904,514.68C275.648,515.089 275.514,515.586 275.517,516.042C275.532,517.03 275.998,517.708 276.448,518.217C276.914,518.727 277.439,519.108 277.964,519.402C281.17,521.17 284.598,522.533 288.142,523.452C288.976,523.667 289.829,523.164 290.045,522.33C290.261,521.492 289.761,520.642 288.926,520.427L288.926,520.424Z" style="fill:rgb(161,134,117);fill-rule:nonzero;"/>
    </g>
    <g transform="matrix(1,0,0,1,0,112.5)">
        <path d="M297.739,512.139C295.223,510.661 292.707,509.183 290.192,507.705C289.445,507.27 288.489,507.517 288.051,508.261C287.614,509.005 287.864,509.964 288.607,510.402C291.123,511.88 293.642,513.355 296.157,514.833C296.901,515.27 297.858,515.024 298.295,514.277C298.733,513.533 298.483,512.577 297.739,512.139Z" style="fill:rgb(161,134,117);fill-rule:nonzero;"/>
    </g>
    <g transform="matrix(1,0,0,1,0,112.5)">
        <path d="M278.832,493.611C273.979,491.005 269.592,487.533 265.942,483.411C265.37,482.764 264.382,482.705 263.736,483.277C263.092,483.849 263.029,484.836 263.601,485.48C267.498,489.883 272.173,493.583 277.354,496.364C278.114,496.77 279.061,496.486 279.47,495.727C279.876,494.964 279.592,494.017 278.832,493.611Z" style="fill:rgb(161,134,117);fill-rule:nonzero;"/>
    </g>
    <g transform="matrix(1,0,0,1,0,112.5)">
        <path d="M245.982,489.058C240.495,487.574 235.389,484.646 231.336,480.661C230.72,480.058 229.729,480.067 229.123,480.683C228.52,481.299 228.529,482.289 229.145,482.892C233.589,487.255 239.154,490.445 245.164,492.077C245.998,492.302 246.854,491.808 247.083,490.977C247.307,490.142 246.817,489.286 245.982,489.061L245.982,489.058Z" style="fill:rgb(161,134,117);fill-rule:nonzero;"/>
    </g>
    <g transform="matrix(1,0,0,1,0,112.5)">
        <path d="M217.839,495.205C214.489,494.352 211.261,493.027 208.279,491.277C207.536,490.839 206.579,491.089 206.142,491.833C205.704,492.577 205.954,493.536 206.698,493.974C209.933,495.87 213.432,497.308 217.067,498.233C217.904,498.446 218.754,497.942 218.967,497.105C219.179,496.267 218.673,495.417 217.839,495.205Z" style="fill:rgb(161,134,117);fill-rule:nonzero;"/>
    </g>
    <g transform="matrix(1,0,0,1,0,112.5)">
        <path d="M312.026,482.474C307.292,482.308 302.598,480.399 299.092,477.214C298.454,476.633 297.464,476.68 296.886,477.32C296.304,477.958 296.354,478.949 296.992,479.527C301.064,483.217 306.423,485.399 311.917,485.595C312.779,485.627 313.501,484.955 313.532,484.092C313.564,483.23 312.889,482.505 312.026,482.474Z" style="fill:rgb(161,134,117);fill-rule:nonzero;"/>
    </g>
    <g transform="matrix(1,0,0,1,0,112.5)">
        <path d="M405.579,528.855C404.411,529.152 403.201,529.299 401.986,529.299C398.948,529.302 395.892,528.377 393.417,526.655C392.707,526.161 391.736,526.339 391.242,527.049C390.751,527.755 390.926,528.73 391.636,529.221C394.667,531.324 398.32,532.424 401.986,532.424C403.451,532.424 404.92,532.249 406.348,531.883C407.186,531.67 407.692,530.82 407.479,529.986C407.267,529.149 406.417,528.642 405.579,528.855Z" style="fill:rgb(161,134,117);fill-rule:nonzero;"/>
    </g>
    <g transform="matrix(1,0,0,1,0,112.5)">
        <path d="M404.426,518.199C401.548,517.461 398.673,516.721 395.798,515.98C394.961,515.764 394.111,516.27 393.895,517.105C393.679,517.942 394.182,518.792 395.02,519.008C397.895,519.745 400.77,520.486 403.648,521.227C404.482,521.439 405.336,520.936 405.548,520.102C405.764,519.264 405.261,518.414 404.426,518.199Z" style="fill:rgb(161,134,117);fill-rule:nonzero;"/>
    </g>
</svg>
