<?xml version="1.0" encoding="UTF-8" standalone="no"?>
<!DOCTYPE svg PUBLIC "-//W3C//DTD SVG 1.1//EN" "http://www.w3.org/Graphics/SVG/1.1/DTD/svg11.dtd">
<svg width="100%" height="100%" viewBox="0 0 313 313" version="1.1" xmlns="http://www.w3.org/2000/svg" xmlns:xlink="http://www.w3.org/1999/xlink" xml:space="preserve" xmlns:serif="http://www.serif.com/" style="fill-rule:evenodd;clip-rule:evenodd;stroke-linejoin:round;stroke-miterlimit:1.41421;">
    <g transform="matrix(1,0,0,1,0,8)">
        <path d="M282.429,38.219C282.429,41.925 279.429,44.928 275.723,44.928C272.023,44.928 269.02,41.925 269.02,38.219C269.02,34.516 272.023,31.516 275.723,31.516C279.429,31.516 282.429,34.516 282.429,38.219Z" style="fill:rgb(73,43,38);fill-rule:nonzero;"/>
    </g>
    <g transform="matrix(1,0,0,1,0,8)">
        <path d="M274.438,44.131C271.842,44.131 269.742,42.025 269.742,39.437C269.742,36.844 271.851,34.744 274.438,34.744C277.026,34.744 279.126,36.844 279.126,39.437C279.126,42.025 277.038,44.131 274.438,44.131ZM245.107,287.981C237.076,289.216 226.645,286.322 219.61,284.256C216.688,283.394 213.923,282.597 212.817,282.597L212.06,282.703L211.323,282.241C201.273,274.969 195.576,263.156 194.357,247.153L194.213,245.216L196.142,245.112C208.888,244.409 216.654,232.794 224.148,221.562C229.835,213.044 235.201,205.028 242.62,201.481L243.248,201.309C276.826,197.866 295.67,169.978 300.842,116.078C302.376,100.159 297.67,90.719 292.688,80.709C290.388,76.059 287.988,71.266 286.104,65.653L285.479,63.784L287.36,63.209C289.37,62.619 291.601,61.162 293.948,59.637C298.054,57 302.676,53.988 308.204,53.988C309.742,53.988 311.251,54.222 312.77,54.694C311.773,49.884 307.67,46.291 303.663,42.784C300.242,39.787 297.013,36.962 295.57,33.394L295.126,32.262L295.967,31.369C297.382,29.834 299.407,17.781 299.498,12.091C298.326,12.222 295.679,13.828 293.907,14.894C291.97,16.078 290.713,16.803 289.679,17.031L286.188,17.8L287.482,14.475C288.223,12.603 287.448,5.416 285.732,0C283.813,0.787 283.345,3.719 283.126,8.991C282.998,12.369 282.892,15.041 281.298,16.403L279.785,17.691L278.807,16.431L277.717,16.453C274.648,16.453 270.504,15.137 265.648,4.853L265.592,4.741C265.482,8.491 265.948,15.478 266.888,23.016L267.123,24.859L265.292,25.137C247.848,27.797 237.426,39.706 227.42,52.712C224.345,56.722 221.648,63.603 218.798,70.897C211.842,88.659 203.182,110.772 182.101,110.772C180.476,110.984 178.56,111.106 176.629,111.106C150.288,111.106 123.713,89.081 104.317,72.987C99.598,69.081 95.145,65.387 91.323,62.537L90.907,62.119C89.517,60.147 87.992,57.753 86.363,55.166C79.01,43.603 68.935,27.562 56.323,29.209C53.204,29.609 50.995,31.775 48.432,34.269C45.676,36.962 42.548,40.022 37.692,41.297C22.798,44.925 -0.562,53.916 0.01,62.606C0.601,71.522 33.867,84.566 54.701,90.681L53.642,94.359C53.448,94.287 33.804,88.847 23.72,88.847C20.142,88.847 19.417,89.55 19.395,89.591C19.395,89.591 19.385,91.053 24.063,95.066C26.401,97.053 33.685,99.813 41.404,102.716C53.754,107.372 67.729,112.634 72.385,118.584L73.123,119.528L72.692,120.872C72.476,121.328 71.898,122.1 70.482,122.1C68.701,122.1 64.485,120.931 57.185,118.887C48.67,116.494 38.076,113.509 33.582,113.509C38.348,120.278 57.382,135.972 64.679,141.734L65.117,142.212L69.201,148.766L68.332,149.825C65.679,153.078 79.563,170.119 84.279,174.128L91.792,180.544L82.432,177.391L82.167,177.316C82.16,177.741 82.195,178.334 82.229,178.747C82.267,179.225 82.288,179.694 82.288,180.153C87.373,184.678 89.51,189.65 91.579,194.459C93.023,197.812 94.367,200.994 96.698,204.119C102.498,211.912 113.123,214.994 124.36,218.253C130.604,220.075 137.148,221.984 143.21,224.85L143.348,223.694C159.648,225.453 183.651,206.187 193.045,192.119C205.292,172.978 199.557,156.938 192.929,138.363C192.07,135.972 191.201,133.541 190.357,131.075C189.97,129.947 189.576,128.8 189.204,127.644L188.998,127.003L192.642,125.844C193.873,129.709 195.207,133.431 196.51,137.087C203.201,155.794 209.523,173.462 196.235,194.206C187.01,208.053 165.432,225.784 148.092,227.481C155.942,232.194 162.513,239.131 165.732,250.569C166.41,254.044 167.598,256.8 168.842,259.737C171.013,264.8 173.26,270.016 172.538,278.212L172.485,278.869L172.01,279.372C169.735,281.706 165.104,282.619 160.163,283.559C157.463,284.097 154.376,284.678 152.02,285.534C155.329,285.247 158.879,284.512 162.342,283.825L162.479,283.809C167.16,282.837 172.02,281.872 176.395,281.872C180.56,281.872 183.873,282.737 186.532,284.556L187.945,285.503L187.157,287.012C186.417,288.428 185.463,289.494 184.542,290.544C183.923,291.216 183.354,291.841 182.895,292.537C184.676,292.378 186.31,291.594 188.179,290.703C190.423,289.628 192.982,288.4 196.16,288.262C196.551,288.262 196.954,288.244 197.335,288.244C204.198,288.244 210.882,290.859 216.785,293.159C221.692,295.084 226.329,296.881 230.235,296.903C229.673,295.881 229.326,294.781 229.41,293.85C229.526,292.609 230.376,291.191 232.435,290.962C233.945,290.656 237.292,290.675 241.242,290.806C243.154,290.875 245.188,290.947 247.21,290.947C250.27,290.947 254.229,290.806 257.176,289.916C256.71,289.759 256.226,289.575 255.72,289.422C253.642,288.719 251.26,287.941 249.91,285.794" style="fill:rgb(224,127,39);fill-rule:nonzero;"/>
    </g>
    <g transform="matrix(1,0,0,1,0,8)">
        <path d="M287.845,72.356C287.845,72.356 216.254,135.162 242.048,200.678C242.048,200.678 271.373,205.241 289.985,166.075C289.985,166.075 312.77,114.184 294.51,84.403L287.845,72.356Z" style="fill:rgb(250,227,208);fill-rule:nonzero;"/>
    </g>
    <g transform="matrix(1,0,0,1,0,8)">
        <path d="M265.292,25.137L265.648,4.853L277.717,16.453C277.717,16.453 281.963,2.569 285.732,0C285.732,0 290.604,9.8 286.188,17.8L299.498,12.091C299.498,12.091 303.138,21.012 298.107,27.862C298.107,27.862 288.276,31.466 282.445,27.862C276.613,24.25 265.292,25.137 265.292,25.137Z" style="fill:rgb(197,50,38);fill-rule:nonzero;"/>
    </g>
    <g transform="matrix(1,0,0,1,0,8)">
        <path d="M298.432,56.903L301.601,40.953C301.601,40.953 309.204,46.969 312.77,54.694C312.77,54.694 302.917,54.166 298.432,56.903Z" style="fill:rgb(197,50,38);fill-rule:nonzero;"/>
    </g>
</svg>
