<?xml version="1.0" encoding="UTF-8" standalone="no"?>
<!DOCTYPE svg PUBLIC "-//W3C//DTD SVG 1.1//EN" "http://www.w3.org/Graphics/SVG/1.1/DTD/svg11.dtd">
<svg width="100%" height="100%" viewBox="0 0 403 403" version="1.1" xmlns="http://www.w3.org/2000/svg" xmlns:xlink="http://www.w3.org/1999/xlink" xml:space="preserve" xmlns:serif="http://www.serif.com/" style="fill-rule:evenodd;clip-rule:evenodd;stroke-linejoin:round;stroke-miterlimit:1.41421;">
    <g transform="matrix(1,0,0,1,0,82)">
        <path d="M8.616,146.65L13.925,162.904L17.844,150.941C19.716,151.785 21.666,152.644 23.688,153.529L27.938,166.585L31.172,156.716C33.722,157.807 36.288,158.894 38.81,159.944L43.347,173.847L46.794,163.319C55.085,166.785 62.2,169.844 65.725,171.707L65.253,176.71L55.397,180.172L64.578,184.241L63.803,192.694L55.397,195.65L63.21,199.122L62.503,206.897L50.494,211.129L61.669,216.097L60.716,226.563C64.547,228.907 100.291,198.854 147.46,172.988L228.053,191.144C232.032,192.257 236.085,189.594 237.116,185.207L195.203,150.832C212.666,144.338 230.672,139.6 248.51,138.007C256.425,139.429 308.4,128.938 324.519,171.991L324.672,172.163L311.335,227.625C309.682,231.757 311.357,236.597 315.107,238.429L352.791,198.519L352.572,198.163L402.653,185.969C403.366,181.519 400.657,177.266 396.625,176.491L349.875,162.86L349.678,162.435C346.172,153.554 309.507,112.738 294.778,101.607C280.072,90.26 264.05,79.713 246.397,71.81C228.875,63.807 209.903,58.151 190.66,55.635C182.685,54.525 174.653,54.041 166.669,54.066L148.388,0.538C144.544,-1.078 140.241,1.069 138.794,5.322L120.1,60.06C106.257,63.582 92.903,68.429 80.244,74.385C71.938,78.432 63.994,83.113 56.775,88.979C49.541,94.8 -9.462,135.26 1.31,142.647C2.96,143.732 5.51,145.113 8.616,146.65Z" style="fill:rgb(99,102,102);fill-rule:nonzero;"/>
    </g>
    <g transform="matrix(1,0,0,1,0,82)">
        <path d="M130.822,104.525C133.303,107.444 135.425,110.55 137.203,113.85C138.975,117.138 140.375,120.644 141.407,124.341C142.366,128.066 143.047,131.957 142.703,136.382C138.816,134.207 135.957,131.475 133.419,128.597C130.916,125.685 128.8,122.579 127.041,119.275C125.297,115.979 123.878,112.472 122.86,108.772C121.882,105.038 121.197,101.157 121.538,96.744C125.413,98.922 128.247,101.641 130.822,104.525Z" style="fill:rgb(197,201,201);fill-rule:nonzero;"/>
    </g>
    <g transform="matrix(1,0,0,1,0,82)">
        <path d="M109.463,110.641C111.966,113.554 114.082,116.669 115.828,119.972C117.625,123.275 119.019,126.744 120.047,130.438C121.038,134.175 121.722,138.054 121.347,142.494C117.46,140.329 114.616,137.597 112.063,134.707C109.566,131.791 107.444,128.7 105.691,125.385C103.944,122.079 102.519,118.591 101.503,114.897C100.544,111.169 99.86,107.291 100.194,102.854C104.041,105.032 106.903,107.766 109.463,110.641Z" style="fill:rgb(197,201,201);fill-rule:nonzero;"/>
    </g>
    <g transform="matrix(1,0,0,1,0,82)">
        <path d="M36.303,113.279C39.597,113.279 42.232,115.938 42.232,119.225C42.232,122.51 39.597,125.147 36.303,125.147C33.028,125.147 30.375,122.51 30.375,119.225C30.375,115.938 33.028,113.279 36.303,113.279Z" style="fill:rgb(3,4,4);fill-rule:nonzero;"/>
    </g>
</svg>
