<?xml version="1.0" encoding="UTF-8" standalone="no"?><!DOCTYPE svg PUBLIC "-//W3C//DTD SVG 1.1//EN" "http://www.w3.org/Graphics/SVG/1.1/DTD/svg11.dtd"><svg width="100%" height="100%" viewBox="0 0 282 275" version="1.1" xmlns="http://www.w3.org/2000/svg" xmlns:xlink="http://www.w3.org/1999/xlink" xml:space="preserve" style="fill-rule:evenodd;clip-rule:evenodd;stroke-linejoin:round;stroke-miterlimit:1.41421;"><path d="M247.34,177.757c-0.938,1.084 -2.26,1.75 -3.703,1.859l-0.41,0.019c-2.803,0 -5.172,-2.197 -5.378,-5.009c-0.487,-6.516 -2.053,-10.869 -4.191,-11.641c-0.368,-0.125 -0.806,-0.181 -1.281,-0.181c-1.837,0 -6.153,0.944 -14.409,7.347c-7.291,5.637 -14.653,13.197 -19.519,18.228c-1.241,1.262 -2.281,2.334 -3.169,3.219c-10.64,10.634 -28.431,28.443 -55.2,30.393c-0.878,0.069 -1.775,0.113 -2.662,0.113c-23.46,0 -44.878,-22.228 -65.597,-43.734l-0.313,-0.313c-1.843,-1.931 -3.734,-3.884 -5.59,-5.803c-8.222,-7.388 -13.122,-8.934 -15.775,-8.934c-0.719,0 -1.363,0.112 -1.95,0.337c-4.172,1.65 -5.841,9.591 -6.094,12.253c-0.253,2.947 -2.806,5.156 -5.847,4.9c-2.969,-0.266 -5.172,-2.872 -4.925,-5.85c0.15,-1.719 1.803,-16.975 12.91,-21.353c1.821,-0.725 3.793,-1.091 5.846,-1.091c6.785,0 14.375,3.875 23.197,11.829l0.247,0.253c1.997,2.028 4.025,4.14 5.997,6.193c19.216,19.935 39.028,40.491 57.909,40.491c0.619,0 1.244,-0.025 1.86,-0.069c22.759,-1.668 38.781,-17.697 48.347,-27.265c0.853,-0.857 1.862,-1.894 3.034,-3.094c10.506,-10.788 28.078,-28.853 41.784,-28.853c1.729,0 3.382,0.281 4.919,0.837c6.619,2.416 10.413,9.485 11.263,21.003c0.097,1.425 -0.353,2.829 -1.3,3.916Zm-138.082,-90.775c4.547,0 8.241,3.706 8.241,8.256c0,4.55 -3.694,8.256 -8.241,8.256c-4.559,0 -8.259,-3.706 -8.259,-8.256c0,-4.553 3.7,-8.256 8.259,-8.256Zm15.819,86.175c0.516,-0.891 1.463,-1.441 2.497,-1.469c1.063,-0.009 2,0.516 2.547,1.4l0.387,0.603c1.832,2.832 5.257,8.097 3.297,12.053c-0.665,1.363 -2.187,3.029 -5.653,3.313l-0.737,0.035c-3.053,0 -4.466,-1.657 -5.025,-2.641c-2.275,-3.972 1.118,-10.619 2.687,-13.294Zm23.538,0c0.515,-0.891 1.478,-1.441 2.503,-1.469c1.031,-0.009 1.997,0.516 2.55,1.4l0.378,0.603c1.837,2.832 5.259,8.097 3.303,12.053c-0.669,1.363 -2.187,3.029 -5.65,3.313l-0.741,0.035c-3.053,0 -4.468,-1.657 -5.021,-2.641c-2.291,-3.972 1.109,-10.619 2.678,-13.294Zm22.347,-86.175c4.546,0 8.25,3.706 8.25,8.256c0,4.55 -3.704,8.256 -8.25,8.256c-4.55,0 -8.257,-3.706 -8.257,-8.256c0,-4.553 3.707,-8.256 8.257,-8.256Zm101.593,29.134c-15.884,-18.253 -36.647,-41.784 -46.662,-60.625c-21.969,-43.118 -55.156,-52.906 -72.838,-54.925c-6.643,-0.762 -17.528,-0.756 -24.172,0.025c-17.612,2.05 -50.637,11.9 -72.6,54.997c-10.003,18.828 -30.756,38.453 -47.075,60.6c-9.131,11.981 -24.703,45.31 30.604,94.147c7.909,7.456 31.706,28.119 46.221,40.835c5.032,4.403 13.444,11.228 19.057,14.865c8.503,5.522 16.859,8.81 37.822,8.55c21.715,-0.55 38.637,-11.375 43.731,-15.497c9.915,-8.334 45.306,-39.425 55.312,-48.834c55.313,-48.841 39.232,-84.741 30.6,-94.138Z" style="fill:#809c3d;fill-rule:nonzero;"/></svg>