<?xml version="1.0" encoding="UTF-8" standalone="no"?><!DOCTYPE svg PUBLIC "-//W3C//DTD SVG 1.1//EN" "http://www.w3.org/Graphics/SVG/1.1/DTD/svg11.dtd"><svg width="100%" height="100%" viewBox="0 0 225 277" version="1.1" xmlns="http://www.w3.org/2000/svg" xmlns:xlink="http://www.w3.org/1999/xlink" xml:space="preserve" style="fill-rule:evenodd;clip-rule:evenodd;stroke-linejoin:round;stroke-miterlimit:1.41421;"><path d="M159.057,44.094c2.587,2.806 4.987,5.747 7.259,8.778c3.76,5.044 11.169,4.453 16.016,-2.484c8,-11.435 16.166,-28.01 10.972,-43.319c-2.716,-8.012 -13.86,-8.956 -20.813,-4.131c-6.769,4.694 -14.709,10.25 -21.415,14.94c-6.922,4.866 -7.4,12.035 -1.729,16.857c3.394,2.872 6.629,5.984 9.71,9.359Z" style="fill:#878280;fill-rule:nonzero;"/><path d="M137.11,211.369c0,17.644 -11.022,31.944 -24.628,31.944c-13.6,0 -24.622,-14.3 -24.622,-31.944c0,-17.644 11.022,-31.95 24.622,-31.95c13.606,0 24.628,14.306 24.628,31.95Z" style="fill:#392e2a;fill-rule:nonzero;"/><path d="M140.113,173.991c0,6.812 -12.475,12.337 -27.869,12.337c-15.393,0 -27.868,-5.525 -27.868,-12.337c0,-6.813 12.475,-12.334 27.868,-12.334c15.394,0 27.869,5.521 27.869,12.334Z" style="fill:#f2675e;fill-rule:nonzero;"/><path d="M163.019,38.406c1.666,1.813 3.21,3.707 4.675,5.66c2.422,3.25 7.204,2.872 10.322,-1.6c5.157,-7.372 10.419,-18.053 7.072,-27.922c-1.744,-5.166 -8.934,-5.775 -13.416,-2.662c-4.362,3.021 -9.478,6.606 -13.799,9.631c-4.46,3.134 -4.772,7.756 -1.116,10.862c2.184,1.85 4.272,3.86 6.262,6.031Z" style="fill:#392e2a;fill-rule:nonzero;"/><path d="M65.435,44.094c-2.581,2.806 -4.984,5.747 -7.256,8.778c-3.76,5.044 -11.163,4.453 -16.01,-2.484c-8.003,-11.435 -16.162,-28.01 -10.968,-43.319c2.709,-8.012 13.856,-8.956 20.8,-4.131c6.775,4.694 14.712,10.25 21.412,14.94c6.922,4.866 7.403,12.035 1.728,16.857c-3.387,2.872 -6.628,5.984 -9.706,9.359Z" style="fill:#878280;fill-rule:nonzero;"/><path d="M61.476,38.406c-1.663,1.813 -3.213,3.707 -4.675,5.66c-2.425,3.25 -7.197,2.872 -10.322,-1.6c-5.157,-7.372 -10.413,-18.053 -7.069,-27.922c1.747,-5.166 8.931,-5.775 13.409,-2.662c4.366,3.021 9.478,6.606 13.8,9.631c4.463,3.134 4.775,7.756 1.119,10.862c-2.187,1.85 -4.275,3.86 -6.262,6.031Z" style="fill:#392e2a;fill-rule:nonzero;"/><path d="M140.96,129.975c-3.631,0 -6.591,-2.956 -6.591,-6.587c0,-3.635 2.96,-6.588 6.591,-6.588c3.625,0 6.587,2.953 6.587,6.588c0,3.631 -2.956,6.587 -6.587,6.587Zm-21.256,79.697c0.931,0.228 1.89,0.356 2.884,0.356c0.881,-0.012 1.753,-0.106 2.585,-0.3c1.403,-0.315 2.453,3.575 2.453,9.032l0,1.097c0,5.449 -2.95,9.878 -6.6,9.878c-3.638,0 -6.597,-3.038 -6.597,-6.791l0,-6.781c0,-1.081 -0.878,-1.96 -1.96,-1.96c-1.075,0 -1.959,0.879 -1.959,1.96c0,0 0,3.037 0,6.781c0,3.753 -2.941,6.791 -6.572,6.791c-3.644,0 -6.594,-4.429 -6.594,-9.878l0,-0.757c0,-5.456 1.063,-9.353 2.46,-9.031c0.831,0.191 1.697,0.297 2.587,0.297c1.081,0 2.119,-0.141 3.103,-0.419c1.685,-0.45 2.885,-5.634 2.885,-11.091l0,-15.434l0,-0.203c0,-0.106 -0.231,0.012 -0.519,0.284c-0.303,0.275 -4.35,-1.853 -8.287,-5.628c-2.894,-2.765 -5.476,-6.069 -5.476,-9.043c0,-6.729 37.507,-7.297 37.507,0c0,3.215 -2.619,6.543 -5.547,9.262c-4.006,3.703 -8.163,5.684 -8.484,5.45c-0.307,-0.238 -0.563,3.997 -0.563,9.444l0,5.756c-0.013,5.447 1.134,10.544 2.694,10.928Zm-35.694,-79.697c-3.631,0 -6.588,-2.956 -6.588,-6.587c0,-3.635 2.957,-6.588 6.588,-6.588c3.631,0 6.591,2.953 6.591,6.588c0,3.631 -2.96,6.587 -6.591,6.587Zm137.956,52.782c2.816,1.39 3.991,-1.613 2.044,-6.7c-7.822,-20.494 -23.022,-33.975 -32.512,-40.8c-4.432,-3.194 -8,-9.725 -7.979,-15.172c0.088,-26.607 -5.79,-97.847 -71.031,-97.847c-65.241,0 -71.125,71.24 -71.037,97.847c0.015,5.447 -3.56,11.984 -7.979,15.162c-9.49,6.835 -24.696,20.31 -32.515,40.81c-1.941,5.087 -0.763,8.093 2.034,6.7c2.8,-1.379 3.656,1.843 2.172,7.096c-1.672,5.941 -3.459,13.694 -3.684,20.216c-0.172,5.456 2.909,6.822 5.118,3.75c2.216,-3.088 2.491,-1.187 2.179,4.253c-0.322,5.703 0.806,13.391 6.55,21.388c3.175,4.428 6.256,5.522 6.89,3.443c0.635,-2.084 2.753,0.81 5.872,5.288c7.641,10.947 28.541,28.162 84.388,28.162c55.853,0 76.746,-17.215 84.387,-28.162c3.125,-4.478 5.238,-7.372 5.872,-5.288c0.641,2.079 3.722,0.972 6.897,-3.447c5.744,-8 6.872,-15.681 6.544,-21.387c-0.313,-5.456 -0.044,-7.338 2.165,-4.259c2.21,3.081 5.31,1.715 5.128,-3.741c-0.215,-6.512 -2.009,-14.275 -3.681,-20.213c-1.465,-5.256 -0.609,-8.478 2.178,-7.099Z" style="fill:#878280;fill-rule:nonzero;"/><path d="M140.113,111.381c4.975,0 9.01,4.035 9.01,9.01c0,4.978 -4.035,9.012 -9.01,9.012c-4.981,0 -9.009,-4.034 -9.009,-9.012c0,-4.975 4.028,-9.01 9.009,-9.01Z" style="fill:#fff;fill-rule:nonzero;"/><path d="M140.113,119.95c2.947,0 5.341,2.391 5.341,5.341c0,2.95 -2.394,5.341 -5.341,5.341c-2.95,0 -5.341,-2.391 -5.341,-5.341c0,-2.95 2.391,-5.341 5.341,-5.341Z" style="fill:#392e2a;fill-rule:nonzero;"/><path d="M84.376,111.381c4.981,0 9.015,4.035 9.015,9.01c0,4.978 -4.034,9.012 -9.015,9.012c-4.975,0 -9.01,-4.034 -9.01,-9.012c0,-4.975 4.035,-9.01 9.01,-9.01Z" style="fill:#fff;fill-rule:nonzero;"/><path d="M84.376,119.95c2.947,0 5.34,2.391 5.34,5.341c0,2.95 -2.393,5.341 -5.34,5.341c-2.95,0 -5.341,-2.391 -5.341,-5.341c0,-2.95 2.391,-5.341 5.341,-5.341Z" style="fill:#392e2a;fill-rule:nonzero;"/><path d="M178.876,157.06c0,10.168 -8.247,18.406 -18.41,18.406c-10.165,0 -18.406,-8.238 -18.406,-18.406c0,-10.169 8.241,-18.41 18.406,-18.41c10.163,0 18.41,8.241 18.41,18.41Z" style="fill:#e1b7a6;fill-rule:nonzero;"/><path d="M84.376,157.06c0,10.168 -8.241,18.406 -18.41,18.406c-10.162,0 -18.406,-8.238 -18.406,-18.406c0,-10.169 8.244,-18.41 18.406,-18.41c10.169,0 18.41,8.241 18.41,18.41Z" style="fill:#e1b7a6;fill-rule:nonzero;"/></svg>