<?xml version="1.0" encoding="UTF-8" standalone="no"?><!DOCTYPE svg PUBLIC "-//W3C//DTD SVG 1.1//EN" "http://www.w3.org/Graphics/SVG/1.1/DTD/svg11.dtd"><svg width="100%" height="100%" viewBox="0 0 278 286" version="1.1" xmlns="http://www.w3.org/2000/svg" xmlns:xlink="http://www.w3.org/1999/xlink" xml:space="preserve" style="fill-rule:evenodd;clip-rule:evenodd;stroke-linejoin:round;stroke-miterlimit:1.41421;"><path d="M252.792,104.449c20.341,-30.616 27.991,-65.2 23.285,-103.635c-48.975,-5.222 -80.132,14.753 -95.066,57.663l0.078,0.118l-84.753,0l0.078,-0.118c-14.944,-42.916 -46.094,-62.885 -95.075,-57.66c-4.734,38.728 3.063,73.532 23.75,104.316c-1.459,5.331 -2.253,10.931 -2.253,16.716c0,38.684 0.306,45.937 6.878,79.068c21.516,108.738 190.581,117.678 218.65,0c8.016,-33.609 6.869,-40.662 6.869,-79.068c0,-6.035 -0.847,-11.869 -2.441,-17.4Z" style="fill:#999;fill-rule:nonzero;"/><path d="M192.636,93.039c8.166,0 14.781,6.616 14.781,14.781c0,8.163 -6.615,14.782 -14.781,14.782c-8.163,0 -14.781,-6.619 -14.781,-14.782c0,-8.162 6.618,-14.781 14.781,-14.781Z" style="fill:#fff;fill-rule:nonzero;"/><path d="M192.636,103.608c5.778,0 10.456,4.678 10.456,10.453c0,5.775 -4.678,10.459 -10.456,10.459c-5.772,0 -10.456,-4.684 -10.456,-10.459c0,-5.775 4.684,-10.453 10.456,-10.453Z" style="fill:#392e2a;fill-rule:nonzero;"/><path d="M88.242,93.039c8.169,0 14.785,6.616 14.785,14.781c0,8.163 -6.616,14.782 -14.785,14.782c-8.159,0 -14.778,-6.619 -14.778,-14.782c0,-8.162 6.619,-14.781 14.778,-14.781Z" style="fill:#fff;fill-rule:nonzero;"/><path d="M29.277,82.98c-18.366,-22.225 -24.41,-47.134 -18.563,-74.647c27.606,-0.519 44.041,12.175 50.278,36.872l-31.715,37.775Z" style="fill:#dbdada;fill-rule:nonzero;"/><path d="M229.489,179.349l-71.406,0l-0.016,0.115l68.61,19.788l-1.429,4.956l-68.428,-19.731c-2.437,7.522 -6.843,12.131 -11.818,14.025l0,38.756l20.968,0c-3.062,32.337 -55.581,26.206 -52.6,0l20.628,0l0,-38.813c-5.162,-1.95 -9.853,-6.628 -12.537,-13.815l-67.872,19.578l-1.428,-4.956l67.866,-19.572l-0.069,-0.331l-70.61,0l0,-5.157l69.891,0l-0.041,-0.568l-67.034,-19.332l1.425,-4.959l65.672,18.937c1.012,-6.296 6.503,-11.146 13.078,-11.146l13.241,0c6.659,0 12.209,4.981 13.115,11.406l66.553,-19.197l1.432,4.959l-67.96,19.594l-0.018,0.306l70.787,0l0,5.157Z" style="fill:#ab4647;fill-rule:nonzero;"/><path d="M248.142,82.974l-31.712,-37.769c6.243,-24.7 22.668,-37.391 50.287,-36.872c5.835,27.513 -0.209,52.422 -18.575,74.641Z" style="fill:#dbdada;fill-rule:nonzero;"/><path d="M88.242,103.608c5.781,0 10.46,4.678 10.46,10.453c0,5.775 -4.679,10.459 -10.46,10.459c-5.769,0 -10.453,-4.684 -10.453,-10.459c0,-5.775 4.684,-10.453 10.453,-10.453Z" style="fill:#392e2a;fill-rule:nonzero;"/></svg>