<?xml version="1.0" encoding="UTF-8" standalone="no"?>
<!DOCTYPE svg PUBLIC "-//W3C//DTD SVG 1.1//EN" "http://www.w3.org/Graphics/SVG/1.1/DTD/svg11.dtd">
<svg width="100%" height="100%" viewBox="0 0 126 126" version="1.1" xmlns="http://www.w3.org/2000/svg" xmlns:xlink="http://www.w3.org/1999/xlink" xml:space="preserve" xmlns:serif="http://www.serif.com/" style="fill-rule:evenodd;clip-rule:evenodd;stroke-linejoin:round;stroke-miterlimit:1.41421;">
    <g transform="matrix(1,0,0,1,0,18)">
        <path d="M38.596,28.74C38.596,28.74 42.609,49.197 37.611,65.072C32.613,80.947 33.582,79.918 33.024,79.918L21.849,79.918C21.849,79.918 21.6,75.554 28.204,74.92L28.204,51.325L38.596,28.74Z" style="fill:rgb(156,154,164);fill-rule:nonzero;"/>
    </g>
    <g transform="matrix(1,0,0,1,0,18)">
        <path d="M82.582,32.634C82.582,32.634 86.596,53.09 81.598,68.965C76.6,84.84 77.569,83.811 77.011,83.811L65.836,83.811C65.836,83.811 65.587,79.447 72.19,78.813L72.19,62.791L82.582,32.634Z" style="fill:rgb(156,154,164);fill-rule:nonzero;"/>
    </g>
    <g transform="matrix(1,0,0,1,0,18)">
        <path d="M118.478,48.127C118.478,48.127 122.336,58.916 115.097,60.475C105.542,62.533 105.413,49.154 101.573,38.255C97.734,27.356 81.288,28.725 80.847,28.872C80.847,28.872 79.524,34.898 86.692,41.462C93.86,48.025 86.876,55.377 92.018,66.754C97.161,78.13 117.302,83.406 123.727,68.035C130.151,52.664 118.478,48.127 118.478,48.127" style="fill:rgb(156,154,164);fill-rule:nonzero;"/>
    </g>
    <g transform="matrix(1,0,0,1,0,18)">
        <path d="M118.478,48.127C118.478,48.127 122.336,58.916 115.097,60.475C112.017,61.138 109.919,60.192 108.359,58.247C105.86,58.249 102.161,58.229 102.161,58.229L107.012,64.045L97.016,66.754L103.204,70.765L98.759,74.248C106.899,79.469 119.009,79.323 123.727,68.035C130.151,52.664 118.478,48.127 118.478,48.127" style="fill:rgb(235,237,236);fill-rule:nonzero;"/>
    </g>
    <g transform="matrix(1,0,0,1,0,18)">
        <path d="M91.431,38.255C89.667,25.59 75.583,25.363 75.583,25.363L75.584,25.366C67.761,24.644 59.829,27.661 52.137,27.661C43.317,27.661 31.618,21.615 31.618,21.615C31.618,21.615 10.685,22.553 22.591,43.564C23.24,44.709 23.934,45.847 24.672,46.963L24.671,46.963C24.671,46.963 27.672,52.978 29.657,57.278C31.641,61.577 32.025,69.832 32.025,69.832L32.025,84.435C25.422,85.069 25.671,89.433 25.671,89.433L36.846,89.433C37.404,89.433 36.435,90.462 41.433,74.587C43.098,69.296 43.76,63.499 43.906,58.118C50.499,57.102 60.749,56.26 68.423,59.029C72.041,67.46 78.642,68.413 78.642,68.413L78.642,84.435C72.039,85.069 72.288,89.433 72.288,89.433L83.463,89.433C84.021,89.433 83.052,90.462 88.05,74.587C88.538,73.037 88.938,71.443 89.265,69.829L89.266,69.832C89.266,69.832 93.195,50.92 91.431,38.255" style="fill:rgb(197,197,202);fill-rule:nonzero;"/>
    </g>
    <g transform="matrix(1,0,0,1,0,18)">
        <path d="M11.738,8.39C11.738,8.39 9.525,5.836 7.182,3.616C2.847,-0.966 0.805,-0.037 0.296,0.336C-0.068,0.304 -0.076,0.301 0.161,0.449C2.75,2.06 0.772,7.525 2.489,11.26C4.012,14.572 6.393,15.745 6.393,15.745C6.393,15.745 12.155,15.175 11.738,8.39" style="fill:rgb(156,154,164);fill-rule:nonzero;"/>
    </g>
    <g transform="matrix(1,0,0,1,0,18)">
        <path d="M29.73,8.39C29.73,8.39 31.943,5.836 34.286,3.616C38.621,-0.966 40.663,-0.037 41.172,0.336C41.536,0.304 41.544,0.301 41.307,0.449C38.718,2.06 40.696,7.525 38.979,11.26C37.456,14.572 35.075,15.745 35.075,15.745C35.075,15.745 29.313,15.175 29.73,8.39" style="fill:rgb(156,154,164);fill-rule:nonzero;"/>
    </g>
    <g transform="matrix(1,0,0,1,0,18)">
        <path d="M20.675,15.745C20.675,15.745 7.811,9.541 2.257,21.049C2.257,21.049 5.291,47.569 20.675,51.103C36.059,47.569 39.094,21.049 39.094,21.049C33.539,9.541 20.675,15.745 20.675,15.745" style="fill:rgb(235,237,236);fill-rule:nonzero;"/>
    </g>
    <g transform="matrix(1,0,0,1,0,18)">
        <path d="M39.094,21.048C39.085,21.134 39.108,20.961 39.094,21.048C38.024,16.095 26.468,17.802 24.477,21.974C22.632,25.851 24.411,48.578 20.625,48.578C16.874,48.578 16.726,25.239 15.65,22.731C14.375,19.761 7.763,14.803 2.258,21.048C2.092,17.047 2.207,16.954 2.876,14.84C3.239,13.692 3.934,12.781 4.589,11.808C9.674,4.302 26.012,3.05 33.989,8.835C36.136,10.383 37.676,12.45 38.231,15.036C38.666,17.071 39.014,18.144 39.094,21.048" style="fill:rgb(197,197,202);fill-rule:nonzero;"/>
    </g>
    <g transform="matrix(1,0,0,1,0,18)">
        <path d="M17.092,48.648C17.151,47.664 19.841,47.371 20.823,47.371C21.806,47.371 24.226,47.732 24.26,48.648C24.299,49.646 21.412,51.102 20.675,51.102C19.939,51.102 17.031,49.645 17.092,48.648" style="fill:rgb(61,59,55);fill-rule:nonzero;"/>
    </g>
    <g transform="matrix(1,0,0,1,0,18)">
        <path d="M12.322,25.453C12.322,26.567 11.419,27.471 10.304,27.471C9.19,27.471 8.287,26.567 8.287,25.453C8.287,24.338 9.19,23.434 10.304,23.434C11.419,23.434 12.322,24.338 12.322,25.453" style="fill:rgb(61,59,55);fill-rule:nonzero;"/>
    </g>
    <g transform="matrix(1,0,0,1,0,18)">
        <path d="M31.727,25.453C31.727,26.567 30.823,27.471 29.708,27.471C28.595,27.471 27.691,26.567 27.691,25.453C27.691,24.338 28.595,23.434 29.708,23.434C30.823,23.434 31.727,24.338 31.727,25.453" style="fill:rgb(61,59,55);fill-rule:nonzero;"/>
    </g>
    <g transform="matrix(1,0,0,1,0,18)">
        <path d="M44.576,29.804C44.576,29.804 44.709,29.744 44.908,29.699C45.107,29.655 45.373,29.614 45.639,29.617C45.904,29.614 46.17,29.653 46.369,29.698C46.568,29.743 46.701,29.804 46.701,29.804C46.701,29.804 46.568,29.864 46.369,29.91C46.17,29.955 45.904,29.994 45.639,29.992C45.373,29.994 45.107,29.953 44.908,29.909C44.709,29.864 44.576,29.804 44.576,29.804" style="fill:white;fill-rule:nonzero;"/>
    </g>
    <g transform="matrix(1,0,0,1,0,18)">
        <path d="M46.945,31.694C46.945,31.694 47.118,31.698 47.356,31.728C47.595,31.76 47.907,31.803 48.212,31.864C48.519,31.922 48.824,31.998 49.058,32.059C49.291,32.12 49.451,32.181 49.451,32.181C49.451,32.181 49.29,32.241 49.043,32.269C48.797,32.298 48.464,32.298 48.141,32.233C47.817,32.172 47.509,32.047 47.291,31.928C47.071,31.809 46.945,31.694 46.945,31.694" style="fill:white;fill-rule:nonzero;"/>
    </g>
    <g transform="matrix(1,0,0,1,0,18)">
        <path d="M52.826,29.554C52.826,29.554 52.936,29.494 53.1,29.449C53.263,29.405 53.482,29.364 53.701,29.367C53.92,29.364 54.139,29.403 54.303,29.448C54.466,29.493 54.576,29.554 54.576,29.554C54.576,29.554 54.466,29.615 54.303,29.66C54.139,29.705 53.92,29.744 53.701,29.742C53.482,29.744 53.263,29.703 53.1,29.659C52.936,29.614 52.826,29.554 52.826,29.554" style="fill:white;fill-rule:nonzero;"/>
    </g>
    <g transform="matrix(1,0,0,1,0,18)">
        <path d="M52.201,31.804C52.201,31.804 52.318,31.744 52.494,31.699C52.67,31.655 52.904,31.614 53.139,31.617C53.373,31.614 53.607,31.653 53.783,31.698C53.959,31.743 54.076,31.804 54.076,31.804C54.076,31.804 53.959,31.865 53.783,31.91C53.607,31.955 53.373,31.994 53.139,31.992C52.904,31.994 52.67,31.953 52.494,31.909C52.318,31.864 52.201,31.804 52.201,31.804" style="fill:white;fill-rule:nonzero;"/>
    </g>
    <g transform="matrix(1,0,0,1,0,18)">
        <path d="M61.467,28.845C61.467,28.845 61.569,28.74 61.739,28.624C61.909,28.51 62.142,28.374 62.391,28.278C62.639,28.178 62.901,28.116 63.104,28.084C63.307,28.053 63.453,28.06 63.453,28.06C63.453,28.06 63.351,28.165 63.182,28.281C63.012,28.396 62.778,28.531 62.529,28.627C62.282,28.726 62.018,28.787 61.816,28.82C61.613,28.852 61.467,28.845 61.467,28.845" style="fill:white;fill-rule:nonzero;"/>
    </g>
    <g transform="matrix(1,0,0,1,0,18)">
        <path d="M59.326,30.68C59.326,30.68 59.435,30.628 59.583,30.582C59.735,30.537 59.927,30.483 60.121,30.454C60.314,30.42 60.513,30.41 60.671,30.405C60.828,30.402 60.947,30.418 60.947,30.418C60.947,30.418 60.874,30.514 60.736,30.606C60.599,30.699 60.396,30.791 60.181,30.824C59.966,30.861 59.745,30.836 59.586,30.792C59.424,30.747 59.326,30.68 59.326,30.68" style="fill:white;fill-rule:nonzero;"/>
    </g>
    <g transform="matrix(1,0,0,1,0,18)">
        <path d="M67.081,27.706C67.081,27.706 67.188,27.628 67.355,27.555C67.522,27.482 67.75,27.404 67.983,27.368C68.216,27.328 68.455,27.328 68.638,27.343C68.82,27.359 68.946,27.399 68.946,27.399C68.946,27.399 68.839,27.478 68.672,27.551C68.504,27.625 68.278,27.701 68.044,27.738C67.811,27.778 67.571,27.777 67.389,27.762C67.207,27.746 67.081,27.706 67.081,27.706" style="fill:white;fill-rule:nonzero;"/>
    </g>
    <g transform="matrix(1,0,0,1,0,18)">
        <path d="M60.701,33.055C60.701,33.055 60.779,32.972 60.908,32.891C61.036,32.811 61.212,32.722 61.4,32.674C61.586,32.622 61.782,32.61 61.934,32.615C62.086,32.621 62.195,32.655 62.195,32.655C62.195,32.655 62.117,32.738 61.988,32.819C61.86,32.9 61.684,32.988 61.496,33.036C61.31,33.088 61.113,33.099 60.962,33.094C60.81,33.088 60.701,33.055 60.701,33.055" style="fill:white;fill-rule:nonzero;"/>
    </g>
    <g transform="matrix(1,0,0,1,0,18)">
        <path d="M53.576,35.179C53.576,35.179 53.709,35.119 53.908,35.074C54.107,35.03 54.373,34.989 54.639,34.992C54.904,34.989 55.17,35.028 55.369,35.073C55.568,35.118 55.701,35.179 55.701,35.179C55.701,35.179 55.568,35.24 55.369,35.285C55.17,35.33 54.904,35.369 54.639,35.367C54.373,35.369 54.107,35.328 53.908,35.284C53.709,35.239 53.576,35.179 53.576,35.179" style="fill:white;fill-rule:nonzero;"/>
    </g>
    <g transform="matrix(1,0,0,1,0,18)">
        <path d="M68.201,31.182C68.201,31.182 68.363,31.117 68.592,31.045C68.825,30.976 69.126,30.882 69.428,30.802C69.73,30.719 70.037,30.648 70.274,30.592C70.509,30.538 70.68,30.514 70.68,30.514C70.68,30.514 70.566,30.644 70.358,30.785C70.151,30.927 69.849,31.079 69.526,31.165C69.203,31.253 68.866,31.271 68.616,31.254C68.364,31.237 68.201,31.182 68.201,31.182" style="fill:white;fill-rule:nonzero;"/>
    </g>
    <g transform="matrix(1,0,0,1,0,18)">
        <path d="M64.701,35.184C64.701,35.184 64.894,35.133 65.165,35.072C65.439,35.013 65.793,34.922 66.143,34.832C66.493,34.736 66.845,34.637 67.112,34.553C67.379,34.469 67.57,34.418 67.57,34.418C67.57,34.418 67.444,34.572 67.205,34.742C66.969,34.912 66.619,35.095 66.24,35.193C65.863,35.297 65.468,35.311 65.177,35.282C64.885,35.253 64.701,35.184 64.701,35.184" style="fill:white;fill-rule:nonzero;"/>
    </g>
    <g transform="matrix(1,0,0,1,0,18)">
        <path d="M73.951,28.685C73.955,28.671 74.292,28.492 74.619,28.465C74.944,28.417 75.314,28.517 75.321,28.53C75.321,28.53 75.252,28.61 75.131,28.68C75.011,28.752 74.84,28.82 74.662,28.838C74.484,28.86 74.302,28.83 74.169,28.789C74.035,28.747 73.951,28.685 73.951,28.685" style="fill:white;fill-rule:nonzero;"/>
    </g>
    <g transform="matrix(1,0,0,1,0,18)">
        <path d="M77.704,28.516C77.704,28.516 77.905,28.468 78.208,28.453C78.511,28.437 78.915,28.45 79.311,28.523C79.707,28.592 80.091,28.719 80.369,28.839C80.648,28.957 80.821,29.073 80.821,29.073C80.821,29.073 80.614,29.073 80.317,29.043C80.02,29.011 79.63,28.963 79.245,28.892C78.859,28.825 78.477,28.734 78.187,28.662C77.899,28.587 77.704,28.516 77.704,28.516" style="fill:white;fill-rule:nonzero;"/>
    </g>
    <g transform="matrix(1,0,0,1,0,18)">
        <path d="M76.951,31.429C76.951,31.415 77.232,31.229 77.514,31.242C77.795,31.228 78.076,31.415 78.076,31.429C78.076,31.444 77.795,31.63 77.514,31.617C77.232,31.629 76.951,31.443 76.951,31.429" style="fill:white;fill-rule:nonzero;"/>
    </g>
    <g transform="matrix(1,0,0,1,0,18)">
        <path d="M13.582,11.319C13.581,11.326 13.613,11.257 13.728,11.266C13.831,11.275 13.975,11.368 14.077,11.478C14.309,11.693 14.59,12.013 14.806,12.377C15.027,12.738 15.18,13.135 15.262,13.441C15.345,13.748 15.356,13.963 15.356,13.963C15.356,13.963 15.231,13.788 15.069,13.525C14.909,13.265 14.698,12.918 14.485,12.571C14.277,12.221 14.069,11.872 13.913,11.61C13.831,11.473 13.783,11.377 13.707,11.335C13.64,11.293 13.582,11.319 13.582,11.319" style="fill:white;fill-rule:nonzero;"/>
    </g>
    <g transform="matrix(1,0,0,1,0,18)">
        <path d="M17.578,17.304C17.578,17.304 17.666,17.472 17.743,17.738C17.819,18.003 17.891,18.364 17.903,18.73C17.92,19.096 17.878,19.462 17.822,19.732C17.767,20.003 17.692,20.179 17.692,20.179C17.692,20.179 17.646,19.994 17.611,19.725C17.578,19.455 17.541,19.1 17.529,18.745C17.512,18.391 17.522,18.034 17.534,17.762C17.548,17.492 17.578,17.304 17.578,17.304" style="fill:white;fill-rule:nonzero;"/>
    </g>
    <g transform="matrix(1,0,0,1,0,18)">
        <path d="M18.576,22.304C18.576,22.304 18.636,22.405 18.681,22.558C18.725,22.711 18.766,22.913 18.764,23.116C18.766,23.32 18.727,23.523 18.682,23.675C18.637,23.827 18.576,23.929 18.576,23.929C18.576,23.929 18.516,23.827 18.47,23.675C18.425,23.523 18.386,23.32 18.389,23.116C18.386,22.913 18.427,22.711 18.471,22.558C18.516,22.405 18.576,22.304 18.576,22.304" style="fill:white;fill-rule:nonzero;"/>
    </g>
    <g transform="matrix(1,0,0,1,0,18)">
        <path d="M21.211,19.179C21.211,19.179 21.275,19.287 21.314,19.459C21.353,19.631 21.373,19.865 21.332,20.093C21.296,20.321 21.203,20.537 21.11,20.686C21.017,20.836 20.921,20.918 20.921,20.918C20.921,20.918 20.904,20.793 20.908,20.625C20.913,20.456 20.926,20.24 20.963,20.032C20.996,19.822 21.054,19.613 21.104,19.452C21.155,19.293 21.211,19.179 21.211,19.179" style="fill:white;fill-rule:nonzero;"/>
    </g>
    <g transform="matrix(1,0,0,1,0,18)">
        <path d="M21.726,13.938C21.726,13.938 21.734,14.082 21.74,14.266C21.742,14.454 21.758,14.692 21.772,14.926C21.791,15.159 21.807,15.397 21.83,15.584C21.851,15.77 21.86,15.911 21.86,15.911C21.86,15.911 21.745,15.829 21.632,15.657C21.519,15.487 21.415,15.226 21.398,14.952C21.377,14.677 21.446,14.404 21.535,14.22C21.623,14.033 21.726,13.938 21.726,13.938" style="fill:white;fill-rule:nonzero;"/>
    </g>
    <g transform="matrix(1,0,0,1,0,18)">
        <path d="M24.372,17.551C24.372,17.551 24.375,17.6 24.371,17.683C24.365,17.759 24.348,17.899 24.287,18.031C24.18,18.311 23.941,18.626 23.691,18.891C23.445,19.161 23.195,19.402 23.09,19.631C23.037,19.745 22.995,19.851 22.988,19.931C22.977,20.009 22.966,20.06 22.966,20.06C22.966,20.06 22.944,20.018 22.915,19.936C22.892,19.856 22.858,19.724 22.887,19.572C22.912,19.421 22.968,19.243 23.069,19.087C23.163,18.923 23.291,18.779 23.415,18.638C23.669,18.362 23.938,18.131 24.105,17.924C24.189,17.819 24.261,17.741 24.301,17.663C24.343,17.591 24.372,17.551 24.372,17.551" style="fill:white;fill-rule:nonzero;"/>
    </g>
    <g transform="matrix(1,0,0,1,0,18)">
        <path d="M21.076,25.804C21.076,25.804 21.136,25.944 21.181,26.156C21.225,26.367 21.266,26.648 21.264,26.929C21.266,27.21 21.226,27.492 21.182,27.702C21.136,27.914 21.076,28.054 21.076,28.054C21.076,28.054 21.015,27.914 20.97,27.702C20.925,27.492 20.886,27.21 20.889,26.929C20.886,26.648 20.927,26.367 20.971,26.156C21.016,25.944 21.076,25.804 21.076,25.804" style="fill:white;fill-rule:nonzero;"/>
    </g>
    <g transform="matrix(1,0,0,1,0,18)">
        <path d="M19.689,31.806C19.689,31.806 19.769,31.921 19.827,32.116C19.886,32.308 19.923,32.578 19.89,32.843C19.862,33.109 19.763,33.363 19.661,33.536C19.56,33.711 19.455,33.805 19.455,33.805C19.455,33.805 19.448,33.665 19.46,33.475C19.472,33.283 19.487,33.039 19.518,32.8C19.544,32.559 19.586,32.317 19.617,32.129C19.651,31.943 19.689,31.806 19.689,31.806" style="fill:white;fill-rule:nonzero;"/>
    </g>
    <g transform="matrix(1,0,0,1,0,18)">
        <path d="M19.984,36.942C19.984,36.942 20.006,37.05 19.997,37.194C19.987,37.338 19.956,37.522 19.886,37.691C19.82,37.861 19.715,38.016 19.623,38.127C19.53,38.238 19.44,38.3 19.44,38.3C19.44,38.3 19.418,38.193 19.427,38.049C19.436,37.905 19.468,37.72 19.538,37.551C19.604,37.381 19.709,37.226 19.802,37.116C19.895,37.005 19.984,36.942 19.984,36.942" style="fill:white;fill-rule:nonzero;"/>
    </g>
</svg>
