<?xml version="1.0" encoding="UTF-8" standalone="no"?>
<!DOCTYPE svg PUBLIC "-//W3C//DTD SVG 1.1//EN" "http://www.w3.org/Graphics/SVG/1.1/DTD/svg11.dtd">
<svg width="100%" height="100%" viewBox="0 0 340 340" version="1.1" xmlns="http://www.w3.org/2000/svg" xmlns:xlink="http://www.w3.org/1999/xlink" xml:space="preserve" xmlns:serif="http://www.serif.com/" style="fill-rule:evenodd;clip-rule:evenodd;stroke-linejoin:round;stroke-miterlimit:1.41421;">
    <g transform="matrix(1,0,0,1,0,14)">
        <path d="M153.907,219.091C155.347,219.091 156.51,220.263 156.51,221.706C156.51,223.15 155.347,224.313 153.907,224.313C152.463,224.313 151.288,223.15 151.288,221.706C151.288,220.263 152.463,219.091 153.907,219.091Z" style="fill:rgb(191,231,243);fill-rule:nonzero;"/>
    </g>
    <g transform="matrix(1,0,0,1,0,14)">
        <path d="M168.894,180.806C170.338,180.806 171.513,181.969 171.513,183.413C171.513,184.856 170.338,186.031 168.894,186.031C167.454,186.031 166.291,184.856 166.291,183.413C166.291,181.969 167.454,180.806 168.894,180.806Z" style="fill:rgb(191,231,243);fill-rule:nonzero;"/>
    </g>
    <g transform="matrix(1,0,0,1,0,14)">
        <path d="M130.366,218.906C131.819,218.906 132.991,220.091 132.991,221.534C132.991,222.988 131.819,224.163 130.366,224.163C128.922,224.163 127.738,222.988 127.738,221.534C127.738,220.091 128.922,218.906 130.366,218.906Z" style="fill:rgb(191,231,243);fill-rule:nonzero;"/>
    </g>
    <g transform="matrix(1,0,0,1,0,14)">
        <path d="M130.366,195.063C133.779,195.063 136.547,197.844 136.547,201.247C136.547,204.65 133.779,207.425 130.366,207.425C126.963,207.425 124.194,204.65 124.194,201.247C124.194,197.844 126.963,195.063 130.366,195.063Z" style="fill:rgb(191,231,243);fill-rule:nonzero;"/>
    </g>
    <g transform="matrix(1,0,0,1,0,14)">
        <path d="M328.507,78.603C348.354,55 316.772,71.263 316.772,71.263C326.375,41.944 306.257,60.197 306.257,60.197C306.585,76.119 299.85,79.759 299.85,79.759C270.497,115.647 240.004,116.7 240.004,116.7C240.004,116.7 239.429,111.066 238.266,102.65C257.085,90.584 264.325,66.338 264.325,66.338C271.3,43.009 283.51,42.7 283.51,42.7C332.507,24.263 285.288,28.25 285.288,28.25C310.985,-14.344 273.863,19.203 273.863,19.203C261.275,-20.966 259.469,14.353 259.469,14.353C268.032,54.472 245.294,80.481 236.229,89.059C234.635,79.719 232.557,69.172 229.963,59.484C222.95,33.678 200.7,46.788 181.257,55.103C161.825,63.431 154.1,78.913 161.691,83.75C169.319,88.556 171.969,96.669 173.332,118.547C174.729,140.419 137.569,159.856 119.457,168.563C101.322,177.263 53.632,175.175 46.738,174.372C39.838,173.531 37.885,169.328 37.885,169.328C28.935,156.803 27.163,171.206 27.163,171.206L31.091,179.75C-40.731,194.194 34.375,191.463 34.375,191.463C1.069,218.816 41.788,198.763 41.788,198.763C41.547,190.203 74.207,187.216 74.207,187.216C125.25,180.397 120.157,228.628 120.157,228.628C95.404,290.716 44.204,272.063 44.204,272.063C10.1,273.738 42.447,286.5 42.447,286.5C-0.831,309.456 49.535,298.788 49.535,298.788C30.454,323.025 60.3,304.281 60.3,304.281C67.2,294.447 81.763,286.366 81.763,286.366C245.347,206.688 246.516,136.444 246.516,136.444C292.125,119.819 294.65,109.578 302.338,100.856C309.991,92.138 324.657,95.081 324.657,95.081C356.766,92.5 328.507,78.603 328.507,78.603Z" style="fill:rgb(118,194,116);fill-rule:nonzero;"/>
    </g>
    <g transform="matrix(1,0,0,1,0,14)">
        <path d="M201.982,106.766C191.132,108.669 180.666,100.884 178.647,89.372C176.625,77.847 183.813,66.95 194.66,65.047C205.51,63.144 215.991,70.947 218.013,82.466C220.032,93.978 212.844,104.859 201.982,106.766Z" style="fill:white;fill-rule:nonzero;"/>
    </g>
    <g transform="matrix(1,0,0,1,0,14)">
        <path d="M198.863,69.666C205.71,68.469 212.247,73.038 213.447,79.884C214.65,86.728 210.063,93.272 203.216,94.475C196.366,95.678 189.844,91.088 188.644,84.238C187.444,77.388 192.013,70.872 198.863,69.666Z" style="fill:rgb(106,116,99);fill-rule:nonzero;"/>
    </g>
    <g transform="matrix(1,0,0,1,0,14)">
        <path d="M226.81,108.45C227.594,112.925 224.607,117.184 220.129,117.969C215.654,118.753 211.394,115.769 210.61,111.294C209.822,106.816 212.81,102.556 217.288,101.769C221.763,100.988 226.022,103.975 226.81,108.45Z" style="fill:rgb(241,203,193);fill-rule:nonzero;"/>
    </g>
</svg>
