<?xml version="1.0" encoding="UTF-8" standalone="no"?><!DOCTYPE svg PUBLIC "-//W3C//DTD SVG 1.1//EN" "http://www.w3.org/Graphics/SVG/1.1/DTD/svg11.dtd"><svg width="100%" height="100%" viewBox="0 0 81 66" version="1.1" xmlns="http://www.w3.org/2000/svg" xmlns:xlink="http://www.w3.org/1999/xlink" xml:space="preserve" style="fill-rule:evenodd;clip-rule:evenodd;stroke-linejoin:round;stroke-miterlimit:1.41421;"><path d="M69.536,23.788c-1.015,-0.142 -1.954,0.574 -2.096,1.603c-0.142,1.029 0.568,1.981 1.585,2.124c1.008,0.141 1.945,-0.573 2.089,-1.603c0.142,-1.027 -0.568,-1.976 -1.578,-2.124" style="fill:#c0d7f3;fill-rule:nonzero;"/><path d="M49.955,47.446c1.131,7.105 2.546,12.71 3.453,16.099c0.615,2.309 1.156,2.203 1.693,2.203l1.987,0c1.024,0 0.81,-3.192 0.81,-3.192c0,0 -0.899,-8.204 -0.946,-16.078c-1.632,0.705 -3.429,1.089 -5.28,1.089c-0.583,0 -1.153,-0.048 -1.717,-0.121" style="fill:#392e2a;fill-rule:nonzero;"/><path d="M42.728,63.721c0.409,2.127 0.956,2.027 1.495,2.027l1.987,0c1.022,0 1.098,-2.938 1.098,-2.938c0,0 -0.148,-6.943 0.422,-13.9c-1.953,1.196 -4.335,1.886 -6.846,1.958c0.51,5.61 1.3,10.053 1.844,12.853" style="fill:#392e2a;fill-rule:nonzero;"/><path d="M21.431,63.4c0.619,2.459 1.155,2.342 1.698,2.342l2.355,0c0.586,0 0.394,-2.883 0.394,-2.883c0,0 -1.423,-5.508 -1.705,-12.728c-2.481,-0.258 -4.855,-1.248 -6.838,-2.812c1.348,6.822 3.285,12.858 4.096,16.081" style="fill:#392e2a;fill-rule:nonzero;"/><path d="M14.565,44.373c-1.898,-0.156 -3.713,-0.714 -5.318,-1.581c0.67,7.117 1.158,16.133 1.971,20.153c0.584,2.938 1.239,2.803 1.887,2.803l1.532,0c1.228,0 1.185,-4.063 1.185,-4.063c0,0 0.163,-6.382 1.052,-14.725c-0.34,-0.293 -0.667,-0.604 -0.979,-0.933c-0.497,-0.523 -0.938,-1.078 -1.33,-1.654" style="fill:#392e2a;fill-rule:nonzero;"/><path d="M58.245,37.108c-2.156,-0.708 -3.839,-1.626 -4.634,-2.694c-2.258,-3.053 -3.303,-5.934 -2.801,-9.419c0.401,-2.782 -0.204,-2.064 0.446,-2.966c-2.515,0.269 -9.963,0.092 -9.901,-2.036c0.053,-1.955 4.452,-9.721 14.033,-5.325c0.75,-0.226 1.475,-0.405 2.186,-0.564c1.251,-0.279 2.441,-0.456 3.577,-0.546c1.117,-0.089 2.181,-0.096 3.189,-0.023c-0.368,-0.702 -0.798,-1.389 -1.309,-2.041c-2.607,-3.326 -6.702,-5.441 -10.798,-5.61c-0.458,-0.764 -0.964,-1.392 -1.442,-1.902c-2.291,-2.421 -5.706,-3.806 -9.373,-3.806c-2.103,0 -4.095,0.444 -5.824,1.251c-1.841,-0.93 -3.871,-1.427 -5.949,-1.427c-3.945,0 -7.321,1.745 -9.512,4.67c-0.292,-0.022 -0.579,-0.032 -0.873,-0.032c-4.426,0 -8.568,2.216 -10.805,5.78c-0.59,0.938 -1.027,1.931 -1.307,2.955c-4.501,1.667 -7.148,6.044 -7.148,10.157c0,3.13 1.193,5.877 3.281,7.893c-0.345,2.018 -0.094,4.054 0.78,5.975c1.041,2.286 2.899,4.158 5.186,5.394c1.605,0.868 3.42,1.425 5.318,1.582c0.392,0.575 0.833,1.13 1.33,1.653c0.312,0.329 0.639,0.639 0.979,0.933c0.148,0.127 0.308,0.238 0.461,0.359c1.983,1.564 4.357,2.554 6.838,2.812c0.437,0.045 0.878,0.069 1.321,0.069c2.347,0 4.621,-0.641 6.716,-1.86c2.291,1.636 5.121,2.547 8.241,2.547c0.146,0 0.288,-0.015 0.433,-0.019c2.51,-0.073 4.894,-0.762 6.845,-1.958c0.713,-0.435 1.369,-0.935 1.951,-1.496c0.092,0.014 0.184,0.02 0.275,0.032c0.564,0.072 1.133,0.12 1.717,0.12c1.851,0 3.649,-0.384 5.28,-1.087c1.938,-0.836 3.64,-2.125 4.904,-3.779c1.001,-1.307 1.686,-2.78 2.06,-4.352c-1.108,-0.147 -2.187,-0.337 -3.21,-0.568c-0.867,-0.197 -1.694,-0.421 -2.461,-0.672" style="fill:#c0d7f3;fill-rule:nonzero;"/><path d="M64.56,29.096c-0.089,0.347 -0.236,0.669 -0.438,0.951c-0.523,0.734 -1.377,1.216 -2.347,1.216c-1.592,0 -2.884,-1.291 -2.884,-2.884c0,-1.593 1.292,-2.885 2.884,-2.885c1.076,0 2.003,0.596 2.5,1.469c0.104,0.181 0.185,0.374 0.248,0.577c0.081,0.267 0.138,0.545 0.138,0.839c0,0.249 -0.042,0.486 -0.101,0.717m6.553,-3.184c-0.143,1.03 -1.08,1.744 -2.088,1.603c-1.017,-0.143 -1.728,-1.095 -1.585,-2.124c0.142,-1.029 1.081,-1.746 2.096,-1.603c1.009,0.148 1.72,1.097 1.577,2.124m8.677,4.22c0.458,-1.906 -0.209,-5.331 -2.2,-8.583c-2.389,-3.901 -6.693,-7.542 -13.25,-8.014c-1.009,-0.072 -2.072,-0.066 -3.189,0.022c-1.136,0.09 -2.325,0.268 -3.576,0.547c-0.712,0.159 -1.437,0.338 -2.187,0.564c-9.581,-4.397 -13.98,3.37 -14.032,5.324c-0.062,2.129 7.385,2.306 9.9,2.036c-0.65,0.903 -0.045,0.185 -0.446,2.967c-0.502,3.485 0.543,6.366 2.801,9.419c0.795,1.069 2.478,1.985 4.634,2.694c0.767,0.251 1.594,0.475 2.461,0.672c1.023,0.231 2.102,0.421 3.21,0.567c4.888,0.646 10.311,0.422 13.674,-1.037c3.017,-1.31 4.375,-3.614 2.2,-7.178" style="fill:#706962;fill-rule:nonzero;"/><path d="M64.56,29.096c0.059,-0.231 0.101,-0.468 0.101,-0.717c0,-0.294 -0.057,-0.572 -0.138,-0.839c-0.02,0.198 -0.045,0.395 -0.07,0.59c0.042,0.316 0.078,0.638 0.107,0.966" style="fill:#eed3dd;fill-rule:nonzero;"/><path d="M64.453,28.131c0.025,-0.197 0.05,-0.392 0.07,-0.591c-0.062,-0.203 -0.145,-0.395 -0.248,-0.578c0.065,0.376 0.124,0.768 0.178,1.169" style="fill:#eed3dd;fill-rule:nonzero;"/><path d="M64.122,30.048c0.202,-0.283 0.349,-0.605 0.438,-0.951c-0.029,-0.329 -0.065,-0.651 -0.107,-0.966c-0.083,0.649 -0.193,1.288 -0.331,1.917" style="fill:#eed3dd;fill-rule:nonzero;"/><path d="M64.275,26.963c-0.496,-0.873 -1.423,-1.469 -2.5,-1.469c-1.592,0 -2.884,1.292 -2.884,2.885c0,1.593 1.292,2.884 2.884,2.884c0.97,0 1.824,-0.482 2.347,-1.216c0.137,-0.628 0.248,-1.267 0.331,-1.916c-0.054,-0.401 -0.113,-0.793 -0.178,-1.168" style="fill:#eed3dd;fill-rule:nonzero;"/></svg>