<?xml version="1.0" encoding="UTF-8" standalone="no"?>
<!DOCTYPE svg PUBLIC "-//W3C//DTD SVG 1.1//EN" "http://www.w3.org/Graphics/SVG/1.1/DTD/svg11.dtd">
<svg width="100%" height="100%" viewBox="0 0 70 70" version="1.1" xmlns="http://www.w3.org/2000/svg" xmlns:xlink="http://www.w3.org/1999/xlink" xml:space="preserve" xmlns:serif="http://www.serif.com/" style="fill-rule:evenodd;clip-rule:evenodd;stroke-linejoin:round;stroke-miterlimit:1.41421;">
    <g transform="matrix(1,0,0,1,2.5,0)">
        <path d="M51.45,45.812C50.267,43.135 47.592,41.255 44.481,41.255C41.888,41.255 39.599,42.565 38.22,44.548C33.169,42.434 27.531,38.608 23.275,31.679C25.05,30.283 26.213,28.141 26.213,25.712C26.213,21.608 22.943,18.272 18.872,18.117C22.773,14.975 42.011,0 54.463,0C57.297,0 59.777,0.775 61.647,2.643C71.381,12.376 55.376,39.524 51.45,45.812" style="fill:rgb(137,64,127);fill-rule:nonzero;"/>
    </g>
    <g transform="matrix(1,0,0,1,2.5,0)">
        <path d="M37.144,46.917C36.58,46.35 35.899,45.849 35.124,45.457C31.087,43.405 25.974,39.927 22.487,34.41C22.113,33.814 21.687,33.286 21.227,32.838C20.401,33.144 19.517,33.336 18.586,33.336C17.237,33.336 15.987,32.955 14.886,32.336C14.764,32.448 14.645,32.56 14.526,32.689C11.977,35.508 9.27,39.631 8.451,44.962C7.782,48.809 3.432,53.493 0.755,53.493C-1.921,53.493 9.12,60.853 13.134,41.782C14.472,36.932 20.829,36.823 18.152,41.561C15.479,46.302 8.955,57.177 1.596,60.853C-5.763,64.534 14.309,57.007 21.501,44.545C22.839,41.617 25.684,45.139 23.677,47.141C21.669,49.145 12.739,56.536 12.186,61.789C11.631,67.042 13.638,56.504 28.692,49.144C31.371,47.805 33.377,51.484 29.697,53.493C26.015,55.501 13.881,62.858 15.85,68.882C16.816,71.558 18.822,62.693 28.358,59.515C32.495,58.136 35.505,55.78 37.588,53.557C37.769,53.362 37.924,53.166 38.064,52.963C37.308,51.777 36.855,50.384 36.855,48.88C36.855,48.197 36.974,47.547 37.144,46.917" style="fill:rgb(188,143,179);fill-rule:nonzero;"/>
    </g>
    <g transform="matrix(1,0,0,1,2.5,0)">
        <path d="M18.589,29.962C19.169,29.962 19.721,29.843 20.225,29.634C20.488,29.523 20.738,29.387 20.972,29.229C21.21,29.069 21.431,28.877 21.631,28.67C22.375,27.905 22.836,26.865 22.836,25.714C22.836,23.467 21.089,21.649 18.879,21.495C18.781,21.488 18.689,21.467 18.589,21.467C18.389,21.467 18.197,21.498 18.005,21.527C17.719,21.564 17.446,21.63 17.181,21.725C15.53,22.305 14.339,23.864 14.339,25.714C14.341,28.059 16.242,29.962 18.589,29.962" style="fill:rgb(67,64,64);fill-rule:nonzero;"/>
    </g>
    <g transform="matrix(1,0,0,1,2.5,0)">
        <path d="M48.608,47.91C48.535,47.607 48.429,47.318 48.298,47.046C47.612,45.622 46.167,44.632 44.481,44.632C43.374,44.632 42.374,45.065 41.617,45.76C41.395,45.964 41.192,46.187 41.017,46.432C40.852,46.668 40.707,46.917 40.59,47.185C40.365,47.702 40.232,48.276 40.232,48.88C40.232,51.225 42.135,53.126 44.481,53.126C46.827,53.128 48.73,51.226 48.73,48.88C48.73,48.841 48.72,48.803 48.717,48.766C48.708,48.471 48.671,48.187 48.608,47.91" style="fill:rgb(67,64,64);fill-rule:nonzero;"/>
    </g>
</svg>
